<?xml version="1.0" encoding="utf-8"?>
<!-- Generator: Adobe Illustrator 26.5.0, SVG Export Plug-In . SVG Version: 6.00 Build 0)  -->
<svg version="1.1" id="Layer_1" xmlns="http://www.w3.org/2000/svg" xmlns:xlink="http://www.w3.org/1999/xlink" x="0px" y="0px"
	 viewBox="0 0 111.3 59.5" style="enable-background:new 0 0 111.3 59.5;" xml:space="preserve">
<style type="text/css">
	.st0{fill:#F0F0F0;}
	.st1{fill:none;stroke:#ADADAD;stroke-width:0.1;}
	.st2{fill:none;stroke:#ADADAD;stroke-width:0.2;}
	.st3{fill:none;stroke:#64C8FA;stroke-width:0.2;}
	.st4{fill:#ADADAD;stroke:#ADADAD;stroke-width:0.1;}
	.seat{fill:#505050;}
</style>
<path class="st0" d="M43.1,58.5v-3.1h0.1V42.1H28v17.5h15.1 M21.5,55.4h2v3.1h-2 M13.6,47.1h-1.8v12.4h15.9V41.8h-6.2h-0.2v0.1h-0.2
	h-7.5 M0.8,55.4h1v3.3H0v0.9h11.5V47.1H0.8 M0.8,46.8h10.8h1.6v-5.1v-6.5V33h-1.6H0.8 M21.1,35.4h-7.5v6.2h7.5v-0.2 M108.1,56.4h2v2
	h-2 M98.3,59.5h12.9V43.6H98.3 M108.1,1.2h2v2h-2 M98.3,0v10.4v0.2v0.3v12h12.9V0 M87.5,1.2h0.9v2h-0.3v7.2h9.8h0.3V0H87.5
	 M65.2,24.9h-0.6v-0.2h-8.2V35h8.7 M66.9,24.7v0.2h-1.3V35h7.2V24.7 M73.1,24.7v9.9V35h8.7V24.7 M88.5,24.9h-2.2v-0.2h-4.2V35h7.1
	V24.9H88.5 M0.8,32.7h10.7v-7.8H7H0.8 M13.6,35.1H21v-2.4h0.3v-7.8H12h-0.2v7.8h1.8 M51.2,24.7h0.3V35h-0.3 M64.7,22.4h2.2v2.3h5.9
	H73h8.8l0,0h0.3h4.2v-2.3h2.2v2.1h1V35h-0.3h-7.1h-0.2h-8.8l0,0h-0.3h-0.3h-6.9l0,0h-0.3h-8.7h-0.3V24.7h0.3h8.2 M64.8,55.4h2v3.1
	h-2 M86.4,55.4h2v3.1h-2 M108.1,29h2v2h-2 M21.3,35.2v0.2h-0.2l0,0v6.4h6.8v-0.2h14.9h0.5v0.8v13h1.9v3.1h-2v1.1h55.2v-16h12.9V22.8
	h-13V10.3H88V3.2h-1.5v-2h1.1V0H66.8v1.2v2h-2v-2h2V0H44.1v1v1.7v0.6v17h0.5V25h-1.3h-8.1h-0.5H23.1h-0.5h-1.2v7.8"/>
<path class="st1" d="M10.7,36.1c0.1,1.4,1.2,2.5,2.6,2.5 M13.3,36.1h-2.6 M10.7,36L10.7,36 M13.3,36h-2.6 M13.3,36L13.3,36 M11,44.2
	c-1.4,0.1-2.5,1.2-2.5,2.6 M11,46.8v-2.6 M11.2,44.2H11 M11.2,46.8v-2.6 M11.2,46.8H11 M14.8,23.1c-0.1-1.4-1.2-2.5-2.6-2.5
	 M12.1,23.1h2.6 M14.8,23.2v-0.1 M12.1,23.2h2.6 M12.1,23.2v-0.1 M15.4,6.8c0-1.4-1.1-2.6-2.5-2.6 M12.9,6.8V4.2 M12.8,4.2h0.1
	 M12.8,6.8V4.2 M12.8,6.8h0.1 M12.1,10.3c1.4,0,2.6-1.1,2.6-2.5 M12.1,7.7h2.6 M14.8,7.6L14.8,7.6 M12.1,7.6h2.6 M12.1,7.6L12.1,7.6
	 M19.3,20.7c0.1,1.6,1.4,2.8,3,2.8 M22.3,20.7h-3 M19.3,20.6v0.1 M22.3,20.6h-3 M22.3,20.6v0.1 M34.9,20.6c-1.6,0-2.9,1.3-3,2.8
	 M34.9,23.4h-3 M32,23.5v-0.1 M34.9,23.5h-3 M34.9,23.5v-0.1 M6.9,3.4c-1.2,0-2.2,1-2.3,2.2 M6.9,5.5H4.6 M4.6,5.7V5.5 M6.9,5.7H4.6
	 M6.9,5.7V5.5 M5.1,8.2c0.1,1,0.9,1.7,1.8,1.7 M6.9,8.2H5.1 M5.1,8.1v0.1 M6.9,8.1H5.1 M6.9,8.1v0.1 M6.9,10.6c-1,0-1.8,0.7-1.8,1.7
	 M6.9,12.3H5.1 M5.1,12.4v-0.1 M6.9,12.4H5.1 M6.9,12.4v-0.1 M5.1,21.5c0.1,1,0.9,1.7,1.8,1.7 M6.9,21.5H5.1 M5.1,21.4v0.1
	 M6.9,21.4H5.1 M6.9,21.4v0.1 M6.9,18.6c-1.1,0-2.1,0.9-2.1,2 M6.9,20.6H4.7 M4.7,20.8v-0.1 M6.9,20.8H4.7 M6.9,20.8v-0.1
	 M11.5,29.5c-1.4,0-2.6,1.1-2.7,2.6 M11.5,32.1H8.8 M8.8,32.2L8.8,32.2 M11.5,32.2H8.8 M11.5,32.2L11.5,32.2 M65.7,34.9v-2.4
	 M68.2,34.9c0-1.3-1.1-2.4-2.4-2.4l0,0 M81.6,24.9v2.4 M79.1,24.8c0,1.3,1.1,2.4,2.4,2.4l0,0 M65.1,34.9v-2.4
	c-1.3,0-2.4,1.1-2.5,2.4l0,0 M82.2,24.9v2.4c1.3,0,2.4-1.1,2.4-2.4l0,0 M14.1,44.5c1.4-0.1,2.5-1.2,2.5-2.6 M14.1,41.9v2.6
	 M13.9,44.5H14 M13.9,41.9v2.6 M13.9,41.9H14 M99.4,43.6v2.5c1.4,0,2.5-1.1,2.5-2.5 M96.6,10.4V7.9c-1.4,0-2.5,1.1-2.5,2.5
	 M99.4,22.8v-2.5 M101.9,22.8c0-1.4-1.1-2.5-2.5-2.5 M21,36.1h-2.4c0,1.4,1.1,2.5,2.5,2.5 M22.9,41.9v2.4c1.4,0,2.5-1.1,2.5-2.5
	 M40.1,42.1c0,1.4,1.1,2.6,2.6,2.7 M42.7,42.1v2.7 M42.8,44.8L42.8,44.8 M42.8,42.1v2.7 M42.8,42.1L42.8,42.1"/>
<path class="st1" d="M13.6,35.4h7.7 M21,35h-7.4 M21.3,35.4v-2.7H21v2.4 M1.8,55.4h-1 M0,55.4v3.3h1.8v-3.3 M88.4,1.2h-2v2H88
	 M88.1,3.2h0.3v-2 M66.9,22.4h-2.2v2.4h0.6 M65.5,24.9h1.3v-2.4 M44.6,20.2h-0.5 M43.3,20.2v3.5 M43.3,24v0.5 M43.3,24.9h1.3v-4.7
	 M0.8,47.1h7.7v-0.3H0.8 M11.1,47.1h0.3 M11.8,47.1h1.8 M13.3,46.8h-2.1v0.3 M13.6,47.1v-5.2 M13.6,41.6v-3h-0.3v8.2 M13.6,36v-0.6
	 M13.6,35v-2.4 M13.3,33v3h0.3 M13.6,32.7h-1.8 M11.5,32.7H0.8 M0.8,33h12.5 M27.7,41.6v17.1H28V42.1 M11.5,47.1v11.5h0.3V47.1
	 M0.8,24.8h10.7 M11.8,24.8h11 M22.3,24.4H12.1 M11.8,24.4H7.2 M6.9,24.4H1.3 M22.8,24.8v-1.3 M22.3,24v0.3 M22.3,23.7H12.1
	 M12.1,24h10.2 M11.8,7.1v0.5h0.3V7.1 M11.8,10.2v4.4 M11.8,15v1.1 M11.8,16.5v4.1h0.3V10.2h-0.3 M11.8,23.2v1.2 M12.1,24.4V24
	 M12.1,23.7v-0.5h-0.3 M16.1,6.8h-0.7v0.3h0.7 M12.8,6.8H7.2 M6.9,6.8H1.3 M1.3,7.1h5.6 M7.2,7.1h4.6 M12.1,7.1h0.7V6.8 M1.3,10.4
	h5.6 M6.9,10.1H1.3 M6.9,7.1v1h0.3v-1 M6.9,9.9v0.2 M6.9,10.4v0.2h0.3V9.9H6.9 M6.9,12.4v0.8 M6.9,14v4.6h0.3v-2.1 M7.2,16.1V15
	 M7.2,14.7v-2.3H6.9 M6.9,20.7v0.2 M6.9,21.2v0.2h0.3v-0.6H6.9 M6.9,23.2v1.1 M7.2,24.4v-1.1H6.9 M1.3,21.2h5.6 M6.9,20.9H1.3
	 M7.2,16.5h4.6 M11.8,16.1h-1.1 M10.3,16.1H7.2 M7.2,15h3.1 M10.7,15h1.1 M11.8,14.7H7.2 M10.3,15v1.1 M10.7,16.1V15 M7.2,6.8V5.7
	H6.9v1.1 M7.2,3.4V2 M6.9,2v1.3h0.3 M16.1,2v4.8 M16.9,7.6V2 M16.1,8.4h2 M18.9,7.9V7.6h-2 M16.1,7.1v1.3 M18,8.4v3.8 M18,12.5v3.3
	 M18,16.2v3.4 M18.9,19.1v-5.2 M18.9,13.5V8.3 M16.1,19.9h6.2 M22.8,19.9h3 M25.3,19.1h-6.4 M22.3,19.9v0.6h0.5v-0.6 M22.3,23.5v0.2
	 M22.8,23.5h-0.5 M18.9,13.9h6.4 M25.3,13.5h-6.4 M18.9,8.3h6.4 M25.3,7.9h-6.4 M16.1,12.5h2 M18,12.2h-2v0.3 M16.1,16.2h2 M18,15.9
	h-2v0.3 M18,19.6h-2v0.3 M25.7,19.9v-1.3h-0.5v0.5 M1.3,14h5.6 M6.9,13.2H1.3 M25.3,2v1.3h0.5V2 M25.3,7.3V8 M25.3,8.3v1h0.2v-2
	h-0.2 M25.3,13.4v0.2 M25.3,13.9v1.5h0.2v-2h-0.2 M43.3,24.5h-7.9 M34.9,24.8h8.4 M35.4,24.5V24 M35.4,23.7v-0.2h-0.5v1.3
	 M35.4,20.6V3.4 M34.9,2v18.5h0.5 M35.4,24h7.9 M43.3,23.7h-7.9 M44.1,20.2V0.9 M43.3,2v1 M43.3,3.4v16.8 M40.3,3V2 M40,2v1.3h3.3
	 M43.3,3h-3 M1.3,2h5.6 M7.2,2h5.4V0.9H0 M15.6,2h0.5 M16.9,2h8.4 M25.7,2h0.8V0.9h-11V2 M34.1,2h0.8 M35.9,2H40 M40.3,2h3
	 M44.1,0.9h-10V2h-7.5 M15.6,2h-2.9 M12.7,0.9h2.9 M26.6,0.9h7.5 M35.4,3.4h0.5V2 M88,3.2v7.3h0.2V3.2 M98.2,0.9v9.6h0.2V0.9H98.2
	 M1.3,24.4v-3.1 M1.3,20.9V14 M1.3,13.2v-2.8 M1.3,10.1v-3 M1.3,6.8V2 M0.8,55.4v-8.2 M0.8,46.8V33 M0.8,32.7v-7.8 M0,0.9v54.5
	 M11.8,32.7v-0.5h-0.3v0.5 M11.8,29.5v-4.7 M11.5,24.8v4.7h0.3 M51.2,24.7V35h0.3V24.7H51.2 M56.2,24.7V35h0.3V24.7H56.2 M65.2,24.8
	V35h0.3V24.8 M72.8,24.7V35h0.3V24.7H72.8 M81.7,24.7V35H82V24.7H81.7 M88.5,24.8h0.7 M89.5,24.5h-1v0.3 M89.2,24.8V35h0.3V24.5
	 M28,42.1h12.1v-0.5H27.7 M42.8,42.1h0.3v-0.5h-0.3V42.1 M13.6,41.9h0.3v-0.3h-0.3 M16.6,41.9h4.8v-0.3h-4.8L16.6,41.9"/>
<path class="st2" d="M23.5,55.4h-2v3.1h2V55.4 M45.1,55.4h-2v3.1h2V55.4 M66.8,55.4h-2v3.1h2V55.4 M88.4,55.4h-2v3.1h2V55.4
	 M110.1,29h-2v2h2V29 M110.1,1.2h-2v2h2V1.2 M66.8,1.2h-2v2h2V1.2 M88.6,22.4h-2.2v2.4h2.2V22.4 M110.1,56.4h-2v2h2V56.4"/>
<path class="st1" d="M35.4,17.5L35.4,17.5 M35.6,17.5h3.3 M39,17.5L39,17.5 M39,11v-0.8 M39,12v-1 M39,12.9V12 M39,13.8v-0.9
	 M39,14.7v-0.9 M39,15.6v-0.9 M39,16.5v-0.9 M39,17.5v-0.9 M37.6,11h1.3 M39,11L39,11 M36.9,11h0.3 M35.4,12L35.4,12 M35.6,12h3.3
	 M39,12L39,12 M35.4,12.9L35.4,12.9 M35.6,12.9h3.3 M39,12.9L39,12.9 M35.4,13.8L35.4,13.8 M35.6,13.8h3.3 M39,13.8L39,13.8
	 M35.4,14.7L35.4,14.7 M35.6,14.7h3.3 M39,14.7L39,14.7 M35.4,15.6L35.4,15.6 M35.6,15.6h3.3 M39,15.6L39,15.6 M35.4,16.5L35.4,16.5
	 M35.6,16.5h3.3 M39,16.5L39,16.5 M35.4,17.5L35.4,17.5 M35.6,17.5h3.3 M39,17.5L39,17.5 M37.6,11h1.3 M39,11L39,11 M36.9,11h0.3
	 M35.4,12L35.4,12 M35.6,12h3.3 M39,12L39,12 M35.4,12.9L35.4,12.9 M35.6,12.9h3.3 M39,12.9L39,12.9 M35.4,13.8L35.4,13.8
	 M35.6,13.8h3.3 M39,13.8L39,13.8 M35.4,14.7L35.4,14.7 M35.6,14.7h3.3 M39,14.7L39,14.7 M35.4,15.6L35.4,15.6 M35.6,15.6h3.3
	 M39,15.6L39,15.6 M35.4,16.5L35.4,16.5 M35.6,16.5h3.3 M39,16.5L39,16.5 M39.7,7.3L39.7,7.3 M39,7.3h0.7 M39,8.3v-1 M35.4,3.4v4.9
	 M43.3,3.4h-7.9 M43.3,7.4v-4 M43.3,16.5h-3.6 M43.3,7.4h-3.6 M35.4,8.3H39 M39.7,7.4v9.2 M43.3,7.4v9.2 M39,10.2V8.3 M35.4,10.4
	V8.3 M36.9,11.2l-1.3,0.6 M35.5,11.9L35.5,11.9 M37,10.6l-0.2,0.6 M37.5,11.5L37,10.6 M37.6,10.9l-0.2,0.6 M39,10.2L39,10.2
	 M38.9,10.3l-1.3,0.6 M43.3,15.6h-3.6 M43.3,14.7h-3.6 M43.3,13.8h-3.6 M43.3,12.9h-3.6 M43.3,12h-3.6 M43.3,11h-3.6 M43.3,10.1
	h-3.6 M43.3,9.2h-3.6 M43.3,8.3h-3.6 M43.3,7.4h-3.6 M35.4,8.3H39 M35.4,9.2H39 M35.4,10.1H39 M37.2,11h0.3 M35.4,11h1.5 M43.3,15.6
	h-3.6 M43.3,14.7h-3.6 M43.3,13.8h-3.6 M43.3,12.9h-3.6 M43.3,12h-3.6 M43.3,11h-3.6 M43.3,10.1h-3.6 M43.3,9.2h-3.6 M43.3,8.3h-3.6
	 M35.4,9.2H39 M35.4,10.1H39 M37.2,11h0.3 M35.4,11h1.5"/>
<path class="st3" d="M56.7,35h5.8l0,0H56.7L56.7,35 M73.3,35h8.3l0,0H73.3L73.3,35 M82.2,35H89l0,0H82.2L82.2,35 M86.2,24.8h-1.3
	l0,0H86.2L86.2,24.8 M72.6,24.8h-5.5l0,0H72.6L72.6,24.8 M64.5,24.8h-7.8l0,0H64.5L64.5,24.8 M68.3,35h4.3l0,0H68.3L68.3,35
	 M79,24.8h-5.7l0,0H79L79,24.8 M43.3,41.9v13.3l0,0V41.9L43.3,41.9 M98.3,58.5V43.6l0,0V58.5L98.3,58.5 M98.3,43.6h0.9l0,0H98.3
	L98.3,43.6 M102,43.6h8.2l0,0H102L102,43.6 M98,10.4h-1.2l0,0H98L98,10.4 M98.3,22.8V10.7l0,0V22.8L98.3,22.8 M110.2,22.9H102l0,0
	H110.2L110.2,22.9 M94,10.4h-5.7l0,0H94L94,10.4 M99.3,22.9h-0.9l0,0H99.3L99.3,22.9 M111.1,0h-7.4v0.1L111.1,0L111.1,0 M103.6,0
	h-5.2v0.1L103.6,0L103.6,0 M98.2,0H93v0.1L98.2,0L98.2,0 M92.8,0h-5.2v0.1L92.8,0L92.8,0 M87.4,0h-5.2v0.1L87.4,0L87.4,0 M81.9,0
	h-5.2v0.1L81.9,0L81.9,0 M76.5,0h-5.2v0.1L76.5,0L76.5,0 M71.1,0h-5.2v0.1L71.1,0L71.1,0 M65.7,0h-5.2v0.1L65.7,0L65.7,0 M60.3,0H55
	v0.1L60.3,0L60.3,0 M54.9,0h-5.2v0.1L54.9,0L54.9,0 M49.5,0h-5.3v0.1L49.5,0L49.5,0 M111.2,58.5v-8h-0.1L111.2,58.5L111.2,58.5
	 M111.2,50.4v-6.7h-0.1L111.2,50.4L111.2,50.4 M111.2,43.5v-6.7h-0.1L111.2,43.5L111.2,43.5 M111.2,36.6v-6.7h-0.1L111.2,36.6
	L111.2,36.6 M111.2,29.7V23h-0.1L111.2,29.7L111.2,29.7 M111.2,22.8v-6.7h-0.1L111.2,22.8L111.2,22.8 M111.2,15.9V9.2h-0.1
	L111.2,15.9L111.2,15.9 M111.2,9V1h-0.1L111.2,9L111.2,9 M0.2,59.5h6v-0.1L0.2,59.5L0.2,59.5 M6.3,59.5h5.2v-0.1L6.3,59.5L6.3,59.5
	 M11.7,59.5H17v-0.1L11.7,59.5L11.7,59.5 M17.1,59.5h5.2v-0.1L17.1,59.5L17.1,59.5 M22.6,59.5h5.2v-0.1L22.6,59.5L22.6,59.5
	 M28,59.5h5.2v-0.1L28,59.5L28,59.5 M33.4,59.5h5.2v-0.1L33.4,59.5L33.4,59.5 M38.8,59.5H44v-0.1L38.8,59.5L38.8,59.5 M44.2,59.5
	h5.2v-0.1L44.2,59.5L44.2,59.5 M49.6,59.5h5.2v-0.1L49.6,59.5L49.6,59.5 M55,59.5h5.2v-0.1L55,59.5L55,59.5 M60.5,59.5h5.2v-0.1
	L60.5,59.5L60.5,59.5 M65.9,59.5h5.2v-0.1L65.9,59.5L65.9,59.5 M71.3,59.5h5.2v-0.1L71.3,59.5L71.3,59.5 M76.7,59.5h5.2v-0.1
	L76.7,59.5L76.7,59.5 M82.1,59.5h5.2v-0.1L82.1,59.5L82.1,59.5 M87.5,59.5h5.2v-0.1L87.5,59.5L87.5,59.5 M92.9,59.5h5.2v-0.1
	L92.9,59.5L92.9,59.5 M98.3,59.5h5.2v-0.1L98.3,59.5L98.3,59.5 M103.8,59.5h7.4v-0.1L103.8,59.5L103.8,59.5 M21.2,41.4v-2.7l0,0
	V41.4L21.2,41.4 M21.2,36v-0.6l0,0V36L21.2,36 M27.6,41.7h-2.1l0,0H27.6L27.6,41.7 M22.7,41.7h-1.4l0,0H22.7L22.7,41.7 M31.5,24.8
	h3.3l0,0H31.5L31.5,24.8 M23,24.6h3.3l0,0H23L23,24.6 M26.4,24.9h4.9l0,0H26.4L26.4,24.9 M65.1,35h0.2v-0.2h-0.2V35 M72.6,35h0.2
	v-0.2h-0.2V35 M73.1,35h0.2v-0.2h-0.2V35 M81.6,35h0.2v-0.2h-0.2V35 M82.1,35h0.2v-0.2h-0.2V35 M89.1,35h0.2v-0.2h-0.2V35
	 M56.7,24.7h-0.2v0.2h0.2V24.7 M64.7,24.7h-0.2v0.2h0.2V24.7 M67.1,24.7h-0.2v0.2h0.2V24.7 M72.8,24.7h-0.2v0.2h0.2V24.7 M73.3,24.7
	h-0.2v0.2h0.2V24.7 M84.9,24.7h1.3 M84.9,24.8h1.3 M67.1,24.7h5.5 M67.1,24.8h5.5 M56.7,24.7h7.8 M56.7,24.8h7.8 M62.5,35h-5.8
	 M62.5,34.9h-5.8 M81.6,35h-8.3 M81.6,34.9h-8.3 M89.1,35h-6.8 M89.1,34.9h-6.8 M56.5,35h0.2v-0.2h-0.2V35 M72.6,35h-4.3 M72.6,34.9
	h-4.3 M65.6,35h0.2v-0.2h-0.2V35 M73.3,24.7H79 M73.3,24.8H79 M86.3,24.7h-0.2v0.2h0.2V24.7 M0,59.5h0.2v-0.9H0V59.5 M111.3,58.6
	v-0.2h-0.9v0.2H111.3 M111.3,0h-0.2v0.9h0.2V0 M81.8,24.7h-0.2v0.2h0.2V24.7 M82.2,24.7H82v0.2h0.2V24.7 M43.1,55.2v0.2h0.3v-0.2
	H43.1V42.1 M43.5,55.2V41.9 M43.1,41.6v0.3h0.3v-0.3H43.1 M110.2,43.6h0.2v-0.2h-0.2V43.6 M98.3,43.6v-0.2h-0.2v0.2H98.3 M98.3,58.6
	v-0.2h-0.2v0.2H98.3 M99.3,43.6h-0.9 M99.3,43.5h-0.9 M98.3,43.6v14.8 M98.2,43.6v14.8 M110.2,43.6H102 M110.2,43.5H102 M88.3,10.3
	h-0.2v0.2h0.2V10.3 M98.3,10.7v-0.2h-0.2v0.2H98.3 M98.3,23v-0.2h-0.2V23H98.3 M102,22.8h8.2 M102,23h8.2 M98.3,10.7v12.1
	 M98.2,10.7v12.1 M96.8,10.3H98 M96.8,10.5H98 M88.3,10.3H94 M88.3,10.5H94 M98.3,22.8h0.9 M98.3,23h0.9 M110.4,22.8h-0.2V23h0.2
	V22.8 M98.2,10.3H98v0.2h0.2V10.3 M62.5,35h0.2v-0.2h-0.2V35 M68.2,35h0.2v-0.2h-0.2V35 M84.9,24.7h-0.2v0.2h0.2V24.7 M79.1,24.7
	L79.1,24.7L79,24.9h0.2L79.1,24.7 M44.1,0L44.1,0L44,0.9h0.2V0 M49.6,0h-0.2v0.9h0.2V0 M55,0h-0.2v0.9H55V0 M60.5,0h-0.2v0.9h0.2V0
	 M65.9,0h-0.2v0.9h0.2V0 M71.3,0h-0.2v0.9h0.2V0 M76.7,0h-0.2v0.9h0.2V0 M82.1,0h-0.2v0.9h0.2V0 M87.5,0h-0.2v0.9h0.2V0 M92.9,0
	h-0.2v0.9h0.2V0 M98.3,0h-0.2v0.9h0.2V0 M103.8,0h-0.2v0.9h0.2V0 M44.1,0h5.3 M49.5,0.9h-5.3 M49.6,0h5.2 M54.9,0.9h-5.2 M55,0h5.2
	 M60.3,0.9H55 M60.5,0h5.2 M65.7,0.9h-5.2 M65.9,0h5.2 M71.1,0.9h-5.2 M71.3,0h5.2 M76.5,0.9h-5.2 M76.7,0h5.2 M81.9,0.9h-5.2
	 M82.1,0h5.2 M87.4,0.9h-5.2 M87.5,0h5.2 M92.8,0.9h-5.2 M92.9,0h5.2 M98.2,0.9H93 M98.3,0h5.2 M103.6,0.9h-5.2 M103.8,0h7.4
	 M110.4,0.9h-6.6 M94.2,10.3H94v0.2h0.2V10.3 M96.8,10.3h-0.2v0.2h0.2V10.3 M102,22.8h-0.2V23h0.2V22.8 M99.4,22.8h-0.2V23h0.2V22.8
	 M101.9,43.6h0.2v-0.2h-0.2V43.6 M99.3,43.6h0.2v-0.2h-0.2V43.6 M111.3,1.1V0.9h-0.9v0.2H111.3 M111.3,9.2V9h-0.9v0.2H111.3
	 M111.3,16.1v-0.2h-0.9v0.2H111.3 M111.3,23v-0.2h-0.9V23H111.3 M111.3,29.8v-0.2h-0.9v0.2H111.3 M111.3,36.7v-0.2h-0.9v0.2H111.3
	 M111.3,43.6v-0.2h-0.9v0.2H111.3 M111.3,50.5v-0.2h-0.9v0.2H111.3 M111.3,1.1v8 M110.4,9V1 M111.3,9.2v6.7 M110.4,15.9V9.2
	 M111.3,16.1v6.7 M110.4,22.8v-6.7 M111.3,23v6.7 M110.4,29.7V23 M111.3,29.8v6.7 M110.4,36.6v-6.7 M111.3,36.7v6.7 M110.4,43.5
	v-6.7 M111.3,43.6v6.7 M110.4,50.4v-6.7 M111.3,50.5v8 M110.4,58.5v-8 M6.2,59.5h0.2v-0.9H6.2V59.5 M11.6,59.5h0.2v-0.9h-0.2V59.5
	 M17,59.5h0.2v-0.9H17V59.5 M22.4,59.5h0.2v-0.9h-0.2V59.5 M27.8,59.5H28v-0.9h-0.2V59.5 M33.2,59.5h0.2v-0.9h-0.2V59.5 M38.6,59.5
	h0.2v-0.9h-0.2V59.5 M44.1,59.5h0.2v-0.9h-0.2V59.5 M49.5,59.5h0.2v-0.9h-0.2V59.5 M54.9,59.5L54.9,59.5l0.1-0.9h-0.2v0.9
	 M60.3,59.5h0.2v-0.9h-0.2V59.5 M65.7,59.5h0.2v-0.9h-0.2V59.5 M71.1,59.5h0.2v-0.9h-0.2V59.5 M76.5,59.5h0.2v-0.9h-0.2V59.5
	 M81.9,59.5h0.2v-0.9h-0.2V59.5 M87.4,59.5h0.2v-0.9h-0.2V59.5 M92.8,59.5H93v-0.9h-0.2V59.5 M98.2,59.5h0.2v-0.9h-0.2V59.5
	 M103.6,59.5h0.2v-0.9h-0.2V59.5 M111.1,59.5h0.2v-0.9h-0.2V59.5h-7.4 M103.8,58.6h6.6 M103.6,59.5h-5.2 M98.3,58.6h5.2 M98.2,59.5
	H93 M92.9,58.6h5.2 M92.8,59.5h-5.2 M87.5,58.6h5.2 M87.4,59.5h-5.2 M82.1,58.6h5.2 M81.9,59.5h-5.2 M76.7,58.6h5.2 M76.5,59.5h-5.2
	 M71.3,58.6h5.2 M71.1,59.5h-5.2 M65.9,58.6h5.2 M65.7,59.5h-5.2 M60.5,58.6h5.2 M60.3,59.5H55 M55,58.6h5.2 M54.9,59.5h-5.2
	 M49.6,58.6h5.2 M49.5,59.5h-5.2 M44.2,58.6h5.2 M44.1,59.5h-5.2 M38.8,58.6H44 M38.6,59.5h-5.2 M33.4,58.6h5.2 M33.2,59.5H28
	 M28.1,58.6h5.2 M27.8,59.5h-5.2 M22.6,58.6h5.2 M22.4,59.5h-5.2 M17.1,58.6h5.2 M17,59.5h-5.2 M11.8,58.6H17 M11.6,59.5H6.3
	 M6.3,58.6h5.2 M6.2,59.5h-6 M1.8,58.6h4.3 M21.3,41.6v-0.2H21v0.2H21.3 M21.3,38.8v2.7 M21,38.8v2.7 M21.3,35.4V36 M21,35.4V36
	 M21.3,38.8v-0.2H21v0.2H21.3 M21.3,36.1L21.3,36.1L21,36v0.2h0.3 M27.7,41.6h-0.2v0.3h0.2V41.6 M25.5,41.6h2.1 M25.5,41.9h2.1
	 M21.3,41.6h1.4 M21.3,41.9h1.4 M25.5,41.6h-0.2v0.3h0.2V41.6 M22.9,41.6h-0.2v0.3h0.2V41.6 M34.8,24.8H35v-0.2h-0.2V24.8h-3.3
	 M34.8,24.7h-3.3 M31.3,24.8h0.2v-0.2h-0.2V24.8 M26.3,24.7h0.2v-0.2h-0.2V24.7H23 M26.3,24.5H23 M22.8,24.7H23v-0.2h-0.2V24.7
	 M31.3,25h0.2v-0.2h-0.2V25h-4.9 M31.3,24.8h-4.9 M26.3,25h0.2v-0.2h-0.2V25 M12.9,1.9h2.5 M15.5,1.8V0.9 M15.6,0.9h-0.1 M15.4,1.8
	h0.1 M15.4,2V1.8 M15.6,2h-0.1 M15.6,2V1.8 M15.6,2L15.6,2 M12.8,1.8V0.9 M12.9,2V1.8 M12.7,2V1.8h0.1 M12.7,2h0.1 M12.7,0.9h0.1
	 M12.7,2L12.7,2 M33.9,1.9h-7.1 M26.7,1.8V0.9 M26.6,0.9h0.1 M26.8,1.8h-0.1 M26.8,2V1.8 M26.6,2h0.1 M26.6,2V1.8 M26.6,2L26.6,2
	 M34,1.8V0.9 M33.9,2V1.8 M34.1,2V1.8h-0.2 M34.1,2h-0.2 M34.1,0.9L34.1,0.9 M34.1,2L34.1,2"/>
<path class="st3" d="M56.7,35h5.8l0,0H56.7L56.7,35 M73.3,35h8.3l0,0H73.3L73.3,35 M82.2,35H89l0,0H82.2L82.2,35 M86.2,24.8h-1.3
	l0,0H86.2L86.2,24.8 M72.6,24.8h-5.5l0,0H72.6L72.6,24.8 M64.5,24.8h-7.8l0,0H64.5L64.5,24.8 M68.3,35h4.3l0,0H68.3L68.3,35
	 M79,24.8h-5.7l0,0H79L79,24.8 M43.3,41.9v13.3l0,0V41.9L43.3,41.9 M98.3,58.5V43.6l0,0V58.5L98.3,58.5 M98.3,43.6h0.9l0,0H98.3
	L98.3,43.6 M102,43.6h8.2l0,0H102L102,43.6 M98,10.4h-1.2l0,0H98L98,10.4 M98.3,22.8V10.7l0,0V22.8L98.3,22.8 M110.2,22.9H102l0,0
	H110.2L110.2,22.9 M94,10.4h-5.7l0,0H94L94,10.4 M99.3,22.9h-0.9l0,0H99.3L99.3,22.9 M111.1,0h-7.4v0.1L111.1,0L111.1,0 M103.6,0
	h-5.2v0.1L103.6,0L103.6,0 M98.2,0H93v0.1L98.2,0L98.2,0 M92.8,0h-5.2v0.1L92.8,0L92.8,0 M87.4,0h-5.2v0.1L87.4,0L87.4,0 M81.9,0
	h-5.2v0.1L81.9,0L81.9,0 M76.5,0h-5.2v0.1L76.5,0L76.5,0 M71.1,0h-5.2v0.1L71.1,0L71.1,0 M65.7,0h-5.2v0.1L65.7,0L65.7,0 M60.3,0H55
	v0.1L60.3,0L60.3,0 M54.9,0h-5.2v0.1L54.9,0L54.9,0 M49.5,0h-5.3v0.1L49.5,0L49.5,0 M111.2,58.5v-8h-0.1L111.2,58.5L111.2,58.5
	 M111.2,50.4v-6.7h-0.1L111.2,50.4L111.2,50.4 M111.2,43.5v-6.7h-0.1L111.2,43.5L111.2,43.5 M111.2,36.6v-6.7h-0.1L111.2,36.6
	L111.2,36.6 M111.2,29.7V23h-0.1L111.2,29.7L111.2,29.7 M111.2,22.8v-6.7h-0.1L111.2,22.8L111.2,22.8 M111.2,15.9V9.2h-0.1
	L111.2,15.9L111.2,15.9 M111.2,9V1h-0.1L111.2,9L111.2,9 M0.2,59.5h6v-0.1L0.2,59.5L0.2,59.5 M6.3,59.5h5.2v-0.1L6.3,59.5L6.3,59.5
	 M11.7,59.5H17v-0.1L11.7,59.5L11.7,59.5 M17.1,59.5h5.2v-0.1L17.1,59.5L17.1,59.5 M22.6,59.5h5.2v-0.1L22.6,59.5L22.6,59.5
	 M28,59.5h5.2v-0.1L28,59.5L28,59.5 M33.4,59.5h5.2v-0.1L33.4,59.5L33.4,59.5 M38.8,59.5H44v-0.1L38.8,59.5L38.8,59.5 M44.2,59.5
	h5.2v-0.1L44.2,59.5L44.2,59.5 M49.6,59.5h5.2v-0.1L49.6,59.5L49.6,59.5 M55,59.5h5.2v-0.1L55,59.5L55,59.5 M60.5,59.5h5.2v-0.1
	L60.5,59.5L60.5,59.5 M65.9,59.5h5.2v-0.1L65.9,59.5L65.9,59.5 M71.3,59.5h5.2v-0.1L71.3,59.5L71.3,59.5 M76.7,59.5h5.2v-0.1
	L76.7,59.5L76.7,59.5 M82.1,59.5h5.2v-0.1L82.1,59.5L82.1,59.5 M87.5,59.5h5.2v-0.1L87.5,59.5L87.5,59.5 M92.9,59.5h5.2v-0.1
	L92.9,59.5L92.9,59.5 M98.3,59.5h5.2v-0.1L98.3,59.5L98.3,59.5 M103.8,59.5h7.4v-0.1L103.8,59.5L103.8,59.5 M21.2,41.4v-2.7l0,0
	V41.4L21.2,41.4 M21.2,36v-0.6l0,0V36L21.2,36 M27.6,41.7h-2.1l0,0H27.6L27.6,41.7 M22.7,41.7h-1.4l0,0H22.7L22.7,41.7 M31.5,24.8
	h3.3l0,0H31.5L31.5,24.8 M23,24.6h3.3l0,0H23L23,24.6 M26.4,24.9h4.9l0,0H26.4L26.4,24.9"/>
<path class="st4" d="M31.1,22.3l-1.9,1.9l-1.9-1.9H31.1 M11.1,19c-1-0.8-2.5-0.5-3.3,0.5c-0.8,1-0.5,2.5,0.5,3.3
	c1,0.7,2.5,0.5,3.3-0.5C12.4,21.2,12.1,19.8,11.1,19z M9.7,18.7c0.2,0,0.4,0.2,0.4,0.4c0,0.2-0.2,0.4-0.4,0.4
	c-0.2,0-0.4-0.2-0.4-0.4C9.4,18.9,9.5,18.7,9.7,18.7z M10.6,21.1c0,0.2-0.3,0.2-0.3,0V20h-0.1v2.9c0,0.1-0.1,0.2-0.2,0.2
	S9.8,23,9.8,22.9v-1.7H9.7v1.7c0,0.1-0.1,0.2-0.2,0.2c-0.1,0-0.2-0.1-0.2-0.2l0-2.9H9.2v1.1c0,0.2-0.3,0.2-0.3,0V20
	c0-0.3,0.2-0.5,0.4-0.5h0.8c0.3,0,0.4,0.2,0.4,0.5V21.1z M9.8,8.2c-1.3,0-2.3,1-2.3,2.3s1,2.3,2.3,2.3s2.3-1,2.3-2.3
	S11.1,8.2,9.8,8.2z M9.8,8.3c0.2,0,0.4,0.2,0.4,0.4C10.1,8.9,10,9,9.8,9C9.6,9,9.4,8.9,9.4,8.7C9.4,8.5,9.6,8.3,9.8,8.3z M10.5,10.5
	l-0.3-0.9h-0.1l0.5,1.6h-0.4v1.3c0,0.2-0.3,0.2-0.3,0v-1.3H9.7v1.3c0,0.2-0.3,0.2-0.3,0v-1.3H8.9l0.5-1.6H9.3l-0.3,0.9
	c-0.1,0.2-0.3,0.1-0.3-0.1l0.3-1c0-0.1,0.1-0.3,0.4-0.3h0.6v0c0.2,0,0.4,0.2,0.4,0.3l0.3,1C10.8,10.6,10.6,10.7,10.5,10.5z
	 M9.9,11.2H9.7 M18.2,29.2v0.4c0,0.1,0,0.2,0,0.3c0.2-0.1,0.5-0.3,0.5-0.4c0-0.1,0-0.1-0.1-0.1C18.5,29.2,18.3,29.2,18.2,29.2z
	 M17.4,27.2C17.4,27.3,17.4,27.3,17.4,27.2c0,0.2,0,0.2,0,0.3c0,0.1,0.1,0.1,0.1,0.2c0.1,0.3-0.2,0.5-0.3,0.6c0,0,0,0-0.1,0
	c0,0-0.1,0-0.1-0.1c0-0.1,0-0.1,0.1-0.2c0,0,0.3-0.1,0.2-0.3c0-0.1-0.1-0.1-0.1-0.2c-0.1-0.1-0.1-0.2-0.1-0.3c0,0,0-0.1,0-0.1
	c-0.1,0-0.2,0-0.3,0c-0.1,0-0.1,0-0.2,0c0.1,0.1,0.2,0.3,0.2,0.4c0,0.1-0.1,0.2-0.2,0.3c-0.1,0.1-0.2,0.2-0.2,0.3
	c0,0.2,0.2,0.3,0.2,0.3c0.1,0,0.1,0.1,0.1,0.2c0,0-0.1,0.1-0.1,0.1c0,0,0,0,0,0c0,0-0.4-0.2-0.4-0.5c0-0.3,0.2-0.4,0.3-0.5
	c0.1,0,0.1-0.1,0.2-0.1c0-0.1-0.1-0.2-0.2-0.3c0,0,0,0,0,0c-1,0.2-1.8,1.2-1.8,2.3c0,1.3,1,2.3,2.3,2.3s2.3-1,2.3-2.3
	C19.2,28.4,18.4,27.4,17.4,27.2z M17.5,31.2h-1.4c-0.1,0-0.1-0.1-0.1-0.1c0-0.1,0.1-0.1,0.1-0.1h1.4c0.1,0,0.1,0.1,0.1,0.1
	C17.6,31.1,17.6,31.2,17.5,31.2z M18.2,30.2c-0.2,0.6-0.8,0.6-0.8,0.6l-1.3,0c0,0,0,0,0,0c0,0-0.2,0-0.4-0.2
	c-0.2-0.2-0.3-0.5-0.3-0.9v-0.7c0-0.1,0.1-0.1,0.1-0.1h2.6c0.1,0,0.1,0.1,0.1,0.1v0c0.1,0,0.4,0,0.5,0.2c0.1,0.1,0.1,0.2,0.1,0.3
	C19,29.8,18.5,30.1,18.2,30.2z M30.4,12.4h-0.1v-2h0.1V12.4z M31.6,9.2c-1-0.8-2.5-0.5-3.3,0.5c-0.8,1-0.5,2.5,0.5,3.3
	c1,0.7,2.5,0.5,3.3-0.5C32.9,11.4,32.7,10,31.6,9.2z M30.4,9.4C30.4,9.4,30.4,9.3,30.4,9.4l0.8,0c0,0,0.1,0,0.1,0c0,0,0,0.1,0,0.1
	l-0.4,0.4c0,0,0,0,0,0c0,0,0,0,0,0L30.4,9.4C30.4,9.4,30.4,9.4,30.4,9.4z M29.4,9.7l0.4-0.4c0,0,0,0,0,0s0,0,0,0l0.4,0.4
	c0,0,0,0,0,0.1c0,0,0,0-0.1,0h-0.7C29.4,9.9,29.4,9.8,29.4,9.7C29.3,9.8,29.3,9.8,29.4,9.7z M31.5,10.3v2.1v0.1h-0.1h-2.1h-0.1v-0.1
	v-2.1v-0.1h0.1h2.1h0.1V10.3z M52.6,23.2h-0.1"/>
<path id="seat-25f6f01d-171a-45d7-97ef-28d9d016c1da" class="seat"  d="M56.4,13.2L56.4,13.2L56.4,13.2l-0.1,0.1l0,0h-3.2l0,0l0,0l0,0
	l0,0V9l0,0l0,0l0,0l0,0h3.2l0,0l0,0l0,0l0,0v1.2l0,0l0,0l0,0l0,0h0.9l0,0l0,0l0,0l0,0v1.2l0,0l0,0l0,0l0,0h-0.9l0,0l0,0l0,0l0,0"/>
<path id="seat-3afcc758-e747-4aa2-84c1-385abd87d57f" class="seat"  d="M56.4,8.6L56.4,8.6L56.4,8.6l-0.1,0.1l0,0h-3.2l0,0l0,0l0,0
	l0,0V4.4l0,0l0,0l0,0l0,0h3.2l0,0l0,0l0,0l0,0v1.2l0,0l0,0l0,0l0,0h0.9l0,0l0,0l0,0l0,0v1.2l0,0l0,0l0,0l0,0h-0.9l0,0l0,0l0,0l0,0"
	/>
<path id="seat-3ca3aa22-8c24-473e-bc4e-18126a873829" class="seat"  d="M74.8,9.2L74.8,9.2L74.8,9.2l0.1-0.1l0,0h3.2l0,0l0,0l0,0l0,0
	v4.3l0,0l0,0l0,0l0,0h-3.2l0,0l0,0l0,0l0,0v-1.2l0,0l0,0l0,0l0,0H74l0,0l0,0l0,0l0,0V11l0,0l0,0l0,0l0,0h0.9l0,0l0,0l0,0l0,0"/>
<path id="seat-564bebea-d008-409d-8416-6a7246bc0d48" class="seat"  d="M68.7,8.6L68.7,8.6L68.7,8.6L68.7,8.6l0.1,0.1l0,0l-0.4,1.5
	l0,0l0,0l0,0l0,0l0,0l-2.2-0.3l0,0l0,0l0,0l0,0l0,0l-0.4-2.1l0,0l0,0l0,0l0,0l0,0l1.3-0.5l0,0l0,0l0,0l0,0l0,0l0.2,0.8l0.6-0.5l0,0
	l0,0l0,0l0,0l0.5,0.5l0,0l0,0l0,0l0,0l-0.5,0.4"/>
<path id="seat-6bfc102e-7e84-4ade-ad8e-16b29fa83ea2" class="seat"  d="M74.8,13.8L74.8,13.8L74.8,13.8l0.1-0.1l0,0h3.2l0,0l0,0l0,0
	l0,0V18l0,0l0,0l0,0l0,0h-3.2l0,0l0,0l0,0l0,0v-1.2l0,0l0,0l0,0l0,0H74l0,0l0,0l0,0l0,0v-1.2l0,0l0,0l0,0l0,0h0.9l0,0l0,0l0,0l0,0"
	/>
<path id="seat-ca73768b-202d-4386-a992-d229915742c5" class="seat"  d="M81.7,8.7L81.7,8.7L81.7,8.7l-0.1,0.1l0,0h-3.2l0,0l0,0l0,0
	l0,0V4.5l0,0l0,0l0,0l0,0h3.2l0,0l0,0l0,0l0,0v1.2l0,0l0,0l0,0l0,0h0.9l0,0l0,0l0,0l0,0v1.2l0,0l0,0l0,0l0,0h-0.9l0,0l0,0l0,0l0,0"
	/>
<path id="seat-50919675-cb38-4a27-8bf8-7a3035f2d41b" class="seat"  d="M62.9,11.8L62.9,11.8L62.9,11.8L62.9,11.8l-0.1-0.1l0,0
	l0.5-1.4l0,0l0,0l0,0l0,0l0,0l2.2,0.3l0,0l0,0l0,0l0,0l0,0l0.4,2.1l0,0l0,0l0,0l0,0l0,0l-1.3,0.5l0,0l0,0l0,0l0,0l0,0l-0.2-0.8
	l-0.6,0.5l0,0l0,0l0,0l0,0l-0.5-0.5l0,0l0,0l0,0l0,0l0.5-0.4"/>
<path id="seat-8573e746-7587-4a55-83c6-f0910fd30bfb" class="seat"  d="M81.7,13.3L81.7,13.3L81.7,13.3l-0.1,0.1l0,0h-3.2l0,0l0,0l0,0
	l0,0V9.1l0,0l0,0l0,0l0,0h3.2l0,0l0,0l0,0l0,0v1.2l0,0l0,0l0,0l0,0h0.9l0,0l0,0l0,0l0,0v1.2l0,0l0,0l0,0l0,0h-0.9l0,0l0,0l0,0l0,0"
	/>
<path id="seat-7dcdc6c8-0709-426f-bb83-df1936713b47" class="seat"  d="M55.8,53.3L55.8,53.3L55.8,53.3L55.8,53.3L55.8,53.3l-3.3,0.1
	l0,0l0,0l0,0l0,0v-4.3l0,0l0,0l0,0l0,0h3.2l0,0l0,0l0,0l0,0v1.2l0,0l0,0l0,0l0,0h0.9l0,0l0,0l0,0l0,0v1.2l0,0l0,0l0,0l0,0h-0.9l0,0
	l0,0l0,0l0,0"/>
<path id="seat-7ecafc25-7e15-4019-886f-f9db8504c9d5" class="seat"  d="M49.5,4.5L49.5,4.5L49.5,4.5L49.5,4.5L49.5,4.5l3.3-0.1l0,0
	l0,0l0,0l0,0v4.3l0,0l0,0l0,0l0,0h-3.2l0,0l0,0l0,0l0,0V7.5l0,0l0,0l0,0l0,0h-0.9l0,0l0,0l0,0l0,0V6.1l0,0l0,0l0,0l0,0h0.9l0,0l0,0
	l0,0l0,0"/>
<path id="seat-0ec6866e-9523-4ae3-92e2-bbe4f624bf68" class="seat"  d="M64.1,44.6L64.1,44.6L64.1,44.6L64.1,44.6L64.1,44.6L64.1,44.6
	l1.5,0.4l0,0l0,0l0,0l0,0l0,0l-0.4,2.2l0,0l0,0l0,0l0,0l0,0L63,47.8l0,0l0,0l0,0l0,0l0,0l-0.4-1.4l0,0l0,0l0,0l0,0l0,0l0.8-0.1
	l-0.5-0.7l0,0l0,0l0,0l0,0l0.5-0.4l0,0l0,0l0,0l0,0l0.4,0.5"/>
<path id="seat-1b622237-3b99-41f9-a317-efe7755404ff" class="seat"  d="M49.5,9.1L49.5,9.1L49.5,9.1L49.6,9l0,0h3.2l0,0l0,0l0,0l0,0
	v4.3l0,0l0,0l0,0l0,0h-3.2l0,0l0,0l0,0l0,0v-1.2l0,0l0,0l0,0l0,0h-0.9l0,0l0,0l0,0l0,0v-1.2l0,0l0,0l0,0l0,0h0.9l0,0l0,0l0,0l0,0"/>
<path id="seat-702cb777-24da-4a8d-afd6-bb187a2efeb7" class="seat"  d="M64.3,7.5L64.3,7.5L64.3,7.5L64.3,7.5L64.3,7.5L64.3,7.5
	l1.5,0.4l0,0l0,0l0,0l0,0l0,0l-0.4,2.2l0,0l0,0l0,0l0,0l0,0l-2.1,0.3l0,0l0,0l0,0l0,0l0,0L62.9,9l0,0l0,0l0,0l0,0l0,0l0.8-0.1
	l-0.5-0.7l0,0l0,0l0,0l0,0l0.5-0.4l0,0l0,0l0,0l0,0l0.4,0.5"/>
<path id="seat-ed14346d-d65e-4cb2-acf8-f2a3ca28ff13" class="seat"  d="M81.7,17.9L81.7,17.9L81.7,17.9L81.6,18l0,0h-3.2l0,0l0,0l0,0
	l0,0v-4.3l0,0l0,0l0,0l0,0h3.2l0,0l0,0l0,0l0,0v1.2l0,0l0,0l0,0l0,0h0.9l0,0l0,0l0,0l0,0v1.2l0,0l0,0l0,0l0,0h-0.9l0,0l0,0l0,0l0,0"
	/>
<path id="seat-01c79105-5cc4-488a-8fef-142c0ee4f348" class="seat"  d="M49.5,13.7L49.5,13.7L49.5,13.7l0.1-0.1l0,0h3.2l0,0l0,0l0,0
	l0,0v4.3l0,0l0,0l0,0l0,0h-3.2l0,0l0,0l0,0l0,0v-1.2l0,0l0,0l0,0l0,0h-0.9l0,0l0,0l0,0l0,0v-1.2l0,0l0,0l0,0l0,0h0.9l0,0l0,0l0,0
	l0,0"/>
<path id="seat-df888806-9a2d-46da-a8b5-58d8bceaecce" class="seat"  d="M91.2,18.3L91.2,18.3L91.2,18.3l-0.1,0.1l0,0h-3.2l0,0l0,0l0,0
	l0,0v-4.3l0,0l0,0l0,0l0,0h3.2l0,0l0,0l0,0l0,0v1.2l0,0l0,0l0,0l0,0H92l0,0l0,0l0,0l0,0v1.2l0,0l0,0l0,0l0,0h-0.9l0,0l0,0l0,0l0,0"
	/>
<path id="seat-9e06316f-08a3-45ef-8a47-69e66fcd7acd" class="seat"  d="M67.4,13.2L67.4,13.2L67.4,13.2L67.4,13.2l-0.1,0.1l0,0
	l-1.4-0.6l0,0l0,0l0,0l0,0l0,0l0.4-2.2l0,0l0,0l0,0l0,0l0,0l2.1-0.3l0,0l0,0l0,0l0,0l0,0l0.4,1.4l0,0l0,0l0,0l0,0l0,0L68,11.7
	l0.5,0.7l0,0l0,0l0,0l0,0L68.2,13l0,0l0,0l0,0l0,0l-0.4-0.5"/>
<path id="seat-56758732-5487-4d34-a286-ec0a16fdcd11" class="seat"  d="M74.8,4.6L74.8,4.6L74.8,4.6L74.8,4.6L74.8,4.6l3.3-0.1l0,0
	l0,0l0,0l0,0v4.3l0,0l0,0l0,0l0,0h-3.2l0,0l0,0l0,0l0,0V7.6l0,0l0,0l0,0l0,0H74l0,0l0,0l0,0l0,0V6.2l0,0l0,0l0,0l0,0h0.9l0,0l0,0
	l0,0l0,0"/>
<path id="seat-9162f165-376d-4fbc-84f4-0843bb68ff4e" class="seat"  d="M49,49.2L49,49.2L49,49.2L49,49.2L49,49.2l3.3-0.1l0,0l0,0l0,0
	l0,0v4.3l0,0l0,0l0,0l0,0h-3.2l0,0l0,0l0,0l0,0v-1.2l0,0l0,0l0,0l0,0h-0.9l0,0l0,0l0,0l0,0V51l0,0l0,0l0,0l0,0h0.9l0,0l0,0l0,0l0,0"
	/>
<path id="seat-4c85a668-66ff-4405-8fdd-b5b5600b2a8a" class="seat"  d="M56.4,17.8L56.4,17.8L56.4,17.8l-0.1,0.1l0,0h-3.2l0,0l0,0l0,0
	l0,0v-4.3l0,0l0,0l0,0l0,0h3.2l0,0l0,0l0,0l0,0v1.2l0,0l0,0l0,0l0,0h0.9l0,0l0,0l0,0l0,0V16l0,0l0,0l0,0l0,0h-0.9l0,0l0,0l0,0l0,0"
	/>
<path id="seat-2fc10dc7-313c-4482-b217-e2a28edf39d7" class="seat"  d="M68.5,46.2L68.5,46.2L68.5,46.2L68.5,46.2l0.1,0.1l0,0
	l-0.6,1.3l0,0l0,0l0,0l0,0l0,0l-2.2-0.5l0,0l0,0l0,0l0,0l0,0L65.6,45l0,0l0,0l0,0l0,0l0,0l1.3-0.4l0,0l0,0l0,0l0,0l0,0l0.1,0.8
	l0.6-0.4l0,0l0,0l0,0l0,0l0.4,0.5l0,0l0,0l0,0l0,0L67.8,46"/>
<path id="seat-ee06e16d-36eb-49a2-8254-691b850f1e96" class="seat"  d="M67.1,50.7L67.1,50.7L67.1,50.7L67.1,50.7L67,50.8l0,0
	l-1.4-0.5l0,0l0,0l0,0l0,0l0,0l0.2-2.2l0,0l0,0l0,0l0,0l0,0l2.1-0.5l0,0l0,0l0,0l0,0l0,0l0.8,1.2l0,0l0,0l0,0l0,0l0,0L67.9,49
	l0.6,0.7l0,0l0,0l0,0l0,0l-0.6,0.8l0,0l0,0l0,0l0,0L67.3,50"/>
<path id="seat-5c1fad4c-ee15-4988-893c-50a674010e10" class="seat"  d="M74.6,43.9L74.6,43.9L74.6,43.9L74.6,43.9L74.6,43.9l3.3-0.1
	l0,0l0,0l0,0l0,0v4.3l0,0l0,0l0,0l0,0h-3.2l0,0l0,0l0,0l0,0v-1.2l0,0l0,0l0,0l0,0h-0.9l0,0l0,0l0,0l0,0v-1.2l0,0l0,0l0,0l0,0h0.9
	l0,0l0,0l0,0l0,0"/>
<path id="seat-695d6685-575f-463e-a15b-5ee15b93155a" class="seat"  d="M81.4,48L81.4,48L81.4,48L81.4,48L81.4,48l-3.3,0.1l0,0l0,0
	l0,0l0,0v-4.3l0,0l0,0l0,0l0,0h3.2l0,0l0,0l0,0l0,0V45l0,0l0,0l0,0l0,0h0.9l0,0l0,0l0,0l0,0v1.2l0,0l0,0l0,0l0,0h-0.9l0,0l0,0l0,0
	l0,0"/>
<path id="seat-a78bebf4-349e-4837-a339-e0fcd2d17492" class="seat"  d="M62.6,49.3L62.6,49.3L62.6,49.3L62.6,49.3l-0.1-0.1l0,0
	l0.5-1.4l0,0l0,0l0,0l0,0l0,0l2.2,0.4l0,0l0,0l0,0l0,0l0,0l0.3,2.1l0,0l0,0l0,0l0,0l0,0l-1.3,0.5l0,0l0,0l0,0l0,0l0,0l-0.2-0.8
	l-0.6,0.5l0,0l0,0l0,0l0,0L63,49.9l0,0l0,0l0,0l0,0l0.5-0.4"/>
<path id="seat-365bcecb-a85e-4011-84f0-1659835e999f" class="seat"  d="M93.9,47.3L93.9,47.3L93.9,47.3L93.9,47.3L93.9,47.3L93.9,47.3
	l-0.4,1.5l0,0l0,0l0,0l0,0l0,0l-2.2-0.3l0,0l0,0l0,0l0,0l0,0l-0.4-2.1l0,0l0,0l0,0l0,0l0,0l1.3-0.5l0,0l0,0l0,0l0,0l0,0l0.2,0.8
	l0.6-0.5l0,0l0,0l0,0l0,0l0.5,0.5l0,0l0,0l0,0l0,0L93,47.1"/>
<path id="seat-aab5cbda-c1f3-461c-804a-41cb4604f5a0" class="seat"  d="M74.6,48.5L74.6,48.5L74.6,48.5L74.6,48.5L74.6,48.5l3.3-0.1
	l0,0l0,0l0,0l0,0v4.3l0,0l0,0l0,0l0,0h-3.2l0,0l0,0l0,0l0,0v-1.2l0,0l0,0l0,0l0,0h-0.9l0,0l0,0l0,0l0,0v-1.2l0,0l0,0l0,0l0,0h0.9
	l0,0l0,0l0,0l0,0"/>
<path id="seat-863f7d59-9842-4b4b-ba9d-a07c9a88bf36" class="seat"  d="M92.5,51.7L92.5,51.7L92.5,51.7L92.5,51.7L92.5,51.7L92.5,51.7
	L91,51.2l0,0l0,0l0,0l0,0l0,0l0.4-2.2l0,0l0,0l0,0l0,0l0,0l2.1-0.3l0,0l0,0l0,0l0,0l0,0l0.4,1.4l0,0l0,0l0,0l0,0l0,0l-0.8,0.1
	l0.5,0.7l0,0l0,0l0,0l0,0l-0.5,0.4l0,0l0,0l0,0l0,0l-0.4-0.5"/>
<path id="seat-7793150d-6811-4805-b309-baf296c23479" class="seat"  d="M81.4,52.6L81.4,52.6L81.4,52.6L81.4,52.6L81.4,52.6l-3.3,0.1
	l0,0l0,0l0,0l0,0v-4.3l0,0l0,0l0,0l0,0h3.2l0,0l0,0l0,0l0,0v1.2l0,0l0,0l0,0l0,0h0.9l0,0l0,0l0,0l0,0v1.2l0,0l0,0l0,0l0,0h-0.9l0,0
	l0,0l0,0l0,0"/>
<path id="seat-ecbeac62-ea97-432a-b32b-16463a690190" class="seat"  d="M89.4,45.9L89.4,45.9L89.4,45.9L89.4,45.9L89.4,45.9L89.4,45.9
	l1.5,0.4l0,0l0,0l0,0l0,0l0,0l-0.4,2.2l0,0l0,0l0,0l0,0l0,0l-2.1,0.3l0,0l0,0l0,0l0,0l0,0L88,47.4l0,0l0,0l0,0l0,0l0,0l0.8-0.1
	l-0.5-0.7l0,0l0,0l0,0l0,0l0.5-0.4l0,0l0,0l0,0l0,0l0.4,0.5"/>
<path id="seat-a649ca20-732e-47d1-8235-eeb1c09522dd" class="seat"  d="M88,50.3L88,50.3L88,50.3L88,50.3L88,50.3L88,50.3l0.4-1.5l0,0
	l0,0l0,0l0,0l0,0l2.2,0.3l0,0l0,0l0,0l0,0l0,0l0.4,2.1l0,0l0,0l0,0l0,0l0,0l-1.3,0.5l0,0l0,0l0,0l0,0l0,0l-0.2-0.8l-0.6,0.5l0,0l0,0
	l0,0l0,0l-0.5-0.5l0,0l0,0l0,0l0,0l0.5-0.4"/>
</svg>
