<?xml version="1.0" encoding="utf-8"?>
<!-- Generator: Adobe Illustrator 26.5.0, SVG Export Plug-In . SVG Version: 6.00 Build 0)  -->
<svg version="1.1" id="Layer_1" xmlns="http://www.w3.org/2000/svg" xmlns:xlink="http://www.w3.org/1999/xlink" x="0px" y="0px"
	 viewBox="0 0 111.3 59.5" style="enable-background:new 0 0 111.3 59.5;" xml:space="preserve">
<style type="text/css">
	.st0{fill:#F0F0F0;}
	.st1{fill:none;stroke:#ADADAD;stroke-width:0.1;}
	.st2{fill:none;stroke:#ADADAD;stroke-width:0.2;}
	.st3{fill:none;stroke:#64C8FA;stroke-width:0.2;}
	.st4{fill:#ADADAD;stroke:#ADADAD;stroke-width:0.1;}
	.seat{fill:#505050;}
</style>
<path class="st0" d="M0.9,24.8v11.4h4.9V24.8 M0.9,36.6v10.8h16.4V36.6H6 M0.9,55.3h1v3.3H0.1v0.9h17.2V47.7H0.9 M108.2,56.3h2v2h-2
	 M98.2,59.5h13.1V43.6H98.2 M82.4,28.4V35h5.9v-6.6 M76.1,24.8v9.7V35H82v-6.8v-3.4 M68.1,24.8V35h7.7V24.8 M67,24.8h-2.2h-4.6V35
	h7.7V24.8H67 M51.1,24.8V35h8.7V24.8 M64.7,22.4H67v2.1h1v0.3h8h6.4V28h5.9v-3.2h-1.9v-2.4h2.2v2.4v3.4V35h-6.2l0,0h-0.2h-6.1h-0.3
	h-0.3h-7.3l0,0h-0.3h-7.7l0,0h-0.3h-8.7h-0.3V24.8h9.2h4.8 M21.6,55.3h2v3.1h-2 M43.2,55.3h2v3.1h-2 M64.9,55.3h2v3.1h-2 M86.5,55.3
	h2v3.1h-2 M108.2,29h2v2h-2 M108.2,1.2h2v2h-2 M86.5,1.2h2v2h-2 M64.9,1.2h2v2h-2 M44.2,20.1h0.5v4.7h-1.3h-8.2v-0.2h-3.7v0.2h-0.2
	h-4.9h-0.2v-0.2h-3.7v0.2H12H7.1h-1v11.4h11.2v11.3v12h81V43.6h13.1V0H44.2v1v0.5v1.7"/>
<path class="st1" d="M14.8,23.3c-0.1-1.4-1.2-2.5-2.6-2.5 M12.1,23.3h2.6 M14.8,23.4v-0.1 M12.1,23.4h2.6 M12.1,23.4v-0.1
	 M19.4,20.7c0.1,1.6,1.4,2.8,3,2.8 M22.3,20.7h-3 M19.4,20.6v0.1 M22.3,20.6h-3 M22.3,20.6v0.1 M15.4,6.8c0-1.4-1.1-2.6-2.5-2.6
	 M12.9,6.8V4.2 M12.8,4.2h0.1 M12.8,6.8V4.2 M12.8,6.8h0.1 M12.1,10.3c1.4,0,2.6-1.1,2.6-2.5 M12.1,7.7h2.6 M14.8,7.6L14.8,7.6
	 M12.1,7.6h2.6 M12.1,7.6L12.1,7.6 M6.9,3.4c-1.2,0-2.2,1-2.3,2.2 M6.9,5.5H4.6 M4.6,5.7V5.5 M6.9,5.7H4.6 M6.9,5.7V5.5 M5.1,8.2
	c0.1,1,0.9,1.7,1.8,1.7 M6.9,8.2H5.1 M5.1,8.1v0.1 M6.9,8.1H5.1 M6.9,8.1v0.1 M6.9,10.6c-1,0-1.8,0.7-1.8,1.7 M6.9,12.3H5.1
	 M5.1,12.4v-0.1 M6.9,12.4H5.1 M6.9,12.4v-0.1 M5.1,21.5c0.1,1,0.9,1.7,1.8,1.7 M6.9,21.5H5.1 M5.1,21.4v0.1 M6.9,21.4H5.1
	 M6.9,21.4v0.1 M6.9,18.6c-1.1,0-2.1,0.9-2.1,2 M6.9,20.6H4.8 M4.8,20.8v-0.1 M6.9,20.8H4.8 M6.9,20.8v-0.1 M68.2,24.9v2.4
	c1.3,0,2.4-1.1,2.4-2.4l0,0 M60.2,34.9v-2.3 M62.7,35c0-1.3-1.1-2.4-2.4-2.4 M59.6,34.9v-2.4c-1.3,0-2.4,1.1-2.4,2.4l0,0 M81.8,24.9
	v2.4 M79.4,24.9c0,1.3,1.1,2.4,2.4,2.4l0,0 M88.1,34.9v-2.3c-1.3,0-2.4,1.1-2.4,2.4l0,0 M17.2,49h-2.5c0,1.4,1.1,2.5,2.5,2.5
	 M17.2,37.8h-2.5c0,1.4,1.1,2.5,2.4,2.5l0,0 M99.4,43.6v2.5c1.4,0,2.5-1.1,2.5-2.5 M5.7,29.2c-1.4,0-2.6,1.1-2.7,2.6 M5.7,31.8H3.1
	 M3.1,31.9v-0.1 M5.7,31.9H3.1 M5.7,31.9v-0.1"/>
<path class="st1" d="M1.8,55.4h-1 M0,55.4v3.3h1.8v-3.3 M88.4,1.2h-2v2h2V1.2 M66.9,22.4h-2.2v2.4h2.2 M66.9,24.5v-2.1 M44.7,20.2
	h-0.5 M43.3,20.2v3.5 M43.3,24v0.5 M43.4,24.9h1.3v-4.7 M1.3,2h5.6 M7.2,2h5.4V0.9H0 M15.6,2h0.5 M16.9,2h8.4 M25.8,2h0.8V0.9h-11V2
	 M34.1,2h0.8 M35.9,2H40 M40.4,2h3 M44.1,0.9h-10V2h-7.5 M15.6,2h-2.9 M12.7,0.9h2.9 M26.6,0.9h7.5 M1.3,24.4v-3.1 M1.3,20.9V14
	 M1.3,13.2v-2.8 M1.3,10.1v-3 M1.3,6.8V2 M0.8,55.4v-7.6 M0.8,47.4V36.6 M0.8,36.3V24.9 M0,0.9v54.5 M1.3,7.1h5.6 M7.2,7.1h4.6
	 M12.1,7.1h0.7V6.8H7.2 M6.9,6.8H1.3 M15.4,7.1h0.7 M16.1,6.8h-0.7v0.3 M6.9,2.1v1.3h0.3V2.1 M6.9,5.7v1.1 M7.2,6.8V5.7H6.9
	 M6.9,7.1v1h0.3v-1 M6.9,9.9v0.2 M6.9,10.4v0.2h0.3V9.9H6.9 M6.9,12.4v0.8 M6.9,14v4.6h0.3v-2.1 M7.2,16.2V15 M7.2,14.7v-2.3H6.9
	 M6.9,20.8V21 M6.9,21.2v0.2h0.3v-0.6H6.9 M6.9,23.2v1.1 M7.2,24.4v-1.1H6.9 M1.3,21.2h5.6 M6.9,20.9H1.3 M7.2,16.5h4.6 M11.8,16.1
	h-1.1 M10.3,16.1H7.2 M7.2,15h3.1 M10.7,15h1.1 M11.8,14.7H7.2 M1.3,10.4h5.6 M6.9,10.1H1.3 M10.3,15v1.1 M10.7,16.1V15 M12.1,24.4
	V24 M12.1,23.7v-0.3h-0.3v1 M12.1,20.8V10.2h-0.3v4.4 M11.8,15v1.1 M11.8,16.5v4.3h0.3 M12.1,7.6V7.1 M11.8,7.1v0.5h0.3 M12.1,24
	h10.2 M22.3,23.7H12.1 M22.3,19.9v0.6h0.5v-0.6 M22.3,23.5v0.2 M22.3,24v0.3 M22.8,24.8v-1.3h-0.5 M22.3,24.4H12.1 M11.8,24.4H7.2
	 M6.9,24.4H1.3 M0.8,24.8h4.9 M6.1,24.8h16.7 M6.9,13.2H1.3 M1.3,14h5.6 M16.1,2v4.8 M16.9,7.6V2 M16.1,8.4h2 M18.9,7.9V7.6h-2
	 M16.1,7.1v1.3 M18,8.4v3.8 M18,12.5v3.3 M18,16.2v3.4 M18.9,19.1v-5.2 M18.9,13.5V8.3 M16.1,19.9h6.2 M22.8,19.9h3 M25.3,19.1h-6.4
	 M18,19.6h-2v0.3 M18,15.9h-2v0.3h2 M18,12.2h-2v0.3h2 M18.9,8.3h6.4 M25.3,7.9h-6.4 M18.9,13.9h6.4 M25.3,13.5h-6.4 M25.3,18.6v0.5
	 M25.8,19.9v-1.3h-0.5 M25.3,2v1.3h0.5V2 M25.3,7.3V8 M25.3,8.3v1h0.2v-2h-0.2 M25.3,13.4v0.2 M25.3,13.9v1.5h0.2v-2h-0.2 M35.4,3.4
	h0.5V2 M34.9,2v22.8 M35.4,24.5V24 M35.4,23.7V3.4 M34.9,24.8h8.5 M43.3,24.5h-7.9 M35.4,24h7.9 M43.3,23.7h-7.9 M44.1,20.2V0.9
	 M43.3,2v1 M43.3,3.4v16.8 M43.3,3h-3 M40,3.4h3.3 M40.4,3V2 M40,2.1v1.3 M0.8,36.6h16.6v-0.3H6.1 M5.7,36.3H0.8 M0.8,47.7h16.6
	v-0.3H0.8 M5.7,24.8v4.4H6v-4.4 M5.7,31.9v4.4 M6.1,36.3v-4.4H5.7 M50.7,24.7V35H51V24.7H50.7 M59.7,24.7V35H60V24.7H59.7
	 M67.7,24.8V35H68V24.5 M66.9,24.8h0.8 M68,24.5h-1.1 M75.7,24.7V35H76V24.7H75.7 M82,24.7V35h0.3v-6.6 M82.3,28v-3.4H82 M82.3,28.4
	h5.9 M88.2,28h-5.9 M88.2,24.8V28 M88.2,28.4V35h0.3V24.8h-0.3"/>
<path class="st2" d="M23.5,55.4h-2v3.1h2V55.4 M45.1,55.4h-2v3.1h2V55.4 M66.8,55.4h-2v3.1h2V55.4 M88.4,55.4h-2v3.1h2V55.4
	 M110.1,29h-2v2h2V29 M110.1,1.2h-2v2h2V1.2 M66.8,1.2h-2v2h2V1.2 M88.6,22.4h-2.2v2.4h2.2V22.4 M110.1,56.4h-2v2h2V56.4"/>
<path class="st1" d="M35.4,17.5L35.4,17.5 M35.6,17.5h3.3 M39,17.5L39,17.5 M39,11v-0.8 M39,12v-1 M39,12.9V12 M39,13.8v-0.9
	 M39,14.7v-0.9 M39,15.6v-0.9 M39,16.5v-0.9 M39,17.5v-0.9 M37.6,11h1.3 M39,11L39,11 M36.9,11h0.3 M35.4,12L35.4,12 M35.6,12h3.3
	 M39,12L39,12 M35.4,12.9L35.4,12.9 M35.6,12.9h3.3 M39,12.9L39,12.9 M35.4,13.8L35.4,13.8 M35.6,13.8h3.3 M39,13.8L39,13.8
	 M35.4,14.7L35.4,14.7 M35.6,14.7h3.3 M39,14.7L39,14.7 M35.4,15.6L35.4,15.6 M35.6,15.6h3.3 M39,15.6L39,15.6 M35.4,16.5L35.4,16.5
	 M35.6,16.5h3.3 M39,16.5L39,16.5 M35.4,17.5L35.4,17.5 M35.6,17.5h3.3 M39,17.5L39,17.5 M37.6,11h1.3 M39,11L39,11 M36.9,11h0.3
	 M35.4,12L35.4,12 M35.6,12h3.3 M39,12L39,12 M35.4,12.9L35.4,12.9 M35.6,12.9h3.3 M39,12.9L39,12.9 M35.4,13.8L35.4,13.8
	 M35.6,13.8h3.3 M39,13.8L39,13.8 M35.4,14.7L35.4,14.7 M35.6,14.7h3.3 M39,14.7L39,14.7 M35.4,15.6L35.4,15.6 M35.6,15.6h3.3
	 M39,15.6L39,15.6 M35.4,16.5L35.4,16.5 M35.6,16.5h3.3 M39,16.5L39,16.5 M39.7,7.3L39.7,7.3 M39,7.3h0.7 M39,8.3v-1 M43.3,3.4h-7.9
	 M43.3,7.4v-4 M43.3,16.5L43.3,16.5 M43.1,16.5h-3.3 M39.7,16.5L39.7,16.5 M43.3,7.4L43.3,7.4 M43.1,7.4h-3.3 M39.7,7.4L39.7,7.4
	 M35.4,8.3L35.4,8.3 M35.6,8.3h3.3 M39,8.3L39,8.3 M39.7,15.6v0.9 M39.7,14.7v0.9 M39.7,13.8v0.9 M39.7,12.9v0.9 M39.7,12v0.9
	 M39.7,11v1 M39.7,10.1V11 M39.7,9.2v0.9 M39.7,8.3v0.9 M39.7,7.4v0.9 M43.3,15.6v0.9 M43.3,14.7v0.9 M43.3,13.8v0.9 M43.3,12.9v0.9
	 M43.3,12v0.9 M43.3,11v1 M43.3,10.1V11 M43.3,9.2v0.9 M43.3,8.3v0.9 M43.3,7.4v0.9 M39,9.2V8.3 M39,10.1V9.2 M39,10.2L39,10.2
	 M43.3,15.6L43.3,15.6 M43.1,15.6h-3.3 M39.7,15.6L39.7,15.6 M43.3,14.7L43.3,14.7 M43.1,14.7h-3.3 M39.7,14.7L39.7,14.7 M43.3,13.8
	L43.3,13.8 M43.1,13.8h-3.3 M39.7,13.8L39.7,13.8 M43.3,12.9L43.3,12.9 M43.1,12.9h-3.3 M39.7,12.9L39.7,12.9 M43.3,12L43.3,12
	 M43.1,12h-3.3 M39.7,12L39.7,12 M43.3,11L43.3,11 M43.1,11h-3.3 M39.7,11L39.7,11 M43.3,10.1L43.3,10.1 M43.1,10.1h-3.3 M39.7,10.1
	L39.7,10.1 M43.3,9.2L43.3,9.2 M43.1,9.2h-3.3 M39.7,9.2L39.7,9.2 M43.3,8.3L43.3,8.3 M43.1,8.3h-3.3 M39.7,8.3L39.7,8.3 M43.3,7.4
	L43.3,7.4 M43.1,7.4h-3.3 M39.7,7.4L39.7,7.4 M35.4,8.3L35.4,8.3 M35.6,8.3h3.3 M39,8.3L39,8.3 M35.4,9.2L35.4,9.2 M35.6,9.2h3.3
	 M39,9.2L39,9.2 M35.4,10.1L35.4,10.1 M35.6,10.1h3.3 M39,10.1L39,10.1 M35.4,11L35.4,11 M35.6,11h1.3 M37.2,11h0.3 M43.3,15.6
	L43.3,15.6 M43.1,15.6h-3.3 M39.7,15.6L39.7,15.6 M43.3,14.7L43.3,14.7 M43.1,14.7h-3.3 M39.7,14.7L39.7,14.7 M43.3,13.8L43.3,13.8
	 M43.1,13.8h-3.3 M39.7,13.8L39.7,13.8 M43.3,12.9L43.3,12.9 M43.1,12.9h-3.3 M39.7,12.9L39.7,12.9 M43.3,12L43.3,12 M43.1,12h-3.3
	 M39.7,12L39.7,12 M43.3,11L43.3,11 M43.1,11h-3.3 M39.7,11L39.7,11 M43.3,10.1L43.3,10.1 M43.1,10.1h-3.3 M39.7,10.1L39.7,10.1
	 M43.3,9.2L43.3,9.2 M43.1,9.2h-3.3 M39.7,9.2L39.7,9.2 M43.3,8.3L43.3,8.3 M43.1,8.3h-3.3 M39.7,8.3L39.7,8.3 M35.4,9.2L35.4,9.2
	 M35.6,9.2h3.3 M39,9.2L39,9.2 M35.4,10.1L35.4,10.1 M35.6,10.1h3.3 M39,10.1L39,10.1 M35.4,11L35.4,11 M35.6,11h1.3 M37.2,11h0.3
	 M39.7,7.3L39.7,7.3 M39,7.3h0.7 M39,8.3v-1 M35.4,3.4v4.9 M43.3,3.4h-7.9 M43.3,7.4v-4 M43.3,16.5h-3.6 M43.3,7.4h-3.6 M35.4,8.3
	H39 M39.7,7.4v9.2 M43.3,7.4v9.2 M39,10.2V8.3 M35.4,10.4V8.3 M36.9,11.2l-1.3,0.6 M35.5,11.9L35.5,11.9 M37,10.6l-0.2,0.6
	 M37.5,11.5L37,10.6 M37.6,10.9l-0.2,0.6 M39,10.2L39,10.2 M38.9,10.3l-1.3,0.6 M43.3,15.6h-3.6 M43.3,14.7h-3.6 M43.3,13.8h-3.6
	 M43.3,12.9h-3.6 M43.3,12h-3.6 M43.3,11h-3.6 M43.3,10.1h-3.6 M43.3,9.2h-3.6 M43.3,8.3h-3.6 M43.3,7.4h-3.6 M35.4,8.3H39
	 M35.4,9.2H39 M35.4,10.1H39 M37.2,11h0.3 M35.4,11h1.5 M43.3,15.6h-3.6 M43.3,14.7h-3.6 M43.3,13.8h-3.6 M43.3,12.9h-3.6 M43.3,12
	h-3.6 M43.3,11h-3.6 M43.3,10.1h-3.6 M43.3,9.2h-3.6 M43.3,8.3h-3.6 M35.4,9.2H39 M35.4,10.1H39 M37.2,11h0.3 M35.4,11h1.5
	 M41.5,5.3v2 M37.2,5.3h4.3 M37.2,8.3v-3 M41.5,7.4v9.2l-0.4-0.4 M41.5,16.5l0.4-0.4 M37.2,10V8.3 M37.2,12.9V12 M37.2,13.8v-0.9
	 M37.2,14.7v-0.9 M37.2,15.6v-0.9 M37.2,16.5v-0.9 M37.2,17.5v-0.9 M37.2,12l0.4,0.4 M37.2,12l-0.4,0.4"/>
<path class="st3" d="M51.2,24.8h8.4l0,0H51.2L51.2,24.8 M60.2,24.8h4.3l0,0H60.2L60.2,24.8 M76.2,24.8h3l0,0H76.2L76.2,24.8
	 M51.1,35h5.8l0,0H51.1L51.1,35 M68.2,35.1h7.3l0,0H68.2L68.2,35.1 M76.2,35h5.6l0,0H76.2L76.2,35 M82.5,35h3l0,0H82.5L82.5,35
	 M62.8,35h4.7l0,0H62.8L62.8,35 M70.8,24.8h4.7l0,0H70.8L70.8,24.8 M17.3,36.8v0.9l0,0V36.8L17.3,36.8 M17.3,47.9v0.9l0,0V47.9
	L17.3,47.9 M17.3,51.6v6.9l0,0V51.6L17.3,51.6 M17.3,40.5v6.8l0,0V40.5L17.3,40.5 M98.4,43.6h0.8l0,0H98.4L98.4,43.6 M102,43.6h8.2
	l0,0H102L102,43.6 M111.1,0h-7.4v0.1L111.1,0L111.1,0 M103.6,0h-5.2v0.1L103.6,0L103.6,0 M98.2,0H93v0.1L98.2,0L98.2,0 M92.8,0h-5.2
	v0.1L92.8,0L92.8,0 M87.3,0h-5.2v0.1L87.3,0L87.3,0 M81.9,0h-5.2v0.1L81.9,0L81.9,0 M76.5,0h-5.2v0.1L76.5,0L76.5,0 M71.1,0h-5.2
	v0.1L71.1,0L71.1,0 M65.7,0h-5.2v0.1L65.7,0L65.7,0 M60.3,0H55v0.1L60.3,0L60.3,0 M54.9,0h-5.2v0.1L54.9,0L54.9,0 M49.5,0h-5.3v0.1
	L49.5,0L49.5,0 M111.2,58.5v-8h-0.1L111.2,58.5L111.2,58.5 M111.2,50.4v-6.7h-0.1L111.2,50.4L111.2,50.4 M111.2,43.5v-6.7h-0.1
	L111.2,43.5L111.2,43.5 M111.2,36.6v-6.7h-0.1L111.2,36.6L111.2,36.6 M111.2,29.7V23h-0.1L111.2,29.7L111.2,29.7 M111.2,22.8v-6.7
	h-0.1L111.2,22.8L111.2,22.8 M111.2,15.9V9.2h-0.1L111.2,15.9L111.2,15.9 M111.2,9V1h-0.1L111.2,9L111.2,9 M0.2,59.5h6v-0.1
	L0.2,59.5L0.2,59.5 M6.3,59.5h5.2v-0.1L6.3,59.5L6.3,59.5 M11.7,59.5H17v-0.1L11.7,59.5L11.7,59.5 M17.1,59.5h5.2v-0.1L17.1,59.5
	L17.1,59.5 M22.6,59.5h5.2v-0.1L22.6,59.5L22.6,59.5 M28,59.5h5.2v-0.1L28,59.5L28,59.5 M33.4,59.5h5.2v-0.1L33.4,59.5L33.4,59.5
	 M38.8,59.5H44v-0.1L38.8,59.5L38.8,59.5 M44.2,59.5h5.2v-0.1L44.2,59.5L44.2,59.5 M49.6,59.5h5.2v-0.1L49.6,59.5L49.6,59.5
	 M55,59.5h5.2v-0.1L55,59.5L55,59.5 M60.4,59.5h5.2v-0.1L60.4,59.5L60.4,59.5 M65.9,59.5h5.2v-0.1L65.9,59.5L65.9,59.5 M71.3,59.5
	h5.2v-0.1L71.3,59.5L71.3,59.5 M76.7,59.5h5.2v-0.1L76.7,59.5L76.7,59.5 M82.1,59.5h5.2v-0.1L82.1,59.5L82.1,59.5 M87.5,59.5h5.2
	v-0.1L87.5,59.5L87.5,59.5 M92.9,59.5h5.2v-0.1L92.9,59.5L92.9,59.5 M98.3,59.5h5.2v-0.1L98.3,59.5L98.3,59.5 M103.8,59.5h7.4v-0.1
	L103.8,59.5L103.8,59.5 M31.5,24.8h3.3l0,0H31.5L31.5,24.8 M23,24.8h3.3l0,0H23L23,24.8 M26.4,25h4.9l0,0H26.4L26.4,25 M98.1,58.6
	V43.5H98L98.1,58.6L98.1,58.6 M0,59.5h0.2v-0.9H0V59.5 M111.3,58.6v-0.2h-0.9v0.2H111.3 M111.3,0h-0.2v0.9h0.2V0 M51,24.9h0.2v-0.2
	H51V24.9 M59.5,24.9h0.2v-0.2h-0.2V24.9 M60,24.9h0.2v-0.2H60V24.9 M64.5,24.9h0.2v-0.2h-0.2V24.9 M75.6,24.9h0.2v-0.2h-0.2V24.9
	 M81.8,24.9H82v-0.2h-0.2V24.9 M59.6,35h0.2v-0.2h-0.2V35 M67.6,35h0.2v-0.2h-0.2V35 M68,35.2h0.2V35H68V35.2 M75.6,35.2h0.2V35
	h-0.2V35.2 M76,35h0.2v-0.2H76V35 M81.8,35H82v-0.2h-0.2V35 M88.1,35h0.2v-0.2h-0.2V35 M56.9,35h-5.8 M56.9,34.9h-5.8 M75.6,35.2
	h-7.3 M75.6,35h-7.3 M81.8,35h-5.6 M81.8,34.9h-5.6 M64.5,24.9h-4.3 M64.5,24.7h-4.3 M59.6,24.9h-8.4 M59.6,24.7h-8.4 M79.2,24.9h-3
	 M79.2,24.7h-3 M67.6,35h-4.7 M67.6,34.9h-4.7 M75.6,24.9h-4.7 M75.6,24.7h-4.7 M76,24.9h0.2v-0.2H76V24.9 M68,24.9h0.2v-0.2H68
	V24.9 M82.3,35h0.2v-0.2h-0.2V35 M51,35h0.2v-0.2H51V35 M60,35h0.2v-0.2H60V35 M17.2,47.2v0.2h0.2v-0.2H17.2 M17.2,58.5v0.2h0.2
	v-0.2H17.2 M17.2,48.8v-0.9 M17.4,48.8v-0.9 M17.2,37.7v-0.9 M17.4,37.7v-0.9 M17.2,58.5v-6.9 M17.4,58.5v-6.9 M17.2,47.2v-6.8
	 M17.4,47.2v-6.8 M17.2,47.7v0.2h0.2v-0.2H17.2 M17.2,36.6v0.2h0.2v-0.2H17.2 M110.2,43.6h0.2v-0.2h-0.2V43.6 M99.3,43.6h-0.8
	 M99.3,43.5h-0.8 M110.2,43.6H102 M110.2,43.5H102 M98.3,43.6h0.2v-0.2h-0.2V43.6 M85.5,35h0.2v-0.2h-0.2V35 M62.7,35h0.2v-0.2h-0.2
	V35 M56.9,35h0.2v-0.2h-0.2V35 M79.2,24.8h0.2v-0.2h-0.2V24.8 M70.7,24.8h0.2v-0.2h-0.2V24.8 M17.2,51.4v0.2h0.2v-0.2H17.2
	 M17.2,48.8V49h0.2v-0.2H17.2 M17.2,40.3v0.2h0.2v-0.2H17.2 M17.2,37.7v0.2h0.2v-0.2H17.2 M99.3,43.6h0.2v-0.2h-0.2V43.6
	 M101.9,43.6h0.2v-0.2h-0.2V43.6 M44.1,0L44.1,0L44,0.9h0.2V0 M49.6,0h-0.2v0.9h0.2V0 M55,0h-0.2v0.9H55V0 M60.5,0h-0.2v0.9h0.2V0
	 M65.9,0h-0.2v0.9h0.2V0 M71.3,0h-0.2v0.9h0.2V0 M76.7,0h-0.2v0.9h0.2V0 M82.1,0h-0.2v0.9h0.2V0 M87.5,0h-0.2v0.9h0.2V0 M92.9,0
	h-0.2v0.9h0.2V0 M98.3,0h-0.2v0.9h0.2V0 M103.8,0h-0.2v0.9h0.2V0 M44.1,0h5.3 M49.5,0.9h-5.3 M49.6,0h5.2 M54.9,0.9h-5.2 M55,0h5.2
	 M60.3,0.9H55 M60.5,0h5.2 M65.7,0.9h-5.2 M65.9,0h5.2 M71.1,0.9h-5.2 M71.3,0h5.2 M76.5,0.9h-5.2 M76.7,0h5.2 M81.9,0.9h-5.2
	 M82.1,0h5.2 M87.4,0.9h-5.2 M87.5,0h5.2 M92.8,0.9h-5.2 M92.9,0h5.2 M98.2,0.9H93 M98.3,0h5.2 M103.6,0.9h-5.2 M103.8,0h7.4
	 M110.4,0.9h-6.6 M111.3,1.1V0.9h-0.9v0.2H111.3 M111.3,9.2V9h-0.9v0.2H111.3 M111.3,16.1v-0.2h-0.9v0.2H111.3 M111.3,23v-0.2h-0.9
	V23H111.3 M111.3,29.8v-0.2h-0.9v0.2H111.3 M111.3,36.7v-0.2h-0.9v0.2H111.3 M111.3,43.6v-0.2h-0.9v0.2H111.3 M111.3,50.5v-0.2h-0.9
	v0.2H111.3 M111.3,1.1v8 M110.4,9V1 M111.3,9.2v6.7 M110.4,15.9V9.2 M111.3,16.1v6.7 M110.4,22.8v-6.7 M111.3,23v6.7 M110.4,29.7V23
	 M111.3,29.8v6.7 M110.4,36.6v-6.7 M111.3,36.7v6.7 M110.4,43.5v-6.7 M111.3,43.6v6.7 M110.4,50.4v-6.7 M111.3,50.5v8 M110.4,58.5
	v-8 M6.2,59.5h0.2v-0.9H6.2V59.5 M11.6,59.5h0.2v-0.9h-0.2V59.5 M17,59.5h0.2v-0.9H17V59.5 M22.4,59.5h0.2v-0.9h-0.2V59.5
	 M27.8,59.5H28v-0.9h-0.2V59.5 M33.2,59.5h0.2v-0.9h-0.2V59.5 M38.6,59.5h0.2v-0.9h-0.2V59.5 M44.1,59.5h0.2v-0.9h-0.2V59.5
	 M49.5,59.5h0.2v-0.9h-0.2V59.5 M54.9,59.5L54.9,59.5l0.1-0.9h-0.2v0.9 M60.3,59.5h0.2v-0.9h-0.2V59.5 M65.7,59.5h0.2v-0.9h-0.2
	V59.5 M71.1,59.5h0.2v-0.9h-0.2V59.5 M76.5,59.5h0.2v-0.9h-0.2V59.5 M81.9,59.5h0.2v-0.9h-0.2V59.5 M87.4,59.5h0.2v-0.9h-0.2V59.5
	 M92.8,59.5H93v-0.9h-0.2V59.5 M98.2,59.5h0.2v-0.9h-0.2V59.5 M103.6,59.5h0.2v-0.9h-0.2V59.5 M111.1,59.5h0.2v-0.9h-0.2V59.5h-7.4
	 M103.8,58.6h6.6 M103.6,59.5h-5.2 M98.3,58.6h5.2 M98.2,59.5H93 M92.9,58.6H98 M98.1,58.6L98.1,58.6 M92.8,59.5h-5.2 M87.5,58.6
	h5.2 M87.4,59.5h-5.2 M82.1,58.6h5.2 M81.9,59.5h-5.2 M76.7,58.6h5.2 M76.5,59.5h-5.2 M71.3,58.6h5.2 M71.1,59.5h-5.2 M65.9,58.6
	h5.2 M65.7,59.5h-5.2 M60.5,58.6h5.2 M60.3,59.5H55 M55,58.6h5.2 M54.9,59.5h-5.2 M49.6,58.6h5.2 M49.5,59.5h-5.2 M44.2,58.6h5.2
	 M44.1,59.5h-5.2 M38.8,58.6H44 M38.6,59.5h-5.2 M33.4,58.6h5.2 M33.2,59.5H28 M28,58.6h5.2 M27.8,59.5h-5.2 M22.6,58.6h5.2
	 M22.4,59.5h-5.2 M17.1,58.6L17.1,58.6 M17.4,58.6h5 M17,59.5h-5.2 M11.7,58.6H17 M11.6,59.5H6.3 M6.3,58.6h5.2 M6.2,59.5h-6
	 M1.8,58.6h4.3 M85.5,35h-3 M85.5,34.9h-3 M34.8,24.8H35v-0.2h-0.2V24.8h-3.3 M34.8,24.7h-3.3 M31.3,24.8h0.2v-0.2h-0.2V24.8
	 M26.3,24.8h0.2v-0.2h-0.2V24.8H23 M26.3,24.7H23 M22.8,24.8H23v-0.2h-0.2V24.8 M31.3,25h0.2v-0.2h-0.2V25h-4.9 M31.3,24.8h-4.9
	 M26.3,25h0.2v-0.2h-0.2V25 M12.9,1.9h2.5 M15.5,1.8V0.9 M15.6,0.9h-0.1 M15.4,1.8h0.1 M15.4,2V1.8 M15.6,2h-0.1 M15.6,2V1.8
	 M15.6,2L15.6,2 M12.8,1.8V0.9 M12.9,2V1.8 M12.7,2V1.8h0.1 M12.7,2h0.1 M12.7,0.9h0.1 M12.7,2L12.7,2 M33.9,1.9h-7.1 M26.7,1.8V0.9
	 M26.6,0.9h0.1 M26.8,1.8h-0.1 M26.8,2V1.8 M26.6,2h0.1 M26.6,2V1.8 M26.6,2L26.6,2 M34,1.8V0.9 M33.9,2V1.8 M34.1,2V1.8h-0.2
	 M34.1,2h-0.2 M34.1,0.9L34.1,0.9 M34.1,2L34.1,2"/>
<path class="st3" d="M51.2,24.8h8.4l0,0H51.2L51.2,24.8 M60.2,24.8h4.3l0,0H60.2L60.2,24.8 M76.2,24.8h3l0,0H76.2L76.2,24.8
	 M51.1,35h5.8l0,0H51.1L51.1,35 M68.2,35.1h7.3l0,0H68.2L68.2,35.1 M76.2,35h5.6l0,0H76.2L76.2,35 M82.5,35h3l0,0H82.5L82.5,35
	 M62.8,35h4.7l0,0H62.8L62.8,35 M70.8,24.8h4.7l0,0H70.8L70.8,24.8 M17.3,36.8v0.9l0,0V36.8L17.3,36.8 M17.3,47.9v0.9l0,0V47.9
	L17.3,47.9 M17.3,51.6v6.9l0,0V51.6L17.3,51.6 M17.3,40.5v6.8l0,0V40.5L17.3,40.5 M98.4,43.6h0.8l0,0H98.4L98.4,43.6 M102,43.6h8.2
	l0,0H102L102,43.6 M111.1,0h-7.4v0.1L111.1,0L111.1,0 M103.6,0h-5.2v0.1L103.6,0L103.6,0 M98.2,0H93v0.1L98.2,0L98.2,0 M92.8,0h-5.2
	v0.1L92.8,0L92.8,0 M87.3,0h-5.2v0.1L87.3,0L87.3,0 M81.9,0h-5.2v0.1L81.9,0L81.9,0 M76.5,0h-5.2v0.1L76.5,0L76.5,0 M71.1,0h-5.2
	v0.1L71.1,0L71.1,0 M65.7,0h-5.2v0.1L65.7,0L65.7,0 M60.3,0H55v0.1L60.3,0L60.3,0 M54.9,0h-5.2v0.1L54.9,0L54.9,0 M49.5,0h-5.3v0.1
	L49.5,0L49.5,0 M111.2,58.5v-8h-0.1L111.2,58.5L111.2,58.5 M111.2,50.4v-6.7h-0.1L111.2,50.4L111.2,50.4 M111.2,43.5v-6.7h-0.1
	L111.2,43.5L111.2,43.5 M111.2,36.6v-6.7h-0.1L111.2,36.6L111.2,36.6 M111.2,29.7V23h-0.1L111.2,29.7L111.2,29.7 M111.2,22.8v-6.7
	h-0.1L111.2,22.8L111.2,22.8 M111.2,15.9V9.2h-0.1L111.2,15.9L111.2,15.9 M111.2,9V1h-0.1L111.2,9L111.2,9 M0.2,59.5h6v-0.1
	L0.2,59.5L0.2,59.5 M6.3,59.5h5.2v-0.1L6.3,59.5L6.3,59.5 M11.7,59.5H17v-0.1L11.7,59.5L11.7,59.5 M17.1,59.5h5.2v-0.1L17.1,59.5
	L17.1,59.5 M22.6,59.5h5.2v-0.1L22.6,59.5L22.6,59.5 M28,59.5h5.2v-0.1L28,59.5L28,59.5 M33.4,59.5h5.2v-0.1L33.4,59.5L33.4,59.5
	 M38.8,59.5H44v-0.1L38.8,59.5L38.8,59.5 M44.2,59.5h5.2v-0.1L44.2,59.5L44.2,59.5 M49.6,59.5h5.2v-0.1L49.6,59.5L49.6,59.5
	 M55,59.5h5.2v-0.1L55,59.5L55,59.5 M60.4,59.5h5.2v-0.1L60.4,59.5L60.4,59.5 M65.9,59.5h5.2v-0.1L65.9,59.5L65.9,59.5 M71.3,59.5
	h5.2v-0.1L71.3,59.5L71.3,59.5 M76.7,59.5h5.2v-0.1L76.7,59.5L76.7,59.5 M82.1,59.5h5.2v-0.1L82.1,59.5L82.1,59.5 M87.5,59.5h5.2
	v-0.1L87.5,59.5L87.5,59.5 M92.9,59.5h5.2v-0.1L92.9,59.5L92.9,59.5 M98.3,59.5h5.2v-0.1L98.3,59.5L98.3,59.5 M103.8,59.5h7.4v-0.1
	L103.8,59.5L103.8,59.5 M31.5,24.8h3.3l0,0H31.5L31.5,24.8 M23,24.8h3.3l0,0H23L23,24.8 M26.4,25h4.9l0,0H26.4L26.4,25 M98.1,58.6
	V43.5H98L98.1,58.6L98.1,58.6"/>
<path class="st4" d="M30.9,22.2l-1.9,2l-1.9-1.9h3.8 M11,19c-1-0.8-2.5-0.5-3.3,0.5c-0.8,1-0.5,2.5,0.5,3.3c1,0.7,2.5,0.5,3.3-0.5
	C12.3,21.2,12,19.8,11,19z M9.6,18.7c0.2,0,0.4,0.2,0.4,0.4c0,0.2-0.2,0.4-0.4,0.4c-0.2,0-0.4-0.2-0.4-0.4
	C9.3,18.9,9.4,18.7,9.6,18.7z M10.5,21.1c0,0.2-0.3,0.2-0.3,0V20h-0.1v2.9c0,0.1-0.1,0.2-0.2,0.2c-0.1,0-0.2-0.1-0.2-0.2v-1.7H9.6
	v1.7c0,0.1-0.1,0.2-0.2,0.2S9.2,23,9.2,22.9l0-2.9H9.1v1.1c0,0.2-0.3,0.2-0.3,0V20c0-0.3,0.2-0.5,0.4-0.5H10c0.3,0,0.4,0.2,0.4,0.5
	V21.1z M9.7,8.2c-1.3,0-2.3,1-2.3,2.3s1,2.3,2.3,2.3s2.3-1,2.3-2.3S10.9,8.2,9.7,8.2z M9.7,8.3c0.2,0,0.4,0.2,0.4,0.4
	C10,8.9,9.9,9,9.7,9C9.5,9,9.3,8.9,9.3,8.7C9.3,8.5,9.5,8.3,9.7,8.3z M10.4,10.5l-0.3-0.9H10l0.5,1.6h-0.4v1.3c0,0.2-0.3,0.2-0.3,0
	v-1.3H9.6v1.3c0,0.2-0.3,0.2-0.3,0v-1.3H8.8l0.5-1.6H9.2l-0.3,0.9c-0.1,0.2-0.3,0.1-0.3-0.1l0.3-1c0-0.1,0.1-0.3,0.4-0.3H10v0
	c0.2,0,0.4,0.2,0.4,0.3l0.3,1C10.7,10.6,10.4,10.7,10.4,10.5z M9.7,11.2H9.6 M13,30.1v0.4c0,0.1,0,0.2,0,0.3
	c0.2-0.1,0.5-0.3,0.5-0.4c0-0.1,0-0.1-0.1-0.1C13.3,30.1,13.1,30.1,13,30.1z M12.2,28.1C12.2,28.2,12.1,28.2,12.2,28.1
	c0,0.2,0,0.2,0,0.3c0,0.1,0.1,0.1,0.1,0.2c0.1,0.3-0.2,0.5-0.3,0.6c0,0,0,0-0.1,0c0,0-0.1,0-0.1-0.1c0-0.1,0-0.1,0.1-0.2
	c0,0,0.3-0.1,0.2-0.3c0-0.1-0.1-0.1-0.1-0.2c-0.1-0.1-0.1-0.2-0.1-0.3c0,0,0-0.1,0-0.1c-0.1,0-0.2,0-0.3,0c-0.1,0-0.1,0-0.2,0
	c0.1,0.1,0.2,0.3,0.2,0.4c0,0.1-0.1,0.2-0.2,0.3c-0.1,0.1-0.2,0.2-0.2,0.3c0,0.2,0.2,0.3,0.2,0.3c0.1,0,0.1,0.1,0.1,0.2
	c0,0-0.1,0.1-0.1,0.1c0,0,0,0,0,0c0,0-0.4-0.2-0.4-0.5c0-0.3,0.2-0.4,0.3-0.5c0.1,0,0.1-0.1,0.2-0.1c0-0.1-0.1-0.2-0.2-0.3
	c0,0,0,0,0,0c-1,0.2-1.8,1.2-1.8,2.3c0,1.3,1,2.3,2.3,2.3s2.3-1,2.3-2.3C14,29.3,13.2,28.4,12.2,28.1z M12.3,32.1h-1.4
	c-0.1,0-0.1-0.1-0.1-0.1c0-0.1,0.1-0.1,0.1-0.1h1.4c0.1,0,0.1,0.1,0.1,0.1C12.4,32,12.3,32.1,12.3,32.1z M13,31.1
	c-0.2,0.6-0.8,0.6-0.8,0.6l-1.3,0c0,0,0,0,0,0c0,0-0.2,0-0.4-0.2c-0.2-0.2-0.3-0.5-0.3-0.9v-0.7c0-0.1,0.1-0.1,0.1-0.1H13
	c0.1,0,0.1,0.1,0.1,0.1v0c0.1,0,0.4,0,0.5,0.2c0.1,0.1,0.1,0.2,0.1,0.3C13.7,30.7,13.3,31,13,31.1z M30.2,12.4h-0.1v-2h0.1V12.4z
	 M31.5,9.2c-1-0.8-2.5-0.5-3.3,0.5c-0.8,1-0.5,2.5,0.5,3.3c1,0.7,2.5,0.5,3.3-0.5C32.8,11.4,32.6,10,31.5,9.2z M30.2,9.4
	C30.3,9.4,30.3,9.3,30.2,9.4l0.8,0c0,0,0.1,0,0.1,0c0,0,0,0.1,0,0.1l-0.4,0.4c0,0,0,0,0,0c0,0,0,0,0,0L30.2,9.4
	C30.2,9.4,30.2,9.4,30.2,9.4z M29.2,9.7l0.4-0.4c0,0,0,0,0,0s0,0,0,0l0.4,0.4c0,0,0,0,0,0.1c0,0,0,0-0.1,0h-0.7
	C29.3,9.9,29.2,9.8,29.2,9.7C29.2,9.8,29.2,9.8,29.2,9.7z M31.4,10.3v2.1v0.1h-0.1h-2.1H29v-0.1v-2.1v-0.1h0.1h2.1h0.1V10.3z
	 M52.4,23.2h-0.1"/>
<path id="seat-38aba1c8-e697-464a-8f89-e7dcd7b9c111" class="seat" d="M62.4,3.6L62.4,3.6L62.4,3.6L62.4,3.6L62.4,3.6l3.3-0.1l0,0
	l0,0l0,0l0,0v4.3l0,0l0,0l0,0l0,0h-3.2l0,0l0,0l0,0l0,0V6.6l0,0l0,0l0,0l0,0h-0.9l0,0l0,0l0,0l0,0V5.1l0,0l0,0l0,0l0,0h0.9l0,0l0,0
	l0,0l0,0"/>
<path id="seat-2dbca06c-4cfc-4813-8da2-7c56081cc66f" class="seat" d="M74.7,3.6L74.7,3.6L74.7,3.6L74.7,3.6L74.7,3.6L78,3.5l0,0l0,0
	l0,0l0,0v4.3l0,0l0,0l0,0l0,0h-3.2l0,0l0,0l0,0l0,0V6.6l0,0l0,0l0,0l0,0h-0.9l0,0l0,0l0,0l0,0V5.2l0,0l0,0l0,0l0,0h0.9l0,0l0,0l0,0
	l0,0"/>
<path id="seat-5dc876cf-e444-444f-ac79-eba96a04870e" class="seat" d="M62.4,12.4L62.4,12.4L62.4,12.4l0.1-0.1l0,0h3.2l0,0l0,0l0,0
	l0,0v4.3l0,0l0,0l0,0l0,0h-3.2l0,0l0,0l0,0l0,0v-1.2l0,0l0,0l0,0l0,0h-0.9l0,0l0,0l0,0l0,0v-1.2l0,0l0,0l0,0l0,0h0.9l0,0l0,0l0,0
	l0,0"/>
<path id="seat-e5c3768f-26eb-4aab-89fc-6dd47890abe8" class="seat" d="M74.7,8L74.7,8L74.7,8L74.7,8L74.7,8L78,7.9l0,0l0,0l0,0l0,0
	v4.3l0,0l0,0l0,0l0,0h-3.2l0,0l0,0l0,0l0,0V11l0,0l0,0l0,0l0,0h-0.9l0,0l0,0l0,0l0,0V9.6l0,0l0,0l0,0l0,0h0.9l0,0l0,0l0,0l0,0"/>
<path id="seat-62c8b319-8516-43c6-b0da-c155bf3596d9" class="seat" d="M69.1,16.5L69.1,16.5L69.1,16.5L69,16.6l0,0h-3.2l0,0l0,0l0,0
	l0,0v-4.3l0,0l0,0l0,0l0,0H69l0,0l0,0l0,0l0,0v1.2l0,0l0,0l0,0l0,0h0.9l0,0l0,0l0,0l0,0v1.2l0,0l0,0l0,0l0,0H69l0,0l0,0l0,0l0,0"/>
<path id="seat-63d6ccb6-e1f0-4a46-b0e0-bd471050f991" class="seat" d="M69.1,12.1L69.1,12.1L69.1,12.1L69,12.2l0,0h-3.2l0,0l0,0l0,0
	l0,0V7.9l0,0l0,0l0,0l0,0H69l0,0l0,0l0,0l0,0v1.2l0,0l0,0l0,0l0,0h0.9l0,0l0,0l0,0l0,0v1.2l0,0l0,0l0,0l0,0H69l0,0l0,0l0,0l0,0"/>
<path id="seat-578fe5a3-d2fd-4812-a558-652e3b128d19" class="seat" d="M81.4,16.5L81.4,16.5L81.4,16.5l-0.1,0.1l0,0h-3.2l0,0l0,0l0,0
	l0,0v-4.3l0,0l0,0l0,0l0,0h3.2l0,0l0,0l0,0l0,0v1.2l0,0l0,0l0,0l0,0h0.9l0,0l0,0l0,0l0,0v1.2l0,0l0,0l0,0l0,0h-0.9l0,0l0,0l0,0l0,0"
	/>
<path id="seat-3a3b36fd-190c-421f-ae34-d8dea6e04785" class="seat" d="M74.7,12.4L74.7,12.4L74.7,12.4l0.1-0.1l0,0H78l0,0l0,0l0,0
	l0,0v4.3l0,0l0,0l0,0l0,0h-3.2l0,0l0,0l0,0l0,0v-1.2l0,0l0,0l0,0l0,0h-0.9l0,0l0,0l0,0l0,0v-1.2l0,0l0,0l0,0l0,0h0.9l0,0l0,0l0,0
	l0,0"/>
<path id="seat-28a64782-98a8-4055-afe7-0771a85991f7" class="seat" d="M90.2,3.6L90.2,3.6L90.2,3.6L90.2,3.6L90.2,3.6l3.3-0.1l0,0
	l0,0l0,0l0,0v4.3l0,0l0,0l0,0l0,0h-3.2l0,0l0,0l0,0l0,0V6.6l0,0l0,0l0,0l0,0h-0.9l0,0l0,0l0,0l0,0V5.2l0,0l0,0l0,0l0,0h0.9l0,0l0,0
	l0,0l0,0"/>
<path id="seat-9462cec3-d7bc-4cbb-8f97-194412230923" class="seat" d="M90.2,8L90.2,8L90.2,8L90.2,8L90.2,8l3.3-0.1l0,0l0,0l0,0l0,0
	v4.3l0,0l0,0l0,0l0,0h-3.2l0,0l0,0l0,0l0,0V11l0,0l0,0l0,0l0,0h-0.9l0,0l0,0l0,0l0,0V9.6l0,0l0,0l0,0l0,0h0.9l0,0l0,0l0,0l0,0"/>
<path id="seat-d3a0ac2c-080f-48d2-b3be-e86c41e8300c" class="seat" d="M81.4,12.1L81.4,12.1L81.4,12.1l-0.1,0.1l0,0h-3.2l0,0l0,0l0,0
	l0,0V7.9l0,0l0,0l0,0l0,0h3.2l0,0l0,0l0,0l0,0v1.2l0,0l0,0l0,0l0,0h0.9l0,0l0,0l0,0l0,0v1.2l0,0l0,0l0,0l0,0h-0.9l0,0l0,0l0,0l0,0"
	/>
<path id="seat-79f0b2a1-6f0a-4fc1-bd78-f2b5952b5a1d" class="seat" d="M81.4,7.7L81.4,7.7L81.4,7.7L81.4,7.7L81.4,7.7l-3.3,0.1l0,0
	l0,0l0,0l0,0V3.5l0,0l0,0l0,0l0,0h3.2l0,0l0,0l0,0l0,0v1.2l0,0l0,0l0,0l0,0h0.9l0,0l0,0l0,0l0,0v1.2l0,0l0,0l0,0l0,0h-0.9l0,0l0,0
	l0,0l0,0"/>
<path id="seat-f7ef1ed8-94d7-40f5-b789-83ffcbf697e4" class="seat" d="M90.2,12.4L90.2,12.4L90.2,12.4l0.1-0.1l0,0h3.2l0,0l0,0l0,0
	l0,0v4.3l0,0l0,0l0,0l0,0h-3.2l0,0l0,0l0,0l0,0v-1.2l0,0l0,0l0,0l0,0h-0.9l0,0l0,0l0,0l0,0v-1.2l0,0l0,0l0,0l0,0h0.9l0,0l0,0l0,0
	l0,0"/>
<path id="seat-8d8d7c65-3751-4343-a8f6-9ccac9f79127" class="seat" d="M69.1,7.7L69.1,7.7L69.1,7.7L69.1,7.7L69.1,7.7l-3.3,0.1l0,0
	l0,0l0,0l0,0V3.5l0,0l0,0l0,0l0,0H69l0,0l0,0l0,0l0,0v1.2l0,0l0,0l0,0l0,0h0.9l0,0l0,0l0,0l0,0v1.2l0,0l0,0l0,0l0,0H69l0,0l0,0l0,0
	l0,0"/>
<path id="seat-60dca852-b51c-46ec-aa39-ba94e7038e65" class="seat" d="M62.4,8L62.4,8L62.4,8L62.4,8L62.4,8l3.3-0.1l0,0l0,0l0,0l0,0
	v4.3l0,0l0,0l0,0l0,0h-3.2l0,0l0,0l0,0l0,0V11l0,0l0,0l0,0l0,0h-0.9l0,0l0,0l0,0l0,0V9.6l0,0l0,0l0,0l0,0h0.9l0,0l0,0l0,0l0,0"/>
<path id="seat-6e886891-2f26-45b9-ab14-6c959d61ec3a" class="seat" d="M100.8,12L100.8,12L100.8,12L100.8,12l-0.1-0.1l0,0l0.6-1.4
	l0,0l0,0l0,0l0,0l0,0l2.2,0.5l0,0l0,0l0,0l0,0l0,0l0.2,2.1l0,0l0,0l0,0l0,0l0,0l-1.4,0.4l0,0l0,0l0,0l0,0l0,0l-0.1-0.8l-0.7,0.5l0,0
	l0,0l0,0l0,0l-0.4-0.6l0,0l0,0l0,0l0,0l0.5-0.4"/>
<path id="seat-ccef5bab-67c9-4ea5-a64b-27213dcdd209" class="seat" d="M106.7,9.2L106.7,9.2L106.7,9.2L106.7,9.2l0.1,0.1l0,0
	l-0.6,1.3l0,0l0,0l0,0l0,0l0,0l-2.2-0.5l0,0l0,0l0,0l0,0l0,0L103.8,8l0,0l0,0l0,0l0,0l0,0l1.4-0.4l0,0l0,0l0,0l0,0l0,0l0.1,0.8
	l0.7-0.5l0,0l0,0l0,0l0,0l0.4,0.6l0,0l0,0l0,0l0,0l-0.5,0.4"/>
<path id="seat-8762f486-1daa-4b94-87d2-919d170e3e9e" class="seat" d="M100.4,26.1L100.4,26.1L100.4,26.1L100.4,26.1l-0.1-0.1l0,0
	l0.6-1.4l0,0l0,0l0,0l0,0l0,0l2.2,0.5l0,0l0,0l0,0l0,0l0,0l0.2,2.1l0,0l0,0l0,0l0,0l0,0l-1.4,0.4l0,0l0,0l0,0l0,0l0,0l-0.1-0.8
	l-0.7,0.5l0,0l0,0l0,0l0,0l-0.4-0.6l0,0l0,0l0,0l0,0l0.5-0.4"/>
<path id="seat-aa7ac9a8-4c10-4d73-81a3-401cbb1fad50" class="seat" d="M105.2,13.5L105.2,13.5L105.2,13.5L105.2,13.5l-0.1,0.1l0,0
	l-1.4-0.5l0,0l0,0l0,0l0,0l0,0l0.4-2.2l0,0l0,0l0,0l0,0l0,0l2.1-0.3l0,0l0,0l0,0l0,0l0,0l0.4,1.4l0,0l0,0l0,0l0,0l0,0l-0.8,0.1
	l0.5,0.6l0,0l0,0l0,0l0,0l-0.5,0.4l0,0l0,0l0,0l0,0l-0.4-0.5"/>
<path id="seat-7917fe1b-f751-42cb-9547-7983e98c4c89" class="seat" d="M104.9,27.5L104.9,27.5L104.9,27.5L104.9,27.5l-0.1,0.1l0,0
	l-1.4-0.5l0,0l0,0l0,0l0,0l0,0l0.4-2.2l0,0l0,0l0,0l0,0l0,0l2.1-0.3l0,0l0,0l0,0l0,0l0,0l0.4,1.4l0,0l0,0l0,0l0,0l0,0l-0.8,0.1
	l0.5,0.6l0,0l0,0l0,0l0,0l-0.5,0.4l0,0l0,0l0,0l0,0l-0.4-0.5"/>
<path id="seat-0df6d6d7-6832-4b65-85c0-209b9535d8ca" class="seat" d="M102.3,7.6L102.3,7.6L102.3,7.6L102.3,7.6L102.3,7.6L102.3,7.6
	l1.5,0.4l0,0l0,0l0,0l0,0l0,0l-0.4,2.2l0,0l0,0l0,0l0,0l0,0l-2.1,0.3l0,0l0,0l0,0l0,0l0,0l-0.4-1.4l0,0l0,0l0,0l0,0l0,0l0.8-0.1
	L101,8.4l0,0l0,0l0,0l0,0l0.5-0.4l0,0l0,0l0,0l0,0l0.4,0.5"/>
<path id="seat-68d2ad19-69e6-4868-9ee4-6c36d4b2e62c" class="seat" d="M101.9,21.7L101.9,21.7L101.9,21.7L101.9,21.7l0.1-0.1l0,0
	l1.4,0.5l0,0l0,0l0,0l0,0l0,0l-0.4,2.2l0,0l0,0l0,0l0,0l0,0l-2.1,0.3l0,0l0,0l0,0l0,0l0,0l-0.4-1.4l0,0l0,0l0,0l0,0l0,0h0.6
	l-0.5-0.7l0,0l0,0l0,0l0,0l0.5-0.4l0,0l0,0l0,0l0,0l0.4,0.5"/>
<path id="seat-9d49600d-8c04-4eb6-b755-b472990382ab" class="seat" d="M106.4,23.1L106.4,23.1L106.4,23.1L106.4,23.1l0.1,0.1l0,0
	l-0.6,1.4l0,0l0,0l0,0l0,0l0,0l-2.2-0.4l0,0l0,0l0,0l0,0l0,0l-0.3-2.1l0,0l0,0l0,0l0,0l0,0l1.4-0.4l0,0l0,0l0,0l0,0l0,0l0.1,0.8
	l0.7-0.5l0,0l0,0l0,0l0,0l0.4,0.5l0,0l0,0l0,0l0,0l-0.5,0.4"/>
<path id="seat-5a7cafdc-2664-4f0d-b0da-07f060314cea" class="seat" d="M104.7,31.7L104.7,31.7L104.7,31.7l0.1,0.1l0,0V35l0,0l0,0l0,0
	l0,0h-4.3l0,0l0,0l0,0l0,0v-3.2l0,0l0,0l0,0l0,0h1.2l0,0l0,0l0,0l0,0v-0.9l0,0l0,0l0,0l0,0h1.2l0,0l0,0l0,0l0,0v0.9l0,0l0,0l0,0l0,0
	"/>
<path id="seat-000d720d-ca63-4be6-aecc-7563831d4e4c" class="seat" d="M93.9,51.4L93.9,51.4L93.9,51.4L93.9,51.4L93.9,51.4l-3.3,0.1
	l0,0l0,0l0,0l0,0v-4.3l0,0l0,0l0,0l0,0h3.2l0,0l0,0l0,0l0,0v1.2l0,0l0,0l0,0l0,0h0.9l0,0l0,0l0,0l0,0v1.2l0,0l0,0l0,0l0,0h-0.9l0,0
	l0,0l0,0l0,0"/>
<path id="seat-1d94714a-ae6a-44cd-af72-cb9adebf3942" class="seat" d="M87,47.3L87,47.3L87,47.3L87,47.3L87,47.3l3.3-0.1l0,0l0,0l0,0
	l0,0v4.3l0,0l0,0l0,0l0,0h-3.2l0,0l0,0l0,0l0,0v-1.2l0,0l0,0l0,0l0,0h-0.9l0,0l0,0l0,0l0,0v-1.2l0,0l0,0l0,0l0,0h0.9l0,0l0,0l0,0
	l0,0"/>
<path id="seat-63195fcd-bef6-4f8d-b6c6-cc680ba56e38" class="seat" d="M80.1,51.5L80.1,51.5L80.1,51.5L80.1,51.5L80.1,51.5l-3.3,0.1
	l0,0l0,0l0,0l0,0v-4.3l0,0l0,0l0,0l0,0H80l0,0l0,0l0,0l0,0v1.2l0,0l0,0l0,0l0,0h0.9l0,0l0,0l0,0l0,0v1.2l0,0l0,0l0,0l0,0H80l0,0l0,0
	l0,0l0,0"/>
<path id="seat-78932652-66c6-4bfa-817f-ec8ecd18f2b6" class="seat" d="M100.6,38.4L100.6,38.4L100.6,38.4L100.6,38.4L100.6,38.4
	l-0.1-3.3l0,0l0,0l0,0l0,0h4.3l0,0l0,0l0,0l0,0v3.2l0,0l0,0l0,0l0,0h-1.2l0,0l0,0l0,0l0,0v0.9l0,0l0,0l0,0l0,0h-1.2l0,0l0,0l0,0l0,0
	v-0.9l0,0l0,0l0,0l0,0"/>
<path id="seat-4225e5cc-82ae-4ee8-a8da-632eb57188ac" class="seat" d="M58.4,46.1L58.4,46.1L58.4,46.1L58.4,46.1L58.4,46.1L58.4,46.1
	l1.5,0.5l0,0l0,0l0,0l0,0l0,0l-0.4,2.2l0,0l0,0l0,0l0,0l0,0l-2.1,0.3l0,0l0,0l0,0l0,0l0,0L57,47.7l0,0l0,0l0,0l0,0l0,0l0.8-0.1
	l-0.5-0.7l0,0l0,0l0,0l0,0l0.5-0.4l0,0l0,0l0,0l0,0l0.4,0.5"/>
<path id="seat-15625c80-68e1-4f2e-af05-e2abcc0e4516" class="seat" d="M62.8,47.6L62.8,47.6L62.8,47.6L62.8,47.6L62.8,47.6L62.8,47.6
	l-0.4,1.5l0,0l0,0l0,0l0,0l0,0l-2.2-0.4l0,0l0,0l0,0l0,0l0,0l-0.3-2.1l0,0l0,0l0,0l0,0l0,0l1.4-0.4l0,0l0,0l0,0l0,0l0,0l0.1,0.8
	l0.7-0.5l0,0l0,0l0,0l0,0l0.4,0.5l0,0l0,0l0,0l0,0L62,47.4"/>
<path id="seat-9d720c47-3875-40f5-bf7b-745f2af80135" class="seat" d="M56.9,50.6L56.9,50.6L56.9,50.6L56.9,50.6l-0.1-0.1l0,0
	l0.6-1.4l0,0l0,0l0,0l0,0l0,0l2.2,0.4l0,0l0,0l0,0l0,0l0,0l0.3,2.1l0,0l0,0l0,0l0,0l0,0l-1.2,0.6l0,0l0,0l0,0l0,0l0,0l-0.1-0.8
	L57.6,52l0,0l0,0l0,0l0,0l-0.4-0.6l0,0l0,0l0,0l0,0l0.4-0.5"/>
<path id="seat-6dc0368b-883e-45ba-8307-5ed2235fdf59" class="seat" d="M73.2,47.4L73.2,47.4L73.2,47.4L73.2,47.4L73.2,47.4l3.3-0.1
	l0,0l0,0l0,0l0,0v4.3l0,0l0,0l0,0l0,0h-3.2l0,0l0,0l0,0l0,0v-1.2l0,0l0,0l0,0l0,0l-1.1-0.1l0,0l0,0l0,0l0,0v-1.2l0,0l0,0l0,0l0,0
	h0.9l0,0l0,0l0,0l0,0"/>
<path id="seat-b76cce27-103a-45d8-bca0-35487d105543" class="seat" d="M44.5,50.8L44.5,50.8L44.5,50.8L44.5,50.8L44.5,50.8l3.3-0.1
	l0,0l0,0l0,0l0,0V55l0,0l0,0l0,0l0,0h-3.2l0,0l0,0l0,0l0,0v-1.2l0,0l0,0l0,0l0,0h-0.9l0,0l0,0l0,0l0,0v-1.2l0,0l0,0l0,0l0,0h0.9l0,0
	l0,0l0,0l0,0"/>
<path id="seat-666c24bc-6c99-4f75-9986-1f1648c57b48" class="seat" d="M44.5,43.4L44.5,43.4L44.5,43.4L44.5,43.4L44.5,43.4l3.3-0.1
	l0,0l0,0l0,0l0,0v4.3l0,0l0,0l0,0l0,0h-3.2l0,0l0,0l0,0l0,0v-1.2l0,0l0,0l0,0l0,0h-0.9l0,0l0,0l0,0l0,0v-1.2l0,0l0,0l0,0l0,0h0.9
	l0,0l0,0l0,0l0,0"/>
<path id="seat-e6c274c1-6dc4-43c6-b427-fade02a9816a" class="seat" d="M51.3,47.5L51.3,47.5L51.3,47.5L51.3,47.5L51.3,47.5L48,47.6
	l0,0l0,0l0,0l0,0v-4.3l0,0l0,0l0,0l0,0h3.2l0,0l0,0l0,0l0,0v1.2l0,0l0,0l0,0l0,0h0.9l0,0l0,0l0,0l0,0v1.2l0,0l0,0l0,0l0,0h-0.9l0,0
	l0,0l0,0l0,0"/>
<path id="seat-b42ce100-a830-4750-8d4c-2c2c97d0e683" class="seat" d="M61.4,52L61.4,52L61.4,52L61.4,52L61.4,52L61.4,52l-1.5-0.4
	l0,0l0,0l0,0l0,0l0,0l0.4-2.2l0,0l0,0l0,0l0,0l0,0l2.1-0.3l0,0l0,0l0,0l0,0l0,0l0.4,1.4l0,0l0,0l0,0l0,0l0,0l-0.6,0.1l0.5,0.6l0,0
	l0,0l0,0l0,0l-0.5,0.4l0,0l0,0l0,0l0,0l-0.4-0.5"/>
<path id="seat-16c2b5a1-fc15-4a14-b58d-f20032b17af9" class="seat" d="M51.3,54.9L51.3,54.9L51.3,54.9L51.3,54.9L51.3,54.9L48,55l0,0
	l0,0l0,0l0,0v-4.3l0,0l0,0l0,0l0,0h3.2l0,0l0,0l0,0l0,0v1.2l0,0l0,0l0,0l0,0h0.9l0,0l0,0l0,0l0,0v1.2l0,0l0,0l0,0l0,0h-0.9l0,0l0,0
	l0,0l0,0"/>
</svg>
