<?xml version="1.0" encoding="utf-8"?>
<!-- Generator: Adobe Illustrator 26.5.0, SVG Export Plug-In . SVG Version: 6.00 Build 0)  -->
<svg version="1.1" id="Layer_1" xmlns="http://www.w3.org/2000/svg" xmlns:xlink="http://www.w3.org/1999/xlink" x="0px" y="0px"
	 viewBox="0 0 111.3 59.5" style="enable-background:new 0 0 111.3 59.5;" xml:space="preserve">
<style type="text/css">
	.st0{fill:#F0F0F0;}
	.st1{fill:none;stroke:#ADADAD;stroke-width:0.1;}
	.st2{fill:none;stroke:#ADADAD;stroke-width:0.2;}
	.st3{fill:none;stroke:#64C8FA;stroke-width:0.2;}
	.st4{fill:#ADADAD;stroke:#ADADAD;stroke-width:0.1;}
	.seat{fill:#505050;}
</style>
<path class="st0" d="M33.5,32.7v9.1h11v-9.1 M33.5,42.2v6.6h11v-6.6 M43.1,55.4h1.3v-6.2h-11v10.4H43v-1.1 M17.1,24.8H12H7H6v11.4
	h11.1v-9.5h-0.2 M0.8,24.8v11.4h4.8V24.8 M57.7,29.7v9.7h6.9v-0.2v-9.5 M65.1,29.7v9.5H72v-9.5 M72.4,29.7v9.5h6.9v-9.5 M79.8,29.7
	v9.5H91v-9.5 M108.1,56.3h2v2h-2 M111.3,59.5v-16h-13v6.1h0.2v9.9 M108.1,1.2h2v2h-2 M111.3,22.9V0H98.5v17.3h-0.2v5.6 M64.8,1.2h2
	v2h-2 M64.7,22.4h2.2v0.5h9.6v-5.6h-0.1V0H44.1v1v0.5v1.7v17h0.5v2.7h20 M52.1,29.5h0.4v9.8h-0.4 M57.3,39.3v-9.7h7.6h7.3h7.3h11.8
	v9.5H79.5h-7.3h-7.3l-0.2,0.2h-6.9 M21.5,55.4h2v3.1h-2 M64.8,55.4h2v3.1h-2 M86.5,55.4h2v3.1h-2 M108.1,29h2v2h-2 M86.5,1.2h2v2h-2
	 M86.3,22.4h2.2v2.4h-2.2 M44.5,55.4h0.6v3.1h-2v1.1H98v-9.9h0.2v-6.1h13V22.9h-13v-5.6H98V0H76.8v17.3h-0.3v5.6h-9.6v2h-2.2v-2h-20
	v2h-1.3h-8.1v-0.2h-3.7v0.2h-0.2h-4.9h-0.2v-0.2h-3.7v0.2h-5.1v2h-0.3v9.9H5.9h-5v18.7h1v3.3H0v0.9h33.1V49v-7v-9.8h11.4V42v7"/>
<path class="st1" d="M79.2,39.1v-2.4c-1.3,0-2.4,1.1-2.4,2.4l0,0 M44.5,32.8H42c0,1.3,1.1,2.4,2.4,2.5l0,0 M44.5,42.4H42
	c0,1.3,1.1,2.4,2.4,2.4l0,0 M44.5,50.3H42c0,1.4,1.1,2.5,2.5,2.5 M45.7,22.9v-2.5 M48.2,22.9c0-1.4-1.1-2.5-2.5-2.5 M17.2,34.3h-2.5
	 M17.2,31.7c-1.4,0-2.5,1.1-2.5,2.5 M76.2,22.9v-2.5c-1.4,0-2.5,1.1-2.5,2.5 M79.9,39.2v-2.5 M82.4,39.2c0-1.3-1.1-2.4-2.4-2.4l0,0
	 M98.7,22.9v-2.5 M101.2,22.9c0-1.4-1.1-2.5-2.5-2.5 M98.6,43.5V46c1.4,0,2.5-1.1,2.5-2.5 M6.9,3.3c-1.2,0-2.2,1-2.3,2.2 M6.9,5.5
	H4.6 M4.6,5.7V5.5 M6.9,5.7H4.6 M6.9,5.7V5.5 M15.4,6.8c0-1.4-1.1-2.6-2.5-2.6 M12.9,6.8V4.2 M12.8,4.2h0.1 M12.8,6.8V4.2 M12.8,6.8
	h0.1 M5.1,8.2c0.1,1,0.9,1.7,1.8,1.7 M6.9,8.2H5.1 M5.1,8.1v0.1 M6.9,8.1H5.1 M6.9,8.1v0.1 M6.9,10.6c-1,0-1.8,0.7-1.8,1.7
	 M6.9,12.3H5.1 M5.1,12.4v-0.1 M6.9,12.4H5.1 M6.9,12.4v-0.1 M12.1,10.2c1.4,0,2.6-1.1,2.6-2.5 M12.1,7.7h2.6 M14.8,7.6L14.8,7.6
	 M12.1,7.6h2.6 M12.1,7.6L12.1,7.6 M6.9,18.6c-1.1,0-2.1,0.9-2.1,2 M6.9,20.6H4.8 M4.8,20.7v-0.1 M6.9,20.7H4.8 M6.9,20.7v-0.1
	 M5.1,21.5c0.1,1,0.9,1.7,1.8,1.7 M6.9,21.5H5.1 M5.1,21.4v0.1 M6.9,21.4H5.1 M6.9,21.4v0.1 M14.8,23.3c-0.1-1.4-1.2-2.5-2.6-2.5
	 M12.1,23.3h2.6 M14.8,23.4v-0.1 M12.1,23.4h2.6 M12.1,23.4v-0.1 M19.4,20.7c0.1,1.6,1.4,2.8,3,2.8 M22.3,20.7h-3 M19.4,20.6v0.1
	 M22.3,20.6h-3 M22.3,20.6v0.1 M34.9,20.6c-1.6,0-2.9,1.3-3,2.8 M34.9,23.4h-3 M32,23.5v-0.1 M34.9,23.5h-3 M34.9,23.5v-0.1
	 M71.8,39.2v-2.5c-1.3,0-2.4,1.1-2.4,2.4l0,0 M57.9,39.2v-2.3 M60.3,39.3c0-1.3-1.1-2.4-2.4-2.4l0,0 M3,29.3
	c0.1,1.4,1.2,2.6,2.7,2.6 M5.6,29.3H3 M3,29.2v0.1 M5.6,29.2H3 M5.6,29.2v0.1"/>
<path class="st1" d="M1.8,55.4h-1 M0,55.4v3.3h1.8v-3.3 M88.4,1.2h-2v2h2V1.2 M66.9,22.4h-2.2v2.4h2.2V22.4 M44.7,20.2h-0.5
	 M43.3,20.2v3.5 M43.3,24v0.5 M43.3,24.9h1.3v-4.7 M1.3,2h5.6 M7.2,2h5.4V0.9H0 M15.6,2h0.5 M16.9,2h8.4 M25.8,2h0.8V0.9h-11V2
	 M34.1,2h0.8 M34.1,0.9V2h-7.5 M15.6,2h-2.9 M12.7,0.9h2.9 M26.6,0.9h7.5 M35.4,3.4h0.5V2 M1.3,24.4v-3.1 M1.3,20.9V14 M1.3,13.2
	v-2.8 M1.3,10.1v-3 M1.3,6.8V2 M0.8,55.4V36.7 M0.8,36.3V24.9 M0,0.9v54.5 M1.3,7.1h5.6 M7.2,7.1h4.6 M12.1,7.1h0.7V6.8H7.2
	 M6.9,6.8H1.3 M15.4,7.1h0.7 M16.1,6.8h-0.7v0.3 M1.3,10.4h5.6 M6.9,10.1H1.3 M7.2,15h3.1 M10.7,15h1.1 M11.8,14.7H7.2 M7.2,16.5
	h4.6 M11.8,16.2h-1.1 M10.3,16.2H7.2 M10.3,15v1.1 M10.7,16.2V15 M6.9,2.1v1.3h0.3V2.1 M6.9,5.7v1.1 M7.2,6.8V5.7H6.9 M6.9,7.1v1
	h0.3v-1 M6.9,9.9v0.2 M6.9,10.4v0.2h0.3V9.9H6.9 M6.9,12.4v0.8 M6.9,14v4.6h0.3v-2.1 M7.2,16.2V15 M7.2,14.7v-2.3H6.9 M6.9,20.8V21
	 M6.9,21.2v0.2h0.3v-0.6H6.9 M6.9,23.2v1.1 M7.2,24.4v-1.1H6.9 M1.3,21.2h5.6 M6.9,20.9H1.3 M11.8,7.1v0.5h0.3V7.1 M11.8,10.2v4.4
	 M11.8,15v1.1 M11.8,16.5v4.3h0.3V10.2h-0.3 M11.8,23.4v1 M12.1,24.4V24 M12.1,23.7v-0.3h-0.3 M12.1,24h10.2 M22.3,23.7H12.1
	 M22.3,19.9v0.6h0.5v-0.6 M22.3,23.5v0.2 M22.3,24v0.3 M22.8,24.8v-1.3h-0.5 M22.3,24.4H12.1 M11.8,24.4H7.2 M6.9,24.4H1.3
	 M0.8,24.8h4.8 M6.1,24.8h11 M17.5,24.8h5.3 M5.6,24.8v4.4H6v-4.4 M5.6,31.9v4.4 M6.1,36.3v-4.4H5.6 M0.8,36.7h16.6v-0.4H6.1
	 M5.6,36.3H0.8 M17.1,24.8v2h0.4v-2 M33.5,58.6v-9.5 M33.5,48.8v-6.6 M33.5,41.8v-9.1 M33.1,32.2v26.4h0.4 M33.5,32.7h11.1v-0.4
	H33.1 M33.5,42.2h11.1v-0.4H33.5 M33.5,49.2h11.1v-0.4H33.5 M52.1,29.5v9.8h0.4v-9.8H52.1 M57.3,29.5v9.8h0.4v-9.8H57.3 M64.6,29.5
	v9.8H65v-9.8H64.6 M72,29.5v9.8h0.4v-9.8H72 M79.3,29.5v9.8h0.4v-9.8H79.3 M90.9,29.5v9.8h0.4v-9.8H90.9 M76.4,0.9v16.4h0.4V0.9
	H76.4 M98.1,0.9v16.4h0.4V0.9H98.1 M98.1,49.6v9h0.4v-9H98.1 M1.3,14h5.6 M6.9,13.2H1.3 M16.1,2.1v4.8 M16.9,7.6V2.1 M16.1,8.4h2
	 M18.9,8V7.6h-2 M16.1,7.1v1.3 M18,8.4v3.8 M18,12.5v3.3 M18,16.2v3.4 M18.9,19.1v-5.2 M18.9,13.5V8.3 M16.1,19.9h6.2 M22.8,19.9h3
	 M25.3,19.1h-6.4 M18,19.6h-2v0.3 M18,15.9h-2v0.3h2 M18,12.2h-2v0.3h2 M18.9,13.9h6.4 M25.3,13.5h-6.4 M18.9,8.3h6.4 M25.3,8h-6.4
	 M25.3,18.6v0.5 M25.8,19.9v-1.3h-0.5 M25.3,13.4v0.2 M25.3,13.9v1.5h0.2v-2h-0.2 M25.3,7.3V8 M25.3,8.3v1h0.2v-2h-0.2 M25.3,2.1
	v1.3h0.5V2.1 M34.9,2.1v18.5h0.5V3.4 M34.9,23.5v1.3 M35.4,24.5V24 M35.4,23.7v-0.2h-0.5 M34.9,24.9h8.4 M43.3,24.5h-7.9 M35.4,24
	h7.9 M43.3,23.7h-7.9 M44.1,20.2V0.9 M43.3,2.1v1 M43.3,3.4v16.8 M44.1,0.9h-10 M35.9,2.1H40 M40.4,2.1h3 M40,2.1v1.3 M40.4,3V2
	 M40,3.4h3.3 M43.3,3h-3"/>
<path class="st2" d="M23.5,55.4h-2v3.1h2V55.4 M45.1,55.4h-2v3.1h2V55.4 M66.8,55.4h-2v3.1h2V55.4 M88.4,55.4h-2v3.1h2V55.4
	 M110.1,29h-2v2h2V29 M110.1,1.2h-2v2h2V1.2 M66.8,1.2h-2v2h2V1.2 M88.6,22.4h-2.2v2.4h2.2V22.4 M110.1,56.4h-2v2h2V56.4"/>
<path class="st1" d="M39.7,7.3L39.7,7.3 M39,7.3h0.7 M39,8.3v-1 M43.3,3.4h-7.9 M43.3,7.4v-4 M43.3,16.6L43.3,16.6 M43.1,16.6h-3.3
	 M39.7,16.6L39.7,16.6 M43.3,7.4L43.3,7.4 M43.1,7.4h-3.3 M39.7,7.4L39.7,7.4 M35.4,8.3L35.4,8.3 M35.6,8.3h3.3 M39,8.3L39,8.3
	 M39.7,15.6v0.9 M39.7,14.7v0.9 M39.7,13.8v0.9 M39.7,12.9v0.9 M39.7,12v0.9 M39.7,11v1 M39.7,10.1V11 M39.7,9.2v0.9 M39.7,8.3v0.9
	 M39.7,7.4v0.9 M43.3,15.6v0.9 M43.3,14.7v0.9 M43.3,13.8v0.9 M43.3,12.9v0.9 M43.3,12v0.9 M43.3,11v1 M43.3,10.1V11 M43.3,9.2v0.9
	 M43.3,8.3v0.9 M43.3,7.4v0.9 M39,9.2V8.3 M39,10.1V9.2 M39,10.2L39,10.2 M43.3,15.6L43.3,15.6 M43.1,15.6h-3.3 M39.7,15.6
	L39.7,15.6 M43.3,14.7L43.3,14.7 M43.1,14.7h-3.3 M39.7,14.7L39.7,14.7 M43.3,13.8L43.3,13.8 M43.1,13.8h-3.3 M39.7,13.8L39.7,13.8
	 M43.3,12.9L43.3,12.9 M43.1,12.9h-3.3 M39.7,12.9L39.7,12.9 M43.3,12L43.3,12 M43.1,12h-3.3 M39.7,12L39.7,12 M43.3,11L43.3,11
	 M43.1,11h-3.3 M39.7,11L39.7,11 M43.3,10.1L43.3,10.1 M43.1,10.1h-3.3 M39.7,10.1L39.7,10.1 M43.3,9.2L43.3,9.2 M43.1,9.2h-3.3
	 M39.7,9.2L39.7,9.2 M43.3,8.3L43.3,8.3 M43.1,8.3h-3.3 M39.7,8.3L39.7,8.3 M43.3,7.4L43.3,7.4 M43.1,7.4h-3.3 M39.7,7.4L39.7,7.4
	 M35.4,8.3L35.4,8.3 M35.6,8.3h3.3 M39,8.3L39,8.3 M35.4,9.2L35.4,9.2 M35.6,9.2h3.3 M39,9.2L39,9.2 M35.4,10.1L35.4,10.1
	 M35.6,10.1h3.3 M39,10.1L39,10.1 M35.4,11L35.4,11 M35.6,11h1.3 M37.2,11h0.3 M43.3,15.6L43.3,15.6 M43.1,15.6h-3.3 M39.7,15.6
	L39.7,15.6 M43.3,14.7L43.3,14.7 M43.1,14.7h-3.3 M39.7,14.7L39.7,14.7 M43.3,13.8L43.3,13.8 M43.1,13.8h-3.3 M39.7,13.8L39.7,13.8
	 M43.3,12.9L43.3,12.9 M43.1,12.9h-3.3 M39.7,12.9L39.7,12.9 M43.3,12L43.3,12 M43.1,12h-3.3 M39.7,12L39.7,12 M43.3,11L43.3,11
	 M43.1,11h-3.3 M39.7,11L39.7,11 M43.3,10.1L43.3,10.1 M43.1,10.1h-3.3 M39.7,10.1L39.7,10.1 M43.3,9.2L43.3,9.2 M43.1,9.2h-3.3
	 M39.7,9.2L39.7,9.2 M43.3,8.3L43.3,8.3 M43.1,8.3h-3.3 M39.7,8.3L39.7,8.3 M35.4,9.2L35.4,9.2 M35.6,9.2h3.3 M39,9.2L39,9.2
	 M35.4,10.1L35.4,10.1 M35.6,10.1h3.3 M39,10.1L39,10.1 M35.4,11L35.4,11 M35.6,11h1.3 M37.2,11h0.3 M35.4,17.5L35.4,17.5
	 M35.6,17.5h3.3 M39,17.5L39,17.5 M39,11v-0.8 M39,12v-1 M39,12.9V12 M39,13.8v-0.9 M39,14.7v-0.9 M39,15.6v-0.9 M39,16.6v-0.9
	 M39,17.5v-0.9 M37.6,11h1.3 M39,11L39,11 M36.9,11h0.3 M35.4,12L35.4,12 M35.6,12h3.3 M39,12L39,12 M35.4,12.9L35.4,12.9
	 M35.6,12.9h3.3 M39,12.9L39,12.9 M35.4,13.8L35.4,13.8 M35.6,13.8h3.3 M39,13.8L39,13.8 M35.4,14.7L35.4,14.7 M35.6,14.7h3.3
	 M39,14.7L39,14.7 M35.4,15.6L35.4,15.6 M35.6,15.6h3.3 M39,15.6L39,15.6 M35.4,16.6L35.4,16.6 M35.6,16.6h3.3 M39,16.6L39,16.6
	 M35.4,17.5L35.4,17.5 M35.6,17.5h3.3 M39,17.5L39,17.5 M37.6,11h1.3 M39,11L39,11 M36.9,11h0.3 M35.4,12L35.4,12 M35.6,12h3.3
	 M39,12L39,12 M35.4,12.9L35.4,12.9 M35.6,12.9h3.3 M39,12.9L39,12.9 M35.4,13.8L35.4,13.8 M35.6,13.8h3.3 M39,13.8L39,13.8
	 M35.4,14.7L35.4,14.7 M35.6,14.7h3.3 M39,14.7L39,14.7 M35.4,15.6L35.4,15.6 M35.6,15.6h3.3 M39,15.6L39,15.6 M35.4,16.6L35.4,16.6
	 M35.6,16.6h3.3 M39,16.6L39,16.6 M41.5,5.3v2 M37.2,5.3h4.3 M37.2,8.3v-3 M41.5,15.6v0.9 M41.5,14.7v0.9 M41.5,13.8v0.9 M41.5,12.9
	v0.9 M41.5,12v0.9 M41.5,11v1 M41.5,10.1V11 M41.5,9.2v0.9 M41.5,8.3v0.9 M41.5,7.4v0.9 M37.2,9.2V8.3 M37.2,10.1V9.2 M37.2,10.1
	l-0.4-0.4 M37.2,10.1l0.4-0.4 M41.5,5.4v2 M37.2,5.4h4.3 M37.2,8.3V5.4 M41.5,7.4v9.2l-0.4-0.4 M41.5,16.5l0.4-0.4 M37.2,10V8.3
	 M37.2,12.9V12 M37.2,13.8v-0.9 M37.2,14.7v-0.9 M37.2,15.6v-0.9 M37.2,16.5v-0.9 M37.2,17.5v-0.9 M37.2,12l0.4,0.4 M37.2,12
	l-0.4,0.4 M39.7,7.3L39.7,7.3 M39,7.3h0.7 M39,8.3v-1 M35.4,3.4v4.9 M43.3,3.4h-7.9 M43.3,7.4v-4 M43.3,16.5h-3.6 M43.3,7.4h-3.6
	 M35.4,8.3H39 M39.7,7.4v9.2 M43.3,7.4v9.2 M39,10.2V8.3 M35.4,10.4V8.3 M36.9,11.2l-1.3,0.6 M35.5,11.9L35.5,11.9 M37,10.6
	l-0.2,0.6 M37.5,11.5L37,10.6 M37.6,10.9l-0.2,0.6 M39,10.2L39,10.2 M38.9,10.3l-1.3,0.6 M43.3,15.6h-3.6 M43.3,14.7h-3.6
	 M43.3,13.8h-3.6 M43.3,12.9h-3.6 M43.3,12h-3.6 M43.3,11h-3.6 M43.3,10.1h-3.6 M43.3,9.2h-3.6 M43.3,8.3h-3.6 M43.3,7.4h-3.6
	 M35.4,8.3H39 M35.4,9.2H39 M35.4,10.1H39 M37.2,11h0.3 M35.4,11h1.5 M43.3,15.6h-3.6 M43.3,14.7h-3.6 M43.3,13.8h-3.6 M43.3,12.9
	h-3.6 M43.3,12h-3.6 M43.3,11h-3.6 M43.3,10.1h-3.6 M43.3,9.2h-3.6 M43.3,8.3h-3.6 M35.4,9.2H39 M35.4,10.1H39 M37.2,11h0.3
	 M35.4,11h1.5"/>
<path class="st3" d="M64.5,23H48.3l0,0H64.5L64.5,23 M76.5,23h-0.2l0,0H76.5L76.5,23 M76.6,17.5v5.4l0,0V17.5L76.6,17.5 M79.9,29.6
	h10.8l0,0H79.9L79.9,29.6 M72.6,29.6h6.6l0,0H72.6L72.6,29.6 M65.2,29.6h6.6l0,0H65.2L65.2,29.6 M57.9,29.6h6.6l0,0H57.9L57.9,29.6
	 M90.8,39.2h-8.2l0,0H90.8L90.8,39.2 M110.2,43.5h-8.9l0,0H110.2L110.2,43.5 M98.2,49.5v-5.9l0,0V49.5L98.2,49.5 M98.2,22.9v-5.4
	l0,0V22.9L98.2,22.9 M110.2,22.9h-8.9l0,0H110.2L110.2,22.9 M44.5,49.3v0.8l0,0V49.3L44.5,49.3 M17.3,27v4.6l0,0V27L17.3,27
	 M44.5,35.4v6.2l0,0V35.4L44.5,35.4 M44.5,45v3.6l0,0V45L44.5,45 M44.5,53v2.2l0,0V53L44.5,53 M45.5,23h-0.7l0,0H45.5L45.5,23
	 M73.5,23h-6.4l0,0H73.5L73.5,23 M17.3,34.4v1.7l0,0V34.4L17.3,34.4 M69.2,39.2h-4l0,0H69.2L69.2,39.2 M76.6,39.2h-4l0,0H76.6
	L76.6,39.2 M98.5,22.9h-0.3V23L98.5,22.9L98.5,22.9 M98.5,43.5h-0.2l0,0H98.5L98.5,43.5 M60.5,39.3h4l0,0H60.5L60.5,39.3 M111.1,0
	h-7.4v0.1L111.1,0L111.1,0 M103.6,0h-5.2v0.1L103.6,0L103.6,0 M98.2,0H93v0.1L98.2,0L98.2,0 M92.8,0h-5.2v0.1L92.8,0L92.8,0 M87.3,0
	h-5.2v0.1L87.3,0L87.3,0 M81.9,0h-5.2v0.1L81.9,0L81.9,0 M76.5,0h-5.2v0.1L76.5,0L76.5,0 M71.1,0h-5.2v0.1L71.1,0L71.1,0 M65.7,0
	h-5.2v0.1L65.7,0L65.7,0 M60.3,0H55v0.1L60.3,0L60.3,0 M54.9,0h-5.2v0.1L54.9,0L54.9,0 M49.5,0h-5.3v0.1L49.5,0L49.5,0 M111.2,58.5
	v-8h-0.1L111.2,58.5L111.2,58.5 M111.2,50.4v-6.7h-0.1L111.2,50.4L111.2,50.4 M111.2,43.5v-6.7h-0.1L111.2,43.5L111.2,43.5
	 M111.2,36.6v-6.7h-0.1L111.2,36.6L111.2,36.6 M111.2,29.7V23h-0.1L111.2,29.7L111.2,29.7 M111.2,22.8v-6.7h-0.1L111.2,22.8
	L111.2,22.8 M111.2,15.9V9.2h-0.1L111.2,15.9L111.2,15.9 M111.2,9V1h-0.1L111.2,9L111.2,9 M0.2,59.5h6v-0.1L0.2,59.5L0.2,59.5
	 M6.3,59.5h5.2v-0.1L6.3,59.5L6.3,59.5 M11.7,59.5H17v-0.1L11.7,59.5L11.7,59.5 M17.1,59.5h5.2v-0.1L17.1,59.5L17.1,59.5 M22.6,59.5
	h5.2v-0.1L22.6,59.5L22.6,59.5 M28,59.5h5.2v-0.1L28,59.5L28,59.5 M33.4,59.5h5.2v-0.1L33.4,59.5L33.4,59.5 M38.8,59.5H44v-0.1
	L38.8,59.5L38.8,59.5 M44.2,59.5h5.2v-0.1L44.2,59.5L44.2,59.5 M49.6,59.5h5.2v-0.1L49.6,59.5L49.6,59.5 M55,59.5h5.2v-0.1L55,59.5
	L55,59.5 M60.4,59.5h5.2v-0.1L60.4,59.5L60.4,59.5 M65.9,59.5h5.2v-0.1L65.9,59.5L65.9,59.5 M71.3,59.5h5.2v-0.1L71.3,59.5
	L71.3,59.5 M76.7,59.5h5.2v-0.1L76.7,59.5L76.7,59.5 M82.1,59.5h5.2v-0.1L82.1,59.5L82.1,59.5 M87.5,59.5h5.2v-0.1L87.5,59.5
	L87.5,59.5 M92.9,59.5h5.2v-0.1L92.9,59.5L92.9,59.5 M98.3,59.5h5.2v-0.1L98.3,59.5L98.3,59.5 M103.8,59.5h7.4v-0.1L103.8,59.5
	L103.8,59.5 M31.5,24.8h3.3l0,0H31.5L31.5,24.8 M23,24.8h3.3l0,0H23L23,24.8 M26.4,25h4.9l0,0H26.4L26.4,25 M111.3,58.6v-0.2h-0.9
	v0.2H111.3 M111.3,0h-0.2v0.9h0.2V0 M0,59.5h0.2v-0.9H0V59.5 M17.2,36.1v0.2h0.2v-0.2H17.2 M44.5,41.6v0.2h0.2v-0.2H44.5 M44.5,48.6
	v0.2h0.2v-0.2H44.5 M44.5,55.2v0.2h0.2v-0.2H44.5 M44.8,22.9h-0.2V23h0.2V22.9 M67.1,22.9h-0.2V23h0.2V22.9 M76.5,17.3v0.2h0.2v-0.2
	H76.5 M98.3,17.5v-0.2h-0.2v0.2H98.3 M98.3,22.9h-0.2V23h0.2V22.9 M98.3,43.6v-0.2h-0.2v0.2H98.3 M98.3,49.6v-0.2h-0.2v0.2H98.3
	 M65.2,39.2H65v0.2h0.2V39.2 M72.6,39.2h-0.2v0.2h0.2V39.2 M79.9,39.2h-0.2v0.2h0.2V39.2 M90.7,29.7h0.2v-0.2h-0.2V29.7 M79.8,29.7
	H80v-0.2h-0.2V29.7 M79.2,29.7h0.2v-0.2h-0.2V29.7 M72.4,29.7h0.2v-0.2h-0.2V29.7 M71.8,29.7H72v-0.2h-0.2V29.7 M65.1,29.7h0.2v-0.2
	h-0.2V29.7 M64.5,29.7h0.2v-0.2h-0.2V29.7 M57.7,29.7h0.2v-0.2h-0.2V29.7 M90.8,29.7H79.9 M90.8,29.5H79.9 M79.2,29.7h-6.6
	 M79.2,29.5h-6.6 M71.8,29.7h-6.6 M71.8,29.5h-6.6 M64.5,29.7h-6.6 M64.5,29.5h-6.6 M82.5,39.2h8.2 M82.5,39.3h8.2 M48.3,22.9h16.2
	 M48.3,23h16.2 M76.3,22.9h0.2 M76.3,23h0.2 M76.5,22.9v-5.4 M76.7,22.9v-5.4 M98.3,17.5v5.4 M98.1,17.5v5.4 M101.3,22.9h8.9
	 M101.3,23h8.9 M98.3,43.6v5.9 M98.1,43.6v5.9 M101.3,43.4h8.9 M101.3,43.6h8.9 M44.5,50.2v-0.8 M44.6,50.2v-0.8 M17.2,31.6V27
	 M17.4,31.6V27 M44.5,41.6v-6.2 M44.6,41.6v-6.2 M44.5,48.6V45 M44.6,48.6V45 M44.5,55.2V53 M44.6,55.2V53 M44.8,22.9h0.7 M44.8,23
	h0.7 M67.1,22.9h6.4 M67.1,23h6.4 M17.2,36.1v-1.7 M17.4,36.1v-1.7 M65.2,39.2h4 M65.2,39.3h4 M72.6,39.2h4 M72.6,39.3h4 M98.3,22.9
	h0.3 M98.3,23h0.3 M98.3,43.4h0.2 M98.3,43.5h0.2 M17.2,26.8V27h0.2v-0.2H17.2 M44.5,49.2v0.2h0.2v-0.2H44.5 M44.5,42.2v0.2h0.2
	v-0.2H44.5 M44.5,32.7v0.2h0.2v-0.2H44.5 M64.7,22.9h-0.2V23h0.2V22.9 M76.7,22.9h-0.2V23h0.2V22.9 M72,39.2h-0.2v0.2H72V39.2
	 M79.3,39.2h-0.2v0.2h0.2V39.2 M90.9,39.2h-0.2v0.2h0.2V39.2 M110.4,22.9h-0.2V23h0.2V22.9 M110.4,43.4h-0.2v0.2h0.2V43.4
	 M64.5,39.3h0.2v-0.2h-0.2V39.3h-4 M64.5,39.2h-4 M57.7,39.3h0.2v-0.2h-0.2V39.3 M101.3,43.4h-0.2v0.2h0.2V43.4 M98.6,43.4h-0.2v0.2
	h0.2V43.4 M98.7,22.9h-0.2V23h0.2V22.9 M101.3,22.9h-0.2V23h0.2V22.9 M73.6,22.9h-0.2V23h0.2V22.9 M76.3,22.9h-0.2V23h0.2V22.9
	 M45.6,22.9h-0.2V23h0.2V22.9 M48.3,22.9h-0.2V23h0.2V22.9 M60.3,39.3h0.2v-0.2h-0.2V39.3 M69.4,39.2h-0.2v0.2h0.2V39.2 M76.7,39.2
	h-0.2v0.2h0.2V39.2 M82.5,39.2h-0.2v0.2h0.2V39.2 M44.5,52.9L44.5,52.9l0.2,0.1v-0.2h-0.2 M44.5,50.2v0.2h0.2v-0.2H44.5 M44.5,44.8
	V45h0.2v-0.2H44.5 M44.5,35.3v0.2h0.2v-0.2H44.5 M17.2,34.3v0.2h0.2v-0.2H17.2 M17.2,31.6v0.2h0.2v-0.2H17.2 M44.1,0L44.1,0L44,0.9
	h0.2V0 M49.6,0h-0.2v0.9h0.2V0 M55,0h-0.2v0.9H55V0 M60.4,0h-0.2v0.9h0.2V0 M65.9,0h-0.2v0.9h0.2V0 M71.3,0h-0.2v0.9h0.2V0 M76.7,0
	h-0.2v0.9h0.2V0 M82.1,0h-0.2v0.9h0.2V0 M87.5,0h-0.2v0.9h0.2V0 M92.9,0h-0.2v0.9h0.2V0 M98.3,0h-0.2v0.9h0.2V0 M103.8,0h-0.2v0.9
	h0.2V0 M44.1,0h5.3 M49.5,0.9h-5.3 M49.6,0h5.2 M54.9,0.9h-5.2 M55,0h5.2 M60.3,0.9H55 M60.4,0h5.2 M65.7,0.9h-5.2 M65.9,0h5.2
	 M71.1,0.9h-5.2 M71.3,0h5.2 M76.4,0.9h-5.1 M76.7,0h5.2 M81.9,0.9h-5.1 M82.1,0h5.2 M87.3,0.9h-5.2 M87.5,0h5.2 M92.8,0.9h-5.2
	 M92.9,0h5.2 M98,0.9h-5.1 M98.3,0h5.2 M103.6,0.9h-5.1 M103.8,0h7.4 M110.4,0.9h-6.6 M111.3,1.1V0.9h-0.9v0.2H111.3 M111.3,9.2V9
	h-0.9v0.2H111.3 M111.3,16.1v-0.2h-0.9v0.2H111.3 M111.3,23v-0.2h-0.9V23H111.3 M111.3,29.9v-0.2h-0.9v0.2H111.3 M111.3,36.7v-0.2
	h-0.9v0.2H111.3 M111.3,43.6v-0.2h-0.9v0.2H111.3 M111.3,50.5v-0.2h-0.9v0.2H111.3 M111.3,1.1v8 M110.4,9V1 M111.3,9.2v6.7
	 M110.4,15.9V9.2 M111.3,16.1v6.7 M110.4,22.8v-6.7 M111.3,23v6.7 M110.4,29.7V23 M111.3,29.9v6.7 M110.4,36.6v-6.7 M111.3,36.7v6.7
	 M110.4,43.4v-6.6 M111.3,43.6v6.7 M110.4,50.4v-6.7 M111.3,50.5v8 M110.4,58.5v-8 M6.1,59.5h0.2v-0.9H6.1V59.5 M11.6,59.5h0.2v-0.9
	h-0.2V59.5 M17,59.5h0.2v-0.9H17V59.5 M22.4,59.5h0.2v-0.9h-0.2V59.5 M27.8,59.5H28v-0.9h-0.2V59.5 M33.2,59.5h0.2v-0.9h-0.2V59.5
	 M38.6,59.5h0.2v-0.9h-0.2V59.5 M44,59.5h0.2v-0.9H44V59.5 M49.5,59.5h0.2v-0.9h-0.2V59.5 M54.9,59.5L54.9,59.5l0.1-0.9h-0.2v0.9
	 M60.3,59.5h0.2v-0.9h-0.2V59.5 M65.7,59.5h0.2v-0.9h-0.2V59.5 M71.1,59.5h0.2v-0.9h-0.2V59.5 M76.5,59.5h0.2v-0.9h-0.2V59.5
	 M81.9,59.5h0.2v-0.9h-0.2V59.5 M87.3,59.5h0.2v-0.9h-0.2V59.5 M92.8,59.5H93v-0.9h-0.2V59.5 M98.2,59.5h0.2v-0.9h-0.2V59.5
	 M103.6,59.5h0.2v-0.9h-0.2V59.5 M111.1,59.5h0.2v-0.9h-0.2V59.5h-7.4 M103.8,58.6h6.6 M103.6,59.5h-5.2 M98.5,58.6h5.1 M98.2,59.5
	H93 M92.9,58.6H98 M92.8,59.5h-5.2 M87.5,58.6h5.2 M87.3,59.5h-5.2 M82.1,58.6h5.2 M81.9,59.5h-5.2 M76.7,58.6h5.2 M76.5,59.5h-5.2
	 M71.3,58.6h5.2 M71.1,59.5h-5.2 M65.9,58.6h5.2 M65.7,59.5h-5.2 M60.4,58.6h5.2 M60.3,59.5H55 M55,58.6h5.2 M54.9,59.5h-5.2
	 M49.6,58.6h5.2 M49.5,59.5h-5.2 M44.2,58.6h5.2 M44,59.5h-5.2 M38.8,58.6H44 M38.6,59.5h-5.2 M33.5,58.6h5.1 M33.2,59.5H28
	 M28,58.6h5.1 M27.8,59.5h-5.2 M22.6,58.6h5.2 M22.4,59.5h-5.2 M17.1,58.6h5.2 M17,59.5h-5.2 M11.7,58.6H17 M11.6,59.5H6.3
	 M6.3,58.6h5.2 M6.1,59.5h-6 M1.8,58.6h4.3 M34.8,24.9H35v-0.2h-0.2V24.9h-3.3 M34.8,24.7h-3.3 M31.3,24.9h0.2v-0.2h-0.2V24.9
	 M26.3,24.9h0.2v-0.2h-0.2V24.9H23 M26.3,24.7H23 M22.8,24.9H23v-0.2h-0.2V24.9 M31.3,25h0.2v-0.2h-0.2V25h-4.9 M31.3,24.9h-4.9
	 M26.3,25h0.2v-0.2h-0.2V25 M12.9,1.9h2.5 M15.5,1.8V0.9 M15.6,0.9h-0.1 M15.4,1.8h0.1 M15.4,2V1.8 M15.5,2h-0.1 M15.5,2.1V1.8
	 M15.6,2.1L15.6,2.1 M12.8,1.8V0.9 M12.9,2V1.8 M12.7,2.1V1.8h0.1 M12.7,2h0.1 M12.7,0.9h0.1 M12.7,2.1L12.7,2.1 M33.9,1.9h-7.1
	 M26.7,1.8V0.9 M26.6,0.9h0.1 M26.8,1.8h-0.1 M26.8,2V1.8 M26.6,2h0.1 M26.6,2.1V1.8 M26.6,2.1L26.6,2.1 M34,1.8V0.9 M33.9,2V1.8
	 M34.1,2.1V1.8h-0.2 M34.1,2h-0.2 M34.1,0.9L34.1,0.9 M34.1,2.1L34.1,2.1"/>
<path class="st3" d="M64.5,23H48.3l0,0H64.5L64.5,23 M76.5,23h-0.2l0,0H76.5L76.5,23 M76.6,17.5v5.4l0,0V17.5L76.6,17.5 M79.9,29.6
	h10.8l0,0H79.9L79.9,29.6 M72.6,29.6h6.6l0,0H72.6L72.6,29.6 M65.2,29.6h6.6l0,0H65.2L65.2,29.6 M57.9,29.6h6.6l0,0H57.9L57.9,29.6
	 M90.8,39.2h-8.2l0,0H90.8L90.8,39.2 M110.2,43.5h-8.9l0,0H110.2L110.2,43.5 M98.2,49.5v-5.9l0,0V49.5L98.2,49.5 M98.2,22.9v-5.4
	l0,0V22.9L98.2,22.9 M110.2,22.9h-8.9l0,0H110.2L110.2,22.9 M44.5,49.3v0.8l0,0V49.3L44.5,49.3 M17.3,27v4.6l0,0V27L17.3,27
	 M44.5,35.4v6.2l0,0V35.4L44.5,35.4 M44.5,45v3.6l0,0V45L44.5,45 M44.5,53v2.2l0,0V53L44.5,53 M45.5,23h-0.7l0,0H45.5L45.5,23
	 M73.5,23h-6.4l0,0H73.5L73.5,23 M17.3,34.4v1.7l0,0V34.4L17.3,34.4 M69.2,39.2h-4l0,0H69.2L69.2,39.2 M76.6,39.2h-4l0,0H76.6
	L76.6,39.2 M98.5,22.9h-0.3V23L98.5,22.9L98.5,22.9 M98.5,43.5h-0.2l0,0H98.5L98.5,43.5 M60.5,39.3h4l0,0H60.5L60.5,39.3 M111.1,0
	h-7.4v0.1L111.1,0L111.1,0 M103.6,0h-5.2v0.1L103.6,0L103.6,0 M98.2,0H93v0.1L98.2,0L98.2,0 M92.8,0h-5.2v0.1L92.8,0L92.8,0 M87.3,0
	h-5.2v0.1L87.3,0L87.3,0 M81.9,0h-5.2v0.1L81.9,0L81.9,0 M76.5,0h-5.2v0.1L76.5,0L76.5,0 M71.1,0h-5.2v0.1L71.1,0L71.1,0 M65.7,0
	h-5.2v0.1L65.7,0L65.7,0 M60.3,0H55v0.1L60.3,0L60.3,0 M54.9,0h-5.2v0.1L54.9,0L54.9,0 M49.5,0h-5.3v0.1L49.5,0L49.5,0 M111.2,58.5
	v-8h-0.1L111.2,58.5L111.2,58.5 M111.2,50.4v-6.7h-0.1L111.2,50.4L111.2,50.4 M111.2,43.5v-6.7h-0.1L111.2,43.5L111.2,43.5
	 M111.2,36.6v-6.7h-0.1L111.2,36.6L111.2,36.6 M111.2,29.7V23h-0.1L111.2,29.7L111.2,29.7 M111.2,22.8v-6.7h-0.1L111.2,22.8
	L111.2,22.8 M111.2,15.9V9.2h-0.1L111.2,15.9L111.2,15.9 M111.2,9V1h-0.1L111.2,9L111.2,9 M0.2,59.5h6v-0.1L0.2,59.5L0.2,59.5
	 M6.3,59.5h5.2v-0.1L6.3,59.5L6.3,59.5 M11.7,59.5H17v-0.1L11.7,59.5L11.7,59.5 M17.1,59.5h5.2v-0.1L17.1,59.5L17.1,59.5 M22.6,59.5
	h5.2v-0.1L22.6,59.5L22.6,59.5 M28,59.5h5.2v-0.1L28,59.5L28,59.5 M33.4,59.5h5.2v-0.1L33.4,59.5L33.4,59.5 M38.8,59.5H44v-0.1
	L38.8,59.5L38.8,59.5 M44.2,59.5h5.2v-0.1L44.2,59.5L44.2,59.5 M49.6,59.5h5.2v-0.1L49.6,59.5L49.6,59.5 M55,59.5h5.2v-0.1L55,59.5
	L55,59.5 M60.4,59.5h5.2v-0.1L60.4,59.5L60.4,59.5 M65.9,59.5h5.2v-0.1L65.9,59.5L65.9,59.5 M71.3,59.5h5.2v-0.1L71.3,59.5
	L71.3,59.5 M76.7,59.5h5.2v-0.1L76.7,59.5L76.7,59.5 M82.1,59.5h5.2v-0.1L82.1,59.5L82.1,59.5 M87.5,59.5h5.2v-0.1L87.5,59.5
	L87.5,59.5 M92.9,59.5h5.2v-0.1L92.9,59.5L92.9,59.5 M98.3,59.5h5.2v-0.1L98.3,59.5L98.3,59.5 M103.8,59.5h7.4v-0.1L103.8,59.5
	L103.8,59.5 M31.5,24.8h3.3l0,0H31.5L31.5,24.8 M23,24.8h3.3l0,0H23L23,24.8 M26.4,25h4.9l0,0H26.4L26.4,25"/>
<path class="st4" d="M30.8,22.2l-1.9,1.9L27,22.2H30.8 M10.8,18.9c-1-0.8-2.5-0.5-3.3,0.5c-0.8,1-0.5,2.5,0.5,3.3
	c1,0.7,2.5,0.5,3.3-0.5C12.1,21.1,11.9,19.6,10.8,18.9z M9.5,18.6c0.2,0,0.4,0.2,0.4,0.4c0,0.2-0.2,0.4-0.4,0.4
	c-0.2,0-0.4-0.2-0.4-0.4C9.1,18.7,9.3,18.6,9.5,18.6z M10.3,20.9c0,0.2-0.3,0.2-0.3,0v-1.1H9.9v2.9c0,0.1-0.1,0.2-0.2,0.2
	s-0.2-0.1-0.2-0.2v-1.7H9.5v1.7c0,0.1-0.1,0.2-0.2,0.2c-0.1,0-0.2-0.1-0.2-0.2l0-2.9H9v1.1c0,0.2-0.3,0.2-0.3,0v-1.1
	c0-0.3,0.2-0.5,0.4-0.5h0.8c0.3,0,0.4,0.2,0.4,0.5V20.9z M9.5,8c-1.3,0-2.3,1-2.3,2.3s1,2.3,2.3,2.3s2.3-1,2.3-2.3S10.8,8,9.5,8z
	 M9.5,8.2c0.2,0,0.4,0.2,0.4,0.4c0,0.2-0.2,0.4-0.4,0.4c-0.2,0-0.4-0.2-0.4-0.4C9.2,8.3,9.3,8.2,9.5,8.2z M10.2,10.4L10,9.4H9.9
	l0.5,1.6H9.9v1.3c0,0.2-0.3,0.2-0.3,0v-1.3H9.5v1.3c0,0.2-0.3,0.2-0.3,0v-1.3H8.7l0.5-1.6H9.1l-0.3,0.9c-0.1,0.2-0.3,0.1-0.3-0.1
	l0.3-1c0-0.1,0.1-0.3,0.4-0.3h0.6v0c0.2,0,0.4,0.2,0.4,0.3l0.3,1C10.6,10.5,10.3,10.6,10.2,10.4z M9.6,11.1H9.5 M12.9,30v0.4
	c0,0.1,0,0.2,0,0.3c0.2-0.1,0.5-0.3,0.5-0.4c0-0.1,0-0.1-0.1-0.1C13.1,30,12.9,30,12.9,30z M12,28C12,28,12,28.1,12,28
	c0,0.2,0,0.2,0,0.3c0,0.1,0.1,0.1,0.1,0.2c0.1,0.3-0.2,0.5-0.3,0.6c0,0,0,0-0.1,0c0,0-0.1,0-0.1-0.1c0-0.1,0-0.1,0.1-0.2
	c0,0,0.3-0.1,0.2-0.3c0-0.1-0.1-0.1-0.1-0.2c-0.1-0.1-0.1-0.2-0.1-0.3c0,0,0-0.1,0-0.1c-0.1,0-0.2,0-0.3,0c-0.1,0-0.1,0-0.2,0
	c0.1,0.1,0.2,0.3,0.2,0.4c0,0.1-0.1,0.2-0.2,0.3c-0.1,0.1-0.2,0.2-0.2,0.3c0,0.2,0.2,0.3,0.2,0.3c0.1,0,0.1,0.1,0.1,0.2
	c0,0-0.1,0.1-0.1,0.1c0,0,0,0,0,0c0,0-0.4-0.2-0.4-0.5c0-0.3,0.2-0.4,0.3-0.5c0.1,0,0.1-0.1,0.2-0.1c0-0.1-0.1-0.2-0.2-0.3
	c0,0,0,0,0,0c-1,0.2-1.8,1.2-1.8,2.3c0,1.3,1,2.3,2.3,2.3s2.3-1,2.3-2.3C13.9,29.2,13.1,28.2,12,28z M12.1,31.9h-1.4
	c-0.1,0-0.1-0.1-0.1-0.1c0-0.1,0.1-0.1,0.1-0.1h1.4c0.1,0,0.1,0.1,0.1,0.1C12.3,31.9,12.2,31.9,12.1,31.9z M12.8,31
	c-0.2,0.6-0.8,0.6-0.8,0.6l-1.3,0c0,0,0,0,0,0c0,0-0.2,0-0.4-0.2c-0.2-0.2-0.3-0.5-0.3-0.9v-0.7c0-0.1,0.1-0.1,0.1-0.1h2.6
	c0.1,0,0.1,0.1,0.1,0.1v0c0.1,0,0.4,0,0.5,0.2c0.1,0.1,0.1,0.2,0.1,0.3C13.6,30.6,13.1,30.8,12.8,31z M30.1,12.3H30v-2h0.1V12.3z
	 M31.4,9.1c-1-0.8-2.5-0.5-3.3,0.5c-0.8,1-0.5,2.5,0.5,3.3c1,0.7,2.5,0.5,3.3-0.5C32.7,11.3,32.4,9.8,31.4,9.1z M30.1,9.2
	C30.1,9.2,30.1,9.2,30.1,9.2l0.8,0c0,0,0.1,0,0.1,0c0,0,0,0.1,0,0.1l-0.4,0.4c0,0,0,0,0,0c0,0,0,0,0,0L30.1,9.2
	C30.1,9.3,30.1,9.3,30.1,9.2z M29.1,9.6l0.4-0.4c0,0,0,0,0,0c0,0,0,0,0,0l0.4,0.4c0,0,0,0,0,0.1c0,0,0,0-0.1,0h-0.7
	C29.1,9.7,29.1,9.7,29.1,9.6C29.1,9.6,29.1,9.6,29.1,9.6z M31.2,10.2v2.1v0.1h-0.1H29h-0.1v-0.1v-2.1v-0.1H29h2.1h0.1V10.2z
	 M52.3,23h-0.1"/>
<path id="seat-8329d049-f7f4-482c-8751-b2255ace9b3c" class="seat" d="M80.5,48.1L80.5,48.1L80.5,48.1L80.5,48.1L80.5,48.1l-3.3,0.1
	l0,0l0,0l0,0l0,0v-4.3l0,0l0,0l0,0l0,0h3.2l0,0l0,0l0,0l0,0v1.2l0,0l0,0l0,0l0,0h0.9l0,0l0,0l0,0l0,0v1.2l0,0l0,0l0,0l0,0h-0.9l0,0
	l0,0l0,0l0,0"/>
<path id="seat-354cceb4-06cc-4d6d-a380-0fe22f1d9702" class="seat" d="M83.7,5.9L83.7,5.9L83.7,5.9L83.7,5.9L83.7,5.9L87,5.8l0,0l0,0
	l0,0l0,0v4.3l0,0l0,0l0,0l0,0h-3.2l0,0l0,0l0,0l0,0V8.9l0,0l0,0l0,0l0,0h-0.9l0,0l0,0l0,0l0,0V7.5l0,0l0,0l0,0l0,0h0.9l0,0l0,0l0,0
	l0,0"/>
<path id="seat-f86b8c32-e2a9-4b24-83c2-f08195ff1b69" class="seat" d="M83.8,14.6L83.8,14.6L83.8,14.6l0.1-0.1l0,0H87l0,0l0,0l0,0
	l0,0v4.3l0,0l0,0l0,0l0,0h-3.2l0,0l0,0l0,0l0,0v-1.2l0,0l0,0l0,0l0,0h-0.9l0,0l0,0l0,0l0,0v-1.2l0,0l0,0l0,0l0,0h0.9l0,0l0,0l0,0
	l0,0"/>
<path id="seat-18200120-5039-4ed3-bea9-368d4f26b702" class="seat" d="M69.3,48.3L69.3,48.3L69.3,48.3L69.3,48.3L69.3,48.3L66,48.4
	l0,0l0,0l0,0l0,0v-4.3l0,0l0,0l0,0l0,0h3.2l0,0l0,0l0,0l0,0v1.2l0,0l0,0l0,0l0,0h0.9l0,0l0,0l0,0l0,0v1.2l0,0l0,0l0,0l0,0h-0.9l0,0
	l0,0l0,0l0,0"/>
<path id="seat-57ce7cec-113f-4970-a13e-6af3a316189f" class="seat" d="M62.6,50.7L62.6,50.7L62.6,50.7L62.6,50.7L62.6,50.7l3.3-0.1
	l0,0l0,0l0,0l0,0v4.3l0,0l0,0l0,0l0,0h-3.2l0,0l0,0l0,0l0,0v-1.2l0,0l0,0l0,0l0,0h-0.9l0,0l0,0l0,0l0,0v-1.2l0,0l0,0l0,0l0,0h0.9
	l0,0l0,0l0,0l0,0"/>
<path id="seat-6f7ee5fb-ddb7-4b5b-9cd1-5dacce6e47ee" class="seat" d="M73.9,44L73.9,44L73.9,44L73.9,44L73.9,44l3.3-0.1l0,0l0,0l0,0
	l0,0v4.3l0,0l0,0l0,0l0,0H74l0,0l0,0l0,0l0,0V47l0,0l0,0l0,0l0,0h-0.9l0,0l0,0l0,0l0,0v-1.2l0,0l0,0l0,0l0,0H74l0,0l0,0l0,0l0,0"/>
<path id="seat-ba6f2824-fd04-4ff6-a958-d34eab599a12" class="seat" d="M90.4,18.7L90.4,18.7L90.4,18.7l-0.1,0.1l0,0h-3.2l0,0l0,0l0,0
	l0,0v-4.3l0,0l0,0l0,0l0,0h3.2l0,0l0,0l0,0l0,0v1.2l0,0l0,0l0,0l0,0h0.9l0,0l0,0l0,0l0,0v1.2l0,0l0,0l0,0l0,0h-0.9l0,0l0,0l0,0l0,0"
	/>
<path id="seat-c2203ad7-58c2-45a7-b98f-ed5bc5b9ef64" class="seat" d="M56.1,49.2L56.1,49.2L56.1,49.2L56.1,49.2L56.1,49.2L56.1,49.2
	l-0.5,1.5l0,0l0,0l0,0l0,0l0,0l-2.2-0.4l0,0l0,0l0,0l0,0l0,0l-0.6-2.1l0,0l0,0l0,0l0,0l0,0l1.3-0.4l0,0l0,0l0,0l0,0l0,0l0.2,0.8
	L55,48l0,0l0,0l0,0l0,0l0.5,0.5l0,0l0,0l0,0l0,0L55,48.9"/>
<path id="seat-37db07fa-9b29-4e7a-bdf1-1d3be2bab840" class="seat" d="M93.9,48.1L93.9,48.1L93.9,48.1L93.9,48.1L93.9,48.1l-3.3,0.1
	l0,0l0,0l0,0l0,0v-4.3l0,0l0,0l0,0l0,0h3.2l0,0l0,0l0,0l0,0v1.2l0,0l0,0l0,0l0,0h0.9l0,0l0,0l0,0l0,0v1.2l0,0l0,0l0,0l0,0h-0.9l0,0
	l0,0l0,0l0,0"/>
<path id="seat-b80f1bcf-7f0a-47d9-9c5d-cbea3356db0b" class="seat" d="M74,50.6L74,50.6L74,50.6L74,50.6L74,50.6l3.3-0.1l0,0l0,0l0,0
	l0,0v4.3l0,0l0,0l0,0l0,0h-3.2l0,0l0,0l0,0l0,0v-1.2l0,0l0,0l0,0l0,0h-0.9l0,0l0,0l0,0l0,0v-1.2l0,0l0,0l0,0l0,0h0.9l0,0l0,0l0,0
	l0,0"/>
<path id="seat-fc3cddad-9ee1-4aa5-b359-9940cc785e89" class="seat" d="M90.4,10L90.4,10L90.4,10l-0.1,0.1l0,0h-3.2l0,0l0,0l0,0l0,0
	V5.8l0,0l0,0l0,0l0,0h3.2l0,0l0,0l0,0l0,0V7l0,0l0,0l0,0l0,0h0.9l0,0l0,0l0,0l0,0v1.2l0,0l0,0l0,0l0,0h-0.9l0,0l0,0l0,0l0,0"/>
<path id="seat-3d8f1e74-ee35-4319-9cbc-64de41f9174d" class="seat" d="M87.2,50.6L87.2,50.6L87.2,50.6L87.2,50.6L87.2,50.6l3.3-0.1
	l0,0l0,0l0,0l0,0v4.3l0,0l0,0l0,0l0,0h-3.2l0,0l0,0l0,0l0,0v-1.2l0,0l0,0l0,0l0,0h-0.9l0,0l0,0l0,0l0,0v-1.4l0,0l0,0l0,0l0,0h0.9
	l0,0l0,0l0,0l0,0"/>
<path id="seat-42069c77-8459-4e16-a524-b1d892b2bde4" class="seat" d="M87.2,44L87.2,44L87.2,44L87.2,44L87.2,44l3.3-0.1l0,0l0,0l0,0
	l0,0v4.3l0,0l0,0l0,0l0,0h-3.2l0,0l0,0l0,0l0,0V47l0,0l0,0l0,0l0,0h-0.9l0,0l0,0l0,0l0,0v-1.2l0,0l0,0l0,0l0,0h0.9l0,0l0,0l0,0l0,0"
	/>
<path id="seat-7eb64f8c-a474-4369-b912-6232f3d64703" class="seat" d="M93.9,54.7L93.9,54.7L93.9,54.7L93.9,54.7L93.9,54.7l-3.3,0.1
	l0,0l0,0l0,0l0,0v-4.3l0,0l0,0l0,0l0,0h3.2l0,0l0,0l0,0l0,0v1.2l0,0l0,0l0,0l0,0h0.9l0,0l0,0l0,0l0,0v1.2l0,0l0,0l0,0l0,0h-0.9l0,0
	l0,0l0,0l0,0"/>
<path id="seat-b1fb9d57-256c-415c-8e71-f8fe5b1ce2dc" class="seat" d="M80.6,54.7L80.6,54.7L80.6,54.7L80.6,54.7L80.6,54.7l-3.3,0.1
	l0,0l0,0l0,0l0,0v-4.3l0,0l0,0l0,0l0,0h3.2l0,0l0,0l0,0l0,0v1.2l0,0l0,0l0,0l0,0h0.9l0,0l0,0l0,0l0,0v1.2l0,0l0,0l0,0l0,0h-0.9l0,0
	l0,0l0,0l0,0"/>
<path id="seat-a17cc87c-13aa-4fd3-95d3-7f80445ea03b" class="seat" d="M54.3,53.5L54.3,53.5L54.3,53.5L54.3,53.5L54.3,53.5L54.3,53.5
	l-1.4-0.6l0,0l0,0l0,0l0,0l0,0l0.6-2.2l0,0l0,0l0,0l0,0l0,0l2.1-0.1l0,0l0,0l0,0l0,0l0,0l0.3,1.4l0,0l0,0l0,0l0,0l0,0l-0.8,0.1
	l0.5,0.7l0,0l0,0l0,0l0,0L55,53.2l0,0l0,0l0,0l0,0l-0.4-0.5"/>
<path id="seat-07dd1005-348f-4e6f-92bd-975d467c1f05" class="seat" d="M106.5,32.7L106.5,32.7L106.5,32.7L106.5,32.7L106.5,32.7
	L106.5,32.7l-0.4,1.5l0,0l0,0l0,0l0,0l0,0l-2.2-0.4l0,0l0,0l0,0l0,0l0,0l-0.3-2.1l0,0l0,0l0,0l0,0l0,0l1.4-0.4l0,0l0,0l0,0l0,0l0,0
	l0.1,0.8l0.7-0.5l0,0l0,0l0,0l0,0l0.4,0.5l0,0l0,0l0,0l0,0l-0.5,0.4"/>
<path id="seat-c93bb581-dc72-4c4d-9523-e810af9e5abe" class="seat" d="M62.6,44.2L62.6,44.2L62.6,44.2L62.6,44.2L62.6,44.2l3.3-0.1
	l0,0l0,0l0,0l0,0v4.3l0,0l0,0l0,0l0,0h-3.2l0,0l0,0l0,0l0,0v-1.2l0,0l0,0l0,0l0,0h-0.9l0,0l0,0l0,0l0,0V46l0,0l0,0l0,0l0,0h0.9l0,0
	l0,0l0,0l0,0"/>
<path id="seat-16d02ce3-c177-416e-84e2-53acab1bd7a2" class="seat" d="M69.2,54.8L69.2,54.8L69.2,54.8L69.2,54.8L69.2,54.8l-3.3,0.1
	l0,0l0,0l0,0l0,0v-4.3l0,0l0,0l0,0l0,0h3.2l0,0l0,0l0,0l0,0v1.2l0,0l0,0l0,0l0,0H70l0,0l0,0l0,0l0,0V53l0,0l0,0l0,0l0,0h-0.9l0,0
	l0,0l0,0l0,0"/>
<path id="seat-089b6f6c-29e6-4341-8894-14af71658b4a" class="seat" d="M51.5,47.6L51.5,47.6L51.5,47.6L51.5,47.6L51.5,47.6L51.5,47.6
	l1.4,0.5l0,0l0,0l0,0l0,0l0,0l-0.5,2.2l0,0l0,0l0,0l0,0l0,0l-2.1,0.2l0,0l0,0l0,0l0,0l0,0l-0.5-1.3l0,0l0,0l0,0l0,0l0,0l0.8-0.1
	l-0.5-0.7l0,0l0,0l0,0l0,0l0.6-0.4l0,0l0,0l0,0l0,0l0.4,0.5"/>
<path id="seat-aea56c4c-43e8-4eb2-9df5-55a41be3091e" class="seat" d="M102.3,31.2L102.3,31.2L102.3,31.2L102.3,31.2l0.1-0.1l0,0
	l1.3,0.6l0,0l0,0l0,0l0,0l0,0l-0.5,2.2l0,0l0,0l0,0l0,0l0,0l-2.1,0.2l0,0l0,0l0,0l0,0l0,0l-0.4-1.4l0,0l0,0l0,0l0,0l0,0l0.8-0.1
	l-0.5-0.7l0,0l0,0l0,0l0,0l0.6-0.4l0,0l0,0l0,0l0,0L102,32"/>
<path id="seat-d401420e-45b2-4866-8ac0-f620e4fcca46" class="seat" d="M100.6,35.6L100.6,35.6L100.6,35.6L100.6,35.6L100.6,35.6
	L100.6,35.6l0.5-1.5l0,0l0,0l0,0l0,0l0,0l2.2,0.4l0,0l0,0l0,0l0,0l0,0l0.2,2.1l0,0l0,0l0,0l0,0l0,0l-1.4,0.4l0,0l0,0l0,0l0,0l0,0
	l-0.1-0.8l-0.7,0.5l0,0l0,0l0,0l0,0l-0.4-0.6l0,0l0,0l0,0l0,0l0.5-0.4"/>
<path id="seat-a012ea35-84d5-45b2-8972-7d8d2fdc975e" class="seat" d="M104.9,37.1L104.9,37.1L104.9,37.1L104.9,37.1L104.9,37.1
	L104.9,37.1l-1.4-0.5l0,0l0,0l0,0l0,0l0,0l0.5-2.2l0,0l0,0l0,0l0,0l0,0l2.1-0.2l0,0l0,0l0,0l0,0l0,0l0.4,1.4l0,0l0,0l0,0l0,0l0,0
	l-0.8,0.1l0.5,0.7l0,0l0,0l0,0l0,0l-0.6,0.4l0,0l0,0l0,0l0,0l-0.4-0.5"/>
<path id="seat-946b4208-4dcc-478b-99c7-d300705ffbba" class="seat" d="M49.9,52L49.9,52L49.9,52L49.9,52L49.9,52L49.9,52l0.4-1.5l0,0
	l0,0l0,0l0,0l0,0l2.2,0.3l0,0l0,0l0,0l0,0l0,0l0.4,2.1l0,0l0,0l0,0l0,0l0,0l-1.3,0.5l0,0l0,0l0,0l0,0l0,0l-0.2-0.8l-0.6,0.5l0,0l0,0
	l0,0l0,0l-0.5-0.5l0,0l0,0l0,0l0,0l0.5-0.4"/>
</svg>
