<svg xmlns="http://www.w3.org/2000/svg" id="Capa_1" data-name="Capa 1" viewBox="0 0 831 661"><defs><style>.cls-1{fill:#ccc;stroke:#666;}.cls-2{fill:#eee;}.cls-3{fill:#e6e6e6;}.cls-4,.cls-7{isolation:isolate;font-family:ArialMT, Arial;}.cls-4{font-size:19px;}.cls-5{fill:#fff;stroke:#000;stroke-miterlimit:10;}.cls-6{fill:#7ea6e0;stroke:#333;}.cls-7{font-size:12px;}.cls-8{fill:#999;}.cls-9{fill:#b3b3b3;}.cls-10{fill:#f8cecc;stroke:#b85450;}.cls-11{font-size:48px;font-family:MyriadPro-Regular, Myriad Pro;}</style></defs><title>Oficinas Dom1 version 3</title><rect class="cls-1" x="0.5" y="0.5" width="830" height="660"/><rect class="cls-2" x="1.5" y="353.5" width="399" height="301.5"/><rect class="cls-3" x="428.5" y="548.5" width="188" height="43" rx="6.45"/><text class="cls-4" transform="translate(488.73 575)">Entrada</text><path class="cls-5" d="M121.75,105.5l-10,29.84h-37l-10-29.84Z"/><path class="cls-5" d="M118.66,125.49q0,28.72-24.8,28.72t-24.8-28.72Z"/><rect class="cls-6 seat" x="27" y="22" width="138.5" height="69.5" id="seat-4"/><rect class="cls-2" x="595.5" y="179.5" width="228" height="113" rx="16.95"/><rect class="cls-2" x="608.5" y="185.5" width="199" height="97" rx="0.97"/><text class="cls-7" transform="translate(656.64 237)">Cuarto de Servidor</text><rect class="cls-8" x="496" y="340" width="33" height="28" rx="4.2"/><rect class="cls-9" x="499.91" y="344.1" width="24.45" height="15.26" rx="2.29"/><path class="cls-3" d="M505,356.81,511.89,346l6.92,10.79Z"/><rect class="cls-8" x="460" y="340" width="33" height="28" rx="4.2"/><rect class="cls-9" x="464.9" y="349.1" width="24.45" height="15.26" rx="2.29"/><path class="cls-3" d="M483.81,351l-6.92,10.79L470,351Z"/><rect class="cls-6 seat" x="204" y="22" width="138.5" height="69.5" id="seat-5"/><rect class="cls-6 seat" x="22" y="267" width="138.5" height="69.5" id="seat-3"/><path class="cls-5" d="M303.5,103.5l-10,29.84h-37l-10-29.84Z"/><path class="cls-5" d="M300.41,123.49q0,28.72-24.8,28.72t-24.8-28.72Z"/><path class="cls-5" d="M63.5,252.34l10-29.84h37l10,29.84Z"/><path class="cls-5" d="M67.06,232.66q0-28.71,24.8-28.71t24.8,28.71Z"/><rect class="cls-6 seat" x="201" y="265" width="138.5" height="69.5" id="seat-2"/><path class="cls-5" d="M243.5,253.34l10-29.84h37l10,29.84Z"/><path class="cls-5" d="M247.06,233.66q0-28.71,24.8-28.71t24.8,28.71Z"/><rect class="cls-10 seat" x="633.5" y="361.5" width="138.5" height="69.5" id="seat-1"/><path class="cls-5" d="M672.5,352.34l10-29.84h37l10,29.84Z"/><path class="cls-5" d="M676.06,332.66q0-28.71,24.8-28.71t24.8,28.71Z"/><rect class="cls-6 seat" x="381" y="22" width="138.5" height="69.5" id="seat-6"/><path class="cls-5" d="M480.5,101.5l-10,29.84h-37l-10-29.84Z"/><path class="cls-5" d="M477.41,121.49q0,28.72-24.8,28.72t-24.8-28.72Z"/><rect class="cls-6 seat" x="742.5" y="20.5" width="69.5" height="138.5" id="seat-7"/><path class="cls-5" d="M728.92,118.92l-29.84-10v-37l29.84-10Z"/><path class="cls-5" d="M709.22,116.1q-28.71,0-28.71-24.8t28.71-24.8Z"/><text class="cls-11" transform="translate(78 70.5)">4</text><text class="cls-11" transform="translate(256.81 70.5)">5</text><text class="cls-11" transform="translate(436 70.5)">6</text><text class="cls-11" transform="translate(765 101.5)">7</text><text class="cls-11" transform="translate(75 318.3)">3</text><text class="cls-11" transform="translate(256.81 318.3)">2</text><text class="cls-11" transform="translate(690 409.5)">1</text></svg>