<?xml version="1.0" encoding="utf-8"?>
<!-- Generator: Adobe Illustrator 23.0.3, SVG Export Plug-In . SVG Version: 6.00 Build 0)  -->
<svg version="1.1" id="Layer_1" xmlns="http://www.w3.org/2000/svg" xmlns:xlink="http://www.w3.org/1999/xlink" x="0px" y="0px"
     viewBox="0 0 779.6 317.6" style="enable-background:new 0 0 779.6 317.6;" xml:space="preserve">
<style type="text/css">
	.st0{fill:none;stroke:#989898;stroke-width:0.72;stroke-linecap:round;stroke-linejoin:round;}
	.st1{fill:none;stroke:#989898;stroke-width:0.24;stroke-linecap:round;stroke-linejoin:round;}
	.st2{fill:#989898;}
	.st3{fill:none;stroke:#989898;stroke-width:3.000000e-02;stroke-linecap:round;stroke-miterlimit:10;}
	.st4{fill:none;stroke:#989898;stroke-width:0.48;stroke-linecap:round;stroke-linejoin:round;}
</style>
      <title>C1_27DEZ21</title>
      <g id="Capa_1">
	<path class="st0" d="M778.9,4.8h-54.5"/>
            <path class="st0" d="M722.8,4.8h-38.9"/>
            <path class="st0" d="M682.3,4.8h-38.3"/>
            <path class="st0" d="M642.5,4.8h-38.9"/>
            <path class="st0" d="M601.9,4.8h-38.2"/>
            <path class="st0" d="M562.1,4.8h-38.9"/>
            <path class="st0" d="M521.6,4.8h-38.3"/>
            <path class="st0" d="M481.8,4.8h-19"/>
            <path class="st0" d="M461.3,4.8h-18.4"/>
            <path class="st0" d="M441.4,4.8h-38.3"/>
            <path class="st0" d="M401.5,4.8h-38.3"/>
            <path class="st0" d="M361.7,4.8h-38.9"/>
            <path class="st0" d="M321.1,4.8h-38.5"/>
            <path class="st0" d="M280.9,4.8h-38.5"/>
            <path class="st0" d="M240.8,4.8H202"/>
            <path class="st0" d="M200.3,4.8h-38.2"/>
            <path class="st0" d="M160.4,4.8h-38.9"/>
            <path class="st0" d="M120,4.8H81.7"/>
            <path class="st0" d="M80.2,4.8H41.6"/>
            <path class="st0" d="M40,4.8H1.1"/>
            <path class="st0" d="M651.8,5.2h-3"/>
            <path class="st0" d="M739.8,5.2v27.1"/>
            <path class="st0" d="M485.2,5.2h-3.1v36"/>
            <path class="st0" d="M524.9,11.3V5.2h-3.1"/>
            <path class="st0" d="M243.5,5.2h-3v37.9h42.7V5.2h-3"/>
            <path class="st0" d="M2.9,40.8h39.4V5.2h-3"/>
            <path class="st0" d="M776.6,0.4h-53v0.4h53V0.4"/>
            <path class="st0" d="M0.4,0.7V0.4"/>
            <path class="st1" d="M1.1,0.7H0.4"/>
            <path class="st1" d="M0.4,5.2h0.7V0.7"/>
            <path class="st0" d="M40.8,0.4H0.4v0.4h40.4V0.4"/>
            <path class="st1" d="M41.6,0.7H40v4.4h1.7L41.6,0.7"/>
            <path class="st0" d="M81,0.4H40.8v0.4H81V0.4"/>
            <path class="st1" d="M81.7,0.7h-1.6v4.4h1.6V0.7"/>
            <path class="st0" d="M120.8,0.4H81v0.4h39.8V0.4"/>
            <path class="st1" d="M121.6,0.7H120v4.4h1.6V0.7"/>
            <path class="st0" d="M161.3,0.4h-40.4v0.4h40.4V0.4"/>
            <path class="st1" d="M162.1,0.7h-1.7v4.4h1.7V0.7"/>
            <path class="st0" d="M201.1,0.4h-39.8v0.4h39.8V0.4"/>
            <path class="st1" d="M202,0.7h-1.7v4.4h1.7V0.7"/>
            <path class="st0" d="M241.6,0.4h-40.4v0.4h40.4V0.4"/>
            <path class="st1" d="M242.4,0.7h-1.6v4.4h1.6V0.7"/>
            <path class="st0" d="M322,0.4h-40.2v0.4H322V0.4"/>
            <path class="st1" d="M322.8,0.7h-1.7v4.4h1.7V0.7"/>
            <path class="st0" d="M362.4,0.4H322v0.4h40.4V0.4"/>
            <path class="st1" d="M363.2,0.7h-1.6v4.4h1.6V0.7"/>
            <path class="st0" d="M402.2,0.4h-39.8v0.4h39.8V0.4"/>
            <path class="st1" d="M403.1,0.7h-1.6v4.4h1.6V0.7"/>
            <path class="st0" d="M442.1,0.4h-39.8v0.4h39.8V0.4"/>
            <path class="st1" d="M442.9,0.7h-1.6v4.4h1.6V0.7"/>
            <path class="st0" d="M462,0.4h-19.9v0.4H462V0.4"/>
            <path class="st1" d="M462.8,0.7h-1.6v4.4h1.6V0.7"/>
            <path class="st0" d="M482.6,0.4H462v0.4h20.6V0.4"/>
            <path class="st1" d="M483.4,0.7h-1.6v4.4h1.6V0.7"/>
            <path class="st0" d="M522.5,0.4h-39.8v0.4h39.8L522.5,0.4"/>
            <path class="st1" d="M523.2,0.7h-1.6v4.4h1.6V0.7"/>
            <path class="st0" d="M562.9,0.4h-40.4v0.4h40.4V0.4"/>
            <path class="st1" d="M563.8,0.7h-1.7v4.4h1.7L563.8,0.7"/>
            <path class="st0" d="M602.8,0.4h-39.8v0.4h39.8V0.4"/>
            <path class="st1" d="M603.6,0.7h-1.7v4.4h1.7V0.7"/>
            <path class="st0" d="M643.2,0.4h-40.4v0.4h40.4V0.4"/>
            <path class="st1" d="M644.1,0.7h-1.6v4.4h1.6V0.7"/>
            <path class="st0" d="M683.1,0.4h-39.9v0.4h39.9V0.4"/>
            <path class="st1" d="M683.9,0.7h-1.6v4.4h1.6V0.7"/>
            <path class="st0" d="M723.6,0.4h-40.5v0.4h40.6L723.6,0.4"/>
            <path class="st1" d="M724.4,0.7h-1.7v4.4h1.7V0.7"/>
            <path class="st0" d="M779.3,28V2.9h-0.4V28H779.3"/>
            <path class="st1" d="M774.5,28.8h4.4v-1.7h-4.4"/>
            <path class="st0" d="M779.3,67.8V28h-0.4v39.8H779.3"/>
            <path class="st1" d="M778.9,68.6V67h-4.4v1.7L778.9,68.6"/>
            <path class="st0" d="M779.3,107.6V67.8h-0.4v39.8H779.3"/>
            <path class="st1" d="M778.9,108.5v-1.7h-4.4v1.7H778.9"/>
            <path class="st0" d="M779.3,148.1v-40.4h-0.4v40.4H779.3"/>
            <path class="st1" d="M778.9,148.9v-1.6h-4.4v1.6H778.9"/>
            <path class="st0" d="M779.3,188.4v-40.3h-0.4v40.3H779.3"/>
            <path class="st1" d="M778.9,189.2v-1.6h-4.4v1.6H778.9"/>
            <path class="st0" d="M779.3,229v-40.6h-0.4V229H779.3"/>
            <path class="st1" d="M778.9,229.7v-1.6h-4.4v1.6H778.9"/>
            <path class="st0" d="M779.3,269.4V229h-0.4v40.4L779.3,269.4"/>
            <path class="st1" d="M778.9,270.2v-1.7h-4.4v1.7H778.9"/>
            <path class="st0" d="M779.3,309.2v-39.8h-0.4v39.8H779.3"/>
            <path class="st1" d="M778.9,310.1v-1.7h-4.4v1.7H778.9"/>
            <path class="st0" d="M779.3,309.2h-0.4"/>
            <path class="st0" d="M1.1,5.2h38.2"/>
            <path class="st0" d="M42.2,5.2h37.9"/>
            <path class="st0" d="M81.7,5.2h37.7"/>
            <path class="st0" d="M122.4,5.2h38"/>
            <path class="st0" d="M162.1,5.2h38.2"/>
            <path class="st0" d="M202,5.2h38.5"/>
            <path class="st0" d="M243.5,5.2h36.7"/>
            <path class="st0" d="M283.2,5.2h37.9"/>
            <path class="st0" d="M322.8,5.2h38.9"/>
            <path class="st0" d="M363.2,5.2h38.3"/>
            <path class="st0" d="M403.1,5.2h38.3"/>
            <path class="st0" d="M442.9,5.2h18.4"/>
            <path class="st0" d="M462.8,5.2h19"/>
            <path class="st0" d="M485.2,5.2h36.5"/>
            <path class="st0" d="M524.9,5.2h37.2"/>
            <path class="st0" d="M563.8,5.2h38.2"/>
            <path class="st0" d="M603.6,5.2h38.9"/>
            <path class="st0" d="M644.1,5.2h4.8"/>
            <path class="st0" d="M651.8,5.2h30.5"/>
            <path class="st0" d="M683.9,5.2h38.9"/>
            <path class="st0" d="M724.4,5.2h15.4"/>
            <path class="st0" d="M648.8,11.3H525.2"/>
            <path class="st0" d="M482.1,11.3H283.2"/>
            <path class="st0" d="M240.5,11.3H122.8"/>
            <path class="st0" d="M119.1,11.3H42.2"/>
            <path class="st0" d="M281.8,0.4h-40.2v0.4h40.2V0.4"/>
            <path class="st1" d="M282.6,0.7h-1.7v4.4h1.7V0.7"/>
            <path class="st0" d="M18.4,152h29.2"/>
            <path class="st0" d="M48.2,152h1.8"/>
            <path class="st0" d="M768.4,146.4V32.3"/>
            <path class="st0" d="M774.5,27.1V67"/>
            <path class="st0" d="M774.5,68.6v38.2"/>
            <path class="st0" d="M774.5,108.5v38.9"/>
            <path class="st0" d="M774.5,148.9v38.8"/>
            <path class="st0" d="M774.5,189.2v38.9"/>
            <path class="st0" d="M774.5,229.7v38.9"/>
            <path class="st0" d="M774.5,270.2v38.2"/>
            <path class="st0" d="M774.5,310.1v7.2"/>
            <path class="st0" d="M18.4,152.3v-3.7"/>
            <path class="st0" d="M50.1,148.6v3.4h28.7"/>
            <path class="st0" d="M122.8,5.2h-3.4v143.4"/>
            <path class="st2" d="M80.1,152.3h-0.2l0.2,0.2V152.3z M79.8,152.3l0.2,0.2h-0.2V152.3z"/>
            <path class="st3" d="M80.1,152.3h-0.2l0.2,0.2V152.3 M79.8,152.3l0.2,0.2h-0.2V152.3"/>
            <path class="st2" d="M17.2,152.3h-0.2l0.2,0.2V152.3z M16.9,152.3l0.2,0.2h-0.2V152.3z"/>
            <path class="st3" d="M17.2,152.3h-0.2l0.2,0.2V152.3 M16.9,152.3l0.2,0.2h-0.2V152.3"/>
            <path class="st2" d="M80.1,152.5h-1.5l1.4,0.1L80.1,152.5z M78.6,152.5l1.4,0.1h-1.5L78.6,152.5z"/>
            <path class="st3" d="M80.1,152.5h-1.5l1.4,0.1L80.1,152.5 M78.6,152.5l1.4,0.1h-1.4V152.5"/>
            <path class="st2" d="M18.4,152.5h-1.4l1.4,0.1V152.5z M16.9,152.5l1.4,0.1h-1.4V152.5z"/>
            <path class="st3" d="M18.4,152.5h-1.4l1.4,0.1V152.5 M16.9,152.5l1.4,0.1h-1.4V152.5"/>
            <path class="st4" d="M78.6,152.5H44.3v-0.4h34.3V152.5"/>
            <path class="st0" d="M47.5,152.5h0.7v1.9h-0.7V152.5"/>
            <path class="st0" d="M47.5,150.1h0.7v2h-0.7V150.1"/>
            <path class="st4" d="M78.6,152.6H18.4"/>
            <path class="st4" d="M80.1,151.3v1.3h-1.5v-0.1h1.2v-1h-1.2v-0.2L80.1,151.3"/>
            <path class="st4" d="M18.4,151.3v0.2h-1.2v1h1.2v0.1h-1.4v-1.3L18.4,151.3"/>
            <path class="st0" d="M537.6,149.2h1.5"/>
            <path class="st0" d="M537.6,149.8h1.5v-3.1"/>
            <path class="st0" d="M539.5,146.6h-1.9v2.5"/>
            <path class="st0" d="M537.6,149.4v0.4"/>
            <path class="st0" d="M570.8,146.4v3.4h81"/>
            <path class="st0" d="M683.9,146.4v3.4h90.2v-3.1h-5.8"/>
            <path class="st4" d="M599.4,150.2H565v-0.4h34.4V150.2"/>
            <path class="st0" d="M568.2,150.2h0.7v2h-0.7V150.2"/>
            <path class="st0" d="M568.2,147.8h0.7v2h-0.7V147.8"/>
            <path class="st4" d="M600.8,149.2v1.2h-1.4v-0.1h1.1v-1h-1.1v-0.1L600.8,149.2"/>
            <path class="st4" d="M539.1,149.2v0.1h-1.2v1h1.2v0.1h-1.4v-1.2L539.1,149.2"/>
            <path class="st2" d="M713.9,150.1h-0.2l0.2,0.1V150.1z M713.6,150.1l0.2,0.1h-0.2V150.1z"/>
            <path class="st3" d="M713.9,150.1h-0.2l0.2,0.1V150.1 M713.6,150.1l0.2,0.1h-0.2V150.1"/>
            <path class="st2" d="M651,150.1h-0.2l0.2,0.1V150.1z M650.8,150.1l0.2,0.1h-0.2V150.1z"/>
            <path class="st3" d="M651,150.1h-0.2l0.2,0.1V150.1 M650.8,150.1l0.2,0.1h-0.2V150.1"/>
            <path class="st2" d="M713.9,150.2h-1.4l1.4,0.1V150.2z M712.4,150.2l1.4,0.1h-1.4V150.2z"/>
            <path class="st3" d="M713.9,150.2h-1.4l1.4,0.1V150.2 M712.4,150.2l1.4,0.1h-1.4V150.2"/>
            <path class="st2" d="M652.2,150.2h-1.4l1.4,0.1V150.2z M650.8,150.2l1.4,0.1h-1.4V150.2z"/>
            <path class="st3" d="M652.2,150.2h-1.4l1.4,0.1V150.2 M650.8,150.2l1.4,0.1h-1.4V150.2"/>
            <path class="st4" d="M712.4,150.2h-34.3v-0.4h34.3V150.2"/>
            <path class="st0" d="M681.4,150.2h0.7v2h-0.7L681.4,150.2"/>
            <path class="st0" d="M681.4,147.8h0.7v2h-0.7L681.4,147.8"/>
            <path class="st4" d="M713.9,149.2v1.2h-1.4v-0.1h1.2v-1h-1.2v-0.1L713.9,149.2"/>
            <path class="st4" d="M652.2,149.2v0.1H651v1h1.2v0.1h-1.4v-1.2L652.2,149.2"/>
            <path class="st0" d="M535.8,54v95.4h1.8"/>
            <path class="st0" d="M648.8,146.4V5.2"/>
            <path class="st0" d="M539.5,146.6V37.4h-14.3V11.3h-0.4"/>
            <path class="st0" d="M482.1,41.2h34.4"/>
            <path class="st0" d="M768.4,146.6v-0.2h-84.5"/>
            <path class="st0" d="M648.8,146.4h-78"/>
            <path class="st0" d="M774.5,32.3h-34.7"/>
            <path class="st0" d="M739.4,11.6h-87.6"/>
            <path class="st0" d="M648.8,11.6H525.2"/>
            <path class="st0" d="M482.1,11.6H283.2"/>
            <path class="st0" d="M240.5,11.6H122.8"/>
            <path class="st0" d="M119.1,11.6H42.2"/>
            <path class="st0" d="M651.8,11.3h88"/>
            <path class="st0" d="M739.4,11.6v-0.4"/>
            <path class="st0" d="M122.8,152.3V5.2"/>
            <path class="st0" d="M0.4,152.3h18"/>
            <path class="st0" d="M78.7,152v0.2h44"/>
            <path class="st0" d="M119.4,148.6H50.1"/>
            <path class="st0" d="M18.4,148.6H2.9V40.8"/>
            <path class="st0" d="M768,146.4V32.3"/>
            <path class="st0" d="M768,317.3V149.8"/>
            <path class="st0" d="M768.4,149.8v167.5"/>
            <path class="st0" d="M651.8,5.2v144.6"/>
            <path class="st0" d="M47.5,152H18.4"/>
            <path class="st0" d="M50.1,152h-1.8"/>
            <path class="st0" d="M58.2,152.2V152l0.2,0.1"/>
            <path class="st0" d="M77.9,152.2V152l0.1,0.1"/>
            <path class="st0" d="M516.5,41.2V54h19.3V41.2H516.5"/>
            <g id="A_POSIÇÕES_TRABALHO_3">
		<path class="st2" d="M687.4,138l2.4-0.3c0.3,1.9,1.2,2.8,2.7,2.8c0.6,0,1.3-0.2,1.8-0.6c0.4-0.4,0.7-0.9,0.6-1.4
			c0-0.3-0.1-0.6-0.2-0.9c-0.2-0.3-0.4-0.5-0.7-0.6c-0.7-0.3-1.5-0.6-2.2-0.8c-0.8-0.2-1.6-0.5-2.3-1c-0.5-0.4-0.9-0.9-1.2-1.5
			c-0.6-1.3-0.6-2.8,0.1-4.1c0.4-0.6,0.9-1.1,1.5-1.5c0.8-0.3,1.6-0.5,2.4-0.5c2.3-0.2,4.4,1.4,4.6,3.7c0,0,0,0,0,0
			c0,0.2,0,0.5,0,0.7l-2.5,0.1c0-0.6-0.3-1.2-0.7-1.7c-0.4-0.3-1-0.5-1.5-0.5c-0.5,0-1.1,0.1-1.5,0.4c-0.3,0.2-0.5,0.6-0.5,1
			c0,0.4,0.2,0.8,0.5,1c0.7,0.4,1.4,0.7,2.2,0.9c0.9,0.2,1.8,0.6,2.7,1.1c0.5,0.4,1,0.9,1.3,1.5c0.3,0.7,0.5,1.5,0.4,2.3
			c0,1.2-0.4,2.4-1.2,3.3c-1,1-2.3,1.4-3.7,1.3C689.3,143.1,687.7,141.4,687.4,138L687.4,138z M704.8,142.8h-2.3v-10.7
			c-0.8,0.9-1.8,1.7-3,2.1v-2.6c0.8-0.3,1.4-0.8,2-1.4c0.7-0.6,1.2-1.4,1.5-2.3h1.9V142.8L704.8,142.8z M712.8,142.8v-3h-5v-2.5
			l5.3-9.4h2v9.4h1.5v2.5h-1.5v3L712.8,142.8z M712.8,137.4v-5.1l-2.7,5.1L712.8,137.4z M722.2,142.8v-3h-5v-2.5l5.3-9.4h2v9.4h1.6
			v2.5h-1.5v3L722.2,142.8z M722.2,137.4v-5.1l-2.8,5.1H722.2z"/>
	</g>
            <g id="A_POSIÇÕES_TRABALHO_7">
		<path class="st2" d="M569.9,138l2.4-0.3c0.3,1.9,1.2,2.8,2.7,2.8c0.6,0,1.3-0.2,1.8-0.6c0.4-0.4,0.7-0.9,0.6-1.4
			c0-0.3-0.1-0.6-0.2-0.9c-0.2-0.3-0.4-0.5-0.7-0.6c-0.7-0.3-1.5-0.6-2.2-0.8c-0.8-0.2-1.6-0.5-2.3-1c-0.5-0.4-0.9-0.9-1.2-1.5
			c-0.6-1.3-0.6-2.8,0.1-4.1c0.4-0.6,0.9-1.1,1.5-1.5c0.8-0.3,1.6-0.5,2.4-0.5c2.3-0.2,4.4,1.4,4.6,3.7c0,0,0,0,0,0
			c0,0.2,0,0.5,0,0.7l-2.5,0.1c0-0.6-0.3-1.2-0.7-1.7c-0.4-0.3-1-0.5-1.5-0.5c-0.5,0-1.1,0.1-1.5,0.4c-0.3,0.2-0.5,0.6-0.5,1
			c0,0.4,0.2,0.8,0.5,1c0.7,0.4,1.4,0.7,2.2,0.9c0.9,0.2,1.8,0.6,2.7,1.1c0.5,0.4,1,0.9,1.3,1.5c0.3,0.7,0.5,1.5,0.4,2.3
			c0,1.2-0.4,2.4-1.2,3.3c-1,1-2.3,1.4-3.7,1.3C571.9,143.1,570.2,141.4,569.9,138L569.9,138z M587.3,142.8H585v-10.7
			c-0.8,0.9-1.8,1.7-3,2.1v-2.6c0.8-0.3,1.4-0.8,2-1.4c0.7-0.6,1.2-1.4,1.5-2.3h1.9L587.3,142.8L587.3,142.8z M595.3,142.8v-3h-5
			v-2.5l5.3-9.4h2v9.4h1.5v2.5h-1.5v3L595.3,142.8z M595.3,137.4v-5.1l-2.8,5.1H595.3z M600.1,138.9l2.3-0.3c0,0.6,0.2,1.1,0.6,1.6
			c0.5,0.6,1.4,0.7,2.1,0.2c0.1-0.1,0.2-0.2,0.3-0.3c0.4-0.5,0.5-1.2,0.5-1.8c0-0.6-0.1-1.2-0.5-1.7c-0.3-0.4-0.7-0.6-1.2-0.6
			c-0.4,0-0.7,0.1-1.1,0.2l0.3-2.3c0.5,0,1-0.1,1.4-0.5c0.4-0.4,0.6-0.9,0.5-1.4c0-0.4-0.1-0.9-0.4-1.2c-0.2-0.3-0.6-0.5-1-0.4
			c-0.4,0-0.8,0.2-1,0.5c-0.3,0.4-0.5,0.9-0.5,1.5l-2.2-0.4c0.1-1.1,0.6-2.2,1.3-3c0.7-0.6,1.5-0.9,2.4-0.9c1,0,2,0.4,2.6,1.2
			c0.6,0.7,1,1.6,1,2.6c0,0.6-0.1,1.2-0.4,1.8c-0.3,0.6-0.8,1-1.3,1.4c0.7,0.2,1.3,0.6,1.7,1.2c0.4,0.7,0.7,1.5,0.6,2.3
			c0,1.2-0.4,2.4-1.2,3.4c-0.7,0.8-1.8,1.3-2.9,1.3c-1,0-2-0.4-2.7-1.1C600.6,141.1,600.1,140,600.1,138.9L600.1,138.9z"/>
                  <path class="st0" d="M0.4,0.4h778.9v316.9H0.4V0.4"/>
                  <path class="st2" d="M49.6,138l2.4-0.3c0.3,1.9,1.2,2.8,2.7,2.8c0.6,0,1.3-0.2,1.8-0.6c0.4-0.4,0.6-0.9,0.6-1.4
			c0-0.3-0.1-0.6-0.2-0.9c-0.2-0.3-0.4-0.5-0.7-0.6c-0.7-0.3-1.5-0.6-2.2-0.8c-0.8-0.2-1.6-0.5-2.3-1c-0.5-0.4-0.9-0.9-1.2-1.5
			c-0.6-1.3-0.6-2.8,0.1-4.1c0.3-0.6,0.9-1.2,1.5-1.5c0.8-0.3,1.6-0.5,2.4-0.5c2.3-0.2,4.4,1.4,4.6,3.7c0,0,0,0,0,0
			c0,0.2,0,0.5,0,0.7l-2.5,0.1c0-0.6-0.3-1.2-0.7-1.7c-0.4-0.3-1-0.5-1.5-0.5c-0.5,0-1.1,0.1-1.5,0.4c-0.3,0.2-0.5,0.6-0.5,1
			c0,0.4,0.2,0.8,0.5,1c0.7,0.4,1.4,0.7,2.2,0.9c0.9,0.2,1.8,0.6,2.7,1.1c0.6,0.4,1,0.9,1.3,1.6c0.3,0.7,0.5,1.5,0.4,2.3
			c0,1.2-0.4,2.4-1.2,3.3c-1,1-2.3,1.4-3.7,1.3C51.6,143.1,49.9,141.4,49.6,138z M67,142.8h-2.4v-10.7c-0.8,0.9-1.8,1.7-3,2.1v-2.6
			c0.8-0.3,1.4-0.8,2-1.4c0.7-0.6,1.2-1.4,1.4-2.3h1.9L67,142.8L67,142.8z M75,142.8v-3h-4.9v-2.5l5.3-9.4h2v9.4h1.5v2.5h-1.6v3
			L75,142.8z M75,137.3v-5.1l-2.8,5.1H75z M87.8,140.2v2.6h-8.2c0.1-1,0.4-2,0.8-2.9c0.7-1.3,1.6-2.5,2.7-3.6
			c0.7-0.8,1.4-1.6,1.9-2.4c0.3-0.5,0.5-1.2,0.5-1.8c0-0.5-0.1-1-0.4-1.5c-0.3-0.3-0.7-0.5-1.1-0.5c-1,0-1.6,0.8-1.7,2.3l-2.3-0.3
			c0-1.2,0.4-2.3,1.2-3.3c0.7-0.7,1.8-1.1,2.8-1.1c1.1-0.1,2.2,0.4,2.9,1.3c0.7,0.8,1,1.8,1,2.9c0,0.6-0.1,1.2-0.3,1.8
			c-0.2,0.6-0.4,1.2-0.8,1.7c-0.5,0.8-1.1,1.5-1.7,2.2c-0.8,0.8-1.2,1.4-1.4,1.7c-0.2,0.2-0.3,0.5-0.5,0.8L87.8,140.2z"/>
	</g>
</g>
      <g id="Asientos">
	<path class="seat" d="M69.9,67.8h21.6c1.6,0,3,1.2,3,2.9c0,0,0,0,0,0v23.5c0,1.6-1.3,2.9-3,2.9c0,0,0,0,0,0H69.9
		c-1.6,0-2.9-1.3-2.9-2.9c0,0,0,0,0,0V70.7C66.9,69.1,68.2,67.8,69.9,67.8C69.9,67.8,69.9,67.8,69.9,67.8z" id="seat-38"/>
            <path class="seat" d="M136.3,68.1h21.6c1.6,0,2.9,1.3,3,2.9c0,0,0,0,0,0v23.4c0,1.6-1.3,2.9-2.9,2.9c0,0,0,0,0,0h-21.6
		c-1.6,0-2.9-1.3-2.9-2.9c0,0,0,0,0,0V71C133.3,69.4,134.7,68.1,136.3,68.1C136.3,68,136.3,68,136.3,68.1z" id="seat-39"/>
            <path class="seat" d="M286.7,49.1h21.6c1.6,0,2.9,1.3,2.9,2.9c0,0,0,0,0,0v23.4c0,1.6-1.3,2.9-2.9,2.9c0,0,0,0,0,0h-21.6
		c-1.6,0-2.9-1.3-3-2.9c0,0,0,0,0,0V52C283.7,50.4,285,49.1,286.7,49.1C286.7,49.1,286.7,49.1,286.7,49.1z" id="seat-48"/>
            <path class="seat" d="M383.2,49.2h21.6c1.6,0,2.9,1.3,3,2.9c0,0,0,0,0,0v23.5c0,1.6-1.3,2.9-2.9,2.9c0,0,0,0,0,0h-21.6
		c-1.6,0-3-1.2-3-2.9c0,0,0,0,0-0.1V52.1C380.2,50.5,381.6,49.2,383.2,49.2C383.2,49.2,383.2,49.2,383.2,49.2z" id="seat-61"/>
            <path class="seat" d="M413.3,49.2h21.6c1.6,0,2.9,1.3,3,2.9c0,0,0,0,0,0v23.5c0,1.6-1.3,2.9-2.9,2.9c0,0,0,0,0,0h-21.6
		c-1.6,0-2.9-1.3-3-2.9c0,0,0,0,0,0V52.1C410.3,50.5,411.7,49.2,413.3,49.2C413.3,49.2,413.3,49.2,413.3,49.2z" id="seat-62"/>
            <path class="seat" d="M427.2,160.8h21.6c1.6,0,2.9,1.3,2.9,2.9c0,0,0,0,0,0v23.5c0,1.6-1.3,2.9-2.9,2.9c0,0,0,0,0,0h-21.6
		c-1.6,0-2.9-1.3-3-2.9v-23.5C424.2,162.1,425.6,160.8,427.2,160.8z" id="seat-63"/>
            <path class="seat" d="M457.8,160.8h21.6c1.6,0,2.9,1.3,2.9,2.9c0,0,0,0,0,0v23.5c0,1.6-1.3,2.9-2.9,2.9c0,0,0,0,0,0h-21.6
		c-1.6,0-2.9-1.3-3-2.9v-23.5C454.8,162.1,456.1,160.8,457.8,160.8z" id="seat-66"/>
            <path class="seat" d="M457.6,195.3h21.6c1.6,0,2.9,1.3,3,2.9v23.5c0,1.6-1.3,2.9-3,2.9h-21.6c-1.6,0-2.9-1.3-3-2.9v-23.5
		C454.7,196.6,456,195.3,457.6,195.3z" id="seat-67"/>
            <path class="seat" d="M427.2,194.8h21.6c1.6,0,2.9,1.3,2.9,2.9c0,0,0,0,0,0v23.5c0,1.6-1.3,2.9-2.9,2.9c0,0,0,0,0,0h-21.6
		c-1.6,0-2.9-1.3-3-2.9v-23.5C424.2,196.1,425.6,194.8,427.2,194.8z" id="seat-64"/>
            <path class="seat" d="M427.2,230.2h21.6c1.6,0,2.9,1.3,2.9,2.9c0,0,0,0,0,0v23.5c0,1.6-1.3,2.9-2.9,2.9c0,0,0,0,0,0h-21.6
		c-1.6,0-2.9-1.3-3-2.9v-23.5C424.2,231.4,425.6,230.1,427.2,230.2z" id="seat-65"/>
            <path class="seat" d="M457.7,230h21.6c1.6,0,2.9,1.3,3,2.9c0,0,0,0,0,0v23.5c0,1.6-1.3,2.9-2.9,2.9c0,0,0,0,0,0h-21.6
		c-1.6,0-2.9-1.3-3-2.9c0,0,0,0,0,0v-23.5C454.7,231.3,456,230,457.7,230C457.6,230,457.7,230,457.7,230z" id="seat-68"/>
            <path class="seat" d="M336.8,160.6h21.6c1.6,0,2.9,1.3,3,2.9c0,0,0,0,0,0V187c0,1.6-1.3,2.9-3,2.9h-21.6c-1.6,0-3-1.2-3-2.8
		c0,0,0,0,0-0.1v-23.4C333.8,161.9,335.1,160.6,336.8,160.6C336.8,160.6,336.8,160.6,336.8,160.6z" id="seat-55"/>
            <path class="seat" d="M367.4,160.6H389c1.6,0,2.9,1.3,3,2.9c0,0,0,0,0,0V187c0,1.6-1.3,2.9-2.9,2.9c0,0,0,0,0,0h-21.6
		c-1.6,0-2.9-1.3-3-2.9c0,0,0,0,0,0v-23.5C364.4,161.9,365.8,160.6,367.4,160.6C367.4,160.6,367.4,160.6,367.4,160.6z" id="seat-58"/>
            <path class="seat" d="M367.3,195.1h21.6c1.6,0,2.9,1.3,3,2.9c0,0,0,0,0,0v23.5c0,1.6-1.3,2.9-2.9,2.9c0,0,0,0,0,0h-21.6
		c-1.6,0-2.9-1.3-3-2.9c0,0,0,0,0,0V198C364.3,196.4,365.6,195.1,367.3,195.1z" id="seat-59"/>
            <path class="seat" d="M336.8,194.6h21.6c1.6,0,2.9,1.3,3,2.9c0,0,0,0,0,0V221c0,1.6-1.3,2.9-2.9,2.9c0,0,0,0,0,0h-21.6
		c-1.6,0-3-1.2-3-2.9c0,0,0,0,0-0.1v-23.5C333.8,195.9,335.1,194.6,336.8,194.6C336.8,194.6,336.8,194.6,336.8,194.6z" id="seat-56"/>
            <path class="seat" d="M336.8,230h21.6c1.6,0,2.9,1.3,3,2.9c0,0,0,0,0,0v23.5c0,1.6-1.3,2.9-2.9,2.9c0,0,0,0,0,0h-21.6
		c-1.6,0-3-1.2-3-2.9c0,0,0,0,0-0.1v-23.5C333.8,231.3,335.1,230,336.8,230C336.8,230,336.8,230,336.8,230z" id="seat-57"/>
            <path class="seat" d="M367.3,229.9h21.6c1.6,0,2.9,1.3,3,2.9v23.5c0,1.6-1.3,2.9-3,2.9h-21.6c-1.6,0-3-1.2-3-2.9c0,0,0,0,0,0v-23.5
		C364.3,231.2,365.6,229.9,367.3,229.9C367.3,229.9,367.3,229.9,367.3,229.9z" id="seat-60"/>
            <path class="seat" d="M246.6,160.5h21.6c1.6,0,2.9,1.3,2.9,2.9c0,0,0,0,0,0v23.5c0,1.6-1.3,2.9-2.9,2.9c0,0,0,0,0,0h-21.6
		c-1.6,0-3-1.2-3-2.9c0,0,0,0,0,0v-23.5C243.6,161.8,244.9,160.5,246.6,160.5C246.5,160.5,246.5,160.5,246.6,160.5z" id="seat-49"/>
            <path class="seat" d="M277.1,160.4h21.6c1.6,0,2.9,1.3,3,2.9v23.5c0,1.6-1.3,2.9-3,2.9h-21.6c-1.6,0-2.9-1.3-3-2.9v-23.5
		C274.2,161.7,275.5,160.4,277.1,160.4z" id="seat-52"/>
            <path class="seat" d="M277,195h21.6c1.6,0,2.9,1.3,3,2.9v23.5c0,1.6-1.3,2.9-3,2.9H277c-1.6,0-2.9-1.3-3-2.9v-23.5
		C274.1,196.3,275.4,195,277,195z" id="seat-53"/>
            <path class="seat" d="M246.6,194.4h21.6c1.6,0,2.9,1.3,2.9,2.9c0,0,0,0,0,0v23.5c0,1.6-1.3,2.9-2.9,2.9c0,0,0,0,0,0h-21.6
		c-1.6,0-3-1.2-3-2.9c0,0,0,0,0,0v-23.5C243.6,195.7,244.9,194.4,246.6,194.4C246.5,194.4,246.5,194.4,246.6,194.4z" id="seat-50"/>
            <path class="seat" d="M246.6,229.8h21.6c1.6,0,2.9,1.3,2.9,2.9c0,0,0,0,0,0v23.5c0,1.6-1.3,2.9-2.9,2.9c0,0,0,0,0,0h-21.6
		c-1.6,0-3-1.2-3-2.9c0,0,0,0,0,0v-23.5C243.6,231.1,244.9,229.8,246.6,229.8C246.5,229.8,246.5,229.8,246.6,229.8z" id="seat-51"/>
            <path class="seat" d="M277,229.7h21.6c1.6,0,2.9,1.3,3,2.9c0,0,0,0,0,0V256c0,1.6-1.3,2.9-2.9,2.9c0,0,0,0,0,0H277
		c-1.6,0-2.9-1.3-3-2.9c0,0,0,0,0,0v-23.5C274.1,231,275.4,229.7,277,229.7C277,229.7,277,229.7,277,229.7z" id="seat-54"/>
            <path class="seat" d="M149.4,194.8H171c1.6,0,2.9,1.3,2.9,2.9c0,0,0,0,0,0v23.5c0,1.6-1.3,2.9-2.9,2.9c0,0,0,0,0,0h-21.6
		c-1.6,0-2.9-1.3-2.9-2.9c0,0,0,0,0,0v-23.5C146.5,196.1,147.8,194.8,149.4,194.8C149.4,194.8,149.4,194.8,149.4,194.8z" id="seat-44"/>
            <path class="seat" d="M180.2,195.2h21.6c1.6,0,2.9,1.3,2.9,2.9v23.5c0,1.6-1.3,2.9-2.9,2.9c0,0,0,0,0,0h-21.6c-1.6,0-3-1.2-3-2.8
		c0,0,0,0,0-0.1v-23.5C177.2,196.5,178.6,195.2,180.2,195.2C180.2,195.2,180.2,195.2,180.2,195.2z" id="seat-46"/>
            <path class="seat" d="M149.5,229.7h21.6c1.6,0,3,1.2,3,2.9c0,0,0,0,0,0.1V256c0,1.6-1.3,2.9-2.9,2.9c0,0,0,0-0.1,0h-21.6
		c-1.6,0-2.9-1.3-2.9-2.9c0,0,0,0,0,0v-23.5C146.6,231,147.9,229.7,149.5,229.7C149.5,229.7,149.5,229.7,149.5,229.7z" id="seat-45"/>
            <path class="seat" d="M179.9,229.6h21.6c1.6,0,2.9,1.3,2.9,2.9c0,0,0,0,0,0v23.5c0,1.6-1.3,2.9-2.9,2.9c0,0,0,0,0,0h-21.6
		c-1.6,0-3-1.2-3-2.9c0,0,0,0,0-0.1v-23.5C176.9,230.9,178.2,229.5,179.9,229.6C179.8,229.6,179.9,229.6,179.9,229.6z" id="seat-47"/>
            <path class="seat" d="M48.2,194.8h21.6c1.6,0,3,1.2,3,2.9c0,0,0,0,0,0.1v23.5c0,1.6-1.3,2.9-2.9,2.9c0,0,0,0-0.1,0H48.2
		c-1.6,0-3-1.2-3-2.9c0,0,0,0,0-0.1v-23.5C45.3,196.1,46.6,194.8,48.2,194.8C48.2,194.8,48.2,194.8,48.2,194.8z" id="seat-40"/>
            <path class="seat" d="M79,195.2h21.6c1.6,0,3,1.2,3,2.9c0,0,0,0,0,0v23.5c0,1.6-1.3,2.9-2.9,2.9c0,0,0,0-0.1,0H79
		c-1.6,0-3-1.2-3-2.8c0,0,0,0,0-0.1v-23.5C76,196.5,77.3,195.2,79,195.2C79,195.2,79,195.2,79,195.2z" id="seat-42"/>
            <path class="seat" d="M48.3,229.7H70c1.6,0,3,1.2,3,2.9c0,0,0,0,0,0.1V256c0,1.6-1.3,2.9-2.9,3c0,0-0.1,0-0.1,0H48.3
		c-1.6,0-3-1.2-3-2.9c0,0,0,0,0-0.1v-23.5C45.4,231,46.7,229.7,48.3,229.7C48.3,229.7,48.3,229.7,48.3,229.7z" id="seat-41"/>
            <path class="seat" d="M78.7,229.6h21.6c1.6,0,3,1.2,3,2.9c0,0,0,0,0,0.1v23.5c0,1.6-1.3,2.9-2.9,2.9c0,0,0,0-0.1,0H78.7
		c-1.6,0-3-1.2-3-2.9c0,0,0,0,0-0.1v-23.5C75.7,230.9,77,229.5,78.7,229.6C78.7,229.6,78.7,229.6,78.7,229.6z" id="seat-43"/>
            <path class="seat" d="M680.4,188.1H702c1.6,0,3,1.2,3,2.9c0,0,0,0,0,0.1v23.5c0,1.6-1.3,2.9-2.9,2.9c0,0,0,0-0.1,0h-21.6
		c-1.6,0-2.9-1.3-3-2.9c0,0,0,0,0,0V191C677.5,189.4,678.8,188.1,680.4,188.1C680.4,188,680.4,188,680.4,188.1z" id="seat-71"/>
            <path class="seat" d="M689.8,283.7h21.6c1.6,0,3,1.2,3,2.9c0,0,0,0,0,0.1V310c0,1.6-1.3,2.9-2.9,2.9c0,0,0,0-0.1,0h-21.6
		c-1.6,0-2.9-1.3-3-2.9c0,0,0,0,0,0v-23.5C686.9,285,688.2,283.7,689.8,283.7C689.8,283.7,689.8,283.7,689.8,283.7z" id="seat-72"/>
            <path class="seat" d="M722.9,71.9h21.6c1.6,0,3,1.2,3,2.9c0,0,0,0,0,0v23.5c0,1.6-1.3,2.9-3,2.9c0,0,0,0,0,0h-21.6
		c-1.6,0-3-1.2-3-2.9c0,0,0,0,0,0V74.8C719.9,73.2,721.2,71.9,722.9,71.9C722.8,71.9,722.9,71.9,722.9,71.9z" id="seat-70"/>
            <path class="seat" d="M601.7,70.8h21.6c1.6,0,3,1.2,3,2.8c0,0,0,0,0,0.1v23.5c0,1.6-1.3,2.9-3,2.9c0,0,0,0,0,0h-21.6
		c-1.6,0-2.9-1.3-3-2.9V73.7C598.7,72.1,600,70.8,601.7,70.8C601.7,70.8,601.7,70.8,601.7,70.8z" id="seat-69"/>
</g>
      <g id="Numeros">
	<g id="PDF_Text">
		<path d="M372.5,177.2l1.1-0.1c0,0.4,0.2,0.9,0.5,1.2c0.3,0.3,0.7,0.4,1.1,0.4c0.5,0,0.9-0.2,1.3-0.6c0.4-0.4,0.5-0.9,0.5-1.5
			c0-0.5-0.1-1-0.5-1.4c-0.3-0.3-0.8-0.5-1.3-0.5c-0.3,0-0.6,0.1-0.9,0.2c-0.3,0.1-0.5,0.3-0.6,0.6l-1-0.1l0.8-4.3h4.2v1h-3.3
			l-0.5,2.3c0.5-0.3,1-0.5,1.6-0.5c0.7,0,1.4,0.3,1.9,0.8c0.5,0.5,0.8,1.3,0.8,2c0,0.7-0.2,1.4-0.7,2c-1,1.2-2.8,1.4-4,0.4
			c-0.5-0.4-0.8-1-0.8-1.7L372.5,177.2z M380.6,174.9c-0.4-0.1-0.7-0.4-1-0.7c-0.2-0.3-0.3-0.6-0.3-1c0-0.6,0.2-1.1,0.6-1.5
			c1-0.8,2.5-0.8,3.5,0c0.4,0.4,0.7,1,0.7,1.5c0,0.4-0.1,0.7-0.3,1c-0.2,0.3-0.6,0.5-0.9,0.7c0.5,0.1,0.9,0.4,1.2,0.8
			c0.3,0.4,0.4,0.9,0.4,1.3c0,0.7-0.3,1.3-0.8,1.8c-1.2,1-2.8,1-4,0c-0.5-0.5-0.8-1.1-0.8-1.8c0-0.5,0.1-1,0.4-1.4
			C379.6,175.2,380.1,175,380.6,174.9L380.6,174.9z M380.3,173.1c0,0.4,0.1,0.7,0.4,1c0.6,0.5,1.4,0.5,2,0c0.2-0.2,0.4-0.6,0.4-0.9
			c0-0.4-0.1-0.7-0.4-1c-0.6-0.5-1.4-0.5-2,0C380.5,172.5,380.3,172.8,380.3,173.1L380.3,173.1z M380.1,177c0,0.3,0.1,0.6,0.2,0.9
			c0.1,0.3,0.4,0.5,0.6,0.6c0.3,0.2,0.6,0.2,0.9,0.2c0.5,0,0.9-0.2,1.2-0.5c0.6-0.7,0.6-1.7,0-2.4c-0.3-0.3-0.8-0.5-1.2-0.5
			c-0.9,0-1.7,0.7-1.7,1.6C380.1,176.9,380.1,176.9,380.1,177L380.1,177z"/>
	</g>
            <path d="M74.7,84.7l1-0.1c0.1,0.5,0.3,0.9,0.6,1.3c0.3,0.3,0.6,0.4,1,0.4c0.5,0,1-0.1,1.3-0.5c0.3-0.3,0.5-0.8,0.5-1.3
		c0-0.9-0.7-1.6-1.5-1.6c0,0,0,0,0,0h-0.1c-0.2,0-0.5,0-0.7,0.1l0.1-0.9h0.2c0.4,0,0.8-0.1,1.2-0.3c0.3-0.2,0.5-0.6,0.5-1
		c0-0.4-0.1-0.7-0.4-0.9c-0.3-0.3-0.6-0.4-1-0.4c-0.4,0-0.7,0.1-1,0.4c-0.3,0.3-0.5,0.7-0.5,1.1l-1-0.2c0.1-0.6,0.4-1.2,0.8-1.6
		c0.5-0.4,1.1-0.6,1.7-0.6c0.4,0,0.9,0.1,1.3,0.3c0.7,0.3,1.2,1.1,1.2,1.9c0,0.4-0.1,0.7-0.3,1c-0.2,0.3-0.5,0.6-0.9,0.7
		c0.5,0.1,0.9,0.4,1.2,0.7c0.3,0.4,0.4,0.8,0.4,1.3c0,0.7-0.3,1.4-0.8,1.9c-0.5,0.5-1.3,0.8-2,0.8c-0.7,0-1.3-0.2-1.8-0.6
		C75.1,86,74.8,85.4,74.7,84.7L74.7,84.7z M82.8,82.4c-0.4-0.1-0.7-0.3-1-0.7c-0.2-0.3-0.3-0.6-0.3-1c0-0.6,0.2-1.1,0.7-1.5
		c1-0.8,2.5-0.8,3.5,0c0.4,0.4,0.7,1,0.7,1.5c0,0.4-0.1,0.7-0.3,1c-0.2,0.3-0.6,0.5-0.9,0.7c0.5,0.1,0.9,0.4,1.2,0.8
		c0.3,0.4,0.4,0.9,0.4,1.3c0,0.7-0.3,1.3-0.8,1.8c-1.2,1-2.8,1-4,0c-0.5-0.5-0.8-1.1-0.8-1.8c0-0.5,0.2-1,0.5-1.4
		C81.9,82.8,82.3,82.5,82.8,82.4z M82.6,80.7c0,0.4,0.1,0.7,0.4,1c0.3,0.3,0.6,0.4,1,0.4c0.4,0,0.7-0.1,1-0.4
		c0.2-0.2,0.4-0.6,0.4-0.9c0-0.4-0.1-0.7-0.4-1c-0.6-0.5-1.4-0.5-2,0C82.7,80,82.5,80.3,82.6,80.7L82.6,80.7z M82.2,84.6
		c0,0.3,0.1,0.6,0.2,0.8c0.1,0.3,0.4,0.5,0.6,0.6c0.3,0.2,0.6,0.2,0.9,0.2c0.5,0,0.9-0.2,1.2-0.5c0.6-0.7,0.6-1.7,0-2.4
		c-0.3-0.3-0.8-0.5-1.2-0.5C83,82.8,82.3,83.6,82.2,84.6C82.3,84.5,82.3,84.5,82.2,84.6L82.2,84.6L82.2,84.6z"/>
            <path d="M141.5,84.3l1-0.1c0.1,0.5,0.3,0.9,0.6,1.3c0.3,0.3,0.6,0.4,1,0.4c0.5,0,0.9-0.2,1.2-0.5c0.3-0.3,0.5-0.8,0.5-1.3
		c0-0.9-0.7-1.6-1.5-1.6c0,0,0,0,0,0h-0.1c-0.2,0-0.5,0-0.7,0.1l0.1-0.9h0.2c0.4,0,0.8-0.1,1.2-0.3c0.3-0.2,0.5-0.6,0.5-1
		c0-0.3-0.1-0.7-0.4-0.9c-0.3-0.3-0.6-0.4-1-0.4c-0.4,0-0.7,0.1-1,0.4c-0.3,0.3-0.5,0.7-0.5,1.1l-1-0.2c0.1-0.6,0.4-1.2,0.9-1.6
		c0.5-0.4,1.1-0.6,1.7-0.6c0.4,0,0.9,0.1,1.3,0.3c0.4,0.2,0.7,0.5,0.9,0.8c0.2,0.3,0.3,0.7,0.3,1.1c0,0.4-0.1,0.7-0.3,1
		c-0.2,0.3-0.5,0.5-0.9,0.7c0.5,0.1,0.9,0.4,1.1,0.7c0.3,0.4,0.4,0.9,0.4,1.3c0,0.7-0.3,1.4-0.8,1.9c-0.5,0.5-1.3,0.8-2,0.8
		c-0.7,0-1.3-0.2-1.8-0.7C141.8,85.6,141.5,85,141.5,84.3L141.5,84.3z M148.2,84.6l1-0.1c0,0.4,0.2,0.7,0.5,1
		c0.2,0.2,0.6,0.3,0.9,0.3c0.3,0,0.6-0.1,0.8-0.2c0.3-0.2,0.5-0.4,0.6-0.6c0.2-0.3,0.3-0.6,0.4-1c0.1-0.4,0.2-0.8,0.1-1.3v-0.2
		c-0.2,0.3-0.5,0.6-0.8,0.8c-0.4,0.2-0.8,0.3-1.2,0.3c-0.7,0-1.3-0.3-1.8-0.8c-1-1.2-1-2.8,0-4c0.5-0.5,1.2-0.8,1.9-0.8
		c1.1,0,2.1,0.7,2.5,1.7c0.3,0.8,0.4,1.6,0.4,2.3c0,0.9-0.1,1.7-0.4,2.6c-0.2,0.6-0.5,1.1-1,1.4c-0.5,0.3-1,0.5-1.6,0.5
		C149.3,86.7,148.3,85.8,148.2,84.6C148.2,84.6,148.2,84.6,148.2,84.6L148.2,84.6z M152.4,80.9c0-0.5-0.1-1-0.5-1.4
		c-0.3-0.3-0.7-0.5-1.1-0.5c-0.5,0-0.9,0.2-1.2,0.6c-0.4,0.4-0.5,0.9-0.5,1.4c0,0.5,0.2,0.9,0.5,1.3c0.6,0.6,1.7,0.7,2.3,0
		c0,0,0,0,0,0C152.2,81.9,152.4,81.4,152.4,80.9z"/>
            <path d="M56,214v-2h-3.7v-1l3.8-5.4H57v5.4h1.1v1H57v2H56z M56,211v-3.8l-2.7,3.8H56z M59.2,209.8c0-0.8,0.1-1.6,0.3-2.4
		c0.2-0.5,0.5-1,0.9-1.4c0.4-0.3,1-0.5,1.5-0.5c0.4,0,0.8,0.1,1.2,0.3c0.3,0.2,0.6,0.5,0.8,0.8c0.2,0.4,0.4,0.8,0.5,1.3
		c0.1,0.7,0.2,1.3,0.2,2c0,0.8-0.1,1.6-0.3,2.4c-0.2,0.5-0.5,1-0.9,1.4c-1.1,0.8-2.5,0.6-3.4-0.4C59.4,212.2,59.1,211,59.2,209.8
		L59.2,209.8z M60.2,209.8c-0.1,0.9,0.1,1.9,0.5,2.7c0.4,0.7,1.2,0.9,1.9,0.5c0.2-0.1,0.4-0.3,0.5-0.5c0.6-1.8,0.6-3.7,0-5.5
		c-0.3-0.4-0.7-0.7-1.2-0.7c-0.5,0-0.9,0.2-1.1,0.6C60.3,207.9,60.1,208.9,60.2,209.8L60.2,209.8z"/>
            <path d="M156.8,213.4v-2h-3.6v-0.9l3.8-5.4h0.8v5.4h1.1v0.9h-1.1v2L156.8,213.4z M156.8,210.4v-3.7l-2.6,3.8L156.8,210.4z
		 M163.3,213.4v-2h-3.6v-0.9l3.8-5.4h0.8v5.4h1.1v0.9h-1.1v2H163.3z M163.3,210.4v-3.7l-2.6,3.8L163.3,210.4z"/>
            <path d="M254.8,178.8v-2h-3.6v-0.9l3.8-5.4h0.8v5.4h1.1v0.9h-1.1v2H254.8z M254.8,175.8v-3.8l-2.6,3.8L254.8,175.8z M258.1,176.8
		l1-0.1c0,0.4,0.2,0.7,0.5,1c0.3,0.2,0.6,0.3,0.9,0.3c0.3,0,0.6-0.1,0.8-0.2c0.2-0.1,0.4-0.3,0.6-0.6c0.2-0.3,0.3-0.6,0.4-1
		c0.1-0.4,0.1-0.8,0.1-1.3v-0.2c-0.2,0.3-0.5,0.6-0.8,0.8c-0.4,0.2-0.8,0.3-1.2,0.3c-0.7,0-1.3-0.3-1.8-0.8c-0.5-0.5-0.8-1.3-0.7-2
		c0-0.7,0.2-1.5,0.8-2c0.5-0.5,1.2-0.8,1.9-0.8c1.1,0,2.1,0.7,2.5,1.7c0.3,0.8,0.4,1.6,0.4,2.4c0,0.9-0.1,1.7-0.4,2.6
		c-0.2,0.6-0.5,1.1-1,1.4c-0.5,0.3-1,0.5-1.6,0.5c-0.6,0-1.2-0.2-1.6-0.5C258.5,177.9,258.2,177.4,258.1,176.8L258.1,176.8z
		 M262.3,173.1c0-0.5-0.1-1-0.5-1.4c-0.3-0.3-0.7-0.5-1.1-0.5c-0.5,0-0.9,0.2-1.2,0.6c-0.4,0.4-0.5,0.9-0.5,1.4
		c0,0.5,0.2,0.9,0.5,1.3c0.3,0.3,0.7,0.5,1.2,0.5c0.4,0,0.9-0.2,1.2-0.5C262.2,174.1,262.3,173.6,262.3,173.1L262.3,173.1z"/>
            <path d="M252.2,245.5l1.1-0.1c0,0.4,0.2,0.9,0.6,1.2c0.3,0.3,0.7,0.4,1.1,0.4c0.5,0,0.9-0.2,1.2-0.6c0.4-0.4,0.5-0.9,0.5-1.5
		c0-0.5-0.1-1-0.5-1.4c-0.3-0.3-0.8-0.5-1.3-0.5c-0.3,0-0.6,0.1-0.9,0.2c-0.3,0.1-0.5,0.3-0.6,0.6l-1-0.1l0.8-4.3h4.2v1h-3.3
		l-0.4,2.3c0.5-0.3,1-0.5,1.6-0.5c0.7,0,1.4,0.3,1.8,0.8c0.5,0.5,0.8,1.3,0.8,2c0,0.7-0.2,1.4-0.7,2c-1,1.2-2.8,1.3-4,0.4
		c-0.5-0.4-0.8-1-0.8-1.7L252.2,245.5z M262.6,247.7h-1v-6.5c-0.3,0.3-0.6,0.5-1,0.7c-0.3,0.2-0.7,0.4-1.1,0.5v-1
		c0.5-0.3,1-0.6,1.5-1c0.4-0.3,0.7-0.7,0.9-1.1h0.7L262.6,247.7L262.6,247.7z"/>
            <path d="M341.4,246.6l1.1-0.1c0,0.4,0.2,0.9,0.5,1.2c0.3,0.3,0.7,0.4,1.1,0.4c0.5,0,0.9-0.2,1.3-0.6c0.4-0.4,0.5-0.9,0.5-1.5
		c0-0.5-0.1-1-0.5-1.4c-0.3-0.3-0.8-0.5-1.3-0.5c-0.3,0-0.6,0.1-0.9,0.2c-0.3,0.1-0.5,0.3-0.6,0.6l-1-0.1l0.8-4.3h4.2v1h-3.3
		l-0.5,2.3c0.5-0.3,1-0.5,1.6-0.5c0.7,0,1.4,0.3,1.9,0.8c0.5,0.5,0.8,1.2,0.8,1.9c0,0.7-0.2,1.4-0.7,2c-1,1.2-2.8,1.4-4,0.4
		C341.7,247.9,341.4,247.3,341.4,246.6L341.4,246.6z M348,241.5v-1h5.4v0.8c-0.6,0.7-1.2,1.4-1.6,2.3c-0.5,0.9-0.9,1.9-1.2,2.9
		c-0.2,0.8-0.3,1.5-0.4,2.3h-1c0-0.8,0.2-1.6,0.4-2.4c0.3-0.9,0.6-1.8,1.1-2.7c0.4-0.8,0.9-1.5,1.5-2.2L348,241.5z"/>
            <path d="M341.4,177l1.1-0.1c0,0.4,0.2,0.9,0.5,1.2c0.3,0.3,0.7,0.4,1.1,0.4c0.5,0,0.9-0.2,1.3-0.6c0.4-0.4,0.5-0.9,0.5-1.5
		c0-0.5-0.1-1-0.5-1.4c-0.3-0.3-0.8-0.5-1.3-0.5c-0.3,0-0.6,0.1-0.9,0.2c-0.3,0.1-0.5,0.3-0.6,0.6l-1-0.1l0.8-4.3h4.2v1h-3.3
		l-0.5,2.3c0.5-0.3,1-0.5,1.6-0.5c0.7,0,1.4,0.3,1.9,0.8c0.5,0.5,0.8,1.3,0.8,2c0,0.7-0.2,1.4-0.7,2c-1,1.2-2.8,1.4-4,0.4
		c-0.5-0.4-0.8-1-0.8-1.7L341.4,177z M347.9,177l1.1-0.1c0,0.4,0.2,0.9,0.5,1.2c0.3,0.3,0.7,0.4,1,0.4c0.5,0,0.9-0.2,1.3-0.6
		c0.4-0.4,0.5-0.9,0.5-1.5c0-0.5-0.1-1-0.5-1.4c-0.3-0.3-0.8-0.5-1.3-0.5c-0.3,0-0.6,0.1-0.9,0.2c-0.3,0.1-0.5,0.3-0.6,0.6l-1-0.1
		l0.8-4.3h4.2v1h-3.3l-0.5,2.3c0.5-0.3,1-0.5,1.6-0.5c0.7,0,1.4,0.3,1.9,0.8c0.5,0.5,0.8,1.3,0.8,2c0,0.7-0.2,1.4-0.7,2
		c-1,1.2-2.8,1.3-4.1,0.4c-0.5-0.4-0.8-1-0.8-1.7L347.9,177z"/>
            <path d="M437.6,171.9l-1,0.1c-0.1-0.3-0.2-0.6-0.4-0.9c-0.3-0.3-0.6-0.4-1-0.4c-0.3,0-0.6,0.1-0.9,0.3c-0.3,0.3-0.6,0.6-0.8,1
		c-0.2,0.6-0.3,1.3-0.3,1.9c0.4-0.7,1.2-1.1,2-1.1c0.7,0,1.3,0.3,1.8,0.8c0.5,0.5,0.8,1.3,0.7,2c0,0.5-0.1,1-0.3,1.5
		c-0.2,0.4-0.5,0.8-0.9,1c-0.4,0.2-0.9,0.4-1.3,0.4c-0.8,0-1.6-0.3-2.1-0.9c-0.6-0.9-0.9-2-0.8-3.1c-0.1-1.2,0.2-2.5,0.9-3.5
		c0.5-0.6,1.3-1,2.1-1c0.6,0,1.2,0.2,1.6,0.6C437.3,170.7,437.5,171.3,437.6,171.9L437.6,171.9z M433.4,175.5c0,0.3,0.1,0.7,0.2,1
		c0.1,0.3,0.4,0.6,0.6,0.7c0.3,0.2,0.5,0.3,0.9,0.3c0.4,0,0.8-0.2,1.1-0.5c0.3-0.4,0.5-0.9,0.5-1.4c0-0.5-0.1-1-0.5-1.4
		c-0.3-0.3-0.7-0.5-1.2-0.5c-0.4,0-0.9,0.2-1.2,0.5C433.5,174.5,433.4,175,433.4,175.5L433.4,175.5z M438.7,176l1-0.1
		c0.1,0.5,0.3,0.9,0.6,1.3c0.3,0.3,0.6,0.4,1,0.4c0.5,0,0.9-0.2,1.2-0.5c0.3-0.3,0.5-0.8,0.5-1.3c0-0.9-0.7-1.6-1.5-1.6c0,0,0,0,0,0
		h-0.1c-0.2,0-0.5,0-0.7,0.1l0.1-0.9h0.2c0.4,0,0.8-0.1,1.2-0.4c0.4-0.2,0.5-0.6,0.5-1.1c0-0.3-0.1-0.7-0.4-0.9
		c-0.3-0.3-0.6-0.4-1-0.4c-0.4,0-0.7,0.1-1,0.4c-0.3,0.3-0.5,0.7-0.5,1.1l-1-0.2c0.1-0.6,0.4-1.2,0.9-1.6c0.5-0.4,1.1-0.6,1.7-0.6
		c0.4,0,0.9,0.1,1.3,0.3c0.7,0.3,1.2,1.1,1.2,1.9c0,0.4-0.1,0.7-0.3,1c-0.2,0.3-0.5,0.6-0.9,0.7c0.5,0.1,0.9,0.3,1.2,0.7
		c0.3,0.4,0.4,0.9,0.4,1.4c0,0.7-0.3,1.4-0.8,1.9c-0.5,0.5-1.3,0.8-2,0.8c-0.7,0-1.3-0.2-1.8-0.7C439.1,177.2,438.8,176.6,438.7,176
		L438.7,176z"/>
            <path d="M467.9,207l-1,0.1c-0.1-0.3-0.2-0.6-0.4-0.9c-0.3-0.3-0.6-0.4-1-0.4c-0.3,0-0.6,0.1-0.9,0.3c-0.3,0.3-0.6,0.6-0.8,1
		c-0.2,0.6-0.3,1.3-0.3,1.9c0.4-0.7,1.2-1.1,2-1.1c0.7,0,1.3,0.3,1.8,0.8c0.5,0.5,0.8,1.3,0.7,2c0,0.5-0.1,1-0.3,1.5
		c-0.2,0.4-0.5,0.8-0.9,1c-0.4,0.2-0.9,0.4-1.3,0.4c-0.8,0-1.6-0.3-2.1-0.9c-0.6-0.9-0.9-2-0.8-3.1c-0.1-1.2,0.2-2.5,0.9-3.5
		c0.5-0.6,1.3-1,2.1-1c0.6,0,1.2,0.2,1.6,0.6C467.6,205.8,467.9,206.4,467.9,207L467.9,207z M463.7,210.6c0,0.3,0.1,0.7,0.2,1
		c0.1,0.3,0.4,0.6,0.6,0.7c0.3,0.2,0.5,0.3,0.9,0.3c0.4,0,0.8-0.2,1.1-0.5c0.3-0.4,0.5-0.9,0.5-1.4c0-0.5-0.1-1-0.5-1.4
		c-0.3-0.3-0.7-0.5-1.2-0.5c-0.4,0-0.9,0.2-1.2,0.5C463.9,209.6,463.7,210.1,463.7,210.6L463.7,210.6z M469.2,206.1v-1h5.4v0.8
		c-0.6,0.7-1.2,1.4-1.6,2.3c-0.5,0.9-0.9,1.9-1.2,2.9c-0.2,0.8-0.3,1.5-0.4,2.3h-1c0-0.8,0.2-1.6,0.4-2.4c0.3-0.9,0.6-1.8,1.1-2.7
		c0.4-0.8,0.9-1.5,1.5-2.2L469.2,206.1z"/>
            <path d="M437.9,242.1l-1,0.1c-0.1-0.3-0.2-0.6-0.4-0.9c-0.5-0.5-1.3-0.6-1.9-0.2c-0.3,0.3-0.6,0.6-0.8,1c-0.2,0.6-0.3,1.3-0.3,1.9
		c0.7-1.1,2.2-1.4,3.3-0.8c0.2,0.1,0.3,0.2,0.5,0.4c0.5,0.5,0.8,1.3,0.7,2c0,0.5-0.1,1-0.3,1.5c-0.2,0.4-0.5,0.8-0.9,1
		c-0.4,0.2-0.9,0.4-1.3,0.4c-0.8,0-1.6-0.3-2.1-0.9c-0.6-0.9-0.9-2-0.8-3.1c-0.1-1.2,0.2-2.5,0.9-3.5c0.5-0.6,1.3-1,2.1-1
		c0.6,0,1.2,0.2,1.6,0.6C437.6,240.9,437.8,241.5,437.9,242.1L437.9,242.1z M433.7,245.7c0,0.3,0.1,0.7,0.2,1
		c0.1,0.3,0.4,0.6,0.6,0.7c0.3,0.2,0.5,0.3,0.9,0.3c0.4,0,0.8-0.2,1.1-0.5c0.3-0.4,0.5-0.9,0.5-1.4c0-0.5-0.1-1-0.5-1.4
		c-0.3-0.3-0.7-0.5-1.2-0.5c-0.5,0-0.9,0.2-1.2,0.5C433.8,244.8,433.6,245.2,433.7,245.7L433.7,245.7z M439,246.2l1.1-0.1
		c0,0.4,0.2,0.9,0.5,1.2c0.3,0.3,0.6,0.4,1,0.4c0.5,0,0.9-0.2,1.3-0.6c0.4-0.4,0.5-0.9,0.5-1.5c0-0.5-0.1-1-0.5-1.4
		c-0.3-0.3-0.8-0.5-1.3-0.5c-0.3,0-0.6,0.1-0.9,0.2c-0.3,0.1-0.5,0.3-0.6,0.6l-1-0.1l0.8-4.3h4.1v1h-3.3l-0.5,2.3
		c0.5-0.3,1-0.5,1.6-0.5c0.7,0,1.4,0.3,1.9,0.8c0.5,0.5,0.8,1.3,0.8,2c0,0.7-0.2,1.4-0.7,2c-1,1.2-2.8,1.3-4.1,0.4
		c-0.5-0.4-0.8-1-0.8-1.7L439,246.2z"/>
            <path d="M728.2,83.2v-1h5.4V83c-0.6,0.7-1.1,1.5-1.6,2.3c-0.5,0.9-0.9,1.9-1.2,2.9c-0.2,0.7-0.4,1.5-0.4,2.3h-1
		c0-0.8,0.2-1.6,0.4-2.4c0.2-0.9,0.6-1.8,1.1-2.7c0.4-0.8,0.9-1.5,1.5-2.2L728.2,83.2z M734.6,86.4c0-0.8,0.1-1.6,0.4-2.4
		c0.2-0.5,0.5-1,0.9-1.4c0.4-0.3,1-0.5,1.5-0.5c0.4,0,0.8,0.1,1.2,0.3c0.3,0.2,0.6,0.5,0.8,0.8c0.2,0.4,0.4,0.8,0.5,1.3
		c0.1,0.7,0.2,1.3,0.2,2c0,0.8-0.1,1.6-0.3,2.4c-0.2,0.5-0.5,1-0.9,1.4c-1.1,0.8-2.5,0.6-3.4-0.4C734.9,88.8,734.6,87.6,734.6,86.4
		L734.6,86.4z M735.6,86.4c-0.1,0.9,0.1,1.9,0.5,2.7c0.4,0.7,1.2,0.9,1.9,0.5c0.2-0.1,0.4-0.3,0.5-0.5c0.4-0.9,0.6-1.8,0.5-2.7
		c0.1-0.9-0.1-1.9-0.5-2.7c-0.3-0.4-0.7-0.7-1.2-0.7c-0.5,0-0.9,0.2-1.1,0.6C735.8,84.4,735.6,85.4,735.6,86.4L735.6,86.4z"/>
            <path d="M612.1,82.8l-1,0.1c-0.1-0.3-0.2-0.6-0.4-0.9c-0.3-0.3-0.6-0.4-1-0.4c-0.3,0-0.6,0.1-0.9,0.3c-0.3,0.3-0.6,0.6-0.8,1
		c-0.2,0.6-0.3,1.3-0.3,1.9c0.4-0.7,1.2-1.1,2-1.1c0.7,0,1.3,0.3,1.8,0.8c0.5,0.5,0.8,1.3,0.7,2c0,0.5-0.1,1-0.3,1.5
		c-0.2,0.4-0.5,0.8-0.9,1c-0.4,0.2-0.9,0.4-1.3,0.4c-0.8,0-1.6-0.3-2.1-0.9c-0.6-0.9-0.9-2-0.8-3.1c-0.1-1.2,0.2-2.5,0.9-3.5
		c0.5-0.6,1.3-1,2.1-1c0.6,0,1.2,0.2,1.6,0.6C611.8,81.7,612,82.3,612.1,82.8L612.1,82.8z M607.9,86.4c0,0.3,0.1,0.7,0.2,1
		c0.1,0.3,0.4,0.6,0.6,0.7c0.3,0.2,0.5,0.3,0.8,0.3c0.4,0,0.8-0.2,1.1-0.5c0.3-0.4,0.5-0.9,0.5-1.4c0-0.5-0.1-1-0.5-1.4
		c-0.3-0.3-0.7-0.5-1.2-0.5c-0.4,0-0.9,0.2-1.2,0.5C608,85.5,607.9,85.9,607.9,86.4L607.9,86.4z M613.4,87.2l1-0.1
		c0,0.4,0.2,0.7,0.5,1c0.2,0.2,0.6,0.3,0.9,0.3c0.3,0,0.6-0.1,0.8-0.2c0.2-0.1,0.4-0.3,0.6-0.6c0.2-0.3,0.3-0.6,0.4-1
		c0.1-0.4,0.2-0.8,0.2-1.3v-0.2c-0.4,0.7-1.2,1.1-2,1.1c-0.7,0-1.3-0.3-1.8-0.8c-0.5-0.5-0.8-1.3-0.7-2c0-0.7,0.2-1.5,0.8-2
		c0.5-0.5,1.2-0.8,1.9-0.8c1.1,0,2.1,0.7,2.5,1.7c0.3,0.8,0.4,1.6,0.3,2.3c0,0.9-0.1,1.7-0.3,2.6c-0.2,0.6-0.5,1.1-1,1.4
		c-0.5,0.3-1,0.5-1.6,0.5c-0.6,0-1.2-0.2-1.6-0.5C613.8,88.3,613.5,87.8,613.4,87.2L613.4,87.2z M617.6,83.5c0-0.5-0.1-1-0.5-1.4
		c-0.3-0.3-0.7-0.5-1.1-0.5c-0.5,0-0.9,0.2-1.2,0.6c-0.3,0.4-0.5,0.9-0.5,1.4c0,0.5,0.2,0.9,0.5,1.3c0.3,0.3,0.7,0.5,1.2,0.5
		c0.4,0,0.9-0.2,1.2-0.5C617.4,84.5,617.6,84,617.6,83.5z"/>
            <path d="M686.1,199.1v-1h5.4v0.8c-0.6,0.7-1.1,1.4-1.6,2.3c-0.5,0.9-0.9,1.9-1.2,2.9c-0.2,0.7-0.4,1.5-0.4,2.3h-1
		c0-0.8,0.2-1.6,0.4-2.4c0.2-0.9,0.6-1.8,1.1-2.7c0.4-0.8,0.9-1.5,1.5-2.2L686.1,199.1z M696.4,206.3h-1v-6.5
		c-0.3,0.3-0.6,0.5-1,0.7c-0.3,0.2-0.7,0.4-1.1,0.5v-1c0.5-0.3,1-0.6,1.5-1c0.4-0.3,0.7-0.7,0.9-1.1h0.7L696.4,206.3L696.4,206.3z"
            />
            <path d="M295.1,67.7v-2h-3.6v-0.9l3.8-5.4h0.8v5.4h1.1v0.9h-1.1v2H295.1z M295.1,64.7V61l-2.6,3.8L295.1,64.7z M299.9,63.1
		c-0.4-0.1-0.7-0.4-1-0.7c-0.2-0.3-0.3-0.6-0.3-1c0-0.6,0.2-1.1,0.6-1.5c1-0.8,2.5-0.8,3.5,0c0.4,0.4,0.7,1,0.7,1.5
		c0,0.4-0.1,0.7-0.3,1c-0.2,0.3-0.6,0.5-0.9,0.7c0.5,0.1,0.9,0.4,1.2,0.8c0.3,0.4,0.4,0.9,0.4,1.3c0,0.7-0.3,1.3-0.8,1.8
		c-1.2,1-2.8,1-4,0c-0.5-0.5-0.8-1.1-0.8-1.8c0-0.5,0.1-1,0.4-1.4C299,63.5,299.4,63.2,299.9,63.1L299.9,63.1z M299.7,61.4
		c0,0.4,0.1,0.7,0.4,1c0.6,0.5,1.4,0.5,2,0c0.2-0.2,0.4-0.6,0.4-0.9c0-0.4-0.1-0.7-0.4-1c-0.6-0.5-1.4-0.5-2,0
		C299.8,60.7,299.7,61.1,299.7,61.4L299.7,61.4z M299.4,65.3c0,0.3,0.1,0.6,0.2,0.8c0.1,0.3,0.4,0.5,0.6,0.6
		c0.3,0.2,0.6,0.2,0.9,0.2c0.5,0,0.9-0.2,1.2-0.5c0.6-0.7,0.6-1.7,0-2.4c-0.3-0.3-0.8-0.5-1.2-0.5C300.1,63.6,299.4,64.3,299.4,65.3
		C299.4,65.2,299.4,65.2,299.4,65.3L299.4,65.3L299.4,65.3z"/>
            <path d="M423.9,62l-1,0.1c-0.1-0.3-0.2-0.6-0.4-0.9c-0.3-0.3-0.6-0.4-1-0.4c-0.3,0-0.6,0.1-0.9,0.3c-0.3,0.3-0.6,0.6-0.8,1
		c-0.2,0.6-0.3,1.3-0.3,1.9c0.4-0.7,1.2-1.1,2-1.1c0.7,0,1.3,0.3,1.8,0.8c0.5,0.5,0.8,1.3,0.7,2c0,0.5-0.1,1-0.3,1.5
		c-0.2,0.4-0.5,0.8-0.9,1c-0.4,0.2-0.9,0.4-1.3,0.4c-0.8,0-1.6-0.3-2.1-0.9c-0.6-0.9-0.9-2-0.8-3.1c-0.1-1.2,0.2-2.5,0.9-3.5
		c0.5-0.6,1.3-1,2.1-1c0.6,0,1.2,0.2,1.6,0.6C423.6,60.8,423.9,61.4,423.9,62z M419.7,65.6c0,0.3,0.1,0.7,0.2,1
		c0.1,0.3,0.4,0.6,0.6,0.7c0.3,0.2,0.5,0.3,0.9,0.3c0.4,0,0.8-0.2,1.1-0.5c0.3-0.4,0.5-0.9,0.5-1.4c0-0.5-0.1-1-0.5-1.4
		c-0.3-0.3-0.7-0.5-1.2-0.5c-0.4,0-0.9,0.2-1.2,0.5C419.9,64.6,419.7,65.1,419.7,65.6L419.7,65.6z M430.4,67.3v1h-5.5
		c0-0.2,0-0.5,0.1-0.7c0.2-0.4,0.4-0.8,0.7-1.1c0.4-0.5,0.9-0.9,1.4-1.3c0.7-0.5,1.3-1.1,1.8-1.8c0.3-0.4,0.4-0.8,0.5-1.2
		c0-0.4-0.2-0.7-0.4-1c-0.7-0.6-1.7-0.6-2.3,0c-0.3,0.3-0.5,0.8-0.5,1.2l-1.1-0.1c0-0.7,0.3-1.3,0.8-1.8c0.5-0.4,1.2-0.7,1.9-0.6
		c0.7,0,1.4,0.2,1.9,0.7c0.5,0.4,0.7,1,0.7,1.7c0,0.3-0.1,0.7-0.2,1c-0.2,0.4-0.4,0.7-0.7,1c-0.5,0.5-1,1-1.5,1.5
		c-0.4,0.3-0.8,0.6-1.2,1c-0.2,0.2-0.3,0.4-0.4,0.6L430.4,67.3z"/>
            <path d="M56.5,247.8v-2h-3.6v-0.9l3.8-5.4h0.8v5.4h1.1v0.9h-1.1v2H56.5z M56.5,244.9v-3.8l-2.6,3.8H56.5z M63.5,247.8h-1v-6.5
		c-0.3,0.3-0.6,0.5-1,0.7c-0.3,0.2-0.7,0.4-1.1,0.5v-1c0.5-0.3,1-0.6,1.5-1c0.4-0.3,0.7-0.7,0.9-1.1h0.7L63.5,247.8L63.5,247.8z"/>
            <path d="M86.8,247.3v-2h-3.6v-0.9L87,239h0.8v5.4H89v0.9h-1.2v2L86.8,247.3z M86.8,244.4v-3.8l-2.6,3.8H86.8z M90,245.1l1-0.1
		c0.1,0.5,0.3,0.9,0.6,1.3c0.3,0.3,0.6,0.4,1,0.4c0.5,0,0.9-0.2,1.2-0.5c0.3-0.3,0.5-0.8,0.5-1.3c0-0.9-0.7-1.6-1.5-1.6c0,0,0,0,0,0
		h-0.1c-0.2,0-0.5,0-0.7,0.1l0.1-0.9h0.2c0.4,0,0.8-0.1,1.2-0.4c0.4-0.2,0.6-0.6,0.6-1c0-0.3-0.1-0.7-0.4-0.9
		c-0.3-0.3-0.6-0.4-1-0.4c-0.4,0-0.7,0.1-1,0.4c-0.3,0.3-0.5,0.7-0.5,1.1l-1-0.2c0.1-0.6,0.4-1.2,0.8-1.6c0.5-0.4,1.1-0.6,1.7-0.6
		c0.4,0,0.9,0.1,1.3,0.3c0.7,0.3,1.2,1.1,1.2,1.9c0,0.4-0.1,0.7-0.3,1c-0.2,0.3-0.5,0.6-0.9,0.7c0.5,0.1,0.9,0.3,1.2,0.7
		c0.3,0.4,0.4,0.9,0.4,1.4c0,0.7-0.3,1.4-0.8,1.9c-0.5,0.5-1.3,0.8-2,0.8c-0.7,0-1.3-0.2-1.8-0.7C90.4,246.4,90.1,245.8,90,245.1
		L90,245.1z"/>
            <path d="M87.4,213.4v-2h-3.6v-0.9l3.8-5.4h0.8v5.4h1.1v0.9h-1.1v2H87.4z M87.4,210.4v-3.8l-2.6,3.8H87.4z M96,212.4v1h-5.6
		c0-0.2,0-0.5,0.1-0.7c0.2-0.4,0.4-0.8,0.7-1.1c0.4-0.5,0.9-0.9,1.3-1.3c0.7-0.5,1.3-1.1,1.8-1.8c0.3-0.4,0.4-0.8,0.5-1.2
		c0-0.4-0.2-0.7-0.4-1c-0.7-0.6-1.7-0.6-2.3,0c-0.3,0.3-0.5,0.8-0.4,1.2l-1.1-0.1c0-0.7,0.3-1.3,0.8-1.8c0.5-0.4,1.2-0.7,1.9-0.6
		c0.7,0,1.4,0.2,1.9,0.7c0.5,0.4,0.7,1,0.7,1.6c0,0.3-0.1,0.7-0.2,1c-0.2,0.4-0.4,0.7-0.7,1c-0.5,0.5-1,1-1.6,1.5
		c-0.4,0.3-0.8,0.6-1.2,1c-0.2,0.2-0.3,0.3-0.4,0.6L96,212.4z"/>
            <path d="M188.2,213.4v-2h-3.6v-0.9l3.8-5.4h0.8v5.4h1.1v0.9h-1.1v2H188.2z M188.2,210.4v-3.8l-2.6,3.8H188.2z M196.7,207l-1,0.1
		c-0.1-0.3-0.2-0.6-0.4-0.9c-0.3-0.3-0.6-0.4-1-0.4c-0.3,0-0.6,0.1-0.9,0.3c-0.3,0.3-0.6,0.6-0.8,1c-0.2,0.6-0.3,1.3-0.3,1.9
		c0.2-0.4,0.5-0.6,0.9-0.8c0.3-0.2,0.7-0.3,1.1-0.3c0.7,0,1.3,0.3,1.8,0.8c0.5,0.5,0.8,1.3,0.7,2c0,0.5-0.1,1-0.3,1.5
		c-0.2,0.4-0.5,0.8-0.9,1c-0.4,0.2-0.9,0.4-1.4,0.4c-0.8,0-1.6-0.3-2.1-0.9c-0.6-0.9-0.9-2-0.8-3.1c-0.1-1.2,0.2-2.5,0.9-3.5
		c0.5-0.6,1.3-1,2.1-1c0.6,0,1.2,0.2,1.6,0.6C196.4,205.9,196.7,206.4,196.7,207L196.7,207z M192.5,210.6c0,0.3,0.1,0.7,0.2,1
		c0.1,0.3,0.4,0.6,0.6,0.7c0.3,0.2,0.5,0.3,0.9,0.3c0.4,0,0.8-0.2,1.1-0.5c0.6-0.8,0.6-2,0-2.8c-0.3-0.3-0.7-0.5-1.2-0.5
		c-0.4,0-0.9,0.2-1.2,0.5C192.7,209.7,192.5,210.1,192.5,210.6L192.5,210.6z"/>
            <path d="M282.3,176l1.1-0.1c0,0.4,0.2,0.9,0.5,1.2c0.3,0.3,0.7,0.4,1.1,0.4c0.5,0,0.9-0.2,1.3-0.6c0.4-0.4,0.5-0.9,0.5-1.5
		c0-0.5-0.1-1-0.5-1.4c-0.3-0.3-0.8-0.5-1.3-0.5c-0.3,0-0.6,0.1-0.9,0.2c-0.3,0.1-0.5,0.3-0.6,0.6l-1-0.1l0.8-4.3h4.2v1H284
		l-0.5,2.3c0.5-0.3,1-0.5,1.6-0.5c0.7,0,1.4,0.3,1.9,0.8c0.5,0.5,0.8,1.2,0.8,1.9c0,0.7-0.2,1.4-0.7,2c-1,1.2-2.8,1.4-4,0.4
		C282.5,177.3,282.2,176.7,282.3,176L282.3,176z M294.1,177.2v1h-5.5c0-0.2,0-0.5,0.1-0.7c0.2-0.4,0.4-0.8,0.7-1.1
		c0.4-0.5,0.9-0.9,1.4-1.3c0.7-0.5,1.3-1.1,1.8-1.8c0.3-0.4,0.4-0.8,0.5-1.2c0-0.4-0.2-0.7-0.4-1c-0.7-0.6-1.7-0.6-2.3,0
		c-0.3,0.3-0.5,0.8-0.5,1.2l-1.1-0.1c0-0.7,0.3-1.3,0.8-1.8c0.5-0.4,1.2-0.7,1.9-0.6c0.7,0,1.4,0.2,1.9,0.7c0.5,0.4,0.7,1,0.7,1.6
		c0,0.3-0.1,0.7-0.2,1c-0.2,0.4-0.4,0.7-0.7,1c-0.5,0.5-1,1-1.6,1.5c-0.4,0.3-0.8,0.6-1.2,1c-0.2,0.2-0.3,0.4-0.4,0.6L294.1,177.2z"
            />
            <path d="M281.9,211.1l1.1-0.1c0,0.4,0.2,0.9,0.5,1.2c0.3,0.3,0.7,0.4,1.1,0.4c0.5,0,0.9-0.2,1.3-0.6c0.4-0.4,0.5-0.9,0.5-1.5
		c0-0.5-0.1-1-0.5-1.4c-0.3-0.3-0.8-0.5-1.3-0.5c-0.3,0-0.6,0.1-0.9,0.2c-0.2,0.1-0.5,0.3-0.6,0.6l-1-0.1l0.8-4.3h4.1v1h-3.3
		l-0.5,2.3c0.5-0.3,1-0.5,1.6-0.5c0.7,0,1.4,0.3,1.9,0.8c0.5,0.5,0.8,1.2,0.8,1.9c0,0.7-0.2,1.4-0.7,2c-1,1.2-2.8,1.3-4,0.4
		C282.3,212.4,282,211.8,281.9,211.1L281.9,211.1z M288.4,211.1l1-0.1c0.1,0.5,0.3,0.9,0.6,1.3c0.3,0.3,0.6,0.4,1,0.4
		c0.5,0,0.9-0.2,1.2-0.5c0.3-0.3,0.5-0.8,0.5-1.3c0-0.9-0.7-1.6-1.5-1.6c0,0,0,0,0,0h-0.1c-0.2,0-0.5,0-0.7,0.1l0.1-0.9h0.2
		c0.4,0,0.8-0.1,1.2-0.4c0.3-0.2,0.5-0.6,0.5-1c0-0.3-0.1-0.7-0.4-0.9c-0.6-0.5-1.4-0.5-2,0c-0.3,0.3-0.5,0.7-0.5,1.1l-1-0.2
		c0.1-0.6,0.4-1.2,0.9-1.6c0.5-0.4,1.1-0.6,1.7-0.6c0.4,0,0.9,0.1,1.3,0.3c0.4,0.2,0.7,0.5,0.9,0.8c0.2,0.3,0.3,0.7,0.3,1.1
		c0,0.4-0.1,0.7-0.3,1c-0.2,0.3-0.5,0.6-0.9,0.7c0.5,0.1,0.9,0.3,1.2,0.7c0.3,0.4,0.4,0.9,0.4,1.4c0,0.7-0.3,1.4-0.8,1.9
		c-0.5,0.5-1.3,0.8-2,0.8c-0.7,0-1.3-0.2-1.8-0.7C288.7,212.5,288.4,211.8,288.4,211.1L288.4,211.1z"/>
            <path d="M281.6,246.3l1.1-0.1c0,0.4,0.2,0.9,0.5,1.2c0.3,0.3,0.7,0.4,1.1,0.4c0.5,0,0.9-0.2,1.3-0.6c0.4-0.4,0.5-0.9,0.5-1.5
		c0-0.5-0.1-1-0.5-1.4c-0.3-0.3-0.8-0.5-1.3-0.5c-0.3,0-0.6,0.1-0.9,0.2c-0.3,0.1-0.5,0.3-0.6,0.6l-1-0.1l0.8-4.3h4.2v1h-3.3
		l-0.5,2.3c0.5-0.3,1-0.5,1.6-0.5c0.7,0,1.4,0.3,1.9,0.8c0.5,0.5,0.8,1.2,0.8,1.9c0,0.7-0.2,1.4-0.7,2c-1,1.2-2.8,1.3-4,0.4
		C282.1,247.6,281.8,247,281.6,246.3L281.6,246.3z M291.4,248.5v-2h-3.6v-0.9l3.8-5.4h0.8v5.4h1.1v0.9h-1.1v2H291.4z M291.4,245.6
		v-3.8l-2.6,3.8H291.4z"/>
            <path d="M251.8,210.4l1.1-0.1c0,0.4,0.2,0.9,0.6,1.2c0.3,0.3,0.7,0.4,1.1,0.4c0.5,0,0.9-0.2,1.3-0.6c0.4-0.4,0.5-0.9,0.5-1.5
		c0-0.5-0.1-1-0.5-1.4c-0.3-0.3-0.8-0.5-1.3-0.5c-0.3,0-0.6,0.1-0.9,0.2c-0.2,0.1-0.5,0.3-0.6,0.6l-1-0.1l0.8-4.3h4.2v1h-3.3
		l-0.4,2.3c0.5-0.3,1-0.5,1.6-0.5c0.7,0,1.4,0.3,1.9,0.8c0.5,0.5,0.8,1.2,0.8,1.9c0,0.7-0.2,1.4-0.7,2c-1,1.2-2.8,1.3-4,0.4
		C252.1,211.8,251.8,211.1,251.8,210.4L251.8,210.4z M258.3,208.5c0-0.8,0.1-1.6,0.3-2.4c0.2-0.5,0.5-1,0.9-1.4
		c0.4-0.3,1-0.5,1.5-0.5c0.4,0,0.8,0.1,1.2,0.3c0.3,0.2,0.6,0.5,0.8,0.8c0.2,0.4,0.4,0.8,0.5,1.3c0.1,0.7,0.2,1.3,0.2,2
		c0,0.8-0.1,1.6-0.3,2.4c-0.2,0.5-0.5,1-0.9,1.4c-1.1,0.8-2.5,0.6-3.4-0.4C258.5,210.9,258.2,209.7,258.3,208.5L258.3,208.5z
		 M259.3,208.5c-0.1,0.9,0.1,1.9,0.5,2.7c0.4,0.7,1.2,0.9,1.9,0.5c0,0,0,0,0,0c0.2-0.1,0.4-0.3,0.5-0.5c0.6-1.8,0.6-3.7,0-5.5
		c-0.3-0.4-0.7-0.7-1.2-0.7c-0.5,0-0.9,0.2-1.1,0.6C259.4,206.6,259.2,207.5,259.3,208.5L259.3,208.5z"/>
            <path d="M188.6,249.2v-2H185v-0.9l3.8-5.4h0.8v5.4h1.1v0.9h-1.1v2H188.6z M188.6,246.3v-3.8l-2.6,3.8H188.6z M191.8,242v-1h5.4v0.8
		c-0.6,0.7-1.1,1.4-1.6,2.3c-0.5,0.9-0.9,1.9-1.2,2.9c-0.2,0.8-0.3,1.5-0.4,2.3h-1c0-0.8,0.2-1.6,0.4-2.4c0.2-0.9,0.6-1.8,1.1-2.7
		c0.4-0.8,0.9-1.5,1.5-2.1L191.8,242z"/>
            <path d="M157.1,249.6v-2h-3.6v-0.9l3.8-5.4h0.8v5.4h1.1v0.9h-1.1v2H157.1z M157.1,246.7v-3.8l-2.6,3.8H157.1z M160.3,247.4l1.1-0.1
		c0,0.4,0.2,0.9,0.6,1.2c0.3,0.3,0.6,0.4,1,0.4c0.5,0,0.9-0.2,1.3-0.6c0.4-0.4,0.5-0.9,0.5-1.5c0-0.5-0.1-1-0.5-1.4
		c-0.3-0.3-0.8-0.5-1.2-0.5c-0.3,0-0.6,0.1-0.9,0.2c-0.3,0.1-0.5,0.3-0.6,0.6l-1-0.1l0.8-4.3h4.1v1h-3.3l-0.4,2.3
		c0.5-0.3,1-0.5,1.6-0.5c0.7,0,1.4,0.3,1.9,0.8c0.5,0.5,0.8,1.2,0.8,1.9c0,0.7-0.2,1.4-0.7,2c-1,1.2-2.8,1.3-4.1,0.4
		C160.6,248.8,160.3,248.1,160.3,247.4L160.3,247.4z"/>
            <path d="M372.5,211.4l1.1-0.1c0,0.4,0.2,0.9,0.5,1.2c0.3,0.3,0.7,0.4,1.1,0.4c0.5,0,0.9-0.2,1.3-0.6c0.4-0.4,0.5-0.9,0.5-1.5
		c0-0.5-0.1-1-0.5-1.4c-0.3-0.3-0.8-0.5-1.3-0.5c-0.3,0-0.6,0.1-0.9,0.2c-0.3,0.1-0.5,0.3-0.6,0.6l-1-0.1l0.8-4.3h4.2v1h-3.3
		l-0.5,2.3c0.5-0.3,1-0.5,1.6-0.5c0.7,0,1.4,0.3,1.9,0.8c0.5,0.5,0.8,1.2,0.8,1.9c0,0.7-0.2,1.4-0.7,2c-1,1.2-2.8,1.3-4,0.4
		C372.8,212.7,372.5,212.1,372.5,211.4L372.5,211.4z M379.1,211.6l1-0.1c0,0.4,0.2,0.7,0.5,1c0.3,0.2,0.6,0.3,0.9,0.3
		c0.3,0,0.6-0.1,0.8-0.2c0.2-0.1,0.4-0.3,0.6-0.6c0.2-0.3,0.3-0.6,0.4-1c0.1-0.4,0.1-0.8,0.1-1.3v-0.2c-0.2,0.3-0.5,0.6-0.8,0.8
		c-1,0.5-2.2,0.4-2.9-0.4c-0.5-0.5-0.8-1.3-0.7-2c0-0.7,0.2-1.5,0.8-2c0.5-0.5,1.2-0.8,1.9-0.8c1.1,0,2.1,0.7,2.5,1.7
		c0.3,0.8,0.4,1.6,0.4,2.4c0,0.9-0.1,1.7-0.4,2.6c-0.2,0.6-0.5,1.1-1,1.4c-0.5,0.3-1,0.5-1.6,0.5c-0.6,0-1.2-0.2-1.6-0.5
		C379.5,212.8,379.2,212.2,379.1,211.6L379.1,211.6z M383.3,207.9c0-0.5-0.1-1-0.5-1.4c-0.3-0.3-0.7-0.5-1.1-0.5
		c-0.5,0-0.9,0.2-1.2,0.6c-0.4,0.4-0.5,0.9-0.5,1.4c0,0.5,0.2,0.9,0.5,1.3c0.3,0.3,0.7,0.5,1.2,0.5c0.4,0,0.9-0.2,1.2-0.5
		C383.2,208.9,383.3,208.4,383.3,207.9L383.3,207.9z"/>
            <path d="M377,242.4l-1,0.1c-0.1-0.3-0.2-0.6-0.4-0.9c-0.3-0.3-0.6-0.4-1-0.4c-0.3,0-0.6,0.1-0.9,0.3c-0.3,0.3-0.6,0.6-0.8,1
		c-0.2,0.6-0.3,1.3-0.3,1.9c0.4-0.7,1.2-1.1,2-1.1c0.7,0,1.3,0.3,1.8,0.8c0.5,0.5,0.8,1.3,0.7,2c0,0.5-0.1,1-0.3,1.5
		c-0.2,0.4-0.5,0.8-0.9,1c-0.4,0.2-0.9,0.4-1.3,0.4c-0.8,0-1.6-0.3-2.1-0.9c-0.6-0.9-0.9-2-0.8-3.1c-0.1-1.2,0.2-2.5,0.9-3.5
		c0.5-0.6,1.3-1,2.1-1c0.6,0,1.2,0.2,1.6,0.6C376.7,241.3,377,241.9,377,242.4z M372.8,246.1c0,0.3,0.1,0.7,0.2,1
		c0.1,0.3,0.4,0.6,0.6,0.7c0.3,0.2,0.5,0.3,0.9,0.3c0.4,0,0.8-0.2,1.1-0.5c0.3-0.4,0.5-0.9,0.5-1.4c0-0.5-0.1-1-0.5-1.4
		c-0.3-0.3-0.7-0.5-1.2-0.5c-0.4,0-0.9,0.2-1.2,0.5C373,245.1,372.8,245.6,372.8,246.1L372.8,246.1z M378.2,244.6
		c0-0.8,0.1-1.6,0.3-2.4c0.2-0.5,0.5-1,0.9-1.4c0.4-0.3,1-0.5,1.5-0.5c0.4,0,0.8,0.1,1.2,0.3c0.3,0.2,0.6,0.5,0.8,0.8
		c0.2,0.4,0.4,0.8,0.5,1.3c0.1,0.7,0.2,1.3,0.2,2c0,0.8-0.1,1.6-0.3,2.4c-0.2,0.5-0.5,1-0.9,1.4c-1.1,0.8-2.5,0.6-3.4-0.4
		C378.4,247.1,378.1,245.9,378.2,244.6L378.2,244.6z M379.2,244.6c-0.1,0.9,0.1,1.9,0.5,2.7c0.4,0.7,1.2,0.9,1.9,0.5
		c0.2-0.1,0.4-0.3,0.5-0.5c0.6-1.8,0.6-3.7,0-5.5c-0.3-0.4-0.7-0.7-1.2-0.7c-0.5,0-0.9,0.2-1.1,0.6
		C379.3,242.7,379.1,243.7,379.2,244.6L379.2,244.6z"/>
            <path d="M341.9,211.2l1.1-0.1c0,0.4,0.2,0.9,0.5,1.2c0.3,0.3,0.7,0.4,1.1,0.4c0.5,0,0.9-0.2,1.3-0.6c0.3-0.4,0.5-0.9,0.5-1.5
		c0-0.5-0.1-1-0.5-1.4c-0.3-0.3-0.8-0.5-1.3-0.5c-0.3,0-0.6,0.1-0.9,0.2c-0.3,0.1-0.5,0.3-0.6,0.6l-1-0.1l0.8-4.3h4.1v1h-3.3
		l-0.5,2.3c0.5-0.3,1-0.5,1.6-0.5c0.7,0,1.4,0.3,1.9,0.8c0.5,0.5,0.8,1.3,0.8,2c0,0.7-0.2,1.4-0.7,2c-1,1.2-2.8,1.3-4,0.4
		c-0.5-0.4-0.8-1-0.8-1.7L341.9,211.2z M353.7,207.1l-1,0.1c-0.1-0.3-0.2-0.6-0.4-0.9c-0.3-0.3-0.6-0.4-1-0.4
		c-0.3,0-0.6,0.1-0.9,0.3c-0.3,0.3-0.6,0.6-0.8,1c-0.2,0.6-0.3,1.3-0.3,1.9c0.2-0.4,0.5-0.6,0.9-0.8c0.3-0.2,0.7-0.3,1.1-0.3
		c0.7,0,1.3,0.3,1.8,0.8c0.5,0.5,0.8,1.3,0.7,2c0,0.5-0.1,1-0.3,1.5c-0.2,0.4-0.5,0.8-0.9,1c-0.4,0.2-0.9,0.4-1.4,0.4
		c-0.8,0-1.6-0.3-2.1-0.9c-0.6-0.9-0.9-2-0.8-3.1c-0.1-1.2,0.2-2.5,0.9-3.5c0.5-0.6,1.3-1,2.1-1c0.6,0,1.2,0.2,1.6,0.6
		C353.4,205.9,353.7,206.5,353.7,207.1L353.7,207.1z M349.5,210.7c0,0.3,0.1,0.7,0.2,1c0.1,0.3,0.3,0.6,0.6,0.7
		c0.3,0.2,0.5,0.3,0.9,0.3c0.4,0,0.8-0.2,1.1-0.5c0.3-0.4,0.5-0.9,0.5-1.4c0-0.5-0.1-1-0.5-1.4c-0.3-0.3-0.7-0.5-1.2-0.5
		c-0.4,0-0.9,0.2-1.2,0.5C349.7,209.7,349.5,210.2,349.5,210.7L349.5,210.7z"/>
            <path d="M467.9,171.8l-1,0.1c-0.1-0.3-0.2-0.6-0.4-0.9c-0.3-0.3-0.6-0.4-1-0.4c-0.3,0-0.6,0.1-0.9,0.3c-0.3,0.3-0.6,0.6-0.8,1
		c-0.2,0.6-0.3,1.3-0.3,1.9c0.4-0.7,1.2-1.1,2-1.1c0.7,0,1.3,0.3,1.8,0.8c0.5,0.5,0.8,1.3,0.7,2c0,0.5-0.1,1-0.3,1.5
		c-0.2,0.4-0.5,0.8-0.9,1c-0.4,0.2-0.9,0.4-1.3,0.4c-0.8,0-1.6-0.3-2.1-0.9c-0.6-0.9-0.9-2-0.8-3.1c-0.1-1.2,0.2-2.5,0.9-3.5
		c0.5-0.6,1.3-1,2.1-1c0.6,0,1.2,0.2,1.6,0.6C467.6,170.6,467.9,171.1,467.9,171.8L467.9,171.8z M463.7,175.4c0,0.3,0.1,0.7,0.2,1
		c0.1,0.3,0.4,0.6,0.6,0.7c0.3,0.2,0.5,0.3,0.9,0.3c0.4,0,0.8-0.2,1.1-0.5c0.3-0.4,0.5-0.9,0.5-1.4c0-0.5-0.1-1-0.5-1.4
		c-0.3-0.3-0.7-0.5-1.2-0.5c-0.4,0-0.9,0.2-1.2,0.5C463.9,174.4,463.7,174.9,463.7,175.4L463.7,175.4z M474.4,171.8l-1,0.1
		c-0.1-0.3-0.2-0.6-0.4-0.9c-0.3-0.3-0.6-0.4-1-0.4c-0.3,0-0.6,0.1-0.9,0.3c-0.3,0.3-0.6,0.6-0.8,1c-0.2,0.6-0.3,1.3-0.3,1.9
		c0.2-0.4,0.5-0.6,0.9-0.8c0.3-0.2,0.7-0.3,1.1-0.3c0.7,0,1.3,0.3,1.8,0.8c0.5,0.5,0.8,1.3,0.7,2c0,0.5-0.1,1-0.3,1.5
		c-0.2,0.4-0.5,0.8-0.9,1c-0.4,0.2-0.9,0.4-1.4,0.4c-0.8,0-1.6-0.3-2.1-0.9c-0.6-0.9-0.9-2-0.8-3.1c-0.1-1.2,0.2-2.5,0.9-3.5
		c0.5-0.6,1.3-1,2.1-1c0.6,0,1.2,0.2,1.6,0.6C474.1,170.6,474.4,171.2,474.4,171.8L474.4,171.8z M470.2,175.4c0,0.3,0.1,0.7,0.2,1
		c0.1,0.3,0.4,0.6,0.6,0.7c0.3,0.2,0.5,0.3,0.9,0.3c0.4,0,0.8-0.2,1.1-0.5c0.3-0.4,0.5-0.9,0.5-1.4c0-0.5-0.1-1-0.5-1.4
		c-0.3-0.3-0.7-0.5-1.2-0.5c-0.4,0-0.9,0.2-1.2,0.5C470.4,174.4,470.2,174.9,470.2,175.4L470.2,175.4z"/>
            <path d="M467.8,242.5l-1,0.1c-0.1-0.3-0.2-0.6-0.4-0.9c-0.3-0.3-0.6-0.4-1-0.4c-0.3,0-0.6,0.1-0.9,0.3c-0.3,0.3-0.6,0.6-0.8,1
		c-0.2,0.6-0.3,1.3-0.3,1.9c0.4-0.7,1.2-1.1,2-1.1c0.7,0,1.3,0.3,1.8,0.8c0.5,0.5,0.8,1.2,0.7,1.9c0,0.5-0.1,1-0.3,1.5
		c-0.2,0.4-0.5,0.8-0.9,1c-1.1,0.6-2.6,0.4-3.4-0.6c-0.6-0.9-0.9-2-0.8-3.1c-0.1-1.2,0.2-2.5,0.9-3.5c0.5-0.6,1.3-1,2.1-1
		c1.2-0.1,2.3,0.9,2.4,2.1L467.8,242.5z M463.6,246.1c0,0.3,0.1,0.7,0.2,1c0.1,0.3,0.4,0.6,0.6,0.7c0.3,0.2,0.5,0.3,0.9,0.3
		c0.4,0,0.8-0.2,1.1-0.5c0.3-0.4,0.5-0.9,0.5-1.4c0-0.5-0.1-1-0.5-1.4c-0.3-0.3-0.7-0.5-1.2-0.5c-0.4,0-0.9,0.2-1.2,0.5
		C463.8,245.1,463.6,245.6,463.6,246.1L463.6,246.1z M470.6,244.3c-0.4-0.1-0.7-0.4-1-0.7c-0.2-0.3-0.3-0.6-0.3-1
		c0-0.6,0.2-1.1,0.6-1.5c0.5-0.4,1.1-0.7,1.7-0.6c0.6,0,1.3,0.2,1.8,0.6c0.4,0.4,0.7,1,0.7,1.5c0,0.4-0.1,0.7-0.3,1
		c-0.2,0.3-0.6,0.5-0.9,0.7c0.5,0.1,0.9,0.4,1.2,0.8c0.3,0.4,0.4,0.9,0.4,1.3c0,0.7-0.3,1.3-0.8,1.8c-1.2,1-2.8,1-4,0
		c-0.5-0.5-0.8-1.1-0.8-1.8c0-0.5,0.1-1,0.4-1.4C469.6,244.6,470,244.4,470.6,244.3L470.6,244.3z M470.4,242.5c0,0.4,0.1,0.7,0.4,1
		c0.3,0.3,0.6,0.4,1,0.4c0.4,0,0.7-0.1,1-0.4c0.5-0.5,0.5-1.3,0-1.9c-0.3-0.3-0.6-0.4-1-0.4c-0.4,0-0.7,0.1-1,0.4
		C470.5,241.9,470.3,242.2,470.4,242.5L470.4,242.5z M470,246.4c0,0.3,0.1,0.6,0.2,0.9c0.1,0.3,0.4,0.5,0.6,0.6
		c0.3,0.2,0.6,0.2,0.9,0.2c0.5,0,0.9-0.2,1.2-0.5c0.6-0.7,0.6-1.7,0-2.4c-0.3-0.3-0.8-0.5-1.2-0.5c-0.9,0-1.7,0.7-1.7,1.6
		C470,246.3,470,246.3,470,246.4L470,246.4L470,246.4z"/>
            <path d="M437.7,206.4l-1,0.1c-0.1-0.3-0.2-0.6-0.4-0.9c-0.3-0.3-0.6-0.4-1-0.4c-0.3,0-0.6,0.1-0.9,0.3c-0.3,0.3-0.6,0.6-0.8,1
		c-0.2,0.6-0.3,1.3-0.3,1.9c0.4-0.7,1.2-1.1,2-1.1c0.7,0,1.3,0.3,1.8,0.8c0.5,0.5,0.8,1.3,0.7,2c0,0.5-0.1,1-0.3,1.5
		c-0.2,0.4-0.5,0.8-0.9,1c-0.4,0.2-0.9,0.4-1.3,0.4c-0.8,0-1.6-0.3-2.1-0.9c-0.6-0.9-0.9-2-0.8-3.1c-0.1-1.2,0.2-2.5,0.9-3.5
		c0.5-0.6,1.3-1,2.1-1c0.6,0,1.2,0.2,1.6,0.6C437.4,205.3,437.7,205.8,437.7,206.4L437.7,206.4z M433.5,210.1c0,0.3,0.1,0.7,0.2,1
		c0.1,0.3,0.4,0.6,0.6,0.7c0.3,0.2,0.5,0.3,0.9,0.3c0.4,0,0.8-0.2,1.1-0.5c0.3-0.4,0.5-0.9,0.5-1.4c0-0.5-0.1-1-0.5-1.4
		c-0.3-0.3-0.7-0.5-1.2-0.5c-0.4,0-0.9,0.2-1.2,0.5C433.7,209.1,433.5,209.5,433.5,210.1L433.5,210.1z M442.1,212.8v-2h-3.6v-0.9
		l3.8-5.4h0.8v5.4h1.1v0.9h-1.1v2H442.1z M442.1,209.8v-3.8l-2.6,3.8H442.1z"/>
            <path d="M393.2,61.8l-1,0.1c-0.1-0.3-0.2-0.6-0.4-0.9c-0.3-0.3-0.6-0.4-1-0.4c-0.3,0-0.6,0.1-0.9,0.3c-0.3,0.3-0.6,0.6-0.8,1
		c-0.2,0.6-0.3,1.3-0.3,1.9c0.4-0.7,1.2-1.1,2-1.1c0.7,0,1.3,0.3,1.8,0.8c0.5,0.5,0.8,1.3,0.7,2c0,0.5-0.1,1-0.3,1.5
		c-0.2,0.4-0.5,0.8-0.9,1c-0.4,0.2-0.9,0.4-1.3,0.4c-0.8,0-1.6-0.3-2.1-0.9c-0.6-0.9-0.9-2-0.8-3.1c-0.1-1.2,0.2-2.5,0.9-3.5
		c0.5-0.6,1.3-1,2.1-1c0.6,0,1.2,0.2,1.6,0.6C392.9,60.7,393.1,61.3,393.2,61.8z M389,65.4c0,0.3,0.1,0.7,0.2,1
		c0.1,0.3,0.4,0.6,0.6,0.7c0.3,0.2,0.5,0.3,0.9,0.3c0.4,0,0.8-0.2,1.1-0.5c0.3-0.4,0.5-0.9,0.5-1.4c0-0.5-0.1-1-0.5-1.4
		c-0.3-0.3-0.7-0.5-1.2-0.5c-0.4,0-0.9,0.2-1.2,0.5C389.2,64.5,389,64.9,389,65.4L389,65.4z M398.2,68.2h-1v-6.5
		c-0.3,0.3-0.6,0.5-1,0.7c-0.3,0.2-0.7,0.4-1.1,0.5v-1c0.5-0.3,1-0.6,1.5-1c0.4-0.3,0.7-0.7,0.9-1.1h0.7L398.2,68.2z"/>
            <g id="PDF_Text_6">
		<path d="M694.7,295.3v-1h5.4v0.8c-0.6,0.7-1.2,1.4-1.6,2.3c-0.5,0.9-0.9,1.9-1.2,2.9c-0.2,0.7-0.4,1.5-0.4,2.3h-1
			c0-0.8,0.2-1.6,0.4-2.4c0.2-0.9,0.6-1.8,1.1-2.7c0.4-0.8,0.9-1.5,1.5-2.2L694.7,295.3z M706.5,301.5v1H701c0-0.2,0-0.5,0.1-0.7
			c0.2-0.4,0.4-0.8,0.7-1.1c0.4-0.5,0.9-0.9,1.3-1.3c0.7-0.5,1.3-1.1,1.8-1.8c0.3-0.3,0.5-0.8,0.5-1.2c0-0.4-0.2-0.7-0.4-1
			c-0.7-0.6-1.7-0.6-2.3,0c-0.3,0.3-0.5,0.8-0.5,1.2l-1.1-0.1c0-0.7,0.3-1.3,0.8-1.8c0.5-0.4,1.2-0.7,1.9-0.6c0.7,0,1.4,0.2,1.9,0.7
			c0.5,0.4,0.7,1,0.7,1.6c0,0.3-0.1,0.7-0.2,1c-0.2,0.4-0.4,0.7-0.7,1c-0.5,0.5-1,1-1.6,1.5c-0.4,0.3-0.8,0.7-1.2,1
			c-0.2,0.2-0.3,0.4-0.4,0.5L706.5,301.5z"/>
	</g>
</g>
</svg>
