<?xml version="1.0" encoding="utf-8"?>
<!-- Generator: Adobe Illustrator 23.0.3, SVG Export Plug-In . SVG Version: 6.00 Build 0)  -->
<svg version="1.1" id="Layer_1" xmlns="http://www.w3.org/2000/svg" xmlns:xlink="http://www.w3.org/1999/xlink" x="0px" y="0px"
     viewBox="0 0 761 298.3" style="enable-background:new 0 0 761 298.3;" xml:space="preserve">
<style type="text/css">
	.st0{fill:none;stroke:#989898;stroke-width:0.72;stroke-linecap:round;stroke-linejoin:round;}
	.st1{fill:none;stroke:#989898;stroke-width:0.24;stroke-linecap:round;stroke-linejoin:round;}
	.st2{fill:#989898;}
	.st3{fill:none;stroke:#989898;stroke-width:0.84;stroke-linecap:round;stroke-linejoin:round;}
	.st4{fill:none;stroke:#989898;stroke-width:0.48;stroke-linecap:round;stroke-linejoin:round;}
</style>
      <title>C2_27DEZ21</title>
      <g id="Capa_1">
	<g id="A_POSIÇÕES_TRABALHO">
		<path class="st0" d="M670.4,220.5c-15.6-4.8-32.5-0.5-43.8,11.3"/>
          <path class="st0" d="M649.8,148.8c3.5,15.9,15.8,28.5,31.6,32.4"/>
          <path class="st0" d="M628.1,154.3l-17.8,4.6"/>
          <path class="st0" d="M598.2,202.2c12-11,16.7-27.8,12.2-43.4"/>
          <path class="st0" d="M707.4,230.9c10.9,3,22.2-3.3,25.2-14.2c3-10.8-3.3-22.1-14.1-25.2"/>
          <path class="st0" d="M712.9,211.2L676,200.8"/>
          <path class="st0" d="M681.5,181.2l-11.2,39.4l37,10.4l5.7-19.8l5.5-19.7"/>
          <path class="st0" d="M570.6,229c-7.9,8.1-7.8,21,0.3,28.9c7.8,7.7,20.3,7.8,28.3,0.4"/>
          <path class="st0" d="M626.6,231.6l-27.5,26.8l-28.6-29.3"/>
          <path class="st0" d="M637.8,192.1l-53,51.6"/>
          <path class="st0" d="M598.1,202.3l-27.5,26.8"/>
          <path class="st0" d="M610.2,158.9l39.7-10.1"/>
          <path class="st0" d="M650,148.7c-2.9-10.9-14.2-17.4-25.1-14.5c-10.7,2.9-17.2,13.7-14.6,24.5"/>
          <path class="st0" d="M630,153.8l7.8,38.3l38.2,8.5"/>
          <path class="st0" d="M718.3,191.6l-36.8-10.4"/>
          <path class="st0" d="M625.7,232.6L597,203.2"/>
	</g>
            <g id="A_POSIÇÕES_TRABALHO_1">
		<path class="st0" d="M759.8,4.7H724"/>
                  <path class="st0" d="M722.5,4.7h-36"/>
                  <path class="st0" d="M685.1,4.7h-36.5"/>
                  <path class="st0" d="M647,4.7h-36.2"/>
                  <path class="st0" d="M609.4,4.7h-35.9"/>
                  <path class="st0" d="M571.9,4.7h-36.5"/>
                  <path class="st0" d="M533.9,4.7h-36.4"/>
                  <path class="st0" d="M496.1,4.7h-36"/>
                  <path class="st0" d="M458.6,4.7h-36.5"/>
                  <path class="st0" d="M420.6,4.7h-35.9"/>
                  <path class="st0" d="M383.2,4.7h-36.5"/>
                  <path class="st0" d="M345.2,4.7h-36.4"/>
                  <path class="st0" d="M307.3,4.7h-35.9"/>
                  <path class="st0" d="M269.9,4.7H234"/>
                  <path class="st0" d="M232.4,4.7H196"/>
                  <path class="st0" d="M194.5,4.7h-36"/>
                  <path class="st0" d="M157.1,4.7h-36.5"/>
                  <path class="st0" d="M119,4.7H82.6"/>
                  <path class="st0" d="M81,4.7H45.1"/>
                  <path class="st0" d="M43.7,4.7h-36"/>
                  <path class="st0" d="M6.2,4.7H0.4"/>
                  <path class="st0" d="M442.8,194h-3.5"/>
                  <path class="st0" d="M164.2,197v101"/>
                  <path class="st0" d="M44.9,108.1H48"/>
                  <path class="st0" d="M48,5h-2.9"/>
                  <path class="st0" d="M48.4,138h-3.2v3.8"/>
                  <path class="st0" d="M48,141.8V138"/>
                  <path class="st0" d="M533.6,40.2h40.1"/>
                  <path class="st0" d="M536.4,5h-2.8"/>
                  <path class="st0" d="M573.7,5h-2.9"/>
                  <path class="st0" d="M310.2,5h-2.9v35.2"/>
                  <path class="st0" d="M347.5,5h-2.9"/>
                  <path class="st0" d="M85.7,5h-2.9v35.8h38"/>
                  <path class="st0" d="M120.8,5H118"/>
                  <path class="st0" d="M7,0.4H0.4"/>
                  <path class="st0" d="M0.4,0.7H7V0.4"/>
                  <path class="st1" d="M7.7,0.7H6.2V5h1.4V0.7"/>
                  <path class="st0" d="M44.4,0.4H7v0.4h37.4V0.4"/>
                  <path class="st1" d="M45.1,0.7h-1.4V5h1.4V0.7"/>
                  <path class="st0" d="M81.8,0.4H44.4v0.4h37.4V0.4"/>
                  <path class="st1" d="M82.6,0.7H81V5h1.6V0.7"/>
                  <path class="st0" d="M119.8,0.4H81.8v0.4h37.9L119.8,0.4"/>
                  <path class="st1" d="M120.6,0.7H119V5h1.6L120.6,0.7"/>
                  <path class="st0" d="M157.8,0.4h-38v0.4h38V0.4"/>
                  <path class="st1" d="M158.5,0.7h-1.4V5h1.4V0.7"/>
                  <path class="st0" d="M195.2,0.4h-37.4v0.4h37.4V0.4"/>
                  <path class="st1" d="M196,0.7h-1.4V5h1.4V0.7"/>
                  <path class="st0" d="M233.3,0.4h-38v0.4h38V0.4"/>
                  <path class="st1" d="M234,0.7h-1.6V5h1.6V0.7"/>
                  <path class="st0" d="M270.7,0.4h-37.4v0.4h37.4V0.4"/>
                  <path class="st1" d="M271.4,0.7h-1.6V5h1.6V0.7"/>
                  <path class="st0" d="M308,0.4h-37.3v0.4H308V0.4"/>
                  <path class="st1" d="M308.9,0.7h-1.6V5h1.6V0.7"/>
                  <path class="st0" d="M346,0.4h-38v0.4h38V0.4"/>
                  <path class="st1" d="M346.7,0.7h-1.4V5h1.4V0.7"/>
                  <path class="st0" d="M384,0.4h-38v0.4h38V0.4"/>
                  <path class="st1" d="M384.7,0.7h-1.6V5h1.6V0.7"/>
                  <path class="st0" d="M421.3,0.4H384v0.4h37.3V0.4"/>
                  <path class="st1" d="M422.2,0.7h-1.6V5h1.6V0.7"/>
                  <path class="st0" d="M459.4,0.4h-38v0.4h38V0.4"/>
                  <path class="st1" d="M460.1,0.7h-1.4V5h1.4V0.7"/>
                  <path class="st0" d="M496.8,0.4h-37.4v0.4h37.4V0.4"/>
                  <path class="st1" d="M497.5,0.7h-1.4V5h1.4V0.7"/>
                  <path class="st0" d="M534.6,0.4h-37.8v0.4h37.8V0.4"/>
                  <path class="st1" d="M535.4,0.7h-1.6V5h1.6V0.7"/>
                  <path class="st0" d="M572.6,0.4h-38v0.4h38V0.4"/>
                  <path class="st1" d="M573.5,0.7h-1.6V5h1.6V0.7"/>
                  <path class="st0" d="M610.1,0.4h-37.4v0.4h37.4V0.4"/>
                  <path class="st1" d="M610.8,0.7h-1.4V5h1.4V0.7"/>
                  <path class="st0" d="M647.8,0.4h-37.7v0.4h37.7V0.4"/>
                  <path class="st1" d="M648.6,0.7H647V5h1.6L648.6,0.7"/>
                  <path class="st0" d="M685.8,0.4h-38v0.4h38V0.4"/>
                  <path class="st1" d="M686.5,0.7h-1.4V5h1.4V0.7"/>
                  <path class="st0" d="M723.2,0.4h-37.4v0.4h37.4V0.4"/>
                  <path class="st0" d="M724,0.7h-1.4V5h1.4V0.7"/>
                  <path class="st0" d="M760.7,0.4h-37.4v0.4h37.4"/>
                  <path class="st0" d="M0.4,5h5.9"/>
                  <path class="st0" d="M7.7,5h36"/>
                  <path class="st2" d="M45.1,5h0.4c0-0.2-0.2-0.4-0.4-0.4c-0.2,0-0.4,0.2-0.4,0.4c0,0,0,0,0,0l0,0c0,0.2,0.2,0.4,0.4,0.4l0,0l0,0
			c0.2,0,0.4-0.2,0.4-0.4c0,0,0,0,0,0H45.1z"/>
                  <path class="st0" d="M48,5h33"/>
                  <path class="st0" d="M82.6,5h0.2"/>
                  <path class="st0" d="M85.7,5H118"/>
                  <path class="st0" d="M120.8,5h36.2"/>
                  <path class="st0" d="M158.5,5h36"/>
                  <path class="st0" d="M196,5h36.5"/>
                  <path class="st0" d="M234,5h35.9"/>
                  <path class="st0" d="M271.4,5h35.9"/>
                  <path class="st0" d="M310.2,5h34.4"/>
                  <path class="st0" d="M347.5,5h35.6"/>
                  <path class="st0" d="M384.7,5h35.9"/>
                  <path class="st0" d="M422.2,5h36.5"/>
                  <path class="st0" d="M460.1,5h36"/>
                  <path class="st0" d="M497.5,5h36.1"/>
                  <path class="st0" d="M536.4,5h34.4"/>
                  <path class="st0" d="M573.7,5h35.6"/>
                  <path class="st0" d="M610.8,5H647"/>
                  <path class="st0" d="M648.6,5h36.5"/>
                  <path class="st0" d="M686.5,5h36"/>
                  <path class="st0" d="M724,5h35.9"/>
                  <path class="st0" d="M759.6,10.7H573.7"/>
                  <path class="st0" d="M533.6,10.7H359.9"/>
                  <path class="st0" d="M307,10.7H121.2"/>
                  <path class="st0" d="M82.8,10.7H48.4"/>
                  <path class="st3" d="M439.3,194H49.2"/>
                  <path class="st4" d="M48.5,81.4v32.2h-0.2V81.4H48.5"/>
                  <path class="st0" d="M48.5,110.6V110h1.9v0.7L48.5,110.6"/>
                  <path class="st0" d="M46.3,110.6V110h1.9v0.7L46.3,110.6"/>
                  <path class="st4" d="M48.6,81.4V138"/>
                  <path class="st4" d="M47.4,80h1.2v1.4h-0.1v-1.1h-0.8v1.1h-0.2V80"/>
                  <path class="st4" d="M47.4,138h0.2v1h0.8v-1h0.1v1.3h-1.2V138"/>
                  <path class="st0" d="M759.6,11H573.7"/>
                  <path class="st0" d="M533.6,11H347.5"/>
                  <path class="st0" d="M307,11H121.2"/>
                  <path class="st0" d="M82.8,11H48.4"/>
                  <path class="st0" d="M573.7,5v35.2"/>
                  <path class="st0" d="M533.6,40.2V5"/>
                  <path class="st0" d="M347.5,40.2h-40.2V10.7H307"/>
                  <path class="st0" d="M347.8,10.7h-0.2"/>
                  <path class="st0" d="M347.5,5v35.2"/>
                  <path class="st0" d="M121.2,10.7h-0.4"/>
                  <path class="st0" d="M120.8,5v35.8"/>
                  <path class="st0" d="M44.9,5v103.2"/>
                  <path class="st0" d="M52.7,298V197"/>
                  <path class="st0" d="M49.2,194v104"/>
                  <path class="st0" d="M282,296.3v-99.6"/>
                  <path class="st0" d="M442.8,298V194"/>
                  <path class="st0" d="M0.4,141.8h48V138"/>
                  <path class="st0" d="M48.4,81.4V5"/>
                  <path class="st0" d="M48,81.4h0.2"/>
                  <path class="st0" d="M167.8,197v101"/>
                  <path class="st0" d="M278,298V197"/>
                  <path class="st0" d="M359.9,10.7h-12.1"/>
	</g>
            <g id="A_POSIÇÕES_TRABALHO_2">
		<path class="st2" d="M90.5,254v-12.2h4.3c0.8-0.1,1.6,0.1,2.3,0.3c0.5,0.2,0.9,0.6,1.2,1.1c0.3,0.6,0.5,1.3,0.4,2
			c0,0.8-0.2,1.6-0.7,2.3c-0.5,0.6-1.2,1-2,1.1c0.4,0.3,0.8,0.6,1.1,1c0.4,0.6,0.8,1.3,1.2,2l1.3,2.3h-2.4l-1.5-2.6
			c-0.3-0.6-0.7-1.2-1.1-1.8c-0.2-0.2-0.4-0.4-0.6-0.5c-0.3-0.1-0.7-0.2-1-0.1h-0.4v5.1H90.5z M92.5,247H94c0.6,0,1.2,0,1.8-0.1
			c0.3-0.1,0.5-0.3,0.6-0.5c0.2-0.3,0.2-0.7,0.2-1c0-0.3-0.1-0.7-0.2-0.9c-0.1-0.2-0.4-0.4-0.6-0.5c-0.5-0.1-1.1-0.1-1.6-0.1h-1.5
			L92.5,247L92.5,247z M105.1,254h-1.9v-8.8c-0.7,0.8-1.5,1.4-2.5,1.8v-2.2c0.6-0.3,1.2-0.7,1.7-1.2c0.6-0.5,1-1.2,1.2-1.9h1.6
			L105.1,254z M111.7,254v-2.4h-4.1v-2l4.3-7.8h1.6v7.7h1.2v2.1h-1.2v2.4H111.7z M111.7,249.5v-4.2l-2.3,4.2H111.7z M120.6,254h-1.9
			v-8.8c-0.7,0.8-1.5,1.4-2.5,1.8v-2.2c0.6-0.3,1.2-0.7,1.7-1.2c0.6-0.5,1-1.2,1.2-1.9h1.5V254z"/>
                  <path class="st2" d="M3.5,129.6l2.3-0.3c0.3,1.8,1.1,2.6,2.5,2.6c0.6,0,1.2-0.2,1.6-0.6c0.4-0.3,0.6-0.8,0.6-1.4
			c0-0.6-0.3-1.1-0.8-1.4c-0.7-0.3-1.4-0.5-2.1-0.7c-0.8-0.2-1.5-0.5-2.2-1c-0.5-0.4-0.8-0.8-1.1-1.4c-0.3-0.6-0.4-1.2-0.4-1.8
			c0-0.7,0.2-1.4,0.5-2c0.3-0.6,0.8-1.1,1.4-1.4c0.7-0.3,1.5-0.5,2.3-0.4c1.2-0.1,2.3,0.3,3.1,1.1c0.8,0.8,1.2,2,1.2,3.1l-2.3,0.1
			c0-0.6-0.3-1.1-0.6-1.6c-0.4-0.3-0.9-0.5-1.5-0.4c-0.5,0-1,0.1-1.4,0.4c-0.6,0.4-0.7,1.2-0.2,1.8c0.1,0.1,0.1,0.1,0.2,0.2
			c0.6,0.4,1.4,0.7,2.1,0.9c0.9,0.2,1.7,0.5,2.5,1c0.5,0.4,0.9,0.8,1.2,1.4c0.3,0.7,0.4,1.4,0.4,2.1c0,1.1-0.4,2.2-1.1,3
			c-0.9,0.9-2.2,1.3-3.5,1.2C5.3,134.4,3.8,132.8,3.5,129.6L3.5,129.6z M19.8,134.2h-2.2v-10c-0.8,0.9-1.7,1.6-2.8,2v-2.4
			c0.7-0.3,1.3-0.8,1.9-1.3c0.6-0.6,1.1-1.4,1.4-2.2h1.8V134.2z M27.3,134.2v-2.8h-4.7V129l4.9-8.8h1.8v8.8h1.4v2.3h-1.4v2.8
			L27.3,134.2z M27.3,129v-4.8l-2.6,4.7L27.3,129z M37.5,134.2h-2.2v-10c-0.8,0.9-1.7,1.6-2.8,2v-2.4c0.7-0.3,1.3-0.8,1.9-1.3
			c0.6-0.6,1.1-1.4,1.4-2.2h1.8V134.2z"/>
                  <path class="st2" d="M204.4,255v-12.2h4.3c0.8-0.1,1.6,0.1,2.3,0.3c0.5,0.2,0.9,0.6,1.1,1.1c0.3,0.6,0.5,1.3,0.4,2
			c0,0.8-0.2,1.6-0.7,2.3c-0.5,0.6-1.2,1-2,1.1c0.4,0.3,0.8,0.6,1.1,1c0.4,0.6,0.8,1.3,1.1,2l1.2,2.4H211l-1.5-2.6
			c-0.3-0.6-0.7-1.2-1.1-1.8c-0.2-0.2-0.4-0.4-0.6-0.5c-0.3-0.1-0.7-0.2-1-0.1h-0.4v5H204.4z M206.4,248h1.5c0.6,0,1.2,0,1.8-0.1
			c0.3-0.1,0.5-0.3,0.6-0.5c0.2-0.3,0.2-0.7,0.2-1c0-0.3-0.1-0.7-0.2-0.9c-0.1-0.2-0.4-0.4-0.6-0.5c-0.5-0.1-1.1-0.1-1.6-0.1h-1.6
			V248z M219,255h-1.9v-8.8c-0.7,0.8-1.5,1.4-2.5,1.8v-2.2c0.6-0.3,1.2-0.7,1.7-1.2c0.6-0.5,1-1.2,1.2-1.9h1.5V255z M225.6,255v-2.4
			h-4.1v-2l4.3-7.8h1.6v7.7h1.2v2.1h-1.2v2.4H225.6z M225.6,250.5v-4.2l-2.3,4.2H225.6z M236.1,252.8v2.2h-6.7
			c0.1-0.8,0.3-1.6,0.7-2.3c0.6-1.1,1.3-2,2.2-2.9c0.6-0.6,1.1-1.3,1.6-1.9c0.3-0.5,0.4-1,0.4-1.5c0-0.4-0.1-0.9-0.4-1.2
			c-0.2-0.3-0.6-0.4-0.9-0.4c-0.9,0-1.3,0.6-1.4,1.9l-1.9-0.2c0-1,0.4-2,1-2.7c0.6-0.6,1.4-0.9,2.3-0.9c0.9-0.1,1.8,0.3,2.4,1
			c0.5,0.7,0.8,1.5,0.8,2.3c0,0.5-0.1,1-0.2,1.5c-0.1,0.5-0.4,1-0.6,1.4c-0.4,0.6-0.9,1.3-1.4,1.8c-0.6,0.7-1,1.1-1.2,1.4
			c-0.1,0.2-0.3,0.4-0.4,0.6L236.1,252.8z"/>
                  <path class="st2" d="M344,256.1v-12.2h4.3c0.8-0.1,1.6,0.1,2.3,0.3c0.5,0.2,0.9,0.6,1.1,1.1c0.3,0.6,0.5,1.3,0.5,2
			c0,0.8-0.2,1.6-0.7,2.3c-0.5,0.6-1.2,1-2,1.1c0.4,0.3,0.8,0.6,1.1,1c0.4,0.6,0.8,1.3,1.1,2l1.2,2.4h-2.4l-1.5-2.6
			c-0.3-0.6-0.7-1.2-1.1-1.8c-0.2-0.2-0.4-0.4-0.6-0.5c-0.3-0.1-0.7-0.2-1-0.1H346v5.1L344,256.1z M346,249.1h1.5
			c0.6,0,1.2,0,1.8-0.1c0.3-0.1,0.5-0.3,0.6-0.5c0.2-0.3,0.2-0.7,0.2-1c0-0.3-0.1-0.7-0.2-0.9c-0.1-0.2-0.4-0.4-0.6-0.5
			c-0.5-0.1-1.1-0.1-1.6-0.1H346V249.1L346,249.1z M358.5,256.1h-1.9v-8.8c-0.7,0.8-1.5,1.4-2.5,1.8v-2c0.6-0.3,1.2-0.7,1.7-1.2
			c0.6-0.5,1-1.2,1.2-1.9h1.5L358.5,256.1L358.5,256.1z M365.2,256.1v-2.4h-4.1v-2l4.3-7.8h1.6v7.7h1.2v2.1H367v2.5L365.2,256.1z
			 M365.2,251.6v-4.2l-2.3,4.2H365.2z M369.1,252.8l1.9-0.3c0,0.5,0.2,1,0.5,1.3c0.4,0.5,1.2,0.6,1.7,0.2c0.1-0.1,0.2-0.2,0.3-0.3
			c0.3-0.4,0.4-1,0.4-1.5c0-0.5-0.1-1-0.4-1.4c-0.2-0.3-0.6-0.5-0.9-0.5c-0.3,0-0.6,0.1-0.9,0.2l0.2-1.9c0.4,0,0.8-0.1,1.2-0.4
			c0.3-0.3,0.5-0.7,0.4-1.2c0-0.4-0.1-0.7-0.3-1c-0.2-0.2-0.5-0.4-0.8-0.4c-0.3,0-0.6,0.2-0.8,0.4c-0.3,0.4-0.4,0.8-0.4,1.2
			l-1.8-0.4c0.1-0.9,0.5-1.8,1.1-2.4c0.5-0.5,1.3-0.8,2-0.8c0.8,0,1.6,0.3,2.2,1c0.5,0.6,0.8,1.4,0.8,2.1c0,0.5-0.1,1-0.4,1.4
			c-0.3,0.5-0.6,0.8-1.1,1.1c0.6,0.2,1.1,0.5,1.4,1c0.4,0.6,0.6,1.2,0.5,1.9c0,1-0.3,2-1,2.8c-0.6,0.7-1.5,1.1-2.4,1.1
			c-0.8,0-1.6-0.3-2.2-0.9C369.5,254.7,369.1,253.8,369.1,252.8L369.1,252.8z"/>
                  <path class="st0" d="M52.7,197h111.5"/>
                  <path class="st0" d="M167.8,197H278"/>
                  <path class="st0" d="M282,298V196.7h157.3V298"/>
	</g>
            <g id="A_POSIÇÕES_TRABALHO_3">
		<path class="st0" d="M760.7,0.4H0.4V298h760.3V0.4"/>
	</g>
</g>
      <g id="Asientos">
	<path class="seat" d="M62.5,80.3h20c1.5,0,2.7,1.2,2.8,2.6c0,0,0,0.1,0,0.1v21.9c0,1.5-1.2,2.7-2.7,2.7c0,0,0,0,0,0h-20
		c-1.5,0-2.7-1.2-2.7-2.7c0,0,0,0,0,0V83C59.8,81.5,61.1,80.3,62.5,80.3C62.5,80.3,62.5,80.3,62.5,80.3z" id="seat-2"/>
            <path class="seat" d="M139.7,37.9h20c1.5,0,2.7,1.2,2.7,2.7c0,0,0,0,0,0v21.9c0,1.5-1.2,2.7-2.7,2.7c0,0,0,0,0,0h-20
		c-1.5,0-2.7-1.2-2.7-2.7c0,0,0,0,0,0V40.6C136.9,39.1,138.2,37.9,139.7,37.9C139.7,37.9,139.7,37.9,139.7,37.9z" id="seat-3"/>
            <path class="seat" d="M139.8,70.3h20c1.5,0,2.7,1.2,2.7,2.7c0,0,0,0,0,0v21.9c0,1.5-1.2,2.7-2.7,2.7c0,0,0,0,0,0h-20
		c-1.5,0-2.7-1.2-2.7-2.7c0,0,0,0,0,0V73C137,71.5,138.2,70.3,139.8,70.3C139.7,70.3,139.8,70.3,139.8,70.3z" id="seat-4"/>
            <path class="seat" d="M139.3,102.7h20c1.5,0,2.7,1.2,2.7,2.7c0,0,0,0,0,0v21.9c0,1.5-1.2,2.7-2.7,2.7c0,0,0,0,0,0h-20
		c-1.5,0-2.7-1.2-2.7-2.7c0,0,0,0,0,0v-21.9C136.6,103.9,137.8,102.7,139.3,102.7C139.3,102.7,139.3,102.7,139.3,102.7z" id="seat-5"/>
            <path class="seat" d="M168.2,102.7h20c1.5,0,2.7,1.2,2.7,2.7c0,0,0,0,0,0v21.9c0,1.5-1.2,2.7-2.7,2.7c0,0,0,0,0,0h-20
		c-1.5,0-2.7-1.2-2.7-2.7c0,0,0,0,0,0v-21.9C165.5,103.8,166.7,102.6,168.2,102.7C168.2,102.7,168.2,102.7,168.2,102.7z" id="seat-8"/>
            <path class="seat" d="M168.2,70.3h20c1.5,0,2.7,1.2,2.8,2.6c0,0,0,0,0,0.1v21.8c0,1.5-1.2,2.7-2.7,2.7c0,0,0,0,0,0h-20
		c-1.5,0-2.7-1.2-2.7-2.7c0,0,0,0,0,0V73C165.5,71.5,166.7,70.3,168.2,70.3z" id="seat-7"/>
            <path class="seat" d="M168.4,37.9h20c1.5,0,2.7,1.2,2.7,2.7c0,0,0,0,0,0v21.9c0,1.5-1.2,2.7-2.7,2.7c0,0,0,0,0,0h-20
		c-1.5,0-2.7-1.2-2.7-2.7c0,0,0,0,0,0V40.6C165.6,39.1,166.8,37.9,168.4,37.9C168.3,37.9,168.3,37.9,168.4,37.9z" id="seat-6"/>
            <path class="seat" d="M231.8,37.9h20c1.5,0,2.7,1.2,2.7,2.7c0,0,0,0,0,0v21.9c0,1.5-1.2,2.7-2.7,2.7c0,0,0,0,0,0h-20
		c-1.5,0-2.7-1.2-2.7-2.7c0,0,0,0,0,0V40.6C229,39.1,230.3,37.9,231.8,37.9C231.8,37.9,231.8,37.9,231.8,37.9z" id="seat-9"/>
            <path class="seat" d="M231.9,70.3h20c1.5,0,2.7,1.2,2.7,2.7c0,0,0,0,0,0v21.9c0,1.5-1.2,2.7-2.7,2.7c0,0,0,0,0,0h-20
		c-1.5,0-2.7-1.2-2.7-2.7c0,0,0,0,0,0V73C229.1,71.5,230.4,70.3,231.9,70.3C231.9,70.3,231.9,70.3,231.9,70.3z" id="seat-10"/>
            <path class="seat" d="M231.4,102.7h20c1.5,0,2.7,1.2,2.7,2.7c0,0,0,0,0,0v21.9c0,1.5-1.2,2.7-2.7,2.7c0,0,0,0,0,0h-20
		c-1.5,0-2.7-1.2-2.7-2.7c0,0,0,0,0,0v-21.9C228.7,103.9,229.9,102.7,231.4,102.7C231.4,102.7,231.4,102.7,231.4,102.7z" id="seat-11"/>
            <path class="seat" d="M260.3,102.7h20c1.5,0,2.7,1.2,2.7,2.7c0,0,0,0,0,0v21.9c0,1.5-1.2,2.7-2.7,2.7c0,0,0,0,0,0h-20
		c-1.5,0-2.7-1.2-2.7-2.7c0,0,0,0,0,0v-21.9C257.6,103.9,258.8,102.6,260.3,102.7C260.3,102.6,260.3,102.6,260.3,102.7z" id="seat-14"/>
            <path class="seat" d="M260.3,70.3h20c1.5,0,2.7,1.2,2.8,2.6c0,0,0,0,0,0.1v21.8c0,1.5-1.2,2.7-2.7,2.7c0,0,0,0,0,0h-20
		c-1.5,0-2.7-1.2-2.7-2.7c0,0,0,0,0,0V73C257.6,71.5,258.8,70.3,260.3,70.3z" id="seat-13"/>
            <path class="seat" d="M260.5,37.9h20c1.5,0,2.7,1.2,2.7,2.7c0,0,0,0,0,0v21.9c0,1.5-1.2,2.7-2.7,2.7c0,0,0,0,0,0h-20
		c-1.5,0-2.7-1.2-2.7-2.7c0,0,0,0,0,0V40.6C257.7,39.1,258.9,37.9,260.5,37.9C260.4,37.9,260.4,37.9,260.5,37.9z" id="seat-12"/>
            <path class="seat" d="M421.3,38h20c1.5,0,2.7,1.2,2.7,2.7c0,0,0,0,0,0v21.8c0,1.5-1.2,2.7-2.7,2.7c0,0,0,0,0,0h-20
		c-1.5,0-2.7-1.2-2.7-2.7c0,0,0,0,0,0V40.7C418.6,39.2,419.8,38,421.3,38z" id="seat-19"/>
            <path class="seat" d="M421.4,70.4h20c1.5,0,2.7,1.2,2.7,2.7c0,0,0,0,0,0v21.9c0,1.5-1.2,2.7-2.7,2.7c0,0,0,0,0,0h-20
		c-1.5,0-2.7-1.2-2.7-2.7c0,0,0,0,0,0V73.1C418.7,71.6,419.9,70.4,421.4,70.4C421.4,70.4,421.4,70.4,421.4,70.4z" id="seat-20"/>
            <path class="seat" d="M421,102.7h20c1.5,0,2.7,1.2,2.7,2.7c0,0,0,0,0,0v21.9c0,1.5-1.2,2.7-2.7,2.7c0,0,0,0,0,0h-20
		c-1.5,0-2.7-1.2-2.7-2.7c0,0,0,0,0,0v-21.9C418.3,103.9,419.5,102.7,421,102.7C421,102.7,421,102.7,421,102.7z" id="seat-21"/>
            <path class="seat" d="M449.9,102.7h20c1.5,0,2.7,1.2,2.7,2.7c0,0,0,0,0,0v21.9c0,1.5-1.2,2.7-2.7,2.7c0,0,0,0,0,0h-20
		c-1.5,0-2.7-1.2-2.7-2.7c0,0,0,0,0,0v-21.9C447.2,103.9,448.4,102.7,449.9,102.7C449.9,102.7,449.9,102.7,449.9,102.7z" id="seat-24"/>
            <path class="seat" d="M449.9,70.4h20c1.5,0,2.7,1.2,2.7,2.7c0,0,0,0,0,0v21.9c0,1.5-1.2,2.7-2.7,2.7c0,0,0,0,0,0h-20
		c-1.5,0-2.7-1.2-2.7-2.7c0,0,0,0,0,0V73.1C447.2,71.6,448.4,70.3,449.9,70.4C449.9,70.4,449.9,70.4,449.9,70.4z" id="seat-23"/>
            <path class="seat" d="M450,38h20c1.5,0,2.7,1.2,2.7,2.7c0,0,0,0,0,0v21.8c0,1.5-1.2,2.7-2.7,2.7c0,0,0,0,0,0h-20
		c-1.5,0-2.7-1.2-2.7-2.7c0,0,0,0,0,0V40.7C447.3,39.2,448.5,38,450,38z" id="seat-22"/>
            <path class="seat" d="M334.3,70.4h20c1.5,0,2.7,1.2,2.7,2.7c0,0,0,0,0,0v21.9c0,1.5-1.2,2.7-2.7,2.7c0,0,0,0,0,0h-20
		c-1.5,0-2.7-1.2-2.7-2.7c0,0,0,0,0,0V73.1C331.6,71.6,332.8,70.4,334.3,70.4C334.3,70.4,334.3,70.4,334.3,70.4z" id="seat-15"/>
            <path class="seat" d="M333.9,102.7h20c1.5,0,2.7,1.2,2.7,2.7c0,0,0,0,0,0v21.9c0,1.5-1.2,2.7-2.7,2.7c0,0,0,0,0,0h-20
		c-1.5,0-2.7-1.2-2.7-2.7c0,0,0,0,0,0v-21.9C331.1,103.9,332.4,102.7,333.9,102.7C333.9,102.7,333.9,102.7,333.9,102.7z" id="seat-16"/>
            <path class="seat" d="M362.8,102.7h20c1.5,0,2.7,1.2,2.7,2.7c0,0,0,0,0,0v21.9c0,1.5-1.2,2.7-2.7,2.7c0,0,0,0,0,0h-20
		c-1.5,0-2.7-1.2-2.7-2.7c0,0,0,0,0,0v-21.9C360.1,103.9,361.3,102.7,362.8,102.7C362.8,102.7,362.8,102.7,362.8,102.7z" id="seat-18"/>
            <path class="seat" d="M362.8,70.4h20c1.5,0,2.7,1.2,2.7,2.7c0,0,0,0,0,0v21.9c0,1.5-1.2,2.7-2.7,2.7c0,0,0,0,0,0h-20
		c-1.5,0-2.7-1.2-2.7-2.7c0,0,0,0,0,0V73.1C360.1,71.6,361.3,70.4,362.8,70.4C362.8,70.4,362.8,70.4,362.8,70.4z" id="seat-17"/>
            <path class="seat" d="M532.6,70.4h20c1.5,0,2.7,1.2,2.7,2.7c0,0,0,0,0,0V95c0,1.5-1.2,2.7-2.7,2.7c0,0,0,0,0,0h-20
		c-1.5,0-2.7-1.2-2.7-2.7c0,0,0,0,0,0V73.1C529.8,71.6,531.1,70.4,532.6,70.4C532.6,70.4,532.6,70.4,532.6,70.4z" id="seat-25"/>
            <path class="seat" d="M532.1,102.8h20c1.5,0,2.7,1.2,2.7,2.7c0,0,0,0,0,0v21.9c0,1.5-1.2,2.7-2.7,2.7c0,0,0,0,0,0h-20
		c-1.5,0-2.7-1.2-2.7-2.7c0,0,0,0,0,0v-21.9C529.4,104,530.6,102.8,532.1,102.8C532.1,102.8,532.1,102.8,532.1,102.8z" id="seat-26"/>
            <path class="seat" d="M561,102.8h20c1.5,0,2.7,1.2,2.7,2.7c0,0,0,0,0,0v21.9c0,1.5-1.2,2.7-2.7,2.7c0,0,0,0,0,0h-20
		c-1.5,0-2.7-1.2-2.7-2.7c0,0,0,0,0,0v-21.9C558.3,104,559.5,102.8,561,102.8C561,102.8,561,102.8,561,102.8z" id="seat-28"/>
            <path class="seat" d="M561,70.4h20c1.5,0,2.7,1.2,2.7,2.7c0,0,0,0,0,0V95c0,1.5-1.2,2.7-2.7,2.7c0,0,0,0,0,0h-20
		c-1.5,0-2.7-1.2-2.7-2.7V73.1C558.3,71.7,559.5,70.4,561,70.4z" id="seat-27"/>
            <path class="seat" d="M626.5,46.2h20c1.5,0,2.7,1.2,2.7,2.7c0,0,0,0,0,0v21.9c0,1.5-1.2,2.7-2.7,2.7c0,0,0,0,0,0h-20
		c-1.5,0-2.7-1.2-2.7-2.7c0,0,0,0,0,0V48.9C623.8,47.4,625,46.2,626.5,46.2C626.5,46.2,626.5,46.2,626.5,46.2z" id="seat-29"/>
            <path class="seat" d="M735.8,46.2h20c1.5,0,2.7,1.2,2.7,2.7c0,0,0,0,0,0v21.9c0,1.5-1.2,2.7-2.7,2.7c0,0,0,0,0,0h-20
		c-1.5,0-2.7-1.2-2.7-2.7c0,0,0,0,0,0V48.9C733,47.4,734.3,46.2,735.8,46.2C735.8,46.2,735.8,46.2,735.8,46.2z" id="seat-30"/>
            <path class="seat" d="M642.1,164.9h20c1.5,0,2.7,1.2,2.7,2.7c0,0,0,0,0,0v21.9c0,1.5-1.2,2.7-2.7,2.7c0,0,0,0,0,0h-20
		c-1.5,0-2.7-1.2-2.7-2.7c0,0,0,0,0,0v-21.9C639.4,166.1,640.6,164.9,642.1,164.9C642.1,164.9,642.1,164.9,642.1,164.9z" id="seat-35"/>
            <path class="seat" d="M610.3,170h20c1.5,0,2.7,1.2,2.7,2.7c0,0,0,0,0,0v21.9c0,1.5-1.2,2.7-2.7,2.7c0,0,0,0,0,0h-20
		c-1.5,0-2.7-1.2-2.7-2.7c0,0,0,0,0,0v-21.8C607.5,171.2,608.7,170,610.3,170C610.2,170,610.2,170,610.3,170z" id="seat-33"/>
            <path class="seat" d="M576.8,203h20c1.5,0,2.7,1.2,2.7,2.7c0,0,0,0,0,0v21.9c0,1.5-1.2,2.7-2.7,2.7c0,0,0,0,0,0h-20
		c-1.5,0-2.7-1.2-2.7-2.7c0,0,0,0,0,0v-21.8C574,204.2,575.2,203,576.8,203C576.8,203,576.8,203,576.8,203z" id="seat-31"/>
            <path class="seat" d="M635,196.3h20c1.5,0,2.7,1.2,2.7,2.7c0,0,0,0,0,0v21.9c0,1.5-1.2,2.7-2.7,2.7c0,0,0,0,0,0h-20
		c-1.5,0-2.7-1.2-2.7-2.7c0,0,0,0,0,0V199C632.3,197.5,633.5,196.3,635,196.3C635,196.3,635,196.3,635,196.3z" id="seat-34"/>
            <path class="seat" d="M601,229.7h20c1.5,0,2.7,1.2,2.7,2.7c0,0,0,0,0,0v21.9c0,1.5-1.2,2.7-2.7,2.7c0,0,0,0,0,0h-20
		c-1.5,0-2.7-1.2-2.7-2.7c0,0,0,0,0,0v-21.9C598.3,230.9,599.5,229.7,601,229.7C601,229.7,601,229.7,601,229.7z" id="seat-32"/>
            <path class="seat" d="M673.2,206h20c1.5,0,2.7,1.2,2.7,2.7c0,0,0,0,0,0v21.9c0,1.5-1.2,2.7-2.7,2.7c0,0,0,0,0,0h-20
		c-1.5,0-2.7-1.2-2.7-2.7c0,0,0,0,0,0v-21.9C670.4,207.2,671.7,206,673.2,206z" id="seat-37"/>
            <path class="seat" d="M696.3,177.8h20c1.5,0,2.7,1.2,2.7,2.7c0,0,0,0,0,0v21.9c0,1.5-1.2,2.7-2.7,2.7c0,0,0,0,0,0h-20
		c-1.5,0-2.7-1.2-2.7-2.7c0,0,0,0,0,0v-21.9C693.6,179,694.8,177.8,696.3,177.8C696.3,177.8,696.3,177.8,696.3,177.8z" id="seat-36"/>
</g>
      <g id="Numeros">
	<path d="M66.6,93.3c0-0.8,0.1-1.5,0.3-2.2c0.2-0.5,0.4-1,0.8-1.3c0.4-0.3,0.9-0.5,1.4-0.5c0.4,0,0.8,0.1,1.1,0.3
		c0.3,0.2,0.6,0.4,0.8,0.7c0.2,0.4,0.4,0.8,0.5,1.2c0.1,0.6,0.2,1.2,0.2,1.9c0,0.8-0.1,1.5-0.3,2.2c-0.2,0.5-0.4,1-0.8,1.3
		c-0.4,0.3-0.9,0.5-1.4,0.5c-0.7,0-1.4-0.3-1.8-0.8C66.8,95.6,66.5,94.5,66.6,93.3L66.6,93.3z M67.6,93.3c-0.1,0.9,0,1.8,0.4,2.7
		c0.4,0.6,1.2,0.8,1.8,0.5c0.2-0.1,0.3-0.3,0.5-0.5c0.6-1.7,0.6-3.5,0-5.1c-0.2-0.4-0.7-0.6-1.1-0.6c-0.4,0-0.8,0.2-1.1,0.6
		C67.7,91.6,67.5,92.5,67.6,93.3L67.6,93.3z M77.7,96.3v0.9h-5.2c0-0.2,0-0.4,0.1-0.7c0.2-0.4,0.4-0.7,0.6-1
		c0.4-0.4,0.8-0.8,1.3-1.2c0.6-0.5,1.2-1.1,1.7-1.7c0.3-0.3,0.4-0.7,0.4-1.2c0-0.4-0.1-0.7-0.4-1c-0.3-0.3-0.7-0.4-1.1-0.4
		c-0.4,0-0.8,0.1-1.1,0.4c-0.3,0.3-0.4,0.7-0.4,1.2l-1-0.1c0.1-0.6,0.3-1.2,0.8-1.6c0.5-0.4,1.1-0.6,1.8-0.6c0.7,0,1.3,0.2,1.8,0.6
		c0.4,0.4,0.7,1,0.7,1.6c0,0.3-0.1,0.6-0.2,0.9c-0.2,0.4-0.4,0.7-0.6,1c-0.5,0.5-1,1-1.5,1.4c-0.4,0.3-0.8,0.6-1.1,1
		c-0.2,0.2-0.3,0.3-0.4,0.5L77.7,96.3z"/>
            <path d="M144.2,83.7c0-0.8,0.1-1.5,0.3-2.2c0.2-0.5,0.4-1,0.9-1.3c0.4-0.3,0.9-0.5,1.4-0.5c0.4,0,0.8,0.1,1.1,0.3
		c0.3,0.2,0.6,0.4,0.8,0.7c0.2,0.4,0.4,0.8,0.5,1.2c0.1,0.6,0.2,1.2,0.2,1.9c0,0.8-0.1,1.5-0.3,2.3c-0.2,0.5-0.4,1-0.9,1.3
		c-0.4,0.3-0.9,0.5-1.4,0.5c-0.7,0-1.3-0.3-1.7-0.8C144.4,86,144.1,84.9,144.2,83.7L144.2,83.7z M145.2,83.7
		c-0.1,0.9,0.1,1.8,0.4,2.6c0.2,0.4,0.7,0.6,1.1,0.6c0.5,0,0.9-0.3,1.1-0.7c0.4-0.8,0.5-1.7,0.5-2.6c0.1-0.9-0.1-1.8-0.5-2.6
		c-0.2-0.4-0.7-0.6-1.1-0.6c-0.4,0-0.8,0.2-1.1,0.6C145.3,81.9,145.1,82.8,145.2,83.7z M153.4,87.6v-1.9H150v-0.9l3.6-5.1h0.8v5.1
		h1.1v0.9h-1.1v1.9H153.4z M153.4,84.8v-3.5l-2.5,3.5H153.4z"/>
            <path d="M172.8,84c0-0.8,0.1-1.5,0.3-2.2c0.2-0.5,0.4-1,0.9-1.3c0.4-0.3,0.9-0.5,1.4-0.5c0.4,0,0.8,0.1,1.1,0.3
		c0.3,0.2,0.6,0.4,0.8,0.7c0.2,0.4,0.4,0.7,0.5,1.2c0.1,0.6,0.2,1.2,0.2,1.9c0,0.8-0.1,1.5-0.3,2.2c-0.2,0.5-0.4,1-0.9,1.3
		c-0.4,0.3-0.9,0.5-1.4,0.5c-0.7,0-1.4-0.3-1.8-0.8C172.9,86.2,172.7,85.1,172.8,84L172.8,84z M173.8,84c-0.1,0.9,0.1,1.8,0.4,2.6
		c0.2,0.4,0.7,0.6,1.1,0.6c0.5,0,0.9-0.3,1.1-0.6c0.4-0.8,0.5-1.7,0.5-2.6c0.1-0.9-0.1-1.8-0.5-2.6c-0.2-0.4-0.7-0.6-1.1-0.6
		c-0.4,0-0.8,0.2-1.1,0.6C173.8,82.2,173.7,83.1,173.8,84z M178.9,81v-0.9h5.1v0.7c-0.6,0.6-1.1,1.4-1.5,2.1
		c-0.5,0.8-0.9,1.7-1.1,2.7c-0.2,0.7-0.3,1.4-0.4,2.2h-1c0-0.8,0.2-1.5,0.4-2.2c0.2-0.9,0.6-1.7,1-2.5c0.4-0.7,0.8-1.4,1.4-2
		L178.9,81z"/>
            <path d="M268,55.2h-1V49c-0.3,0.3-0.6,0.5-0.9,0.7c-0.3,0.2-0.7,0.4-1,0.5v-0.9c0.5-0.2,1-0.5,1.4-0.9c0.3-0.3,0.6-0.6,0.9-1h0.6
		L268,55.2L268,55.2z M275.6,54.3v0.9h-5.2c0-0.2,0-0.4,0.1-0.7c0.2-0.4,0.4-0.7,0.6-1c0.4-0.4,0.8-0.8,1.3-1.2
		c0.6-0.5,1.2-1.1,1.7-1.7c0.3-0.3,0.4-0.7,0.5-1.2c0-0.4-0.1-0.7-0.4-1c-0.3-0.3-0.7-0.4-1.1-0.4c-0.4,0-0.8,0.1-1.1,0.4
		c-0.3,0.3-0.4,0.7-0.4,1.2l-1-0.1c0-0.6,0.3-1.2,0.8-1.7c0.5-0.4,1.1-0.6,1.8-0.6c0.7,0,1.3,0.2,1.8,0.6c0.4,0.4,0.7,1,0.7,1.5
		c0,0.3-0.1,0.6-0.2,0.9c-0.2,0.4-0.4,0.7-0.6,1c-0.5,0.5-1,1-1.5,1.4c-0.4,0.3-0.8,0.6-1.1,1c-0.2,0.2-0.3,0.3-0.4,0.5L275.6,54.3z
		"/>
            <path d="M238.9,118.4h-1v-6.1c-0.3,0.3-0.6,0.5-0.9,0.7c-0.3,0.2-0.7,0.4-1,0.5v-0.9c0.5-0.2,1-0.5,1.4-0.9c0.3-0.3,0.6-0.6,0.9-1
		h0.6L238.9,118.4z M245,118.4h-1v-6.1c-0.3,0.3-0.6,0.5-0.9,0.7c-0.3,0.2-0.7,0.4-1,0.5v-0.9c0.5-0.2,1-0.5,1.4-0.9
		c0.3-0.3,0.6-0.6,0.9-1h0.6L245,118.4z"/>
            <path d="M341.6,120.9h-1v-6.1c-0.3,0.3-0.6,0.5-0.9,0.7c-0.3,0.2-0.7,0.4-1,0.5v-1c0.5-0.2,1-0.5,1.4-0.9c0.3-0.3,0.6-0.6,0.9-1
		h0.6L341.6,120.9z M349,115l-1,0.1c0-0.3-0.2-0.6-0.4-0.8c-0.3-0.3-0.6-0.4-1-0.4c-0.3,0-0.6,0.1-0.8,0.3c-0.3,0.3-0.6,0.6-0.7,1
		c-0.2,0.6-0.3,1.2-0.3,1.8c0.4-0.6,1.1-1,1.9-1c0.6,0,1.2,0.2,1.6,0.7c0.5,0.5,0.7,1.2,0.7,1.8c0,0.5-0.1,0.9-0.3,1.4
		c-0.4,0.8-1.2,1.4-2.1,1.3c-0.8,0-1.5-0.3-2-0.9c-0.6-0.9-0.8-1.9-0.8-2.9c-0.1-1.2,0.2-2.3,0.8-3.3c0.5-0.6,1.2-0.9,2-0.9
		c0.6,0,1.1,0.2,1.5,0.5C348.7,114,349,114.5,349,115L349,115z M345.1,118.4c0,0.3,0.1,0.7,0.2,1c0.1,0.3,0.3,0.5,0.6,0.7
		c0.2,0.2,0.5,0.2,0.8,0.2c0.4,0,0.8-0.2,1-0.5c0.3-0.4,0.5-0.8,0.4-1.3c0-0.5-0.1-0.9-0.4-1.3c-0.3-0.3-0.7-0.5-1.1-0.5
		c-0.4,0-0.8,0.2-1.1,0.5C345.2,117.5,345,118,345.1,118.4L345.1,118.4z"/>
            <path d="M370.5,87.9h-1v-6.1c-0.3,0.3-0.6,0.5-0.9,0.7c-0.3,0.2-0.7,0.4-1,0.5v-0.9c0.5-0.2,1-0.5,1.4-0.9c0.3-0.3,0.6-0.6,0.9-1
		h0.6L370.5,87.9L370.5,87.9z M373,81.1v-0.9h5.1v0.7c-0.6,0.6-1.1,1.3-1.5,2.1c-0.5,0.9-0.9,1.8-1.1,2.7c-0.2,0.7-0.3,1.4-0.4,2.2
		h-1c0-0.8,0.2-1.5,0.4-2.2c0.2-0.9,0.6-1.7,1-2.5c0.4-0.7,0.8-1.4,1.4-2L373,81.1z"/>
            <path d="M431.4,86.6v0.9h-5.2c0-0.2,0-0.4,0.1-0.7c0.2-0.4,0.4-0.7,0.6-1c0.4-0.4,0.8-0.8,1.3-1.2c0.6-0.5,1.2-1.1,1.7-1.7
		c0.3-0.3,0.4-0.7,0.5-1.2c0-0.4-0.1-0.7-0.4-1c-0.3-0.3-0.7-0.4-1.1-0.4c-0.4,0-0.8,0.1-1.1,0.4c-0.3,0.3-0.4,0.7-0.4,1.2l-1-0.1
		c0-0.6,0.3-1.3,0.8-1.7c0.5-0.4,1.1-0.6,1.8-0.6c0.7,0,1.3,0.2,1.8,0.6c0.4,0.4,0.7,1,0.7,1.6c0,0.3-0.1,0.6-0.2,0.9
		c-0.2,0.4-0.4,0.7-0.6,1c-0.5,0.5-1,1-1.5,1.4c-0.6,0.5-0.9,0.8-1.1,1c-0.2,0.2-0.3,0.3-0.4,0.5L431.4,86.6z M432.4,83.6
		c0-0.8,0.1-1.5,0.3-2.2c0.2-0.5,0.4-1,0.9-1.3c0.4-0.3,0.9-0.5,1.4-0.5c0.4,0,0.8,0.1,1.1,0.3c0.3,0.2,0.6,0.4,0.8,0.7
		c0.2,0.3,0.4,0.7,0.5,1.1c0.1,0.6,0.2,1.2,0.2,1.9c0,0.8-0.1,1.5-0.3,2.2c-0.2,0.5-0.4,1-0.8,1.3c-0.4,0.3-0.9,0.5-1.4,0.5
		c-0.7,0-1.3-0.3-1.8-0.8C432.6,85.8,432.3,84.7,432.4,83.6L432.4,83.6z M433.4,83.6c-0.1,0.9,0.1,1.8,0.5,2.6
		c0.4,0.6,1.1,0.8,1.8,0.5c0.2-0.1,0.4-0.3,0.5-0.5c0.4-0.8,0.5-1.7,0.5-2.6c0.1-0.9-0.1-1.8-0.5-2.6c-0.2-0.4-0.7-0.6-1.1-0.6
		c-0.4,0-0.8,0.2-1.1,0.6C433.5,81.8,433.3,82.7,433.4,83.6L433.4,83.6z"/>
            <path d="M460,118.6v0.9h-5.2c0-0.2,0-0.4,0.1-0.7c0.2-0.4,0.4-0.7,0.6-1c0.4-0.4,0.8-0.8,1.3-1.2c0.6-0.5,1.2-1,1.7-1.7
		c0.3-0.3,0.4-0.7,0.5-1.2c0-0.4-0.1-0.7-0.4-1c-0.3-0.3-0.7-0.4-1.1-0.4c-0.8,0-1.5,0.6-1.5,1.4c0,0,0,0.1,0,0.1l-1-0.1
		c0-0.6,0.3-1.3,0.8-1.7c0.5-0.4,1.1-0.6,1.8-0.6c0.7,0,1.3,0.2,1.8,0.6c0.4,0.4,0.7,1,0.7,1.6c0,0.3-0.1,0.6-0.2,0.9
		c-0.2,0.4-0.4,0.7-0.6,1c-0.5,0.5-1,1-1.5,1.4c-0.6,0.5-0.9,0.8-1.1,1c-0.2,0.2-0.3,0.3-0.4,0.5L460,118.6z M464.1,119.5v-1.9h-3.4
		v-0.9l3.6-5.1h0.7v5.1h1.1v0.9H465v1.9H464.1z M464.1,116.8v-3.5l-2.5,3.5L464.1,116.8z"/>
            <path d="M542.3,86.7v0.9h-5.2c0-0.2,0-0.4,0.1-0.7c0.2-0.4,0.4-0.7,0.6-1c0.4-0.4,0.8-0.8,1.3-1.2c0.6-0.5,1.2-1,1.7-1.7
		c0.3-0.3,0.4-0.7,0.5-1.2c0-0.4-0.1-0.7-0.4-1c-0.3-0.3-0.7-0.4-1.1-0.4c-0.4,0-0.8,0.1-1.1,0.4c-0.3,0.3-0.4,0.7-0.4,1.2l-1-0.1
		c0-0.6,0.3-1.2,0.7-1.7c0.5-0.4,1.1-0.6,1.8-0.6c0.7,0,1.3,0.2,1.8,0.6c0.4,0.4,0.7,1,0.7,1.6c0,0.3-0.1,0.6-0.2,0.9
		c-0.2,0.4-0.4,0.7-0.6,1c-0.5,0.5-1,0.9-1.5,1.3c-0.6,0.5-0.9,0.8-1.1,1c-0.2,0.2-0.3,0.3-0.4,0.5L542.3,86.7z M543.3,85.5l1-0.1
		c0,0.4,0.2,0.8,0.5,1.1c0.3,0.2,0.6,0.4,1,0.4c0.5,0,0.9-0.2,1.2-0.5c0.3-0.4,0.5-0.9,0.5-1.4c0-0.5-0.1-0.9-0.5-1.3
		c-0.3-0.3-0.8-0.5-1.2-0.5c-0.3,0-0.6,0.1-0.8,0.2c-0.2,0.1-0.4,0.3-0.6,0.6l-0.9-0.1l0.8-4h4v0.9H545l-0.4,2.1
		c0.4-0.3,0.9-0.5,1.5-0.5c0.7,0,1.3,0.2,1.7,0.7c0.5,0.5,0.7,1.1,0.7,1.8c0,0.7-0.2,1.3-0.6,1.8c-0.5,0.6-1.3,1-2.1,1
		c-0.6,0-1.3-0.2-1.7-0.6C543.6,86.8,543.3,86.2,543.3,85.5L543.3,85.5z"/>
            <path d="M571,118.6v0.9h-5.2c0-0.2,0-0.4,0.1-0.7c0.2-0.4,0.4-0.7,0.6-1c0.4-0.4,0.8-0.8,1.3-1.2c0.6-0.5,1.2-1.1,1.7-1.7
		c0.3-0.3,0.4-0.7,0.5-1.2c0-0.4-0.1-0.7-0.4-1c-0.3-0.3-0.7-0.4-1.1-0.4c-0.4,0-0.8,0.1-1.1,0.4c-0.3,0.3-0.4,0.7-0.4,1.2l-1-0.1
		c0-0.6,0.3-1.3,0.8-1.7c0.5-0.4,1.1-0.6,1.8-0.6c0.7,0,1.3,0.2,1.8,0.6c0.4,0.4,0.7,1,0.7,1.6c0,0.3-0.1,0.6-0.2,0.9
		c-0.2,0.4-0.4,0.7-0.6,1c-0.5,0.5-1,1-1.5,1.4c-0.6,0.5-0.9,0.8-1.1,1c-0.2,0.2-0.3,0.3-0.4,0.5L571,118.6z M573.5,115.3
		c-0.4-0.1-0.7-0.3-0.9-0.6c-0.2-0.3-0.3-0.6-0.3-1c0-0.5,0.2-1.1,0.6-1.4c1-0.8,2.3-0.8,3.3,0c0.4,0.4,0.6,0.9,0.6,1.4
		c0,0.4-0.1,0.7-0.3,1c-0.2,0.3-0.5,0.5-0.9,0.6c0.9,0.2,1.5,1.1,1.5,2c0,0.6-0.2,1.3-0.7,1.7c-1.1,0.9-2.7,0.9-3.8,0
		c-0.5-0.4-0.7-1.1-0.7-1.7c0-0.5,0.1-0.9,0.4-1.3C572.7,115.6,573.1,115.4,573.5,115.3L573.5,115.3z M573.3,113.6
		c0,0.7,0.5,1.2,1.2,1.3c0,0,0.1,0,0.1,0c0.3,0,0.7-0.1,0.9-0.3c0.2-0.2,0.4-0.5,0.4-0.9c0-0.3-0.1-0.7-0.4-0.9
		c-0.5-0.5-1.3-0.5-1.8,0C573.4,113,573.3,113.3,573.3,113.6z M573,117.3c0,0.3,0.1,0.6,0.2,0.8c0.1,0.3,0.3,0.5,0.6,0.6
		c0.3,0.1,0.5,0.2,0.8,0.2c0.4,0,0.8-0.1,1.1-0.4c0.3-0.3,0.5-0.7,0.5-1.1c0-0.4-0.2-0.8-0.5-1.2c-0.3-0.3-0.7-0.5-1.2-0.4
		C573.7,115.7,573,116.3,573,117.3C573,117.2,573,117.2,573,117.3L573,117.3z"/>
            <path d="M740.6,61.9l1-0.1c0.1,0.4,0.3,0.9,0.6,1.2c0.3,0.3,0.6,0.4,1,0.4c0.4,0,0.8-0.2,1.2-0.5c0.3-0.3,0.5-0.7,0.5-1.2
		c0-0.4-0.1-0.8-0.4-1.1c-0.3-0.3-0.7-0.4-1.1-0.4c-0.2,0-0.5,0-0.7,0.1l0.1-0.8h0.2c0.4,0,0.8-0.1,1.1-0.3c0.3-0.2,0.5-0.6,0.5-1
		c0-0.3-0.1-0.7-0.4-0.9c-0.5-0.5-1.3-0.5-1.9,0c-0.3,0.3-0.4,0.7-0.5,1.1l-1-0.2c0.1-0.6,0.4-1.1,0.8-1.5c0.4-0.4,1-0.5,1.5-0.5
		c0.4,0,0.8,0.1,1.2,0.3c0.7,0.3,1.1,1,1.1,1.8c0,0.3-0.1,0.7-0.3,0.9c-0.2,0.3-0.5,0.5-0.8,0.7c0.4,0.1,0.8,0.3,1.1,0.7
		c0.3,0.4,0.4,0.8,0.4,1.3c0,0.7-0.3,1.3-0.8,1.7c-0.5,0.5-1.2,0.7-1.9,0.7c-0.6,0-1.2-0.2-1.7-0.6C741,63.1,740.7,62.5,740.6,61.9
		L740.6,61.9z M746.7,60.1c0-0.8,0.1-1.5,0.3-2.2c0.2-0.5,0.4-1,0.8-1.3c0.4-0.3,0.9-0.5,1.4-0.5c0.4,0,0.8,0.1,1.1,0.3
		c0.3,0.2,0.6,0.4,0.8,0.7c0.2,0.4,0.4,0.8,0.5,1.2c0.3,1.4,0.2,2.8-0.1,4.1c-0.1,0.5-0.4,1-0.8,1.3c-0.4,0.3-0.9,0.5-1.4,0.5
		c-0.7,0-1.4-0.3-1.8-0.8C746.9,62.3,746.6,61.2,746.7,60.1L746.7,60.1z M747.7,60.1c-0.1,0.9,0.1,1.8,0.5,2.6
		c0.4,0.6,1.1,0.8,1.8,0.5c0.2-0.1,0.4-0.3,0.5-0.5c0.4-0.8,0.5-1.7,0.5-2.6c0.1-0.9-0.1-1.8-0.5-2.6c-0.2-0.4-0.7-0.6-1.1-0.6
		c-0.4,0-0.8,0.2-1.1,0.6C747.8,58.3,747.6,59.2,747.7,60.1L747.7,60.1z"/>
            <path d="M635.9,62.3v0.9h-5.2c0-0.2,0-0.4,0.1-0.7c0.2-0.4,0.4-0.7,0.6-1c0.4-0.4,0.8-0.8,1.3-1.2c0.6-0.5,1.2-1,1.7-1.7
		c0.3-0.3,0.4-0.7,0.5-1.2c0-0.4-0.1-0.7-0.4-1c-0.3-0.3-0.7-0.4-1.1-0.4c-0.4,0-0.8,0.1-1.1,0.4c-0.3,0.3-0.4,0.7-0.4,1.2l-1-0.1
		c0-0.6,0.3-1.3,0.8-1.7c0.5-0.4,1.1-0.6,1.8-0.6c0.7,0,1.3,0.2,1.8,0.6c0.4,0.4,0.7,1,0.7,1.5c0,0.3-0.1,0.6-0.2,0.9
		c-0.2,0.4-0.4,0.7-0.6,1c-0.5,0.5-1,1-1.5,1.4c-0.6,0.5-0.9,0.8-1.1,1c-0.2,0.2-0.3,0.3-0.4,0.5L635.9,62.3z M637,61.4l0.9-0.1
		c0,0.4,0.2,0.7,0.5,0.9c0.2,0.2,0.5,0.3,0.8,0.3c0.3,0,0.5-0.1,0.8-0.2c0.2-0.1,0.4-0.3,0.5-0.5c0.2-0.3,0.3-0.5,0.4-0.8
		c0.1-0.4,0.1-0.8,0.1-1.2v-0.2c-0.2,0.3-0.5,0.6-0.8,0.8c-0.9,0.5-2,0.3-2.7-0.4c-0.5-0.5-0.7-1.2-0.7-1.9c0-0.7,0.2-1.4,0.7-1.9
		c0.5-0.5,1.1-0.7,1.8-0.7c0.5,0,1,0.1,1.4,0.4c0.4,0.3,0.8,0.7,1,1.2c0.2,0.7,0.4,1.5,0.3,2.2c0,0.8-0.1,1.6-0.3,2.4
		c-0.2,0.5-0.5,1-1,1.3c-0.4,0.3-1,0.5-1.5,0.5c-1.1,0.1-2.1-0.8-2.2-1.9L637,61.4L637,61.4z M641,58c0-0.5-0.1-0.9-0.4-1.3
		c-0.3-0.3-0.7-0.5-1.1-0.5c-0.4,0-0.8,0.2-1.1,0.5c-0.3,0.4-0.5,0.8-0.5,1.3c0,0.5,0.1,0.9,0.5,1.2c0.3,0.3,0.7,0.5,1.1,0.5
		c0.4,0,0.8-0.2,1.1-0.5C640.9,58.9,641,58.4,641,58z"/>
            <path d="M144.6,51.2c0-0.8,0.1-1.5,0.3-2.2c0.2-0.5,0.4-1,0.9-1.3c0.4-0.3,0.9-0.5,1.4-0.5c0.4,0,0.8,0.1,1.1,0.3
		c0.3,0.2,0.6,0.4,0.8,0.7c0.2,0.4,0.4,0.8,0.5,1.2c0.1,0.6,0.2,1.2,0.2,1.9c0,0.8-0.1,1.5-0.3,2.2c-0.2,0.5-0.4,1-0.9,1.3
		c-0.4,0.3-0.9,0.5-1.4,0.5c-0.7,0-1.4-0.3-1.8-0.8C144.8,53.5,144.5,52.3,144.6,51.2z M145.6,51.2c-0.1,0.9,0.1,1.8,0.4,2.6
		c0.4,0.6,1.1,0.8,1.8,0.5c0.2-0.1,0.4-0.3,0.5-0.5c0.4-0.8,0.5-1.7,0.5-2.6c0.1-0.9-0.1-1.8-0.5-2.6c-0.2-0.4-0.7-0.6-1.1-0.6
		c-0.4,0-0.8,0.2-1.1,0.6C145.7,49.4,145.5,50.3,145.6,51.2z M150.7,53l1-0.1c0.1,0.4,0.3,0.9,0.6,1.2c0.3,0.3,0.6,0.4,1,0.4
		c0.4,0,0.8-0.2,1.1-0.5c0.3-0.3,0.5-0.7,0.5-1.2c0-0.4-0.1-0.8-0.4-1.1c-0.3-0.3-0.7-0.4-1.1-0.4c-0.2,0-0.5,0-0.7,0.1l0.1-0.8h0.2
		c0.4,0,0.8-0.1,1.1-0.3c0.3-0.2,0.5-0.6,0.5-1c0-0.3-0.1-0.7-0.4-0.9c-0.5-0.5-1.3-0.5-1.9,0c-0.3,0.3-0.4,0.7-0.5,1.1l-1-0.2
		c0.1-0.6,0.4-1.1,0.8-1.5c0.4-0.4,1-0.5,1.6-0.5c0.4,0,0.8,0.1,1.2,0.3c0.7,0.3,1.1,1,1.1,1.8c0,0.3-0.1,0.6-0.3,0.9
		c-0.2,0.3-0.5,0.5-0.8,0.7c0.4,0.1,0.8,0.3,1.1,0.7c0.3,0.4,0.4,0.8,0.4,1.3c0,0.7-0.3,1.3-0.8,1.7c-0.5,0.5-1.2,0.7-1.9,0.7
		c-0.6,0-1.2-0.2-1.7-0.6C151,54.2,150.8,53.6,150.7,53L150.7,53z"/>
            <path d="M144.2,115.7c0-0.8,0.1-1.5,0.3-2.2c0.2-0.5,0.4-1,0.9-1.3c0.4-0.3,0.9-0.5,1.4-0.5c0.4,0,0.8,0.1,1.1,0.3
		c0.3,0.2,0.6,0.4,0.8,0.7c0.2,0.4,0.4,0.8,0.5,1.2c0.1,0.6,0.2,1.2,0.2,1.9c0,0.8-0.1,1.5-0.3,2.2c-0.2,0.5-0.4,1-0.9,1.3
		c-0.4,0.3-0.9,0.5-1.4,0.5c-0.7,0-1.4-0.3-1.8-0.8C144.4,117.9,144.1,116.8,144.2,115.7L144.2,115.7z M145.2,115.7
		c-0.1,0.9,0.1,1.8,0.4,2.6c0.4,0.6,1.1,0.8,1.8,0.5c0.2-0.1,0.4-0.3,0.5-0.5c0.6-1.7,0.6-3.5,0-5.1c-0.2-0.4-0.7-0.6-1.1-0.6
		c-0.4,0-0.8,0.2-1.1,0.6C145.3,113.8,145.1,114.7,145.2,115.7z M150.3,117.5l1-0.1c0,0.4,0.2,0.8,0.5,1.1c0.3,0.2,0.6,0.4,1,0.4
		c0.5,0,0.9-0.2,1.2-0.5c0.3-0.4,0.5-0.9,0.5-1.4c0-0.5-0.1-0.9-0.5-1.3c-0.3-0.3-0.8-0.5-1.2-0.5c-0.3,0-0.6,0.1-0.8,0.2
		c-0.2,0.1-0.4,0.3-0.6,0.6l-0.9-0.1l0.8-4h3.9v0.9H152l-0.4,2.1c0.4-0.3,0.9-0.5,1.5-0.5c0.7,0,1.3,0.2,1.7,0.7
		c0.5,0.5,0.7,1.1,0.7,1.8c0,0.7-0.2,1.3-0.6,1.8c-0.5,0.6-1.3,1-2.1,1c-0.6,0-1.3-0.2-1.7-0.6C150.6,118.7,150.3,118.2,150.3,117.5
		L150.3,117.5z"/>
            <path d="M173.3,50.9c0-0.8,0.1-1.5,0.3-2.2c0.2-0.5,0.4-1,0.9-1.3c0.4-0.3,0.9-0.5,1.4-0.5c0.4,0,0.8,0.1,1.1,0.3
		c0.3,0.2,0.6,0.4,0.8,0.7c0.2,0.4,0.4,0.8,0.5,1.2c0.1,0.6,0.2,1.2,0.2,1.9c0,0.8-0.1,1.5-0.3,2.2c-0.2,0.5-0.4,1-0.9,1.3
		c-0.4,0.3-0.9,0.5-1.4,0.5c-0.7,0-1.4-0.3-1.8-0.8C173.4,53.1,173.2,52,173.3,50.9z M174.3,50.9c-0.1,0.9,0.1,1.8,0.4,2.6
		c0.4,0.6,1.1,0.8,1.8,0.5c0.2-0.1,0.4-0.3,0.5-0.5c0.4-0.8,0.5-1.7,0.5-2.6c0.1-0.9-0.1-1.8-0.5-2.6c-0.2-0.4-0.7-0.6-1.1-0.6
		c-0.4,0-0.8,0.2-1.1,0.6C174.3,49,174.2,49.9,174.3,50.9z M184.4,48.8l-1,0.1c0-0.3-0.2-0.6-0.4-0.8c-0.3-0.3-0.6-0.4-1-0.4
		c-0.3,0-0.6,0.1-0.8,0.3c-0.3,0.3-0.6,0.6-0.7,1c-0.2,0.6-0.3,1.2-0.3,1.8c0.4-0.6,1.1-1,1.9-1c0.6,0,1.2,0.2,1.6,0.7
		c0.5,0.5,0.7,1.2,0.7,1.8c0,0.5-0.1,0.9-0.3,1.4c-0.4,0.8-1.2,1.4-2.1,1.3c-0.8,0-1.5-0.3-2-0.9c-0.6-0.9-0.8-1.9-0.8-2.9
		c-0.1-1.2,0.2-2.3,0.8-3.3c0.5-0.6,1.2-0.9,2-0.9c1.2-0.1,2.2,0.8,2.2,2c0,0,0,0,0,0L184.4,48.8z M180.4,52.2c0,0.3,0.1,0.7,0.2,1
		c0.1,0.3,0.3,0.5,0.6,0.7c0.2,0.2,0.5,0.2,0.8,0.2c0.4,0,0.8-0.2,1-0.5c0.3-0.4,0.5-0.8,0.4-1.3c0-0.5-0.1-0.9-0.4-1.3
		c-0.3-0.3-0.7-0.5-1.1-0.5c-0.4,0-0.8,0.2-1.1,0.5C180.5,51.3,180.3,51.8,180.4,52.2L180.4,52.2z"/>
            <path d="M173.1,115.5c0-0.8,0.1-1.5,0.3-2.2c0.2-0.5,0.4-1,0.9-1.3c0.4-0.3,0.9-0.5,1.4-0.5c0.4,0,0.8,0.1,1.1,0.3
		c0.3,0.2,0.6,0.4,0.8,0.7c0.2,0.4,0.4,0.8,0.5,1.2c0.1,0.6,0.2,1.2,0.2,1.9c0,0.8-0.1,1.5-0.3,2.2c-0.2,0.5-0.4,1-0.9,1.3
		c-0.4,0.3-0.9,0.5-1.4,0.5c-0.7,0-1.4-0.3-1.8-0.8C173.3,117.8,173,116.7,173.1,115.5L173.1,115.5z M174.1,115.5
		c-0.1,0.9,0.1,1.8,0.4,2.6c0.4,0.6,1.1,0.8,1.8,0.5c0.2-0.1,0.4-0.3,0.5-0.5c0.6-1.7,0.6-3.5,0-5.1c-0.2-0.4-0.7-0.6-1.1-0.6
		c-0.4,0-0.8,0.2-1.1,0.6C174.2,113.7,174.1,114.6,174.1,115.5z M180.7,115.2c-0.4-0.1-0.7-0.3-0.9-0.6c-0.2-0.3-0.3-0.6-0.3-1
		c0-0.5,0.2-1.1,0.6-1.4c1-0.8,2.3-0.8,3.3,0c0.4,0.4,0.6,0.9,0.6,1.4c0,0.4-0.1,0.7-0.3,1c-0.2,0.3-0.5,0.5-0.9,0.6
		c0.4,0.1,0.8,0.4,1.1,0.8c0.3,0.4,0.4,0.8,0.4,1.3c0,0.6-0.2,1.3-0.7,1.7c-1.1,0.9-2.7,0.9-3.8,0c-0.5-0.4-0.7-1.1-0.7-1.7
		c0-0.5,0.1-0.9,0.4-1.3C179.9,115.5,180.3,115.3,180.7,115.2L180.7,115.2z M180.5,113.5c0,0.7,0.5,1.2,1.2,1.3c0,0,0.1,0,0.1,0
		c0.3,0,0.7-0.1,0.9-0.3c0.2-0.2,0.4-0.5,0.4-0.9c0-0.3-0.1-0.7-0.4-0.9c-0.5-0.5-1.3-0.5-1.8,0
		C180.6,112.9,180.5,113.2,180.5,113.5z M180.2,117.1c0,0.3,0.1,0.6,0.2,0.8c0.1,0.3,0.3,0.5,0.6,0.6c0.3,0.1,0.5,0.2,0.8,0.2
		c0.4,0,0.8-0.1,1.1-0.4c0.3-0.3,0.5-0.7,0.4-1.1c0-0.4-0.2-0.8-0.5-1.2c-0.3-0.3-0.7-0.5-1.2-0.4
		C180.9,115.6,180.2,116.2,180.2,117.1C180.2,117.1,180.2,117.1,180.2,117.1L180.2,117.1L180.2,117.1z"/>
            <path d="M236.5,51.4c0-0.8,0.1-1.5,0.3-2.2c0.1-0.5,0.4-1,0.8-1.3c0.4-0.3,0.9-0.5,1.4-0.5c0.4,0,0.8,0.1,1.1,0.3
		c0.3,0.2,0.6,0.4,0.8,0.7c0.2,0.4,0.4,0.8,0.5,1.2c0.1,0.6,0.2,1.2,0.2,1.9c0,0.8-0.1,1.5-0.3,2.2c-0.2,0.5-0.4,1-0.8,1.3
		c-0.4,0.3-0.9,0.5-1.4,0.5c-0.7,0-1.3-0.3-1.8-0.8C236.7,53.7,236.4,52.5,236.5,51.4z M237.5,51.4c-0.1,0.9,0.1,1.8,0.4,2.6
		c0.2,0.4,0.7,0.6,1.1,0.6c0.4,0,0.9-0.3,1.1-0.6c0.4-0.8,0.5-1.7,0.5-2.6c0.1-0.9-0.1-1.8-0.5-2.6c-0.2-0.4-0.6-0.6-1.1-0.6
		c-0.4,0-0.8,0.2-1.1,0.6C237.6,49.6,237.4,50.5,237.5,51.4L237.5,51.4z M242.7,53.4l0.9-0.1c0,0.4,0.2,0.7,0.4,0.9
		c0.2,0.2,0.5,0.3,0.9,0.3c0.3,0,0.5-0.1,0.8-0.2c0.2-0.1,0.4-0.3,0.5-0.5c0.2-0.3,0.3-0.6,0.4-0.9c0.1-0.4,0.1-0.8,0.1-1.2v-0.2
		c-0.2,0.3-0.5,0.6-0.8,0.8c-0.9,0.5-2,0.3-2.7-0.4c-0.5-0.5-0.7-1.2-0.7-1.9c0-0.7,0.2-1.4,0.7-1.9c0.4-0.5,1.1-0.8,1.7-0.7
		c0.5,0,1,0.1,1.4,0.4c0.4,0.3,0.8,0.7,1,1.2c0.2,0.7,0.4,1.5,0.3,2.2c0,0.8-0.1,1.6-0.3,2.4c-0.2,0.5-0.5,1-1,1.3
		c-0.4,0.3-1,0.5-1.5,0.5C243.7,55.4,242.8,54.6,242.7,53.4L242.7,53.4L242.7,53.4z M246.6,50c0-0.5-0.1-0.9-0.4-1.3
		c-0.2-0.3-0.6-0.5-1-0.5c-0.4,0-0.8,0.2-1.1,0.5c-0.3,0.4-0.5,0.8-0.5,1.3c0,0.5,0.1,0.9,0.4,1.2c0.3,0.3,0.7,0.5,1.1,0.5
		c0.4,0,0.8-0.2,1.1-0.5C246.4,50.9,246.6,50.4,246.6,50L246.6,50z"/>
            <path d="M239.2,87.4h-1v-6.1c-0.3,0.3-0.6,0.5-0.9,0.7c-0.3,0.2-0.7,0.4-1,0.5v-0.9c0.5-0.2,1-0.5,1.4-0.9c0.3-0.3,0.6-0.6,0.9-1
		h0.6L239.2,87.4L239.2,87.4z M241.6,83.5c0-0.8,0.1-1.5,0.3-2.2c0.2-0.5,0.4-1,0.9-1.3c0.4-0.3,0.9-0.5,1.4-0.5
		c0.4,0,0.8,0.1,1.1,0.3c0.3,0.2,0.6,0.4,0.8,0.7c0.2,0.4,0.4,0.8,0.5,1.2c0.3,1.4,0.2,2.8-0.1,4.1c-0.1,0.5-0.4,1-0.8,1.3
		c-0.4,0.3-0.9,0.5-1.4,0.5c-0.7,0-1.4-0.3-1.8-0.8C241.8,85.7,241.5,84.6,241.6,83.5L241.6,83.5z M242.6,83.5
		c-0.1,0.9,0.1,1.8,0.5,2.6c0.4,0.6,1.1,0.8,1.8,0.5c0.2-0.1,0.4-0.3,0.5-0.5c0.4-0.8,0.5-1.7,0.4-2.6c0.1-0.9-0.1-1.7-0.5-2.5
		c-0.2-0.4-0.7-0.6-1.1-0.6c-0.4,0-0.8,0.2-1.1,0.6C242.7,81.7,242.5,82.6,242.6,83.5L242.6,83.5z"/>
            <path d="M267.6,120.4h-1v-6.1c-0.3,0.3-0.6,0.5-0.9,0.7c-0.3,0.2-0.7,0.4-1,0.5v-0.9c0.5-0.2,1-0.5,1.4-0.9c0.3-0.3,0.6-0.6,0.9-1
		h0.6L267.6,120.4z M273.1,120.4v-1.9h-3.4v-0.9l3.6-5.1h0.8v5.1h1.1v0.9h-1.1v1.9H273.1z M273.1,117.6v-3.5l-2.5,3.5H273.1z"/>
            <path d="M268.3,87h-1v-6.1c-0.3,0.3-0.6,0.5-0.9,0.7c-0.3,0.2-0.7,0.4-1,0.5v-0.9c0.5-0.2,1-0.5,1.4-0.9c0.3-0.3,0.6-0.6,0.9-1h0.6
		L268.3,87L268.3,87z M270.8,85l1-0.1c0.1,0.4,0.3,0.9,0.6,1.2c0.3,0.3,0.6,0.4,1,0.4c0.4,0,0.8-0.2,1.1-0.5
		c0.3-0.3,0.5-0.7,0.5-1.2c0-0.4-0.1-0.8-0.4-1.1c-0.3-0.3-0.7-0.4-1.1-0.4c-0.2,0-0.5,0-0.7,0.1l0.1-0.8h0.1c0.4,0,0.8-0.1,1.1-0.3
		c0.3-0.2,0.5-0.6,0.5-1c0-0.3-0.1-0.7-0.4-0.9c-0.5-0.5-1.3-0.5-1.9,0c-0.3,0.3-0.4,0.7-0.5,1.1l-1-0.2c0.1-0.6,0.4-1.1,0.8-1.5
		c0.4-0.4,1-0.5,1.5-0.5c0.4,0,0.8,0.1,1.2,0.3c0.7,0.3,1.1,1,1.1,1.8c0,0.3-0.1,0.6-0.3,0.9c-0.2,0.3-0.5,0.5-0.8,0.7
		c0.4,0.1,0.8,0.3,1.1,0.7c0.3,0.4,0.4,0.8,0.4,1.3c0,0.7-0.3,1.3-0.8,1.7c-0.5,0.5-1.2,0.7-1.9,0.7c-0.6,0-1.2-0.2-1.7-0.6
		C271.1,86.2,270.8,85.6,270.8,85L270.8,85z"/>
            <path d="M342,87.7h-1v-6.1c-0.3,0.3-0.6,0.5-0.9,0.7c-0.3,0.2-0.7,0.4-1,0.5v-0.9c0.5-0.2,1-0.5,1.4-0.9c0.3-0.3,0.6-0.6,0.9-1h0.7
		V87.7z M344.5,85.7l1-0.1c0.1,0.4,0.2,0.8,0.5,1.1c0.3,0.2,0.6,0.4,1,0.4c0.5,0,0.9-0.2,1.2-0.5c0.3-0.4,0.5-0.9,0.5-1.4
		c0-0.5-0.1-0.9-0.5-1.3c-0.3-0.3-0.8-0.5-1.2-0.5c-0.3,0-0.6,0.1-0.8,0.2c-0.2,0.1-0.4,0.3-0.6,0.6l-0.9-0.1l0.8-4h3.9v1h-3.1
		l-0.4,2.1c0.4-0.3,0.9-0.5,1.5-0.5c0.7,0,1.3,0.2,1.7,0.7c0.5,0.5,0.7,1.1,0.7,1.8c0,0.7-0.2,1.3-0.7,1.8c-0.5,0.6-1.3,1-2.1,1
		c-0.6,0-1.3-0.2-1.7-0.6C344.7,87,344.5,86.4,344.5,85.7L344.5,85.7z"/>
            <path d="M370.3,120.2h-1v-6.2c-0.3,0.3-0.6,0.5-0.9,0.7c-0.3,0.2-0.7,0.4-1,0.5v-0.9c0.5-0.2,1-0.5,1.4-0.9c0.3-0.3,0.6-0.6,0.9-1
		h0.6L370.3,120.2z M374.3,116c-0.4-0.1-0.7-0.3-0.9-0.6c-0.2-0.3-0.3-0.6-0.3-1c0-0.5,0.2-1.1,0.6-1.4c1-0.8,2.3-0.8,3.3,0
		c0.4,0.4,0.6,0.9,0.6,1.4c0,0.4-0.1,0.7-0.3,1c-0.2,0.3-0.5,0.5-0.9,0.6c0.4,0.1,0.8,0.4,1.1,0.8c0.3,0.4,0.4,0.8,0.4,1.3
		c0,0.6-0.2,1.3-0.7,1.7c-1.1,0.9-2.7,0.9-3.8,0c-0.5-0.4-0.7-1.1-0.7-1.7c0-0.5,0.1-0.9,0.4-1.3C373.5,116.3,373.9,116.1,374.3,116
		L374.3,116z M374.1,114.3c0,0.7,0.5,1.2,1.2,1.3c0,0,0.1,0,0.1,0c0.3,0,0.7-0.1,0.9-0.3c0.2-0.2,0.4-0.5,0.4-0.9
		c0-0.3-0.1-0.7-0.4-0.9c-0.5-0.5-1.3-0.5-1.8,0C374.2,113.7,374.1,114,374.1,114.3z M373.8,118c0,0.3,0.1,0.6,0.2,0.8
		c0.1,0.3,0.3,0.5,0.6,0.6c0.3,0.1,0.5,0.2,0.8,0.2c0.4,0,0.8-0.1,1.1-0.4c0.3-0.3,0.5-0.7,0.5-1.1c0-0.4-0.2-0.8-0.5-1.2
		c-0.3-0.3-0.7-0.5-1.2-0.4C374.5,116.4,373.8,117.1,373.8,118C373.8,117.9,373.8,117.9,373.8,118L373.8,118z"/>
            <path d="M459.6,54.6v0.9h-5.2c0-0.2,0-0.4,0.1-0.7c0.2-0.4,0.4-0.7,0.6-1c0.4-0.5,0.8-0.9,1.3-1.3c0.6-0.5,1.2-1.1,1.8-1.7
		c0.3-0.3,0.4-0.7,0.5-1.2c0-0.4-0.1-0.7-0.4-1c-0.3-0.3-0.7-0.4-1.1-0.4c-0.4,0-0.8,0.1-1.1,0.4c-0.3,0.3-0.4,0.7-0.4,1.2l-1-0.1
		c0-0.6,0.3-1.3,0.8-1.7c0.5-0.4,1.1-0.6,1.8-0.6c0.7,0,1.3,0.2,1.8,0.6c0.4,0.4,0.7,1,0.7,1.5c0,0.3-0.1,0.6-0.2,0.9
		c-0.2,0.4-0.4,0.7-0.6,1c-0.5,0.5-1,1-1.5,1.4c-0.6,0.5-0.9,0.8-1.1,1c-0.2,0.2-0.3,0.3-0.4,0.5H459.6z M465.7,54.6v0.9h-5.2
		c0-0.2,0-0.4,0.1-0.7c0.2-0.4,0.4-0.7,0.6-1c0.4-0.5,0.8-0.9,1.3-1.3c0.6-0.5,1.2-1.1,1.7-1.7c0.3-0.3,0.4-0.7,0.5-1.2
		c0-0.4-0.1-0.7-0.4-1c-0.6-0.5-1.6-0.5-2.2,0c-0.3,0.3-0.4,0.7-0.4,1.2l-1-0.1c0-0.6,0.3-1.2,0.8-1.7c0.5-0.4,1.1-0.6,1.8-0.6
		c0.7,0,1.3,0.2,1.8,0.6c0.4,0.4,0.7,1,0.7,1.5c0,0.3-0.1,0.6-0.2,0.9c-0.2,0.4-0.4,0.7-0.6,1c-0.5,0.5-1,1-1.5,1.4
		c-0.4,0.3-0.8,0.6-1.1,1c-0.2,0.2-0.3,0.3-0.4,0.5L465.7,54.6z"/>
            <path d="M460.3,86.6v0.9h-5.2c0-0.2,0-0.4,0.1-0.7c0.2-0.4,0.4-0.7,0.6-1c0.4-0.4,0.8-0.8,1.3-1.2c0.6-0.5,1.2-1,1.7-1.6
		c0.3-0.3,0.4-0.7,0.5-1.2c0-0.4-0.1-0.7-0.4-1c-0.3-0.3-0.7-0.4-1.1-0.4c-0.4,0-0.8,0.1-1.1,0.4c-0.3,0.3-0.4,0.7-0.4,1.1l-1-0.1
		c0-0.6,0.3-1.3,0.8-1.7c0.5-0.4,1.1-0.6,1.8-0.6c0.7,0,1.3,0.2,1.8,0.6c0.4,0.4,0.7,1,0.7,1.6c0,0.3-0.1,0.6-0.2,0.9
		c-0.2,0.4-0.4,0.7-0.6,1c-0.5,0.5-0.9,0.9-1.5,1.3c-0.6,0.5-0.9,0.8-1.1,1c-0.2,0.2-0.3,0.3-0.4,0.5L460.3,86.6z M461.3,85.4l1-0.1
		c0.1,0.4,0.3,0.9,0.6,1.2c0.3,0.3,0.6,0.4,1,0.4c0.4,0,0.8-0.2,1.1-0.5c0.3-0.3,0.5-0.7,0.5-1.2c0-0.4-0.2-0.8-0.5-1.1
		c-0.3-0.3-0.7-0.4-1.1-0.4c-0.2,0-0.5,0-0.7,0.1l0.1-0.8h0.2c0.4,0,0.8-0.1,1.1-0.3c0.3-0.2,0.5-0.6,0.5-1c0-0.3-0.1-0.7-0.4-0.9
		c-0.5-0.5-1.3-0.5-1.9,0c-0.3,0.3-0.4,0.7-0.5,1.1l-1-0.2c0.1-0.6,0.4-1.1,0.8-1.5c0.4-0.4,1-0.5,1.5-0.5c0.4,0,0.8,0.1,1.2,0.3
		c0.7,0.3,1.1,1,1.1,1.8c0,0.3-0.1,0.6-0.3,0.9c-0.2,0.3-0.5,0.5-0.8,0.7c0.4,0.1,0.8,0.3,1.1,0.7c0.3,0.4,0.4,0.8,0.4,1.3
		c0,0.7-0.3,1.3-0.8,1.7c-0.5,0.5-1.2,0.7-1.9,0.7c-0.6,0-1.2-0.2-1.7-0.6C461.6,86.6,461.4,86,461.3,85.4L461.3,85.4z"/>
            <path d="M431.1,118.8v0.9H426c0-0.2,0-0.4,0.1-0.7c0.2-0.4,0.4-0.7,0.6-1c0.4-0.4,0.8-0.8,1.3-1.2c0.6-0.5,1.2-1,1.7-1.7
		c0.3-0.3,0.4-0.7,0.5-1.2c0-0.4-0.1-0.7-0.4-1c-0.3-0.3-0.7-0.4-1.1-0.4c-0.8,0-1.5,0.6-1.5,1.4c0,0.1,0,0.1,0,0.2l-1-0.1
		c0-0.6,0.3-1.3,0.8-1.7c0.5-0.4,1.1-0.6,1.8-0.6c0.7,0,1.3,0.2,1.8,0.6c0.4,0.4,0.7,1,0.7,1.6c0,0.3-0.1,0.6-0.2,0.9
		c-0.2,0.4-0.4,0.7-0.6,1c-0.5,0.5-1,1-1.5,1.4c-0.6,0.5-0.9,0.8-1.1,1c-0.2,0.2-0.3,0.3-0.4,0.5L431.1,118.8z M435.8,119.7h-1v-6.1
		c-0.3,0.3-0.6,0.5-0.9,0.7c-0.3,0.2-0.7,0.4-1,0.5v-0.9c0.5-0.2,1-0.5,1.4-0.9c0.3-0.3,0.6-0.6,0.9-1h0.6L435.8,119.7z"/>
            <path d="M429.1,55.4h-1v-6.1c-0.3,0.3-0.6,0.5-0.9,0.7c-0.3,0.2-0.7,0.4-1,0.5v-0.9c0.5-0.2,1-0.5,1.4-0.9c0.3-0.3,0.6-0.6,0.9-1
		h0.6L429.1,55.4L429.1,55.4z M431.7,53.6l0.9-0.1c0,0.4,0.2,0.7,0.5,0.9c0.2,0.2,0.5,0.3,0.9,0.3c0.3,0,0.5-0.1,0.8-0.2
		c0.2-0.1,0.4-0.3,0.5-0.5c0.2-0.3,0.3-0.6,0.4-0.9c0.1-0.4,0.1-0.8,0.1-1.2v-0.2c-0.2,0.3-0.5,0.6-0.8,0.8c-0.9,0.5-2,0.3-2.7-0.4
		c-0.9-1.1-0.9-2.7,0-3.8c0.5-0.5,1.1-0.8,1.8-0.7c1,0,2,0.6,2.4,1.6c0.2,0.7,0.4,1.5,0.3,2.2c0,0.8-0.1,1.6-0.3,2.4
		c-0.2,0.5-0.5,1-1,1.3c-0.4,0.3-1,0.5-1.5,0.5C432.7,55.6,431.7,54.8,431.7,53.6L431.7,53.6L431.7,53.6z M435.6,50.1
		c0-0.5-0.1-0.9-0.4-1.3c-0.3-0.3-0.7-0.5-1.1-0.5c-0.4,0-0.8,0.2-1.1,0.5c-0.3,0.4-0.5,0.9-0.5,1.4c0,0.5,0.1,0.9,0.5,1.2
		c0.3,0.3,0.7,0.5,1.1,0.5c0.4,0,0.8-0.2,1.1-0.5C435.5,51.1,435.7,50.6,435.6,50.1L435.6,50.1z"/>
            <path d="M571.1,86.5v0.9h-5.2c0-0.2,0-0.5,0.1-0.7c0.2-0.4,0.4-0.7,0.6-1c0.4-0.4,0.8-0.8,1.3-1.2c0.6-0.5,1.2-1,1.7-1.7
		c0.3-0.3,0.4-0.7,0.5-1.2c0-0.4-0.1-0.7-0.4-1c-0.6-0.5-1.6-0.5-2.2,0c-0.3,0.3-0.5,0.7-0.4,1.2l-1-0.1c0-0.6,0.3-1.3,0.8-1.7
		c0.5-0.4,1.1-0.6,1.8-0.6c0.7,0,1.3,0.2,1.8,0.6c0.4,0.4,0.7,1,0.7,1.6c0,0.3-0.1,0.6-0.2,0.9c-0.2,0.4-0.4,0.7-0.6,1
		c-0.5,0.5-1,1-1.5,1.4c-0.6,0.5-0.9,0.8-1.1,1c-0.2,0.2-0.3,0.3-0.4,0.5L571.1,86.5z M572.2,80.6v-0.9h5.1v0.7
		c-0.6,0.6-1.1,1.4-1.5,2.1c-0.5,0.9-0.9,1.8-1.1,2.7c-0.2,0.7-0.3,1.4-0.4,2.2h-1c0-0.8,0.2-1.5,0.4-2.2c0.2-0.9,0.6-1.7,1-2.5
		c0.4-0.7,0.8-1.4,1.4-2L572.2,80.6z"/>
            <path d="M542.2,118.2v0.9H537c0-0.2,0-0.4,0.1-0.7c0.2-0.4,0.4-0.7,0.6-1c0.4-0.4,0.8-0.8,1.3-1.2c0.6-0.5,1.2-1,1.7-1.7
		c0.3-0.3,0.4-0.7,0.5-1.2c0-0.4-0.1-0.7-0.4-1c-0.3-0.3-0.7-0.4-1.1-0.4c-0.4,0-0.8,0.1-1.1,0.4c-0.3,0.3-0.4,0.7-0.4,1.2l-1-0.1
		c0-0.6,0.3-1.3,0.8-1.7c0.5-0.4,1.1-0.6,1.8-0.6c0.7,0,1.3,0.2,1.8,0.6c0.4,0.4,0.7,1,0.7,1.6c0,0.3-0.1,0.6-0.2,0.9
		c-0.2,0.4-0.4,0.7-0.6,1c-0.5,0.5-1,1-1.5,1.4c-0.6,0.5-0.9,0.8-1.1,1c-0.2,0.2-0.3,0.3-0.4,0.5L542.2,118.2z M548.2,113.2l-1,0.1
		c0-0.3-0.2-0.6-0.4-0.8c-0.3-0.3-0.6-0.4-1-0.4c-0.3,0-0.6,0.1-0.8,0.3c-0.3,0.3-0.6,0.6-0.7,1c-0.2,0.6-0.3,1.2-0.3,1.8
		c0.4-0.6,1.1-1,1.9-1c0.6,0,1.2,0.2,1.6,0.7c0.5,0.5,0.7,1.2,0.7,1.8c0,0.4,0,0.9-0.2,1.3c-0.4,0.8-1.2,1.4-2.1,1.3
		c-0.8,0-1.5-0.3-2-0.9c-0.6-0.9-0.8-1.9-0.8-2.9c-0.1-1.2,0.2-2.3,0.8-3.3c0.5-0.6,1.2-0.9,2-0.9c0.6,0,1.1,0.2,1.5,0.5
		C547.9,112.2,548.1,112.7,548.2,113.2L548.2,113.2z M544.2,116.6c0,0.3,0.1,0.7,0.2,1c0.1,0.3,0.3,0.5,0.6,0.7
		c0.2,0.2,0.5,0.2,0.8,0.2c0.4,0,0.8-0.2,1-0.5c0.3-0.4,0.5-0.8,0.4-1.3c0-0.5-0.1-0.9-0.4-1.3c-0.3-0.3-0.7-0.5-1.1-0.5
		c-0.4,0-0.8,0.2-1.1,0.5C544.3,115.8,544.1,116.2,544.2,116.6L544.2,116.6z"/>
            <path d="M614.7,185.5l1-0.1c0.1,0.4,0.3,0.9,0.6,1.2c0.3,0.2,0.6,0.4,1,0.4c0.4,0,0.8-0.2,1.2-0.5c0.3-0.3,0.5-0.7,0.5-1.2
		c0-0.4-0.1-0.8-0.4-1.1c-0.3-0.3-0.7-0.4-1.1-0.4c-0.2,0-0.5,0-0.7,0.1l0.1-0.8h0.2c0.4,0,0.8-0.1,1.1-0.3c0.3-0.2,0.5-0.6,0.5-1
		c0-0.3-0.1-0.7-0.4-0.9c-0.5-0.5-1.3-0.5-1.9,0c-0.3,0.3-0.4,0.7-0.5,1.1l-1-0.2c0.1-0.6,0.4-1.1,0.8-1.5c0.4-0.4,1-0.5,1.5-0.5
		c0.4,0,0.8,0.1,1.2,0.3c0.7,0.3,1.1,1,1.1,1.8c0,0.3-0.1,0.7-0.3,0.9c-0.2,0.3-0.5,0.5-0.8,0.7c0.4,0.1,0.8,0.3,1.1,0.7
		c0.3,0.4,0.4,0.8,0.4,1.3c0,0.7-0.3,1.3-0.8,1.7c-0.5,0.5-1.2,0.7-1.9,0.7c-0.6,0-1.2-0.2-1.7-0.6
		C615,186.6,614.7,186.1,614.7,185.5L614.7,185.5z M620.7,185.5l1-0.1c0.1,0.4,0.3,0.9,0.6,1.2c0.3,0.2,0.6,0.4,1,0.4
		c0.9,0,1.6-0.7,1.6-1.6c0,0,0,0,0,0c0-0.4-0.1-0.8-0.4-1.1c-0.3-0.3-0.7-0.4-1.1-0.4c-0.2,0-0.5,0-0.7,0.1l0.1-0.8h0.2
		c0.4,0,0.8-0.1,1.1-0.3c0.3-0.2,0.5-0.6,0.5-1c0-0.3-0.1-0.7-0.4-0.9c-0.2-0.2-0.6-0.4-0.9-0.4c-0.3,0-0.7,0.1-0.9,0.4
		c-0.3,0.3-0.4,0.7-0.5,1.1l-1-0.2c0.1-0.6,0.4-1.1,0.8-1.5c0.4-0.4,1-0.5,1.5-0.5c0.4,0,0.8,0.1,1.2,0.3c0.7,0.3,1.1,1,1.1,1.8
		c0,0.3-0.1,0.6-0.3,0.9c-0.2,0.3-0.5,0.5-0.8,0.7c0.4,0.1,0.8,0.3,1.1,0.7c0.3,0.4,0.4,0.8,0.4,1.3c0,0.7-0.3,1.3-0.7,1.7
		c-0.5,0.5-1.2,0.7-1.9,0.7c-0.6,0-1.2-0.2-1.7-0.6C621.1,186.6,620.8,186.1,620.7,185.5L620.7,185.5z"/>
            <path d="M581.6,217.5l1-0.1c0.1,0.4,0.3,0.9,0.6,1.2c0.3,0.3,0.6,0.4,1,0.4c0.4,0,0.8-0.2,1.2-0.5c0.3-0.3,0.5-0.7,0.5-1.2
		c0-0.4-0.1-0.8-0.4-1.1c-0.3-0.3-0.7-0.4-1.1-0.4c-0.2,0-0.5,0-0.7,0.1l0.1-0.8h0.2c0.4,0,0.8-0.1,1.1-0.3c0.3-0.2,0.5-0.6,0.5-1
		c0-0.3-0.1-0.7-0.4-0.9c-0.5-0.5-1.3-0.5-1.9,0c-0.3,0.3-0.4,0.7-0.5,1.1l-1-0.2c0.1-0.6,0.4-1.1,0.8-1.5c0.4-0.4,1-0.5,1.5-0.5
		c0.4,0,0.8,0.1,1.2,0.3c0.7,0.3,1.1,1,1.1,1.8c0,0.3-0.1,0.7-0.3,0.9c-0.2,0.3-0.5,0.5-0.8,0.7c0.4,0.1,0.8,0.3,1.1,0.7
		c0.3,0.4,0.4,0.8,0.4,1.3c0,0.7-0.2,1.3-0.7,1.8c-0.5,0.5-1.2,0.7-1.9,0.7c-0.6,0-1.2-0.2-1.7-0.6
		C581.9,218.7,581.7,218.1,581.6,217.5L581.6,217.5z M591.3,219.6h-1v-6.1c-0.3,0.3-0.6,0.5-0.9,0.7c-0.3,0.2-0.7,0.4-1,0.5v-0.9
		c0.5-0.2,1-0.5,1.4-0.9c0.4-0.3,0.6-0.6,0.9-1h0.7L591.3,219.6z"/>
            <path d="M605.9,244.5l1-0.1c0.1,0.4,0.3,0.9,0.6,1.2c0.3,0.3,0.6,0.4,1,0.4c0.4,0,0.8-0.2,1.2-0.5c0.3-0.3,0.5-0.7,0.5-1.2
		c0-0.4-0.1-0.8-0.4-1.1c-0.3-0.3-0.7-0.4-1.1-0.4c-0.2,0-0.5,0-0.7,0.1l0.1-0.8h0.1c0.4,0,0.8-0.1,1.1-0.3c0.3-0.2,0.5-0.6,0.5-1
		c0-0.3-0.1-0.7-0.4-0.9c-0.5-0.5-1.3-0.5-1.9,0c-0.3,0.3-0.4,0.7-0.5,1.1l-1-0.2c0.1-0.6,0.4-1.1,0.8-1.5c0.4-0.4,1-0.5,1.5-0.5
		c0.4,0,0.8,0.1,1.2,0.3c0.7,0.3,1.1,1,1.1,1.8c0,0.3-0.1,0.7-0.3,0.9c-0.2,0.3-0.5,0.5-0.8,0.7c0.4,0.1,0.8,0.3,1.1,0.7
		c0.3,0.4,0.4,0.8,0.4,1.3c0,0.7-0.3,1.3-0.8,1.7c-0.5,0.5-1.2,0.7-1.9,0.7c-0.6,0-1.2-0.2-1.7-0.6
		C606.1,245.7,605.9,245.1,605.9,244.5L605.9,244.5z M617,245.7v0.9h-5.2c0-0.2,0-0.4,0.1-0.7c0.2-0.4,0.4-0.7,0.6-1
		c0.4-0.4,0.8-0.8,1.3-1.2c0.6-0.5,1.2-1,1.7-1.7c0.3-0.3,0.4-0.7,0.5-1.2c0-0.4-0.1-0.7-0.4-1c-0.3-0.3-0.7-0.4-1.1-0.4
		c-0.4,0-0.8,0.1-1.1,0.4c-0.3,0.3-0.4,0.7-0.4,1.1l-1-0.1c0-0.6,0.3-1.2,0.8-1.7c0.5-0.4,1.1-0.6,1.8-0.6c0.7,0,1.3,0.2,1.8,0.6
		c0.5,0.4,0.7,1,0.7,1.6c0,0.3-0.1,0.6-0.2,0.9c-0.2,0.4-0.4,0.7-0.6,1c-0.5,0.5-1,1-1.5,1.4c-0.6,0.5-1,0.8-1.1,1
		c-0.2,0.2-0.3,0.3-0.4,0.5L617,245.7z"/>
            <path d="M640.1,211.4l1-0.1c0.1,0.4,0.3,0.9,0.6,1.2c0.3,0.3,0.6,0.4,1,0.4c0.4,0,0.8-0.2,1.2-0.5c0.3-0.3,0.5-0.7,0.5-1.2
		c0-0.4-0.1-0.8-0.4-1.1c-0.3-0.3-0.7-0.4-1.1-0.4c-0.2,0-0.5,0-0.7,0.1l0.1-0.8h0.2c0.4,0,0.8-0.1,1.1-0.3c0.3-0.2,0.5-0.6,0.5-1
		c0-0.3-0.1-0.7-0.4-0.9c-0.5-0.5-1.3-0.5-1.9,0c-0.3,0.3-0.4,0.7-0.5,1.1l-1-0.2c0.1-0.6,0.4-1.1,0.8-1.5c0.4-0.4,1-0.5,1.5-0.5
		c0.4,0,0.8,0.1,1.2,0.3c0.7,0.3,1.1,1,1.1,1.8c0,0.3-0.1,0.7-0.3,0.9c-0.2,0.3-0.5,0.5-0.8,0.7c0.4,0.1,0.8,0.3,1.1,0.7
		c0.3,0.4,0.4,0.8,0.4,1.3c0,0.7-0.3,1.3-0.8,1.7c-0.5,0.5-1.2,0.7-1.9,0.7c-0.6,0-1.2-0.2-1.7-0.6
		C640.4,212.6,640.1,212,640.1,211.4L640.1,211.4z M649.2,213.5v-1.9h-3.4v-0.9l3.6-5.1h0.8v5.1h1.1v0.9h-1.1v1.9H649.2z
		 M649.2,210.7v-3.5l-2.5,3.5H649.2z"/>
            <path d="M678,221.4l1-0.1c0.1,0.4,0.3,0.9,0.6,1.2c0.3,0.3,0.6,0.4,1,0.4c0.4,0,0.8-0.2,1.2-0.5c0.3-0.3,0.5-0.7,0.5-1.2
		c0-0.4-0.1-0.8-0.4-1.1c-0.3-0.3-0.7-0.4-1.1-0.4c-0.2,0-0.5,0-0.7,0.1l0.1-0.8h0.2c0.4,0,0.8-0.1,1.1-0.3c0.3-0.2,0.5-0.6,0.5-1
		c0-0.3-0.1-0.7-0.4-0.9c-0.5-0.5-1.3-0.5-1.9,0c-0.3,0.3-0.4,0.7-0.5,1.1l-1-0.2c0.1-0.6,0.4-1.1,0.8-1.5c0.4-0.4,1-0.5,1.5-0.5
		c0.4,0,0.8,0.1,1.2,0.3c0.7,0.3,1.1,1,1.1,1.8c0,0.3-0.1,0.7-0.3,0.9c-0.2,0.3-0.5,0.5-0.8,0.7c0.4,0.1,0.8,0.3,1.1,0.7
		c0.3,0.4,0.4,0.8,0.4,1.3c0,0.7-0.3,1.3-0.8,1.7c-0.5,0.5-1.2,0.7-1.9,0.7c-0.6,0-1.2-0.2-1.7-0.6C678.4,222.6,678.1,222,678,221.4
		L678,221.4z M684.2,216.7v-0.9h5.1v0.8c-0.6,0.6-1.1,1.4-1.5,2.1c-0.5,0.9-0.9,1.8-1.1,2.7c-0.2,0.7-0.3,1.4-0.4,2.1h-1
		c0-0.8,0.2-1.5,0.4-2.2c0.2-0.9,0.6-1.7,1-2.5c0.4-0.7,0.8-1.4,1.4-2L684.2,216.7z"/>
            <path d="M700.9,192.8l1-0.1c0.1,0.4,0.3,0.9,0.6,1.2c0.3,0.2,0.6,0.4,1,0.4c0.4,0,0.8-0.2,1.2-0.5c0.3-0.3,0.5-0.7,0.5-1.2
		c0-0.4-0.1-0.8-0.4-1.1c-0.3-0.3-0.7-0.4-1.1-0.4c-0.2,0-0.5,0-0.7,0.1l0.1-0.8h0.1c0.4,0,0.8-0.1,1.1-0.3c0.3-0.2,0.5-0.6,0.5-1
		c0-0.3-0.1-0.7-0.4-0.9c-0.5-0.5-1.3-0.5-1.9,0c-0.3,0.3-0.4,0.7-0.5,1.1l-1-0.2c0.1-0.6,0.4-1.1,0.8-1.5c0.4-0.4,1-0.5,1.5-0.5
		c0.4,0,0.8,0.1,1.2,0.3c0.7,0.3,1.1,1,1.1,1.8c0,0.3-0.1,0.7-0.3,0.9c-0.2,0.3-0.5,0.5-0.8,0.7c0.4,0.1,0.8,0.3,1.1,0.7
		c0.3,0.4,0.4,0.8,0.4,1.3c0,0.7-0.3,1.3-0.8,1.7c-0.5,0.5-1.2,0.7-1.9,0.7c-0.6,0-1.2-0.2-1.7-0.6
		C701.2,194,700.9,193.4,700.9,192.8L700.9,192.8z M712,189l-1,0.1c0-0.3-0.2-0.6-0.4-0.8c-0.3-0.3-0.6-0.4-1-0.4
		c-0.3,0-0.6,0.1-0.8,0.3c-0.3,0.3-0.6,0.6-0.7,1c-0.2,0.6-0.3,1.2-0.3,1.8c0.4-0.6,1.1-1,1.9-1c0.6,0,1.2,0.2,1.6,0.7
		c0.5,0.5,0.7,1.2,0.7,1.8c0,0.5-0.1,0.9-0.3,1.4c-0.2,0.4-0.5,0.8-0.9,1c-0.4,0.2-0.8,0.3-1.3,0.3c-0.8,0-1.5-0.3-2-0.9
		c-0.6-0.9-0.8-1.9-0.8-2.9c-0.1-1.2,0.2-2.3,0.8-3.3c0.5-0.6,1.2-0.9,2-0.9c0.6,0,1.1,0.2,1.5,0.5C711.6,188,711.9,188.5,712,189z
		 M708.1,192.4c0,0.3,0.1,0.7,0.2,1c0.1,0.3,0.3,0.5,0.6,0.7c0.2,0.2,0.5,0.2,0.8,0.2c0.4,0,0.8-0.2,1-0.5c0.3-0.4,0.5-0.8,0.4-1.3
		c0-0.5-0.1-0.9-0.4-1.3c-0.3-0.3-0.7-0.5-1.1-0.5c-0.4,0-0.8,0.2-1.1,0.5C708.2,191.5,708,192,708.1,192.4L708.1,192.4z"/>
            <path d="M646.5,179.9l1-0.1c0.1,0.4,0.2,0.9,0.5,1.2c0.3,0.2,0.6,0.4,1,0.4c0.4,0,0.8-0.2,1.2-0.5c0.3-0.3,0.5-0.7,0.5-1.2
		c0-0.4-0.1-0.8-0.4-1.1c-0.3-0.3-0.7-0.4-1.1-0.4c-0.2,0-0.5,0-0.7,0.1l0.1-0.8h0.2c0.4,0,0.8-0.1,1.1-0.3c0.3-0.2,0.5-0.6,0.5-1
		c0-0.3-0.1-0.7-0.4-0.9c-0.5-0.5-1.3-0.5-1.9,0c-0.3,0.3-0.4,0.7-0.5,1.1l-1-0.2c0.1-0.6,0.4-1.1,0.8-1.5c0.4-0.4,1-0.5,1.5-0.5
		c0.4,0,0.8,0.1,1.2,0.3c0.7,0.3,1.1,1,1.1,1.8c0,0.3-0.1,0.7-0.3,0.9c-0.2,0.3-0.5,0.5-0.8,0.7c0.4,0.1,0.8,0.3,1.1,0.7
		c0.3,0.4,0.4,0.8,0.4,1.3c0,0.7-0.3,1.3-0.8,1.7c-0.5,0.5-1.2,0.7-1.9,0.7c-0.6,0-1.2-0.2-1.7-0.6
		C646.8,181.1,646.5,180.5,646.5,179.9L646.5,179.9z M652.5,179.9l1-0.1c0,0.4,0.2,0.8,0.5,1.1c0.3,0.2,0.6,0.4,1,0.4
		c0.5,0,0.9-0.2,1.2-0.5c0.3-0.4,0.5-0.9,0.5-1.4c0-0.5-0.1-0.9-0.5-1.3c-0.3-0.3-0.8-0.5-1.2-0.5c-0.3,0-0.6,0.1-0.8,0.2
		c-0.2,0.1-0.4,0.3-0.6,0.6l-0.9-0.1l0.8-4h3.9v0.9h-3.1l-0.4,2.1c0.4-0.3,0.9-0.5,1.5-0.5c0.7,0,1.3,0.2,1.7,0.7
		c0.5,0.5,0.7,1.1,0.7,1.8c0,0.7-0.2,1.3-0.6,1.8c-0.5,0.6-1.3,1-2.1,0.9c-0.6,0-1.3-0.2-1.7-0.6
		C652.9,181.1,652.6,180.6,652.5,179.9L652.5,179.9z"/>
</g>
</svg>
