<svg xmlns="http://www.w3.org/2000/svg" id="Capa_1" data-name="Capa 1" viewBox="0 0 2294.81 942.14"><defs><style>.cls-1,.cls-2,.cls-3,.cls-4,.cls-6{fill:none;}.cls-1,.cls-3,.cls-4{stroke:#989898;}.cls-1,.cls-2,.cls-3,.cls-4{stroke-linecap:round;stroke-linejoin:round;}.cls-1{stroke-width:0.84px;}.cls-2{stroke:#4b4b4b;}.cls-2,.cls-3{stroke-width:0.36px;}.cls-4{stroke-width:0.72px;}.cls-5{fill:#4b4b4b;}.cls-7{fill:#989898;}.cls-8{isolation:isolate;font-size:34.41px;font-family:ArialMT, Arial;}</style></defs><polyline class="cls-1" points="2293.55 3.02 2293.32 81.62 2294.16 81.62 2294.39 3.02 2293.55 3.02"/><line class="cls-2" x1="2290.88" y1="910.82" x2="2290.79" y2="941.78"/><polyline class="cls-2" points="2291.63 941.78 2291.72 910.82 2290.88 910.82"/><polyline class="cls-1" points="2293.32 81.62 2294.16 81.62 2293.81 200.06 2292.97 200.06 2293.81 200.06 2293.46 318.62 2292.62 318.62 2293.46 318.62 2293.11 437.06 2292.27 437.06 2293.11 437.06 2292.76 555.5 2291.92 555.5 2292.76 555.5 2292.42 673.94 2291.57 673.94 2292.42 673.94 2292.07 792.38 2291.23 792.38 2290.88 910.82 2291.72 910.82 2292.07 792.38 2291.23 792.38 2291.57 673.94 2291.92 555.5 2292.27 437.06 2292.62 318.62 2292.97 200.06 2293.32 81.62"/><polyline class="cls-1" points="2290.86 914.9 2290.89 906.86 2281.29 906.83 2281.27 914.87 2290.86 914.9"/><line class="cls-3" x1="2279.23" y1="914.86" x2="2281.27" y2="914.87"/><line class="cls-3" x1="2279.25" y1="906.82" x2="2281.29" y2="906.83"/><polyline class="cls-1" points="2291.21 796.46 2291.24 788.42 2281.64 788.39 2281.61 796.43 2291.21 796.46"/><line class="cls-3" x1="2279.57" y1="796.42" x2="2281.61" y2="796.43"/><line class="cls-3" x1="2279.6" y1="788.38" x2="2281.64" y2="788.39"/><polyline class="cls-1" points="2291.56 678.02 2291.59 669.86 2281.99 669.83 2281.96 677.99 2291.56 678.02"/><line class="cls-3" x1="2279.92" y1="677.98" x2="2281.96" y2="677.99"/><line class="cls-3" x1="2279.95" y1="669.82" x2="2281.99" y2="669.83"/><polyline class="cls-1" points="2291.91 559.46 2291.94 551.42 2282.34 551.39 2282.31 559.43 2291.91 559.46"/><line class="cls-3" x1="2280.27" y1="559.42" x2="2282.31" y2="559.43"/><line class="cls-3" x1="2280.3" y1="551.38" x2="2282.34" y2="551.39"/><polyline class="cls-1" points="2292.26 441.02 2292.29 432.98 2282.69 432.95 2282.66 440.99 2292.26 441.02"/><line class="cls-3" x1="2280.62" y1="440.98" x2="2282.66" y2="440.99"/><line class="cls-3" x1="2280.64" y1="432.94" x2="2282.68" y2="432.95"/><polyline class="cls-1" points="2292.61 322.58 2292.63 314.54 2283.03 314.51 2283.01 322.55 2292.61 322.58"/><line class="cls-3" x1="2280.97" y1="322.55" x2="2283.01" y2="322.55"/><line class="cls-3" x1="2280.99" y1="314.51" x2="2283.03" y2="314.51"/><line class="cls-3" x1="2281.65" y1="11.03" x2="2282.13" y2="11.03"/><line class="cls-3" x1="2281.93" y1="77.63" x2="2281.45" y2="77.63"/><line class="cls-3" x1="2291.61" y1="11.06" x2="2291.41" y2="77.66"/><line class="cls-3" x1="2281.45" y1="77.63" x2="2281.65" y2="11.03"/><line class="cls-3" x1="2281.93" y1="77.63" x2="2282.13" y2="11.03"/><line class="cls-2" x1="2278.99" y1="914.86" x2="2279.47" y2="914.86"/><line class="cls-2" x1="2288.95" y1="914.89" x2="2288.87" y2="941.77"/><line class="cls-2" x1="2278.91" y1="941.74" x2="2278.99" y2="914.86"/><line class="cls-2" x1="2279.39" y1="941.74" x2="2279.47" y2="914.86"/><line class="cls-3" x1="2279.33" y1="796.42" x2="2279.81" y2="796.42"/><line class="cls-3" x1="2279.49" y1="906.82" x2="2279.01" y2="906.82"/><line class="cls-3" x1="2289.29" y1="796.45" x2="2288.97" y2="906.85"/><line class="cls-3" x1="2279.01" y1="906.82" x2="2279.33" y2="796.42"/><line class="cls-3" x1="2279.49" y1="906.82" x2="2279.81" y2="796.42"/><line class="cls-3" x1="2280.38" y1="440.98" x2="2280.86" y2="440.99"/><line class="cls-3" x1="2280.54" y1="551.39" x2="2280.06" y2="551.38"/><line class="cls-3" x1="2290.34" y1="441.01" x2="2290.02" y2="551.41"/><line class="cls-3" x1="2280.06" y1="551.38" x2="2280.38" y2="440.98"/><line class="cls-3" x1="2280.54" y1="551.39" x2="2280.86" y2="440.99"/><line class="cls-3" x1="2280.73" y1="322.54" x2="2281.21" y2="322.55"/><line class="cls-3" x1="2280.88" y1="432.95" x2="2280.4" y2="432.94"/><line class="cls-3" x1="2290.69" y1="322.57" x2="2290.36" y2="432.97"/><line class="cls-3" x1="2280.4" y1="432.94" x2="2280.73" y2="322.54"/><line class="cls-3" x1="2280.88" y1="432.95" x2="2281.21" y2="322.55"/><line class="cls-3" x1="2281.08" y1="204.11" x2="2281.56" y2="204.11"/><line class="cls-3" x1="2281.23" y1="314.51" x2="2280.75" y2="314.5"/><line class="cls-3" x1="2291.04" y1="204.13" x2="2290.71" y2="314.53"/><line class="cls-3" x1="2280.75" y1="314.5" x2="2281.08" y2="204.11"/><line class="cls-3" x1="2281.23" y1="314.51" x2="2281.56" y2="204.11"/><line class="cls-3" x1="2279.68" y1="677.98" x2="2280.16" y2="677.98"/><line class="cls-3" x1="2279.84" y1="788.38" x2="2279.36" y2="788.38"/><line class="cls-3" x1="2289.64" y1="678.01" x2="2289.32" y2="788.41"/><line class="cls-3" x1="2279.36" y1="788.38" x2="2279.68" y2="677.98"/><line class="cls-3" x1="2279.84" y1="788.38" x2="2280.16" y2="677.98"/><line class="cls-3" x1="2281.43" y1="85.67" x2="2281.91" y2="85.67"/><line class="cls-3" x1="2281.58" y1="196.07" x2="2281.1" y2="196.07"/><line class="cls-3" x1="2291.39" y1="85.69" x2="2291.06" y2="196.09"/><line class="cls-3" x1="2281.1" y1="196.07" x2="2281.43" y2="85.67"/><line class="cls-3" x1="2281.58" y1="196.07" x2="2281.91" y2="85.67"/><line class="cls-3" x1="2280.03" y1="559.42" x2="2280.51" y2="559.43"/><line class="cls-3" x1="2280.19" y1="669.82" x2="2279.71" y2="669.82"/><line class="cls-3" x1="2289.99" y1="559.45" x2="2289.67" y2="669.85"/><line class="cls-3" x1="2279.71" y1="669.82" x2="2280.03" y2="559.42"/><line class="cls-3" x1="2280.19" y1="669.82" x2="2280.51" y2="559.43"/><polyline class="cls-1" points="2292.96 204.14 2292.98 196.1 2283.38 196.07 2283.36 204.11 2292.96 204.14"/><line class="cls-3" x1="2281.32" y1="204.11" x2="2283.36" y2="204.11"/><line class="cls-3" x1="2281.34" y1="196.07" x2="2283.38" y2="196.07"/><polyline class="cls-1" points="2293.31 85.7 2293.33 77.66 2283.73 77.63 2283.71 85.67 2293.31 85.7"/><line class="cls-3" x1="2281.67" y1="85.67" x2="2283.71" y2="85.67"/><polyline class="cls-3" points="2276.77 77.61 2281.69 77.63 2283.73 77.63"/><line class="cls-3" x1="2279.27" y1="85.66" x2="2281.67" y2="85.67"/><polyline class="cls-4" points="2271.23 83.96 2173.67 83.67 2173.67 86.07 2271.23 86.36 2271.23 83.96"/><line class="cls-4" x1="2174.12" y1="13.11" x2="2173.91" y2="83.67"/><line class="cls-4" x1="2175.83" y1="83.67" x2="2176.04" y2="13.11"/><line class="cls-4" x1="1515.46" y1="46.21" x2="1514.02" y2="46.21"/><line class="cls-4" x1="1400.38" y1="45.87" x2="1398.94" y2="45.87"/><line class="cls-4" x1="804.7" y1="44.12" x2="803.26" y2="44.11"/><line class="cls-4" x1="689.62" y1="43.78" x2="688.18" y2="43.77"/><line class="cls-4" x1="93.95" y1="42.02" x2="92.51" y2="42.02"/><line class="cls-4" x1="93.74" y1="110.66" x2="2.78" y2="110.4"/><polyline class="cls-4" points="2.78 112.8 96.14 113.07 96.45 6.99"/><line class="cls-4" x1="94.05" y1="6.98" x2="93.74" y2="110.66"/><line class="cls-4" x1="804.5" y1="112.76" x2="687.98" y2="112.41"/><line class="cls-4" x1="685.57" y1="114.81" x2="806.89" y2="115.16"/><line class="cls-4" x1="687.98" y1="112.41" x2="688.29" y2="8.73"/><line class="cls-4" x1="685.89" y1="8.73" x2="685.57" y2="114.81"/><line class="cls-4" x1="806.89" y1="115.16" x2="807.21" y2="9.08"/><line class="cls-4" x1="804.81" y1="9.08" x2="804.5" y2="112.76"/><line class="cls-4" x1="1515.26" y1="114.85" x2="1398.74" y2="114.51"/><line class="cls-4" x1="1396.33" y1="116.9" x2="1517.65" y2="117.26"/><line class="cls-4" x1="1398.74" y1="114.51" x2="1399.04" y2="10.83"/><line class="cls-4" x1="1396.64" y1="10.82" x2="1396.33" y2="116.9"/><line class="cls-4" x1="1517.68" y1="108.26" x2="1517.9" y2="33.38"/><line class="cls-4" x1="1515.56" y1="11.17" x2="1515.26" y2="114.85"/><line class="cls-4" x1="3.09" y1="6.72" x2="94.05" y2="6.98"/><line class="cls-4" x1="1165.64" y1="10.14" x2="1396.64" y2="10.82"/><line class="cls-4" x1="1396.6" y1="24.02" x2="1190.33" y2="23.41"/><line class="cls-4" x1="1156.61" y1="23.31" x2="807.17" y2="22.28"/><line class="cls-4" x1="804.77" y1="22.28" x2="803.33" y2="22.27"/><line class="cls-4" x1="689.69" y1="21.94" x2="688.25" y2="21.93"/><line class="cls-4" x1="685.85" y1="21.93" x2="96.53" y2="20.19"/><line class="cls-4" x1="94.01" y1="20.18" x2="92.57" y2="20.18"/><line class="cls-4" x1="2254.05" y1="905.07" x2="2255.42" y2="441.39"/><line class="cls-4" x1="2255.45" y1="432.39" x2="2256.47" y2="86.31"/><line class="cls-4" x1="2256.47" y1="83.91" x2="2256.49" y2="79.23"/><line class="cls-4" x1="2274.68" y1="13.41" x2="2273.45" y2="432.44"/><line class="cls-4" x1="2273.42" y1="441.44" x2="2272.05" y2="905.12"/><line class="cls-2" x1="2272.02" y1="918.32" x2="2271.95" y2="941.72"/><line class="cls-4" x1="2191.91" y1="83.72" x2="2191.93" y2="79.04"/><polyline class="cls-4" points="806.89 115.16 806.89 116 685.57 115.65 685.57 114.81"/><polyline class="cls-4" points="96.14 113.07 96.14 113.91 2.77 113.64"/><line class="cls-4" x1="823.43" y1="938.78" x2="1699.55" y2="941.36"/><line class="cls-4" x1="2240.63" y1="941.03" x2="2240.63" y2="941.63"/><polyline class="cls-4" points="2253.98 929.67 965.19 925.87 810.15 925.42 810.11 936.82 823.43 936.86 823.43 938.78"/><line class="cls-4" x1="1560.26" y1="33.5" x2="1560.04" y2="108.38"/><polyline class="cls-4" points="1560.01 117.38 1559.55 274.22 1568.55 274.25 1569.28 24.53"/><polyline class="cls-4" points="2004.02 440.89 2007.38 440.9 2007.41 431.42 2004.05 431.41 2004.02 440.89"/><polyline class="cls-4" points="2007.38 440.9 2115.86 441.22 2119.22 441.23 2119.25 431.75 2115.89 431.74 2115.86 441.22"/><line class="cls-4" x1="2007.41" y1="431.42" x2="2115.89" y2="431.74"/><polyline class="cls-4" points="2007.39 438.98 2115.86 439.3 2115.87 438.58 2007.39 438.26 2007.39 438.98"/><polyline class="cls-4" points="2007.4 433.94 2115.88 434.26 2115.88 433.66 2007.4 433.34 2007.4 433.94"/><polyline class="cls-4" points="1947.15 437 2041.95 437.28 2041.96 435.36 1947.16 435.08 1947.15 437"/><line class="cls-4" x1="1517.65" y1="117.26" x2="1560.01" y2="117.38"/><line class="cls-4" x1="1560.04" y1="108.38" x2="1517.68" y2="108.26"/><polyline class="cls-3" points="1605.99 436 1700.79 436.28 1700.8 434.36 1606 434.08 1605.99 436"/><polyline class="cls-4" points="1333.34 438.92 1336.7 438.93 1336.73 429.44 1333.37 429.43 1333.34 438.92"/><polyline class="cls-4" points="1336.7 438.93 1461.02 439.29 1464.38 439.3 1464.41 429.82 1461.05 429.81 1461.02 439.29"/><line class="cls-4" x1="1336.73" y1="429.45" x2="1461.05" y2="429.81"/><polyline class="cls-4" points="1336.71 437.01 1461.03 437.37 1461.03 436.65 1336.71 436.29 1336.71 437.01"/><polyline class="cls-4" points="1336.72 431.96 1461.04 432.33 1461.05 431.73 1336.73 431.37 1336.72 431.96"/><polyline class="cls-3" points="1521.27 435.75 1426.47 435.47 1426.48 433.55 1521.28 433.83 1521.27 435.75"/><polyline class="cls-4" points="1901.42 34.51 1900.71 274.03 1909.71 274.05 1910.44 25.53"/><line class="cls-4" x1="1909.22" y1="440.37" x2="1909.25" y2="431.37"/><polyline class="cls-4" points="1190.3 32.41 1190.33 23.41 1181.21 23.39"/><polyline class="cls-4" points="1180.77 172.91 1180.45 281.74 1189.56 281.77 1189.89 172.93 1180.77 172.91"/><line class="cls-4" x1="1.29" y1="618.35" x2="165.21" y2="618.84"/><line class="cls-4" x1="180.97" y1="603.28" x2="1.33" y2="602.75"/><line class="cls-4" x1="165.21" y1="618.84" x2="164.28" y2="934.91"/><line class="cls-4" x1="180" y1="934.96" x2="180.97" y2="603.28"/><line class="cls-2" x1="2274.48" y1="81.57" x2="2274.13" y2="200"/><polyline class="cls-2" points="2278.93 200.02 2279.28 81.58 2274.48 81.56"/><polygon class="cls-5" points="2279.28 81.46 2279.16 81.46 2279.16 81.58 2279.28 81.7 2279.4 81.58 2279.4 81.46 2279.28 81.46"/><polygon class="cls-6" points="2279.28 81.46 2279.16 81.46 2279.16 81.58 2279.28 81.7 2279.4 81.58 2279.4 81.46 2279.28 81.46"/><polygon class="cls-5" points="2278.93 199.9 2278.81 199.9 2278.81 200.02 2278.93 200.14 2279.05 200.02 2279.05 199.9 2278.93 199.9"/><polygon class="cls-6" points="2278.93 199.9 2278.81 199.9 2278.81 200.02 2278.93 200.14 2279.05 200.02 2279.05 199.9 2278.93 199.9"/><polyline class="cls-2" points="2279.28 81.58 2278.93 200.02 2274.13 200 2273.78 318.56"/><polyline class="cls-2" points="2278.58 318.58 2278.93 200.02 2274.13 200"/><polygon class="cls-5" points="2278.93 199.9 2278.81 199.9 2278.81 200.02 2278.93 200.14 2279.05 200.02 2279.05 199.9 2278.93 199.9"/><polygon class="cls-6" points="2278.93 199.9 2278.81 199.9 2278.81 200.02 2278.93 200.14 2279.05 200.02 2279.05 199.9 2278.93 199.9"/><polygon class="cls-5" points="2278.58 318.46 2278.46 318.46 2278.46 318.58 2278.58 318.7 2278.7 318.58 2278.7 318.46 2278.58 318.46"/><polygon class="cls-6" points="2278.58 318.46 2278.46 318.46 2278.46 318.58 2278.58 318.7 2278.7 318.58 2278.7 318.46 2278.58 318.46"/><polyline class="cls-2" points="2278.93 200.02 2278.58 318.58 2273.78 318.56 2273.43 437"/><polyline class="cls-2" points="2278.23 437.02 2278.58 318.58 2273.78 318.56"/><polygon class="cls-5" points="2278.58 318.46 2278.46 318.46 2278.46 318.58 2278.58 318.7 2278.7 318.58 2278.7 318.46 2278.58 318.46"/><polygon class="cls-6" points="2278.58 318.46 2278.46 318.46 2278.46 318.58 2278.58 318.7 2278.7 318.58 2278.7 318.46 2278.58 318.46"/><line class="cls-2" x1="2278.23" y1="437.02" x2="2273.43" y2="437"/><line class="cls-2" x1="2278.58" y1="318.58" x2="2278.25" y2="432.46"/><line class="cls-2" x1="2273.43" y1="437" x2="2273.08" y2="555.44"/><polyline class="cls-2" points="2277.88 555.46 2278.23 437.02 2273.43 437"/><polygon class="cls-5" points="2277.88 555.34 2277.76 555.34 2277.76 555.46 2277.88 555.58 2278 555.46 2278 555.34 2277.88 555.34"/><polygon class="cls-6" points="2277.88 555.34 2277.76 555.34 2277.76 555.46 2277.88 555.58 2278 555.46 2278 555.34 2277.88 555.34"/><polyline class="cls-2" points="2278.22 441.46 2277.88 555.46 2273.08 555.44 2272.73 673.88"/><polyline class="cls-2" points="2277.54 673.9 2277.88 555.46 2273.08 555.44"/><polygon class="cls-5" points="2277.88 555.34 2277.76 555.34 2277.76 555.46 2277.88 555.58 2278 555.46 2278 555.34 2277.88 555.34"/><polygon class="cls-6" points="2277.88 555.34 2277.76 555.34 2277.76 555.46 2277.88 555.58 2278 555.46 2278 555.34 2277.88 555.34"/><polygon class="cls-5" points="2277.54 673.78 2277.42 673.78 2277.42 673.9 2277.54 674.02 2277.65 673.9 2277.65 673.78 2277.54 673.78"/><polygon class="cls-6" points="2277.54 673.78 2277.42 673.78 2277.42 673.9 2277.54 674.02 2277.65 673.9 2277.65 673.78 2277.54 673.78"/><polyline class="cls-2" points="2277.88 555.46 2277.54 673.9 2272.73 673.88 2272.39 792.32"/><polyline class="cls-2" points="2277.19 792.34 2277.54 673.9 2272.73 673.88"/><polygon class="cls-5" points="2277.54 673.78 2277.42 673.78 2277.42 673.9 2277.54 674.02 2277.65 673.9 2277.65 673.78 2277.54 673.78"/><polygon class="cls-6" points="2277.54 673.78 2277.42 673.78 2277.42 673.9 2277.54 674.02 2277.65 673.9 2277.65 673.78 2277.54 673.78"/><polygon class="cls-5" points="2277.19 792.22 2277.07 792.22 2277.07 792.34 2277.19 792.46 2277.31 792.34 2277.31 792.22 2277.19 792.22"/><polygon class="cls-6" points="2277.19 792.22 2277.07 792.22 2277.07 792.34 2277.19 792.46 2277.31 792.34 2277.31 792.22 2277.19 792.22"/><polyline class="cls-2" points="2277.54 673.9 2277.19 792.34 2272.39 792.32 2272.04 910.76"/><polyline class="cls-2" points="2276.84 910.78 2277.19 792.34 2272.39 792.32"/><polygon class="cls-5" points="2277.19 792.22 2277.07 792.22 2277.07 792.34 2277.19 792.46 2277.31 792.34 2277.31 792.22 2277.19 792.22"/><polygon class="cls-6" points="2277.19 792.22 2277.07 792.22 2277.07 792.34 2277.19 792.46 2277.31 792.34 2277.31 792.22 2277.19 792.22"/><polygon class="cls-5" points="2276.84 910.66 2276.72 910.66 2276.72 910.77 2276.84 910.9 2276.96 910.78 2276.96 910.66 2276.84 910.66"/><polygon class="cls-6" points="2276.84 910.66 2276.72 910.66 2276.72 910.77 2276.84 910.9 2276.96 910.78 2276.96 910.66 2276.84 910.66"/><polyline class="cls-2" points="2277.19 792.34 2276.84 910.78 2272.04 910.76 2271.95 941.72"/><polyline class="cls-2" points="2276.75 941.74 2276.84 910.78 2272.04 910.76"/><polygon class="cls-5" points="2276.84 910.66 2276.72 910.66 2276.72 910.77 2276.84 910.9 2276.96 910.78 2276.96 910.66 2276.84 910.66"/><polygon class="cls-6" points="2276.84 910.66 2276.72 910.66 2276.72 910.77 2276.84 910.9 2276.96 910.78 2276.96 910.66 2276.84 910.66"/><line class="cls-2" x1="2276.84" y1="910.78" x2="2276.75" y2="941.74"/><line class="cls-4" x1="1156.64" y1="10.11" x2="1156.58" y2="32.31"/><line class="cls-4" x1="1165.61" y1="23.34" x2="1165.64" y2="10.14"/><line class="cls-4" x1="1156.58" y1="32.31" x2="1190.3" y2="32.41"/><line class="cls-4" x1="1181.21" y1="23.39" x2="1165.61" y2="23.34"/><line class="cls-4" x1="1517.9" y1="33.38" x2="1560.26" y2="33.5"/><polyline class="cls-4" points="1867.4 12.21 1867.34 34.41 1901.42 34.51"/><polyline class="cls-4" points="2273.45 432.44 2119.25 431.99 2119.22 440.99 2273.42 441.44"/><line class="cls-4" x1="2278.22" y1="441.46" x2="2278.25" y2="432.46"/><line class="cls-4" x1="2272.05" y1="905.12" x2="2240.73" y2="905.03"/><line class="cls-4" x1="2254.02" y1="918.27" x2="2272.02" y2="918.32"/><polyline class="cls-4" points="1189.25 429.25 1189.26 426.01 1179.9 425.98 1179.89 429.22 1189.25 429.25"/><polyline class="cls-4" points="1189.67 285.13 1189.69 281.77 1180.32 281.74 1180.31 285.1 1189.67 285.13"/><line class="cls-4" x1="1179.9" y1="425.98" x2="1180.32" y2="285.1"/><line class="cls-4" x1="1189.26" y1="424.81" x2="1189.26" y2="426.01"/><polyline class="cls-4" points="1187.46 426.01 1187.87 285.13 1187.04 285.12 1186.62 426 1187.46 426.01"/><polyline class="cls-4" points="1182.3 425.99 1182.72 285.11 1182.11 285.11 1181.7 425.99 1182.3 425.99"/><polyline class="cls-4" points="1190.01 172.93 1190.02 169.69 1180.65 169.67 1180.65 172.91 1190.01 172.93"/><polyline class="cls-4" points="1190.41 35.77 1190.42 32.41 1181.06 32.39 1181.05 35.74 1190.41 35.77"/><line class="cls-4" x1="1180.66" y1="169.66" x2="1181.05" y2="35.75"/><line class="cls-4" x1="1190.41" y1="35.77" x2="1190.25" y2="88.33"/><polyline class="cls-4" points="1188.22 169.69 1188.61 35.77 1187.77 35.77 1187.37 169.68 1188.22 169.69"/><polyline class="cls-4" points="1183.06 169.67 1183.45 35.75 1182.85 35.75 1182.46 169.67 1183.06 169.67"/><polyline class="cls-4" points="1568.33 430.13 1568.34 426.89 1558.86 426.86 1558.85 430.1 1568.33 430.13"/><polyline class="cls-4" points="1568.78 277.61 1568.79 274.25 1559.31 274.22 1559.3 277.58 1568.78 277.61"/><line class="cls-4" x1="1558.86" y1="426.86" x2="1559.3" y2="277.58"/><line class="cls-4" x1="1568.78" y1="277.61" x2="1568.34" y2="426.89"/><polyline class="cls-4" points="1566.54 426.88 1566.98 277.6 1566.14 277.6 1565.7 426.88 1566.54 426.88"/><polyline class="cls-4" points="1561.38 426.87 1561.82 277.59 1561.22 277.59 1560.78 426.87 1561.38 426.87"/><polyline class="cls-4" points="1662.86 439.89 1666.22 439.9 1666.25 430.42 1662.89 430.41 1662.86 439.89"/><polyline class="cls-4" points="1666.22 439.9 1785.5 440.25 1788.74 440.26 1788.77 430.78 1785.53 430.77 1785.5 440.25"/><line class="cls-4" x1="1666.25" y1="430.42" x2="1785.53" y2="430.77"/><polyline class="cls-4" points="1666.23 437.98 1785.51 438.33 1785.51 437.61 1666.23 437.26 1666.23 437.98"/><polyline class="cls-4" points="1666.24 432.94 1785.52 433.29 1785.52 432.69 1666.24 432.34 1666.24 432.94"/><line class="cls-4" x1="1788.74" y1="440.02" x2="1909.22" y2="440.37"/><polyline class="cls-4" points="1909.25 431.37 1788.77 431.02 1788.74 440.02"/><polyline class="cls-4" points="1333.37 429.68 1180.01 429.22 1179.98 438.22 1333.34 438.68 1333.37 429.68"/><polyline class="cls-4" points="1909.49 431.37 1909.5 428.13 1900.02 428.1 1900.01 431.34 1909.49 431.37"/><polyline class="cls-4" points="1909.94 277.41 1909.95 274.05 1900.47 274.03 1900.46 277.38 1909.94 277.41"/><line class="cls-4" x1="1900.02" y1="428.1" x2="1900.02" y2="426.42"/><line class="cls-4" x1="1909.94" y1="277.41" x2="1909.5" y2="428.13"/><polyline class="cls-4" points="1907.7 428.13 1908.14 277.41 1907.3 277.41 1906.86 428.12 1907.7 428.13"/><polyline class="cls-4" points="1902.54 428.11 1902.98 277.39 1902.38 277.39 1901.94 428.11 1902.54 428.11"/><line class="cls-4" x1="2240.73" y1="905.03" x2="2240.63" y2="941.03"/><line class="cls-4" x1="1900.46" y1="277.38" x2="1900.02" y2="428.1"/><line class="cls-4" x1="2290.79" y1="941.78" x2="2293.54" y2="7.1"/><polyline class="cls-4" points="2294.38 7.1 3.11 0.36 0.36 935.03 1337.51 938.97"/><line class="cls-4" x1="1699.55" y1="940.04" x2="2291.63" y2="941.78"/><g id="Asientos"><rect id="seat-32" class="cls-7 seat" x="163.98" y="30.51" width="80.97" height="85.52" rx="15.73"/><rect id="seat-35" class="cls-7 seat" x="251.88" y="30.51" width="80.97" height="85.52" rx="15.73"/><rect id="seat-33" class="cls-7 seat" x="163.98" y="132.71" width="80.97" height="85.52" rx="15.73"/><rect id="seat-36" class="cls-7 seat" x="251.88" y="132.71" width="80.97" height="85.52" rx="15.73"/><rect id="seat-34" class="cls-7 seat" x="163.98" y="234.29" width="80.97" height="85.52" rx="15.73"/><rect id="seat-37" class="cls-7 seat" x="251.88" y="234.29" width="80.97" height="85.52" rx="15.73"/><rect id="seat-38" class="cls-7 seat" x="467.62" y="30.51" width="80.97" height="85.52" rx="15.73"/><rect id="seat-39" class="cls-7 seat" x="467.62" y="132.71" width="80.97" height="85.52" rx="15.73"/><rect id="seat-41" class="cls-7 seat" x="555.51" y="132.71" width="80.97" height="85.52" rx="15.73"/><rect id="seat-40" class="cls-7 seat" x="467.62" y="234.29" width="80.97" height="85.52" rx="15.73"/><rect id="seat-42" class="cls-7 seat" x="555.51" y="234.29" width="80.97" height="85.52" rx="15.73"/><rect id="seat-44" class="cls-7 seat" x="888.52" y="132.71" width="80.97" height="85.52" rx="15.73"/><rect id="seat-46" class="cls-7 seat" x="976.42" y="132.71" width="80.97" height="85.52" rx="15.73"/><rect id="seat-45" class="cls-7 seat" x="888.52" y="234.29" width="80.97" height="85.52" rx="15.73"/><rect id="seat-47" class="cls-7 seat" x="976.42" y="234.29" width="80.97" height="85.52" rx="15.73"/><rect id="seat-43" class="cls-7 seat" x="936.52" y="31.12" width="80.97" height="85.52" rx="15.73"/><rect id="seat-64" class="cls-7 seat" x="1194.65" y="181.57" width="80.97" height="85.52" rx="15.73"/><rect id="seat-48" class="cls-7 seat" x="716.35" y="730.94" width="80.97" height="85.52" rx="15.73"/><rect id="seat-50" class="cls-7 seat" x="804.25" y="730.94" width="80.97" height="85.52" rx="15.73"/><rect id="seat-49" class="cls-7 seat" x="716.35" y="832.52" width="80.97" height="85.52" rx="15.73"/><rect id="seat-51" class="cls-7 seat" x="804.25" y="832.52" width="80.97" height="85.52" rx="15.73"/><rect id="seat-52" class="cls-7 seat" x="1068.69" y="730.94" width="80.97" height="85.52" rx="15.73"/><rect id="seat-54" class="cls-7 seat" x="1156.59" y="730.94" width="80.97" height="85.52" rx="15.73"/><rect id="seat-53" class="cls-7 seat" x="1068.69" y="832.52" width="80.97" height="85.52" rx="15.73"/><rect id="seat-55" class="cls-7 seat" x="1156.59" y="832.52" width="80.97" height="85.52" rx="15.73"/><rect id="seat-56" class="cls-7 seat" x="1393.27" y="735.54" width="80.97" height="85.52" rx="15.73"/><rect id="seat-58" class="cls-7 seat" x="1481.16" y="735.54" width="80.97" height="85.52" rx="15.73"/><rect id="seat-57" class="cls-7 seat" x="1393.27" y="837.12" width="80.97" height="85.52" rx="15.73"/><rect id="seat-59" class="cls-7 seat" x="1481.16" y="837.12" width="80.97" height="85.52" rx="15.73"/><rect id="seat-60" class="cls-7 seat" x="1706.72" y="738.97" width="80.97" height="85.52" rx="15.73"/><rect id="seat-62" class="cls-7 seat" x="1981.51" y="738.97" width="80.97" height="85.52" rx="15.73"/><rect id="seat-61" class="cls-7 seat" x="1706.72" y="840.56" width="80.97" height="85.52" rx="15.73"/><rect id="seat-63" class="cls-7 seat" x="1981.51" y="840.56" width="80.97" height="85.52" rx="15.73"/><rect id="seat-65" class="cls-7 seat" x="1814.45" y="182.84" width="80.97" height="85.52" rx="15.73"/><rect id="seat-66" class="cls-7 seat" x="2167.23" y="185.29" width="80.97" height="85.52" rx="15.73"/></g><g id="Numeros"><text class="cls-8" transform="matrix(1, 0, 0, 1, 184.22, 84.26)">32</text><text class="cls-8" transform="matrix(1, 0, 0, 1, 271.7, 187.25)">36</text><text class="cls-8" transform="matrix(1, 0, 0, 1, 184.22, 287.09)">34</text><text class="cls-8" transform="matrix(1, 0, 0, 1, 488.47, 287.09)">40</text><text class="cls-8" transform="matrix(1, 0, 0, 1, 575.93, 187.25)">41</text><text class="cls-8" transform="matrix(1, 0, 0, 1, 1215.87, 234.29)">64</text><text class="cls-8" transform="matrix(1, 0, 0, 1, 1834.73, 238.88)">65</text><text class="cls-8" transform="matrix(1, 0, 0, 1, 2188.27, 240.64)">66</text><text class="cls-8" transform="matrix(1, 0, 0, 1, 2002.66, 796.42)">62</text><text class="cls-8" transform="matrix(1, 0, 0, 1, 1728.28, 894.55)">61</text><text class="cls-8" transform="matrix(1, 0, 0, 1, 1414.36, 890.46)">57</text><text class="cls-8" transform="matrix(1, 0, 0, 1, 1500.95, 790.86)">58</text><text class="cls-8" transform="matrix(1, 0, 0, 1, 1177.67, 790.27)">54</text><text class="cls-8" transform="matrix(1, 0, 0, 1, 1090.62, 887.4)">53</text><text class="cls-8" transform="matrix(1, 0, 0, 1, 736.42, 885.38)">49</text><text class="cls-8" transform="matrix(1, 0, 0, 1, 825.36, 785.27)">50</text><text class="cls-8" transform="matrix(1, 0, 0, 1, 995.86, 287.01)">47</text><text class="cls-8" transform="matrix(1, 0, 0, 1, 957.26, 85.58)">43</text><text class="cls-8" transform="matrix(1, 0, 0, 1, 271.7, 85.58)">35</text><text class="cls-8" transform="matrix(1, 0, 0, 1, 185.75, 189.03)">33</text><text class="cls-8" transform="matrix(1, 0, 0, 1, 272.29, 289.7)">37</text><text class="cls-8" transform="matrix(1, 0, 0, 1, 574.23, 287.01)">42</text><text class="cls-8" transform="matrix(1, 0, 0, 1, 488.47, 188.65)">39</text><text class="cls-8" transform="matrix(1, 0, 0, 1, 488.47, 84.26)">38</text><text class="cls-8" transform="matrix(1, 0, 0, 1, 997.22, 185.93)">46</text><text class="cls-8" transform="matrix(1, 0, 0, 1, 908.58, 185.93)">44</text><text class="cls-8" transform="matrix(1, 0, 0, 1, 908.58, 287.01)">45</text><text class="cls-8" transform="matrix(1, 0, 0, 1, 736.42, 785.27)">48</text><text class="cls-8" transform="matrix(1, 0, 0, 1, 825.36, 885.38)">51</text><text class="cls-8" transform="matrix(1, 0, 0, 1, 1090.62, 788.28)">52</text><text class="cls-8" transform="matrix(1, 0, 0, 1, 1177.67, 887.4)">55</text><text class="cls-8" transform="matrix(1, 0, 0, 1, 1414.36, 790.27)">56</text><text class="cls-8" transform="matrix(1, 0, 0, 1, 1502.56, 891.49)">59</text><text class="cls-8" transform="matrix(1, 0, 0, 1, 1728.28, 794.08)">60</text><text class="cls-8" transform="matrix(1, 0, 0, 1, 2002.66, 895.49)">63</text></g></svg>