<svg xmlns="http://www.w3.org/2000/svg" id="Capa_1" data-name="Capa 1" viewBox="0 0 2887.13 1043.32"><defs><style>.cls-1{fill:#376cb3;}.cls-10,.cls-11,.cls-12,.cls-15,.cls-16,.cls-2,.cls-3,.cls-4,.cls-6,.cls-7,.cls-8,.cls-9{isolation:isolate;}.cls-12,.cls-3,.cls-4{font-size:72px;}.cls-10,.cls-11,.cls-3,.cls-4,.cls-6,.cls-7,.cls-8,.cls-9{fill:#fff;}.cls-10,.cls-11,.cls-12,.cls-15,.cls-16,.cls-3,.cls-4,.cls-6,.cls-7,.cls-8,.cls-9{font-family:ArialRoundedMTBold, Arial Rounded MT Bold;}.cls-4{letter-spacing:-0.04em;}.cls-5{fill:#999;}.cls-15,.cls-6,.cls-7{font-size:60px;}.cls-7{letter-spacing:-0.02em;}.cls-8,.cls-9{font-size:59.82px;}.cls-9{letter-spacing:-0.02em;}.cls-10,.cls-11{font-size:48.76px;}.cls-11{letter-spacing:-0.02em;}.cls-13,.cls-14{fill:none;}.cls-13{stroke:#1d1d1b;stroke-miterlimit:10;}.cls-16{font-size:36px;}</style></defs><rect class="cls-1" x="463.15" y="32.55" width="468.68" height="353.94" rx="57.8"/><g class="cls-2"><text pointer-events="none" class="cls-3" transform="translate(495.28 232.67)"><tspan xml:space="preserve">    S</tspan></text></g><text pointer-events="none" class="cls-4" transform="translate(615.31 232.67)">S</text><text pointer-events="none" class="cls-3" transform="translate(660.59 232.67)">.HH</text><rect class="cls-5 seat" x="1260.56" y="40.24" width="107.23" height="107.23" rx="24.64" id="seat-2"/><rect class="cls-5 seat" x="1260.56" y="164.33" width="107.23" height="107.23" rx="24.64" id="seat-3"/><rect class="cls-5 seat" x="1400.34" y="40.24" width="107.23" height="107.23" rx="24.64" id="seat-4"/><rect class="cls-5 seat" x="1400.34" y="164.33" width="107.23" height="107.23" rx="24.64" id="seat-5"/><rect class="cls-5 seat" x="1092.15" y="93.86" width="107.23" height="107.23" rx="24.64" id="seat-1"/><rect class="cls-5 seat" x="1747.05" y="147.48" width="107.23" height="107.23" rx="24.64" id="seat-33"/><rect class="cls-5 seat" x="1912.49" y="57.09" width="107.23" height="107.23" rx="24.64" id="seat-6"/><rect class="cls-5 seat" x="2166.79" y="57.09" width="107.23" height="107.23" rx="24.64" id="seat-7"/><rect class="cls-5 seat" x="2363.62" y="31.82" width="107.23" height="107.23" rx="24.64" id="seat-8"/><rect class="cls-5 seat" x="2363.62" y="155.9" width="107.23" height="107.23" rx="24.64" id="seat-9"/><rect class="cls-5 seat" x="2503.41" y="155.9" width="107.23" height="107.23" rx="24.64" id="seat-10"/><rect class="cls-5 seat" x="1443.56" y="451.55" width="107.23" height="107.23" rx="24.64" id="seat-11"/><rect class="cls-5 seat" x="1443.56" y="575.63" width="107.23" height="107.23" rx="24.64" id="seat-12"/><rect class="cls-5 seat" x="1583.34" y="451.55" width="107.23" height="107.23" rx="24.64" id="seat-13"/><rect class="cls-5 seat" x="1583.34" y="575.63" width="107.23" height="107.23" rx="24.64" id="seat-14"/><rect class="cls-5 seat" x="1794.85" y="567.21" width="107.23" height="107.23" rx="24.64" id="seat-16"/><rect class="cls-5 seat" x="1934.64" y="567.21" width="107.23" height="107.23" rx="24.64" id="seat-18"/><rect class="cls-5 seat" x="2149.11" y="451.55" width="107.23" height="107.23" rx="24.64" id="seat-19"/><rect class="cls-5 seat" x="2149.11" y="575.63" width="107.23" height="107.23" rx="24.64" id="seat-20"/><rect class="cls-5 seat" x="2288.9" y="451.55" width="107.23" height="107.23" rx="24.64" id="seat-21"/><rect class="cls-5 seat" x="2288.9" y="575.63" width="107.23" height="107.23" rx="24.64" id="seat-22"/><rect class="cls-5 seat" x="2493" y="451.55" width="107.23" height="107.23" rx="24.64" id="seat-23"/><rect class="cls-5 seat" x="2493" y="575.63" width="107.23" height="107.23" rx="24.64" id="seat-24"/><rect class="cls-5 seat" x="2632.79" y="451.55" width="107.23" height="107.23" rx="24.64" id="seat-25"/><rect class="cls-5 seat" x="2632.79" y="575.63" width="107.23" height="107.23" rx="24.64" id="seat-26"/><rect class="cls-5 seat" x="525.92" y="905.84" width="107.23" height="107.23" rx="24.64" id="seat-31"/><rect class="cls-5 seat" x="712.55" y="905.84" width="107.23" height="107.23" rx="24.64" id="seat-32"/><rect class="cls-5 seat" x="1226.14" y="813.86" width="107.23" height="107.23" rx="24.64" id="seat-27"/><rect class="cls-5 seat" x="1400.34" y="905.84" width="107.23" height="107.23" rx="24.64" id="seat-28"/><rect class="cls-5 seat" x="1966.11" y="905.84" width="107.23" height="107.23" rx="24.64" id="seat-29"/><rect class="cls-5 seat" x="2133.64" y="795.26" width="107.23" height="107.23" rx="24.64" id="seat-30"/><rect class="cls-1" x="1558.05" y="800.83" width="354.45" height="210.02" rx="57.8"/><text pointer-events="none" class="cls-6" transform="translate(1576.51 924.12)">C</text><text pointer-events="none" class="cls-7" transform="translate(1620.92 924.12)">r</text><text pointer-events="none" class="cls-6" transform="translate(1645.71 924.12)">ea Café</text><rect class="cls-1" x="2307.54" y="795.26" width="357.3" height="224.75" rx="57.8"/><g class="cls-2"><text pointer-events="none" class="cls-8" transform="translate(2349.25 883) scale(0.92 1)"><tspan xml:space="preserve">    Sala</tspan></text></g><g class="cls-2"><text pointer-events="none" class="cls-8" transform="translate(2349.25 954.78) scale(0.92 1)"><tspan xml:space="preserve">    Ca</tspan></text></g><text pointer-events="none" class="cls-9" transform="translate(2477.72 954.78) scale(0.92 1)">r</text><text pointer-events="none" class="cls-8" transform="translate(2500.45 954.78) scale(0.92 1)">al</text><rect class="cls-1" x="872.23" y="795.26" width="307.08" height="221.16" rx="57.8"/><g class="cls-2"><text pointer-events="none" class="cls-10" transform="translate(899.22 890.22)"><tspan xml:space="preserve">    Sala</tspan></text></g><g class="cls-2"><text pointer-events="none" class="cls-10" transform="translate(899.22 948.73)"><tspan xml:space="preserve"> Mo</tspan></text></g><text pointer-events="none" class="cls-11" transform="translate(981.48 948.73)">c</text><text pointer-events="none" class="cls-10" transform="translate(1009.24 948.73)">hica</text><text pointer-events="none" class="cls-12" transform="translate(539.86 558.47)">1er Piso</text><rect class="cls-13" x="0.5" y="6.54" width="2886.13" height="1029.45"/><line class="cls-13" x1="1223.62" y1="6.54" x2="1223.62" y2="306.79"/><line class="cls-13" x1="1057.49" y1="306.79" x2="1333.37" y2="306.79"/><line class="cls-14" x1="1223.62" y1="306.79" x2="1314.17" y2="306.79"/><line class="cls-14" x1="1421.41" y1="306.79" x2="1523.2" y2="306.79"/><path class="cls-5" d="M910.13,1178.07" transform="translate(-416.33 -143.68)"/><path class="cls-5" d="M901.76,848.78" transform="translate(-416.33 -143.68)"/><line class="cls-14" x1="1889.08" y1="5.77" x2="1886.01" y2="306.03"/><line class="cls-14" x1="1602.86" y1="306.79" x2="1887.71" y2="306.79"/><line class="cls-14" x1="1858.88" y1="306.79" x2="2019.73" y2="306.79"/><line class="cls-14" x1="2103.22" y1="1.74" x2="2100.15" y2="302"/><line class="cls-14" x1="839.91" y1="1035.99" x2="844.93" y2="777.16"/><line class="cls-13" x1="1392.05" y1="435.52" x2="1389.94" y2="710.48"/><line class="cls-13" x1="1732.24" y1="435.52" x2="1732.24" y2="710.48"/><line class="cls-13" x1="2078.67" y1="435.52" x2="2081.51" y2="716.07"/><line class="cls-13" x1="2432.69" y1="435.52" x2="2432.69" y2="713.63"/><rect class="cls-5 seat" x="1796.33" y="451.55" width="107.23" height="107.23" rx="24.64" id="seat-15"/><rect class="cls-5 seat" x="1934.64" y="451.55" width="107.23" height="107.23" rx="24.64" id="seat-17"/><g class="cls-2"><text pointer-events="none" class="cls-3" transform="translate(1055.39 173.71)"><tspan xml:space="preserve">    </tspan></text></g><text pointer-events="none" class="cls-15" transform="translate(1127.39 173.71)">1</text><g class="cls-2"><text pointer-events="none" class="cls-3" transform="translate(1229 120.1)"><tspan xml:space="preserve">    </tspan></text></g><text pointer-events="none" class="cls-15" transform="translate(1301 120.1)">2</text><g class="cls-2"><text pointer-events="none" class="cls-3" transform="translate(1226.81 241.9)"><tspan xml:space="preserve">    </tspan></text></g><text pointer-events="none" class="cls-15" transform="translate(1298.81 241.9)">3</text><g class="cls-2"><text pointer-events="none" class="cls-3" transform="translate(1360.52 120.1)"><tspan xml:space="preserve">    </tspan></text></g><text pointer-events="none" class="cls-15" transform="translate(1432.52 120.1)">4</text><g class="cls-2"><text pointer-events="none" class="cls-3" transform="translate(1360.52 241.9)"><tspan xml:space="preserve">    </tspan></text></g><text pointer-events="none" class="cls-15" transform="translate(1432.52 241.9)">5</text><g class="cls-2"><text pointer-events="none" class="cls-3" transform="translate(1693.38 230.56)"><tspan xml:space="preserve">    </tspan></text></g><text pointer-events="none" class="cls-15" transform="translate(1765.38 230.56)">33</text><g class="cls-2"><text pointer-events="none" class="cls-3" transform="translate(1880.94 134.67)"><tspan xml:space="preserve">    </tspan></text></g><text pointer-events="none" class="cls-15" transform="translate(1952.94 134.67)">6</text><g class="cls-2"><text pointer-events="none" class="cls-3" transform="translate(2131.66 134.67)"><tspan xml:space="preserve">    </tspan></text></g><text pointer-events="none" class="cls-15" transform="translate(2203.66 134.67)">7</text><g class="cls-2"><text pointer-events="none" class="cls-3" transform="translate(2331.38 108.59)"><tspan xml:space="preserve">    </tspan></text></g><text pointer-events="none" class="cls-15" transform="translate(2403.38 108.59)">8</text><g class="cls-2"><text pointer-events="none" class="cls-3" transform="translate(2327.62 232.67)"><tspan xml:space="preserve">    </tspan></text></g><text pointer-events="none" class="cls-15" transform="translate(2399.62 232.67)">9</text><g class="cls-2"><text pointer-events="none" class="cls-3" transform="translate(2441.72 227.87)"><tspan xml:space="preserve">    </tspan></text></g><text pointer-events="none" class="cls-15" transform="translate(2513.72 227.87)">10</text><g class="cls-2"><text pointer-events="none" class="cls-3" transform="translate(1389.94 537.45)"><tspan xml:space="preserve">    </tspan></text></g><text pointer-events="none" class="cls-15" transform="translate(1461.94 537.45)">11</text><g class="cls-2"><text pointer-events="none" class="cls-3" transform="translate(1389.94 651.06)"><tspan xml:space="preserve">    </tspan></text></g><text pointer-events="none" class="cls-15" transform="translate(1461.94 651.06)">12</text><g class="cls-2"><text pointer-events="none" class="cls-3" transform="translate(1530.23 529.78)"><tspan xml:space="preserve">    </tspan></text></g><text pointer-events="none" class="cls-15" transform="translate(1602.23 529.78)">13</text><g class="cls-2"><text pointer-events="none" class="cls-3" transform="translate(1528.4 655.82)"><tspan xml:space="preserve">    </tspan></text></g><text pointer-events="none" class="cls-15" transform="translate(1600.4 655.82)">14</text><g class="cls-2"><text pointer-events="none" class="cls-3" transform="translate(1733.89 537.45)"><tspan xml:space="preserve">    </tspan></text></g><text pointer-events="none" class="cls-15" transform="translate(1805.89 537.45)">15</text><g class="cls-2"><text pointer-events="none" class="cls-3" transform="translate(1733.89 651.06)"><tspan xml:space="preserve">    </tspan></text></g><text pointer-events="none" class="cls-15" transform="translate(1805.89 651.06)">16</text><g class="cls-2"><text pointer-events="none" class="cls-3" transform="translate(1872.73 532.34)"><tspan xml:space="preserve">    </tspan></text></g><text pointer-events="none" class="cls-15" transform="translate(1944.73 532.34)">17</text><g class="cls-2"><text pointer-events="none" class="cls-3" transform="translate(1880.19 645.59)"><tspan xml:space="preserve">    </tspan></text></g><text pointer-events="none" class="cls-15" transform="translate(1952.19 645.59)">18</text><g class="cls-2"><text pointer-events="none" class="cls-3" transform="translate(2091.79 534.05)"><tspan xml:space="preserve">    </tspan></text></g><text pointer-events="none" class="cls-15" transform="translate(2163.79 534.05)">19</text><g class="cls-2"><text pointer-events="none" class="cls-3" transform="translate(2091.79 645.59)"><tspan xml:space="preserve">    </tspan></text></g><text pointer-events="none" class="cls-15" transform="translate(2163.79 645.59)">20</text><g class="cls-2"><text pointer-events="none" class="cls-3" transform="translate(2227.38 532.34)"><tspan xml:space="preserve">    </tspan></text></g><text pointer-events="none" class="cls-15" transform="translate(2299.38 532.34)">21</text><g class="cls-2"><text pointer-events="none" class="cls-3" transform="translate(2227.38 651.06)"><tspan xml:space="preserve">    </tspan></text></g><text pointer-events="none" class="cls-15" transform="translate(2299.38 651.06)">22</text><g class="cls-2"><text pointer-events="none" class="cls-3" transform="translate(2433.22 532.34)"><tspan xml:space="preserve">    </tspan></text></g><text pointer-events="none" class="cls-15" transform="translate(2505.22 532.34)">23</text><g class="cls-2"><text pointer-events="none" class="cls-3" transform="translate(2433.22 645.59)"><tspan xml:space="preserve">    </tspan></text></g><text pointer-events="none" class="cls-15" transform="translate(2505.22 645.59)">24</text><g class="cls-2"><text pointer-events="none" class="cls-3" transform="translate(2583.63 530.06)"><tspan xml:space="preserve">    </tspan></text></g><text pointer-events="none" class="cls-15" transform="translate(2655.63 530.06)">25</text><g class="cls-2"><text pointer-events="none" class="cls-3" transform="translate(2574.64 645.59)"><tspan xml:space="preserve">    </tspan></text></g><text pointer-events="none" class="cls-15" transform="translate(2646.64 645.59)">26</text><g class="cls-2"><text pointer-events="none" class="cls-3" transform="translate(476.28 984.1)"><tspan xml:space="preserve">    </tspan></text></g><text pointer-events="none" class="cls-15" transform="translate(548.28 984.1)">31</text><g class="cls-2"><text pointer-events="none" class="cls-3" transform="translate(661.49 984.1)"><tspan xml:space="preserve">    </tspan></text></g><text pointer-events="none" class="cls-15" transform="translate(733.49 984.1)">32</text><g class="cls-2"><text pointer-events="none" class="cls-3" transform="translate(1179.09 893.41)"><tspan xml:space="preserve">    </tspan></text></g><text pointer-events="none" class="cls-15" transform="translate(1251.09 893.41)">27</text><g class="cls-2"><text pointer-events="none" class="cls-3" transform="translate(1349.43 984.21)"><tspan xml:space="preserve">    </tspan></text></g><text pointer-events="none" class="cls-15" transform="translate(1421.43 984.21)">28</text><g class="cls-2"><text pointer-events="none" class="cls-3" transform="translate(1916.19 987.13)"><tspan xml:space="preserve">    </tspan></text></g><text pointer-events="none" class="cls-15" transform="translate(1988.19 987.13)">29</text><g class="cls-2"><text pointer-events="none" class="cls-3" transform="translate(2074.02 874.39)"><tspan xml:space="preserve">    </tspan></text></g><text pointer-events="none" class="cls-15" transform="translate(2146.02 874.39)">30</text><line class="cls-13" x1="1392.05" y1="435.52" x2="1486.2" y2="435.52"/><line class="cls-13" x1="1383.68" y1="705.85" x2="1477.84" y2="705.85"/><line class="cls-13" x1="1615.62" y1="435.52" x2="1832.88" y2="435.52"/><line class="cls-13" x1="1614.39" y1="713.83" x2="1831.65" y2="713.83"/><line class="cls-13" x1="1970.28" y1="435.52" x2="2187.54" y2="435.52"/><line class="cls-13" x1="1970" y1="710.96" x2="2187.25" y2="710.96"/><line class="cls-13" x1="2314.16" y1="435.52" x2="2531.42" y2="435.52"/><line class="cls-13" x1="2310.22" y1="713.63" x2="2527.48" y2="713.63"/><line class="cls-13" x1="2720.01" y1="426.8" x2="2868.22" y2="426.8"/><line class="cls-13" x1="2720.01" y1="705.1" x2="2868.22" y2="705.1"/><line class="cls-13" x1="2220.4" y1="286.52" x2="2664.84" y2="286.52"/><line class="cls-13" x1="2349.25" y1="8.42" x2="2349.25" y2="286.52"/><line class="cls-13" x1="2101.68" x2="2101.68" y2="278.1"/><path class="cls-13" d="M2304,450.47" transform="translate(-416.33 -143.68)"/><path class="cls-13" d="M2294.87,154.61" transform="translate(-416.33 -143.68)"/><line class="cls-13" x1="1553.56" y1="8.43" x2="1553.56" y2="306.79"/><line class="cls-14" x1="1440.93" y1="306.79" x2="1531.48" y2="306.79"/><line class="cls-13" x1="1447.69" y1="306.79" x2="1556.32" y2="306.79"/><line class="cls-13" x1="961.72" y1="6.54" x2="961.72" y2="386.49"/><line class="cls-13" x1="2664.84" y1="169.22" x2="2664.84" y2="286.52"/><line class="cls-13" x1="496.33" y1="768.36" x2="494.22" y2="1043.32"/><line class="cls-13" x1="845.32" y1="762.05" x2="843.22" y2="1037"/><line class="cls-13" x1="494.49" y1="768.36" x2="719.73" y2="768.36"/><path class="cls-13" d="M1260.87,905.73" transform="translate(-416.33 -143.68)"/><path class="cls-13" d="M1166.72,905.73" transform="translate(-416.33 -143.68)"/><line class="cls-13" x1="1207.31" y1="762.05" x2="1205.21" y2="1037"/><line class="cls-13" x1="1529.09" y1="768.36" x2="1527.08" y2="1031.79"/><line class="cls-13" x1="1205.54" y1="768.36" x2="1422.8" y2="768.36"/><line class="cls-13" x1="1945.74" y1="775.92" x2="1943.73" y2="1039.35"/><line class="cls-13" x1="2264.98" y1="774.86" x2="2262.96" y2="1038.29"/><line class="cls-13" x1="2055.13" y1="775.92" x2="2272.38" y2="775.92"/><line class="cls-13" x1="1657.02" y1="302" x2="2022.5" y2="302"/><line class="cls-13" x1="1878.54" y1="6.72" x2="1878.54" y2="305.08"/><text pointer-events="none" class="cls-16" transform="translate(548.28 824.37)">Medicina<tspan x="0" y="43.2">Ocupacional</tspan></text><text pointer-events="none" x="-416.33" y="-143.68"/></svg>