<svg xmlns="http://www.w3.org/2000/svg" xmlns:xlink="http://www.w3.org/1999/xlink" version="1.1" id="Capa_1" x="0px" y="0px" viewBox="0 0 3315.7 1073.6" style="enable-background:new 0 0 3315.7 1073.6;" xml:space="preserve">
<style type="text/css">
	.st0{fill:#0069B4;}
	.st1{fill:#FFFFFF;}
	.st2{font-family:'ArialRoundedMTBold';}
	.st3{font-size:72px;}
	.st4{letter-spacing:-2;}
	.st5{fill:#999999;}
	.st6{fill:none;stroke:#1D1D1B;stroke-miterlimit:10;}
	.st7{fill:none;}
	.st8{font-size:60px;}
	.st9{font-family:'BaskOldFace';}
	.st10{font-size:48px;}
	.st11{font-family:'Arial-BoldMT';}
</style>
    <title>Piso 2 Peru ulima version 8</title>
    <rect x="3306.5" width="9.2" height="9.2"/>
    <path class="st0" d="M818.5,45.1h353.1c31.9,0,57.8,25.9,57.8,57.8v238.3c0,31.9-25.9,57.8-57.8,57.8H818.5  c-31.9,0-57.8-25.9-57.8-57.8V102.9C760.7,71,786.6,45.1,818.5,45.1z"/>
    <g>
	<text transform="matrix(1 0 0 1 792.82 254.61)" class="st1 st2 st3">    S</text>
</g>
    <text transform="matrix(1 0 0 1 912.84 254.61)" class="st1 st2 st3 st4">S</text>
    <text transform="matrix(1 0 0 1 958.13 254.61)" class="st1 st2 st3">.HH</text>
    <path id="seat-21" class="st5 seat" d="M1508.3,83.4h57.9c13.6,0,24.6,11,24.6,24.6v58c0,13.6-11,24.6-24.6,24.6h-57.9  c-13.6,0-24.6-11-24.6-24.6v-58C1483.6,94.5,1494.6,83.4,1508.3,83.4z"/>
    <path id="seat-22" class="st5 seat" d="M1508.3,207.5h57.9c13.6,0,24.6,11,24.6,24.6v57.9c0,13.6-11,24.6-24.6,24.6h-57.9  c-13.6,0-24.6-11-24.6-24.6v-57.9C1483.6,218.6,1494.6,207.5,1508.3,207.5z"/>
    <path id="seat-23" class="st5 seat" d="M1648,83.4h57.9c13.6,0,24.6,11,24.6,24.6v58c0,13.6-11,24.6-24.6,24.6H1648  c-13.6,0-24.6-11-24.6-24.6v-58C1623.4,94.5,1634.4,83.4,1648,83.4z"/>
    <path id="seat-24" class="st5 seat" d="M1648,207.5h57.9c13.6,0,24.6,11,24.6,24.6v57.9c0,13.6-11,24.6-24.6,24.6H1648  c-13.6,0-24.6-11-24.6-24.6v-57.9C1623.4,218.6,1634.4,207.5,1648,207.5z"/>
    <path id="seat-1" class="st5 seat" d="M626.9,906.2h57.9c13.6,0,24.6,11,24.6,24.6v57.9c0,13.6-11,24.6-24.6,24.6h-57.9  c-13.6,0-24.6-11-24.6-24.6v-57.9C602.2,917.2,613.3,906.2,626.9,906.2z"/>
    <path id="seat-29" class="st5 seat" d="M2175.5,125.4h58c13.6,0,24.6,11,24.6,24.6V208c0,13.6-11,24.6-24.6,24.6h-58  c-13.6,0-24.6-11-24.6-24.6V150C2150.9,136.4,2161.9,125.4,2175.5,125.4z"/>
    <path id="seat-30" class="st5 seat" d="M2308.9,123.2h58c13.6,0,24.6,11,24.6,24.6v58c0,13.6-11,24.6-24.6,24.6h-58  c-13.6,0-24.6-11-24.6-24.6v-58C2284.3,134.2,2295.3,123.2,2308.9,123.2z"/>
    <path id="seat-8" class="st5 seat" d="M1809.1,581h57.9c13.6,0,24.6,11,24.6,24.6v57.9c0,13.6-11,24.6-24.6,24.6h-57.9  c-13.6,0-24.6-11-24.6-24.6v-57.9C1784.5,592,1795.5,581,1809.1,581z"/>
    <path id="seat-10" class="st5 seat" d="M2007,589h58c13.6,0,24.6,11,24.6,24.6v57.9c0,13.6-11,24.6-24.6,24.6h-58  c-13.6,0-24.6-11-24.6-24.6v-57.9C1982.4,600,1993.4,589,2007,589z"/>
    <path id="seat-11" class="st5 seat" d="M2235.9,476.4h58c13.6,0,24.6,11,24.6,24.6V559c0,13.6-11,24.6-24.6,24.6h-58  c-13.6,0-24.6-11-24.6-24.6V501C2211.2,487.4,2222.3,476.4,2235.9,476.4z"/>
    <path id="seat-12" class="st5 seat" d="M2235.9,600.5h58c13.6,0,24.6,11,24.6,24.6v57.9c0,13.6-11,24.6-24.6,24.6h-58  c-13.6,0-24.6-11-24.6-24.6v-57.9C2211.2,611.5,2222.3,600.5,2235.9,600.5z"/>
    <path id="seat-13" class="st5 seat" d="M2375.6,476.4h58c13.6,0,24.6,11,24.6,24.6V559c0,13.6-11,24.6-24.6,24.6h-58  c-13.6,0-24.6-11-24.6-24.6V501C2351,487.4,2362,476.4,2375.6,476.4z"/>
    <path id="seat-14" class="st5 seat" d="M2375.6,600.5h58c13.6,0,24.6,11,24.6,24.6v57.9c0,13.6-11,24.6-24.6,24.6h-58  c-13.6,0-24.6-11-24.6-24.6v-57.9C2351,611.5,2362,600.5,2375.6,600.5z"/>
    <path id="seat-15" class="st5 seat" d="M2594.8,480.5h58c13.6,0,24.6,11,24.6,24.6v57.9c0,13.6-11,24.6-24.6,24.6h-58  c-13.6,0-24.6-11-24.6-24.6v-57.9C2570.2,491.5,2581.2,480.5,2594.8,480.5z"/>
    <path id="seat-16" class="st5 seat" d="M2594.8,604.6h58c13.6,0,24.6,11,24.6,24.6v57.9c0,13.6-11,24.6-24.6,24.6h-58  c-13.6,0-24.6-11-24.6-24.6v-57.9C2570.2,615.6,2581.2,604.6,2594.8,604.6z"/>
    <path id="seat-17" class="st5 seat" d="M2734.6,480.5h58c13.6,0,24.6,11,24.6,24.6v57.9c0,13.6-11,24.6-24.6,24.6h-58  c-13.6,0-24.6-11-24.6-24.6v-57.9C2709.9,491.5,2721,480.5,2734.6,480.5z"/>
    <path id="seat-18" class="st5 seat" d="M2734.6,604.6h58c13.6,0,24.6,11,24.6,24.6v57.9c0,13.6-11,24.6-24.6,24.6h-58  c-13.6,0-24.6-11-24.6-24.6v-57.9C2709.9,615.6,2721,604.6,2734.6,604.6z"/>
    <path id="seat-31" class="st5 seat" d="M80.2,918.6h58c13.6,0,24.6,11,24.6,24.6v57.9c0,13.6-11,24.6-24.6,24.6h-58  c-13.6,0-24.6-11-24.6-24.6v-57.9C55.6,929.6,66.6,918.6,80.2,918.6z"/>
    <path id="seat-2" class="st5 seat" d="M882.5,912.7h57.9c13.6,0,24.6,11,24.6,24.6v57.9c0,13.6-11,24.6-24.6,24.6h-57.9  c-13.6,0-24.6-11-24.6-24.6v-57.9C857.9,923.7,868.9,912.7,882.5,912.7z"/>
    <path id="seat-32" class="st5 seat" d="M1248.4,843.3h57.9c13.6,0,24.6,11,24.6,24.6v57.9c0,13.6-11,24.6-24.6,24.6h-57.9  c-13.6,0-24.6-11-24.6-24.6v-57.9C1223.8,854.3,1234.8,843.3,1248.4,843.3z"/>
    <path id="seat-33" class="st5 seat" d="M1446.4,849.6h57.9c13.6,0,24.6,11,24.6,24.6v57.9c0,13.6-11,24.6-24.6,24.6h-57.9  c-13.6,0-24.6-11-24.6-24.6v-57.9C1421.7,860.6,1432.8,849.6,1446.4,849.6z"/>
    <path id="seat-3" class="st5 seat" d="M1646.5,938.4h57.9c13.6,0,24.6,11,24.6,24.6v57.9c0,13.6-11,24.6-24.6,24.6h-57.9  c-13.6,0-24.6-11-24.6-24.6V963C1621.9,949.4,1632.9,938.4,1646.5,938.4z"/>
    <path id="seat-4" class="st5 seat" d="M1833.9,937.2h57.9c13.6,0,24.6,11,24.6,24.6v57.9c0,13.6-11,24.6-24.6,24.6h-57.9  c-13.6,0-24.6-11-24.6-24.6v-57.9C1809.3,948.3,1820.3,937.2,1833.9,937.2z"/>
    <path id="seat-34" class="st5 seat" d="M2024.9,900h58c13.6,0,24.6,11,24.6,24.6v57.9c0,13.6-11,24.6-24.6,24.6h-58  c-13.6,0-24.6-11-24.6-24.6v-57.9C2000.3,911.1,2011.3,900,2024.9,900z"/>
    <text transform="matrix(1 0 0 1 668.74 574.11)" class="st2 st3">2do Piso</text>
    <rect x="6.8" y="36.8" class="st6" width="2886.1" height="1029.4"/>
    <path class="st5" d="M518.5,1064.6"/>
    <path class="st5" d="M510.1,735.3"/>
    <line class="st7" x1="2101.8" y1="332.4" x2="2101.8" y2="32.1"/>
    <line class="st7" x1="2403.5" y1="336.3" x2="2403.5" y2="36"/>
    <line class="st7" x1="577.2" y1="1060.4" x2="577.2" y2="776.8"/>
    <line class="st6" x1="1731.7" y1="452.6" x2="1731.7" y2="714.7"/>
    <line class="st6" x1="2112.5" y1="722.8" x2="2112.5" y2="455.1"/>
    <line class="st6" x1="2482.6" y1="464.9" x2="2482.6" y2="727"/>
    <line class="st6" x1="2612" y1="728.1" x2="2326.1" y2="728.1"/>
    <path id="seat-7" class="st5 seat" d="M1810.6,465.3h57.9c13.6,0,24.6,11,24.6,24.6v58c0,13.6-11,24.6-24.6,24.6h-57.9  c-13.6,0-24.6-11-24.6-24.6v-58C1786,476.3,1797,465.3,1810.6,465.3z"/>
    <path id="seat-9" class="st5 seat" d="M2006.6,466.2h58c13.6,0,24.6,11,24.6,24.6v58c0,13.6-11,24.6-24.6,24.6h-58  c-13.6,0-24.6-11-24.6-24.6v-58C1982,477.3,1993,466.2,2006.6,466.2z"/>
    <g>
	<text transform="matrix(1 0 0 1 566.24 984.55)" class="st1 st2 st3">    </text>
</g>
    <text transform="matrix(1 0 0 1 638.24 984.55)" class="st2 st8">1</text>
    <g>
	<text transform="matrix(1 0 0 1 1437.66 160.44)" class="st1 st2 st3">    </text>
</g>
    <text transform="matrix(1 0 0 1 1509.66 160.44)" class="st2 st8">21</text>
    <g>
	<text transform="matrix(1 0 0 1 1437.66 285.1)" class="st1 st2 st3">    </text>
</g>
    <text transform="matrix(1 0 0 1 1509.66 285.1)" class="st2 st8">22</text>
    <g>
	<text transform="matrix(1 0 0 1 1569.0699 163.3)" class="st1 st2 st3">    </text>
</g>
    <text transform="matrix(1 0 0 1 1641.0699 163.3)" class="st2 st8">23</text>
    <g>
	<text transform="matrix(1 0 0 1 1569.0699 285.1)" class="st1 st2 st3">    </text>
</g>
    <text transform="matrix(1 0 0 1 1641.0699 285.1)" class="st2 st8">24</text>
    <g>
	<text transform="matrix(1 0 0 1 2101.46 202.97)" class="st1 st2 st3">    </text>
</g>
    <text transform="matrix(1 0 0 1 2173.46 202.97)" class="st2 st8">29</text>
    <g>
	<text transform="matrix(1 0 0 1 2228.8401 199.02)" class="st1 st2 st3">    </text>
</g>
    <text transform="matrix(1 0 0 1 2300.8401 199.02)" class="st2 st8">30</text>
    <g>
	<text transform="matrix(0.85 0 0 1 1755.2598 546.8203)" class="st1 st2 st3">    </text>
</g>
    <text transform="matrix(0.85 0 0 1 1816.6797 546.8203)" class="st2 st8">7</text>
    <g>
	<text transform="matrix(1 0 0 1 1749.97 658.22)" class="st1 st2 st3">    </text>
</g>
    <text transform="matrix(1 0 0 1 1821.97 658.22)" class="st2 st8">8</text>
    <g>
	<text transform="matrix(1 0 0 1 1946.39 543.99)" class="st1 st2 st3">    </text>
</g>
    <text transform="matrix(1 0 0 1 2018.39 543.99)" class="st2 st8">9</text>
    <g>
	<text transform="matrix(1 0 0 1 1925.4301 663.47)" class="st1 st2 st3">    </text>
</g>
    <text transform="matrix(1 0 0 1 1997.4301 663.47)" class="st2 st8">10</text>
    <g>
	<text transform="matrix(1 0 0 1 2153.8999 558.89)" class="st1 st2 st3">    </text>
</g>
    <text transform="matrix(1 0 0 1 2225.8999 558.89)" class="st2 st8">11</text>
    <g>
	<text transform="matrix(1 0 0 1 2153.8999 670.43)" class="st1 st2 st3">    </text>
</g>
    <text transform="matrix(1 0 0 1 2225.8999 670.43)" class="st2 st8">12</text>
    <g>
	<text transform="matrix(1 0 0 1 2289.48 557.17)" class="st1 st2 st3">    </text>
</g>
    <text transform="matrix(1 0 0 1 2361.48 557.17)" class="st2 st8">13</text>
    <g>
	<text transform="matrix(1 0 0 1 2289.48 675.9)" class="st1 st2 st3">    </text>
</g>
    <text transform="matrix(1 0 0 1 2361.48 675.9)" class="st2 st8">14</text>
    <g>
	<text transform="matrix(1 0 0 1 2510.3701 561.31)" class="st1 st2 st3">    </text>
</g>
    <text transform="matrix(1 0 0 1 2582.3701 561.31)" class="st2 st8">15</text>
    <g>
	<text transform="matrix(1 0 0 1 2510.3701 674.56)" class="st1 st2 st3">    </text>
</g>
    <text transform="matrix(1 0 0 1 2582.3701 674.56)" class="st2 st8">16</text>
    <g>
	<text transform="matrix(1 0 0 1 2660.77 559.03)" class="st1 st2 st3">    </text>
</g>
    <text transform="matrix(1 0 0 1 2732.77 559.03)" class="st2 st8">17</text>
    <g>
	<text transform="matrix(1 0 0 1 2660.77 684.79)" class="st1 st2 st3">    </text>
</g>
    <text transform="matrix(1 0 0 1 2732.77 684.79)" class="st2 st8">18</text>
    <g>
	<text transform="matrix(1 0 0 1 0 1000.38)" class="st1 st2 st3">    </text>
</g>
    <text transform="matrix(1 0 0 1 72 1000.38)" class="st2 st8">31</text>
    <g>
	<text transform="matrix(1 0 0 1 821.88 984.55)" class="st1 st2 st3">    </text>
</g>
    <text transform="matrix(1 0 0 1 893.88 984.55)" class="st2 st8">2</text>
    <g>
	<text transform="matrix(1 0 0 1 1167.7202 917.125)" class="st1 st2 st3">    </text>
</g>
    <text transform="matrix(1 0 0 1 1239.7202 917.125)" class="st2 st8">32</text>
    <g>
	<text transform="matrix(1 0 0 1 1371.5303 927.315)" class="st1 st2 st3">    </text>
</g>
    <text transform="matrix(1 0 0 1 1443.5303 927.315)" class="st2 st8">33</text>
    <g>
	<text transform="matrix(1 0 0 1 1582.78 1007.28)" class="st1 st2 st3">    </text>
</g>
    <text transform="matrix(1 0 0 1 1654.78 1007.28)" class="st2 st8">3</text>
    <g>
	<text transform="matrix(1 0 0 1 1775.67 1013.93)" class="st1 st2 st3">    </text>
</g>
    <text transform="matrix(1 0 0 1 1847.67 1013.93)" class="st2 st8">4</text>
    <line class="st7" x1="1576.9" y1="1066.4" x2="1576.9" y2="821.1"/>
    <line class="st7" x1="1972.7" y1="1065.5" x2="1972.7" y2="832"/>
    <g>
	<text transform="matrix(1 0 0 1 1944.67 974.44)" class="st1 st2 st3">    </text>
</g>
    <text transform="matrix(1 0 0 1 2016.67 974.44)" class="st2 st8">34</text>
    <line class="st7" x1="2254.6" y1="1070.3" x2="2254.6" y2="832"/>
    <path id="seat-5" class="st5 seat" d="M2369,891.3h58c13.6,0,24.6,11,24.6,24.6v57.9c0,13.6-11,24.6-24.6,24.6h-58  c-13.6,0-24.6-11-24.6-24.6V916C2344.4,902.4,2355.4,891.3,2369,891.3z"/>
    <g>
	<text transform="matrix(1 0 0 1 2306.8601 965.71)" class="st1 st2 st3">    </text>
</g>
    <text transform="matrix(1 0 0 1 2378.8601 965.71)" class="st2 st8">5</text>
    <line class="st7" x1="2528.1" y1="1065.5" x2="2528.1" y2="832"/>
    <path id="seat-6" class="st5 seat" d="M2654.9,887h58c13.6,0,24.6,11,24.6,24.6v57.9c0,13.6-11,24.6-24.6,24.6h-58  c-13.6,0-24.6-11-24.6-24.6v-57.9C2630.3,898,2641.3,887,2654.9,887z"/>
    <g>
	<text transform="matrix(1 0 0 1 2592.71 961.37)" class="st1 st2 st3">    </text>
</g>
    <text transform="matrix(1 0 0 1 2664.71 961.37)" class="st2 st8">6</text>
    <path id="seat-26" class="st5 seat" d="M1831.9,196.4h57.9c13.6,0,24.6,11,24.6,24.6v58c0,13.6-11,24.6-24.6,24.6h-57.9  c-13.6,0-24.6-11-24.6-24.6v-58C1807.2,207.4,1818.3,196.4,1831.9,196.4z"/>
    <path id="seat-28" class="st5 seat" d="M1971.7,196.4h57.9c13.6,0,24.6,11,24.6,24.6v58c0,13.6-11,24.6-24.6,24.6h-57.9  c-13.6,0-24.6-11-24.6-24.6v-58C1947,207.4,1958,196.4,1971.7,196.4z"/>
    <path id="seat-25" class="st5 seat" d="M1833.3,80.7h57.9c13.6,0,24.6,11,24.6,24.6v57.9c0,13.6-11,24.6-24.6,24.6h-57.9  c-13.6,0-24.6-11-24.6-24.6v-57.9C1808.7,91.7,1819.7,80.7,1833.3,80.7z"/>
    <path id="seat-27" class="st5 seat" d="M1971.7,80.7h57.9c13.6,0,24.6,11,24.6,24.6v57.9c0,13.6-11,24.6-24.6,24.6h-57.9  c-13.6,0-24.6-11-24.6-24.6v-57.9C1947,91.7,1958,80.7,1971.7,80.7z"/>
    <g>
	<text transform="matrix(1 0 0 1 1751.12 160.44)" class="st1 st2 st3">    </text>
</g>
    <text transform="matrix(1 0 0 1 1823.12 160.44)" class="st2 st8">25</text>
    <g>
	<text transform="matrix(1 0 0 1 1749.97 280.2)" class="st1 st2 st3">    </text>
</g>
    <text transform="matrix(1 0 0 1 1821.97 280.2)" class="st2 st8">26</text>
    <g>
	<text transform="matrix(1 0 0 1 1895.62 160.44)" class="st1 st2 st3">    </text>
</g>
    <text transform="matrix(1 0 0 1 1967.62 160.44)" class="st2 st8">27</text>
    <g>
	<text transform="matrix(1 0 0 1 1900.76 261.07)" class="st1 st2 st3">    </text>
</g>
    <text transform="matrix(1 0 0 1 1972.76 261.07)" class="st2 st8">28</text>
    <line class="st6" x1="2101.8" y1="330.7" x2="1970.3" y2="330.7"/>
    <path class="st0" d="M73.8,80.2h273.4c31.9,0,57.8,25.9,57.8,57.8v384.5c0,31.9-25.9,57.8-57.8,57.8H73.8  c-31.9,0-57.8-25.9-57.8-57.8V138C16,106.1,41.9,80.2,73.8,80.2z"/>
    <g>
	<text transform="matrix(0.83 0 0 1 61.1699 335.1802)" class="st1 st2 st3">     Sala</text>
</g>
    <g>
	<text transform="matrix(0.83 0 0 1 61.1699 421.5801)" class="st1 st2 st3">     Inca</text>
</g>
    <path class="st0" d="M2488.6,46.8h199.7c36.8,0,66.6,25.9,66.6,57.8v123.9c0,31.9-29.8,57.8-66.6,57.8h-199.7  c-36.8,0-66.6-25.9-66.6-57.8V104.7C2422,72.7,2451.8,46.8,2488.6,46.8z"/>
    <line class="st7" x1="1771.8" y1="336.3" x2="1771.8" y2="36"/>
    <line class="st6" x1="1903.8" y1="333.9" x2="1772.4" y2="333.9"/>
    <line class="st6" x1="2000.6" y1="724.1" x2="2202.4" y2="725.8"/>
    <path id="seat-20" class="st5 seat" d="M1339.3,207.4h57.9c13.6,0,24.6,11,24.6,24.6V290c0,13.6-11,24.6-24.6,24.6h-57.9  c-13.6,0-24.6-11-24.6-24.6v-57.9C1314.7,218.5,1325.7,207.4,1339.3,207.4z"/>
    <path id="seat-19" class="st5 seat" d="M1340.8,91.8h57.9c13.6,0,24.6,11,24.6,24.6v58c0,13.6-11,24.6-24.6,24.6h-57.9  c-13.6,0-24.6-11-24.6-24.6v-58C1316.2,102.8,1327.2,91.8,1340.8,91.8z"/>
    <g>
	<text transform="matrix(1 0 0 1 1265.66 166.61)" class="st1 st2 st3">    </text>
</g>
    <text transform="matrix(1 0 0 1 1337.66 166.61)" class="st2 st8">19</text>
    <g>
	<text transform="matrix(1 0 0 1 1265.66 280.22)" class="st1 st2 st3">    </text>
</g>
    <text transform="matrix(1 0 0 1 1337.66 280.22)" class="st2 st8">20</text>
    <line class="st6" x1="8.3" y1="776" x2="415.9" y2="776.6"/>
    <text transform="matrix(1 0 0 1 206.75 852.23)" class="st9 st10">Gerencia</text>
    <line class="st6" x1="2403.6" y1="261.1" x2="2153.9" y2="261.1"/>
    <text transform="matrix(6.123234e-17 -1 1 6.123234e-17 577.23 399.0703)" class="st9 st8">Escaleras</text>
    <line class="st6" x1="1839.6" y1="455.1" x2="1730.6" y2="455.1"/>
    <line class="st6" x1="1730.6" y1="713.8" x2="1839.6" y2="714.7"/>
    <line class="st6" x1="2000.9" y1="454.3" x2="2202.6" y2="455.9"/>
    <line class="st6" x1="2594.6" y1="463.8" x2="2308.7" y2="463.8"/>
    <line class="st6" x1="2890.4" y1="735.3" x2="2709.9" y2="735.3"/>
    <line class="st6" x1="2890.4" y1="464.9" x2="2709.9" y2="464.9"/>
    <line class="st7" x1="1765.7" y1="1063.9" x2="1765.7" y2="921.5"/>
    <line class="st6" x1="1656.3" y1="920.7" x2="1858" y2="920.7"/>
    <line class="st6" x1="686.3" y1="826.9" x2="577.2" y2="826.9"/>
    <line class="st6" x1="988.3" y1="824.7" x2="879.3" y2="824.7"/>
    <line class="st6" x1="1369.1" y1="824.7" x2="985.4" y2="824.7"/>
    <line class="st6" x1="1972.7" y1="832" x2="2174.4" y2="833.7"/>
    <line class="st6" x1="2339.6" y1="833.5" x2="2528.1" y2="833.5"/>
    <line class="st6" x1="2701.9" y1="838.6" x2="2890.4" y2="838.6"/>
    <line class="st7" x1="1018.9" y1="1066.4" x2="1018.9" y2="821.1"/>
    <line class="st6" x1="1168.2" y1="1070.3" x2="1168.2" y2="891.8"/>
    <line class="st6" x1="570.7" y1="1062.3" x2="570.7" y2="788.5"/>
    <line class="st6" x1="1040.4" y1="1073.6" x2="1040.4" y2="821.1"/>
    <line class="st6" x1="1576.9" y1="1070" x2="1576.9" y2="817.5"/>
    <path class="st6" d="M1970.3,831.1"/>
    <path class="st6" d="M1972.7,1065.5"/>
    <line class="st6" x1="1970.3" y1="831.1" x2="1972.7" y2="1065.5"/>
    <path class="st6" d="M2238.8,1066"/>
    <path class="st6" d="M2236.4,831.6"/>
    <line class="st6" x1="2254.6" y1="1062.1" x2="2254.6" y2="852.2"/>
    <line class="st6" x1="2528.1" y1="1065.5" x2="2528.1" y2="833.5"/>
    <line class="st6" x1="1766.1" y1="1070" x2="1766.1" y2="918"/>
    <path class="st1" d="M2455.7,129c2.6,1.4,5.4,2.1,8.3,2.1c4.8,0,7.6-2.2,7.6-5.5c0-3-2-4.7-6.8-6.4c-5.9-1.9-9.5-4.6-9.5-9.1  c0-5,4.7-8.7,11.7-8.7c2.7-0.1,5.5,0.4,8,1.6l-1.3,3.4c-2.1-1-4.5-1.6-6.8-1.5c-5,0-6.8,2.6-6.8,4.8c0,3,2.2,4.4,7.2,6.2  c6.1,2.1,9.2,4.8,9.2,9.5c0,5-4.1,9.3-12.6,9.3c-3.2,0.1-6.4-0.6-9.3-2.1L2455.7,129z"/>
    <path class="st1" d="M2491.8,134.3l-0.4-2.9h-0.1c-1.7,2.2-4.3,3.5-7.1,3.5c-4.7,0-7.1-3.3-7.1-6.7c0-5.6,5-8.7,13.9-8.7V119  c0-1.9-0.5-5.4-5.3-5.4c-2.1,0-4.2,0.6-6.1,1.7l-0.9-2.8c2.3-1.4,5-2.1,7.7-2c7.1,0,8.8,4.8,8.8,9.5v8.6c0,1.9,0.1,3.7,0.4,5.6  L2491.8,134.3z M2491.2,122.5c-4.6-0.1-9.8,0.7-9.8,5.2c-0.2,2,1.3,3.8,3.4,4c0.2,0,0.4,0,0.6,0c2.5,0.1,4.8-1.5,5.7-3.9  c0.1-0.4,0.2-0.9,0.2-1.3V122.5z"/>
    <path class="st1" d="M2502.1,100.2h4.2v34.1h-4.2V100.2z"/>
    <path class="st1" d="M2526.3,134.3l-0.4-2.9h-0.1c-1.7,2.2-4.3,3.5-7.1,3.5c-4.7,0-7.1-3.3-7.1-6.7c0-5.6,5-8.7,13.9-8.7V119  c0-1.9-0.5-5.4-5.3-5.4c-2.1,0-4.2,0.6-6,1.7l-1-2.8c2.3-1.4,5-2.1,7.7-2c7.1,0,8.8,4.8,8.8,9.5v8.6c0,1.9,0.1,3.7,0.4,5.6  L2526.3,134.3z M2525.6,122.5c-4.6-0.1-9.8,0.7-9.8,5.2c-0.2,2,1.4,3.8,3.4,4c0.2,0,0.4,0,0.6,0c2.5,0.1,4.8-1.5,5.6-3.9  c0.1-0.4,0.2-0.9,0.2-1.3L2525.6,122.5z"/>
    <line class="st6" x1="2103" y1="330.7" x2="2103" y2="36.8"/>
    <line class="st6" x1="1775.7" y1="330.7" x2="1775.7" y2="36.8"/>
    <line class="st6" x1="1448.7" y1="330.7" x2="1448.7" y2="36.8"/>
    <line class="st6" x1="1509.1" y1="330.7" x2="1377.6" y2="330.7"/>
    <line class="st6" x1="1265.7" y1="399.1" x2="1265.7" y2="36.8"/>
    <line class="st6" x1="2404.6" y1="333.1" x2="2404.6" y2="39.2"/>
    <line class="st6" x1="2763.6" y1="337.6" x2="2763.6" y2="43.7"/>
    <text transform="matrix(1 0 0 1 2433.8799 202.97)" class="st1 st11 st10">Chachapoyas</text>
    <path id="seat-35" class="st5 seat" d="M1340.8,944.9h57.9c13.6,0,24.6,11,24.6,24.6v57.9c0,13.6-11,24.6-24.6,24.6h-57.9  c-13.6,0-24.6-11-24.6-24.6v-57.9C1316.2,956,1327.2,944.9,1340.8,944.9z"/>
    <text transform="matrix(1 0 0 1 1331.0302 1013.9296)" class="st2 st8">35</text>
</svg>
