<svg xmlns="http://www.w3.org/2000/svg" id="Capa_1" data-name="Capa 1" viewBox="0 0 2578.92 1072.72"><defs><style>.cls-1{fill:#989898;}.cls-2,.cls-3{fill:none;stroke:#989898;stroke-linecap:round;}.cls-2{stroke-linejoin:round;stroke-width:0.72px;}.cls-3{stroke-miterlimit:10;stroke-width:0.03px;}</style></defs><path class="cls-1 seat" d="M700.24,357.72h-43.4a21.64,21.64,0,0,1-21.6-21.6v-47.5a21.64,21.64,0,0,1,21.6-21.6h43.4a21.64,21.64,0,0,1,21.6,21.6v47.5A21.64,21.64,0,0,1,700.24,357.72Z" transform="translate(-631.78 -99.26)" id="seat-41"/><path class="cls-1 seat" d="M798.84,356h-43.4a21.64,21.64,0,0,1-21.6-21.6v-47.5a21.64,21.64,0,0,1,21.6-21.6h43.4a21.64,21.64,0,0,1,21.6,21.6v47.5A21.45,21.45,0,0,1,798.84,356Z" transform="translate(-631.78 -99.26)" id="seat-43"/><path class="cls-1 seat" d="M701.74,468h-43.4a21.64,21.64,0,0,1-21.6-21.6v-47.5a21.64,21.64,0,0,1,21.6-21.6h43.4a21.64,21.64,0,0,1,21.6,21.6v47.5A21.51,21.51,0,0,1,701.74,468Z" transform="translate(-631.78 -99.26)" id="seat-42"/><path class="cls-1 seat" d="M798.84,468h-43.4a21.64,21.64,0,0,1-21.6-21.6v-47.5a21.64,21.64,0,0,1,21.6-21.6h43.4a21.64,21.64,0,0,1,21.6,21.6v47.5A21.51,21.51,0,0,1,798.84,468Z" transform="translate(-631.78 -99.26)" id="seat-44"/><path class="cls-1 seat" d="M1078.24,357.72h-43.4a21.64,21.64,0,0,1-21.6-21.6v-47.5a21.64,21.64,0,0,1,21.6-21.6h43.4a21.64,21.64,0,0,1,21.6,21.6v47.5A21.64,21.64,0,0,1,1078.24,357.72Z" transform="translate(-631.78 -99.26)" id="seat-46"/><path class="cls-1 seat" d="M1176.84,356h-43.4a21.64,21.64,0,0,1-21.6-21.6v-47.5a21.64,21.64,0,0,1,21.6-21.6h43.4a21.64,21.64,0,0,1,21.6,21.6v47.5A21.64,21.64,0,0,1,1176.84,356Z" transform="translate(-631.78 -99.26)" id="seat-48"/><path class="cls-1 seat" d="M1079.74,467.92h-43.4a21.64,21.64,0,0,1-21.6-21.6v-47.5a21.64,21.64,0,0,1,21.6-21.6h43.4a21.64,21.64,0,0,1,21.6,21.6v47.5A21.57,21.57,0,0,1,1079.74,467.92Z" transform="translate(-631.78 -99.26)" id="seat-47"/><path class="cls-1 seat" d="M1176.84,467.92h-43.4a21.64,21.64,0,0,1-21.6-21.6v-47.5a21.64,21.64,0,0,1,21.6-21.6h43.4a21.64,21.64,0,0,1,21.6,21.6v47.5A21.57,21.57,0,0,1,1176.84,467.92Z" transform="translate(-631.78 -99.26)" id="seat-49"/><path class="cls-1 seat" d="M862.34,1008.92h-43.4a21.64,21.64,0,0,1-21.6-21.6v-47.5a21.64,21.64,0,0,1,21.6-21.6h43.4a21.64,21.64,0,0,1,21.6,21.6v47.5A21.64,21.64,0,0,1,862.34,1008.92Z" transform="translate(-631.78 -99.26)" id="seat-53"/><path class="cls-1 seat" d="M960.94,1009.72h-43.4a21.64,21.64,0,0,1-21.6-21.6v-47.5a21.64,21.64,0,0,1,21.6-21.6h43.4a21.64,21.64,0,0,1,21.6,21.6v47.5A21.51,21.51,0,0,1,960.94,1009.72Z" transform="translate(-631.78 -99.26)" id="seat-55"/><path class="cls-1 seat" d="M863.84,1124.72h-43.4a21.64,21.64,0,0,1-21.6-21.6v-47.5a21.64,21.64,0,0,1,21.6-21.6h43.4a21.64,21.64,0,0,1,21.6,21.6v47.5A21.51,21.51,0,0,1,863.84,1124.72Z" transform="translate(-631.78 -99.26)" id="seat-54"/><path class="cls-1 seat" d="M960.94,1124.72h-43.4a21.64,21.64,0,0,1-21.6-21.6v-47.5a21.64,21.64,0,0,1,21.6-21.6h43.4a21.64,21.64,0,0,1,21.6,21.6v47.5A21.51,21.51,0,0,1,960.94,1124.72Z" transform="translate(-631.78 -99.26)" id="seat-56"/><path class="cls-1 seat" d="M1189.84,1007.62h-43.4a21.64,21.64,0,0,1-21.6-21.6v-47.5a21.64,21.64,0,0,1,21.6-21.6h43.4a21.64,21.64,0,0,1,21.6,21.6V986A21.64,21.64,0,0,1,1189.84,1007.62Z" transform="translate(-631.78 -99.26)" id="seat-57"/><path class="cls-1 seat" d="M1291.24,1007h-43.4a21.64,21.64,0,0,1-21.6-21.6v-47.5a21.64,21.64,0,0,1,21.6-21.6h43.4a21.64,21.64,0,0,1,21.6,21.6v47.5A21.64,21.64,0,0,1,1291.24,1007Z" transform="translate(-631.78 -99.26)" id="seat-59"/><path class="cls-1 seat" d="M1193.84,1120.62h-43.4a21.64,21.64,0,0,1-21.6-21.6v-47.5a21.64,21.64,0,0,1,21.6-21.6h43.4a21.64,21.64,0,0,1,21.6,21.6V1099A21.64,21.64,0,0,1,1193.84,1120.62Z" transform="translate(-631.78 -99.26)" id="seat-58"/><path class="cls-1 seat" d="M1290.44,1120.62H1247a21.64,21.64,0,0,1-21.6-21.6v-47.5a21.64,21.64,0,0,1,21.6-21.6h43.4a21.64,21.64,0,0,1,21.6,21.6V1099A21.64,21.64,0,0,1,1290.44,1120.62Z" transform="translate(-631.78 -99.26)" id="seat-60"/><path class="cls-1 seat" d="M1581.24,1007.52h-43.4a21.64,21.64,0,0,1-21.6-21.6v-47.5a21.64,21.64,0,0,1,21.6-21.6h43.4a21.64,21.64,0,0,1,21.6,21.6v47.5A21.51,21.51,0,0,1,1581.24,1007.52Z" transform="translate(-631.78 -99.26)" id="seat-63"/><path class="cls-1 seat" d="M1682.64,1006.92h-43.3a21.64,21.64,0,0,1-21.6-21.6v-47.5a21.64,21.64,0,0,1,21.6-21.6h43.4a21.64,21.64,0,0,1,21.6,21.6v47.5A21.66,21.66,0,0,1,1682.64,1006.92Z" transform="translate(-631.78 -99.26)" id="seat-65"/><path class="cls-1 seat" d="M1585.24,1120.52h-43.4a21.64,21.64,0,0,1-21.6-21.6v-47.5a21.64,21.64,0,0,1,21.6-21.6h43.4a21.64,21.64,0,0,1,21.6,21.6v47.5A21.51,21.51,0,0,1,1585.24,1120.52Z" transform="translate(-631.78 -99.26)" id="seat-64"/><path class="cls-1 seat" d="M1681.84,1120.52h-43.4a21.64,21.64,0,0,1-21.6-21.6v-47.5a21.64,21.64,0,0,1,21.6-21.6h43.4a21.64,21.64,0,0,1,21.6,21.6v47.5A21.57,21.57,0,0,1,1681.84,1120.52Z" transform="translate(-631.78 -99.26)" id="seat-66"/><path class="cls-1 seat" d="M2028.14,462.52h-43.4a21.64,21.64,0,0,1-21.6-21.6v-47.5a21.64,21.64,0,0,1,21.6-21.6h43.4a21.64,21.64,0,0,1,21.6,21.6v47.5A21.51,21.51,0,0,1,2028.14,462.52Z" transform="translate(-631.78 -99.26)" id="seat-67"/><path class="cls-1 seat" d="M2124.24,458.92h-43.4a21.64,21.64,0,0,1-21.6-21.6v-47.5a21.64,21.64,0,0,1,21.6-21.6h43.4a21.64,21.64,0,0,1,21.6,21.6v47.5A21.64,21.64,0,0,1,2124.24,458.92Z" transform="translate(-631.78 -99.26)" id="seat-71"/><path class="cls-1 seat" d="M2026.64,563.72h-43.4a21.64,21.64,0,0,1-21.6-21.6v-47.5a21.64,21.64,0,0,1,21.6-21.6h43.4a21.64,21.64,0,0,1,21.6,21.6v47.5A21.57,21.57,0,0,1,2026.64,563.72Z" transform="translate(-631.78 -99.26)" id="seat-68"/><path class="cls-1 seat" d="M2126.94,566.52h-43.4a21.64,21.64,0,0,1-21.6-21.6v-47.5a21.64,21.64,0,0,1,21.6-21.6h43.4a21.64,21.64,0,0,1,21.6,21.6v47.5A21.64,21.64,0,0,1,2126.94,566.52Z" transform="translate(-631.78 -99.26)" id="seat-72"/><path class="cls-1 seat" d="M2780.34,371.32h-43.4a21.64,21.64,0,0,1-21.6-21.6v-47.5a21.64,21.64,0,0,1,21.6-21.6h43.4a21.64,21.64,0,0,1,21.6,21.6v47.5A21.45,21.45,0,0,1,2780.34,371.32Z" transform="translate(-631.78 -99.26)" id="seat-74"/><path class="cls-1 seat" d="M2878.44,367.92H2835a21.64,21.64,0,0,1-21.6-21.6v-47.5a21.64,21.64,0,0,1,21.6-21.6h43.4a21.64,21.64,0,0,1,21.6,21.6v47.5A21.51,21.51,0,0,1,2878.44,367.92Z" transform="translate(-631.78 -99.26)" id="seat-78"/><path class="cls-1 seat" d="M2781.24,477.12h-43.4a21.64,21.64,0,0,1-21.6-21.6V408a21.64,21.64,0,0,1,21.6-21.6h43.4a21.64,21.64,0,0,1,21.6,21.6v47.5A21.64,21.64,0,0,1,2781.24,477.12Z" transform="translate(-631.78 -99.26)" id="seat-75"/><path class="cls-1 seat" d="M2878.64,480h-43.4a21.64,21.64,0,0,1-21.6-21.6v-47.5a21.64,21.64,0,0,1,21.6-21.6h43.4a21.64,21.64,0,0,1,21.6,21.6v47.5A21.64,21.64,0,0,1,2878.64,480Z" transform="translate(-631.78 -99.26)" id="seat-79"/><path class="cls-1 seat" d="M2779.44,589.22H2736a21.64,21.64,0,0,1-21.6-21.6v-47.5a21.64,21.64,0,0,1,21.6-21.6h43.4a21.64,21.64,0,0,1,21.6,21.6v47.5A21.51,21.51,0,0,1,2779.44,589.22Z" transform="translate(-631.78 -99.26)" id="seat-76"/><path class="cls-1 seat" d="M2877.34,591.72h-43.4a21.64,21.64,0,0,1-21.6-21.6v-47.5a21.64,21.64,0,0,1,21.6-21.6h43.4a21.64,21.64,0,0,1,21.6,21.6v47.5A21.57,21.57,0,0,1,2877.34,591.72Z" transform="translate(-631.78 -99.26)" id="seat-80"/><path class="cls-1 seat" d="M2779.94,695.92h-43.4a21.64,21.64,0,0,1-21.6-21.6v-47.5a21.64,21.64,0,0,1,21.6-21.6h43.4a21.64,21.64,0,0,1,21.6,21.6v47.5A21.64,21.64,0,0,1,2779.94,695.92Z" transform="translate(-631.78 -99.26)" id="seat-77"/><path class="cls-1 seat" d="M2876.44,692.32H2833a21.64,21.64,0,0,1-21.6-21.6v-47.5a21.64,21.64,0,0,1,21.6-21.6h43.4a21.64,21.64,0,0,1,21.6,21.6v47.5A21.64,21.64,0,0,1,2876.44,692.32Z" transform="translate(-631.78 -99.26)" id="seat-81"/><path class="cls-1 seat" d="M2025.74,673.82h-43.4a21.64,21.64,0,0,1-21.6-21.6v-47.5a21.64,21.64,0,0,1,21.6-21.6h43.4a21.64,21.64,0,0,1,21.6,21.6v47.5A21.64,21.64,0,0,1,2025.74,673.82Z" transform="translate(-631.78 -99.26)" id="seat-69"/><path class="cls-1 seat" d="M2127.44,676.32H2084a21.64,21.64,0,0,1-21.6-21.6v-47.5a21.64,21.64,0,0,1,21.6-21.6h43.4a21.64,21.64,0,0,1,21.6,21.6v47.5A21.57,21.57,0,0,1,2127.44,676.32Z" transform="translate(-631.78 -99.26)" id="seat-70"/><path class="cls-1 seat" d="M1653.84,402.32h-43.4a21.64,21.64,0,0,1-21.6-21.6v-47.5a21.64,21.64,0,0,1,21.6-21.6h43.4a21.64,21.64,0,0,1,21.6,21.6v47.5A21.51,21.51,0,0,1,1653.84,402.32Z" transform="translate(-631.78 -99.26)" id="seat-61"/><path class="cls-1 seat" d="M1653.84,507.22h-43.4a21.64,21.64,0,0,1-21.6-21.6v-47.5a21.64,21.64,0,0,1,21.6-21.6h43.4a21.64,21.64,0,0,1,21.6,21.6v47.5A21.45,21.45,0,0,1,1653.84,507.22Z" transform="translate(-631.78 -99.26)" id="seat-62"/><path class="cls-1 seat" d="M1364.14,279h-43.4a21.64,21.64,0,0,1-21.6-21.6v-47.5a21.64,21.64,0,0,1,21.6-21.6h43.4a21.64,21.64,0,0,1,21.6,21.6v47.5A21.64,21.64,0,0,1,1364.14,279Z" transform="translate(-631.78 -99.26)" id="seat-50"/><path class="cls-1 seat" d="M1363,391.52h-43.4a21.64,21.64,0,0,1-21.6-21.6v-47.5a21.64,21.64,0,0,1,21.6-21.6H1363a21.64,21.64,0,0,1,21.6,21.6v47.5A21.51,21.51,0,0,1,1363,391.52Z" transform="translate(-631.78 -99.26)" id="seat-51"/><path class="cls-1 seat" d="M1364.14,504h-43.4a21.64,21.64,0,0,1-21.6-21.6v-47.5a21.64,21.64,0,0,1,21.6-21.6h43.4a21.64,21.64,0,0,1,21.6,21.6v47.5A21.64,21.64,0,0,1,1364.14,504Z" transform="translate(-631.78 -99.26)" id="seat-52"/><path class="cls-1 seat" d="M1121.34,251h-43.4a21.64,21.64,0,0,1-21.6-21.6v-47.5a21.64,21.64,0,0,1,21.6-21.6h43.4a21.64,21.64,0,0,1,21.6,21.6v47.5A21.64,21.64,0,0,1,1121.34,251Z" transform="translate(-631.78 -99.26)" id="seat-45"/><path class="cls-1 seat" d="M2824,275.22h-43.4a21.64,21.64,0,0,1-21.6-21.6v-47.5a21.64,21.64,0,0,1,21.6-21.6H2824a21.64,21.64,0,0,1,21.6,21.6v47.5A21.64,21.64,0,0,1,2824,275.22Z" transform="translate(-631.78 -99.26)" id="seat-73"/><g id="A_POSIÇÕES_TRABALHO_9" data-name="A POSIÇÕES_TRABALHO 9"><path class="cls-2" d="M760.14,225.72v-56.4h29.5v-46.4H665.34v46.4h29.5v56.4h65.3" transform="translate(-631.78 -99.26)"/><path class="cls-2" d="M1534.14,225.72v-56.4h29.6v-46.4h-123.4v46.4h29.5v56.4h64.3" transform="translate(-631.78 -99.26)"/><path class="cls-2" d="M2309.14,225.72v-56.4h29.5v-46.4h-124.3v46.4h29.5v56.4h65.3" transform="translate(-631.78 -99.26)"/><path class="cls-1" d="M3081.44,147.82v-.4a.4.4,0,1,0,.4.4.43.43,0,0,0-.4-.4Z" transform="translate(-631.78 -99.26)"/><path class="cls-2" d="M3081.44,134.52v0" transform="translate(-631.78 -99.26)"/><path class="cls-1" d="M3081.44,147.82v-.4a.4.4,0,1,0,.4.4.43.43,0,0,0-.4-.4Z" transform="translate(-631.78 -99.26)"/><path class="cls-2" d="M3185.24,122.92h-103.8v64.4h103.8v-64.4" transform="translate(-631.78 -99.26)"/><path class="cls-1" d="M3081.44,122.92v-.4a.4.4,0,1,0,.4.4.43.43,0,0,0-.4-.4Z" transform="translate(-631.78 -99.26)"/><path class="cls-1" d="M3081.44,187.32v-.4a.4.4,0,1,0,.4.4.43.43,0,0,0-.4-.4Z" transform="translate(-631.78 -99.26)"/><path class="cls-2" d="M632.14,105h26v-1h-26" transform="translate(-631.78 -99.26)"/><path class="cls-2" d="M667.14,105h120.7v-1H667.14v1" transform="translate(-631.78 -99.26)"/><path class="cls-2" d="M795.94,105h120.8v-1H795.94v1" transform="translate(-631.78 -99.26)"/><path class="cls-2" d="M925.74,105h119.9v-1H925.74v1" transform="translate(-631.78 -99.26)"/><path class="cls-2" d="M1054.64,105h119.9v-1h-119.9v1" transform="translate(-631.78 -99.26)"/><path class="cls-2" d="M1183.34,105h120.8v-1h-120.8v1" transform="translate(-631.78 -99.26)"/><path class="cls-2" d="M1312.24,105H1433v-1h-120.8v1" transform="translate(-631.78 -99.26)"/><path class="cls-2" d="M1441.94,105h248.8v-1h-248.8v1" transform="translate(-631.78 -99.26)"/><path class="cls-2" d="M2150.74,105h56.4v-1h-56.4v1" transform="translate(-631.78 -99.26)"/><path class="cls-2" d="M1699.74,105h120.8v-1h-120.8v1" transform="translate(-631.78 -99.26)"/><path class="cls-2" d="M1828.64,105h120.8v-1h-120.8v1" transform="translate(-631.78 -99.26)"/><path class="cls-2" d="M1958.34,105h119.9v-1h-119.9v1" transform="translate(-631.78 -99.26)"/><path class="cls-2" d="M2087.24,105h54.6v-1h-54.6v1" transform="translate(-631.78 -99.26)"/><path class="cls-2" d="M2216.14,105h120.7v-1h-120.7v1" transform="translate(-631.78 -99.26)"/><path class="cls-2" d="M2344.94,105h120.7v-1h-120.7v1" transform="translate(-631.78 -99.26)"/><path class="cls-2" d="M2474.74,105h119.9v-1h-119.9v1" transform="translate(-631.78 -99.26)"/><path class="cls-2" d="M2603.54,105h119.9v-1h-119.9v1" transform="translate(-631.78 -99.26)"/><path class="cls-2" d="M2732.34,105h120.8v-1h-120.8v1" transform="translate(-631.78 -99.26)"/><path class="cls-2" d="M2861.24,105H2982v-1h-120.8v1" transform="translate(-631.78 -99.26)"/><path class="cls-2" d="M658.14,110.32h9V99.62h-9v10.7" transform="translate(-631.78 -99.26)"/><path class="cls-2" d="M787.84,110.32h8V99.62h-8v10.7" transform="translate(-631.78 -99.26)"/><path class="cls-2" d="M1045.64,110.32h9V99.62h-9v10.7" transform="translate(-631.78 -99.26)"/><path class="cls-2" d="M916.74,110.32h9V99.62h-9v10.7" transform="translate(-631.78 -99.26)"/><path class="cls-2" d="M1304.24,110.32h8V99.62h-8v10.7" transform="translate(-631.78 -99.26)"/><path class="cls-2" d="M1433.14,110.32h8.9V99.62h-8.9v10.7" transform="translate(-631.78 -99.26)"/><path class="cls-2" d="M2141.84,110.32h8.9V99.62h-8.9v10.7" transform="translate(-631.78 -99.26)"/><path class="cls-2" d="M1690.74,110.32h9V99.62h-9v10.7" transform="translate(-631.78 -99.26)"/><path class="cls-2" d="M1820.54,110.32h8V99.62h-8v10.7" transform="translate(-631.78 -99.26)"/><path class="cls-2" d="M1949.44,110.32h8.9V99.62h-8.9v10.7" transform="translate(-631.78 -99.26)"/><path class="cls-2" d="M2078.24,110.32h9V99.62h-9v10.7" transform="translate(-631.78 -99.26)"/><path class="cls-2" d="M2207.14,110.32h9V99.62h-9v10.7" transform="translate(-631.78 -99.26)"/><path class="cls-2" d="M2336.84,110.32h8.2V99.62h-8.2v10.7" transform="translate(-631.78 -99.26)"/><path class="cls-2" d="M2465.74,110.32h9V99.62h-9v10.7" transform="translate(-631.78 -99.26)"/><path class="cls-2" d="M2594.54,110.32h9V99.62h-9v10.7" transform="translate(-631.78 -99.26)"/><path class="cls-2" d="M2723.44,110.32h8.9V99.62h-8.9v10.7" transform="translate(-631.78 -99.26)"/><path class="cls-2" d="M2853.14,110.32h8V99.62h-8v10.7" transform="translate(-631.78 -99.26)"/><path class="cls-2" d="M3201.34,110.32h9V99.62h-9v10.7" transform="translate(-631.78 -99.26)"/><path class="cls-2" d="M3201.34,99.62h-1.8" transform="translate(-631.78 -99.26)"/><path class="cls-2" d="M1174.54,110.32h8.9V99.62h-8.9v10.7" transform="translate(-631.78 -99.26)"/><path class="cls-2" d="M2991,105h119.9v-1H2991v1" transform="translate(-631.78 -99.26)"/><path class="cls-2" d="M3119.84,105h81.5v-1h-81.5v1" transform="translate(-631.78 -99.26)"/><path class="cls-2" d="M2982,110.32h9V99.62h-9v10.7" transform="translate(-631.78 -99.26)"/><path class="cls-2" d="M3110.94,110.32h8.9V99.62h-8.9v10.7" transform="translate(-631.78 -99.26)"/><path class="cls-2" d="M1820.54,110.32h-120.8" transform="translate(-631.78 -99.26)"/><path class="cls-2" d="M1699.74,99.62h120.8" transform="translate(-631.78 -99.26)"/><path class="cls-2" d="M1949.44,110.32h-120.8" transform="translate(-631.78 -99.26)"/><path class="cls-2" d="M1828.64,99.62h120.8" transform="translate(-631.78 -99.26)"/><path class="cls-2" d="M2078.24,110.32h-119.9" transform="translate(-631.78 -99.26)"/><path class="cls-2" d="M1958.34,99.62h119.9" transform="translate(-631.78 -99.26)"/><path class="cls-2" d="M2141.84,110.32h-54.6" transform="translate(-631.78 -99.26)"/><path class="cls-2" d="M2087.24,99.62h54.6" transform="translate(-631.78 -99.26)"/><path class="cls-2" d="M2207.14,110.32h-56.4" transform="translate(-631.78 -99.26)"/><path class="cls-2" d="M2150.74,99.62h56.4" transform="translate(-631.78 -99.26)"/><path class="cls-2" d="M2336.84,110.32h-120.7" transform="translate(-631.78 -99.26)"/><path class="cls-2" d="M2216.14,99.62h120.7" transform="translate(-631.78 -99.26)"/><path class="cls-2" d="M2465.74,110.32H2345" transform="translate(-631.78 -99.26)"/><path class="cls-2" d="M2344.94,99.62h120.7" transform="translate(-631.78 -99.26)"/><path class="cls-2" d="M2853.14,110.32h-120.8" transform="translate(-631.78 -99.26)"/><path class="cls-2" d="M2732.34,99.62h120.8" transform="translate(-631.78 -99.26)"/><path class="cls-2" d="M2723.44,110.32h-119.9" transform="translate(-631.78 -99.26)"/><path class="cls-2" d="M2603.54,99.62h119.9" transform="translate(-631.78 -99.26)"/><path class="cls-2" d="M2594.54,110.32h-119.9" transform="translate(-631.78 -99.26)"/><path class="cls-2" d="M2474.74,99.62h119.9" transform="translate(-631.78 -99.26)"/><path class="cls-2" d="M3110.94,110.32H2991" transform="translate(-631.78 -99.26)"/><path class="cls-2" d="M2991,99.62h119.9" transform="translate(-631.78 -99.26)"/><path class="cls-2" d="M3196.84,110.32h-77" transform="translate(-631.78 -99.26)"/><path class="cls-2" d="M3199.54,104v-4.4h-79.7" transform="translate(-631.78 -99.26)"/><path class="cls-2" d="M2982,110.32h-120.8" transform="translate(-631.78 -99.26)"/><path class="cls-2" d="M2861.24,99.62H2982" transform="translate(-631.78 -99.26)"/><path class="cls-2" d="M1690.74,110.32h-248.8" transform="translate(-631.78 -99.26)"/><path class="cls-2" d="M1441.94,99.62h248.8" transform="translate(-631.78 -99.26)"/><path class="cls-2" d="M1433.14,110.32h-120.8" transform="translate(-631.78 -99.26)"/><path class="cls-2" d="M1312.24,99.62H1433" transform="translate(-631.78 -99.26)"/><path class="cls-2" d="M1304.24,110.32h-120.9" transform="translate(-631.78 -99.26)"/><path class="cls-2" d="M1183.34,99.62h120.8" transform="translate(-631.78 -99.26)"/><path class="cls-2" d="M1174.54,110.32h-119.9" transform="translate(-631.78 -99.26)"/><path class="cls-2" d="M1054.64,99.62h119.9" transform="translate(-631.78 -99.26)"/><path class="cls-2" d="M1045.64,110.32H925.74" transform="translate(-631.78 -99.26)"/><path class="cls-2" d="M925.74,99.62h119.9" transform="translate(-631.78 -99.26)"/><path class="cls-2" d="M916.74,110.32H795.94" transform="translate(-631.78 -99.26)"/><path class="cls-2" d="M795.94,99.62h120.8" transform="translate(-631.78 -99.26)"/><path class="cls-2" d="M787.84,110.32H667.14" transform="translate(-631.78 -99.26)"/><path class="cls-2" d="M667.14,99.62h120.7" transform="translate(-631.78 -99.26)"/><path class="cls-2" d="M658.14,110.32h-26" transform="translate(-631.78 -99.26)"/><path class="cls-2" d="M632.14,99.62h26" transform="translate(-631.78 -99.26)"/><path class="cls-2" d="M3209.34,104v85.9h1V104h-1" transform="translate(-631.78 -99.26)"/><path class="cls-2" d="M3209.34,1171.62V190h1v128.9h0v128.7h0v129.8h0v128.8h0v128.9h0v129.7h0v128.9h0v77.9" transform="translate(-631.78 -99.26)"/><path class="cls-2" d="M3198.64,113h-8.2" transform="translate(-631.78 -99.26)"/><path class="cls-2" d="M3209.34,113v-9h-10.7v9h10.7" transform="translate(-631.78 -99.26)"/><path class="cls-2" d="M3193.24,1089.22h5.4" transform="translate(-631.78 -99.26)"/><path class="cls-2" d="M3193.24,1098.12h5.4" transform="translate(-631.78 -99.26)"/><path class="cls-2" d="M3209.34,1098.12v-8.9h-10.7v8.9h10.7" transform="translate(-631.78 -99.26)"/><path class="cls-2" d="M3193.24,960.42h5.4" transform="translate(-631.78 -99.26)"/><path class="cls-2" d="M3193.24,968.42h5.4" transform="translate(-631.78 -99.26)"/><path class="cls-2" d="M3209.34,968.42v-8h-10.7v8h10.7" transform="translate(-631.78 -99.26)"/><path class="cls-2" d="M3193.24,830.62h5.4" transform="translate(-631.78 -99.26)"/><path class="cls-2" d="M3193.24,839.52h5.4" transform="translate(-631.78 -99.26)"/><path class="cls-2" d="M3209.34,839.52v-8.9h-10.7v8.9h10.7" transform="translate(-631.78 -99.26)"/><path class="cls-2" d="M3193.24,701.82h5.4" transform="translate(-631.78 -99.26)"/><path class="cls-2" d="M3193.24,710.82h5.4" transform="translate(-631.78 -99.26)"/><path class="cls-2" d="M3209.34,710.82v-9h-10.7v9h10.7" transform="translate(-631.78 -99.26)"/><path class="cls-2" d="M3193.24,572.92h5.4" transform="translate(-631.78 -99.26)"/><path class="cls-2" d="M3193.24,581.92h5.4" transform="translate(-631.78 -99.26)"/><path class="cls-2" d="M3209.34,581.92v-9h-10.7v9h10.7" transform="translate(-631.78 -99.26)"/><path class="cls-2" d="M3193.24,444.12h5.4" transform="translate(-631.78 -99.26)"/><path class="cls-2" d="M3193.24,452.22h5.4" transform="translate(-631.78 -99.26)"/><path class="cls-2" d="M3209.34,452.22v-8h-10.7v8h10.7" transform="translate(-631.78 -99.26)"/><path class="cls-2" d="M3196.84,113v72.5h-1V113h1" transform="translate(-631.78 -99.26)"/><path class="cls-2" d="M3206.74,113v72.5" transform="translate(-631.78 -99.26)"/><path class="cls-2" d="M3196.84,968.42v120.8h-1V968.42h1" transform="translate(-631.78 -99.26)"/><path class="cls-2" d="M3206.74,968.42v120.8" transform="translate(-631.78 -99.26)"/><path class="cls-2" d="M3196.84,839.52v120.8h-1V839.52h1" transform="translate(-631.78 -99.26)"/><path class="cls-2" d="M3206.74,839.52v120.8" transform="translate(-631.78 -99.26)"/><path class="cls-2" d="M3195.94,1171.62v-73.4h1v73.4" transform="translate(-631.78 -99.26)"/><path class="cls-2" d="M3206.74,1098.12v73.4" transform="translate(-631.78 -99.26)"/><path class="cls-2" d="M3196.84,194.42v119.9h-1V194.42h1" transform="translate(-631.78 -99.26)"/><path class="cls-2" d="M3206.74,194.42v119.9" transform="translate(-631.78 -99.26)"/><path class="cls-2" d="M3196.84,323.32v120.8h-1V323.32h1" transform="translate(-631.78 -99.26)"/><path class="cls-2" d="M3206.74,323.32v120.8" transform="translate(-631.78 -99.26)"/><path class="cls-2" d="M3196.84,581.92v119.9h-1V581.92h1" transform="translate(-631.78 -99.26)"/><path class="cls-2" d="M3206.74,581.92v119.9" transform="translate(-631.78 -99.26)"/><path class="cls-2" d="M3196.84,452.22v120.7h-1V452.22h1" transform="translate(-631.78 -99.26)"/><path class="cls-2" d="M3206.74,452.22v120.7" transform="translate(-631.78 -99.26)"/><path class="cls-2" d="M3196.84,710.82v119.8h-1V710.82h1" transform="translate(-631.78 -99.26)"/><path class="cls-2" d="M3206.74,710.82v119.8" transform="translate(-631.78 -99.26)"/><path class="cls-2" d="M3209.34,323.32v-9h-10.7v9h10.7" transform="translate(-631.78 -99.26)"/><path class="cls-2" d="M3193.24,323.32h5.4" transform="translate(-631.78 -99.26)"/><path class="cls-2" d="M3193.24,314.32h5.4" transform="translate(-631.78 -99.26)"/><path class="cls-2" d="M3190.54,185.52h8.2" transform="translate(-631.78 -99.26)"/><path class="cls-2" d="M3193.24,194.42h5.4" transform="translate(-631.78 -99.26)"/><path class="cls-2" d="M3209.34,194.42v-8.9h-10.7v8.9h10.7" transform="translate(-631.78 -99.26)"/><path class="cls-2" d="M3185.24,192.62h-106.6v2.8h106.6v-2.8" transform="translate(-631.78 -99.26)"/><path class="cls-2" d="M3081.44,192.62v-76.9h-2.8v76.9" transform="translate(-631.78 -99.26)"/><path class="cls-2" d="M2339.54,154.22h-1" transform="translate(-631.78 -99.26)"/><path class="cls-2" d="M2214.34,154.22h-1.8" transform="translate(-631.78 -99.26)"/><path class="cls-2" d="M665.34,154.22h-1.8" transform="translate(-631.78 -99.26)"/><path class="cls-2" d="M790.64,228.52H663.54V115.72h-1.8v115.4h131.5V115.72h-2.6v112.8" transform="translate(-631.78 -99.26)"/><path class="cls-2" d="M1565.44,228.52h-127V115.72h-2.8v115.4h132.5V115.72h-2.8v112.8" transform="translate(-631.78 -99.26)"/><path class="cls-2" d="M2339.54,228.52h-127.1V115.72h-1.8v115.4h131.5V115.72h-2.6v112.8" transform="translate(-631.78 -99.26)"/><path class="cls-2" d="M663.54,115.72h127.1" transform="translate(-631.78 -99.26)"/><path class="cls-2" d="M793.24,115.72h642.5" transform="translate(-631.78 -99.26)"/><path class="cls-2" d="M1438.54,115.72h127" transform="translate(-631.78 -99.26)"/><path class="cls-2" d="M1568.24,115.72h251.4" transform="translate(-631.78 -99.26)"/><path class="cls-2" d="M1829.44,115.72h381.2" transform="translate(-631.78 -99.26)"/><path class="cls-2" d="M2212.54,115.72h127.1" transform="translate(-631.78 -99.26)"/><path class="cls-2" d="M2342.24,115.72h122.6" transform="translate(-631.78 -99.26)"/><path class="cls-2" d="M2474.74,115.72h604" transform="translate(-631.78 -99.26)"/><path class="cls-2" d="M3081.44,115.72h106.4v972.6" transform="translate(-631.78 -99.26)"/><path class="cls-2" d="M3078.64,130h-604" transform="translate(-631.78 -99.26)"/><path class="cls-2" d="M2464.84,130h-122.6" transform="translate(-631.78 -99.26)"/><path class="cls-2" d="M2339.54,130h-1" transform="translate(-631.78 -99.26)"/><path class="cls-2" d="M2214.34,130h-1.8" transform="translate(-631.78 -99.26)"/><path class="cls-2" d="M2210.74,130h-381.2" transform="translate(-631.78 -99.26)"/><path class="cls-2" d="M1819.64,130h-251.4" transform="translate(-631.78 -99.26)"/><path class="cls-2" d="M1440.34,130h-1.8" transform="translate(-631.78 -99.26)"/><path class="cls-2" d="M1435.74,130H793.24" transform="translate(-631.78 -99.26)"/><path class="cls-2" d="M790.64,130h-1" transform="translate(-631.78 -99.26)"/><path class="cls-2" d="M665.34,130h-1.8" transform="translate(-631.78 -99.26)"/><path class="cls-2" d="M3168.14,1171.62v-73.4" transform="translate(-631.78 -99.26)"/><path class="cls-2" d="M3168.14,1088.32V195.42" transform="translate(-631.78 -99.26)"/><path class="cls-2" d="M3168.14,192.62v-5.3" transform="translate(-631.78 -99.26)"/><path class="cls-2" d="M3187.84,1088.32h-454.5v42.1h9.8v-32.3h444.7v73.4" transform="translate(-631.78 -99.26)"/><path class="cls-2" d="M2464.84,115.72v1000.4h-175.4v9.8h221v-9.8h-35.8V115.72" transform="translate(-631.78 -99.26)"/><path class="cls-2" d="M1819.64,115.72v1011.1h9.8V115.72" transform="translate(-631.78 -99.26)"/><path class="cls-2" d="M1870.64,1122.42h112.8v-1.8h-112.8v1.8" transform="translate(-631.78 -99.26)"/><path class="cls-1" d="M1942.24,1124.22v2.6h3.6Zm0,2.6h3.6l-3.6-2.6Zm3.6,0-3.6-2.6h3.6Zm-3.6-2.6h3.6v2.6Z" transform="translate(-631.78 -99.26)"/><path class="cls-3" d="M1942.24,1124.22v2.6h3.6l-3.6-2.6m0,2.6h3.6l-3.6-2.6v2.6m3.6,0-3.6-2.6h3.6v2.6m-3.6-2.6h3.6v2.6l-3.6-2.6" transform="translate(-631.78 -99.26)"/><path class="cls-1" d="M1942.24,1116.12v8h3.6Zm0,8.1h3.6l-3.6-8Zm3.6,0-3.6-8h3.6Zm-3.6-8.1h3.6v8Z" transform="translate(-631.78 -99.26)"/><path class="cls-3" d="M1942.24,1116.12v8h3.6l-3.6-8m0,8.1h3.6l-3.6-8v8m3.6,0-3.6-8h3.6v8m-3.6-8.1h3.6v8l-3.6-8" transform="translate(-631.78 -99.26)"/><path class="cls-2" d="M1942.24,1126.82h3.6v-10.7h-3.6v10.7" transform="translate(-631.78 -99.26)"/><path class="cls-2" d="M2121.14,1126.82h-175.3" transform="translate(-631.78 -99.26)"/><path class="cls-2" d="M1945.84,1116.12h175.3" transform="translate(-631.78 -99.26)"/><path class="cls-2" d="M2289.44,1126.82h221" transform="translate(-631.78 -99.26)"/><path class="cls-2" d="M793.24,231.12v.8H661.74v-.8" transform="translate(-631.78 -99.26)"/><path class="cls-2" d="M632.14,115.72h30.5v-5.4h-30.5" transform="translate(-631.78 -99.26)"/><path class="cls-2" d="M792.44,115.72h128.8v-5.4H792.44v5.4" transform="translate(-631.78 -99.26)"/><path class="cls-2" d="M1437.54,110.32H792.44" transform="translate(-631.78 -99.26)"/><path class="cls-2" d="M921.14,115.72H1050v-5.4H921.14v5.4" transform="translate(-631.78 -99.26)"/><path class="cls-2" d="M1050,115.72h128.9v-5.4H1050v5.4" transform="translate(-631.78 -99.26)"/><path class="cls-2" d="M1178.94,115.72h129.7v-5.4h-129.7v5.4" transform="translate(-631.78 -99.26)"/><path class="cls-2" d="M1308.64,115.72h128.9v-5.4h-128.9v5.4" transform="translate(-631.78 -99.26)"/><path class="cls-2" d="M1564.64,115.72h129.7v-5.4h-129.7v5.4" transform="translate(-631.78 -99.26)"/><path class="cls-2" d="M2210.74,110.32h-646.1" transform="translate(-631.78 -99.26)"/><path class="cls-2" d="M1694.34,115.72h128.9v-5.4h-128.9v5.4" transform="translate(-631.78 -99.26)"/><path class="cls-2" d="M1823.24,115.72h128.9v-5.4h-128.9v5.4" transform="translate(-631.78 -99.26)"/><path class="cls-2" d="M1952.14,115.72H2081v-5.4h-128.9v5.4" transform="translate(-631.78 -99.26)"/><path class="cls-2" d="M2080.94,115.72h129.7v-5.4h-129.7v5.4" transform="translate(-631.78 -99.26)"/><path class="cls-2" d="M2341.34,115.72h128.9v-5.4h-128.9v5.4" transform="translate(-631.78 -99.26)"/><path class="cls-2" d="M2986.54,110.32h-645.2" transform="translate(-631.78 -99.26)"/><path class="cls-2" d="M2470.24,115.72H2599v-5.4h-128.8v5.4" transform="translate(-631.78 -99.26)"/><path class="cls-2" d="M2599,115.72h128.9v-5.4H2599v5.4" transform="translate(-631.78 -99.26)"/><path class="cls-2" d="M2727.94,115.72h129.7v-5.4h-129.7v5.4" transform="translate(-631.78 -99.26)"/><path class="cls-2" d="M2857.64,115.72h128.9v-5.4h-128.9v5.4" transform="translate(-631.78 -99.26)"/><path class="cls-2" d="M3193.24,1171.62V964.82h-5.4V835.12h5.4V577.42h-5.4V447.62h5.4V190h-5.4v128.9h5.4v258.5h-5.4v128.8h5.4v258.6h-5.4v128.9h5.4" transform="translate(-631.78 -99.26)"/><path class="cls-2" d="M3187.84,1171.62v-77.9h5.4V835.12h-5.4V706.22h5.4V447.62h-5.4V318.82h5.4V190" transform="translate(-631.78 -99.26)"/><path class="cls-1" d="M3193.24,190v-.4a.4.4,0,1,0,.4.4.43.43,0,0,0-.4-.4Z" transform="translate(-631.78 -99.26)"/><path class="cls-1" d="M3193.24,318.82v-.4a.4.4,0,1,0,.4.4.43.43,0,0,0-.4-.4Z" transform="translate(-631.78 -99.26)"/><path class="cls-1" d="M3193.24,447.62v-.4a.4.4,0,1,0,.4.4.43.43,0,0,0-.4-.4Z" transform="translate(-631.78 -99.26)"/><path class="cls-1" d="M3193.24,577.42V577a.4.4,0,1,0,.4.4.43.43,0,0,0-.4-.4Z" transform="translate(-631.78 -99.26)"/><path class="cls-1" d="M3193.24,706.22v-.4a.4.4,0,1,0,.4.4.43.43,0,0,0-.4-.4Z" transform="translate(-631.78 -99.26)"/><path class="cls-1" d="M3193.24,835.12v-.4a.4.4,0,1,0,.4.4.43.43,0,0,0-.4-.4Z" transform="translate(-631.78 -99.26)"/><path class="cls-1" d="M3193.24,964.82v-.4a.4.4,0,1,0,.4.4.43.43,0,0,0-.4-.4Z" transform="translate(-631.78 -99.26)"/><path class="cls-1" d="M3193.24,1093.72v-.4a.4.4,0,1,0,.4.4.43.43,0,0,0-.4-.4Z" transform="translate(-631.78 -99.26)"/><path class="cls-2" d="M2625,1126.82h3.5v-10.7H2625v10.7" transform="translate(-631.78 -99.26)"/><path class="cls-2" d="M2514,1116.12h111" transform="translate(-631.78 -99.26)"/><path class="cls-2" d="M2625,1126.82H2514" transform="translate(-631.78 -99.26)"/><path class="cls-2" d="M2285.84,1126.82h3.6v-10.7h-3.6v10.7" transform="translate(-631.78 -99.26)"/><path class="cls-2" d="M2128.34,1116.12h157.4" transform="translate(-631.78 -99.26)"/><path class="cls-2" d="M2285.84,1126.82h-157.5" transform="translate(-631.78 -99.26)"/><path class="cls-2" d="M2289.44,1116.12h0" transform="translate(-631.78 -99.26)"/><path class="cls-2" d="M2740.54,1137.52h101V1134h-101v3.5" transform="translate(-631.78 -99.26)"/><path class="cls-2" d="M2743.14,1130.42h-9.8v3.6h9.8v-3.6" transform="translate(-631.78 -99.26)"/></g><path d="M667.64,437.52v-6.4H656v-3l12.3-17.4H671v17.4h3.6v3H671v6.4Zm0-9.4V416l-8.4,12.1Zm27.6,6.3v3.2h-17.7a5.87,5.87,0,0,1,.4-2.3,14,14,0,0,1,2.2-3.6,35.06,35.06,0,0,1,4.3-4.1,36.12,36.12,0,0,0,5.9-5.7,6.88,6.88,0,0,0,1.5-4,4.53,4.53,0,0,0-1.4-3.3,5.08,5.08,0,0,0-3.7-1.3,5.22,5.22,0,0,0-3.8,1.4,5.3,5.3,0,0,0-1.4,4l-3.4-.3a8.31,8.31,0,0,1,2.6-5.8,9,9,0,0,1,6.1-2,8.53,8.53,0,0,1,6.1,2.1,7,7,0,0,1,2.3,5.3,7.41,7.41,0,0,1-.7,3.2,13.46,13.46,0,0,1-2.2,3.3,54.18,54.18,0,0,1-5.1,4.7c-2,1.7-3.2,2.8-3.8,3.4a11,11,0,0,0-1.4,1.8Z" transform="translate(-631.78 -99.26)"/><path d="M768.34,324.12v-6.4h-11.6v-3l12.3-17.4h2.7v17.4h3.6v3h-3.6v6.4Zm0-9.4v-12.1l-8.4,12.1Zm10.3,2.3,3.3-.4a7.13,7.13,0,0,0,1.9,4,4.79,4.79,0,0,0,3.3,1.2,5,5,0,0,0,3.9-1.6,5.35,5.35,0,0,0,1.6-4,4.82,4.82,0,0,0-1.5-3.7,5,5,0,0,0-3.8-1.5,7.39,7.39,0,0,0-2.3.4l.4-2.9h.5a7,7,0,0,0,3.8-1.1,3.84,3.84,0,0,0,1.7-3.4,4.07,4.07,0,0,0-1.2-3,4.38,4.38,0,0,0-3.2-1.2,4.54,4.54,0,0,0-3.2,1.2,5.51,5.51,0,0,0-1.6,3.6l-3.3-.6a8.44,8.44,0,0,1,2.7-5.1,7.92,7.92,0,0,1,5.3-1.8,8.72,8.72,0,0,1,4,.9,6.43,6.43,0,0,1,2.8,2.6,6.2,6.2,0,0,1,1,3.5,5.79,5.79,0,0,1-3.7,5.5,6.22,6.22,0,0,1,3.7,2.3,6.87,6.87,0,0,1,1.3,4.3,8.26,8.26,0,0,1-2.6,6,9.16,9.16,0,0,1-6.5,2.4,8.53,8.53,0,0,1-5.9-2.1,9,9,0,0,1-2.4-5.5Z" transform="translate(-631.78 -99.26)"/><path d="M1320.74,468l3.5-.3a6.47,6.47,0,0,0,1.8,3.8,5.23,5.23,0,0,0,7.4-.5,6.8,6.8,0,0,0,1.6-4.8,5.67,5.67,0,0,0-1.6-4.4,5.42,5.42,0,0,0-4.1-1.6,5.66,5.66,0,0,0-2.9.7,5.24,5.24,0,0,0-2,1.9l-3.1-.4,2.6-13.8h13.3v3.1h-10.7l-1.4,7.2a8.91,8.91,0,0,1,5.1-1.7,8.07,8.07,0,0,1,5.9,2.4,8.52,8.52,0,0,1,2.4,6.3,10,10,0,0,1-2.1,6.3,8.45,8.45,0,0,1-7,3.3,8.78,8.78,0,0,1-6-2.1,7.84,7.84,0,0,1-2.7-5.4Zm38.2,3.9v3.2h-17.7a5.87,5.87,0,0,1,.4-2.3,14,14,0,0,1,2.2-3.6,35.06,35.06,0,0,1,4.3-4.1,36.12,36.12,0,0,0,5.9-5.7,6.88,6.88,0,0,0,1.5-4,4.53,4.53,0,0,0-1.4-3.3,5.08,5.08,0,0,0-3.7-1.3,5.22,5.22,0,0,0-3.8,1.4,5.3,5.3,0,0,0-1.4,4l-3.4-.3a8.31,8.31,0,0,1,2.6-5.8,9,9,0,0,1,6.1-2,8.53,8.53,0,0,1,6.1,2.1,7,7,0,0,1,2.3,5.3,7.41,7.41,0,0,1-.7,3.2,13.46,13.46,0,0,1-2.2,3.3,54.18,54.18,0,0,1-5.1,4.7c-2,1.7-3.2,2.8-3.8,3.4a11,11,0,0,0-1.4,1.8Z" transform="translate(-631.78 -99.26)"/><path d="M1630.54,346.32l-3.3.3a6.69,6.69,0,0,0-1.2-2.8,4.53,4.53,0,0,0-3.3-1.4,4.68,4.68,0,0,0-2.8.9,8.5,8.5,0,0,0-2.5,3.3,16.93,16.93,0,0,0-.9,6.2,8.24,8.24,0,0,1,2.9-2.7,7.7,7.7,0,0,1,9.2,1.5,8.87,8.87,0,0,1,2.3,6.3,10.49,10.49,0,0,1-1.1,4.7,7.42,7.42,0,0,1-3,3.3,8,8,0,0,1-4.3,1.2,8.46,8.46,0,0,1-6.7-3c-1.7-2-2.6-5.3-2.6-10,0-5.2,1-9,2.9-11.3a8.18,8.18,0,0,1,6.8-3.1,7.65,7.65,0,0,1,5.2,1.8,7.38,7.38,0,0,1,2.4,4.8Zm-13.4,11.6a7.84,7.84,0,0,0,.7,3.3,6.77,6.77,0,0,0,2,2.4,5.6,5.6,0,0,0,2.7.8,4.75,4.75,0,0,0,3.6-1.7,6.53,6.53,0,0,0,1.5-4.6,6.18,6.18,0,0,0-1.5-4.4,4.71,4.71,0,0,0-3.7-1.6,4.92,4.92,0,0,0-3.8,1.6,6,6,0,0,0-1.5,4.2Zm29.6,8.7h-3.3v-21a16.63,16.63,0,0,1-3.1,2.3,18.49,18.49,0,0,1-3.5,1.7v-3.2a20.87,20.87,0,0,0,4.8-3.1,10.21,10.21,0,0,0,2.9-3.6h2.1l.1,26.9Z" transform="translate(-631.78 -99.26)"/><path d="M823.84,968.22l3.5-.3a6.47,6.47,0,0,0,1.8,3.8,5.23,5.23,0,0,0,7.4-.5,6.8,6.8,0,0,0,1.6-4.8,5.67,5.67,0,0,0-1.6-4.4,5.42,5.42,0,0,0-4.1-1.6,5.66,5.66,0,0,0-2.9.7,5.24,5.24,0,0,0-2,1.9l-3.1-.4,2.6-13.8h13.3v3.1h-10.7l-1.4,7.2a8.91,8.91,0,0,1,5.1-1.7,8.07,8.07,0,0,1,5.9,2.4,8.52,8.52,0,0,1,2.4,6.3,10,10,0,0,1-2.1,6.3,8.45,8.45,0,0,1-7,3.3,8.78,8.78,0,0,1-6-2.1A7.46,7.46,0,0,1,823.84,968.22Zm20.9,0,3.3-.4a7.13,7.13,0,0,0,1.9,4,4.79,4.79,0,0,0,3.3,1.2,5,5,0,0,0,3.9-1.6,5.35,5.35,0,0,0,1.6-4,4.82,4.82,0,0,0-1.5-3.7,5,5,0,0,0-3.8-1.5,7.39,7.39,0,0,0-2.3.4l.4-2.9h.5a7,7,0,0,0,3.8-1.1,3.84,3.84,0,0,0,1.7-3.4,4.07,4.07,0,0,0-1.2-3,4.38,4.38,0,0,0-3.2-1.2,4.54,4.54,0,0,0-3.2,1.2,5.51,5.51,0,0,0-1.6,3.6l-3.3-.6a8.44,8.44,0,0,1,2.7-5.1,7.92,7.92,0,0,1,5.3-1.8,8.72,8.72,0,0,1,4,.9,6.43,6.43,0,0,1,2.8,2.6,6.2,6.2,0,0,1,1,3.5,5.79,5.79,0,0,1-3.7,5.5,6.22,6.22,0,0,1,3.7,2.3,6.87,6.87,0,0,1,1.3,4.3,8.26,8.26,0,0,1-2.6,6,9.16,9.16,0,0,1-6.5,2.4,8.53,8.53,0,0,1-5.9-2.1,9.55,9.55,0,0,1-2.4-5.5Z" transform="translate(-631.78 -99.26)"/><path d="M1154.34,965.42l3.5-.3a6.47,6.47,0,0,0,1.8,3.8,5.23,5.23,0,0,0,7.4-.5,6.8,6.8,0,0,0,1.6-4.8,5.67,5.67,0,0,0-1.6-4.4,5.42,5.42,0,0,0-4.1-1.6,5.66,5.66,0,0,0-2.9.7,5.24,5.24,0,0,0-2,1.9l-3.1-.4,2.6-13.8h13.3v3.1h-10.7l-1.4,7.2a8.91,8.91,0,0,1,5.1-1.7,8.07,8.07,0,0,1,5.9,2.4,8.52,8.52,0,0,1,2.4,6.3,10,10,0,0,1-2.1,6.3,8.45,8.45,0,0,1-7,3.3,8.78,8.78,0,0,1-6-2.1,7.46,7.46,0,0,1-2.7-5.4Zm21.1-16.2V946h17.4v2.6a35.36,35.36,0,0,0-5.1,7.3,41.74,41.74,0,0,0-3.9,9.3,32.56,32.56,0,0,0-1.3,7.4h-3.4a36.37,36.37,0,0,1,1.2-7.7,40.71,40.71,0,0,1,8.1-15.7Z" transform="translate(-631.78 -99.26)"/><path d="M921.94,1080l3.5-.3a6.47,6.47,0,0,0,1.8,3.8,5.23,5.23,0,0,0,7.4-.5,6.8,6.8,0,0,0,1.6-4.8,5.67,5.67,0,0,0-1.6-4.4,5.42,5.42,0,0,0-4.1-1.6,5.66,5.66,0,0,0-2.9.7,5.24,5.24,0,0,0-2,1.9l-3.1-.4,2.6-13.8h13.3v3.1h-10.7l-1.4,7.2a8.91,8.91,0,0,1,5.1-1.7,8.07,8.07,0,0,1,5.9,2.4,8.52,8.52,0,0,1,2.4,6.3,10,10,0,0,1-2.1,6.3,8.45,8.45,0,0,1-7,3.3,8.78,8.78,0,0,1-6-2.1A7.46,7.46,0,0,1,921.94,1080Zm37.9-13.2-3.3.3a6.69,6.69,0,0,0-1.2-2.8,4.53,4.53,0,0,0-3.3-1.4,4.68,4.68,0,0,0-2.8.9,8.5,8.5,0,0,0-2.5,3.3,16.93,16.93,0,0,0-.9,6.2,8.24,8.24,0,0,1,2.9-2.7,7.7,7.7,0,0,1,9.2,1.5,8.87,8.87,0,0,1,2.3,6.3,10.49,10.49,0,0,1-1.1,4.7,7.42,7.42,0,0,1-3,3.3,8,8,0,0,1-4.3,1.2,8.46,8.46,0,0,1-6.7-3c-1.7-2-2.6-5.3-2.6-10,0-5.2,1-9,2.9-11.3a8.18,8.18,0,0,1,6.8-3.1,7.65,7.65,0,0,1,5.2,1.8,7.38,7.38,0,0,1,2.4,4.8Zm-13.4,11.6a7.84,7.84,0,0,0,.7,3.3,6.77,6.77,0,0,0,2,2.4,5.6,5.6,0,0,0,2.7.8,4.75,4.75,0,0,0,3.6-1.7,6.53,6.53,0,0,0,1.5-4.6,6.18,6.18,0,0,0-1.5-4.4,4.71,4.71,0,0,0-3.7-1.6,4.92,4.92,0,0,0-3.8,1.6,5.68,5.68,0,0,0-1.5,4.2Z" transform="translate(-631.78 -99.26)"/><path d="M1268.64,1068.42l-3.3.3a6.69,6.69,0,0,0-1.2-2.8,4.53,4.53,0,0,0-3.3-1.4,4.68,4.68,0,0,0-2.8.9,8.5,8.5,0,0,0-2.5,3.3,16.93,16.93,0,0,0-.9,6.2,8.24,8.24,0,0,1,2.9-2.7,7.7,7.7,0,0,1,9.2,1.5,8.87,8.87,0,0,1,2.3,6.3,10.49,10.49,0,0,1-1.1,4.7,7.42,7.42,0,0,1-3,3.3,8,8,0,0,1-4.3,1.2,8.46,8.46,0,0,1-6.7-3c-1.7-2-2.6-5.3-2.6-10,0-5.2,1-9,2.9-11.3a8.18,8.18,0,0,1,6.8-3.1,7.65,7.65,0,0,1,5.2,1.8,7.15,7.15,0,0,1,2.4,4.8Zm-13.5,11.5a7.84,7.84,0,0,0,.7,3.3,6.77,6.77,0,0,0,2,2.4,5.6,5.6,0,0,0,2.7.8,4.75,4.75,0,0,0,3.6-1.7,6.53,6.53,0,0,0,1.5-4.6,6.18,6.18,0,0,0-1.5-4.4,4.71,4.71,0,0,0-3.7-1.6,4.92,4.92,0,0,0-3.8,1.6,6.5,6.5,0,0,0-1.5,4.2Zm17.3-4.5a23.57,23.57,0,0,1,1-7.7,10.34,10.34,0,0,1,2.9-4.5,7.78,7.78,0,0,1,4.9-1.6,7.9,7.9,0,0,1,3.8.9,7.19,7.19,0,0,1,2.7,2.5,13.39,13.39,0,0,1,1.7,4,26.82,26.82,0,0,1,.6,6.3,22.93,22.93,0,0,1-1,7.6,9.53,9.53,0,0,1-2.9,4.5,8.15,8.15,0,0,1-11-1.2c-1.9-2.1-2.7-5.8-2.7-10.8Zm3.3,0c0,4.4.5,7.3,1.5,8.8a4.38,4.38,0,0,0,7.6,0c1-1.5,1.5-4.4,1.5-8.8s-.5-7.4-1.5-8.8a4.69,4.69,0,0,0-3.9-2.2,4.13,4.13,0,0,0-3.6,1.9C1276.34,1068,1275.74,1071,1275.74,1075.42Z" transform="translate(-631.78 -99.26)"/><path d="M1656.44,1066.82l-3.3.3a6.69,6.69,0,0,0-1.2-2.8,4.53,4.53,0,0,0-3.3-1.4,4.68,4.68,0,0,0-2.8.9,8.5,8.5,0,0,0-2.5,3.3,16.93,16.93,0,0,0-.9,6.2,8.24,8.24,0,0,1,2.9-2.7,7.7,7.7,0,0,1,9.2,1.5,8.87,8.87,0,0,1,2.3,6.3,10.49,10.49,0,0,1-1.1,4.7,7.42,7.42,0,0,1-3,3.3,8,8,0,0,1-4.3,1.2,8.46,8.46,0,0,1-6.7-3c-1.7-2-2.6-5.3-2.6-10,0-5.2,1-9,2.9-11.3a8.18,8.18,0,0,1,6.8-3.1,7.65,7.65,0,0,1,5.2,1.8,6.58,6.58,0,0,1,2.4,4.8Zm-13.4,11.6a7.84,7.84,0,0,0,.7,3.3,6.77,6.77,0,0,0,2,2.4,5.6,5.6,0,0,0,2.7.8,4.75,4.75,0,0,0,3.6-1.7,6.53,6.53,0,0,0,1.5-4.6,6.18,6.18,0,0,0-1.5-4.4,4.71,4.71,0,0,0-3.7-1.6,4.92,4.92,0,0,0-3.8,1.6,5.68,5.68,0,0,0-1.5,4.2Zm34.3-11.6-3.3.3a6.69,6.69,0,0,0-1.2-2.8,4.53,4.53,0,0,0-3.3-1.4,4.68,4.68,0,0,0-2.8.9,8.5,8.5,0,0,0-2.5,3.3,16.93,16.93,0,0,0-.9,6.2,8.24,8.24,0,0,1,2.9-2.7,7.7,7.7,0,0,1,9.2,1.5,8.87,8.87,0,0,1,2.3,6.3,10.49,10.49,0,0,1-1.1,4.7,7.42,7.42,0,0,1-3,3.3,8,8,0,0,1-4.3,1.2,8.46,8.46,0,0,1-6.7-3c-1.7-2-2.6-5.3-2.6-10,0-5.2,1-9,2.9-11.3a8.18,8.18,0,0,1,6.8-3.1,7.65,7.65,0,0,1,5.2,1.8,7.38,7.38,0,0,1,2.4,4.8Zm-13.5,11.6a7.84,7.84,0,0,0,.7,3.3,6.77,6.77,0,0,0,2,2.4,5.6,5.6,0,0,0,2.7.8,4.75,4.75,0,0,0,3.6-1.7,6.53,6.53,0,0,0,1.5-4.6,6.18,6.18,0,0,0-1.5-4.4,4.71,4.71,0,0,0-3.7-1.6,4.92,4.92,0,0,0-3.8,1.6,6.12,6.12,0,0,0-1.5,4.2Z" transform="translate(-631.78 -99.26)"/><path d="M1554.14,951.42l-3.3.3a6.69,6.69,0,0,0-1.2-2.8,4.53,4.53,0,0,0-3.3-1.4,4.68,4.68,0,0,0-2.8.9,8.5,8.5,0,0,0-2.5,3.3,16.93,16.93,0,0,0-.9,6.2,8.24,8.24,0,0,1,2.9-2.7,7.7,7.7,0,0,1,9.2,1.5,8.87,8.87,0,0,1,2.3,6.3,10.49,10.49,0,0,1-1.1,4.7,7.42,7.42,0,0,1-3,3.3,8.94,8.94,0,0,1-4.3,1.2,8.46,8.46,0,0,1-6.7-3c-1.7-2-2.6-5.3-2.6-10,0-5.2,1-9,2.9-11.3a8.18,8.18,0,0,1,6.8-3.1,7.65,7.65,0,0,1,5.2,1.8,7.15,7.15,0,0,1,2.4,4.8Zm-13.5,11.5a7.84,7.84,0,0,0,.7,3.3,6.77,6.77,0,0,0,2,2.4,5.6,5.6,0,0,0,2.7.8,4.75,4.75,0,0,0,3.6-1.7,6.53,6.53,0,0,0,1.5-4.6,6.18,6.18,0,0,0-1.5-4.4,4.71,4.71,0,0,0-3.7-1.6,4.92,4.92,0,0,0-3.8,1.6,6,6,0,0,0-1.5,4.2Zm17.2,1.7,3.3-.4a7.13,7.13,0,0,0,1.9,4,4.79,4.79,0,0,0,3.3,1.2,5,5,0,0,0,3.9-1.6,5.35,5.35,0,0,0,1.6-4,4.82,4.82,0,0,0-1.5-3.7,5,5,0,0,0-3.8-1.5,7.39,7.39,0,0,0-2.3.4l.4-2.9h.5a7,7,0,0,0,3.8-1.1,3.84,3.84,0,0,0,1.7-3.4,4.07,4.07,0,0,0-1.2-3,4.38,4.38,0,0,0-3.2-1.2,4.54,4.54,0,0,0-3.2,1.2,5.51,5.51,0,0,0-1.6,3.6l-3.3-.6a8.44,8.44,0,0,1,2.7-5.1,7.92,7.92,0,0,1,5.3-1.8,8.72,8.72,0,0,1,4,.9,6.43,6.43,0,0,1,2.8,2.6,6.2,6.2,0,0,1,1,3.5,5.79,5.79,0,0,1-3.7,5.5,6.22,6.22,0,0,1,3.7,2.3,6.87,6.87,0,0,1,1.3,4.3,8.26,8.26,0,0,1-2.6,6,9.16,9.16,0,0,1-6.5,2.4,8.53,8.53,0,0,1-5.9-2.1,11.06,11.06,0,0,1-2.4-5.5Z" transform="translate(-631.78 -99.26)"/><path d="M2087.34,618.32v-3.2h17.4v2.6a35.36,35.36,0,0,0-5.1,7.3,41.74,41.74,0,0,0-3.9,9.3,32.56,32.56,0,0,0-1.3,7.4H2091a36.37,36.37,0,0,1,1.2-7.7,40.71,40.71,0,0,1,8.1-15.7Zm20.6,10.1a23.57,23.57,0,0,1,1-7.7,10.34,10.34,0,0,1,2.9-4.5,7.78,7.78,0,0,1,4.9-1.6,7.9,7.9,0,0,1,3.8.9,7.19,7.19,0,0,1,2.7,2.5,13.39,13.39,0,0,1,1.7,4,26.82,26.82,0,0,1,.6,6.3,22.93,22.93,0,0,1-1,7.6,9.53,9.53,0,0,1-2.9,4.5,8.15,8.15,0,0,1-11-1.2C2108.84,637.12,2107.94,633.42,2107.94,628.42Zm3.4,0c0,4.4.5,7.3,1.5,8.8a4.38,4.38,0,0,0,7.6,0c1-1.5,1.5-4.4,1.5-8.8s-.5-7.4-1.5-8.8a4.47,4.47,0,0,0-3.9-2.2,4.13,4.13,0,0,0-3.6,1.9C2111.94,621,2111.34,624,2111.34,628.42Z" transform="translate(-631.78 -99.26)"/><path d="M2004.74,513.62l-3.3.3a6.69,6.69,0,0,0-1.2-2.8,4.53,4.53,0,0,0-3.3-1.4,4.68,4.68,0,0,0-2.8.9,8.5,8.5,0,0,0-2.5,3.3,16.93,16.93,0,0,0-.9,6.2,8.24,8.24,0,0,1,2.9-2.7,7.7,7.7,0,0,1,9.2,1.5,8.87,8.87,0,0,1,2.3,6.3,10.49,10.49,0,0,1-1.1,4.7,7.42,7.42,0,0,1-3,3.3,8,8,0,0,1-4.3,1.2,8.46,8.46,0,0,1-6.7-3c-1.7-2-2.6-5.3-2.6-10,0-5.2,1-9,2.9-11.3a8.18,8.18,0,0,1,6.8-3.1,7.65,7.65,0,0,1,5.2,1.8,7.38,7.38,0,0,1,2.4,4.8Zm-13.5,11.6a7.84,7.84,0,0,0,.7,3.3,6.77,6.77,0,0,0,2,2.4,5.6,5.6,0,0,0,2.7.8,4.75,4.75,0,0,0,3.6-1.7,6.53,6.53,0,0,0,1.5-4.6,6.18,6.18,0,0,0-1.5-4.4,4.71,4.71,0,0,0-3.7-1.6,4.92,4.92,0,0,0-3.8,1.6,5.68,5.68,0,0,0-1.5,4.2Zm22.3-5.9a5.79,5.79,0,0,1-3-2.1,5.18,5.18,0,0,1-1-3.3,6.35,6.35,0,0,1,2.1-4.9,8,8,0,0,1,5.6-2,8.42,8.42,0,0,1,5.7,2,6.72,6.72,0,0,1,2.1,5,5.58,5.58,0,0,1-1,3.3,6.24,6.24,0,0,1-3,2.1,7.44,7.44,0,0,1,3.8,2.6,6.87,6.87,0,0,1,1.3,4.3,7.85,7.85,0,0,1-2.4,5.8,9.89,9.89,0,0,1-12.8-.1,7.91,7.91,0,0,1-2.4-5.9,7.16,7.16,0,0,1,1.3-4.4,6.52,6.52,0,0,1,3.7-2.4Zm-.7-5.6a4.14,4.14,0,0,0,1.2,3.1,4.38,4.38,0,0,0,3.2,1.2,4.14,4.14,0,0,0,3.1-1.2,4,4,0,0,0,1.2-2.9,3.8,3.8,0,0,0-1.3-3,4.3,4.3,0,0,0-3.1-1.2,4.14,4.14,0,0,0-3.1,1.2A4,4,0,0,0,2012.84,513.72Zm-1,12.4a5.44,5.44,0,0,0,.7,2.7,3.9,3.9,0,0,0,2,2,5.55,5.55,0,0,0,2.8.7,5.14,5.14,0,0,0,5.4-5.4,5,5,0,0,0-1.6-3.9,5.76,5.76,0,0,0-4-1.6,5.44,5.44,0,0,0-3.9,1.5,6.49,6.49,0,0,0-1.4,4Z" transform="translate(-631.78 -99.26)"/><path d="M2086.84,404.72v-3.2h17.4v2.6a35.36,35.36,0,0,0-5.1,7.3,41.74,41.74,0,0,0-3.9,9.3,32.56,32.56,0,0,0-1.3,7.4h-3.4a36.37,36.37,0,0,1,1.2-7.7,40.71,40.71,0,0,1,8.1-15.7Zm33,23.3h-3.3V407a16.63,16.63,0,0,1-3.1,2.3,18.49,18.49,0,0,1-3.5,1.7v-3.2a20.87,20.87,0,0,0,4.8-3.1,10.21,10.21,0,0,0,2.9-3.6h2.1l.1,26.9Z" transform="translate(-631.78 -99.26)"/><path d="M2737,535.07v-3.2h17.4v2.6a35.36,35.36,0,0,0-5.1,7.3,41.74,41.74,0,0,0-3.9,9.3,32.56,32.56,0,0,0-1.3,7.4h-3.4a36.37,36.37,0,0,1,1.2-7.7,40.71,40.71,0,0,1,8.1-15.7Zm37.7,3.1-3.3.3a6.69,6.69,0,0,0-1.2-2.8,4.53,4.53,0,0,0-3.3-1.4,4.68,4.68,0,0,0-2.8.9,8.5,8.5,0,0,0-2.5,3.3,16.93,16.93,0,0,0-.9,6.2,8.24,8.24,0,0,1,2.9-2.7,7.7,7.7,0,0,1,9.2,1.5,8.87,8.87,0,0,1,2.3,6.3,10.49,10.49,0,0,1-1.1,4.7,7.42,7.42,0,0,1-3,3.3,8,8,0,0,1-4.3,1.2,8.46,8.46,0,0,1-6.7-3c-1.7-2-2.6-5.3-2.6-10,0-5.2,1-9,2.9-11.3a8.18,8.18,0,0,1,6.8-3.1,7.65,7.65,0,0,1,5.2,1.8,7.38,7.38,0,0,1,2.4,4.8Zm-13.4,11.6a7.84,7.84,0,0,0,.7,3.3,6.77,6.77,0,0,0,2,2.4,5.6,5.6,0,0,0,2.7.8,4.75,4.75,0,0,0,3.6-1.7,6.53,6.53,0,0,0,1.5-4.6,6.18,6.18,0,0,0-1.5-4.4,4.71,4.71,0,0,0-3.7-1.6,4.92,4.92,0,0,0-3.8,1.6,5.68,5.68,0,0,0-1.5,4.2Z" transform="translate(-631.78 -99.26)"/><path d="M2783.84,215.57v-3.2h17.4V215a35.36,35.36,0,0,0-5.1,7.3,41.74,41.74,0,0,0-3.9,9.3,32.56,32.56,0,0,0-1.3,7.4h-3.4a36.37,36.37,0,0,1,1.2-7.7,40.71,40.71,0,0,1,8.1-15.7Zm20.6,16.3,3.3-.4a7.13,7.13,0,0,0,1.9,4,4.79,4.79,0,0,0,3.3,1.2,5,5,0,0,0,3.9-1.6,5.35,5.35,0,0,0,1.6-4,4.82,4.82,0,0,0-1.5-3.7,5,5,0,0,0-3.8-1.5,7.39,7.39,0,0,0-2.3.4l.4-2.9h.5a7,7,0,0,0,3.8-1.1,3.84,3.84,0,0,0,1.7-3.4,4.07,4.07,0,0,0-1.2-3,4.38,4.38,0,0,0-3.2-1.2,4.54,4.54,0,0,0-3.2,1.2,5.51,5.51,0,0,0-1.6,3.6l-3.3-.6a8.44,8.44,0,0,1,2.7-5.1,7.92,7.92,0,0,1,5.3-1.8,8.72,8.72,0,0,1,4,.9,6.43,6.43,0,0,1,2.8,2.6,6.2,6.2,0,0,1,1,3.5,5.79,5.79,0,0,1-3.7,5.5,6.22,6.22,0,0,1,3.7,2.3,6.87,6.87,0,0,1,1.3,4.3,8.26,8.26,0,0,1-2.6,6,9.16,9.16,0,0,1-6.5,2.4,8.53,8.53,0,0,1-5.9-2.1A9.55,9.55,0,0,1,2804.44,231.87Z" transform="translate(-631.78 -99.26)"/><path d="M2841.19,316.42v-3.2h17.4v2.6a35.36,35.36,0,0,0-5.1,7.3,41.74,41.74,0,0,0-3.9,9.3,32.56,32.56,0,0,0-1.3,7.4h-3.4a36.37,36.37,0,0,1,1.2-7.7,40.71,40.71,0,0,1,8.1-15.7Zm25.7,8.7a5.79,5.79,0,0,1-3-2.1,5.18,5.18,0,0,1-1-3.3,6.35,6.35,0,0,1,2.1-4.9,8,8,0,0,1,5.6-2,8.42,8.42,0,0,1,5.7,2,6.72,6.72,0,0,1,2.1,5,5.58,5.58,0,0,1-1,3.3,6.24,6.24,0,0,1-3,2.1,7.44,7.44,0,0,1,3.8,2.6,6.87,6.87,0,0,1,1.3,4.3,7.85,7.85,0,0,1-2.4,5.8,9.89,9.89,0,0,1-12.8-.1,7.91,7.91,0,0,1-2.4-5.9,7.16,7.16,0,0,1,1.3-4.4,6.52,6.52,0,0,1,3.7-2.4Zm-.6-5.6a4.14,4.14,0,0,0,1.2,3.1,4.38,4.38,0,0,0,3.2,1.2,4.14,4.14,0,0,0,3.1-1.2,4,4,0,0,0,1.2-2.9,3.8,3.8,0,0,0-1.3-3,4.3,4.3,0,0,0-3.1-1.2,4.14,4.14,0,0,0-3.1,1.2A3.63,3.63,0,0,0,2866.29,319.52Zm-1.1,12.4a5.44,5.44,0,0,0,.7,2.7,4.31,4.31,0,0,0,2,2,5.55,5.55,0,0,0,2.8.7,5.14,5.14,0,0,0,5.4-5.4,5,5,0,0,0-1.6-3.9,5.76,5.76,0,0,0-4-1.6,5.44,5.44,0,0,0-3.9,1.5,6.49,6.49,0,0,0-1.4,4Zm-23.75,214.45a5.79,5.79,0,0,1-3-2.1,5.18,5.18,0,0,1-1-3.3,6.35,6.35,0,0,1,2.1-4.9,8,8,0,0,1,5.6-2,8.42,8.42,0,0,1,5.7,2,6.72,6.72,0,0,1,2.1,5,5.58,5.58,0,0,1-1,3.3,6.24,6.24,0,0,1-3,2.1,7.44,7.44,0,0,1,3.8,2.6,6.87,6.87,0,0,1,1.3,4.3,7.85,7.85,0,0,1-2.4,5.8,9.89,9.89,0,0,1-12.8-.1,7.91,7.91,0,0,1-2.4-5.9,7.16,7.16,0,0,1,1.3-4.4,6.52,6.52,0,0,1,3.7-2.4Zm-.6-5.6a4.14,4.14,0,0,0,1.2,3.1,4.38,4.38,0,0,0,3.2,1.2,4.14,4.14,0,0,0,3.1-1.2,4,4,0,0,0,1.2-2.9,3.8,3.8,0,0,0-1.3-3,4.3,4.3,0,0,0-3.1-1.2,4.14,4.14,0,0,0-3.1,1.2A3.63,3.63,0,0,0,2840.84,540.77Zm-1.1,12.4a5.44,5.44,0,0,0,.7,2.7,4.31,4.31,0,0,0,2,2,5.55,5.55,0,0,0,2.8.7,5.14,5.14,0,0,0,5.4-5.4,5,5,0,0,0-1.6-3.9,5.76,5.76,0,0,0-4-1.6,5.44,5.44,0,0,0-3.9,1.5,6.49,6.49,0,0,0-1.4,4Zm6.35,92.4a5.79,5.79,0,0,1-3-2.1,5.18,5.18,0,0,1-1-3.3,6.35,6.35,0,0,1,2.1-4.9,8,8,0,0,1,5.6-2,8.42,8.42,0,0,1,5.7,2,6.72,6.72,0,0,1,2.1,5,5.58,5.58,0,0,1-1,3.3,6.24,6.24,0,0,1-3,2.1,7.44,7.44,0,0,1,3.8,2.6,6.87,6.87,0,0,1,1.3,4.3,7.85,7.85,0,0,1-2.4,5.8,9.89,9.89,0,0,1-12.8-.1,7.91,7.91,0,0,1-2.4-5.9,7.16,7.16,0,0,1,1.3-4.4,6.52,6.52,0,0,1,3.7-2.4Zm-.6-5.6a4.14,4.14,0,0,0,1.2,3.1,4.38,4.38,0,0,0,3.2,1.2,4.14,4.14,0,0,0,3.1-1.2,4,4,0,0,0,1.2-2.9,3.8,3.8,0,0,0-1.3-3,4.3,4.3,0,0,0-3.1-1.2,4.14,4.14,0,0,0-3.1,1.2A3.63,3.63,0,0,0,2845.49,640Zm-1.1,12.4a5.44,5.44,0,0,0,.7,2.7,4.31,4.31,0,0,0,2,2,5.55,5.55,0,0,0,2.8.7,5.14,5.14,0,0,0,5.4-5.4,5,5,0,0,0-1.6-3.9,5.76,5.76,0,0,0-4-1.6,5.44,5.44,0,0,0-3.9,1.5,6.49,6.49,0,0,0-1.4,4Z" transform="translate(-631.78 -99.26)"/><path d="M2735.44,417.87v-3.2h17.4v2.6a35.36,35.36,0,0,0-5.1,7.3,41.74,41.74,0,0,0-3.9,9.3,32.56,32.56,0,0,0-1.3,7.4h-3.4a36.37,36.37,0,0,1,1.2-7.7,40.71,40.71,0,0,1,8.1-15.7Zm20.6,16.2,3.5-.3a6.47,6.47,0,0,0,1.8,3.8,5.23,5.23,0,0,0,7.4-.5,6.8,6.8,0,0,0,1.6-4.8,5.67,5.67,0,0,0-1.6-4.4,5.42,5.42,0,0,0-4.1-1.6,5.66,5.66,0,0,0-2.9.7,5.24,5.24,0,0,0-2,1.9l-3.1-.4,2.6-13.8h13.3v3.1h-10.7l-1.4,7.2a8.91,8.91,0,0,1,5.1-1.7,8.07,8.07,0,0,1,5.9,2.4,8.52,8.52,0,0,1,2.4,6.3,10,10,0,0,1-2.1,6.3,8.45,8.45,0,0,1-7,3.3,8.78,8.78,0,0,1-6-2.1,7.84,7.84,0,0,1-2.7-5.4Z" transform="translate(-631.78 -99.26)"/><path d="M667.24,323v-6.4h-11.6v-3l12.3-17.4h2.7v17.4h3.6v3h-3.6V323Zm0-9.4v-12.1l-8.4,12.1Zm22.7,9.4h-3.3V302a16.63,16.63,0,0,1-3.1,2.3A18.49,18.49,0,0,1,680,306v-3.2a20.87,20.87,0,0,0,4.8-3.1,10.21,10.21,0,0,0,2.9-3.6h2.1l.1,26.9Z" transform="translate(-631.78 -99.26)"/><path d="M769.74,434.52v-6.4h-11.6v-3l12.2-17.4H773v17.4h3.6v3H773v6.4Zm0-9.4V413l-8.4,12.1Zm20.9,9.4v-6.4H779v-3l12.3-17.4H794v17.4h3.6v3H794v6.4Zm0-9.4V413l-8.4,12.1Z" transform="translate(-631.78 -99.26)"/><path d="M1052.74,322.92v-6.4h-11.6v-3l12.3-17.4h2.7v17.4h3.6v3h-3.6v6.4Zm0-9.4v-12.1l-8.4,12.1Zm27.4-10.9-3.3.3a6.69,6.69,0,0,0-1.2-2.8,4.53,4.53,0,0,0-3.3-1.4,4.68,4.68,0,0,0-2.8.9,8.5,8.5,0,0,0-2.5,3.3,16.93,16.93,0,0,0-.9,6.2,8.24,8.24,0,0,1,2.9-2.7,7.7,7.7,0,0,1,9.2,1.5,8.87,8.87,0,0,1,2.3,6.3,10.49,10.49,0,0,1-1.1,4.7,7.42,7.42,0,0,1-3,3.3,8,8,0,0,1-4.3,1.2,8.46,8.46,0,0,1-6.7-3c-1.7-2-2.6-5.3-2.6-10,0-5.2,1-9,2.9-11.3a8.18,8.18,0,0,1,6.8-3.1,7.2,7.2,0,0,1,7.6,6.6Zm-13.5,11.6a7.84,7.84,0,0,0,.7,3.3,6.77,6.77,0,0,0,2,2.4,5.6,5.6,0,0,0,2.7.8,4.75,4.75,0,0,0,3.6-1.7,6.53,6.53,0,0,0,1.5-4.6,6.18,6.18,0,0,0-1.5-4.4,4.71,4.71,0,0,0-3.7-1.6,4.92,4.92,0,0,0-3.8,1.6A6,6,0,0,0,1066.64,314.22Z" transform="translate(-631.78 -99.26)"/><path d="M1140.74,324.22v-6.4h-11.6v-3l12.3-17.4h2.7v17.4h3.6v3h-3.6v6.4Zm0-9.4v-12.1l-8.4,12.1Zm15.4-5.1a5.79,5.79,0,0,1-3-2.1,5.18,5.18,0,0,1-1-3.3,6.35,6.35,0,0,1,2.1-4.9,8,8,0,0,1,5.6-2,8.42,8.42,0,0,1,5.7,2,6.72,6.72,0,0,1,2.1,5,5.58,5.58,0,0,1-1,3.3,6.24,6.24,0,0,1-3,2.1,7.44,7.44,0,0,1,3.8,2.6,6.87,6.87,0,0,1,1.3,4.3,7.85,7.85,0,0,1-2.4,5.8,9.89,9.89,0,0,1-12.8-.1,7.91,7.91,0,0,1-2.4-5.9,7.16,7.16,0,0,1,1.3-4.4,6.06,6.06,0,0,1,3.7-2.4Zm-.7-5.6a4.14,4.14,0,0,0,1.2,3.1,4.38,4.38,0,0,0,3.2,1.2,4.14,4.14,0,0,0,3.1-1.2,4,4,0,0,0,1.2-2.9,3.8,3.8,0,0,0-1.3-3,4.3,4.3,0,0,0-3.1-1.2,4.14,4.14,0,0,0-3.1,1.2,4,4,0,0,0-1.2,2.8Zm-1,12.4a5.44,5.44,0,0,0,.7,2.7,3.9,3.9,0,0,0,2,2,5.55,5.55,0,0,0,2.8.7,5.14,5.14,0,0,0,5.4-5.4,5,5,0,0,0-1.6-3.9,5.76,5.76,0,0,0-4-1.6,5.44,5.44,0,0,0-3.9,1.5,6.49,6.49,0,0,0-1.4,4Z" transform="translate(-631.78 -99.26)"/><path d="M1144.64,434.82v-6.4H1133v-3l12.3-17.4h2.7v17.4h3.6v3H1148v6.4Zm0-9.5v-12.1l-8.4,12.1Zm10.8,3.3,3.2-.3a5.63,5.63,0,0,0,1.5,3.2,4.1,4.1,0,0,0,2.9,1,5,5,0,0,0,2.7-.7,5.75,5.75,0,0,0,1.9-1.9,10,10,0,0,0,1.2-3.1,18.25,18.25,0,0,0,.5-4v-.7a9.58,9.58,0,0,1-2.7,2.6,6.86,6.86,0,0,1-3.7,1,7.41,7.41,0,0,1-5.6-2.4,9,9,0,0,1-2.3-6.4,9.24,9.24,0,0,1,2.4-6.6,7.85,7.85,0,0,1,6-2.5,9.23,9.23,0,0,1,4.8,1.4,8.74,8.74,0,0,1,3.3,4c.8,1.7,1.1,4.3,1.1,7.6a25.74,25.74,0,0,1-1.1,8.2,9.47,9.47,0,0,1-3.3,4.6,8.45,8.45,0,0,1-5.2,1.6,7.65,7.65,0,0,1-5.1-1.7,6.73,6.73,0,0,1-2.5-4.9Zm13.5-11.9a6.44,6.44,0,0,0-1.5-4.5,4.75,4.75,0,0,0-3.6-1.7,4.93,4.93,0,0,0-3.8,1.8,6.55,6.55,0,0,0-1.6,4.7,6,6,0,0,0,1.5,4.2,5.31,5.31,0,0,0,7.6,0,6.91,6.91,0,0,0,1.4-4.5Z" transform="translate(-631.78 -99.26)"/><path d="M1320.54,240.32l3.5-.3a6.47,6.47,0,0,0,1.8,3.8,5.23,5.23,0,0,0,7.4-.5,6.8,6.8,0,0,0,1.6-4.8,5.67,5.67,0,0,0-1.6-4.4,5.42,5.42,0,0,0-4.1-1.6,5.66,5.66,0,0,0-2.9.7,5.24,5.24,0,0,0-2,1.9l-3.1-.4,2.6-13.8H1337V224h-10.7l-1.4,7.2a8.91,8.91,0,0,1,5.1-1.7,8.07,8.07,0,0,1,5.9,2.4,8.52,8.52,0,0,1,2.4,6.3,10,10,0,0,1-2.1,6.3,8.45,8.45,0,0,1-7,3.3,8.78,8.78,0,0,1-6-2.1,7.65,7.65,0,0,1-2.7-5.4Zm20.9-6.2a23.57,23.57,0,0,1,1-7.7,9.78,9.78,0,0,1,2.9-4.5,7.78,7.78,0,0,1,4.9-1.6,7.9,7.9,0,0,1,3.8.9,7.19,7.19,0,0,1,2.7,2.5,13.39,13.39,0,0,1,1.7,4,26.82,26.82,0,0,1,.6,6.3,22.93,22.93,0,0,1-1,7.6,9.53,9.53,0,0,1-2.9,4.5,8.15,8.15,0,0,1-11-1.2c-1.9-2.1-2.7-5.8-2.7-10.8Zm3.3,0c0,4.4.5,7.3,1.5,8.8a4.38,4.38,0,0,0,7.6,0c1-1.5,1.5-4.4,1.5-8.8s-.5-7.4-1.5-8.8a4.47,4.47,0,0,0-3.9-2.2,4.13,4.13,0,0,0-3.6,1.9C1345.34,226.72,1344.74,229.72,1344.74,234.12Z" transform="translate(-631.78 -99.26)"/><path d="M1323.74,351.52l3.5-.3a6.47,6.47,0,0,0,1.8,3.8,5.23,5.23,0,0,0,7.4-.5,6.8,6.8,0,0,0,1.6-4.8,5.67,5.67,0,0,0-1.6-4.4,5.42,5.42,0,0,0-4.1-1.6,5.66,5.66,0,0,0-2.9.7,5.24,5.24,0,0,0-2,1.9l-3.1-.4,2.6-13.8h13.3v3.1h-10.7l-1.4,7.2a8.91,8.91,0,0,1,5.1-1.7,8.07,8.07,0,0,1,5.9,2.4,8.52,8.52,0,0,1,2.4,6.3,10,10,0,0,1-2.1,6.3,8.45,8.45,0,0,1-7,3.3,8.78,8.78,0,0,1-6-2.1,7.84,7.84,0,0,1-2.7-5.4Zm33.3,7.1h-3.3v-21a16.63,16.63,0,0,1-3.1,2.3,18.49,18.49,0,0,1-3.5,1.7v-3.2a20.87,20.87,0,0,0,4.8-3.1,10.21,10.21,0,0,0,2.9-3.6h2.1l.1,26.9Z" transform="translate(-631.78 -99.26)"/><path d="M817.64,1076.92l3.5-.3a6.47,6.47,0,0,0,1.8,3.8,5.23,5.23,0,0,0,7.4-.5,6.8,6.8,0,0,0,1.6-4.8,5.67,5.67,0,0,0-1.6-4.4,5.42,5.42,0,0,0-4.1-1.6,5.66,5.66,0,0,0-2.9.7,5.24,5.24,0,0,0-2,1.9l-3.1-.4,2.6-13.8h13.3v3.1h-10.7l-1.4,7.2a8.91,8.91,0,0,1,5.1-1.7,8.07,8.07,0,0,1,5.9,2.4,8.52,8.52,0,0,1,2.4,6.3,10,10,0,0,1-2.1,6.3,8.45,8.45,0,0,1-7,3.3,8.78,8.78,0,0,1-6-2.1A7.46,7.46,0,0,1,817.64,1076.92ZM849,1084v-6.4h-11.6v-3l12.3-17.4h2.7v17.4H856v3h-3.7v6.4Zm0-9.5v-12.1l-8.4,12.1Z" transform="translate(-631.78 -99.26)"/><path d="M918,967.22l3.5-.3a6.47,6.47,0,0,0,1.8,3.8,5.23,5.23,0,0,0,7.4-.5,6.8,6.8,0,0,0,1.6-4.8,5.67,5.67,0,0,0-1.6-4.4,5.42,5.42,0,0,0-4.1-1.6,5.66,5.66,0,0,0-2.9.7,5.24,5.24,0,0,0-2,1.9l-3.1-.4,2.6-13.8h13.3v3.1h-10.7l-1.4,7.2a8.91,8.91,0,0,1,5.1-1.7,8.07,8.07,0,0,1,5.9,2.4,8.52,8.52,0,0,1,2.4,6.3,10,10,0,0,1-2.1,6.3,8.45,8.45,0,0,1-7,3.3,8.78,8.78,0,0,1-6-2.1A7.46,7.46,0,0,1,918,967.22Zm20.9,0,3.5-.3a6.47,6.47,0,0,0,1.8,3.8,5.23,5.23,0,0,0,7.4-.5,6.8,6.8,0,0,0,1.6-4.8,5.67,5.67,0,0,0-1.6-4.4,5.42,5.42,0,0,0-4.1-1.6,5.66,5.66,0,0,0-2.9.7,5.24,5.24,0,0,0-2,1.9l-3.1-.4,2.6-13.8h13.3v3.1h-10.7l-1.4,7.2a8.91,8.91,0,0,1,5.1-1.7,8.07,8.07,0,0,1,5.9,2.4,8.52,8.52,0,0,1,2.4,6.3,10,10,0,0,1-2.1,6.3,8.45,8.45,0,0,1-7,3.3,8.78,8.78,0,0,1-6-2.1A7.46,7.46,0,0,1,938.94,967.22Z" transform="translate(-631.78 -99.26)"/><path d="M1250.84,961.22l3.5-.3a6.47,6.47,0,0,0,1.8,3.8,5.23,5.23,0,0,0,7.4-.5,6.8,6.8,0,0,0,1.6-4.8,5.67,5.67,0,0,0-1.6-4.4,5.42,5.42,0,0,0-4.1-1.6,5.66,5.66,0,0,0-2.9.7,5.24,5.24,0,0,0-2,1.9l-3.1-.4,2.6-13.8h13.3v3.1h-10.7l-1.4,7.2a8.91,8.91,0,0,1,5.1-1.7,8.07,8.07,0,0,1,5.9,2.4,8.52,8.52,0,0,1,2.4,6.3,10,10,0,0,1-2.1,6.3,8.45,8.45,0,0,1-7,3.3,8.78,8.78,0,0,1-6-2.1,7.46,7.46,0,0,1-2.7-5.4Zm21.3.9,3.2-.3a5.63,5.63,0,0,0,1.5,3.2,4.1,4.1,0,0,0,2.9,1,5,5,0,0,0,2.7-.7,5.75,5.75,0,0,0,1.9-1.9,10,10,0,0,0,1.2-3.1,18.25,18.25,0,0,0,.5-4v-.7a9.58,9.58,0,0,1-2.7,2.6,6.86,6.86,0,0,1-3.7,1,7.41,7.41,0,0,1-5.6-2.4,9,9,0,0,1-2.3-6.4,9.24,9.24,0,0,1,2.4-6.6,7.85,7.85,0,0,1,6-2.5,9.23,9.23,0,0,1,4.8,1.4,9.39,9.39,0,0,1,3.3,4c.8,1.7,1.1,4.3,1.1,7.6a25.74,25.74,0,0,1-1.1,8.2,9.47,9.47,0,0,1-3.3,4.6,8.45,8.45,0,0,1-5.2,1.6,7.65,7.65,0,0,1-5.1-1.7,7.51,7.51,0,0,1-2.5-4.9Zm13.5-11.9a6.44,6.44,0,0,0-1.5-4.5,4.75,4.75,0,0,0-3.6-1.7,4.93,4.93,0,0,0-3.8,1.8,6.55,6.55,0,0,0-1.6,4.7,6,6,0,0,0,1.5,4.2,5.31,5.31,0,0,0,7.6,0A6.91,6.91,0,0,0,1285.64,950.22Z" transform="translate(-631.78 -99.26)"/><path d="M1151.74,1079.62l3.5-.3a6.47,6.47,0,0,0,1.8,3.8,5.23,5.23,0,0,0,7.4-.5,6.8,6.8,0,0,0,1.6-4.8,5.67,5.67,0,0,0-1.6-4.4,5.42,5.42,0,0,0-4.1-1.6,5.66,5.66,0,0,0-2.9.7,5.24,5.24,0,0,0-2,1.9l-3.1-.4,2.6-13.8h13.3v3.1h-10.7l-1.4,7.2a8.91,8.91,0,0,1,5.1-1.7,8.07,8.07,0,0,1,5.9,2.4,8.52,8.52,0,0,1,2.4,6.3,10,10,0,0,1-2.1,6.3,8.45,8.45,0,0,1-7,3.3,8.78,8.78,0,0,1-6-2.1,7.85,7.85,0,0,1-2.7-5.4Zm25.9-7.6a5.79,5.79,0,0,1-3-2.1,5.18,5.18,0,0,1-1-3.3,6.35,6.35,0,0,1,2.1-4.9,8,8,0,0,1,5.6-2,8.42,8.42,0,0,1,5.7,2,6.72,6.72,0,0,1,2.1,5,5.58,5.58,0,0,1-1,3.3,6.24,6.24,0,0,1-3,2.1,7.44,7.44,0,0,1,3.8,2.6,6.87,6.87,0,0,1,1.3,4.3,7.85,7.85,0,0,1-2.4,5.8,9.89,9.89,0,0,1-12.8-.1,7.91,7.91,0,0,1-2.4-5.9,7.16,7.16,0,0,1,1.3-4.4,6.68,6.68,0,0,1,3.7-2.4Zm-.7-5.5a4.14,4.14,0,0,0,1.2,3.1,4.38,4.38,0,0,0,3.2,1.2,4.14,4.14,0,0,0,3.1-1.2,4,4,0,0,0,1.2-2.9,3.8,3.8,0,0,0-1.3-3,4.3,4.3,0,0,0-3.1-1.2,4.14,4.14,0,0,0-3.1,1.2A3.49,3.49,0,0,0,1176.94,1066.52Zm-1,12.4a5.44,5.44,0,0,0,.7,2.7,3.9,3.9,0,0,0,2,2,5.55,5.55,0,0,0,2.8.7,5.14,5.14,0,0,0,5.4-5.4,5,5,0,0,0-1.6-3.9,5.76,5.76,0,0,0-4-1.6,5.44,5.44,0,0,0-3.9,1.5,6.09,6.09,0,0,0-1.4,4Z" transform="translate(-631.78 -99.26)"/><path d="M1558.24,1066l-3.3.3a6.69,6.69,0,0,0-1.2-2.8,4.53,4.53,0,0,0-3.3-1.4,4.68,4.68,0,0,0-2.8.9,8.5,8.5,0,0,0-2.5,3.3,16.93,16.93,0,0,0-.9,6.2,8.24,8.24,0,0,1,2.9-2.7,7.7,7.7,0,0,1,9.2,1.5,8.87,8.87,0,0,1,2.3,6.3,10.49,10.49,0,0,1-1.1,4.7,7.42,7.42,0,0,1-3,3.3,8,8,0,0,1-4.3,1.2,8.46,8.46,0,0,1-6.7-3c-1.7-2-2.6-5.3-2.6-10,0-5.2,1-9,2.9-11.3a8.18,8.18,0,0,1,6.8-3.1,7.65,7.65,0,0,1,5.2,1.8,7.15,7.15,0,0,1,2.4,4.8Zm-13.5,11.5a7.84,7.84,0,0,0,.7,3.3,6.77,6.77,0,0,0,2,2.4,5.6,5.6,0,0,0,2.7.8,4.75,4.75,0,0,0,3.6-1.7,6.53,6.53,0,0,0,1.5-4.6,6.18,6.18,0,0,0-1.5-4.4,4.71,4.71,0,0,0-3.7-1.6,4.92,4.92,0,0,0-3.8,1.6,6,6,0,0,0-1.5,4.2Zm27.8,8.7v-6.4h-11.6v-3l12.3-17.4h2.7v17.4h3.6v3h-3.6v6.4Zm0-9.4v-12.1l-8.4,12.1Z" transform="translate(-631.78 -99.26)"/><path d="M1656.14,954.62l-3.3.3a6.69,6.69,0,0,0-1.2-2.8,4.53,4.53,0,0,0-3.3-1.4,4.68,4.68,0,0,0-2.8.9,8.5,8.5,0,0,0-2.5,3.3,16.93,16.93,0,0,0-.9,6.2,8.24,8.24,0,0,1,2.9-2.7,7.7,7.7,0,0,1,9.2,1.5,8.87,8.87,0,0,1,2.3,6.3,10.49,10.49,0,0,1-1.1,4.7,7.42,7.42,0,0,1-3,3.3,8,8,0,0,1-4.3,1.2,8.46,8.46,0,0,1-6.7-3c-1.7-2-2.6-5.3-2.6-10,0-5.2,1-9,2.9-11.3a8.18,8.18,0,0,1,6.8-3.1,7.65,7.65,0,0,1,5.2,1.8,7.38,7.38,0,0,1,2.4,4.8Zm-13.5,11.6a7.84,7.84,0,0,0,.7,3.3,6.77,6.77,0,0,0,2,2.4,5.6,5.6,0,0,0,2.7.8,4.75,4.75,0,0,0,3.6-1.7,6.53,6.53,0,0,0,1.5-4.6,6.18,6.18,0,0,0-1.5-4.4,4.71,4.71,0,0,0-3.7-1.6,4.92,4.92,0,0,0-3.8,1.6,5.68,5.68,0,0,0-1.5,4.2Zm17.2,1.6,3.5-.3a6.47,6.47,0,0,0,1.8,3.8,5.23,5.23,0,0,0,7.4-.5,6.8,6.8,0,0,0,1.6-4.8,5.67,5.67,0,0,0-1.6-4.4,5.42,5.42,0,0,0-4.1-1.6,5.66,5.66,0,0,0-2.9.7,5.24,5.24,0,0,0-2,1.9l-3.1-.4,2.6-13.8h13.3v3.1h-10.7l-1.4,7.2a8.91,8.91,0,0,1,5.1-1.7,8.07,8.07,0,0,1,5.9,2.4,8.52,8.52,0,0,1,2.4,6.3,10,10,0,0,1-2.1,6.3,8.45,8.45,0,0,1-7,3.3,8.78,8.78,0,0,1-6-2.1,7.84,7.84,0,0,1-2.7-5.4Z" transform="translate(-631.78 -99.26)"/><path d="M1631.54,461l-3.3.3a6.69,6.69,0,0,0-1.2-2.8,4.53,4.53,0,0,0-3.3-1.4,4.68,4.68,0,0,0-2.8.9,8.5,8.5,0,0,0-2.5,3.3,16.93,16.93,0,0,0-.9,6.2,8.24,8.24,0,0,1,2.9-2.7,7.7,7.7,0,0,1,9.2,1.5,8.87,8.87,0,0,1,2.3,6.3,10.49,10.49,0,0,1-1.1,4.7,7.42,7.42,0,0,1-3,3.3,8,8,0,0,1-4.3,1.2,8.46,8.46,0,0,1-6.7-3c-1.7-2-2.6-5.3-2.6-10,0-5.2,1-9,2.9-11.3a8.18,8.18,0,0,1,6.8-3.1,7.2,7.2,0,0,1,7.6,6.6Zm-13.5,11.6a7.84,7.84,0,0,0,.7,3.3,6.77,6.77,0,0,0,2,2.4,5.6,5.6,0,0,0,2.7.8,4.75,4.75,0,0,0,3.6-1.7,6.53,6.53,0,0,0,1.5-4.6,6.18,6.18,0,0,0-1.5-4.4,4.71,4.71,0,0,0-3.7-1.6,4.92,4.92,0,0,0-3.8,1.6,6,6,0,0,0-1.5,4.2Zm34.6,5.6v3.2h-17.7a5.87,5.87,0,0,1,.4-2.3,14,14,0,0,1,2.2-3.6,35.06,35.06,0,0,1,4.3-4.1,36.12,36.12,0,0,0,5.9-5.7,6.88,6.88,0,0,0,1.5-4,4.53,4.53,0,0,0-1.4-3.3,5.08,5.08,0,0,0-3.7-1.3,5.22,5.22,0,0,0-3.8,1.4,5.3,5.3,0,0,0-1.4,4l-3.4-.3a8.31,8.31,0,0,1,2.6-5.8,9,9,0,0,1,6.1-2,8.53,8.53,0,0,1,6.1,2.1,7,7,0,0,1,2.3,5.3,7.41,7.41,0,0,1-.7,3.2,13.46,13.46,0,0,1-2.2,3.3,54.18,54.18,0,0,1-5.1,4.7c-2,1.7-3.2,2.8-3.8,3.4a11,11,0,0,0-1.4,1.8Z" transform="translate(-631.78 -99.26)"/><path d="M2006.64,412.42l-3.3.3a6.69,6.69,0,0,0-1.2-2.8,4.53,4.53,0,0,0-3.3-1.4,4.68,4.68,0,0,0-2.8.9,8.5,8.5,0,0,0-2.5,3.3,16.93,16.93,0,0,0-.9,6.2,8.24,8.24,0,0,1,2.9-2.7,7.7,7.7,0,0,1,9.2,1.5,8.87,8.87,0,0,1,2.3,6.3,10.49,10.49,0,0,1-1.1,4.7,7.42,7.42,0,0,1-3,3.3,8,8,0,0,1-4.3,1.2,8.46,8.46,0,0,1-6.7-3c-1.7-2-2.6-5.3-2.6-10,0-5.2,1-9,2.9-11.3a8.18,8.18,0,0,1,6.8-3.1,7.2,7.2,0,0,1,7.6,6.6Zm-13.5,11.6a7.84,7.84,0,0,0,.7,3.3,6.77,6.77,0,0,0,2,2.4,5.6,5.6,0,0,0,2.7.8,4.75,4.75,0,0,0,3.6-1.7,6.53,6.53,0,0,0,1.5-4.6,6.18,6.18,0,0,0-1.5-4.4,4.71,4.71,0,0,0-3.7-1.6,4.92,4.92,0,0,0-3.8,1.6,6.5,6.5,0,0,0-1.5,4.2Zm17.5-14.6v-3.2H2028v2.6a35.36,35.36,0,0,0-5.1,7.3,41.74,41.74,0,0,0-3.9,9.3,32.56,32.56,0,0,0-1.3,7.4h-3.4a36.37,36.37,0,0,1,1.2-7.7,40.71,40.71,0,0,1,8.1-15.7Z" transform="translate(-631.78 -99.26)"/><path d="M2085.14,508.32v-3.2h17.4v2.6a35.36,35.36,0,0,0-5.1,7.3,41.74,41.74,0,0,0-3.9,9.3,32.56,32.56,0,0,0-1.3,7.4h-3.4a36.37,36.37,0,0,1,1.2-7.7,40.71,40.71,0,0,1,8.1-15.7Zm38,20.1v3.2h-17.8a5.87,5.87,0,0,1,.4-2.3,14,14,0,0,1,2.2-3.6,35.06,35.06,0,0,1,4.3-4.1,36.12,36.12,0,0,0,5.9-5.7,6.88,6.88,0,0,0,1.5-4,4.53,4.53,0,0,0-1.4-3.3,5.08,5.08,0,0,0-3.7-1.3,5.22,5.22,0,0,0-3.8,1.4,5.3,5.3,0,0,0-1.4,4l-3.4-.3a8.31,8.31,0,0,1,2.6-5.8,9,9,0,0,1,6.1-2,8.53,8.53,0,0,1,6.1,2.1,7,7,0,0,1,2.3,5.3,7.41,7.41,0,0,1-.7,3.2,13.46,13.46,0,0,1-2.2,3.3,54.18,54.18,0,0,1-5.1,4.7c-2,1.7-3.2,2.8-3.8,3.4a11,11,0,0,0-1.4,1.8Z" transform="translate(-631.78 -99.26)"/><path d="M2004.44,619.92l-3.3.3a6.69,6.69,0,0,0-1.2-2.8,4.53,4.53,0,0,0-3.3-1.4,4.68,4.68,0,0,0-2.8.9,8.5,8.5,0,0,0-2.5,3.3,16.93,16.93,0,0,0-.9,6.2,8.24,8.24,0,0,1,2.9-2.7,7.7,7.7,0,0,1,9.2,1.5,8.87,8.87,0,0,1,2.3,6.3,10.49,10.49,0,0,1-1.1,4.7,7.42,7.42,0,0,1-3,3.3,8,8,0,0,1-4.3,1.2,8.46,8.46,0,0,1-6.7-3c-1.7-2-2.6-5.3-2.6-10,0-5.2,1-9,2.9-11.3a8.18,8.18,0,0,1,6.8-3.1,7.65,7.65,0,0,1,5.2,1.8,6.58,6.58,0,0,1,2.4,4.8Zm-13.4,11.6a7.84,7.84,0,0,0,.7,3.3,6.77,6.77,0,0,0,2,2.4,5.6,5.6,0,0,0,2.7.8,4.75,4.75,0,0,0,3.6-1.7,6.53,6.53,0,0,0,1.5-4.6,6.18,6.18,0,0,0-1.5-4.4,4.71,4.71,0,0,0-3.7-1.6,4.92,4.92,0,0,0-3.8,1.6,6,6,0,0,0-1.5,4.2Zm17.7,2.5,3.2-.3a5.63,5.63,0,0,0,1.5,3.2,4.1,4.1,0,0,0,2.9,1,5,5,0,0,0,2.7-.7,5.75,5.75,0,0,0,1.9-1.9,10,10,0,0,0,1.2-3.1,18.25,18.25,0,0,0,.5-4v-.7a9.58,9.58,0,0,1-2.7,2.6,6.86,6.86,0,0,1-3.7,1,7.41,7.41,0,0,1-5.6-2.4,9,9,0,0,1-2.3-6.4,9.24,9.24,0,0,1,2.4-6.6,7.85,7.85,0,0,1,6-2.5,9.23,9.23,0,0,1,4.8,1.4,9.39,9.39,0,0,1,3.3,4c.8,1.7,1.1,4.3,1.1,7.6a25.74,25.74,0,0,1-1.1,8.2,9.47,9.47,0,0,1-3.3,4.6,8.45,8.45,0,0,1-5.2,1.6,7.65,7.65,0,0,1-5.1-1.7,7.51,7.51,0,0,1-2.5-4.9Zm13.5-11.9a6.44,6.44,0,0,0-1.5-4.5,4.75,4.75,0,0,0-3.6-1.7,4.93,4.93,0,0,0-3.8,1.8,6.55,6.55,0,0,0-1.6,4.7,6,6,0,0,0,1.5,4.2,5.31,5.31,0,0,0,7.6,0A6.91,6.91,0,0,0,2022.24,622.12Z" transform="translate(-631.78 -99.26)"/><path d="M2739.49,638.52v-3.2h17.4v2.6a35.36,35.36,0,0,0-5.1,7.3,41.74,41.74,0,0,0-3.9,9.3,32.56,32.56,0,0,0-1.3,7.4h-3.4a36.37,36.37,0,0,1,1.2-7.7,40.71,40.71,0,0,1,8.1-15.7Zm20.9,0v-3.2h17.4v2.6a35.36,35.36,0,0,0-5.1,7.3,41.74,41.74,0,0,0-3.9,9.3,32.56,32.56,0,0,0-1.3,7.4h-3.4a36.37,36.37,0,0,1,1.2-7.7,40.71,40.71,0,0,1,8.1-15.7Z" transform="translate(-631.78 -99.26)"/><path d="M2837.54,424.67v-3.2h17.4v2.6a35.36,35.36,0,0,0-5.1,7.3,41.74,41.74,0,0,0-3.9,9.3,32.56,32.56,0,0,0-1.3,7.4h-3.4a36.37,36.37,0,0,1,1.2-7.7,40.71,40.71,0,0,1,8.1-15.7Zm21.2,17.1,3.2-.3a5.63,5.63,0,0,0,1.5,3.2,4.1,4.1,0,0,0,2.9,1,5,5,0,0,0,2.7-.7,5.75,5.75,0,0,0,1.9-1.9,10,10,0,0,0,1.2-3.1,18.25,18.25,0,0,0,.5-4v-.7a9.58,9.58,0,0,1-2.7,2.6,6.86,6.86,0,0,1-3.7,1,7.41,7.41,0,0,1-5.6-2.4,9,9,0,0,1-2.3-6.4,9.24,9.24,0,0,1,2.4-6.6,7.85,7.85,0,0,1,6-2.5,9.23,9.23,0,0,1,4.8,1.4,9.39,9.39,0,0,1,3.3,4c.8,1.7,1.1,4.3,1.1,7.6a25.74,25.74,0,0,1-1.1,8.2,9.47,9.47,0,0,1-3.3,4.6,8.45,8.45,0,0,1-5.2,1.6,7.65,7.65,0,0,1-5.1-1.7A6.73,6.73,0,0,1,2858.74,441.77Zm13.5-11.9a6.44,6.44,0,0,0-1.5-4.5,4.75,4.75,0,0,0-3.6-1.7,4.93,4.93,0,0,0-3.8,1.8,6.55,6.55,0,0,0-1.6,4.7,6,6,0,0,0,1.5,4.2,5.31,5.31,0,0,0,7.6,0A6.91,6.91,0,0,0,2872.24,429.87Z" transform="translate(-631.78 -99.26)"/><path d="M2740,312.62v-3.2h17.4V312a35.36,35.36,0,0,0-5.1,7.3,41.74,41.74,0,0,0-3.9,9.3,32.56,32.56,0,0,0-1.3,7.4h-3.4a36.37,36.37,0,0,1,1.2-7.7,40.71,40.71,0,0,1,8.1-15.7Zm31.2,23.3v-6.4h-11.6v-3l12.2-17.4h2.7v17.4h3.6v3h-3.6v6.4Zm0-9.4v-12.1l-8.4,12.1Z" transform="translate(-631.78 -99.26)"/><g id="PDF_Text_11" data-name="PDF Text 11"><path d="M1095.54,227.22v-6.4h-11.6v-3l12.3-17.4h2.7v17.4h3.6v3h-3.6v6.4Zm0-9.5v-12.1l-8.4,12.1Zm10.3,2.4,3.5-.3a6.47,6.47,0,0,0,1.8,3.8,5.23,5.23,0,0,0,7.4-.5,6.8,6.8,0,0,0,1.6-4.8,5.67,5.67,0,0,0-1.6-4.4,5.42,5.42,0,0,0-4.1-1.6,5.66,5.66,0,0,0-2.9.7,5.24,5.24,0,0,0-2,1.9l-3.1-.4,2.6-13.8h13.3v3.1h-10.7l-1.4,7.2a8.91,8.91,0,0,1,5.1-1.7,8.07,8.07,0,0,1,5.9,2.4,8.52,8.52,0,0,1,2.4,6.3,10,10,0,0,1-2.1,6.3,8.45,8.45,0,0,1-7,3.3,8.78,8.78,0,0,1-6-2.1,7.46,7.46,0,0,1-2.7-5.4Z" transform="translate(-631.78 -99.26)"/><path d="M1052.14,435.22v-6.4h-11.6v-3l12.3-17.4h2.7v17.4h3.6v3h-3.6v6.4Zm0-9.4v-12.1l-8.4,12.1Zm10.5-13.9v-3.2H1080v2.6a35.36,35.36,0,0,0-5.1,7.3,41.74,41.74,0,0,0-3.9,9.3,32.56,32.56,0,0,0-1.3,7.4h-3.4a36.37,36.37,0,0,1,1.2-7.7,40.71,40.71,0,0,1,8.1-15.7Z" transform="translate(-631.78 -99.26)"/></g><g id="A_POSIÇÕES_TRABALHO_12" data-name="A POSIÇÕES_TRABALHO 12"><path class="cls-2" d="M2510.44,1116.12h118.1v10.7h-118.1v-10.7" transform="translate(-631.78 -99.26)"/><path class="cls-2" d="M2285.84,1116.12h-343.6v10.7h343.6v-10.7" transform="translate(-631.78 -99.26)"/><path class="cls-2" d="M2565.74,1122.42h112.7v-1.8h-112.7v1.8" transform="translate(-631.78 -99.26)"/><path class="cls-2" d="M632.14,99.62v1072h2578.2V99.62H632.14" transform="translate(-631.78 -99.26)"/></g><path d="M2858.19,547.87a23.57,23.57,0,0,1,1-7.7,10.34,10.34,0,0,1,2.9-4.5,7.78,7.78,0,0,1,4.9-1.6,7.9,7.9,0,0,1,3.8.9,7.19,7.19,0,0,1,2.7,2.5,13.39,13.39,0,0,1,1.7,4,26.82,26.82,0,0,1,.6,6.3,22.93,22.93,0,0,1-1,7.6,9.53,9.53,0,0,1-2.9,4.5,8.15,8.15,0,0,1-11-1.2C2859.09,556.57,2858.19,552.87,2858.19,547.87Zm3.4,0c0,4.4.5,7.3,1.5,8.8a4.38,4.38,0,0,0,7.6,0c1-1.5,1.5-4.4,1.5-8.8s-.5-7.4-1.5-8.8a4.47,4.47,0,0,0-3.9-2.2,4.13,4.13,0,0,0-3.6,1.9C2862.19,540.47,2861.59,543.47,2861.59,547.87Z" transform="translate(-631.78 -99.26)"/><path d="M2872.09,660h-3.3V639a16.63,16.63,0,0,1-3.1,2.3,18.49,18.49,0,0,1-3.5,1.7v-3.2a20.87,20.87,0,0,0,4.8-3.1,10.21,10.21,0,0,0,2.9-3.6h2.1l.1,26.9Z" transform="translate(-631.78 -99.26)"/></svg>