<svg xmlns="http://www.w3.org/2000/svg" viewBox="0 0 2602.2 1066.08"><defs><style>.cls-1,.cls-2,.cls-4{fill:none;stroke-linecap:round;}.cls-1,.cls-4{stroke:#989898;}.cls-1,.cls-2{stroke-linejoin:round;}.cls-1{stroke-width:0.72px;}.cls-2{stroke:#000;}.cls-2,.cls-4{stroke-width:0.03px;}.cls-3{fill:#989898;}.cls-4{stroke-miterlimit:10;}.cls-5{fill:#8c8c8b;}</style></defs><g id="Capa_1" data-name="Capa 1"><g id="A_POSIÇÕES_TRABALHO_5" data-name="A POSIÇÕES_TRABALHO 5"><path class="cls-1" d="M1907.44,65h0" transform="translate(-27.16 -19.4)"/><path class="cls-1" d="M2005.72,152V93.08h31V44.48H1907.44v48.6h31V152h67.32" transform="translate(-27.16 -19.4)"/></g><g id="PDF_EST-PIL" data-name="PDF EST-PIL"><path d="M287.44,69.56h-.12v.12l.12.12.12-.12v-.12Z" transform="translate(-27.16 -19.4)"/><path class="cls-2" d="M287.44,69.56h-.12v.12l.12.12.12-.12v-.12h-.12" transform="translate(-27.16 -19.4)"/><path d="M287.44,69.56h-.12v.12l.12.12.12-.12v-.12Z" transform="translate(-27.16 -19.4)"/><path class="cls-2" d="M287.44,69.56h-.12v.12l.12.12.12-.12v-.12h-.12" transform="translate(-27.16 -19.4)"/></g><path class="cls-1" d="M385.72,152V93.08h30.84V44.48H287.44v48.6h30.84V152h67.44" transform="translate(-27.16 -19.4)"/><path class="cls-1" d="M1196.2,152V93.08H1227V44.48H1097v48.6h30.84V152h68.4" transform="translate(-27.16 -19.4)"/><path class="cls-1" d="M27.52,25.76h117.6v-1H27.52" transform="translate(-27.16 -19.4)"/><path class="cls-1" d="M153.52,25.76H279.88v-1H153.52v1" transform="translate(-27.16 -19.4)"/><path class="cls-1" d="M289.24,25.76h125.4v-1H289.24v1" transform="translate(-27.16 -19.4)"/><path class="cls-1" d="M424,25.76H549.4v-1H424v1" transform="translate(-27.16 -19.4)"/><path class="cls-1" d="M558.76,25.76H685.12v-1H558.76v1" transform="translate(-27.16 -19.4)"/><path class="cls-1" d="M693.52,25.76H819.88v-1H693.52v1" transform="translate(-27.16 -19.4)"/><path class="cls-1" d="M829.24,25.76h125.4v-1H829.24v1" transform="translate(-27.16 -19.4)"/><path class="cls-1" d="M964,25.76h125.52v-1H964v1" transform="translate(-27.16 -19.4)"/><path class="cls-1" d="M1098.88,25.76h126.24v-1H1098.88v1" transform="translate(-27.16 -19.4)"/><path class="cls-1" d="M1233.64,25.76H1360v-1H1233.64v1" transform="translate(-27.16 -19.4)"/><path class="cls-1" d="M1369.36,25.76h125.4v-1h-125.4v1" transform="translate(-27.16 -19.4)"/><path class="cls-1" d="M1504.12,25.76h125.4v-1h-125.4v1" transform="translate(-27.16 -19.4)"/><path class="cls-1" d="M1638.88,25.76h126.36v-1H1638.88v1" transform="translate(-27.16 -19.4)"/><path class="cls-1" d="M1773.64,25.76H1900v-1H1773.64v1" transform="translate(-27.16 -19.4)"/><path class="cls-1" d="M1909.36,25.76h125.4v-1h-125.4v1" transform="translate(-27.16 -19.4)"/><path class="cls-1" d="M2044.12,25.76h125.4v-1h-125.4v1" transform="translate(-27.16 -19.4)"/><path class="cls-1" d="M2178.88,25.76h126.36v-1H2178.88v1" transform="translate(-27.16 -19.4)"/><path class="cls-1" d="M2313.64,25.76H2440v-1H2313.64v1" transform="translate(-27.16 -19.4)"/><path class="cls-1" d="M2449.36,25.76h125.4v-1h-125.4v1" transform="translate(-27.16 -19.4)"/><path class="cls-1" d="M2629,24.8h-44.88v1H2629" transform="translate(-27.16 -19.4)"/><path class="cls-1" d="M145.12,31.28h8.4V20.12h-8.4V31.28" transform="translate(-27.16 -19.4)"/><path class="cls-1" d="M279.88,31.28h9.36V20.12h-9.36V31.28" transform="translate(-27.16 -19.4)"/><path class="cls-1" d="M414.64,31.28H424V20.12h-9.36V31.28" transform="translate(-27.16 -19.4)"/><path class="cls-1" d="M549.4,31.28h9.36V20.12H549.4V31.28" transform="translate(-27.16 -19.4)"/><path class="cls-1" d="M685.12,31.28h8.4V20.12h-8.4V31.28" transform="translate(-27.16 -19.4)"/><path class="cls-1" d="M819.88,31.28h9.36V20.12h-9.36V31.28" transform="translate(-27.16 -19.4)"/><path class="cls-1" d="M954.64,31.28H964V20.12h-9.36V31.28" transform="translate(-27.16 -19.4)"/><path class="cls-1" d="M1089.52,31.28h9.36V20.12h-9.36V31.28" transform="translate(-27.16 -19.4)"/><path class="cls-1" d="M1225.12,31.28h8.52V20.12h-8.52V31.28" transform="translate(-27.16 -19.4)"/><path class="cls-1" d="M1360,31.28h9.36V20.12H1360V31.28" transform="translate(-27.16 -19.4)"/><path class="cls-1" d="M1494.76,31.28h9.36V20.12h-9.36V31.28" transform="translate(-27.16 -19.4)"/><path class="cls-1" d="M1629.52,31.28h9.36V20.12h-9.36V31.28" transform="translate(-27.16 -19.4)"/><path class="cls-1" d="M1765.24,31.28h8.4V20.12h-8.4V31.28" transform="translate(-27.16 -19.4)"/><path class="cls-1" d="M1900,31.28h9.36V20.12H1900V31.28" transform="translate(-27.16 -19.4)"/><path class="cls-1" d="M2034.76,31.28h9.36V20.12h-9.36V31.28" transform="translate(-27.16 -19.4)"/><path class="cls-1" d="M2169.52,31.28h9.36V20.12h-9.36V31.28" transform="translate(-27.16 -19.4)"/><path class="cls-1" d="M2305.24,31.28h8.4V20.12h-8.4V31.28" transform="translate(-27.16 -19.4)"/><path class="cls-1" d="M2440,31.28h9.36V20.12H2440V31.28" transform="translate(-27.16 -19.4)"/><path class="cls-1" d="M2574.76,31.28h9.36V20.12h-9.36V31.28" transform="translate(-27.16 -19.4)"/><path class="cls-1" d="M2629,31.28h-44.88" transform="translate(-27.16 -19.4)"/><path class="cls-1" d="M2584.12,20.12H2629" transform="translate(-27.16 -19.4)"/><path class="cls-1" d="M2574.76,31.28h-125.4" transform="translate(-27.16 -19.4)"/><path class="cls-1" d="M2449.36,20.12h125.4" transform="translate(-27.16 -19.4)"/><path class="cls-1" d="M2440,31.28H2313.64" transform="translate(-27.16 -19.4)"/><path class="cls-1" d="M2313.64,20.12H2440" transform="translate(-27.16 -19.4)"/><path class="cls-1" d="M2305.24,31.28H2178.88" transform="translate(-27.16 -19.4)"/><path class="cls-1" d="M2178.88,20.12h126.36" transform="translate(-27.16 -19.4)"/><path class="cls-1" d="M2169.52,31.28h-125.4" transform="translate(-27.16 -19.4)"/><path class="cls-1" d="M2044.12,20.12h125.4" transform="translate(-27.16 -19.4)"/><path class="cls-1" d="M2034.76,31.28h-125.4" transform="translate(-27.16 -19.4)"/><path class="cls-1" d="M1909.36,20.12h125.4" transform="translate(-27.16 -19.4)"/><path class="cls-1" d="M1900,31.28H1773.64" transform="translate(-27.16 -19.4)"/><path class="cls-1" d="M1773.64,20.12H1900" transform="translate(-27.16 -19.4)"/><path class="cls-1" d="M1765.24,31.28H1638.88" transform="translate(-27.16 -19.4)"/><path class="cls-1" d="M1638.88,20.12h126.36" transform="translate(-27.16 -19.4)"/><path class="cls-1" d="M1629.52,31.28h-125.4" transform="translate(-27.16 -19.4)"/><path class="cls-1" d="M1504.12,20.12h125.4" transform="translate(-27.16 -19.4)"/><path class="cls-1" d="M1494.76,31.28h-125.4" transform="translate(-27.16 -19.4)"/><path class="cls-1" d="M1369.36,20.12h125.4" transform="translate(-27.16 -19.4)"/><path class="cls-1" d="M1360,31.28H1233.64" transform="translate(-27.16 -19.4)"/><path class="cls-1" d="M1233.64,20.12H1360" transform="translate(-27.16 -19.4)"/><path class="cls-1" d="M145.12,31.28H27.52" transform="translate(-27.16 -19.4)"/><path class="cls-1" d="M27.52,20.12h117.6" transform="translate(-27.16 -19.4)"/><path class="cls-1" d="M279.88,31.28H153.52" transform="translate(-27.16 -19.4)"/><path class="cls-1" d="M153.52,20.12H279.88" transform="translate(-27.16 -19.4)"/><path class="cls-1" d="M549.4,31.28H424" transform="translate(-27.16 -19.4)"/><path class="cls-1" d="M424,20.12H549.4" transform="translate(-27.16 -19.4)"/><path class="cls-1" d="M414.64,31.28H289.24" transform="translate(-27.16 -19.4)"/><path class="cls-1" d="M289.24,20.12h125.4" transform="translate(-27.16 -19.4)"/><path class="cls-1" d="M1225.12,31.28H1098.88" transform="translate(-27.16 -19.4)"/><path class="cls-1" d="M1098.88,20.12h126.24" transform="translate(-27.16 -19.4)"/><path class="cls-1" d="M685.12,31.28H558.76" transform="translate(-27.16 -19.4)"/><path class="cls-1" d="M558.76,20.12H685.12" transform="translate(-27.16 -19.4)"/><path class="cls-1" d="M819.88,31.28H693.52" transform="translate(-27.16 -19.4)"/><path class="cls-1" d="M693.52,20.12H819.88" transform="translate(-27.16 -19.4)"/><path class="cls-1" d="M954.64,31.28H829.24" transform="translate(-27.16 -19.4)"/><path class="cls-1" d="M829.24,20.12h125.4" transform="translate(-27.16 -19.4)"/><path class="cls-1" d="M1089.52,31.28H964" transform="translate(-27.16 -19.4)"/><path class="cls-1" d="M964,20.12h125.52" transform="translate(-27.16 -19.4)"/><path class="cls-1" d="M2038.48,77.24h-1.8" transform="translate(-27.16 -19.4)"/><path class="cls-1" d="M1907.44,77.24h-1.8" transform="translate(-27.16 -19.4)"/><path class="cls-1" d="M1097,77.24H1095" transform="translate(-27.16 -19.4)"/><path class="cls-1" d="M418.36,77.24h-1.8" transform="translate(-27.16 -19.4)"/><path class="cls-1" d="M287.44,77.24h-1.92" transform="translate(-27.16 -19.4)"/><path class="cls-1" d="M418.36,154.88H285.52v-118h-2.76V157.64H421.24V36.92h-2.88v118" transform="translate(-27.16 -19.4)"/><path class="cls-1" d="M1228,154.88H1095v-118h-1.8V157.64h137.52V36.92H1228v118" transform="translate(-27.16 -19.4)"/><path class="cls-1" d="M2038.48,154.88H1905.64v-118h-2.88V157.64h138.6V36.92h-2.88v118" transform="translate(-27.16 -19.4)"/><path class="cls-1" d="M27.52,36.92H282.76" transform="translate(-27.16 -19.4)"/><path class="cls-1" d="M285.52,36.92H418.36" transform="translate(-27.16 -19.4)"/><path class="cls-1" d="M421.24,36.92H684.16" transform="translate(-27.16 -19.4)"/><path class="cls-1" d="M694.48,36.92h398.76" transform="translate(-27.16 -19.4)"/><path class="cls-1" d="M1095,36.92h133" transform="translate(-27.16 -19.4)"/><path class="cls-1" d="M1230.76,36.92h672" transform="translate(-27.16 -19.4)"/><path class="cls-1" d="M1905.64,36.92h132.84" transform="translate(-27.16 -19.4)"/><path class="cls-1" d="M2041.36,36.92H2629" transform="translate(-27.16 -19.4)"/><path class="cls-1" d="M2629,51.92H2041.36" transform="translate(-27.16 -19.4)"/><path class="cls-1" d="M2038.48,51.92h-1.8" transform="translate(-27.16 -19.4)"/><path class="cls-1" d="M1907.44,51.92h-1.8" transform="translate(-27.16 -19.4)"/><path class="cls-1" d="M1097,51.92H1095" transform="translate(-27.16 -19.4)"/><path class="cls-1" d="M1093.24,51.92H723.52" transform="translate(-27.16 -19.4)"/><path class="cls-1" d="M684.16,51.92H421.24" transform="translate(-27.16 -19.4)"/><path class="cls-1" d="M287.44,51.92h-1.92" transform="translate(-27.16 -19.4)"/><path class="cls-1" d="M282.76,51.92H27.52" transform="translate(-27.16 -19.4)"/><path class="cls-1" d="M1198,716.48h108.6" transform="translate(-27.16 -19.4)"/><path class="cls-1" d="M1230.76,157.64v1H1093.24v-1" transform="translate(-27.16 -19.4)"/><path class="cls-1" d="M421.24,157.64v1H313.6" transform="translate(-27.16 -19.4)"/><path class="cls-1" d="M303.28,158.6H282.76v-1" transform="translate(-27.16 -19.4)"/><path class="cls-1" d="M2596.24,1085.12V716.48H2489.56v10.2H2586v358.44" transform="translate(-27.16 -19.4)"/><path class="cls-1" d="M2186.32,825.92V716.48H1849.48v10.2h326.64v358.44" transform="translate(-27.16 -19.4)"/><path class="cls-1" d="M2346.4,1085.12v-.84H2186.32V995.36" transform="translate(-27.16 -19.4)"/><path class="cls-3" d="M2489.56,716.48h-3.72l3.72,10.2Zm-3.72,0,3.72,10.2h-3.72Z" transform="translate(-27.16 -19.4)"/><path class="cls-4" d="M2489.56,716.48h-3.72l3.72,10.2v-10.2m-3.72,0,3.72,10.2h-3.72v-10.2" transform="translate(-27.16 -19.4)"/><path class="cls-3" d="M2190.16,716.48h-3.84l3.84,10.2Zm-3.84,0,3.84,10.2h-3.84Z" transform="translate(-27.16 -19.4)"/><path class="cls-4" d="M2190.16,716.48h-3.84l3.84,10.2v-10.2m-3.84,0,3.84,10.2h-3.84v-10.2" transform="translate(-27.16 -19.4)"/><path class="cls-3" d="M2489.56,716.48h-3.72l3.72,10.2Zm-3.72,0,3.72,10.2h-3.72Z" transform="translate(-27.16 -19.4)"/><path class="cls-4" d="M2489.56,716.48h-3.72l3.72,10.2v-10.2m-3.72,0,3.72,10.2h-3.72v-10.2" transform="translate(-27.16 -19.4)"/><path class="cls-3" d="M2190.16,716.48h-3.84l3.84,10.2Zm-3.84,0,3.84,10.2h-3.84Z" transform="translate(-27.16 -19.4)"/><path class="cls-4" d="M2190.16,716.48h-3.84l3.84,10.2v-10.2m-3.84,0,3.84,10.2h-3.84v-10.2" transform="translate(-27.16 -19.4)"/><path class="cls-3" d="M2485.84,716.48H2190.16l295.68,1.8Zm-295.68,0,295.68,1.8H2190.16Z" transform="translate(-27.16 -19.4)"/><path class="cls-4" d="M2485.84,716.48H2190.16l295.68,1.8v-1.8m-295.68,0,295.68,1.8H2190.16v-1.8" transform="translate(-27.16 -19.4)"/><path class="cls-3" d="M2485.84,719.24H2190.16l295.68,4.68Zm-295.68,0,295.68,4.68H2190.16Z" transform="translate(-27.16 -19.4)"/><path class="cls-4" d="M2485.84,719.24H2190.16l295.68,4.68v-4.68m-295.68,0,295.68,4.68H2190.16v-4.68" transform="translate(-27.16 -19.4)"/><path class="cls-3" d="M2485.84,724.88H2190.16l295.68,1.8Zm-295.68,0,295.68,1.8H2190.16Z" transform="translate(-27.16 -19.4)"/><path class="cls-4" d="M2485.84,724.88H2190.16l295.68,1.8v-1.8m-295.68,0,295.68,1.8H2190.16v-1.8" transform="translate(-27.16 -19.4)"/><path class="cls-3" d="M2485.84,716.48H2190.16l295.68,1.8Zm-295.68,0,295.68,1.8H2190.16Z" transform="translate(-27.16 -19.4)"/><path class="cls-4" d="M2485.84,716.48H2190.16l295.68,1.8v-1.8m-295.68,0,295.68,1.8H2190.16v-1.8" transform="translate(-27.16 -19.4)"/><path class="cls-3" d="M2485.84,719.24H2190.16l295.68,4.68Zm-295.68,0,295.68,4.68H2190.16Z" transform="translate(-27.16 -19.4)"/><path class="cls-4" d="M2485.84,719.24H2190.16l295.68,4.68v-4.68m-295.68,0,295.68,4.68H2190.16v-4.68" transform="translate(-27.16 -19.4)"/><path class="cls-3" d="M2485.84,724.88H2190.16l295.68,1.8Zm-295.68,0,295.68,1.8H2190.16Z" transform="translate(-27.16 -19.4)"/><path class="cls-4" d="M2485.84,724.88H2190.16l295.68,1.8v-1.8m-295.68,0,295.68,1.8H2190.16v-1.8" transform="translate(-27.16 -19.4)"/><path class="cls-3" d="M2485.84,718.28H2190.16l295.68,1Zm-295.68,0,295.68,1H2190.16Z" transform="translate(-27.16 -19.4)"/><path class="cls-4" d="M2485.84,718.28H2190.16l295.68,1v-1m-295.68,0,295.68,1H2190.16v-1" transform="translate(-27.16 -19.4)"/><path class="cls-3" d="M2485.84,723.92H2190.16l295.68,1Zm-295.68,0,295.68,1H2190.16Z" transform="translate(-27.16 -19.4)"/><path class="cls-4" d="M2485.84,723.92H2190.16l295.68,1v-1m-295.68,0,295.68,1H2190.16v-1" transform="translate(-27.16 -19.4)"/><path class="cls-1" d="M2489.56,716.48h-3.72v10.2h3.72v-10.2" transform="translate(-27.16 -19.4)"/><path class="cls-1" d="M2485.84,716.48H2186.32v10.2h3.84v-10.2" transform="translate(-27.16 -19.4)"/><path class="cls-1" d="M2485.84,726.68H2190.16" transform="translate(-27.16 -19.4)"/><path class="cls-1" d="M2485.84,718.28H2190.16v1h295.68v-1" transform="translate(-27.16 -19.4)"/><path class="cls-1" d="M2485.84,723.92H2190.16v1h295.68v-1" transform="translate(-27.16 -19.4)"/><path class="cls-3" d="M1306.6,726.68h3.72l-3.72-10.2Zm3.72,0-3.72-10.2h3.72Z" transform="translate(-27.16 -19.4)"/><path class="cls-4" d="M1306.6,726.68h3.72l-3.72-10.2v10.2m3.72,0-3.72-10.2h3.72v10.2" transform="translate(-27.16 -19.4)"/><path class="cls-3" d="M1446,726.68Zm0,0h0Z" transform="translate(-27.16 -19.4)"/><path class="cls-4" d="M1446,726.68h0m0,0h0" transform="translate(-27.16 -19.4)"/><path class="cls-3" d="M1446,726.68v-.36a.36.36,0,1,0,.36.36.36.36,0,0,0-.36-.36Z" transform="translate(-27.16 -19.4)"/><path class="cls-1" d="M1446,726.68l1.92-10.2" transform="translate(-27.16 -19.4)"/><path class="cls-3" d="M1306.6,726.68h3.72l-3.72-10.2Zm3.72,0-3.72-10.2h3.72Z" transform="translate(-27.16 -19.4)"/><path class="cls-4" d="M1306.6,726.68h3.72l-3.72-10.2v10.2m3.72,0-3.72-10.2h3.72v10.2" transform="translate(-27.16 -19.4)"/><path class="cls-3" d="M1446,726.68h3.72l-3.72-10.2Zm3.72,0-3.72-10.2h3.72Z" transform="translate(-27.16 -19.4)"/><path class="cls-4" d="M1446,726.68h3.72l-3.72-10.2v10.2m3.72,0-3.72-10.2h3.72v10.2" transform="translate(-27.16 -19.4)"/><path class="cls-3" d="M1310.32,718.28H1446l-135.72-1.8Zm135.72,0-135.72-1.8H1446Z" transform="translate(-27.16 -19.4)"/><path class="cls-4" d="M1310.32,718.28H1446l-135.72-1.8v1.8m135.72,0-135.72-1.8H1446v1.8" transform="translate(-27.16 -19.4)"/><path class="cls-3" d="M1310.32,723.92H1446l-135.72-4.68Zm135.72,0-135.72-4.68H1446Z" transform="translate(-27.16 -19.4)"/><path class="cls-4" d="M1310.32,723.92H1446l-135.72-4.68v4.68m135.72,0-135.72-4.68H1446v4.68" transform="translate(-27.16 -19.4)"/><path class="cls-3" d="M1378.24,725.84v-.36a.36.36,0,1,0,.36.36.36.36,0,0,0-.36-.36Z" transform="translate(-27.16 -19.4)"/><path class="cls-1" d="M1378.24,725.84H1446" transform="translate(-27.16 -19.4)"/><path class="cls-3" d="M1310.32,723.92H1446l-135.72-4.68Zm135.72,0-135.72-4.68H1446Z" transform="translate(-27.16 -19.4)"/><path class="cls-4" d="M1310.32,723.92H1446l-135.72-4.68v4.68m135.72,0-135.72-4.68H1446v4.68" transform="translate(-27.16 -19.4)"/><path class="cls-3" d="M1310.32,718.28H1446l-135.72-1.8Zm135.72,0-135.72-1.8H1446Z" transform="translate(-27.16 -19.4)"/><path class="cls-4" d="M1310.32,718.28H1446l-135.72-1.8v1.8m135.72,0-135.72-1.8H1446v1.8" transform="translate(-27.16 -19.4)"/><path class="cls-3" d="M1310.32,724.88H1446l-135.72-1Zm135.72,0-135.72-1H1446Z" transform="translate(-27.16 -19.4)"/><path class="cls-4" d="M1310.32,724.88H1446l-135.72-1v1m135.72,0-135.72-1H1446v1" transform="translate(-27.16 -19.4)"/><path class="cls-3" d="M1310.32,719.24H1446l-135.72-1Zm135.72,0-135.72-1H1446Z" transform="translate(-27.16 -19.4)"/><path class="cls-4" d="M1310.32,719.24H1446l-135.72-1v1m135.72,0-135.72-1H1446v1" transform="translate(-27.16 -19.4)"/><path class="cls-1" d="M1306.6,726.68h3.72v-10.2h-3.72v10.2" transform="translate(-27.16 -19.4)"/><path class="cls-1" d="M1310.32,726.68h139.44v-10.2H1446v10.2" transform="translate(-27.16 -19.4)"/><path class="cls-1" d="M1310.32,716.48H1446" transform="translate(-27.16 -19.4)"/><path class="cls-1" d="M1310.32,724.88H1446v-1H1310.32v1" transform="translate(-27.16 -19.4)"/><path class="cls-1" d="M1310.32,719.24H1446v-1H1310.32v1" transform="translate(-27.16 -19.4)"/><path class="cls-1" d="M1242,723h107.64V720.2H1242V723" transform="translate(-27.16 -19.4)"/><path class="cls-1" d="M1923.4,1085.12v-.84H1608.88V716.48H1449.76v10.2h148.8v357.6H1198V716.48h-10.2v368.64" transform="translate(-27.16 -19.4)"/><path class="cls-1" d="M1608.88,1018.76h21.6V802.52h-21.6" transform="translate(-27.16 -19.4)"/><path class="cls-1" d="M303.28,157.64V337.4H313.6V157.64" transform="translate(-27.16 -19.4)"/><path class="cls-1" d="M713.2,207.32V335.48h10.32V207.32H713.2" transform="translate(-27.16 -19.4)"/><path class="cls-1" d="M260.2,520.76H151.72V519H260.2v1.8" transform="translate(-27.16 -19.4)"/><path class="cls-3" d="M425,514.28h-3.72l3.72,8.4Zm-3.72,0,3.72,8.4h-3.72Zm3.72,8.4h-3.72l3.72,2.76Zm-3.72,0,3.72,2.76h-3.72Z" transform="translate(-27.16 -19.4)"/><path class="cls-4" d="M425,514.28h-3.72l3.72,8.4v-8.4m-3.72,0,3.72,8.4h-3.72v-8.4m3.72,8.4h-3.72l3.72,2.76v-2.76m-3.72,0,3.72,2.76h-3.72v-2.76" transform="translate(-27.16 -19.4)"/><path class="cls-3" d="M606.52,514.28H602.8l3.72,11.16Zm-3.72,0,3.72,11.16H602.8Z" transform="translate(-27.16 -19.4)"/><path class="cls-4" d="M606.52,514.28H602.8l3.72,11.16V514.28m-3.72,0,3.72,11.16H602.8V514.28" transform="translate(-27.16 -19.4)"/><path class="cls-3" d="M425,514.28h-3.72l3.72,8.4Zm-3.72,0,3.72,8.4h-3.72Z" transform="translate(-27.16 -19.4)"/><path class="cls-4" d="M425,514.28h-3.72l3.72,8.4v-8.4m-3.72,0,3.72,8.4h-3.72v-8.4" transform="translate(-27.16 -19.4)"/><path class="cls-3" d="M606.52,514.28H602.8l3.72,11.16Zm-3.72,0,3.72,11.16H602.8Z" transform="translate(-27.16 -19.4)"/><path class="cls-4" d="M606.52,514.28H602.8l3.72,11.16V514.28m-3.72,0,3.72,11.16H602.8V514.28" transform="translate(-27.16 -19.4)"/><path class="cls-3" d="M425,522.68h-3.72l3.72,2.76Zm-3.72,0,3.72,2.76h-3.72Z" transform="translate(-27.16 -19.4)"/><path class="cls-4" d="M425,522.68h-3.72l3.72,2.76v-2.76m-3.72,0,3.72,2.76h-3.72v-2.76" transform="translate(-27.16 -19.4)"/><path class="cls-3" d="M602.8,514.28H425l177.84,1.8Zm-177.84,0,177.84,1.8H425Z" transform="translate(-27.16 -19.4)"/><path class="cls-4" d="M602.8,514.28H425l177.84,1.8v-1.8m-177.84,0,177.84,1.8H425v-1.8" transform="translate(-27.16 -19.4)"/><path class="cls-3" d="M602.8,517H425l177.84,4.68ZM425,517l177.84,4.68H425Z" transform="translate(-27.16 -19.4)"/><path class="cls-4" d="M602.8,517H425l177.84,4.68V517M425,517l177.84,4.68H425V517" transform="translate(-27.16 -19.4)"/><path class="cls-3" d="M602.8,522.68H425l177.84,2.76Zm-177.84,0,177.84,2.76H425Z" transform="translate(-27.16 -19.4)"/><path class="cls-4" d="M602.8,522.68H425l177.84,2.76v-2.76m-177.84,0,177.84,2.76H425v-2.76" transform="translate(-27.16 -19.4)"/><path class="cls-3" d="M602.8,514.28H425l177.84,1.8Zm-177.84,0,177.84,1.8H425Z" transform="translate(-27.16 -19.4)"/><path class="cls-4" d="M602.8,514.28H425l177.84,1.8v-1.8m-177.84,0,177.84,1.8H425v-1.8" transform="translate(-27.16 -19.4)"/><path class="cls-3" d="M602.8,517H425l177.84,4.68ZM425,517l177.84,4.68H425Z" transform="translate(-27.16 -19.4)"/><path class="cls-4" d="M602.8,517H425l177.84,4.68V517M425,517l177.84,4.68H425V517" transform="translate(-27.16 -19.4)"/><path class="cls-1" d="M513.88,521.72v3.72" transform="translate(-27.16 -19.4)"/><path class="cls-3" d="M602.8,516.08H425l177.84,1Zm-177.84,0,177.84,1H425Z" transform="translate(-27.16 -19.4)"/><path class="cls-4" d="M602.8,516.08H425l177.84,1v-1m-177.84,0,177.84,1H425v-1" transform="translate(-27.16 -19.4)"/><path class="cls-1" d="M421.24,525.44H425V514.28h-3.72v11.16" transform="translate(-27.16 -19.4)"/><path class="cls-1" d="M602.8,525.44h3.72V514.28H602.8v11.16" transform="translate(-27.16 -19.4)"/><path class="cls-1" d="M425,514.28H602.8" transform="translate(-27.16 -19.4)"/><path class="cls-1" d="M602.8,525.44H425" transform="translate(-27.16 -19.4)"/><path class="cls-1" d="M425,522.68H602.8v-1H425v1" transform="translate(-27.16 -19.4)"/><path class="cls-1" d="M425,517H602.8v-1H425v1" transform="translate(-27.16 -19.4)"/><path class="cls-1" d="M27.52,36.92H149.8V31.28H284.56" transform="translate(-27.16 -19.4)"/><path class="cls-1" d="M149.8,36.92H284.56V31.28H149.8v5.64" transform="translate(-27.16 -19.4)"/><path class="cls-1" d="M419.32,36.92H554.08V31.28H419.32v5.64" transform="translate(-27.16 -19.4)"/><path class="cls-1" d="M684.16,31.28H419.32" transform="translate(-27.16 -19.4)"/><path class="cls-1" d="M554.08,36.92H689.8V31.28H554.08v5.64" transform="translate(-27.16 -19.4)"/><path class="cls-1" d="M689.8,36.92H824.56V31.28H689.8v5.64" transform="translate(-27.16 -19.4)"/><path class="cls-1" d="M694.48,31.28H1094.2" transform="translate(-27.16 -19.4)"/><path class="cls-1" d="M824.56,36.92H959.32V31.28H824.56v5.64" transform="translate(-27.16 -19.4)"/><path class="cls-1" d="M959.32,36.92H1094.2V31.28H959.32v5.64" transform="translate(-27.16 -19.4)"/><path class="cls-1" d="M1229.8,36.92h134.88V31.28H1229.8v5.64" transform="translate(-27.16 -19.4)"/><path class="cls-1" d="M1904.68,31.28H1229.8" transform="translate(-27.16 -19.4)"/><path class="cls-1" d="M1364.68,36.92h134.76V31.28H1364.68v5.64" transform="translate(-27.16 -19.4)"/><path class="cls-1" d="M1499.44,36.92H1634.2V31.28H1499.44v5.64" transform="translate(-27.16 -19.4)"/><path class="cls-1" d="M1634.2,36.92h135.72V31.28H1634.2v5.64" transform="translate(-27.16 -19.4)"/><path class="cls-1" d="M1769.92,36.92h134.76V31.28H1769.92v5.64" transform="translate(-27.16 -19.4)"/><path class="cls-1" d="M2039.44,36.92H2174.2V31.28H2039.44v5.64" transform="translate(-27.16 -19.4)"/><path class="cls-1" d="M2629,31.28H2039.44" transform="translate(-27.16 -19.4)"/><path class="cls-1" d="M2174.2,36.92h135.72V31.28H2174.2v5.64" transform="translate(-27.16 -19.4)"/><path class="cls-1" d="M2309.92,36.92h134.76V31.28H2309.92v5.64" transform="translate(-27.16 -19.4)"/><path class="cls-1" d="M2444.68,36.92h134.76V31.28H2444.68v5.64" transform="translate(-27.16 -19.4)"/><path class="cls-1" d="M2629,31.28h-49.56v5.64H2629" transform="translate(-27.16 -19.4)"/><path class="cls-1" d="M684.16,36.92V62.24h39.36V51.92h-29v-15" transform="translate(-27.16 -19.4)"/><path class="cls-1" d="M694.48,31.28H684.16" transform="translate(-27.16 -19.4)"/><path class="cls-3" d="M713.2,62.24V66l10.32-3.72Zm0,3.72,10.32-3.72V66Zm10.32-3.72v0Z" transform="translate(-27.16 -19.4)"/><path class="cls-4" d="M713.2,62.24V66l10.32-3.72H713.2m0,3.72,10.32-3.72V66H713.2m10.32-3.72v0" transform="translate(-27.16 -19.4)"/><path class="cls-1" d="M723.52,62.24v0" transform="translate(-27.16 -19.4)"/><path class="cls-3" d="M713.2,203.48h0v0Zm0,0v3.84h0Z" transform="translate(-27.16 -19.4)"/><path class="cls-4" d="M713.2,203.48h0v0m0,0v3.84h0v-3.84" transform="translate(-27.16 -19.4)"/><path class="cls-3" d="M713.2,203.48v-.36a.36.36,0,1,0,.36.36.36.36,0,0,0-.36-.36Z" transform="translate(-27.16 -19.4)"/><path class="cls-1" d="M713.2,203.48l10.32,1.92" transform="translate(-27.16 -19.4)"/><path class="cls-3" d="M713.2,62.24V66l10.32-3.72Zm0,3.72,10.32-3.72V66Zm10.32-3.72v0Z" transform="translate(-27.16 -19.4)"/><path class="cls-4" d="M713.2,62.24V66l10.32-3.72H713.2m0,3.72,10.32-3.72V66H713.2m10.32-3.72v0" transform="translate(-27.16 -19.4)"/><path class="cls-1" d="M723.52,62.24v0" transform="translate(-27.16 -19.4)"/><path class="cls-3" d="M713.2,203.48v3.84l10.32-3.84Zm0,3.84,10.32-3.84v3.84Z" transform="translate(-27.16 -19.4)"/><path class="cls-4" d="M713.2,203.48v3.84l10.32-3.84H713.2m0,3.84,10.32-3.84v3.84H713.2" transform="translate(-27.16 -19.4)"/><path class="cls-3" d="M721.6,66V203.48L723.52,66Zm0,137.52L723.52,66V203.48Z" transform="translate(-27.16 -19.4)"/><path class="cls-4" d="M721.6,66V203.48L723.52,66H721.6m0,137.52L723.52,66V203.48H721.6" transform="translate(-27.16 -19.4)"/><path class="cls-3" d="M716.08,66V203.48L720.76,66Zm0,137.52L720.76,66V203.48Z" transform="translate(-27.16 -19.4)"/><path class="cls-4" d="M716.08,66V203.48L720.76,66h-4.68m0,137.52L720.76,66V203.48h-4.68" transform="translate(-27.16 -19.4)"/><path class="cls-3" d="M713.2,66h0v0Zm0,0v61.8h0Z" transform="translate(-27.16 -19.4)"/><path class="cls-4" d="M713.2,66h0v0m0,0v61.8h0V66" transform="translate(-27.16 -19.4)"/><path class="cls-3" d="M713.2,66V203.48L715.12,66Zm0,137.52L715.12,66V203.48Z" transform="translate(-27.16 -19.4)"/><path class="cls-4" d="M713.2,66V203.48L715.12,66H713.2m0,137.52L715.12,66V203.48H713.2" transform="translate(-27.16 -19.4)"/><path class="cls-3" d="M713.2,66h0v0Zm0,0v61.8h0Z" transform="translate(-27.16 -19.4)"/><path class="cls-4" d="M713.2,66h0v0m0,0v61.8h0V66" transform="translate(-27.16 -19.4)"/><path class="cls-3" d="M713.2,66V203.48L715.12,66Zm0,137.52L715.12,66V203.48Z" transform="translate(-27.16 -19.4)"/><path class="cls-4" d="M713.2,66V203.48L715.12,66H713.2m0,137.52L715.12,66V203.48H713.2" transform="translate(-27.16 -19.4)"/><path class="cls-3" d="M716.08,66V203.48L720.76,66Zm0,137.52L720.76,66V203.48Z" transform="translate(-27.16 -19.4)"/><path class="cls-4" d="M716.08,66V203.48L720.76,66h-4.68m0,137.52L720.76,66V203.48h-4.68" transform="translate(-27.16 -19.4)"/><path class="cls-1" d="M720.76,134.72h2.76" transform="translate(-27.16 -19.4)"/><path class="cls-3" d="M715.12,66V203.48l1-137.52Zm0,137.52,1-137.52V203.48Z" transform="translate(-27.16 -19.4)"/><path class="cls-4" d="M715.12,66V203.48l1-137.52h-1m0,137.52,1-137.52V203.48h-1" transform="translate(-27.16 -19.4)"/><path class="cls-1" d="M723.52,207.32v-3.84H713.2v3.84h10.32" transform="translate(-27.16 -19.4)"/><path class="cls-1" d="M723.52,66V62.24H713.2V66h10.32" transform="translate(-27.16 -19.4)"/><path class="cls-1" d="M713.2,127.76V66" transform="translate(-27.16 -19.4)"/><path class="cls-1" d="M723.52,66V203.48" transform="translate(-27.16 -19.4)"/><path class="cls-1" d="M721.6,203.48V66h-.84V203.48h.84" transform="translate(-27.16 -19.4)"/><path class="cls-1" d="M716.08,203.48V66h-1V203.48h1" transform="translate(-27.16 -19.4)"/><path class="cls-1" d="M606.52,524.6h117V514.28h-117V524.6" transform="translate(-27.16 -19.4)"/><path class="cls-3" d="M713.2,335.48h0v0Zm0,0v3.72h0Z" transform="translate(-27.16 -19.4)"/><path class="cls-4" d="M713.2,335.48h0v0m0,0v3.72h0v-3.72" transform="translate(-27.16 -19.4)"/><path class="cls-3" d="M713.2,335.48v3.72l10.32-3.72Zm0,3.72,10.32-3.72v3.72Z" transform="translate(-27.16 -19.4)"/><path class="cls-4" d="M713.2,335.48v3.72l10.32-3.72H713.2m0,3.72,10.32-3.72v3.72H713.2" transform="translate(-27.16 -19.4)"/><path class="cls-3" d="M713.2,510.56h0v0Zm0,0v3.72h0Z" transform="translate(-27.16 -19.4)"/><path class="cls-4" d="M713.2,510.56h0v0m0,0v3.72h0v-3.72" transform="translate(-27.16 -19.4)"/><path class="cls-3" d="M713.2,510.56v3.72l10.32-3.72Zm0,3.72,10.32-3.72v3.72Z" transform="translate(-27.16 -19.4)"/><path class="cls-4" d="M713.2,510.56v3.72l10.32-3.72H713.2m0,3.72,10.32-3.72v3.72H713.2" transform="translate(-27.16 -19.4)"/><path class="cls-3" d="M713.2,335.48h0v0Zm0,0v3.72h0Z" transform="translate(-27.16 -19.4)"/><path class="cls-4" d="M713.2,335.48h0v0m0,0v3.72h0v-3.72" transform="translate(-27.16 -19.4)"/><path class="cls-3" d="M713.2,510.56h0v0Zm0,0v3.72h0Z" transform="translate(-27.16 -19.4)"/><path class="cls-4" d="M713.2,510.56h0v0m0,0v3.72h0v-3.72" transform="translate(-27.16 -19.4)"/><path class="cls-3" d="M713.2,335.48v3.72l10.32-3.72Zm0,3.72,10.32-3.72v3.72Z" transform="translate(-27.16 -19.4)"/><path class="cls-4" d="M713.2,335.48v3.72l10.32-3.72H713.2m0,3.72,10.32-3.72v3.72H713.2" transform="translate(-27.16 -19.4)"/><path class="cls-3" d="M713.2,510.56v3.72l10.32-3.72Zm0,3.72,10.32-3.72v3.72Z" transform="translate(-27.16 -19.4)"/><path class="cls-4" d="M713.2,510.56v3.72l10.32-3.72H713.2m0,3.72,10.32-3.72v3.72H713.2" transform="translate(-27.16 -19.4)"/><path class="cls-3" d="M721.6,339.2V510.56l1.92-171.36Zm0,171.36,1.92-171.36V510.56Z" transform="translate(-27.16 -19.4)"/><path class="cls-4" d="M721.6,339.2V510.56l1.92-171.36H721.6m0,171.36,1.92-171.36V510.56H721.6" transform="translate(-27.16 -19.4)"/><path class="cls-3" d="M716.08,339.2V510.56l4.68-171.36Zm0,171.36,4.68-171.36V510.56Z" transform="translate(-27.16 -19.4)"/><path class="cls-4" d="M716.08,339.2V510.56l4.68-171.36h-4.68m0,171.36,4.68-171.36V510.56h-4.68" transform="translate(-27.16 -19.4)"/><path class="cls-3" d="M714.16,424.88v-.36a.36.36,0,1,0,.36.36.36.36,0,0,0-.36-.36Z" transform="translate(-27.16 -19.4)"/><path class="cls-1" d="M714.16,424.88v85.68" transform="translate(-27.16 -19.4)"/><path class="cls-3" d="M716.08,339.2V510.56l4.68-171.36Zm0,171.36,4.68-171.36V510.56Z" transform="translate(-27.16 -19.4)"/><path class="cls-4" d="M716.08,339.2V510.56l4.68-171.36h-4.68m0,171.36,4.68-171.36V510.56h-4.68" transform="translate(-27.16 -19.4)"/><path class="cls-1" d="M720.76,424.88h2.76" transform="translate(-27.16 -19.4)"/><path class="cls-3" d="M715.12,339.2V510.56l1-171.36Zm0,171.36,1-171.36V510.56Z" transform="translate(-27.16 -19.4)"/><path class="cls-4" d="M715.12,339.2V510.56l1-171.36h-1m0,171.36,1-171.36V510.56h-1" transform="translate(-27.16 -19.4)"/><path class="cls-1" d="M723.52,514.28v-3.72H713.2v3.72h10.32" transform="translate(-27.16 -19.4)"/><path class="cls-1" d="M723.52,510.56V335.48H713.2v3.72h10.32" transform="translate(-27.16 -19.4)"/><path class="cls-1" d="M721.6,510.56V339.2h-.84V510.56h.84" transform="translate(-27.16 -19.4)"/><path class="cls-1" d="M716.08,510.56V339.2h-1V510.56h1" transform="translate(-27.16 -19.4)"/><path class="cls-1" d="M356.68,520.76H464.32V519H356.68v1.8" transform="translate(-27.16 -19.4)"/><path class="cls-3" d="M194.68,514.28H191l3.72,8.4Zm-3.72,0,3.72,8.4H191Zm3.72,8.4H191l3.72,2.76Zm-3.72,0,3.72,2.76H191Z" transform="translate(-27.16 -19.4)"/><path class="cls-4" d="M194.68,514.28H191l3.72,8.4v-8.4m-3.72,0,3.72,8.4H191v-8.4m3.72,8.4H191l3.72,2.76v-2.76m-3.72,0,3.72,2.76H191v-2.76" transform="translate(-27.16 -19.4)"/><path class="cls-3" d="M47.8,514.28H44.08l3.72,11.16Zm-3.72,0,3.72,11.16H44.08Z" transform="translate(-27.16 -19.4)"/><path class="cls-4" d="M47.8,514.28H44.08l3.72,11.16V514.28m-3.72,0,3.72,11.16H44.08V514.28" transform="translate(-27.16 -19.4)"/><path class="cls-3" d="M194.68,514.28H191l3.72,8.4Zm-3.72,0,3.72,8.4H191Zm3.72,8.4H191l3.72,2.76Zm-3.72,0,3.72,2.76H191Z" transform="translate(-27.16 -19.4)"/><path class="cls-4" d="M194.68,514.28H191l3.72,8.4v-8.4m-3.72,0,3.72,8.4H191v-8.4m3.72,8.4H191l3.72,2.76v-2.76m-3.72,0,3.72,2.76H191v-2.76" transform="translate(-27.16 -19.4)"/><path class="cls-3" d="M47.8,514.28H44.08l3.72,11.16Zm-3.72,0,3.72,11.16H44.08Z" transform="translate(-27.16 -19.4)"/><path class="cls-4" d="M47.8,514.28H44.08l3.72,11.16V514.28m-3.72,0,3.72,11.16H44.08V514.28" transform="translate(-27.16 -19.4)"/><path class="cls-3" d="M191,514.28H47.8L191,516.08Zm-143.16,0L191,516.08H47.8Z" transform="translate(-27.16 -19.4)"/><path class="cls-4" d="M191,514.28H47.8L191,516.08v-1.8m-143.16,0L191,516.08H47.8v-1.8" transform="translate(-27.16 -19.4)"/><path class="cls-3" d="M191,517H47.8L191,521.72ZM47.8,517,191,521.72H47.8Z" transform="translate(-27.16 -19.4)"/><path class="cls-4" d="M191,517H47.8L191,521.72V517M47.8,517,191,521.72H47.8V517" transform="translate(-27.16 -19.4)"/><path class="cls-3" d="M191,522.68H47.8L191,525.44Zm-143.16,0L191,525.44H47.8Z" transform="translate(-27.16 -19.4)"/><path class="cls-4" d="M191,522.68H47.8L191,525.44v-2.76m-143.16,0L191,525.44H47.8v-2.76" transform="translate(-27.16 -19.4)"/><path class="cls-3" d="M191,514.28H47.8L191,516.08Zm-143.16,0L191,516.08H47.8Z" transform="translate(-27.16 -19.4)"/><path class="cls-4" d="M191,514.28H47.8L191,516.08v-1.8m-143.16,0L191,516.08H47.8v-1.8" transform="translate(-27.16 -19.4)"/><path class="cls-3" d="M191,517H47.8L191,521.72ZM47.8,517,191,521.72H47.8Z" transform="translate(-27.16 -19.4)"/><path class="cls-4" d="M191,517H47.8L191,521.72V517M47.8,517,191,521.72H47.8V517" transform="translate(-27.16 -19.4)"/><path class="cls-1" d="M119.44,521.72v3.72" transform="translate(-27.16 -19.4)"/><path class="cls-3" d="M191,516.08H47.8L191,517Zm-143.16,0L191,517H47.8Z" transform="translate(-27.16 -19.4)"/><path class="cls-4" d="M191,516.08H47.8L191,517v-1m-143.16,0L191,517H47.8v-1" transform="translate(-27.16 -19.4)"/><path class="cls-1" d="M44.08,525.44H47.8V514.28H44.08v11.16" transform="translate(-27.16 -19.4)"/><path class="cls-1" d="M191,525.44h3.72V514.28H191v11.16" transform="translate(-27.16 -19.4)"/><path class="cls-1" d="M47.8,514.28H191" transform="translate(-27.16 -19.4)"/><path class="cls-1" d="M191,525.44H47.8" transform="translate(-27.16 -19.4)"/><path class="cls-1" d="M47.8,522.68H191v-1H47.8v1" transform="translate(-27.16 -19.4)"/><path class="cls-1" d="M47.8,517H191v-1H47.8v1" transform="translate(-27.16 -19.4)"/><path class="cls-3" d="M302.32,507.68v3.72l11.28-3.72Zm0,3.72,11.28-3.72v3.72Z" transform="translate(-27.16 -19.4)"/><path class="cls-4" d="M302.32,507.68v3.72l11.28-3.72H302.32m0,3.72,11.28-3.72v3.72H302.32" transform="translate(-27.16 -19.4)"/><path class="cls-3" d="M302.32,516.08v3.84l11.28-3.84Zm0,3.84,11.28-3.84v3.84Z" transform="translate(-27.16 -19.4)"/><path class="cls-4" d="M302.32,516.08v3.84l11.28-3.84H302.32m0,3.84,11.28-3.84v3.84H302.32" transform="translate(-27.16 -19.4)"/><path class="cls-3" d="M302.32,507.68v3.72l11.28-3.72Zm0,3.72,11.28-3.72v3.72Z" transform="translate(-27.16 -19.4)"/><path class="cls-4" d="M302.32,507.68v3.72l11.28-3.72H302.32m0,3.72,11.28-3.72v3.72H302.32" transform="translate(-27.16 -19.4)"/><path class="cls-3" d="M302.32,516.08v3.84l11.28-3.84Zm0,3.84,11.28-3.84v3.84Z" transform="translate(-27.16 -19.4)"/><path class="cls-4" d="M302.32,516.08v3.84l11.28-3.84H302.32m0,3.84,11.28-3.84v3.84H302.32" transform="translate(-27.16 -19.4)"/><path class="cls-3" d="M311.68,511.4v4.68l1.92-4.68Zm0,4.68,1.92-4.68v4.68Z" transform="translate(-27.16 -19.4)"/><path class="cls-4" d="M311.68,511.4v4.68l1.92-4.68h-1.92m0,4.68,1.92-4.68v4.68h-1.92" transform="translate(-27.16 -19.4)"/><path class="cls-1" d="M302.32,513.8H313.6" transform="translate(-27.16 -19.4)"/><path class="cls-3" d="M302.32,511.4v4.68l2.88-4.68Zm0,4.68,2.88-4.68v4.68Zm2.88-4.68v4.68l5.64-4.68Zm0,4.68,5.64-4.68v4.68Z" transform="translate(-27.16 -19.4)"/><path class="cls-4" d="M302.32,511.4v4.68l2.88-4.68h-2.88m0,4.68,2.88-4.68v4.68h-2.88m2.88-4.68v4.68l5.64-4.68H305.2m0,4.68,5.64-4.68v4.68H305.2" transform="translate(-27.16 -19.4)"/><path class="cls-3" d="M305.2,511.4h0v0Zm0,0v4.68h0Z" transform="translate(-27.16 -19.4)"/><path class="cls-4" d="M305.2,511.4h0v0m0,0v4.68h0V511.4" transform="translate(-27.16 -19.4)"/><path class="cls-1" d="M313.6,519.92v-3.84H302.32v3.84H313.6" transform="translate(-27.16 -19.4)"/><path class="cls-1" d="M313.6,511.4v-3.72H302.32v3.72H313.6" transform="translate(-27.16 -19.4)"/><path class="cls-1" d="M302.32,516.08V511.4" transform="translate(-27.16 -19.4)"/><path class="cls-1" d="M313.6,511.4v4.68" transform="translate(-27.16 -19.4)"/><path class="cls-1" d="M311.68,516.08V511.4h-.84v4.68h.84" transform="translate(-27.16 -19.4)"/><path class="cls-1" d="M305.2,516.08v0" transform="translate(-27.16 -19.4)"/><path class="cls-3" d="M305.2,511.4V511a.36.36,0,1,0,.36.36.36.36,0,0,0-.36-.36Z" transform="translate(-27.16 -19.4)"/><path class="cls-3" d="M305.2,516.08v-.36a.36.36,0,1,0,.36.36.36.36,0,0,0-.36-.36Z" transform="translate(-27.16 -19.4)"/><path class="cls-3" d="M302.32,337.4v3.72l1-3.72Zm0,3.72,1-3.72v3.72Zm1-3.72v3.72l1.92-3.72Zm0,3.72,1.92-3.72v3.72Zm1.92-3.72v3.72l8.4-3.72Zm0,3.72,8.4-3.72v3.72Z" transform="translate(-27.16 -19.4)"/><path class="cls-4" d="M302.32,337.4v3.72l1-3.72h-1m0,3.72,1-3.72v3.72h-1m1-3.72v3.72l1.92-3.72h-1.92m0,3.72,1.92-3.72v3.72h-1.92m1.92-3.72v3.72l8.4-3.72h-8.4m0,3.72,8.4-3.72v3.72h-8.4" transform="translate(-27.16 -19.4)"/><path class="cls-3" d="M302.32,504v3.72L305.2,504Zm0,3.72L305.2,504v3.72ZM305.2,504v0Z" transform="translate(-27.16 -19.4)"/><path class="cls-4" d="M302.32,504v3.72L305.2,504h-2.88m0,3.72L305.2,504v3.72h-2.88M305.2,504v0" transform="translate(-27.16 -19.4)"/><path class="cls-1" d="M305.2,504v0" transform="translate(-27.16 -19.4)"/><path class="cls-3" d="M305.2,504v3.72l8.4-3.72Zm0,3.72,8.4-3.72v3.72Z" transform="translate(-27.16 -19.4)"/><path class="cls-4" d="M305.2,504v3.72l8.4-3.72h-8.4m0,3.72,8.4-3.72v3.72h-8.4" transform="translate(-27.16 -19.4)"/><path class="cls-3" d="M302.32,337.4v3.72l1-3.72Zm0,3.72,1-3.72v3.72Zm1-3.72v3.72l1.92-3.72Zm0,3.72,1.92-3.72v3.72Z" transform="translate(-27.16 -19.4)"/><path class="cls-4" d="M302.32,337.4v3.72l1-3.72h-1m0,3.72,1-3.72v3.72h-1m1-3.72v3.72l1.92-3.72h-1.92m0,3.72,1.92-3.72v3.72h-1.92" transform="translate(-27.16 -19.4)"/><path class="cls-3" d="M302.32,504v3.72L305.2,504Zm0,3.72L305.2,504v3.72ZM305.2,504v0Z" transform="translate(-27.16 -19.4)"/><path class="cls-4" d="M302.32,504v3.72L305.2,504h-2.88m0,3.72L305.2,504v3.72h-2.88M305.2,504v0" transform="translate(-27.16 -19.4)"/><path class="cls-1" d="M305.2,504v0" transform="translate(-27.16 -19.4)"/><path class="cls-3" d="M305.2,337.4v3.72l8.4-3.72Zm0,3.72,8.4-3.72v3.72Z" transform="translate(-27.16 -19.4)"/><path class="cls-4" d="M305.2,337.4v3.72l8.4-3.72h-8.4m0,3.72,8.4-3.72v3.72h-8.4" transform="translate(-27.16 -19.4)"/><path class="cls-3" d="M305.2,504v3.72l8.4-3.72Zm0,3.72,8.4-3.72v3.72Z" transform="translate(-27.16 -19.4)"/><path class="cls-4" d="M305.2,504v3.72l8.4-3.72h-8.4m0,3.72,8.4-3.72v3.72h-8.4" transform="translate(-27.16 -19.4)"/><path class="cls-3" d="M305.2,341.12V504l5.64-162.84Zm0,162.84,5.64-162.84V504Z" transform="translate(-27.16 -19.4)"/><path class="cls-4" d="M305.2,341.12V504l5.64-162.84H305.2m0,162.84,5.64-162.84V504H305.2" transform="translate(-27.16 -19.4)"/><path class="cls-3" d="M311.68,341.12V504l1.92-162.84Zm0,162.84,1.92-162.84V504Z" transform="translate(-27.16 -19.4)"/><path class="cls-4" d="M311.68,341.12V504l1.92-162.84h-1.92m0,162.84,1.92-162.84V504h-1.92" transform="translate(-27.16 -19.4)"/><path class="cls-3" d="M303.76,422.6v-.36a.36.36,0,1,0,.36.36.36.36,0,0,0-.36-.36Z" transform="translate(-27.16 -19.4)"/><path class="cls-1" d="M303.76,422.6V504" transform="translate(-27.16 -19.4)"/><path class="cls-3" d="M305.2,341.12V504l5.64-162.84Zm0,162.84,5.64-162.84V504Z" transform="translate(-27.16 -19.4)"/><path class="cls-4" d="M305.2,341.12V504l5.64-162.84H305.2m0,162.84,5.64-162.84V504H305.2" transform="translate(-27.16 -19.4)"/><path class="cls-1" d="M310.84,422.6h2.76" transform="translate(-27.16 -19.4)"/><path class="cls-3" d="M305.2,341.12h0v0Zm0,0V504h0Z" transform="translate(-27.16 -19.4)"/><path class="cls-4" d="M305.2,341.12h0v0m0,0V504h0V341.12" transform="translate(-27.16 -19.4)"/><path class="cls-1" d="M313.6,507.68V504H302.32v3.72H313.6" transform="translate(-27.16 -19.4)"/><path class="cls-1" d="M313.6,341.12V337.4H302.32v3.72H313.6" transform="translate(-27.16 -19.4)"/><path class="cls-1" d="M302.32,504V341.12" transform="translate(-27.16 -19.4)"/><path class="cls-1" d="M313.6,341.12V504" transform="translate(-27.16 -19.4)"/><path class="cls-1" d="M311.68,504V341.12h-.84V504h.84" transform="translate(-27.16 -19.4)"/><path class="cls-1" d="M305.2,504v0" transform="translate(-27.16 -19.4)"/><path class="cls-3" d="M305.2,341.12v-.36a.36.36,0,1,0,.36.36.36.36,0,0,0-.36-.36Z" transform="translate(-27.16 -19.4)"/><path class="cls-3" d="M305.2,504v-.36a.36.36,0,1,0,.36.36.36.36,0,0,0-.36-.36Z" transform="translate(-27.16 -19.4)"/><path class="cls-3" d="M1845.64,726.68h3.84l-3.84-10.2Zm3.84,0-3.84-10.2h3.84Z" transform="translate(-27.16 -19.4)"/><path class="cls-4" d="M1845.64,726.68h3.84l-3.84-10.2v10.2m3.84,0-3.84-10.2h3.84v10.2" transform="translate(-27.16 -19.4)"/><path class="cls-3" d="M1731.52,721.52v-.36a.36.36,0,1,0,.36.36.36.36,0,0,0-.36-.36Z" transform="translate(-27.16 -19.4)"/><path class="cls-1" d="M1731.52,721.52v-5" transform="translate(-27.16 -19.4)"/><path class="cls-3" d="M1845.64,726.68h3.84l-3.84-10.2Zm3.84,0-3.84-10.2h3.84Z" transform="translate(-27.16 -19.4)"/><path class="cls-4" d="M1845.64,726.68h3.84l-3.84-10.2v10.2m3.84,0-3.84-10.2h3.84v10.2" transform="translate(-27.16 -19.4)"/><path class="cls-3" d="M1733.44,718.28h112.2l-112.2-1.8Zm112.2,0-112.2-1.8h112.2Z" transform="translate(-27.16 -19.4)"/><path class="cls-4" d="M1733.44,718.28h112.2l-112.2-1.8v1.8m112.2,0-112.2-1.8h112.2v1.8" transform="translate(-27.16 -19.4)"/><path class="cls-3" d="M1733.44,723.92h112.2l-112.2-4.68Zm112.2,0-112.2-4.68h112.2Z" transform="translate(-27.16 -19.4)"/><path class="cls-4" d="M1733.44,723.92h112.2l-112.2-4.68v4.68m112.2,0-112.2-4.68h112.2v4.68" transform="translate(-27.16 -19.4)"/><path class="cls-3" d="M1789.48,725.84v-.36a.36.36,0,1,0,.36.36.36.36,0,0,0-.36-.36Z" transform="translate(-27.16 -19.4)"/><path class="cls-1" d="M1789.48,725.84h56.16" transform="translate(-27.16 -19.4)"/><path class="cls-3" d="M1733.44,723.92h112.2l-112.2-4.68Zm112.2,0-112.2-4.68h112.2Z" transform="translate(-27.16 -19.4)"/><path class="cls-4" d="M1733.44,723.92h112.2l-112.2-4.68v4.68m112.2,0-112.2-4.68h112.2v4.68" transform="translate(-27.16 -19.4)"/><path class="cls-1" d="M1789.48,719.24v-2.76" transform="translate(-27.16 -19.4)"/><path class="cls-3" d="M1733.44,724.88h112.2l-112.2-1Zm112.2,0-112.2-1h112.2Z" transform="translate(-27.16 -19.4)"/><path class="cls-4" d="M1733.44,724.88h112.2l-112.2-1v1m112.2,0-112.2-1h112.2v1" transform="translate(-27.16 -19.4)"/><path class="cls-1" d="M1849.48,716.48h-3.84v10.2h3.84v-10.2" transform="translate(-27.16 -19.4)"/><path class="cls-1" d="M1733.44,716.48h-3.84v10.2h3.84v-10.2" transform="translate(-27.16 -19.4)"/><path class="cls-1" d="M1845.64,726.68h-112.2" transform="translate(-27.16 -19.4)"/><path class="cls-1" d="M1733.44,716.48h112.2" transform="translate(-27.16 -19.4)"/><path class="cls-1" d="M1845.64,718.28h-112.2v1h112.2v-1" transform="translate(-27.16 -19.4)"/><path class="cls-1" d="M1845.64,723.92h-112.2v1h112.2v-1" transform="translate(-27.16 -19.4)"/><path class="cls-3" d="M1725.88,726.68h3.72l-3.72-10.2Zm3.72,0-3.72-10.2h3.72Z" transform="translate(-27.16 -19.4)"/><path class="cls-4" d="M1725.88,726.68h3.72l-3.72-10.2v10.2m3.72,0-3.72-10.2h3.72v10.2" transform="translate(-27.16 -19.4)"/><path class="cls-3" d="M1610.8,721.52v-.36a.36.36,0,1,0,.36.36.36.36,0,0,0-.36-.36Z" transform="translate(-27.16 -19.4)"/><path class="cls-1" d="M1610.8,721.52v-5" transform="translate(-27.16 -19.4)"/><path class="cls-3" d="M1725.88,726.68h3.72l-3.72-10.2Zm3.72,0-3.72-10.2h3.72Z" transform="translate(-27.16 -19.4)"/><path class="cls-4" d="M1725.88,726.68h3.72l-3.72-10.2v10.2m3.72,0-3.72-10.2h3.72v10.2" transform="translate(-27.16 -19.4)"/><path class="cls-3" d="M1612.6,718.28h113.28l-113.28-1.8Zm113.28,0-113.28-1.8h113.28Z" transform="translate(-27.16 -19.4)"/><path class="cls-4" d="M1612.6,718.28h113.28l-113.28-1.8v1.8m113.28,0-113.28-1.8h113.28v1.8" transform="translate(-27.16 -19.4)"/><path class="cls-3" d="M1612.6,723.92h113.28l-113.28-4.68Zm113.28,0-113.28-4.68h113.28Z" transform="translate(-27.16 -19.4)"/><path class="cls-4" d="M1612.6,723.92h113.28l-113.28-4.68v4.68m113.28,0-113.28-4.68h113.28v4.68" transform="translate(-27.16 -19.4)"/><path class="cls-3" d="M1669.24,725.84v-.36a.36.36,0,1,0,.36.36.36.36,0,0,0-.36-.36Z" transform="translate(-27.16 -19.4)"/><path class="cls-1" d="M1669.24,725.84h56.64" transform="translate(-27.16 -19.4)"/><path class="cls-3" d="M1612.6,723.92h113.28l-113.28-4.68Zm113.28,0-113.28-4.68h113.28Z" transform="translate(-27.16 -19.4)"/><path class="cls-4" d="M1612.6,723.92h113.28l-113.28-4.68v4.68m113.28,0-113.28-4.68h113.28v4.68" transform="translate(-27.16 -19.4)"/><path class="cls-1" d="M1669.24,719.24v-2.76" transform="translate(-27.16 -19.4)"/><path class="cls-3" d="M1612.6,724.88h113.28l-113.28-1Zm113.28,0-113.28-1h113.28Z" transform="translate(-27.16 -19.4)"/><path class="cls-4" d="M1612.6,724.88h113.28l-113.28-1v1m113.28,0-113.28-1h113.28v1" transform="translate(-27.16 -19.4)"/><path class="cls-1" d="M1729.6,716.48h-3.72v10.2h3.72v-10.2" transform="translate(-27.16 -19.4)"/><path class="cls-1" d="M1612.6,716.48h-3.72v10.2h3.72v-10.2" transform="translate(-27.16 -19.4)"/><path class="cls-1" d="M1725.88,726.68H1612.6" transform="translate(-27.16 -19.4)"/><path class="cls-1" d="M1612.6,716.48h113.28" transform="translate(-27.16 -19.4)"/><path class="cls-1" d="M1725.88,718.28H1612.6v1h113.28v-1" transform="translate(-27.16 -19.4)"/><path class="cls-1" d="M1725.88,723.92H1612.6v1h113.28v-1" transform="translate(-27.16 -19.4)"/><path class="cls-1" d="M2176.12,1085.12V726.68H1849.48v-5.52h-240.6v363.12h415.56v.84" transform="translate(-27.16 -19.4)"/><path class="cls-1" d="M1124.08,158.6V341.12h10.32V158.6h-10.32" transform="translate(-27.16 -19.4)"/><path class="cls-3" d="M1023,514.28h3.72l-3.72,8.4Zm3.72,0-3.72,8.4h3.72Zm-3.72,8.4h3.72l-3.72,2.76Zm3.72,0-3.72,2.76h3.72Z" transform="translate(-27.16 -19.4)"/><path class="cls-4" d="M1023,514.28h3.72l-3.72,8.4v-8.4m3.72,0-3.72,8.4h3.72v-8.4m-3.72,8.4h3.72l-3.72,2.76v-2.76m3.72,0-3.72,2.76h3.72v-2.76" transform="translate(-27.16 -19.4)"/><path class="cls-3" d="M841.48,514.28h3.72l-3.72,11.16Zm3.72,0-3.72,11.16h3.72Z" transform="translate(-27.16 -19.4)"/><path class="cls-4" d="M841.48,514.28h3.72l-3.72,11.16V514.28m3.72,0-3.72,11.16h3.72V514.28" transform="translate(-27.16 -19.4)"/><path class="cls-3" d="M1023,514.28h3.72l-3.72,8.4Zm3.72,0-3.72,8.4h3.72Z" transform="translate(-27.16 -19.4)"/><path class="cls-4" d="M1023,514.28h3.72l-3.72,8.4v-8.4m3.72,0-3.72,8.4h3.72v-8.4" transform="translate(-27.16 -19.4)"/><path class="cls-3" d="M841.48,514.28h3.72l-3.72,11.16Zm3.72,0-3.72,11.16h3.72Z" transform="translate(-27.16 -19.4)"/><path class="cls-4" d="M841.48,514.28h3.72l-3.72,11.16V514.28m3.72,0-3.72,11.16h3.72V514.28" transform="translate(-27.16 -19.4)"/><path class="cls-3" d="M1023,522.68h3.72l-3.72,2.76Zm3.72,0-3.72,2.76h3.72Z" transform="translate(-27.16 -19.4)"/><path class="cls-4" d="M1023,522.68h3.72l-3.72,2.76v-2.76m3.72,0-3.72,2.76h3.72v-2.76" transform="translate(-27.16 -19.4)"/><path class="cls-3" d="M845.2,514.28H1023l-177.84,1.8Zm177.84,0-177.84,1.8H1023Z" transform="translate(-27.16 -19.4)"/><path class="cls-4" d="M845.2,514.28H1023l-177.84,1.8v-1.8m177.84,0-177.84,1.8H1023v-1.8" transform="translate(-27.16 -19.4)"/><path class="cls-3" d="M845.2,517H1023L845.2,521.72ZM1023,517,845.2,521.72H1023Z" transform="translate(-27.16 -19.4)"/><path class="cls-4" d="M845.2,517H1023L845.2,521.72V517M1023,517,845.2,521.72H1023V517" transform="translate(-27.16 -19.4)"/><path class="cls-3" d="M845.2,522.68H1023L845.2,525.44Zm177.84,0L845.2,525.44H1023Z" transform="translate(-27.16 -19.4)"/><path class="cls-4" d="M845.2,522.68H1023L845.2,525.44v-2.76m177.84,0L845.2,525.44H1023v-2.76" transform="translate(-27.16 -19.4)"/><path class="cls-3" d="M845.2,514.28H1023l-177.84,1.8Zm177.84,0-177.84,1.8H1023Z" transform="translate(-27.16 -19.4)"/><path class="cls-4" d="M845.2,514.28H1023l-177.84,1.8v-1.8m177.84,0-177.84,1.8H1023v-1.8" transform="translate(-27.16 -19.4)"/><path class="cls-3" d="M845.2,517H1023L845.2,521.72ZM1023,517,845.2,521.72H1023Z" transform="translate(-27.16 -19.4)"/><path class="cls-4" d="M845.2,517H1023L845.2,521.72V517M1023,517,845.2,521.72H1023V517" transform="translate(-27.16 -19.4)"/><path class="cls-1" d="M934.12,521.72v3.72" transform="translate(-27.16 -19.4)"/><path class="cls-3" d="M845.2,516.08H1023L845.2,517Zm177.84,0L845.2,517H1023Z" transform="translate(-27.16 -19.4)"/><path class="cls-4" d="M845.2,516.08H1023L845.2,517v-1m177.84,0L845.2,517H1023v-1" transform="translate(-27.16 -19.4)"/><path class="cls-1" d="M1026.76,525.44H1023V514.28h3.72v11.16" transform="translate(-27.16 -19.4)"/><path class="cls-1" d="M845.2,525.44h-3.72V514.28h3.72v11.16" transform="translate(-27.16 -19.4)"/><path class="cls-1" d="M1023,514.28H845.2" transform="translate(-27.16 -19.4)"/><path class="cls-1" d="M845.2,525.44H1023" transform="translate(-27.16 -19.4)"/><path class="cls-1" d="M1023,522.68H845.2v-1H1023v1" transform="translate(-27.16 -19.4)"/><path class="cls-1" d="M1023,517H845.2v-1H1023v1" transform="translate(-27.16 -19.4)"/><path class="cls-1" d="M723.52,514.28h118V524.6h-118" transform="translate(-27.16 -19.4)"/><path class="cls-1" d="M1124.08,519.92v10.2h10.32v-10.2" transform="translate(-27.16 -19.4)"/><path class="cls-3" d="M1124.08,341.12h0v0Zm0,0v3.72h0Z" transform="translate(-27.16 -19.4)"/><path class="cls-4" d="M1124.08,341.12h0v0m0,0v3.72h0v-3.72" transform="translate(-27.16 -19.4)"/><path class="cls-3" d="M1124.08,341.12v3.72l10.32-3.72Zm0,3.72,10.32-3.72v3.72Z" transform="translate(-27.16 -19.4)"/><path class="cls-4" d="M1124.08,341.12v3.72l10.32-3.72h-10.32m0,3.72,10.32-3.72v3.72h-10.32" transform="translate(-27.16 -19.4)"/><path class="cls-3" d="M1124.08,516.08h0v0Zm0,0v3.84h0Z" transform="translate(-27.16 -19.4)"/><path class="cls-4" d="M1124.08,516.08h0v0m0,0v3.84h0v-3.84" transform="translate(-27.16 -19.4)"/><path class="cls-3" d="M1124.08,516.08v3.84l10.32-3.84Zm0,3.84,10.32-3.84v3.84Z" transform="translate(-27.16 -19.4)"/><path class="cls-4" d="M1124.08,516.08v3.84l10.32-3.84h-10.32m0,3.84,10.32-3.84v3.84h-10.32" transform="translate(-27.16 -19.4)"/><path class="cls-3" d="M1124.08,341.12h0v0Zm0,0v3.72h0Z" transform="translate(-27.16 -19.4)"/><path class="cls-4" d="M1124.08,341.12h0v0m0,0v3.72h0v-3.72" transform="translate(-27.16 -19.4)"/><path class="cls-3" d="M1124.08,516.08h0v0Zm0,0v3.84h0Z" transform="translate(-27.16 -19.4)"/><path class="cls-4" d="M1124.08,516.08h0v0m0,0v3.84h0v-3.84" transform="translate(-27.16 -19.4)"/><path class="cls-3" d="M1124.08,341.12v3.72l10.32-3.72Zm0,3.72,10.32-3.72v3.72Z" transform="translate(-27.16 -19.4)"/><path class="cls-4" d="M1124.08,341.12v3.72l10.32-3.72h-10.32m0,3.72,10.32-3.72v3.72h-10.32" transform="translate(-27.16 -19.4)"/><path class="cls-3" d="M1124.08,516.08v3.84l10.32-3.84Zm0,3.84,10.32-3.84v3.84Z" transform="translate(-27.16 -19.4)"/><path class="cls-4" d="M1124.08,516.08v3.84l10.32-3.84h-10.32m0,3.84,10.32-3.84v3.84h-10.32" transform="translate(-27.16 -19.4)"/><path class="cls-3" d="M1132.48,344.84V516.08l1.92-171.24Zm0,171.24,1.92-171.24V516.08Z" transform="translate(-27.16 -19.4)"/><path class="cls-4" d="M1132.48,344.84V516.08l1.92-171.24h-1.92m0,171.24,1.92-171.24V516.08h-1.92" transform="translate(-27.16 -19.4)"/><path class="cls-3" d="M1127,344.84V516.08l4.68-171.24Zm0,171.24,4.68-171.24V516.08Z" transform="translate(-27.16 -19.4)"/><path class="cls-4" d="M1127,344.84V516.08l4.68-171.24H1127m0,171.24,4.68-171.24V516.08H1127" transform="translate(-27.16 -19.4)"/><path class="cls-3" d="M1125,430.52v-.36a.36.36,0,1,0,.36.36.36.36,0,0,0-.36-.36Z" transform="translate(-27.16 -19.4)"/><path class="cls-1" d="M1125,430.52v85.56" transform="translate(-27.16 -19.4)"/><path class="cls-3" d="M1127,344.84V516.08l4.68-171.24Zm0,171.24,4.68-171.24V516.08Z" transform="translate(-27.16 -19.4)"/><path class="cls-4" d="M1127,344.84V516.08l4.68-171.24H1127m0,171.24,4.68-171.24V516.08H1127" transform="translate(-27.16 -19.4)"/><path class="cls-1" d="M1131.64,430.52h2.76" transform="translate(-27.16 -19.4)"/><path class="cls-3" d="M1126,344.84V516.08l1-171.24Zm0,171.24,1-171.24V516.08Z" transform="translate(-27.16 -19.4)"/><path class="cls-4" d="M1126,344.84V516.08l1-171.24h-1m0,171.24,1-171.24V516.08h-1" transform="translate(-27.16 -19.4)"/><path class="cls-1" d="M1134.4,519.92v-3.84h-10.32v3.84h10.32" transform="translate(-27.16 -19.4)"/><path class="cls-1" d="M1134.4,516.08v-175h-10.32v3.72h10.32" transform="translate(-27.16 -19.4)"/><path class="cls-1" d="M1132.48,516.08V344.84h-.84V516.08h.84" transform="translate(-27.16 -19.4)"/><path class="cls-1" d="M1127,516.08V344.84h-1V516.08h1" transform="translate(-27.16 -19.4)"/><path class="cls-1" d="M966.88,520.76h108.6V519H966.88v1.8" transform="translate(-27.16 -19.4)"/><path class="cls-1" d="M1187.8,1085.12v-363h421.08v363" transform="translate(-27.16 -19.4)"/><g id="setor_juridico"><path d="M513.83,109.15l6.57-.57a14.48,14.48,0,0,0,2.18,6.48,11.84,11.84,0,0,0,5.3,4.1,20.09,20.09,0,0,0,8.09,1.56,19.42,19.42,0,0,0,7-1.18,9.84,9.84,0,0,0,4.55-3.25,7.6,7.6,0,0,0,1.49-4.51,6.87,6.87,0,0,0-1.44-4.34,10.62,10.62,0,0,0-4.74-3.1,90.17,90.17,0,0,0-9.38-2.57,48.51,48.51,0,0,1-10.18-3.29,14.31,14.31,0,0,1-5.62-4.91A12.05,12.05,0,0,1,515.84,87a13.41,13.41,0,0,1,2.26-7.46,14.05,14.05,0,0,1,6.62-5.26,25,25,0,0,1,9.66-1.8,26.42,26.42,0,0,1,10.34,1.89,15,15,0,0,1,6.88,5.55,16,16,0,0,1,2.59,8.3l-6.69.51a10.77,10.77,0,0,0-3.65-7.55q-3.11-2.55-9.18-2.55-6.33,0-9.22,2.32a6.93,6.93,0,0,0-2.89,5.59,6,6,0,0,0,2.05,4.67q2,1.83,10.51,3.75a71.09,71.09,0,0,1,11.66,3.36,16.08,16.08,0,0,1,6.8,5.38,13.09,13.09,0,0,1,2.19,7.49,14.32,14.32,0,0,1-2.41,7.93,15.81,15.81,0,0,1-6.92,5.78A24.07,24.07,0,0,1,536.29,127a30.31,30.31,0,0,1-12-2.09,16.78,16.78,0,0,1-7.58-6.27,17.76,17.76,0,0,1-2.89-9.47ZM587,126.08h-6.47V84.86a33.47,33.47,0,0,1-6.13,4.45,44,44,0,0,1-6.81,3.35V86.4a39,39,0,0,0,9.49-6.18,24.57,24.57,0,0,0,5.75-7H587Zm50.13-39.79-6.43.51a12.2,12.2,0,0,0-2.44-5.54,8.59,8.59,0,0,0-6.47-2.77,8.91,8.91,0,0,0-5.43,1.73,14.78,14.78,0,0,0-4.82,6.5q-1.76,4.29-1.83,12.19a15,15,0,0,1,5.72-5.28,15.36,15.36,0,0,1,7.08-1.73,14.67,14.67,0,0,1,11,4.76A17.11,17.11,0,0,1,638.11,109a20.2,20.2,0,0,1-2.14,9.22,15.55,15.55,0,0,1-5.88,6.52,16,16,0,0,1-8.48,2.27,16.56,16.56,0,0,1-13.19-6q-5.1-5.94-5.1-19.61,0-15.27,5.64-22.21a16.22,16.22,0,0,1,13.26-6,14.1,14.1,0,0,1,14.95,13.11ZM610.76,109a15,15,0,0,0,1.42,6.4,10.59,10.59,0,0,0,4,4.65,9.9,9.9,0,0,0,5.35,1.6,9.12,9.12,0,0,0,7-3.31c2-2.2,3-5.2,3-9s-1-6.51-2.92-8.61a9.55,9.55,0,0,0-7.33-3.15,10,10,0,0,0-7.44,3.15,11.37,11.37,0,0,0-3,8.25Zm33.82,3.16,6.47-.86c.74,3.66,2,6.31,3.79,7.92a9.35,9.35,0,0,0,6.52,2.43,10.42,10.42,0,0,0,7.71-3.16,10.67,10.67,0,0,0,3.15-7.84,9.93,9.93,0,0,0-2.91-7.35,10.08,10.08,0,0,0-7.41-2.89,18.52,18.52,0,0,0-4.56.72l.72-5.68a9.13,9.13,0,0,0,1,.07,13.33,13.33,0,0,0,7.44-2.16,7.37,7.37,0,0,0,3.3-6.65,7.88,7.88,0,0,0-2.4-5.89,8.56,8.56,0,0,0-6.22-2.34,8.82,8.82,0,0,0-6.29,2.38A11.89,11.89,0,0,0,651.69,88l-6.47-1.15a16.68,16.68,0,0,1,5.4-10.08,15.59,15.59,0,0,1,10.45-3.57A17.17,17.17,0,0,1,669,75a13.29,13.29,0,0,1,5.55,5,13,13,0,0,1,1.92,6.79,11.16,11.16,0,0,1-1.83,6.22,12.46,12.46,0,0,1-5.43,4.45,12.18,12.18,0,0,1,7.26,4.48,13.59,13.59,0,0,1,2.59,8.5,15.57,15.57,0,0,1-5,11.7A17.68,17.68,0,0,1,661.33,127a16.51,16.51,0,0,1-11.52-4.13,15.93,15.93,0,0,1-5.23-10.71Z" transform="translate(-27.16 -19.4)"/><path d="M874.67,108l6.57-.57a14.48,14.48,0,0,0,2.18,6.48,11.84,11.84,0,0,0,5.3,4.1,20.09,20.09,0,0,0,8.09,1.56,19.42,19.42,0,0,0,7-1.18,9.84,9.84,0,0,0,4.55-3.25,7.6,7.6,0,0,0,1.49-4.51,6.87,6.87,0,0,0-1.44-4.34,10.62,10.62,0,0,0-4.74-3.1,90.17,90.17,0,0,0-9.38-2.57,48.51,48.51,0,0,1-10.18-3.29,14.31,14.31,0,0,1-5.62-4.91,12.05,12.05,0,0,1-1.85-6.56,13.41,13.41,0,0,1,2.26-7.46,14.05,14.05,0,0,1,6.62-5.26,25,25,0,0,1,9.66-1.8,26.42,26.42,0,0,1,10.34,1.89,15,15,0,0,1,6.88,5.55A16,16,0,0,1,915,87l-6.69.51A10.77,10.77,0,0,0,904.69,80q-3.11-2.55-9.18-2.55-6.33,0-9.22,2.32a6.93,6.93,0,0,0-2.89,5.59A6,6,0,0,0,885.45,90q2,1.83,10.51,3.75a71.09,71.09,0,0,1,11.66,3.36,16.08,16.08,0,0,1,6.8,5.38,13.09,13.09,0,0,1,2.19,7.49,14.32,14.32,0,0,1-2.41,7.93,15.81,15.81,0,0,1-6.92,5.78,24.07,24.07,0,0,1-10.15,2.07,30.31,30.31,0,0,1-12-2.09,16.78,16.78,0,0,1-7.58-6.27,17.76,17.76,0,0,1-2.89-9.47Zm73.21,16.93h-6.47V83.66a33.47,33.47,0,0,1-6.13,4.45,43,43,0,0,1-6.81,3.34V85.2A39,39,0,0,0,938,79a24.47,24.47,0,0,0,5.75-7h4.17ZM998,85.09l-6.43.51a12.2,12.2,0,0,0-2.44-5.54,8.59,8.59,0,0,0-6.47-2.77A8.91,8.91,0,0,0,977.24,79a14.73,14.73,0,0,0-4.82,6.5q-1.75,4.29-1.83,12.19a15,15,0,0,1,5.72-5.28,15.36,15.36,0,0,1,7.08-1.73,14.67,14.67,0,0,1,11,4.76A17.11,17.11,0,0,1,999,107.77a20.2,20.2,0,0,1-2.14,9.22,15.55,15.55,0,0,1-5.88,6.52,16,16,0,0,1-8.48,2.27,16.56,16.56,0,0,1-13.19-6q-5.1-6-5.1-19.61Q964.16,85,969.8,78a16.23,16.23,0,0,1,13.26-6,14.12,14.12,0,0,1,15,13.12ZM971.6,107.81a15,15,0,0,0,1.42,6.4,10.59,10.59,0,0,0,4,4.65,9.9,9.9,0,0,0,5.35,1.6,9.12,9.12,0,0,0,7-3.31c2-2.2,3-5.2,3-9s-1-6.51-2.92-8.61a9.55,9.55,0,0,0-7.33-3.15,10,10,0,0,0-7.44,3.15,11.37,11.37,0,0,0-3,8.25Zm54.52,17.07V112.26h-22.86v-5.93l24-34.14h5.28v34.14h7.12v5.93h-7.12v12.62Zm0-18.55V82.58l-16.5,23.75Z" transform="translate(-27.16 -19.4)"/></g><g id="A_POSIÇÕES_TRABALHO_7" data-name="A POSIÇÕES_TRABALHO 7"><path class="cls-1" d="M2629,1085.12V19.76H27.52V1085.12H2629" transform="translate(-27.16 -19.4)"/></g></g><g id="Asientos"><rect class="cls-5 seat" x="581.79" y="225.45" width="99.48" height="91.92" rx="10.46" id="seat-8"/><rect class="cls-5 seat" x="703.71" y="225.45" width="99.48" height="91.92" rx="10.46" id="seat-13"/><rect class="cls-5 seat" x="86.91" y="804.96" width="99.48" height="91.92" rx="10.46" id="seat-4"/><rect class="cls-5 seat" x="195.68" y="804.96" width="99.48" height="91.92" rx="10.46" id="seat-6"/><rect class="cls-5 seat" x="86.91" y="923.19" width="99.48" height="91.92" rx="10.46" id="seat-5"/><rect class="cls-5 seat" x="195.68" y="923.19" width="99.48" height="91.92" rx="10.46" id="seat-7"/><rect class="cls-5 seat" x="459.3" y="804.96" width="99.48" height="91.92" rx="10.46" id="seat-9"/><rect class="cls-5 seat" x="568.08" y="804.96" width="99.48" height="91.92" rx="10.46" id="seat-11"/><rect class="cls-5 seat" x="459.3" y="923.19" width="99.48" height="91.92" rx="10.46" id="seat-10"/><rect class="cls-5 seat" x="568.08" y="923.19" width="99.48" height="91.92" rx="10.46" id="seat-12"/><rect class="cls-5 seat" x="798.51" y="804.96" width="99.48" height="91.92" rx="10.46" id="seat-14"/><rect class="cls-5 seat" x="907.29" y="804.96" width="99.48" height="91.92" rx="10.46" id="seat-16"/><rect class="cls-5 seat" x="798.51" y="923.19" width="99.48" height="91.92" rx="10.46" id="seat-15"/><rect class="cls-5 seat" x="907.29" y="923.19" width="99.48" height="91.92" rx="10.46" id="seat-17"/><rect class="cls-5 seat" x="1228.71" y="239.08" width="99.48" height="91.92" rx="10.46" id="seat-20"/><rect class="cls-5 seat" x="1337.49" y="239.08" width="99.48" height="91.92" rx="10.46" id="seat-22"/><rect class="cls-5 seat" x="1228.71" y="357.3" width="99.48" height="91.92" rx="10.46" id="seat-21"/><rect class="cls-5 seat" x="1337.49" y="357.3" width="99.48" height="91.92" rx="10.46" id="seat-23"/><rect class="cls-5 seat" x="1560.84" y="49.29" width="99.48" height="91.92" rx="10.46" id="seat-24"/><rect class="cls-5 seat" x="1669.62" y="49.29" width="99.48" height="91.92" rx="10.46" id="seat-25"/><rect class="cls-5 seat" x="1560.84" y="167.15" width="99.48" height="91.92" rx="10.46" id="seat-26"/><rect class="cls-5 seat" x="1669.62" y="167.15" width="99.48" height="91.92" rx="10.46" id="seat-27"/><rect class="cls-5 seat" x="1920.67" y="167.15" width="99.48" height="91.92" rx="10.46" id="seat-30"/><rect class="cls-5 seat" x="2028.25" y="167.15" width="99.48" height="91.92" rx="10.46" id="seat-33"/><rect class="cls-5 seat" x="1920.67" y="284.52" width="99.48" height="91.92" rx="10.46" id="seat-31"/><rect class="cls-5 seat" x="2028.25" y="284.52" width="99.48" height="91.92" rx="10.46" id="seat-34"/><rect class="cls-5 seat" x="2296.21" y="167.15" width="99.48" height="91.92" rx="10.46" id="seat-36"/><rect class="cls-5 seat" x="2404.99" y="167.15" width="99.48" height="91.92" rx="10.46" id="seat-39"/><rect class="cls-5 seat" x="2296.21" y="284.52" width="99.48" height="91.92" rx="10.46" id="seat-37"/><rect class="cls-5 seat" x="2404.99" y="284.52" width="99.48" height="91.92" rx="10.46" id="seat-40"/><rect class="cls-5 seat" x="1560.84" y="284.52" width="99.48" height="91.92" rx="10.46" id="seat-28"/><rect class="cls-5 seat" x="1669.62" y="284.52" width="99.48" height="91.92" rx="10.46" id="seat-29"/><rect class="cls-5 seat" x="2296.21" y="49.29" width="99.48" height="91.92" rx="10.46" id="seat-35"/><rect class="cls-5 seat" x="2404.99" y="49.29" width="99.48" height="91.92" rx="10.46" id="seat-38"/><rect class="cls-5 seat" x="1224.06" y="49.29" width="99.48" height="91.92" rx="10.46" id="seat-18"/><rect class="cls-5 seat" x="1332.84" y="49.29" width="99.48" height="91.92" rx="10.46" id="seat-19"/><rect class="cls-5 seat" x="2028.25" y="49.29" width="99.48" height="91.92" rx="10.46" id="seat-32"/></g><g id="Numeros"><path d="M638.74,291a25.42,25.42,0,0,1,1-8,10,10,0,0,1,3-4.68,7.78,7.78,0,0,1,5.09-1.65,8.24,8.24,0,0,1,4,.91,7.6,7.6,0,0,1,2.82,2.62,14.18,14.18,0,0,1,1.74,4.18,27.78,27.78,0,0,1,.63,6.63,26,26,0,0,1-1,8,10,10,0,0,1-3,4.69,8.54,8.54,0,0,1-11.48-1.25q-2.78-3.51-2.78-11.42Zm3.55,0c0,4.61.53,7.68,1.61,9.21a4.62,4.62,0,0,0,8,0c1.08-1.54,1.62-4.6,1.62-9.2s-.54-7.69-1.62-9.21a4.8,4.8,0,0,0-4-2.28,4.41,4.41,0,0,0-3.79,2q-1.79,2.56-1.78,9.48Zm23.57-1.37a6.55,6.55,0,0,1-3.18-2.25,5.84,5.84,0,0,1-1-3.48,6.81,6.81,0,0,1,2.2-5.15,8.13,8.13,0,0,1,5.86-2.09,8.25,8.25,0,0,1,5.92,2.13,6.94,6.94,0,0,1,2.24,5.2,5.72,5.72,0,0,1-1,3.4,6.46,6.46,0,0,1-3.12,2.23,7.59,7.59,0,0,1,3.94,2.72A7.51,7.51,0,0,1,679,296.8a8.07,8.07,0,0,1-2.55,6.05,10.37,10.37,0,0,1-13.4,0,8.19,8.19,0,0,1-2.55-6.14,7.41,7.41,0,0,1,1.39-4.59A6.89,6.89,0,0,1,665.86,289.6Zm-.69-5.85a4.36,4.36,0,0,0,1.29,3.26,4.53,4.53,0,0,0,3.33,1.26,4.42,4.42,0,0,0,3.26-1.25,4.15,4.15,0,0,0,1.28-3.07,4.28,4.28,0,0,0-1.32-3.19,4.42,4.42,0,0,0-3.26-1.3,4.49,4.49,0,0,0-3.28,1.27,4.09,4.09,0,0,0-1.3,3Zm-1.11,13a6.19,6.19,0,0,0,.7,2.85,5,5,0,0,0,2.08,2.14,6.13,6.13,0,0,0,3,.76,5.59,5.59,0,0,0,4.08-1.59,5.45,5.45,0,0,0,1.6-4.05,5.52,5.52,0,0,0-1.65-4.11,5.68,5.68,0,0,0-4.15-1.63,5.49,5.49,0,0,0-5.63,5.63Z" transform="translate(-27.16 -19.4)"/><path d="M770.57,304.81h-3.45v-22a17.32,17.32,0,0,1-3.27,2.38,23.4,23.4,0,0,1-3.62,1.78v-3.33a21,21,0,0,0,5-3.3,13.07,13.07,0,0,0,3.07-3.75h2.22Zm8.85-7.41,3.44-.46a7.63,7.63,0,0,0,2,4.22,5,5,0,0,0,3.48,1.3,5.6,5.6,0,0,0,4.11-1.69,5.72,5.72,0,0,0,1.67-4.18,5.26,5.26,0,0,0-1.55-3.91,5.34,5.34,0,0,0-3.94-1.54,9.71,9.71,0,0,0-2.44.38l.39-3a4.27,4.27,0,0,0,.55,0,7.09,7.09,0,0,0,4-1.15,3.93,3.93,0,0,0,1.76-3.54,4.21,4.21,0,0,0-1.28-3.14,4.58,4.58,0,0,0-3.32-1.25,4.72,4.72,0,0,0-3.35,1.27,6.31,6.31,0,0,0-1.72,3.79l-3.45-.61a8.87,8.87,0,0,1,2.87-5.37,8.32,8.32,0,0,1,5.58-1.91,9.15,9.15,0,0,1,4.23,1,7.1,7.1,0,0,1,3,2.69,6.91,6.91,0,0,1,1,3.62,5.94,5.94,0,0,1-1,3.31,6.64,6.64,0,0,1-2.9,2.37,6.54,6.54,0,0,1,3.87,2.39,7.27,7.27,0,0,1,1.38,4.53,8.26,8.26,0,0,1-2.68,6.23,9.42,9.42,0,0,1-6.78,2.56,8.83,8.83,0,0,1-6.14-2.2,8.5,8.5,0,0,1-2.78-5.71Z" transform="translate(-27.16 -19.4)"/><path d="M144.58,986.81a25.53,25.53,0,0,1,1-8,9.94,9.94,0,0,1,3-4.68,7.78,7.78,0,0,1,5.09-1.65,8.38,8.38,0,0,1,4,.91,7.55,7.55,0,0,1,2.82,2.63,14,14,0,0,1,1.74,4.17,27.82,27.82,0,0,1,.63,6.64,26.06,26.06,0,0,1-1,8,10,10,0,0,1-3,4.69,7.81,7.81,0,0,1-5.1,1.65,7.7,7.7,0,0,1-6.38-2.91q-2.78-3.5-2.78-11.41Zm3.54,0q0,6.91,1.62,9.2a4.62,4.62,0,0,0,8,0q1.62-2.29,1.62-9.19t-1.62-9.21a4.8,4.8,0,0,0-4-2.28,4.4,4.4,0,0,0-3.79,2q-1.78,2.56-1.79,9.48Zm18.28,6.49L170,993a6.48,6.48,0,0,0,1.86,4,5.08,5.08,0,0,0,3.54,1.33,5.5,5.5,0,0,0,4.21-1.88,7.06,7.06,0,0,0,1.72-5,6.41,6.41,0,0,0-1.65-4.65,5.77,5.77,0,0,0-4.34-1.7,6.08,6.08,0,0,0-3,.75,5.92,5.92,0,0,0-2.1,2l-3.24-.42L169.73,973h14v3.3h-11.2L171,983.8a9.2,9.2,0,0,1,5.31-1.76,8.38,8.38,0,0,1,6.2,2.55,8.89,8.89,0,0,1,2.53,6.55,10.25,10.25,0,0,1-2.22,6.59,8.9,8.9,0,0,1-7.37,3.4,9.1,9.1,0,0,1-6.26-2.14,8.39,8.39,0,0,1-2.76-5.69Z" transform="translate(-27.16 -19.4)"/><path d="M252.47,868.67a25.86,25.86,0,0,1,1-8,10,10,0,0,1,3.05-4.68,7.75,7.75,0,0,1,5.08-1.65,8.4,8.4,0,0,1,4,.91,7.59,7.59,0,0,1,2.81,2.63,14,14,0,0,1,1.74,4.17,27.29,27.29,0,0,1,.64,6.64,25.72,25.72,0,0,1-1,8,10.08,10.08,0,0,1-3,4.69,7.82,7.82,0,0,1-5.11,1.65,7.73,7.73,0,0,1-6.38-2.91q-2.78-3.5-2.77-11.41Zm3.54,0q0,6.92,1.62,9.2a4.62,4.62,0,0,0,8,0q1.61-2.29,1.61-9.19t-1.61-9.21a4.82,4.82,0,0,0-4-2.28,4.42,4.42,0,0,0-3.79,2q-1.79,2.56-1.78,9.48Zm36.16-7.36-3.43.27a6.61,6.61,0,0,0-1.3-3,4.57,4.57,0,0,0-3.45-1.47,4.75,4.75,0,0,0-2.89.92,7.88,7.88,0,0,0-2.57,3.46,18.18,18.18,0,0,0-1,6.5,7.92,7.92,0,0,1,3-2.82,8.23,8.23,0,0,1,3.77-.92,7.81,7.81,0,0,1,5.87,2.54,9.09,9.09,0,0,1,2.43,6.56,10.78,10.78,0,0,1-1.14,4.91,8.42,8.42,0,0,1-3.13,3.48,8.61,8.61,0,0,1-4.52,1.2,8.8,8.8,0,0,1-7-3.17q-2.73-3.17-2.72-10.44,0-8.14,3-11.84a8.64,8.64,0,0,1,7.06-3.22,7.53,7.53,0,0,1,8,7Zm-14.08,12.11a8.08,8.08,0,0,0,.76,3.41,5.63,5.63,0,0,0,2.12,2.48,5.24,5.24,0,0,0,2.85.85,4.87,4.87,0,0,0,3.75-1.76,6.93,6.93,0,0,0,1.57-4.79,6.48,6.48,0,0,0-1.55-4.59,5.1,5.1,0,0,0-3.91-1.67,5.35,5.35,0,0,0-4,1.67A6.08,6.08,0,0,0,278.09,873.42Z" transform="translate(-27.16 -19.4)"/><path d="M640.07,882.75h-3.45v-22a18,18,0,0,1-3.26,2.37,23,23,0,0,1-3.63,1.78v-3.33a20.77,20.77,0,0,0,5-3.29,12.8,12.8,0,0,0,3.07-3.76h2.22Zm21.81,0h-3.44v-22a17.76,17.76,0,0,1-3.27,2.37,22.59,22.59,0,0,1-3.63,1.78v-3.33a20.83,20.83,0,0,0,5.06-3.29,12.91,12.91,0,0,0,3.06-3.76h2.22Z" transform="translate(-27.16 -19.4)"/><path d="M527.38,1000.66h-3.44v-22a17.76,17.76,0,0,1-3.27,2.37,22.19,22.19,0,0,1-3.63,1.78v-3.33a20.54,20.54,0,0,0,5.06-3.29,12.91,12.91,0,0,0,3.06-3.76h2.23v28.2Zm8.83-13.85a25.83,25.83,0,0,1,1-8,10,10,0,0,1,3-4.68,7.8,7.8,0,0,1,5.09-1.65,8.33,8.33,0,0,1,4,.91,7.55,7.55,0,0,1,2.82,2.63,14,14,0,0,1,1.74,4.17,27.88,27.88,0,0,1,.63,6.64,26.06,26.06,0,0,1-1,8,10,10,0,0,1-3,4.69,7.79,7.79,0,0,1-5.1,1.65,7.71,7.71,0,0,1-6.38-2.91q-2.78-3.5-2.78-11.41Zm3.55,0q0,6.91,1.62,9.2a4.62,4.62,0,0,0,8,0q1.62-2.29,1.62-9.19t-1.62-9.21a4.8,4.8,0,0,0-4-2.28,4.41,4.41,0,0,0-3.79,2q-1.78,2.56-1.78,9.48Z" transform="translate(-27.16 -19.4)"/><path d="M976.55,882.52H973.1v-22a17.66,17.66,0,0,1-3.26,2.37,23,23,0,0,1-3.63,1.78v-3.33a20.73,20.73,0,0,0,5.06-3.29,12.91,12.91,0,0,0,3.06-3.76h2.22Zm26.72-21.21-3.43.27a6.61,6.61,0,0,0-1.3-3,4.57,4.57,0,0,0-3.45-1.47,4.68,4.68,0,0,0-2.89.92,7.83,7.83,0,0,0-2.57,3.46,18.18,18.18,0,0,0-1,6.5,7.92,7.92,0,0,1,3-2.82,8.23,8.23,0,0,1,3.77-.92,7.81,7.81,0,0,1,5.87,2.54,9.09,9.09,0,0,1,2.43,6.56,10.78,10.78,0,0,1-1.14,4.91,8.42,8.42,0,0,1-3.13,3.48A8.61,8.61,0,0,1,995,883a8.8,8.8,0,0,1-7-3.17q-2.73-3.17-2.72-10.44,0-8.14,3-11.84a8.67,8.67,0,0,1,7.07-3.22,7.53,7.53,0,0,1,8,7Zm-14.08,12.11a7.93,7.93,0,0,0,.76,3.41,5.68,5.68,0,0,0,2.11,2.48,5.29,5.29,0,0,0,2.86.85,4.87,4.87,0,0,0,3.75-1.76,6.93,6.93,0,0,0,1.57-4.79,6.48,6.48,0,0,0-1.55-4.59,5.1,5.1,0,0,0-3.91-1.67,5.35,5.35,0,0,0-4,1.67A6,6,0,0,0,989.19,873.42Z" transform="translate(-27.16 -19.4)"/><path d="M867,1000.66H863.5v-22a17.76,17.76,0,0,1-3.27,2.37,22.19,22.19,0,0,1-3.63,1.78v-3.33a20.54,20.54,0,0,0,5.06-3.29,12.91,12.91,0,0,0,3.06-3.76H867Zm8.82-7.36,3.62-.31a6.54,6.54,0,0,0,1.87,4,5.08,5.08,0,0,0,3.54,1.33,5.5,5.5,0,0,0,4.21-1.88,7.06,7.06,0,0,0,1.72-5,6.41,6.41,0,0,0-1.65-4.65,5.77,5.77,0,0,0-4.34-1.7,6,6,0,0,0-5.12,2.71l-3.23-.42L879.11,973h14v3.3h-11.2l-1.52,7.54a9.2,9.2,0,0,1,5.31-1.76,8.38,8.38,0,0,1,6.2,2.55,8.89,8.89,0,0,1,2.53,6.55,10.25,10.25,0,0,1-2.22,6.59,8.9,8.9,0,0,1-7.37,3.4,9.1,9.1,0,0,1-6.26-2.14,8.4,8.4,0,0,1-2.77-5.69Z" transform="translate(-27.16 -19.4)"/><path d="M1409.6,314.48v3.32H1391a6.31,6.31,0,0,1,.4-2.4,12.8,12.8,0,0,1,2.27-3.73,35,35,0,0,1,4.51-4.25,38.66,38.66,0,0,0,6.19-5.95,7.15,7.15,0,0,0,1.61-4.15,4.58,4.58,0,0,0-1.47-3.45,5.27,5.27,0,0,0-3.82-1.41,5.39,5.39,0,0,0-4,1.49,5.64,5.64,0,0,0-1.51,4.14l-3.55-.37a8.73,8.73,0,0,1,2.74-6,9.37,9.37,0,0,1,6.38-2.08,8.9,8.9,0,0,1,6.39,2.24,7.35,7.35,0,0,1,2.36,5.56,8.4,8.4,0,0,1-.69,3.31,12.71,12.71,0,0,1-2.29,3.43,54,54,0,0,1-5.31,4.94q-3.11,2.61-4,3.53a11.82,11.82,0,0,0-1.45,1.87Zm21.81,0v3.32h-18.56a6.13,6.13,0,0,1,.41-2.4,12.59,12.59,0,0,1,2.27-3.73,34.36,34.36,0,0,1,4.51-4.25,38.48,38.48,0,0,0,6.18-5.95,7.08,7.08,0,0,0,1.61-4.15,4.61,4.61,0,0,0-1.46-3.45,5.28,5.28,0,0,0-3.82-1.41,5.43,5.43,0,0,0-4,1.49,5.68,5.68,0,0,0-1.51,4.14l-3.54-.37a8.73,8.73,0,0,1,2.73-6,9.39,9.39,0,0,1,6.38-2.08,8.91,8.91,0,0,1,6.4,2.24,7.37,7.37,0,0,1,2.35,5.56,8.56,8.56,0,0,1-.68,3.31,13,13,0,0,1-2.29,3.43,55.6,55.6,0,0,1-5.32,4.94c-2.07,1.74-3.39,2.92-4,3.53a11.91,11.91,0,0,0-1.46,1.87Z" transform="translate(-27.16 -19.4)"/><path d="M1303.49,432.53v3.31h-18.55a5.87,5.87,0,0,1,.4-2.39,12.63,12.63,0,0,1,2.27-3.74,35.76,35.76,0,0,1,4.51-4.25,37.63,37.63,0,0,0,6.18-5.95,7.06,7.06,0,0,0,1.61-4.14,4.63,4.63,0,0,0-1.46-3.46,5.28,5.28,0,0,0-3.82-1.41,5.39,5.39,0,0,0-4,1.5,5.64,5.64,0,0,0-1.51,4.13l-3.54-.36a8.67,8.67,0,0,1,2.74-6,9.29,9.29,0,0,1,6.37-2.08,8.91,8.91,0,0,1,6.4,2.24,7.36,7.36,0,0,1,2.36,5.55,8.44,8.44,0,0,1-.69,3.32,13.28,13.28,0,0,1-2.29,3.43,56.94,56.94,0,0,1-5.32,4.94c-2.07,1.73-3.39,2.91-4,3.53a11.47,11.47,0,0,0-1.46,1.87Zm16.69,3.31h-3.45v-22a17.77,17.77,0,0,1-3.27,2.38,23,23,0,0,1-3.63,1.78V414.7a20.86,20.86,0,0,0,5.06-3.3,13,13,0,0,0,3.06-3.75h2.23Z" transform="translate(-27.16 -19.4)"/><path d="M1294.08,128.67h-3.45v-22a18,18,0,0,1-3.26,2.37,23,23,0,0,1-3.63,1.78v-3.33a20.77,20.77,0,0,0,5-3.29,12.8,12.8,0,0,0,3.07-3.76h2.22v28.19Zm14.13-15.22a6.47,6.47,0,0,1-3.18-2.24,5.85,5.85,0,0,1-1-3.49,6.81,6.81,0,0,1,2.2-5.15,9.26,9.26,0,0,1,11.78.05,6.92,6.92,0,0,1,2.24,5.2,5.77,5.77,0,0,1-1,3.4,6.5,6.5,0,0,1-3.11,2.23,7.54,7.54,0,0,1,3.93,2.72,7.46,7.46,0,0,1,1.35,4.48,8.05,8.05,0,0,1-2.55,6,10.37,10.37,0,0,1-13.4,0,8.17,8.17,0,0,1-2.55-6.14,7.38,7.38,0,0,1,1.39-4.58,7,7,0,0,1,4-2.52Zm-.69-5.84a4.34,4.34,0,0,0,1.29,3.25,4.94,4.94,0,0,0,6.6,0,4.17,4.17,0,0,0,1.27-3.07,4.32,4.32,0,0,0-1.31-3.19,4.83,4.83,0,0,0-6.54,0,4.07,4.07,0,0,0-1.31,3Zm-1.11,13a6.32,6.32,0,0,0,.7,2.86,4.92,4.92,0,0,0,2.08,2.13,6,6,0,0,0,3,.76,5.56,5.56,0,0,0,4.08-1.59,5.46,5.46,0,0,0,1.61-4,5.56,5.56,0,0,0-1.66-4.12,5.7,5.7,0,0,0-4.15-1.63,5.49,5.49,0,0,0-5.63,5.63Z" transform="translate(-27.16 -19.4)"/><path d="M1637.62,125.6v3.31h-18.55a5.9,5.9,0,0,1,.4-2.39,12.59,12.59,0,0,1,2.27-3.73,35,35,0,0,1,4.51-4.26,38.09,38.09,0,0,0,6.18-5.94,7.08,7.08,0,0,0,1.61-4.15,4.63,4.63,0,0,0-1.46-3.46,5.32,5.32,0,0,0-3.82-1.4,5.39,5.39,0,0,0-4,1.49,5.67,5.67,0,0,0-1.51,4.14l-3.54-.37a8.69,8.69,0,0,1,2.74-6,9.29,9.29,0,0,1,6.37-2.08,8.91,8.91,0,0,1,6.4,2.24,7.38,7.38,0,0,1,2.36,5.56,8.4,8.4,0,0,1-.69,3.31,13,13,0,0,1-2.29,3.43,55.6,55.6,0,0,1-5.32,4.94c-2.07,1.74-3.39,2.91-4,3.53a11.47,11.47,0,0,0-1.46,1.87Zm14.75,3.31v-6.72h-12.18V119L1653,100.84h2.82V119h3.79v3.16h-3.79v6.72Zm0-9.88V106.37L1643.58,119Z" transform="translate(-27.16 -19.4)"/><path d="M1745.14,241.61v3.31h-18.55a5.87,5.87,0,0,1,.4-2.39,12.63,12.63,0,0,1,2.27-3.74,35.76,35.76,0,0,1,4.51-4.25,37.63,37.63,0,0,0,6.18-5.95,7.06,7.06,0,0,0,1.61-4.14,4.63,4.63,0,0,0-1.46-3.46,5.28,5.28,0,0,0-3.82-1.41,5.39,5.39,0,0,0-4,1.5,5.64,5.64,0,0,0-1.51,4.13l-3.54-.36a8.67,8.67,0,0,1,2.74-6,9.29,9.29,0,0,1,6.37-2.08,8.91,8.91,0,0,1,6.4,2.24,7.37,7.37,0,0,1,2.36,5.56,8.43,8.43,0,0,1-.69,3.31,13.11,13.11,0,0,1-2.29,3.43,56.94,56.94,0,0,1-5.32,4.94c-2.07,1.73-3.39,2.91-4,3.53a11.47,11.47,0,0,0-1.46,1.87Zm3.93-21.09v-3.31h18.17v2.68a38.8,38.8,0,0,0-5.31,7.58,46.28,46.28,0,0,0-4.07,9.73,36.13,36.13,0,0,0-1.32,7.72H1753a33.83,33.83,0,0,1,1.3-8,42,42,0,0,1,3.57-9,38.52,38.52,0,0,1,5-7.35Z" transform="translate(-27.16 -19.4)"/><path d="M1637.54,360v3.31H1619a6,6,0,0,1,.4-2.39,12.63,12.63,0,0,1,2.27-3.74,36.47,36.47,0,0,1,4.51-4.25,37.79,37.79,0,0,0,6.19-5.95,7.12,7.12,0,0,0,1.61-4.14,4.6,4.6,0,0,0-1.47-3.46,5.28,5.28,0,0,0-3.82-1.41,5.35,5.35,0,0,0-4,1.5,5.65,5.65,0,0,0-1.52,4.13l-3.54-.36a8.71,8.71,0,0,1,2.74-6,9.32,9.32,0,0,1,6.38-2.08,8.9,8.9,0,0,1,6.39,2.24,7.36,7.36,0,0,1,2.36,5.55,8.44,8.44,0,0,1-.69,3.32,12.87,12.87,0,0,1-2.29,3.43,57.86,57.86,0,0,1-5.31,4.94q-3.11,2.59-4,3.53a11.38,11.38,0,0,0-1.45,1.87Zm9-11.92a6.47,6.47,0,0,1-3.18-2.24,5.84,5.84,0,0,1-1-3.48,6.81,6.81,0,0,1,2.2-5.15,8.13,8.13,0,0,1,5.86-2.09,8.25,8.25,0,0,1,5.92,2.13,6.94,6.94,0,0,1,2.24,5.2,5.66,5.66,0,0,1-1,3.4,6.39,6.39,0,0,1-3.11,2.23,7.63,7.63,0,0,1,3.94,2.72,7.51,7.51,0,0,1,1.35,4.49,8.07,8.07,0,0,1-2.55,6.05,10.38,10.38,0,0,1-13.41,0,8.21,8.21,0,0,1-2.54-6.14,7.47,7.47,0,0,1,1.38-4.59,7,7,0,0,1,4-2.52Zm-.69-5.84a4.39,4.39,0,0,0,1.28,3.26,4.57,4.57,0,0,0,3.33,1.26,4.45,4.45,0,0,0,3.27-1.25,4.14,4.14,0,0,0,1.27-3.07,4.27,4.27,0,0,0-1.31-3.19,4.42,4.42,0,0,0-3.26-1.3,4.49,4.49,0,0,0-3.28,1.27,4.05,4.05,0,0,0-1.3,3Zm-1.11,13a6.19,6.19,0,0,0,.7,2.85,4.94,4.94,0,0,0,2.08,2.14,6.09,6.09,0,0,0,3,.76,5.56,5.56,0,0,0,4.08-1.59,5.42,5.42,0,0,0,1.61-4.05,5.52,5.52,0,0,0-1.65-4.11,5.68,5.68,0,0,0-4.15-1.63,5.49,5.49,0,0,0-5.63,5.63Z" transform="translate(-27.16 -19.4)"/><path d="M1982,355.9l3.45-.46a7.56,7.56,0,0,0,2,4.22A5,5,0,0,0,1991,361a5.56,5.56,0,0,0,4.1-1.69,5.68,5.68,0,0,0,1.68-4.18,5.3,5.3,0,0,0-1.55-3.91,5.37,5.37,0,0,0-4-1.54,9.65,9.65,0,0,0-2.43.38l.38-3a4.41,4.41,0,0,0,.56,0,7,7,0,0,0,4-1.15,3.91,3.91,0,0,0,1.77-3.54,4.18,4.18,0,0,0-1.29-3.14,4.55,4.55,0,0,0-3.31-1.25,4.7,4.7,0,0,0-3.35,1.27,6.31,6.31,0,0,0-1.73,3.79l-3.44-.61a8.87,8.87,0,0,1,2.87-5.37,8.25,8.25,0,0,1,5.57-1.91,9.19,9.19,0,0,1,4.24,1,7.07,7.07,0,0,1,3,2.69,6.83,6.83,0,0,1,1,3.62,5.94,5.94,0,0,1-1,3.31,6.55,6.55,0,0,1-2.89,2.37,6.54,6.54,0,0,1,3.87,2.39,7.27,7.27,0,0,1,1.38,4.53,8.3,8.3,0,0,1-2.68,6.23,9.42,9.42,0,0,1-6.78,2.56,8.81,8.81,0,0,1-6.14-2.2,8.51,8.51,0,0,1-2.79-5.71Zm34.78,7.41h-3.45v-22a17.21,17.21,0,0,1-3.26,2.38,23.91,23.91,0,0,1-3.63,1.78v-3.33a21.05,21.05,0,0,0,5.06-3.3,13,13,0,0,0,3.06-3.75h2.22Z" transform="translate(-27.16 -19.4)"/><path d="M2085.65,237.26l3.45-.46a7.63,7.63,0,0,0,2,4.22,5,5,0,0,0,3.48,1.3,5.56,5.56,0,0,0,4.11-1.69,5.69,5.69,0,0,0,1.67-4.17,5.29,5.29,0,0,0-5.5-5.46,10.13,10.13,0,0,0-2.43.38l.39-3,.55,0a7.09,7.09,0,0,0,4-1.15,3.93,3.93,0,0,0,1.76-3.54,4.18,4.18,0,0,0-1.29-3.14,4.54,4.54,0,0,0-3.31-1.24,4.69,4.69,0,0,0-3.35,1.26,6.34,6.34,0,0,0-1.72,3.79l-3.45-.61a8.87,8.87,0,0,1,2.87-5.37,8.3,8.3,0,0,1,5.57-1.91,9.16,9.16,0,0,1,4.24,1,7.17,7.17,0,0,1,3,2.69,6.91,6.91,0,0,1,1,3.62,5.92,5.92,0,0,1-1,3.31,6.64,6.64,0,0,1-2.89,2.38,6.48,6.48,0,0,1,3.87,2.38,7.27,7.27,0,0,1,1.38,4.53,8.26,8.26,0,0,1-2.68,6.23,9.42,9.42,0,0,1-6.78,2.56,8.81,8.81,0,0,1-6.14-2.2,8.51,8.51,0,0,1-2.79-5.71Zm21.82,0,3.44-.46a7.63,7.63,0,0,0,2,4.22,5,5,0,0,0,3.48,1.3,5.56,5.56,0,0,0,4.11-1.69,5.65,5.65,0,0,0,1.67-4.17,5.27,5.27,0,0,0-1.55-3.92,5.34,5.34,0,0,0-3.94-1.54,10.13,10.13,0,0,0-2.43.38l.38-3,.55,0a7.09,7.09,0,0,0,4-1.15,3.93,3.93,0,0,0,1.76-3.54,4.21,4.21,0,0,0-1.28-3.14,4.57,4.57,0,0,0-3.32-1.24,4.71,4.71,0,0,0-3.35,1.26,6.34,6.34,0,0,0-1.72,3.79l-3.45-.61a8.87,8.87,0,0,1,2.87-5.37,8.34,8.34,0,0,1,5.58-1.91,9.15,9.15,0,0,1,4.23,1,7.11,7.11,0,0,1,3,2.69,6.91,6.91,0,0,1,1,3.62,5.91,5.91,0,0,1-1,3.31,6.7,6.7,0,0,1-2.89,2.38,6.46,6.46,0,0,1,3.86,2.38,7.27,7.27,0,0,1,1.38,4.53,8.26,8.26,0,0,1-2.68,6.23,9.42,9.42,0,0,1-6.78,2.56,8.83,8.83,0,0,1-6.14-2.2,8.55,8.55,0,0,1-2.78-5.71Z" transform="translate(-27.16 -19.4)"/><path d="M2353.17,121.25l3.44-.46a7.66,7.66,0,0,0,2,4.23,5,5,0,0,0,3.48,1.29,5.56,5.56,0,0,0,4.11-1.69,5.65,5.65,0,0,0,1.67-4.17,5.28,5.28,0,0,0-1.55-3.92,5.34,5.34,0,0,0-3.94-1.54,10.13,10.13,0,0,0-2.43.38l.38-3c.23,0,.41,0,.55,0a7.18,7.18,0,0,0,4-1.15,4,4,0,0,0,1.76-3.55,4.21,4.21,0,0,0-1.28-3.14,4.57,4.57,0,0,0-3.32-1.24,4.71,4.71,0,0,0-3.35,1.26,6.34,6.34,0,0,0-1.72,3.79l-3.45-.61a8.87,8.87,0,0,1,2.87-5.37,8.34,8.34,0,0,1,5.58-1.91,9.15,9.15,0,0,1,4.23,1,7.11,7.11,0,0,1,3,2.69,6.94,6.94,0,0,1,1,3.62,5.91,5.91,0,0,1-1,3.31,6.7,6.7,0,0,1-2.89,2.38,6.54,6.54,0,0,1,3.86,2.38,7.27,7.27,0,0,1,1.38,4.53,8.3,8.3,0,0,1-2.68,6.24,9.45,9.45,0,0,1-6.78,2.55A8.83,8.83,0,0,1,2356,127a8.55,8.55,0,0,1-2.78-5.71Zm21.79.06,3.62-.31a6.49,6.49,0,0,0,1.87,4,5.05,5.05,0,0,0,3.53,1.33,5.53,5.53,0,0,0,4.22-1.88,7.11,7.11,0,0,0,1.72-5,6.38,6.38,0,0,0-1.66-4.65,5.76,5.76,0,0,0-4.34-1.71,6,6,0,0,0-3,.76,5.87,5.87,0,0,0-2.11,2l-3.24-.42,2.72-14.42h14v3.3h-11.21l-1.51,7.54a9.14,9.14,0,0,1,5.3-1.76,8.4,8.4,0,0,1,6.21,2.55,8.91,8.91,0,0,1,2.53,6.55,10.21,10.21,0,0,1-2.22,6.58,8.89,8.89,0,0,1-7.38,3.41,9.07,9.07,0,0,1-6.25-2.14,8.36,8.36,0,0,1-2.77-5.69Z" transform="translate(-27.16 -19.4)"/><path d="M2461.74,237.26l3.45-.46a7.63,7.63,0,0,0,2,4.22,5,5,0,0,0,3.48,1.3,5.56,5.56,0,0,0,4.11-1.69,5.69,5.69,0,0,0,1.67-4.17A5.29,5.29,0,0,0,2471,231a10.13,10.13,0,0,0-2.43.38l.39-3,.55,0a7.09,7.09,0,0,0,4-1.15,3.93,3.93,0,0,0,1.76-3.54,4.18,4.18,0,0,0-1.29-3.14,4.54,4.54,0,0,0-3.31-1.24,4.69,4.69,0,0,0-3.35,1.26,6.34,6.34,0,0,0-1.72,3.79l-3.45-.61a8.87,8.87,0,0,1,2.87-5.37,8.3,8.3,0,0,1,5.57-1.91,9.16,9.16,0,0,1,4.24,1,7.17,7.17,0,0,1,3,2.69,6.91,6.91,0,0,1,1,3.62,5.92,5.92,0,0,1-1,3.31,6.64,6.64,0,0,1-2.89,2.38,6.48,6.48,0,0,1,3.87,2.38,7.27,7.27,0,0,1,1.38,4.53,8.3,8.3,0,0,1-2.68,6.23,9.42,9.42,0,0,1-6.78,2.56,8.81,8.81,0,0,1-6.14-2.2,8.51,8.51,0,0,1-2.79-5.71Zm22.31.92,3.32-.31a5.75,5.75,0,0,0,1.61,3.39,4.37,4.37,0,0,0,3,1.06,5.32,5.32,0,0,0,2.79-.73,6,6,0,0,0,2-1.94,11.73,11.73,0,0,0,1.29-3.29,17.51,17.51,0,0,0,.51-4.21c0-.16,0-.39,0-.69a7.87,7.87,0,0,1-2.82,2.67,7.73,7.73,0,0,1-3.88,1,7.86,7.86,0,0,1-5.9-2.52,9.26,9.26,0,0,1-2.41-6.67,9.44,9.44,0,0,1,2.52-6.87,8.4,8.4,0,0,1,6.31-2.61,9,9,0,0,1,5,1.48,9.16,9.16,0,0,1,3.44,4.2,20.6,20.6,0,0,1,1.18,7.9,25.54,25.54,0,0,1-1.17,8.57,10.13,10.13,0,0,1-3.47,4.86,9,9,0,0,1-5.41,1.66,7.42,7.42,0,0,1-7.9-7Zm14.12-12.39a6.76,6.76,0,0,0-1.58-4.71,5,5,0,0,0-3.8-1.74,5.23,5.23,0,0,0-4,1.87,6.94,6.94,0,0,0-1.71,4.87,6,6,0,0,0,1.62,4.35,5.32,5.32,0,0,0,4,1.68,5.11,5.11,0,0,0,3.94-1.68,6.57,6.57,0,0,0,1.54-4.64Z" transform="translate(-27.16 -19.4)"/><path d="M2353.27,355.9l3.45-.46a7.63,7.63,0,0,0,2,4.22,5,5,0,0,0,3.48,1.3,5.56,5.56,0,0,0,4.1-1.69,5.68,5.68,0,0,0,1.68-4.18,5.3,5.3,0,0,0-1.55-3.91,5.37,5.37,0,0,0-3.95-1.54,9.65,9.65,0,0,0-2.43.38l.38-3a4.41,4.41,0,0,0,.56,0,7,7,0,0,0,4-1.15,3.91,3.91,0,0,0,1.77-3.54,4.18,4.18,0,0,0-1.29-3.14,4.55,4.55,0,0,0-3.31-1.25,4.7,4.7,0,0,0-3.35,1.27,6.31,6.31,0,0,0-1.73,3.79l-3.44-.61a8.92,8.92,0,0,1,2.87-5.38,8.29,8.29,0,0,1,5.57-1.9,9.16,9.16,0,0,1,4.24,1,7,7,0,0,1,2.95,2.69,6.83,6.83,0,0,1,1,3.62,5.94,5.94,0,0,1-1,3.31,6.55,6.55,0,0,1-2.89,2.37,6.54,6.54,0,0,1,3.87,2.39,7.27,7.27,0,0,1,1.38,4.53,8.3,8.3,0,0,1-2.68,6.23,9.42,9.42,0,0,1-6.78,2.56,8.86,8.86,0,0,1-6.14-2.2,8.51,8.51,0,0,1-2.79-5.71Zm22-17V335.6h18.17v2.68a38,38,0,0,0-5.31,7.58,46.28,46.28,0,0,0-4.07,9.73,36,36,0,0,0-1.32,7.72h-3.55a34.44,34.44,0,0,1,1.31-8,42,42,0,0,1,3.57-9.05,38.52,38.52,0,0,1,5-7.35Z" transform="translate(-27.16 -19.4)"/><path d="M144.74,868.67a25.83,25.83,0,0,1,1-8,10,10,0,0,1,3-4.68,7.8,7.8,0,0,1,5.09-1.65,8.33,8.33,0,0,1,4,.91,7.55,7.55,0,0,1,2.82,2.63,14,14,0,0,1,1.74,4.17,27.88,27.88,0,0,1,.63,6.64,25.75,25.75,0,0,1-1,8,10,10,0,0,1-3,4.69,7.79,7.79,0,0,1-5.1,1.65,7.71,7.71,0,0,1-6.38-2.91q-2.78-3.5-2.78-11.41Zm3.55,0q0,6.92,1.62,9.2a4.62,4.62,0,0,0,8,0q1.62-2.29,1.62-9.19t-1.62-9.21a4.8,4.8,0,0,0-4-2.28,4.41,4.41,0,0,0-3.79,2q-1.78,2.56-1.78,9.48Zm29.32,13.85v-6.73H165.43v-3.16l12.81-18.19h2.82v18.19h3.79v3.16h-3.79v6.73Zm0-9.89V860l-8.79,12.66Z" transform="translate(-27.16 -19.4)"/><path d="M252.46,986.81a25.86,25.86,0,0,1,1-8,10,10,0,0,1,3-4.68,7.75,7.75,0,0,1,5.08-1.65,8.4,8.4,0,0,1,4,.91,7.59,7.59,0,0,1,2.81,2.63,14.27,14.27,0,0,1,1.75,4.17,27.88,27.88,0,0,1,.63,6.64,25.72,25.72,0,0,1-1,8,10,10,0,0,1-3,4.69,7.82,7.82,0,0,1-5.11,1.65,7.69,7.69,0,0,1-6.37-2.91q-2.79-3.5-2.78-11.41Zm3.54,0q0,6.91,1.62,9.2a4.62,4.62,0,0,0,8,0q1.61-2.29,1.61-9.19t-1.61-9.21a4.82,4.82,0,0,0-4-2.28,4.42,4.42,0,0,0-3.79,2Q256,979.9,256,986.81Zm18.5-10.55v-3.32h18.18v2.68a38.48,38.48,0,0,0-5.32,7.59,46.59,46.59,0,0,0-4.07,9.73,36,36,0,0,0-1.32,7.72h-3.54a34.51,34.51,0,0,1,1.3-8,42.18,42.18,0,0,1,3.57-9,38.74,38.74,0,0,1,4.95-7.34Z" transform="translate(-27.16 -19.4)"/><path d="M515.65,868.67a25.86,25.86,0,0,1,1-8,10,10,0,0,1,3-4.68,7.8,7.8,0,0,1,5.09-1.65,8.33,8.33,0,0,1,4,.91,7.55,7.55,0,0,1,2.82,2.63,14,14,0,0,1,1.74,4.17,27.88,27.88,0,0,1,.63,6.64,25.75,25.75,0,0,1-1,8,10,10,0,0,1-3,4.69,8.56,8.56,0,0,1-11.48-1.26q-2.77-3.5-2.77-11.41Zm3.54,0q0,6.92,1.62,9.2a4.62,4.62,0,0,0,8,0q1.62-2.29,1.62-9.19t-1.62-9.21a4.8,4.8,0,0,0-4-2.28,4.41,4.41,0,0,0-3.79,2q-1.79,2.56-1.78,9.48ZM538,876l3.31-.3a5.81,5.81,0,0,0,1.61,3.39,4.41,4.41,0,0,0,3,1,5.23,5.23,0,0,0,2.79-.73,5.86,5.86,0,0,0,2-1.94A11.61,11.61,0,0,0,552,874.2a17.51,17.51,0,0,0,.51-4.21c0-.15,0-.38,0-.69a7.87,7.87,0,0,1-2.82,2.67,7.61,7.61,0,0,1-3.88,1,7.87,7.87,0,0,1-5.9-2.53,9.26,9.26,0,0,1-2.41-6.67,9.47,9.47,0,0,1,2.52-6.87,8.4,8.4,0,0,1,6.31-2.61,9.05,9.05,0,0,1,8.45,5.68,20.63,20.63,0,0,1,1.18,7.9,25.5,25.5,0,0,1-1.17,8.57,10,10,0,0,1-3.47,4.86,9,9,0,0,1-5.41,1.66,7.4,7.4,0,0,1-7.89-7Zm14.11-12.39a6.76,6.76,0,0,0-1.58-4.71,5,5,0,0,0-3.8-1.74,5.23,5.23,0,0,0-4,1.87,7,7,0,0,0-1.71,4.87,6,6,0,0,0,1.62,4.36,5.35,5.35,0,0,0,4,1.67,5.14,5.14,0,0,0,3.94-1.67,6.61,6.61,0,0,0,1.54-4.65Z" transform="translate(-27.16 -19.4)"/><path d="M637.5,1000.89h-3.44v-22a17.76,17.76,0,0,1-3.27,2.37,23,23,0,0,1-3.63,1.78v-3.33a20.83,20.83,0,0,0,5.06-3.29,12.91,12.91,0,0,0,3.06-3.76h2.22Zm27-3.31v3.31H645.89a6.08,6.08,0,0,1,.41-2.39,12.55,12.55,0,0,1,2.26-3.73,36.41,36.41,0,0,1,4.51-4.26,37.84,37.84,0,0,0,6.19-5.94,7.15,7.15,0,0,0,1.61-4.15A4.62,4.62,0,0,0,659.4,977a5.3,5.3,0,0,0-3.82-1.4,5.36,5.36,0,0,0-4,1.49,5.64,5.64,0,0,0-1.51,4.14l-3.55-.37a8.78,8.78,0,0,1,2.74-6,9.39,9.39,0,0,1,6.38-2.08,8.93,8.93,0,0,1,6.4,2.24,7.37,7.37,0,0,1,2.35,5.56,8.4,8.4,0,0,1-.69,3.31,12.71,12.71,0,0,1-2.29,3.43,54,54,0,0,1-5.31,4.94q-3.11,2.61-4,3.53a11.35,11.35,0,0,0-1.46,1.87Z" transform="translate(-27.16 -19.4)"/><path d="M867.11,882.75h-3.45v-22a18,18,0,0,1-3.26,2.37,23,23,0,0,1-3.63,1.78v-3.33a21,21,0,0,0,5.05-3.29,12.8,12.8,0,0,0,3.07-3.76h2.22Zm19.88,0V876H874.81v-3.16l12.81-18.19h2.82v18.19h3.79V876h-3.79v6.72Zm0-9.88V860.21l-8.79,12.66Z" transform="translate(-27.16 -19.4)"/><path d="M976.54,1000.89H973.1v-22a17.76,17.76,0,0,1-3.27,2.37,23,23,0,0,1-3.63,1.78v-3.33a21,21,0,0,0,5.06-3.29,12.91,12.91,0,0,0,3.06-3.76h2.22Zm9.06-24.39v-3.32h18.18v2.68a38.48,38.48,0,0,0-5.32,7.59,46.37,46.37,0,0,0-4.07,9.73,36,36,0,0,0-1.32,7.71h-3.54a34.52,34.52,0,0,1,1.3-8,42,42,0,0,1,3.57-9,38.74,38.74,0,0,1,5-7.34Z" transform="translate(-27.16 -19.4)"/><path d="M1300.83,314.24v3.32h-18.56a6.13,6.13,0,0,1,.41-2.4,12.59,12.59,0,0,1,2.27-3.73,34.36,34.36,0,0,1,4.51-4.25,38.48,38.48,0,0,0,6.18-5.95,7.13,7.13,0,0,0,1.61-4.15,4.61,4.61,0,0,0-1.46-3.45,5.29,5.29,0,0,0-3.83-1.41,5.4,5.4,0,0,0-4,1.49,5.68,5.68,0,0,0-1.51,4.14l-3.54-.36a8.73,8.73,0,0,1,2.73-6.05,9.39,9.39,0,0,1,6.38-2.08,8.88,8.88,0,0,1,6.4,2.25,7.34,7.34,0,0,1,2.35,5.55,8.4,8.4,0,0,1-.69,3.31,12.89,12.89,0,0,1-2.28,3.43,55.6,55.6,0,0,1-5.32,4.94c-2.07,1.74-3.39,2.92-4,3.54a11.86,11.86,0,0,0-1.46,1.86Zm3.7-10.53a25.86,25.86,0,0,1,1-8,10,10,0,0,1,3-4.68,7.77,7.77,0,0,1,5.08-1.65,8.4,8.4,0,0,1,4,.91,7.68,7.68,0,0,1,2.81,2.63,14.27,14.27,0,0,1,1.75,4.17,27.88,27.88,0,0,1,.63,6.64,25.72,25.72,0,0,1-1,8,10,10,0,0,1-3,4.69,7.82,7.82,0,0,1-5.11,1.65,7.69,7.69,0,0,1-6.37-2.91q-2.79-3.5-2.78-11.41Zm3.54,0q0,6.92,1.62,9.2a4.62,4.62,0,0,0,8,0q1.6-2.29,1.61-9.19t-1.61-9.21a4.82,4.82,0,0,0-4-2.28,4.42,4.42,0,0,0-3.79,2c-1.18,1.71-1.78,4.87-1.78,9.48Z" transform="translate(-27.16 -19.4)"/><path d="M1409.46,432.28v3.31H1390.9a6,6,0,0,1,.4-2.39,12.63,12.63,0,0,1,2.27-3.74,35.76,35.76,0,0,1,4.51-4.25,38.22,38.22,0,0,0,6.19-5.95,7.1,7.1,0,0,0,1.6-4.14,4.59,4.59,0,0,0-1.46-3.46,5.28,5.28,0,0,0-3.82-1.41,5.39,5.39,0,0,0-4,1.5,5.64,5.64,0,0,0-1.51,4.13l-3.54-.36a8.67,8.67,0,0,1,2.74-6,9.31,9.31,0,0,1,6.37-2.08,8.91,8.91,0,0,1,6.4,2.24,7.36,7.36,0,0,1,2.36,5.55,8.44,8.44,0,0,1-.69,3.32,12.87,12.87,0,0,1-2.29,3.43,56.94,56.94,0,0,1-5.32,4.94q-3.09,2.6-4,3.53a10.86,10.86,0,0,0-1.45,1.87Zm3.71-4.1,3.45-.46a7.56,7.56,0,0,0,2,4.22,5,5,0,0,0,3.48,1.3,5.56,5.56,0,0,0,4.1-1.69,5.68,5.68,0,0,0,1.68-4.18,5.3,5.3,0,0,0-1.55-3.91,5.37,5.37,0,0,0-3.95-1.54,9.65,9.65,0,0,0-2.43.38l.38-3a4.41,4.41,0,0,0,.56,0,7,7,0,0,0,4-1.15,3.9,3.9,0,0,0,1.76-3.54,4.18,4.18,0,0,0-1.28-3.14,4.55,4.55,0,0,0-3.31-1.25,4.7,4.7,0,0,0-3.35,1.27,6.31,6.31,0,0,0-1.73,3.79l-3.44-.61a8.82,8.82,0,0,1,2.87-5.37,8.3,8.3,0,0,1,5.57-1.91,9.15,9.15,0,0,1,4.23,1,7,7,0,0,1,3,2.69,6.83,6.83,0,0,1,1,3.62,5.94,5.94,0,0,1-1,3.31,6.55,6.55,0,0,1-2.89,2.37,6.54,6.54,0,0,1,3.87,2.39,7.27,7.27,0,0,1,1.38,4.53,8.3,8.3,0,0,1-2.68,6.23,9.42,9.42,0,0,1-6.78,2.56,8.81,8.81,0,0,1-6.14-2.2,8.51,8.51,0,0,1-2.79-5.71Z" transform="translate(-27.16 -19.4)"/><path d="M1402.75,128.67h-3.45v-22a17.66,17.66,0,0,1-3.26,2.37,23,23,0,0,1-3.63,1.78v-3.33a20.77,20.77,0,0,0,5-3.29,12.8,12.8,0,0,0,3.07-3.76h2.22v28.19Zm9.35-6.49,3.31-.3a5.81,5.81,0,0,0,1.61,3.39,4.43,4.43,0,0,0,3,1,5.23,5.23,0,0,0,2.79-.73,5.86,5.86,0,0,0,2-1.94,11.61,11.61,0,0,0,1.29-3.29,17.51,17.51,0,0,0,.51-4.21c0-.15,0-.38,0-.69a8,8,0,0,1-6.7,3.7,7.87,7.87,0,0,1-5.9-2.53,9.26,9.26,0,0,1-2.41-6.67,9.46,9.46,0,0,1,2.52-6.87,8.4,8.4,0,0,1,6.31-2.61,9,9,0,0,1,5,1.48,9.16,9.16,0,0,1,3.44,4.2,20.6,20.6,0,0,1,1.18,7.9,25.5,25.5,0,0,1-1.17,8.57,10,10,0,0,1-3.47,4.86,9,9,0,0,1-5.41,1.66,7.42,7.42,0,0,1-7.89-7Zm14.11-12.39a6.71,6.71,0,0,0-1.58-4.71,5,5,0,0,0-3.8-1.74,5.23,5.23,0,0,0-4,1.87,7,7,0,0,0-1.71,4.87,6,6,0,0,0,1.62,4.36,5.35,5.35,0,0,0,4,1.67,5.14,5.14,0,0,0,3.94-1.67,6.61,6.61,0,0,0,1.54-4.65Z" transform="translate(-27.16 -19.4)"/><path d="M1745,125.36v3.31h-18.56a6.07,6.07,0,0,1,.4-2.39,12.59,12.59,0,0,1,2.27-3.73,35.7,35.7,0,0,1,4.51-4.26,38.27,38.27,0,0,0,6.19-5.94,7.15,7.15,0,0,0,1.61-4.15,4.62,4.62,0,0,0-1.47-3.46,6,6,0,0,0-7.8.09,5.69,5.69,0,0,0-1.52,4.14l-3.54-.37a8.73,8.73,0,0,1,2.74-6,9.37,9.37,0,0,1,6.38-2.08,8.9,8.9,0,0,1,6.39,2.24,7.38,7.38,0,0,1,2.36,5.56,8.4,8.4,0,0,1-.69,3.31A12.71,12.71,0,0,1,1742,115a55.21,55.21,0,0,1-5.31,4.94c-2.07,1.74-3.4,2.91-4,3.53a11.82,11.82,0,0,0-1.45,1.87Zm3.69-4,3.62-.31a6.49,6.49,0,0,0,1.87,4,5.12,5.12,0,0,0,3.54,1.33,5.5,5.5,0,0,0,4.21-1.88,7.06,7.06,0,0,0,1.72-5,6.4,6.4,0,0,0-1.65-4.65,5.78,5.78,0,0,0-4.34-1.71,6.06,6.06,0,0,0-3,.76,6,6,0,0,0-2.11,2l-3.23-.42,2.72-14.42h14v3.29h-11.2l-1.52,7.55a9.2,9.2,0,0,1,5.31-1.76,8.38,8.38,0,0,1,6.2,2.55,8.87,8.87,0,0,1,2.53,6.55,10.21,10.21,0,0,1-2.22,6.58,8.88,8.88,0,0,1-7.37,3.41,9.1,9.1,0,0,1-6.26-2.14,8.4,8.4,0,0,1-2.77-5.69Z" transform="translate(-27.16 -19.4)"/><path d="M1637.58,241.37v3.31H1619a6,6,0,0,1,.4-2.39,12.63,12.63,0,0,1,2.27-3.74,35.76,35.76,0,0,1,4.51-4.25,38.7,38.7,0,0,0,6.19-5.94,7.16,7.16,0,0,0,1.6-4.15,4.59,4.59,0,0,0-1.46-3.46,5.28,5.28,0,0,0-3.82-1.41,5.35,5.35,0,0,0-4,1.5,5.61,5.61,0,0,0-1.52,4.14l-3.54-.37a8.67,8.67,0,0,1,2.74-6,9.32,9.32,0,0,1,6.38-2.08,8.9,8.9,0,0,1,6.39,2.24,7.38,7.38,0,0,1,2.36,5.56,8.43,8.43,0,0,1-.69,3.31,12.87,12.87,0,0,1-2.29,3.43,56.94,56.94,0,0,1-5.32,4.94q-3.09,2.59-4,3.53a10.86,10.86,0,0,0-1.45,1.87Zm21.58-17.89-3.43.27a6.45,6.45,0,0,0-1.3-2.95,4.57,4.57,0,0,0-3.45-1.47,4.74,4.74,0,0,0-2.89.91,8,8,0,0,0-2.57,3.47,18.12,18.12,0,0,0-1,6.49,8,8,0,0,1,3-2.81,8.24,8.24,0,0,1,3.78-.92,7.81,7.81,0,0,1,5.87,2.54,9.11,9.11,0,0,1,2.42,6.56,10.78,10.78,0,0,1-1.14,4.91,8.26,8.26,0,0,1-3.13,3.47,8.52,8.52,0,0,1-4.52,1.21,8.83,8.83,0,0,1-7-3.17q-2.71-3.17-2.72-10.45,0-8.13,3-11.83a8.62,8.62,0,0,1,7.06-3.22,7.53,7.53,0,0,1,8,7Zm-14.08,12.11a8,8,0,0,0,.76,3.4,5.53,5.53,0,0,0,2.12,2.48,5.25,5.25,0,0,0,2.85.86,4.83,4.83,0,0,0,3.75-1.77,6.9,6.9,0,0,0,1.57-4.78,6.48,6.48,0,0,0-1.55-4.59,5.07,5.07,0,0,0-3.9-1.68,5.33,5.33,0,0,0-4,1.68,6.07,6.07,0,0,0-1.63,4.4Z" transform="translate(-27.16 -19.4)"/><path d="M1745.12,360v3.31h-18.56a6,6,0,0,1,.4-2.39,12.63,12.63,0,0,1,2.27-3.74,35.76,35.76,0,0,1,4.51-4.25,37.63,37.63,0,0,0,6.18-5.95,7.06,7.06,0,0,0,1.61-4.14,4.59,4.59,0,0,0-1.46-3.46,5.28,5.28,0,0,0-3.82-1.41,5.39,5.39,0,0,0-4,1.5,5.64,5.64,0,0,0-1.51,4.13l-3.54-.36a8.67,8.67,0,0,1,2.74-6,9.31,9.31,0,0,1,6.37-2.08,8.91,8.91,0,0,1,6.4,2.24,7.36,7.36,0,0,1,2.36,5.55,8.44,8.44,0,0,1-.69,3.32,13.11,13.11,0,0,1-2.29,3.43,56.94,56.94,0,0,1-5.32,4.94q-3.09,2.59-4,3.53a11.47,11.47,0,0,0-1.46,1.87h13.78Zm4.21-3.18,3.31-.31a5.75,5.75,0,0,0,1.61,3.39,4.43,4.43,0,0,0,3,1,5.28,5.28,0,0,0,2.78-.72,6.11,6.11,0,0,0,2-1.95,11.55,11.55,0,0,0,1.28-3.28,17.52,17.52,0,0,0,.52-4.21c0-.16,0-.39,0-.69a8,8,0,0,1-2.83,2.67,7.68,7.68,0,0,1-3.88,1,7.84,7.84,0,0,1-5.9-2.53,9.26,9.26,0,0,1-2.41-6.66,9.48,9.48,0,0,1,2.52-6.88,8.43,8.43,0,0,1,6.31-2.6,9,9,0,0,1,5,1.47,9.32,9.32,0,0,1,3.45,4.21,20.82,20.82,0,0,1,1.17,7.9,25.83,25.83,0,0,1-1.16,8.57,10.05,10.05,0,0,1-3.48,4.85,9,9,0,0,1-5.41,1.67,7.42,7.42,0,0,1-7.89-7Zm14.11-12.39a6.71,6.71,0,0,0-1.58-4.71,4.93,4.93,0,0,0-3.8-1.75,5.26,5.26,0,0,0-4,1.88,6.93,6.93,0,0,0-1.71,4.86,6,6,0,0,0,1.62,4.36,5.33,5.33,0,0,0,4,1.68,5.11,5.11,0,0,0,3.93-1.68A6.58,6.58,0,0,0,1763.44,344.44Z" transform="translate(-27.16 -19.4)"/><path d="M1979.37,237.26l3.45-.46a7.56,7.56,0,0,0,2,4.22,5,5,0,0,0,3.47,1.3,5.56,5.56,0,0,0,4.11-1.69,5.66,5.66,0,0,0,1.68-4.17,5.3,5.3,0,0,0-1.55-3.92,5.37,5.37,0,0,0-4-1.54,10.13,10.13,0,0,0-2.43.38l.38-3,.56,0a7,7,0,0,0,4-1.15,3.9,3.9,0,0,0,1.76-3.54,4.18,4.18,0,0,0-1.28-3.14,4.56,4.56,0,0,0-3.31-1.24,4.69,4.69,0,0,0-3.35,1.26,6.34,6.34,0,0,0-1.73,3.79l-3.45-.61a8.88,8.88,0,0,1,2.88-5.37,8.3,8.3,0,0,1,5.57-1.91,9.15,9.15,0,0,1,4.23,1,7.11,7.11,0,0,1,3,2.69,6.83,6.83,0,0,1,1,3.62,5.92,5.92,0,0,1-1,3.31,6.7,6.7,0,0,1-2.89,2.38,6.48,6.48,0,0,1,3.87,2.38,7.27,7.27,0,0,1,1.38,4.53,8.27,8.27,0,0,1-2.69,6.23,9.39,9.39,0,0,1-6.78,2.56,8.78,8.78,0,0,1-6.13-2.2,8.51,8.51,0,0,1-2.79-5.71Zm21.79-6.43a25.78,25.78,0,0,1,1-8,10,10,0,0,1,3-4.68,7.8,7.8,0,0,1,5.09-1.65,8.21,8.21,0,0,1,4,.91,7.6,7.6,0,0,1,2.82,2.62,14.18,14.18,0,0,1,1.74,4.18,27.82,27.82,0,0,1,.63,6.64,25.64,25.64,0,0,1-1,8,10,10,0,0,1-3,4.7,7.79,7.79,0,0,1-5.1,1.65,7.71,7.71,0,0,1-6.38-2.91q-2.78-3.51-2.78-11.41Zm3.55,0c0,4.61.54,7.67,1.62,9.2a4.62,4.62,0,0,0,8,0c1.08-1.53,1.62-4.6,1.62-9.19s-.54-7.7-1.62-9.22a4.79,4.79,0,0,0-4-2.27,4.41,4.41,0,0,0-3.79,2q-1.79,2.57-1.78,9.48Z" transform="translate(-27.16 -19.4)"/><path d="M2085.8,121.25l3.44-.46a7.66,7.66,0,0,0,2,4.23,5,5,0,0,0,3.48,1.29,5.56,5.56,0,0,0,4.11-1.69,5.65,5.65,0,0,0,1.67-4.17,5.28,5.28,0,0,0-1.55-3.92A5.34,5.34,0,0,0,2095,115a10.13,10.13,0,0,0-2.43.38l.38-3c.23,0,.41,0,.55,0a7.18,7.18,0,0,0,4-1.15,4,4,0,0,0,1.76-3.55,4.21,4.21,0,0,0-1.28-3.14,4.57,4.57,0,0,0-3.32-1.24,4.71,4.71,0,0,0-3.35,1.26,6.34,6.34,0,0,0-1.72,3.79l-3.45-.61a8.87,8.87,0,0,1,2.87-5.37,8.34,8.34,0,0,1,5.58-1.91,9.15,9.15,0,0,1,4.23,1,7.11,7.11,0,0,1,3,2.69,6.94,6.94,0,0,1,1,3.62,5.91,5.91,0,0,1-1,3.31,6.7,6.7,0,0,1-2.89,2.38,6.54,6.54,0,0,1,3.86,2.38,7.27,7.27,0,0,1,1.38,4.53,8.3,8.3,0,0,1-2.68,6.24,9.45,9.45,0,0,1-6.78,2.55,8.83,8.83,0,0,1-6.14-2.2,8.55,8.55,0,0,1-2.78-5.71Zm39.91,4.1v3.31h-18.56a6.26,6.26,0,0,1,.4-2.39,12.8,12.8,0,0,1,2.27-3.73,35.7,35.7,0,0,1,4.51-4.26,38.27,38.27,0,0,0,6.19-5.94,7.15,7.15,0,0,0,1.61-4.15,4.62,4.62,0,0,0-1.47-3.46,6,6,0,0,0-7.8.09,5.64,5.64,0,0,0-1.51,4.14l-3.55-.37a8.73,8.73,0,0,1,2.74-6,9.37,9.37,0,0,1,6.38-2.08,8.9,8.9,0,0,1,6.39,2.24,7.35,7.35,0,0,1,2.36,5.56,8.4,8.4,0,0,1-.69,3.31,12.71,12.71,0,0,1-2.29,3.43,54,54,0,0,1-5.31,4.94q-3.11,2.61-4,3.53a11.82,11.82,0,0,0-1.45,1.87Z" transform="translate(-27.16 -19.4)"/><path d="M2085.71,355.9l3.45-.46a7.56,7.56,0,0,0,2,4.22,5,5,0,0,0,3.47,1.3,5.57,5.57,0,0,0,4.11-1.69,5.68,5.68,0,0,0,1.68-4.18,5.3,5.3,0,0,0-1.55-3.91,5.37,5.37,0,0,0-3.95-1.54,9.65,9.65,0,0,0-2.43.38l.38-3a4.41,4.41,0,0,0,.56,0,7,7,0,0,0,4-1.15,3.9,3.9,0,0,0,1.76-3.54,4.18,4.18,0,0,0-1.28-3.14,4.55,4.55,0,0,0-3.31-1.25,4.7,4.7,0,0,0-3.35,1.27,6.31,6.31,0,0,0-1.73,3.79l-3.44-.61a8.87,8.87,0,0,1,2.87-5.38,8.29,8.29,0,0,1,5.57-1.9,9.15,9.15,0,0,1,4.23,1,7,7,0,0,1,3,2.69,6.83,6.83,0,0,1,1,3.62,5.94,5.94,0,0,1-1,3.31,6.55,6.55,0,0,1-2.89,2.37,6.54,6.54,0,0,1,3.87,2.39,7.27,7.27,0,0,1,1.38,4.53,8.3,8.3,0,0,1-2.68,6.23,9.42,9.42,0,0,1-6.78,2.56,8.86,8.86,0,0,1-6.14-2.2,8.51,8.51,0,0,1-2.79-5.71Zm32.85,7.41v-6.72h-12.18v-3.16l12.81-18.2H2122v18.2h3.8v3.16H2122v6.72Zm0-9.88V340.77l-8.79,12.66Z" transform="translate(-27.16 -19.4)"/><path d="M2353.28,237.26l3.45-.46a7.56,7.56,0,0,0,2,4.22,5,5,0,0,0,3.48,1.3,5.52,5.52,0,0,0,4.1-1.69,5.66,5.66,0,0,0,1.68-4.17,5.3,5.3,0,0,0-1.55-3.92,5.37,5.37,0,0,0-3.95-1.54,10.13,10.13,0,0,0-2.43.38l.38-3,.56,0a7,7,0,0,0,4-1.15,3.91,3.91,0,0,0,1.77-3.54,4.18,4.18,0,0,0-1.29-3.14,4.54,4.54,0,0,0-3.31-1.24,4.69,4.69,0,0,0-3.35,1.26,6.34,6.34,0,0,0-1.73,3.79l-3.44-.61a8.87,8.87,0,0,1,2.87-5.37,8.3,8.3,0,0,1,5.57-1.91,9.19,9.19,0,0,1,4.24,1,7.14,7.14,0,0,1,3,2.69,6.83,6.83,0,0,1,1,3.62,5.92,5.92,0,0,1-1,3.31,6.64,6.64,0,0,1-2.89,2.38,6.48,6.48,0,0,1,3.87,2.38,7.27,7.27,0,0,1,1.38,4.53,8.3,8.3,0,0,1-2.68,6.23,9.42,9.42,0,0,1-6.78,2.56,8.81,8.81,0,0,1-6.14-2.2,8.51,8.51,0,0,1-2.79-5.71ZM2393,223.47l-3.42.27a6.45,6.45,0,0,0-1.31-3,4.56,4.56,0,0,0-3.44-1.47,4.71,4.71,0,0,0-2.9.92,7.81,7.81,0,0,0-2.56,3.46,18.13,18.13,0,0,0-1,6.49,8,8,0,0,1,3.05-2.81,8.2,8.2,0,0,1,3.77-.92A7.83,7.83,0,0,1,2391,229a9.13,9.13,0,0,1,2.42,6.56,10.78,10.78,0,0,1-1.14,4.91,8.35,8.35,0,0,1-3.13,3.48,8.58,8.58,0,0,1-4.52,1.2,8.83,8.83,0,0,1-7-3.17q-2.71-3.16-2.72-10.45,0-8.13,3-11.83a8.63,8.63,0,0,1,7.07-3.22,7.51,7.51,0,0,1,8,7Zm-14.07,12.11a8,8,0,0,0,.75,3.4,5.59,5.59,0,0,0,2.12,2.48,5.3,5.3,0,0,0,2.85.86,4.89,4.89,0,0,0,3.76-1.76,7,7,0,0,0,1.57-4.79,6.52,6.52,0,0,0-1.55-4.59,5.11,5.11,0,0,0-3.91-1.68,5.29,5.29,0,0,0-4,1.68,6,6,0,0,0-1.63,4.4Z" transform="translate(-27.16 -19.4)"/><path d="M2461.74,121.25l3.45-.46a7.66,7.66,0,0,0,2,4.23,5,5,0,0,0,3.48,1.29,5.52,5.52,0,0,0,4.1-1.69,5.66,5.66,0,0,0,1.68-4.17A5.29,5.29,0,0,0,2471,115a10.13,10.13,0,0,0-2.43.38l.38-3,.56,0a7.12,7.12,0,0,0,4-1.15,3.94,3.94,0,0,0,1.77-3.55,4.18,4.18,0,0,0-1.29-3.14,4.54,4.54,0,0,0-3.31-1.24,4.69,4.69,0,0,0-3.35,1.26,6.34,6.34,0,0,0-1.72,3.79l-3.45-.61a8.87,8.87,0,0,1,2.87-5.37,8.3,8.3,0,0,1,5.57-1.91,9.16,9.16,0,0,1,4.24,1,7.17,7.17,0,0,1,3,2.69,6.94,6.94,0,0,1,1,3.62,5.92,5.92,0,0,1-1,3.31,6.64,6.64,0,0,1-2.89,2.38,6.53,6.53,0,0,1,3.87,2.38,7.27,7.27,0,0,1,1.38,4.53,8.34,8.34,0,0,1-2.68,6.24,9.45,9.45,0,0,1-6.78,2.55,8.81,8.81,0,0,1-6.14-2.2,8.51,8.51,0,0,1-2.79-5.71Zm27.1-7.81a6.47,6.47,0,0,1-3.18-2.24,5.85,5.85,0,0,1-1-3.49,6.81,6.81,0,0,1,2.2-5.15,9.26,9.26,0,0,1,11.78,0,6.92,6.92,0,0,1,2.24,5.2,5.77,5.77,0,0,1-1,3.4,6.48,6.48,0,0,1-3.12,2.23,7.53,7.53,0,0,1,3.94,2.72,7.46,7.46,0,0,1,1.35,4.48,8.05,8.05,0,0,1-2.55,6,10.37,10.37,0,0,1-13.4,0,8.17,8.17,0,0,1-2.55-6.14,7.38,7.38,0,0,1,1.39-4.58,7,7,0,0,1,4-2.52Zm-.69-5.84a4.34,4.34,0,0,0,1.29,3.25,4.5,4.5,0,0,0,3.33,1.27,4.42,4.42,0,0,0,3.26-1.26,4.14,4.14,0,0,0,1.28-3.07,4.32,4.32,0,0,0-1.31-3.19,4.83,4.83,0,0,0-6.54,0A4.07,4.07,0,0,0,2488.15,107.6Zm-1.11,13a6.32,6.32,0,0,0,.7,2.86,4.92,4.92,0,0,0,2.08,2.13,6,6,0,0,0,3,.76,5.57,5.57,0,0,0,4.08-1.59,5.46,5.46,0,0,0,1.61-4,5.56,5.56,0,0,0-1.66-4.12,5.72,5.72,0,0,0-4.15-1.63,5.49,5.49,0,0,0-5.63,5.63Z" transform="translate(-27.16 -19.4)"/><path d="M2473.43,363.32V356.6h-12.18v-3.16l12.81-18.2h2.81v18.2h3.8v3.16h-3.8v6.72Zm0-9.88V340.78l-8.8,12.66Zm10.76-4a25.75,25.75,0,0,1,1-8,10,10,0,0,1,3.05-4.68,7.77,7.77,0,0,1,5.08-1.65,8.28,8.28,0,0,1,4,.91,7.65,7.65,0,0,1,2.81,2.62,14.45,14.45,0,0,1,1.75,4.18,27.78,27.78,0,0,1,.63,6.63,25.63,25.63,0,0,1-1,8,10,10,0,0,1-3,4.69,8.54,8.54,0,0,1-11.48-1.25q-2.79-3.51-2.78-11.42Zm3.54,0q0,6.91,1.62,9.21a4.62,4.62,0,0,0,8,0c1.08-1.54,1.61-4.6,1.61-9.2s-.53-7.69-1.61-9.21a4.81,4.81,0,0,0-4-2.28,4.43,4.43,0,0,0-3.8,2c-1.18,1.71-1.78,4.87-1.78,9.48Z" transform="translate(-27.16 -19.4)"/></g></svg>