<svg xmlns="http://www.w3.org/2000/svg" xmlns:xlink="http://www.w3.org/1999/xlink" version="1.1" width="830px" height="749px" viewBox="-0.5 -0.5 830 749">
    <defs/>
    <g>
        <rect x="-0.44" y="0" width="828.44" height="748" fill="#cccccc" stroke="#d6b656"/>
        <rect x="662" y="18" width="158" height="279" rx="23.7" ry="23.7" fill="#eeeeee" stroke="#36393d"/>
        <g transform="translate(-0.5 -0.5)">
            <text pointer-events="none" x="741" y="161" fill="#000000" font-family="Helvetica" font-size="12px" text-anchor="middle">PRIVADO
            </text>
        </g>
        <rect x="662" y="418" width="158" height="300.5" rx="23.7" ry="23.7" fill="#eeeeee" stroke="#36393d"/>
        <g transform="translate(-0.5 -0.5)">
            <text pointer-events="none" x="741" y="572" fill="#000000" font-family="Helvetica" font-size="12px" text-anchor="middle">SALA DE
                REUNION
            </text>
        </g>
        <path d="M 275.73 125.87 L 285.73 110.25 L 296.63 110.25 L 306.63 125.87 Z" fill="#ffffff" stroke="#000000" stroke-miterlimit="10" transform="rotate(-360,291.18,118.06)"/>
        <path d="M 283.45 95.37 Q 299.02 95.37 299.02 108.35 Q 299.02 121.33 283.45 121.33 Z" fill="#ffffff" stroke="#000000" stroke-miterlimit="10" transform="rotate(-450,291.24,108.35)"/>
        <path d="M 67.73 124.37 L 77.73 108.75 L 88.63 108.75 L 98.63 124.37 Z" fill="#ffffff" stroke="#000000" stroke-miterlimit="10" transform="rotate(-360,83.18,116.56)"/>
        <path d="M 75.45 93.87 Q 91.02 93.87 91.02 106.85 Q 91.02 119.83 75.45 119.83 Z" fill="#ffffff" stroke="#000000" stroke-miterlimit="10" transform="rotate(-450,83.24,106.85)"/>
        <path d="M 191 126.12 L 201 110.5 L 211.91 110.5 L 221.91 126.12 Z" fill="#ffffff" stroke="#000000" stroke-miterlimit="10" transform="rotate(-720,206.45,118.31)"/>
        <path d="M 198 94.5 Q 213.57 94.5 213.57 107.48 Q 213.57 120.46 198 120.46 Z" fill="#ffffff" stroke="#000000" stroke-miterlimit="10" transform="rotate(-810,205.78,107.48)"/>
        <path d="M 191 70.12 L 201 54.5 L 211.91 54.5 L 221.91 70.12 Z" fill="#ffffff" stroke="#000000" stroke-miterlimit="10" transform="rotate(-540,206.45,62.31)"/>
        <path d="M 199 59.5 Q 214.57 59.5 214.57 72.48 Q 214.57 85.46 199 85.46 Z" fill="#ffffff" stroke="#000000" stroke-miterlimit="10" transform="rotate(-630,206.78,72.48)"/>
        <path d="M 68 69.12 L 78 53.5 L 88.91 53.5 L 98.91 69.12 Z" fill="#ffffff" stroke="#000000" stroke-miterlimit="10" transform="rotate(-540,83.45,61.31)"/>
        <path d="M 76 58.5 Q 91.57 58.5 91.57 71.48 Q 91.57 84.46 76 84.46 Z" fill="#ffffff" stroke="#000000" stroke-miterlimit="10" transform="rotate(-630,83.78,71.48)"/>
        <path d="M 69.23 268.37 L 79.23 252.75 L 90.13 252.75 L 100.13 268.37 Z" fill="#ffffff" stroke="#000000" stroke-miterlimit="10" transform="rotate(-360,84.68,260.56)"/>
        <path d="M 76.95 237.87 Q 92.52 237.87 92.52 250.85 Q 92.52 263.83 76.95 263.83 Z" fill="#ffffff" stroke="#000000" stroke-miterlimit="10" transform="rotate(-450,84.74,250.85)"/>
        <path d="M 192.5 270.12 L 202.5 254.5 L 213.41 254.5 L 223.41 270.12 Z" fill="#ffffff" stroke="#000000" stroke-miterlimit="10" transform="rotate(-720,207.95,262.31)"/>
        <path d="M 199.5 238.5 Q 215.07 238.5 215.07 251.48 Q 215.07 264.46 199.5 264.46 Z" fill="#ffffff" stroke="#000000" stroke-miterlimit="10" transform="rotate(-810,207.28,251.48)"/>
        <path d="M 192.5 214.12 L 202.5 198.5 L 213.41 198.5 L 223.41 214.12 Z" fill="#ffffff" stroke="#000000" stroke-miterlimit="10" transform="rotate(-540,207.95,206.31)"/>
        <path d="M 200.5 203.5 Q 216.07 203.5 216.07 216.48 Q 216.07 229.46 200.5 229.46 Z" fill="#ffffff" stroke="#000000" stroke-miterlimit="10" transform="rotate(-630,208.28,216.48)"/>
        <path d="M 69.5 213.12 L 79.5 197.5 L 90.41 197.5 L 100.41 213.12 Z" fill="#ffffff" stroke="#000000" stroke-miterlimit="10" transform="rotate(-540,84.95,205.31)"/>
        <path d="M 77.5 202.5 Q 93.07 202.5 93.07 215.48 Q 93.07 228.46 77.5 228.46 Z" fill="#ffffff" stroke="#000000" stroke-miterlimit="10" transform="rotate(-630,85.28,215.48)"/>
        <path d="M 59.73 535.37 L 69.73 519.75 L 80.63 519.75 L 90.63 535.37 Z" fill="#ffffff" stroke="#000000" stroke-miterlimit="10" transform="rotate(-360,75.18,527.56)"/>
        <path d="M 67.45 504.87 Q 83.02 504.87 83.02 517.85 Q 83.02 530.83 67.45 530.83 Z" fill="#ffffff" stroke="#000000" stroke-miterlimit="10" transform="rotate(-450,75.24,517.85)"/>
        <path d="M 183 537.12 L 193 521.5 L 203.91 521.5 L 213.91 537.12 Z" fill="#ffffff" stroke="#000000" stroke-miterlimit="10" transform="rotate(-720,198.45,529.31)"/>
        <path d="M 190 505.5 Q 205.57 505.5 205.57 518.48 Q 205.57 531.46 190 531.46 Z" fill="#ffffff" stroke="#000000" stroke-miterlimit="10" transform="rotate(-810,197.78,518.48)"/>
        <path d="M 183 481.12 L 193 465.5 L 203.91 465.5 L 213.91 481.12 Z" fill="#ffffff" stroke="#000000" stroke-miterlimit="10" transform="rotate(-540,198.45,473.31)"/>
        <path d="M 191 470.5 Q 206.57 470.5 206.57 483.48 Q 206.57 496.46 191 496.46 Z" fill="#ffffff" stroke="#000000" stroke-miterlimit="10" transform="rotate(-630,198.78,483.48)"/>
        <path d="M 60 480.12 L 70 464.5 L 80.91 464.5 L 90.91 480.12 Z" fill="#ffffff" stroke="#000000" stroke-miterlimit="10" transform="rotate(-540,75.45,472.31)"/>
        <path d="M 68 469.5 Q 83.57 469.5 83.57 482.48 Q 83.57 495.46 68 495.46 Z" fill="#ffffff" stroke="#000000" stroke-miterlimit="10" transform="rotate(-630,75.78,482.48)"/>
        <path d="M 269.23 680.87 L 279.23 665.25 L 290.13 665.25 L 300.13 680.87 Z" fill="#ffffff" stroke="#000000" stroke-miterlimit="10" transform="rotate(-360,284.68,673.06)"/>
        <path d="M 276.95 650.37 Q 292.52 650.37 292.52 663.35 Q 292.52 676.33 276.95 676.33 Z" fill="#ffffff" stroke="#000000" stroke-miterlimit="10" transform="rotate(-450,284.74,663.35)"/>
        <path d="M 269.5 625.62 L 279.5 610 L 290.41 610 L 300.41 625.62 Z" fill="#ffffff" stroke="#000000" stroke-miterlimit="10" transform="rotate(-540,284.95,617.81)"/>
        <path d="M 277.5 615 Q 293.07 615 293.07 627.98 Q 293.07 640.96 277.5 640.96 Z" fill="#ffffff" stroke="#000000" stroke-miterlimit="10" transform="rotate(-630,285.28,627.98)"/>
        <path d="M 391 538.62 L 401 523 L 411.91 523 L 421.91 538.62 Z" fill="#ffffff" stroke="#000000" stroke-miterlimit="10" transform="rotate(-720,406.45,530.81)"/>
        <path d="M 398 507 Q 413.57 507 413.57 519.98 Q 413.57 532.96 398 532.96 Z" fill="#ffffff" stroke="#000000" stroke-miterlimit="10" transform="rotate(-810,405.78,519.98)"/>
        <path d="M 391 482.62 L 401 467 L 411.91 467 L 421.91 482.62 Z" fill="#ffffff" stroke="#000000" stroke-miterlimit="10" transform="rotate(-540,406.45,474.81)"/>
        <path d="M 399 472 Q 414.57 472 414.57 484.98 Q 414.57 497.96 399 497.96 Z" fill="#ffffff" stroke="#000000" stroke-miterlimit="10" transform="rotate(-630,406.78,484.98)"/>
        <path d="M 476.23 271.87 L 486.23 256.25 L 497.13 256.25 L 507.13 271.87 Z" fill="#ffffff" stroke="#000000" stroke-miterlimit="10" transform="rotate(-360,491.68,264.06)"/>
        <path d="M 483.95 241.37 Q 499.52 241.37 499.52 254.35 Q 499.52 267.33 483.95 267.33 Z" fill="#ffffff" stroke="#000000" stroke-miterlimit="10" transform="rotate(-450,491.74,254.35)"/>
        <path d="M 599.5 273.62 L 609.5 258 L 620.41 258 L 630.41 273.62 Z" fill="#ffffff" stroke="#000000" stroke-miterlimit="10" transform="rotate(-720,614.95,265.81)"/>
        <path d="M 606.5 242 Q 622.07 242 622.07 254.98 Q 622.07 267.96 606.5 267.96 Z" fill="#ffffff" stroke="#000000" stroke-miterlimit="10" transform="rotate(-810,614.28,254.98)"/>
        <path d="M 599.5 217.62 L 609.5 202 L 620.41 202 L 630.41 217.62 Z" fill="#ffffff" stroke="#000000" stroke-miterlimit="10" transform="rotate(-540,614.95,209.81)"/>
        <path d="M 607.5 207 Q 623.07 207 623.07 219.98 Q 623.07 232.96 607.5 232.96 Z" fill="#ffffff" stroke="#000000" stroke-miterlimit="10" transform="rotate(-630,615.28,219.98)"/>
        <path d="M 476.5 216.62 L 486.5 201 L 497.41 201 L 507.41 216.62 Z" fill="#ffffff" stroke="#000000" stroke-miterlimit="10" transform="rotate(-540,491.95,208.81)"/>
        <path d="M 484.5 206 Q 500.07 206 500.07 218.98 Q 500.07 231.96 484.5 231.96 Z" fill="#ffffff" stroke="#000000" stroke-miterlimit="10" transform="rotate(-630,492.28,218.98)"/>
        <path d="M 277.23 269.87 L 287.23 254.25 L 298.13 254.25 L 308.13 269.87 Z" fill="#ffffff" stroke="#000000" stroke-miterlimit="10" transform="rotate(-360,292.68,262.06)"/>
        <path d="M 284.95 239.37 Q 300.52 239.37 300.52 252.35 Q 300.52 265.33 284.95 265.33 Z" fill="#ffffff" stroke="#000000" stroke-miterlimit="10" transform="rotate(-450,292.74,252.35)"/>
        <path d="M 400.5 271.62 L 410.5 256 L 421.41 256 L 431.41 271.62 Z" fill="#ffffff" stroke="#000000" stroke-miterlimit="10" transform="rotate(-720,415.95,263.81)"/>
        <path d="M 407.5 240 Q 423.07 240 423.07 252.98 Q 423.07 265.96 407.5 265.96 Z" fill="#ffffff" stroke="#000000" stroke-miterlimit="10" transform="rotate(-810,415.28,252.98)"/>
        <path d="M 400.5 215.62 L 410.5 200 L 421.41 200 L 431.41 215.62 Z" fill="#ffffff" stroke="#000000" stroke-miterlimit="10" transform="rotate(-540,415.95,207.81)"/>
        <path d="M 408.5 205 Q 424.07 205 424.07 217.98 Q 424.07 230.96 408.5 230.96 Z" fill="#ffffff" stroke="#000000" stroke-miterlimit="10" transform="rotate(-630,416.28,217.98)"/>
        <path d="M 277.5 214.62 L 287.5 199 L 298.41 199 L 308.41 214.62 Z" fill="#ffffff" stroke="#000000" stroke-miterlimit="10" transform="rotate(-540,292.95,206.81)"/>
        <path d="M 285.5 204 Q 301.07 204 301.07 216.98 Q 301.07 229.96 285.5 229.96 Z" fill="#ffffff" stroke="#000000" stroke-miterlimit="10" transform="rotate(-630,293.28,216.98)"/>
        <path d="M 555 634.41 L 565 623 L 572.34 623 L 582.34 634.41 Z" fill="#ffffff" stroke="#000000" stroke-miterlimit="10" transform="rotate(-495,568.67,628.7)"/>
        <path d="M 557 625 Q 570.77 625 570.77 634.48 Q 570.77 643.96 557 643.96 Z" fill="#ffffff" stroke="#000000" stroke-miterlimit="10" transform="rotate(-585,563.89,634.48)"/>
        <path d="M 503 647.41 L 513 636 L 520.34 636 L 530.34 647.41 Z" fill="#ffffff" stroke="#000000" stroke-miterlimit="10" transform="rotate(-385,516.67,641.7)"/>
        <path d="M 507 625 Q 520.77 625 520.77 634.48 Q 520.77 643.96 507 643.96 Z" fill="#ffffff" stroke="#000000" stroke-miterlimit="10" transform="rotate(-475,513.89,634.48)"/>
        <ellipse cx="531.52" cy="676.52" rx="25.51637742536998" ry="25.51637742536998" fill="#ffffff" stroke="#000000" transform="rotate(-270,531.52,676.52)"/>
        <path d="M 555 696.41 L 565 685 L 572.34 685 L 582.34 696.41 Z" fill="#ffffff" stroke="#000000" stroke-miterlimit="10" transform="rotate(-255,568.67,690.7)"/>
        <path d="M 568 683 Q 581.77 683 581.77 692.48 Q 581.77 701.96 568 701.96 Z" fill="#ffffff" stroke="#000000" stroke-miterlimit="10" transform="rotate(-345,574.89,692.48)"/>
        <path d="M 574 522.49 L 584 508 L 594.63 508 L 604.63 522.49 Z" fill="#ffffff" stroke="#000000" stroke-miterlimit="10" transform="rotate(-180,589.32,515.25)"/>
        <path d="M 582 512 Q 597.43 512 597.43 524.05 Q 597.43 536.09 582 536.09 Z" fill="#ffffff" stroke="#000000" stroke-miterlimit="10" transform="rotate(-270,589.72,524.05)"/>
        <path d="M 375 677.49 L 385 663 L 395.63 663 L 405.63 677.49 Z" fill="#ffffff" stroke="#000000" stroke-miterlimit="10" transform="rotate(-180,390.32,670.25)"/>
        <path d="M 383 667 Q 398.43 667 398.43 679.05 Q 398.43 691.09 383 691.09 Z" fill="#ffffff" stroke="#000000" stroke-miterlimit="10" transform="rotate(-270,390.72,679.05)"/>
        <rect x="346.87" y="606.43" width="24.56" height="22.04" fill="#ffd966" stroke="#333333" transform="rotate(-90,359.15,617.45)"/>
        <rect x="348" y="630" width="84.76" height="26.7" fill="#ffd966" stroke="#333333" transform="rotate(-360,390.38,643.35)"/>
        <g transform="translate(-0.5 -0.5)rotate(-360 390.38000000000034 643.3499999999999)">
            <text pointer-events="none" x="390" y="647" fill="#333333" font-family="Helvetica" font-size="12px" text-anchor="middle">16</text>
        </g>
        <path d="M 286.98 533.49 L 296.98 519 L 307.62 519 L 317.62 533.49 Z" fill="#ffffff" stroke="#000000" stroke-miterlimit="10" transform="rotate(-180,302.3,526.25)"/>
        <path d="M 294.98 523 Q 310.42 523 310.42 535.05 Q 310.42 547.09 294.98 547.09 Z" fill="#ffffff" stroke="#000000" stroke-miterlimit="10" transform="rotate(-270,302.7,535.05)"/>
        <path d="M 77 662.77 L 87 648.28 L 97.64 648.28 L 107.64 662.77 Z" fill="#ffffff" stroke="#000000" stroke-miterlimit="10" transform="rotate(-180,92.32,655.53)"/>
        <path d="M 85 652.28 Q 100.44 652.28 100.44 664.33 Q 100.44 676.37 85 676.37 Z" fill="#ffffff" stroke="#000000" stroke-miterlimit="10" transform="rotate(-270,92.72,664.33)"/>
        <path d="M 163 664.73 L 173 650.24 L 183.63 650.24 L 193.63 664.73 Z" fill="#ffffff" stroke="#000000" stroke-miterlimit="10" transform="rotate(-180,178.32,657.49)"/>
        <path d="M 171 654.24 Q 186.43 654.24 186.43 666.29 Q 186.43 678.33 171 678.33 Z" fill="#ffffff" stroke="#000000" stroke-miterlimit="10" transform="rotate(-270,178.72,666.29)"/>
        <path d="M 544.57 106.41 L 554.57 95 L 561.91 95 L 571.91 106.41 Z" fill="#ffffff" stroke="#000000" stroke-miterlimit="10" transform="rotate(-405,558.24,100.7)"/>
        <path d="M 545.57 86 Q 559.34 86 559.34 95.48 Q 559.34 104.96 545.57 104.96 Z" fill="#ffffff" stroke="#000000" stroke-miterlimit="10" transform="rotate(-495,552.46,95.48)"/>
        <path d="M 531.57 54.41 L 541.57 43 L 548.91 43 L 558.91 54.41 Z" fill="#ffffff" stroke="#000000" stroke-miterlimit="10" transform="rotate(-295,545.24,48.7)"/>
        <path d="M 545.57 36 Q 559.34 36 559.34 45.48 Q 559.34 54.96 545.57 54.96 Z" fill="#ffffff" stroke="#000000" stroke-miterlimit="10" transform="rotate(-385,552.46,45.48)"/>
        <ellipse cx="510.09" cy="62.52" rx="25.51637742536998" ry="25.51637742536998" fill="#eeeeee" stroke="#36393d" transform="rotate(-180,510.09,62.52)"/>
        <path d="M 482.57 106.41 L 492.57 95 L 499.91 95 L 509.91 106.41 Z" fill="#ffffff" stroke="#000000" stroke-miterlimit="10" transform="rotate(-165,496.24,100.7)"/>
        <path d="M 487.57 97 Q 501.34 97 501.34 106.48 Q 501.34 115.96 487.57 115.96 Z" fill="#ffffff" stroke="#000000" stroke-miterlimit="10" transform="rotate(-255,494.46,106.48)"/>
        <path d="M 381.5 80.27 L 391.5 65.78 L 402.14 65.78 L 412.14 80.27 Z" fill="#ffffff" stroke="#000000" stroke-miterlimit="10"/>
        <path d="M 388.5 51.78 Q 403.94 51.78 403.94 63.83 Q 403.94 75.87 388.5 75.87 Z" fill="#ffffff" stroke="#000000" stroke-miterlimit="10" transform="rotate(-90,396.22,63.83)"/>
        <path d="M 485.99 519.49 L 495.99 505 L 506.63 505 L 516.63 519.49 Z" fill="#ffffff" stroke="#000000" stroke-miterlimit="10" transform="rotate(-180,501.31,512.25)"/>
        <path d="M 493.99 509 Q 509.43 509 509.43 521.05 Q 509.43 533.09 493.99 533.09 Z" fill="#ffffff" stroke="#000000" stroke-miterlimit="10" transform="rotate(-270,501.71,521.05)"/>
        <rect x="316" y="349" width="320" height="40" rx="6" ry="6" fill="#eeeeee" stroke="#36393d"/>
        <g transform="translate(-0.5 -0.5)">
            <text pointer-events="none" x="476" y="375" fill="#000000" font-family="Helvetica" font-size="19px" text-anchor="middle">Piso 4
                SUR
            </text>
        </g>
        <rect x="79" y="372" width="28" height="33" rx="4.2" ry="4.2" fill="#999999" stroke="none" transform="rotate(-540,93,388.5)"/>
        <rect x="88" y="376" width="15.26" height="24.45" rx="2.29" ry="2.29" fill="#b3b3b3" stroke="none" transform="rotate(-540,95.63,388.23)"/>
        <path d="M 90 381 L 100.79 387.92 L 90 394.84 Z" fill="#e6e6e6" stroke="none" transform="rotate(-360,95.39,387.92)"/>
        <rect x="78" y="328" width="28" height="33" rx="4.2" ry="4.2" fill="#999999" stroke="none" transform="rotate(-720,92,344.5)"/>
        <rect x="82" y="333" width="15.26" height="24.45" rx="2.29" ry="2.29" fill="#b3b3b3" stroke="none" transform="rotate(-720,89.63,345.23)"/>
        <path d="M 84 338 L 94.79 344.92 L 84 351.84 Z" fill="#e6e6e6" stroke="none" transform="rotate(-540,89.39,344.92)"/>
        <rect x="180" y="371" width="28" height="33" rx="4.2" ry="4.2" fill="#999999" stroke="none" transform="rotate(-540,194,387.5)"/>
        <rect x="189" y="375" width="15.26" height="24.45" rx="2.29" ry="2.29" fill="#b3b3b3" stroke="none" transform="rotate(-540,196.63,387.23)"/>
        <path d="M 191 380 L 201.79 386.92 L 191 393.84 Z" fill="#e6e6e6" stroke="none" transform="rotate(-360,196.39,386.92)"/>
        <rect x="180" y="328" width="28" height="33" rx="4.2" ry="4.2" fill="#999999" stroke="none" transform="rotate(-720,194,344.5)"/>
        <rect x="184" y="333" width="15.26" height="24.45" rx="2.29" ry="2.29" fill="#b3b3b3" stroke="none" transform="rotate(-720,191.63,345.23)"/>
        <path d="M 186 338 L 196.79 344.92 L 186 351.84 Z" fill="#e6e6e6" stroke="none" transform="rotate(-540,191.39,344.92)"/>
        <rect x="115" y="48.5" width="30" height="40" fill="#eeeeee" stroke="#36393d" transform="rotate(-360,130,68.5)"/>
        <rect x="88" y="-8.5" width="30" height="85" fill="#eeeeee" stroke="#36393d" transform="rotate(90,103,34)" id="seat-1" class="seat"/>
        <g transform="translate(-0.5 -0.5)">
            <text pointer-events="none" x="103" y="38" fill="#000000" font-family="Helvetica" font-size="12px" text-anchor="middle">1</text>
        </g>
        <rect x="145" y="49.5" width="30" height="40" fill="#ffd966" stroke="#333333" transform="rotate(-360,160,69.5)"/>
        <rect x="173" y="-7.5" width="30" height="85" fill="#ffd966" stroke="#333333" transform="rotate(90,188,35)" id="seat-2" class="seat"/>
        <g transform="translate(-0.5 -0.5)">
            <text pointer-events="none" x="188" y="39" fill="#333333" font-family="Helvetica" font-size="12px" text-anchor="middle">2</text>
        </g>
        <rect x="115" y="89.5" width="30" height="40" fill="#ffd966" stroke="#333333" transform="rotate(-180,130,109.5)"/>
        <rect x="87.5" y="102" width="30" height="85" fill="#ffd966" stroke="#333333" transform="rotate(90,102.5,144.5)" id="seat-3" class="seat"/>
        <g transform="translate(-0.5 -0.5)">
            <text pointer-events="none" x="102" y="148" fill="#333333" font-family="Helvetica" font-size="12px" text-anchor="middle">3</text>
        </g>
        <rect x="145" y="90.5" width="30" height="40" fill="#eeeeee" stroke="#36393d" transform="rotate(-540,160,110.5)"/>
        <rect x="172" y="102.5" width="30" height="85" fill="#eeeeee" stroke="#36393d" transform="rotate(-270,187,145)" id="seat-4" class="seat"/>
        <g transform="translate(-0.5 -0.5)rotate(-360 186.9981385281385 145)">
            <text pointer-events="none" x="187" y="149" fill="#000000" font-family="Helvetica" font-size="12px" text-anchor="middle">4</text>
        </g>
        <rect x="116.5" y="192.5" width="30" height="40" fill="#eeeeee" stroke="#36393d" transform="rotate(-360,131.5,212.5)"/>
        <rect x="89.5" y="135.5" width="30" height="85" fill="#eeeeee" stroke="#36393d" transform="rotate(90,104.5,178)" id="seat-5" class="seat"/>
        <g transform="translate(-0.5 -0.5)">
            <text pointer-events="none" x="104" y="182" fill="#000000" font-family="Helvetica" font-size="12px" text-anchor="middle">5</text>
        </g>
        <rect x="146.5" y="193.5" width="30" height="40" fill="#ffd966" stroke="#333333" transform="rotate(-360,161.5,213.5)"/>
        <rect x="174.5" y="136.5" width="30" height="85" fill="#ffd966" stroke="#333333" transform="rotate(90,189.5,179)" id="seat-6" class="seat"/>
        <g transform="translate(-0.5 -0.5)">
            <text pointer-events="none" x="189" y="183" fill="#333333" font-family="Helvetica" font-size="12px" text-anchor="middle">6</text>
        </g>
        <rect x="116.5" y="233.5" width="30" height="40" fill="#ffd966" stroke="#333333" transform="rotate(-180,131.5,253.5)"/>
        <rect x="89" y="246" width="30" height="85" fill="#ffd966" stroke="#333333" transform="rotate(90,104,288.5)" id="seat-8" class="seat"/>
        <g transform="translate(-0.5 -0.5)">
            <text pointer-events="none" x="104" y="292" fill="#333333" font-family="Helvetica" font-size="12px" text-anchor="middle">8</text>
        </g>
        <rect x="146.5" y="234.5" width="30" height="40" fill="#eeeeee" stroke="#36393d" transform="rotate(-540,161.5,254.5)"/>
        <rect x="173.5" y="246.5" width="30" height="85" fill="#eeeeee" stroke="#36393d" transform="rotate(-270,188.5,289)" id="seat-7" class="seat"/>
        <g transform="translate(-0.5 -0.5)rotate(-360 188.4981385281385 289)">
            <text pointer-events="none" x="188" y="293" fill="#000000" font-family="Helvetica" font-size="12px" text-anchor="middle">7</text>
        </g>
        <rect x="323" y="91" width="30" height="40" fill="#ffd966" stroke="#333333" transform="rotate(-180,338,111)"/>
        <rect x="295.5" y="103.5" width="30" height="85" fill="#ffd966" stroke="#333333" transform="rotate(90,310.5,146)" id="seat-25" class="seat"/>
        <g transform="translate(-0.5 -0.5)">
            <text pointer-events="none" x="310" y="150" fill="#333333" font-family="Helvetica" font-size="12px" text-anchor="middle">25</text>
        </g>
        <rect x="336.5" y="43.78" width="59.35" height="21.37" fill="#eeeeee" stroke="#36393d" transform="rotate(90,366.18,54.46)"/>
        <rect x="340.96" y="124.32" width="50.5" height="22.98" fill="#eeeeee" stroke="#36393d" transform="rotate(90,366.21,135.81)"/>
        <rect x="354.5" y="83.78" width="84.76" height="26.7" fill="#eeeeee" stroke="#36393d" id="seat-26" class="seat"/>
        <g transform="translate(-0.5 -0.5)">
            <text pointer-events="none" x="397" y="101" fill="#000000" font-family="Helvetica" font-size="12px" text-anchor="middle">26</text>
        </g>
        <rect x="324.5" y="194" width="30" height="40" fill="#eeeeee" stroke="#36393d" transform="rotate(-360,339.5,214)"/>
        <rect x="297.5" y="137" width="30" height="85" fill="#eeeeee" stroke="#36393d" transform="rotate(90,312.5,179.5)" id="seat-24" class="seat"/>
        <g transform="translate(-0.5 -0.5)">
            <text pointer-events="none" x="312" y="183" fill="#000000" font-family="Helvetica" font-size="12px" text-anchor="middle">24</text>
        </g>
        <rect x="354.5" y="195" width="30" height="40" fill="#ffd966" stroke="#333333" transform="rotate(-360,369.5,215)"/>
        <rect x="382.38" y="136.63" width="30.25" height="85" fill="#ffd966" stroke="#333333" transform="rotate(90,397.51,179.13)" id="seat-23" class="seat"/>
        <g transform="translate(-0.5 -0.5)">
            <text pointer-events="none" x="398" y="183" fill="#333333" font-family="Helvetica" font-size="12px" text-anchor="middle">23</text>
        </g>
        <rect x="324.5" y="235" width="30" height="40" fill="#ffd966" stroke="#333333" transform="rotate(-180,339.5,255)"/>
        <rect x="297" y="247.5" width="30" height="85" fill="#ffd966" stroke="#333333" transform="rotate(90,312,290)" id="seat-22" class="seat"/>
        <g transform="translate(-0.5 -0.5)">
            <text pointer-events="none" x="312" y="294" fill="#333333" font-family="Helvetica" font-size="12px" text-anchor="middle">22</text>
        </g>
        <rect x="354.5" y="236" width="30" height="40" fill="#eeeeee" stroke="#36393d" transform="rotate(-540,369.5,256)"/>
        <rect x="381.5" y="248" width="30" height="85" fill="#eeeeee" stroke="#36393d" transform="rotate(-270,396.5,290.5)" id="seat-21" class="seat"/>
        <g transform="translate(-0.5 -0.5)rotate(-360 396.4981385281385 290.5)">
            <text pointer-events="none" x="396" y="294" fill="#000000" font-family="Helvetica" font-size="12px" text-anchor="middle">21</text>
        </g>
        <rect x="553.5" y="197" width="30" height="40" fill="#ffd966" stroke="#333333" transform="rotate(-360,568.5,217)"/>
        <rect x="580.75" y="139.25" width="31.5" height="85" fill="#ffd966" stroke="#333333" transform="rotate(90,596.5,181.75)" id="seat-28" class="seat"/>
        <g transform="translate(-0.5 -0.5)">
            <text pointer-events="none" x="597" y="185" fill="#333333" font-family="Helvetica" font-size="12px" text-anchor="middle">28</text>
        </g>
        <rect x="523.5" y="196" width="30" height="41" fill="#eeeeee" stroke="#36393d" transform="rotate(-360,538.5,216.5)"/>
        <rect x="496.5" y="139" width="30" height="85" fill="#eeeeee" stroke="#36393d" transform="rotate(90,511.5,181.5)" id="seat-29" class="seat"/>
        <g transform="translate(-0.5 -0.5)">
            <text pointer-events="none" x="511" y="185" fill="#000000" font-family="Helvetica" font-size="12px" text-anchor="middle">29</text>
        </g>
        <rect x="518.5" y="242.5" width="39" height="30" fill="#ffd966" stroke="#333333" transform="rotate(-90,538,257.5)"/>
        <rect x="496" y="249.5" width="30" height="85" fill="#ffd966" stroke="#333333" transform="rotate(90,511,292)" id="seat-30" class="seat"/>
        <g transform="translate(-0.5 -0.5)">
            <text pointer-events="none" x="511" y="296" fill="#333333" font-family="Helvetica" font-size="12px" text-anchor="middle">30</text>
        </g>
        <rect x="553.28" y="238" width="29.48" height="40" fill="#eeeeee" stroke="#36393d" transform="rotate(-540,568.02,258)"/>
        <rect x="580.5" y="250" width="30" height="85" fill="#eeeeee" stroke="#36393d" transform="rotate(-270,595.5,292.5)" id="seat-31" class="seat"/>
        <g transform="translate(-0.5 -0.5)rotate(-360 595.4981385281385 292.5)">
            <text pointer-events="none" x="595" y="296" fill="#000000" font-family="Helvetica" font-size="12px" text-anchor="middle">31</text>
        </g>
        <path d="M 568.57 76 L 633.26 141.47 L 568.57 206.94 Z" fill="#ffd966" stroke="#333333" stroke-miterlimit="10" transform="rotate(-315,600.91,141.47)" id="seat-27" class="seat"/>
        <g transform="translate(-0.5 -0.5)rotate(-405 600.9143501982378 141.47000000000003)">
            <text pointer-events="none" x="601" y="145" fill="#333333" font-family="Helvetica" font-size="12px" text-anchor="middle">27</text>
        </g>
        <rect x="505.57" y="110" width="27.34" height="83" fill="#ffd966" stroke="#333333" transform="rotate(-90,519.24,151.5)" />
        <rect x="596.57" y="24" width="27.34" height="77" fill="#ffd966" stroke="#333333" transform="rotate(-360,610.24,62.5)"/>
        <rect x="107" y="459.5" width="30" height="40" fill="#eeeeee" stroke="#36393d" transform="rotate(-360,122,479.5)"/>
        <rect x="80" y="402.5" width="30" height="85" fill="#eeeeee" stroke="#36393d" transform="rotate(90,95,445)" id="seat-10" class="seat"/>
        <g transform="translate(-0.5 -0.5)">
            <text pointer-events="none" x="95" y="449" fill="#000000" font-family="Helvetica" font-size="12px" text-anchor="middle">10</text>
        </g>
        <rect x="137" y="460.5" width="30" height="39.5" fill="#ffd966" stroke="#333333" transform="rotate(-360,152,480.25)"/>
        <rect x="165.25" y="402.75" width="29.5" height="85" fill="#ffd966" stroke="#333333" transform="rotate(90,180,445.25)" id="seat-9" class="seat"/>
        <g transform="translate(-0.5 -0.5)">
            <text pointer-events="none" x="180" y="449" fill="#333333" font-family="Helvetica" font-size="12px" text-anchor="middle">9</text>
        </g>
        <rect x="107" y="500.5" width="30" height="40" fill="#ffd966" stroke="#333333" transform="rotate(-180,122,520.5)"/>
        <rect x="79.5" y="513" width="30" height="85" fill="#ffd966" stroke="#333333" transform="rotate(90,94.5,555.5)" id="seat-11" class="seat"/>
        <g transform="translate(-0.5 -0.5)">
            <text pointer-events="none" x="94" y="559" fill="#333333" font-family="Helvetica" font-size="12px" text-anchor="middle">11</text>
        </g>
        <rect x="137" y="499" width="30" height="42.5" fill="#eeeeee" stroke="#36393d" transform="rotate(-540,152,520.25)"/>
        <rect x="164" y="513.5" width="30" height="85" fill="#eeeeee" stroke="#36393d" transform="rotate(-270,179,556)" id="seat-12" class="seat"/>
        <g transform="translate(-0.5 -0.5)rotate(-360 178.9981385281385 556)">
            <text pointer-events="none" x="179" y="560" fill="#000000" font-family="Helvetica" font-size="12px" text-anchor="middle">12</text>
        </g>
        <rect x="94" y="663.28" width="59.35" height="21.37" fill="#eeeeee" stroke="#36393d" transform="rotate(-90,123.68,673.96)"/>
        <rect x="101" y="584.28" width="45.41" height="22.98" fill="#eeeeee" stroke="#36393d" transform="rotate(-90,123.71,595.77)"/>
        <rect x="50" y="618.28" width="84.76" height="26.7" fill="#eeeeee" stroke="#36393d" transform="rotate(-360,92.38,631.63)" id="seat-13" class="seat"/>
        <g transform="translate(-0.5 -0.5)rotate(-360 92.38499999999999 631.6299999999999)">
            <text pointer-events="none" x="92" y="635" fill="#000000" font-family="Helvetica" font-size="12px" text-anchor="middle">13</text>
        </g>
        <rect x="117" y="663.24" width="59.35" height="21.37" fill="#ffd966" stroke="#333333" transform="rotate(-90,146.68,673.92)"/>
        <rect x="124.44" y="583.24" width="45.41" height="22.04" fill="#ffd966" stroke="#333333" transform="rotate(-90,147.15,594.26)"/>
        <rect x="136" y="617.24" width="84.76" height="26.7" fill="#ffd966" stroke="#333333" transform="rotate(-360,178.38,630.59)" id="seat-14" class="seat"/>
        <g transform="translate(-0.5 -0.5)rotate(-360 178.38000000000034 630.5899999999999)">
            <text pointer-events="none" x="178" y="634" fill="#333333" font-family="Helvetica" font-size="12px" text-anchor="middle">14</text>
        </g>
        <rect x="305.8" y="532.18" width="59.35" height="25" fill="#ffd966" stroke="#333333" transform="rotate(-90,335.47,544.68)"/>
        <rect x="307.69" y="449.69" width="54.01" height="25" fill="#ffd966" stroke="#333333" transform="rotate(-90,334.7,462.19)"/>
        <rect x="259.98" y="489" width="87.02" height="26.7" fill="#ffd966" stroke="#333333" transform="rotate(-360,303.49,502.35)" id="seat-19" class="seat"/>
        <g transform="translate(-0.5 -0.5)rotate(-360 303.49 502.3499999999999)">
            <text pointer-events="none" x="303" y="506" fill="#333333" font-family="Helvetica" font-size="12px" text-anchor="middle">19</text>
        </g>
        <rect x="348" y="462" width="27" height="40" fill="#eeeeee" stroke="#36393d" transform="rotate(-360,361.5,482)"/>
        <rect x="375.88" y="407.38" width="26.5" height="82.75" fill="#eeeeee" stroke="#36393d" transform="rotate(90,389.13,448.76)" id="seat-20" class="seat"/>
        <g transform="translate(-0.5 -0.5)">
            <text pointer-events="none" x="389" y="452" fill="#000000" font-family="Helvetica" font-size="12px" text-anchor="middle">20</text>
        </g>
        <rect x="348" y="503" width="27" height="40" fill="#ffd966" stroke="#333333" transform="rotate(-540,361.5,523)"/>
        <rect x="372.25" y="517.75" width="32.5" height="82" fill="#ffd966" stroke="#333333" transform="rotate(-270,388.5,558.75)" id="seat-18" class="seat"/>
        <g transform="translate(-0.5 -0.5)rotate(-360 388.5 558.75)">
            <text pointer-events="none" x="389" y="562" fill="#333333" font-family="Helvetica" font-size="12px" text-anchor="middle">18</text>
        </g>
        <rect x="316.5" y="605" width="30" height="40" fill="#ffd966" stroke="#333333" transform="rotate(-360,331.5,625)"/>
        <rect x="289.5" y="548" width="30" height="85" fill="#ffd966" stroke="#333333" transform="rotate(90,304.5,590.5)" id="seat-17" class="seat"/>
        <g transform="translate(-0.5 -0.5)">
            <text pointer-events="none" x="305" y="594" fill="#333333" font-family="Helvetica" font-size="12px" text-anchor="middle">17</text>
        </g>
        <rect x="329" y="676" width="59.35" height="21.37" fill="#ffd966" stroke="#333333" transform="rotate(-90,358.68,686.68)"/>
        <rect x="346.19" y="607" width="24.56" height="22.04" fill="#ffd966" stroke="#333333" transform="rotate(-90,358.47,618.02)"/>
        <rect x="347.32" y="630.57" width="84.76" height="26.7" fill="#ffd966" stroke="#333333" transform="rotate(-360,389.7,643.92)" id="seat-16" class="seat"/>
        <g transform="translate(-0.5 -0.5)rotate(-360 389.7000000000003 643.9200000000001)">
            <text pointer-events="none" x="390" y="648" fill="#333333" font-family="Helvetica" font-size="12px" text-anchor="middle">16</text>
        </g>
        <rect x="316.5" y="646" width="30" height="40" fill="#eeeeee" stroke="#36393d" transform="rotate(-180,331.5,666)"/>
        <rect x="289" y="658.5" width="30" height="85" fill="#eeeeee" stroke="#36393d" transform="rotate(90,304,701)" id="seat-15" class="seat"/>
        <g transform="translate(-0.5 -0.5)">
            <text pointer-events="none" x="304" y="705" fill="#000000" font-family="Helvetica" font-size="12px" text-anchor="middle">15</text>
        </g>
        <rect x="502.99" y="520" width="59.35" height="21.37" fill="#eeeeee" stroke="#36393d" transform="rotate(-90,532.67,530.68)"/>
        <rect x="509.99" y="441" width="45.41" height="22.98" fill="#f9f7ed" stroke="#36393d" transform="rotate(-90,532.7,452.49)"/>
        <rect x="458.99" y="475" width="84.76" height="26.7" fill="#eeeeee" stroke="#36393d" transform="rotate(-360,501.38,488.35)" id="seat-32" class="seat"/>
        <g transform="translate(-0.5 -0.5)rotate(-360 501.375 488.3499999999999)">
            <text pointer-events="none" x="501" y="492" fill="#000000" font-family="Helvetica" font-size="12px" text-anchor="middle">32</text>
        </g>
        <rect x="528" y="521" width="59.35" height="21.37" fill="#ffd966" stroke="#333333" transform="rotate(-90,557.68,531.68)"/>
        <rect x="535.44" y="441" width="45.41" height="22.04" fill="#ffd966" stroke="#333333" transform="rotate(-90,558.15,452.02)"/>
        <rect x="547" y="475" width="84.76" height="26.7" fill="#ffd966" stroke="#333333" transform="rotate(-360,589.38,488.35)" id="seat-33" class="seat"/>
        <g transform="translate(-0.5 -0.5)rotate(-360 589.3800000000003 488.3499999999999)">
            <text pointer-events="none" x="589" y="492" fill="#333333" font-family="Helvetica" font-size="12px" text-anchor="middle">33</text>
        </g>
        <path d="M 578 520 L 642.69 585.47 L 578 650.94 Z" fill="#ffd966" stroke="#333333" stroke-miterlimit="10" transform="rotate(-405,610.34,585.47)" id="seat-34" class="seat"/>
        <g transform="translate(-0.5 -0.5)rotate(-405 610.3443501982379 585.47)">
            <text pointer-events="none" x="610" y="589" fill="#333333" font-family="Helvetica" font-size="12px" text-anchor="middle">34</text>
        </g>
        <rect x="606" y="626" width="27.34" height="83" fill="#ffd966" stroke="#333333" transform="rotate(-180,619.67,667.5)"/>
        <rect x="518" y="537" width="27.34" height="77" fill="#ffd966" stroke="#333333" transform="rotate(-450,531.67,575.5)" />
    </g>
</svg>