<svg xmlns="http://www.w3.org/2000/svg" xmlns:xlink="http://www.w3.org/1999/xlink" version="1.1" x="0px" y="0px" viewBox="0 0 1507.8 1786.9" style="enable-background:new 0 0 1507.8 1786.9;" xml:space="preserve">
<style type="text/css">
	.st0{fill:#989898;stroke:#989898;stroke-miterlimit:10;}
	.st1{fill:none;stroke:#4B4B4B;stroke-width:0.36;stroke-linecap:round;stroke-linejoin:round;stroke-miterlimit:10;}
	.st2{fill:none;stroke:#989898;stroke-width:0.72;stroke-linecap:round;stroke-linejoin:round;stroke-miterlimit:10;}
	.st3{fill:none;stroke:#000000;stroke-width:0.8399;stroke-linecap:round;stroke-linejoin:round;stroke-miterlimit:10;}
	.st4{fill:none;stroke:#723947;stroke-width:0.1199;stroke-linecap:round;stroke-linejoin:round;stroke-miterlimit:10;}
	.st5{fill:none;stroke:#000000;stroke-width:2.579525e-02;stroke-linecap:round;stroke-miterlimit:10;}
	.st6{fill:none;stroke:#545454;stroke-width:0.4799;stroke-linecap:round;stroke-linejoin:round;stroke-miterlimit:10;}
	.st7{fill:none;stroke:#FF0000;stroke-width:0.8399;stroke-linecap:round;stroke-linejoin:round;stroke-miterlimit:10;}
	.st8{fill:none;stroke:#000000;stroke-width:0.2401;stroke-linecap:round;stroke-linejoin:round;stroke-miterlimit:10;}
	.st9{fill:#989898;}
	.st10{fill:none;stroke:#989898;stroke-width:2.579525e-02;stroke-linecap:round;stroke-miterlimit:10;}
</style>
<g id="Asientos">
	<path class="st0 seat" d="M389.7,500.4h-40.6c-11.8,0-21.4-9.6-21.4-21.4v-48.5c0-11.8,9.6-21.4,21.4-21.4h40.6   c11.8,0,21.4,9.6,21.4,21.4v48.5C411,490.9,401.5,500.4,389.7,500.4z" id="seat-1"/>
	<path class="st0 seat" d="M383.2,756.3h-40.6c-11.8,0-21.4-9.6-21.4-21.4v-48.5c0-11.8,9.6-21.4,21.4-21.4h40.6   c11.8,0,21.4,9.6,21.4,21.4v48.5C404.5,746.7,395,756.3,383.2,756.3z" id="seat-2"/>
	<path class="st0 seat" d="M610.5,534.3h-40.6c-11.8,0-21.4-9.6-21.4-21.4v-48.5c0-11.8,9.6-21.4,21.4-21.4h40.6   c11.8,0,21.4,9.6,21.4,21.4V513C631.8,524.8,622.3,534.3,610.5,534.3z" id="seat-25"/>
	<path class="st0 seat" d="M613.7,651.7h-40.6c-11.8,0-21.4-9.6-21.4-21.4v-48.5c0-11.8,9.6-21.4,21.4-21.4h40.6   c11.8,0,21.4,9.6,21.4,21.4v48.5C635.1,642.1,625.5,651.7,613.7,651.7z" id="seat-24"/>
	<path class="st0 seat" d="M709.7,479.5H669c-11.8,0-21.4-9.6-21.4-21.4v-48.5c0-11.8,9.6-21.4,21.4-21.4h40.6c11.8,0,21.4,9.6,21.4,21.4   v48.5C731,469.9,721.5,479.5,709.7,479.5z" id="seat-18"/>
	<path class="st0 seat" d="M810.9,465.4h-40.6c-11.8,0-21.4-9.6-21.4-21.4v-48.5c0-11.8,9.6-21.4,21.4-21.4h40.6   c11.8,0,21.4,9.6,21.4,21.4v48.5C832.3,455.9,822.7,465.4,810.9,465.4z" id="seat-19"/>
	<path class="st0 seat" d="M939,503.4h-40.6c-11.8,0-21.4-9.6-21.4-21.4v-48.5c0-11.8,9.6-21.4,21.4-21.4H939c11.8,0,21.4,9.6,21.4,21.4   v48.5C960.3,493.9,950.8,503.4,939,503.4z" id="seat-20"/>
	<path class="st0 seat" d="M950.7,667.2H910c-11.8,0-21.4-9.6-21.4-21.4v-48.5c0-11.8,9.6-21.4,21.4-21.4h40.6c11.8,0,21.4,9.6,21.4,21.4   v48.5C972,657.7,962.5,667.2,950.7,667.2z" id="seat-21"/>
	<path class="st0 seat" d="M844.1,702.5h-40.6c-11.8,0-21.4-9.6-21.4-21.4v-48.5c0-11.8,9.6-21.4,21.4-21.4h40.6   c11.8,0,21.4,9.6,21.4,21.4v48.5C865.5,692.9,855.9,702.5,844.1,702.5z" id="seat-22"/>
	<path class="st0 seat" d="M727.6,702.8H687c-11.8,0-21.4-9.6-21.4-21.4v-48.5c0-11.8,9.6-21.4,21.4-21.4h40.6c11.8,0,21.4,9.6,21.4,21.4   v48.5C749,693.2,739.4,702.8,727.6,702.8z" id="seat-23"/>
	<path class="st0 seat" d="M677,824.4h-40.6c-11.8,0-21.4-9.6-21.4-21.4v-48.5c0-11.8,9.6-21.4,21.4-21.4H677c11.8,0,21.4,9.6,21.4,21.4   V803C698.3,814.8,688.8,824.4,677,824.4z" id="seat-33"/>
	<path class="st0 seat" d="M835.1,816.3h-40.6c-11.8,0-21.4-9.6-21.4-21.4v-48.5c0-11.8,9.6-21.4,21.4-21.4h40.6   c11.8,0,21.4,9.6,21.4,21.4v48.5C856.4,806.7,846.9,816.3,835.1,816.3z" id="seat-26"/>
	<path class="st0 seat" d="M644.4,937.5h-40.6c-11.8,0-21.4-9.6-21.4-21.4v-48.5c0-11.8,9.6-21.4,21.4-21.4h40.6   c11.8,0,21.4,9.6,21.4,21.4v48.5C665.7,927.9,656.2,937.5,644.4,937.5z" id="seat-32"/>
	<path class="st0 seat" d="M855.2,934.6h-40.6c-11.8,0-21.4-9.6-21.4-21.4v-48.5c0-11.8,9.6-21.4,21.4-21.4h40.6   c11.8,0,21.4,9.6,21.4,21.4v48.5C876.5,925.1,867,934.6,855.2,934.6z" id="seat-27"/>
	<path class="st0 seat" d="M651.2,1034.3h-40.6c-11.8,0-21.4-9.6-21.4-21.4v-48.5c0-11.8,9.6-21.4,21.4-21.4h40.6   c11.8,0,21.4,9.6,21.4,21.4v48.5C672.6,1024.7,663,1034.3,651.2,1034.3z" id="seat-31"/>
	<path class="st0 seat" d="M880.1,1030.8h-40.6c-11.8,0-21.4-9.6-21.4-21.4v-48.5c0-11.8,9.6-21.4,21.4-21.4h40.6   c11.8,0,21.4,9.6,21.4,21.4v48.5C901.4,1021.3,891.9,1030.8,880.1,1030.8z" id="seat-28"/>
	<path class="st0 seat" d="M688.2,1149.8h-40.6c-11.8,0-21.4-9.6-21.4-21.4v-48.5c0-11.8,9.6-21.4,21.4-21.4h40.6   c11.8,0,21.4,9.6,21.4,21.4v48.5C709.6,1140.2,700,1149.8,688.2,1149.8z" id="seat-30"/>
	<path class="st0 seat" d="M847.5,1146.7h-40.6c-11.8,0-21.4-9.6-21.4-21.4v-48.5c0-11.8,9.6-21.4,21.4-21.4h40.6   c11.8,0,21.4,9.6,21.4,21.4v48.5C868.9,1137.2,859.3,1146.7,847.5,1146.7z" id="seat-29"/>
	<path class="st0 seat" d="M314.6,1557.2H274c-11.8,0-21.4-9.6-21.4-21.4v-48.5c0-11.8,9.6-21.4,21.4-21.4h40.6   c11.8,0,21.4,9.6,21.4,21.4v48.5C336,1547.6,326.4,1557.2,314.6,1557.2z" id="seat-3"/>
	<path class="st0 seat" d="M415.7,1557.2h-40.6c-11.8,0-21.4-9.6-21.4-21.4v-48.5c0-11.8,9.6-21.4,21.4-21.4h40.6   c11.8,0,21.4,9.6,21.4,21.4v48.5C437,1547.6,427.5,1557.2,415.7,1557.2z" id="seat-4"/>
	<path class="st0 seat" d="M518.5,1557.2h-40.6c-11.8,0-21.4-9.6-21.4-21.4v-48.5c0-11.8,9.6-21.4,21.4-21.4h40.6   c11.8,0,21.4,9.6,21.4,21.4v48.5C539.8,1547.6,530.3,1557.2,518.5,1557.2z" id="seat-5"/>
	<path class="st0 seat" d="M620.9,1557.2h-40.6c-11.8,0-21.4-9.6-21.4-21.4v-48.5c0-11.8,9.6-21.4,21.4-21.4h40.6   c11.8,0,21.4,9.6,21.4,21.4v48.5C642.3,1547.6,632.7,1557.2,620.9,1557.2z" id="seat-6"/>
</g>
<g xmlns:xodm="http://www.corel.com/coreldraw/odm/2003" id="Capa_1">
	<g id="LAY-MOB">
		<path class="st1" d="M691.6,939.7l-34-95.3l80-61.7l83.4,57.1l-28.4,97l33.8,95.2l-80,61.7l-83.4-57L691.6,939.7"/>
	</g>
	<g id="LAY-MOB_0">
		<path class="st1" d="M769.6,496.3l1,101.2L769.6,496.3"/>
		<path class="st1" d="M673.2,466.1l96.5,30.2l95.8-32.2l60.2,81.2L867,627.7l-96.4-30.2l-95.9,32.2l-60.1-81.2L673.2,466.1"/>
		<path class="st1" d="M865.4,464.2l-95.8,32.2l-96.5-30.2"/>
	</g>
	<g id="A_POSIÇÕES_x0020_TRABALHO_2">
		<path class="st2" d="M1349.2,394.4h-90.5v9.6h90.5V394.4"/>
		<path class="st2" d="M995.5,404h121.8v-9.6"/>
		<path class="st2" d="M398.6,394.4h-192v9.6h192"/>
	</g>
	<g id="ARQ-ALV-1">
		<path class="st3" d="M398.6,404v-9.6"/>
	</g>
	<g id="A_POSIÇÕES_x0020_TRABALHO_3">
		<path class="st2" d="M1314.2,1152l-107.8-186.7"/>
		<path class="st2" d="M1200.9,974.9l38.3,66.2"/>
		<path class="st2" d="M1262,1080.8l41.2,71.2h11"/>
		<path class="st2" d="M1206.4,965.3H990.8l5.5,9.6h84.8"/>
		<path class="st2" d="M1127,974.9h73.9"/>
		<path class="st2" d="M1241.8,412.6h3.5H1241.8V271.1h3.5v141.5V271.1h-3.5V412.6"/>
		<path class="st2" d="M1245.3,412.6c7.4,0,13.4-6,13.4-13.4"/>
		<path class="st2" d="M1117.2,394.1c0,0.5,0,1,0,1.5"/>
		<path class="st2" d="M1241.8,271c-67.9,0-123.2,54.3-124.6,122.1"/>
	</g>
	<g id="ARQ-ALV-1_4">
		<path class="st3" d="M406.8,398.8v1"/>
		<path class="st3" d="M398.6,403.2h8.2v-8h-8.2V403.2"/>
	</g>
	<g id="A_POSIÇÕES_x0020_TRABALHO_5">
		<path class="st2" d="M993.6,970.1v0.1"/>
	</g>
	<g id="LAY-MOB_6">
		<path class="st1" d="M398.6,404.8h-80.8"/>
	</g>
	<g id="A_POSIÇÕES_x0020_TRABALHO_7">
		<path class="st2" d="M231.4,1162.1v244.1"/>
		<path class="st2" d="M500.6,1760.8h653.2l-165.4-133.9l-159.6,49.3"/>
		<path class="st2" d="M221.7,1032.1v130"/>
		<path class="st2" d="M231.3,1152.5v-120.4h-9.6"/>
		<path class="st2" d="M242.7,1032.1v120.4"/>
		<path class="st2" d="M252.3,1162.1v-130h-9.6"/>
		<path class="st2" d="M242.7,1152.5h-11.4"/>
		<path class="st2" d="M221.7,1407.8v-245.8h30.6"/>
		<path class="st2" d="M231.3,1162.1v245.8"/>
		<path class="st2" d="M230.1,1162.1v245.8"/>
		<path class="st2" d="M231.3,1407.8h-9.6"/>
		<path class="st2" d="M223,1407.8v-245.8"/>
		<path class="st2" d="M1085.4,979v-1.1v-1.8"/>
		<path class="st2" d="M1085.4,976.1h3.7v1.8v1.1"/>
		<path class="st2" d="M1085.4,977.9h3.7"/>
		<path class="st2" d="M1085.4,979h3.7"/>
		<path class="st2" d="M1122.8,976.1v1.8v1.1"/>
		<path class="st2" d="M1119.2,979v-1.1v-1.8h3.6"/>
		<path class="st2" d="M1119.2,977.9h3.6"/>
		<path class="st2" d="M1119.2,979h3.6"/>
		<path class="st2" d="M1081.5,974.9v2.2h-0.4"/>
		<path class="st2" d="M1127,974.9v2.2"/>
		<path class="st2" d="M1126.6,974.9h-45.1h-0.4v2.2"/>
		<path class="st2" d="M1081.5,976.9h3.8"/>
		<path class="st2" d="M1089.1,976.9h30.1"/>
		<path class="st2" d="M1122.8,976.9h3.8"/>
		<path class="st2" d="M1081.5,977h3.8"/>
		<path class="st2" d="M1089.1,977h30.1"/>
		<path class="st2" d="M1122.8,977h3.8h0.4"/>
		<path class="st2" d="M1126.6,977v-2.2h0.4"/>
		<path class="st2" d="M1237.8,1046.9l1-0.6l1.4-0.8"/>
		<path class="st2" d="M1240.2,1045.4l1.8,3.1l-1.4,0.8l-1,0.6"/>
		<path class="st2" d="M1238.7,1046.3l1.8,3.1"/>
		<path class="st2" d="M1237.8,1046.9l1.8,3.1"/>
		<path class="st2" d="M1258.9,1077.8l-1.6,0.8l-0.8,0.5"/>
		<path class="st2" d="M1254.6,1076l1-0.5l1.6-1l1.8,3.2"/>
		<path class="st2" d="M1255.5,1075.6l1.8,3.1"/>
		<path class="st2" d="M1254.6,1076l1.9,3.1"/>
		<path class="st2" d="M1239.3,1041.5l-1.9,1.1l-0.1-0.4"/>
		<path class="st2" d="M1262,1080.8l-1.8,1.1"/>
		<path class="st2" d="M1261.9,1080.6l-22.6-39.1l-0.1-0.4l-1.9,1.1"/>
		<path class="st2" d="M1237.6,1042.4l1.9,3.4"/>
		<path class="st2" d="M1241.4,1048.9l15,26"/>
		<path class="st2" d="M1258.3,1078.2l1.9,3.4"/>
		<path class="st2" d="M1237.4,1042.6l1.9,3.4"/>
		<path class="st2" d="M1241.2,1049l15,26"/>
		<path class="st2" d="M1258,1078.3l1.9,3.4l0.2,0.2"/>
		<path class="st2" d="M1260,1081.7l1.9-1.1l0.1,0.2"/>
	</g>
	<g id="LAY-MOB-1">
		<path class="st4" d="M328.2,991v0.2"/>
	</g>
	<g id="A_POSIÇÕES_x0020_TRABALHO_8">
		<path class="st2" d="M1349,421.9v60.6l-20.2-60.6H1349v60.6h-20.2v-60.6H1349"/>
		<path class="st2" d="M1323.9,723.2c-5.3,0-10.6,0.7-15.7,2.1"/>
		<path class="st2" d="M1310.7,724.7l-2.5,0.7l15.7,58.6l2.5-0.7L1310.7,724.7"/>
		<path class="st2" d="M1308.2,721.2c5.1,1.4,10.4,2.1,15.7,2.1"/>
		<path class="st2" d="M1310.7,721.9l-2.5-0.7l15.7-58.6l2.5,0.7L1310.7,721.9"/>
		<path class="st2" d="M1306.7,489.3c5.6,1.5,11.3,2.3,17.1,2.3"/>
		<path class="st2" d="M1309.3,490.1l-2.5-0.7l17.2-64l2.5,0.7L1309.3,490.1"/>
		<path class="st2" d="M1323.9,798.1h5"/>
		<path class="st2" d="M1323.4,796.1h0.5"/>
		<path class="st2" d="M1329,798.1v30.4h-5"/>
		<path class="st2" d="M1323.9,796.1v34.4h-0.5v-34.4"/>
		<path class="st2" d="M1323.9,434.4l2.5-2.5"/>
		<path class="st2" d="M1323.9,445.2l2.5-2.5"/>
		<path class="st2" d="M1323.9,455.9l2.5-2.5"/>
		<path class="st2" d="M1323.9,466.6l2.5-2.5"/>
		<path class="st2" d="M1323.9,477.4l2.5-2.5"/>
		<path class="st2" d="M1323.9,488l2.5-2.5"/>
		<path class="st2" d="M1323.9,491.6h2.5v-66.2h-2.5V491.6"/>
		<path class="st2" d="M1332.3,511.9l2.5-2.5"/>
		<path class="st2" d="M1343,511.9l2.5-2.5"/>
		<path class="st2" d="M1332.8,607.9l2.5-2.5"/>
		<path class="st2" d="M1343.5,607.9l2.5-2.5"/>
		<path class="st2" d="M1326.4,605.4v2.5h22.8v-2.5H1326.4"/>
		<path class="st2" d="M1326.4,509.4v2.5h22.8v-2.5H1326.4"/>
		<path class="st2" d="M1323.9,723.8l0.6-0.5"/>
		<path class="st2" d="M1323.9,734.6l2.5-2.5"/>
		<path class="st2" d="M1323.9,745.3l2.5-2.5"/>
		<path class="st2" d="M1323.9,756l2.5-2.5"/>
		<path class="st2" d="M1323.9,766.8l2.5-2.5"/>
		<path class="st2" d="M1323.9,777.5l2.5-2.5"/>
		<path class="st2" d="M1326.4,723.4h-2.5V784h2.5V723.4"/>
		<path class="st2" d="M1323.9,670.3l2.5-2.5"/>
		<path class="st2" d="M1323.9,681l2.5-2.5"/>
		<path class="st2" d="M1323.9,691.7l2.5-2.5"/>
		<path class="st2" d="M1323.9,702.5l2.5-2.5"/>
		<path class="st2" d="M1323.9,713.2l2.5-2.5"/>
		<path class="st2" d="M1324.5,723.4l1.9-2"/>
		<path class="st2" d="M1323.9,723.4h2.5v-60.7h-2.5V723.4"/>
		<path class="st2" d="M1323.9,413l2.5-2.5"/>
		<path class="st2" d="M1323.9,423.7l2.5-2.5"/>
		<path class="st2" d="M1323.9,498.7l2.5-2.5"/>
		<path class="st2" d="M1323.9,509.5l2.5-2.5"/>
		<path class="st2" d="M1323.9,606l0.6-0.6"/>
		<path class="st2" d="M1323.9,616.7l2.5-2.5"/>
		<path class="st2" d="M1323.9,627.4l2.5-2.5"/>
		<path class="st2" d="M1323.9,638.2l2.5-2.5"/>
		<path class="st2" d="M1323.9,648.8l2.5-2.5"/>
		<path class="st2" d="M1323.9,659.5l2.5-2.5"/>
		<path class="st2" d="M1323.9,788.2l2.5-2.5"/>
		<path class="st2" d="M1324.8,798.1l1.7-1.7"/>
		<path class="st2" d="M1323.9,831.1l2.5-2.5"/>
		<path class="st2" d="M1323.9,841.8l2.5-2.5"/>
		<path class="st2" d="M1323.9,852.5l2.5-2.5"/>
		<path class="st2" d="M1323.9,863.3l2.5-2.5"/>
		<path class="st2" d="M1323.9,874l2.5-2.5"/>
		<path class="st2" d="M1323.9,884.6l2.5-2.5"/>
		<path class="st2" d="M1323.9,895.4l2.5-2.5"/>
		<path class="st2" d="M1323.9,906.1l2.5-2.5"/>
		<path class="st2" d="M1332.6,908.3l2.5-2.5"/>
		<path class="st2" d="M1343.2,908.3l2.5-2.5"/>
		<path class="st2" d="M1349.2,905.8h-22.8v-77.3"/>
		<path class="st2" d="M1323.9,830.5v77.4h0.4v0.4h23.9v-1.1h1.1v-1.4"/>
		<path class="st2" d="M1323.9,784v12.1"/>
		<path class="st2" d="M1326.4,798.1V784h-2.5"/>
		<path class="st2" d="M1326.4,405.2h-2.5v20.2h2.5V405.2"/>
		<path class="st2" d="M1323.9,491.6v20.3h2.5v-20.3H1323.9"/>
		<path class="st2" d="M1323.9,605.4v57.2h2.5v-57.2H1323.9"/>
		<path class="st2" d="M1349.2,903.2H1329v-74.8"/>
		<path class="st2" d="M1329,798.1V610.4h19.2"/>
		<path class="st2" d="M1348.3,610.4h1"/>
		<path class="st2" d="M1349.2,608.2v-0.2"/>
		<path class="st2" d="M1349.2,506.8H1329v-84.2"/>
		<path class="st2" d="M1329,421.9v-17.6h-2.5v1"/>
		<path class="st2" d="M994.5,405.5V11.2H234.7"/>
		<path class="st2" d="M223.8,28.1h-0.5l-1.6-1.6"/>
	</g>
	<g id="ARQ-ALV-1_9">
		<path class="st3" d="M398.6,404v0.7"/>
	</g>
	<g id="A_POSIÇÕES_x0020_TRABALHO_10">
		<path class="st2" d="M222.1,900.7h107.2"/>
		<path class="st2" d="M996.3,974.9l-0.8,1.6l-1.7-3l-5.6-9.6"/>
		<path class="st2" d="M1200,976.4h-73"/>
		<path class="st2" d="M1081.2,976.4h-85.7"/>
		<path class="st2" d="M1200,976.4l1-1.6"/>
		<path class="st2" d="M1302.3,1153.6l-41.6-72"/>
		<path class="st2" d="M1237.9,1042l-37.9-65.5"/>
		<path class="st2" d="M1302.3,1153.6l0.8-1.6"/>
		<path class="st2" d="M1316.8,1153.6h-8"/>
		<path class="st2" d="M1308.7,1153.6h-6.4"/>
		<path class="st2" d="M1206.4,965.3l0.8-1.4l109.6,189.7l-2.6-1.6"/>
		<path class="st2" d="M990.8,965.3l-2.6-1.4h219.1"/>
		<path class="st2" d="M1117.3,404v1.4H994.5"/>
		<path class="st2" d="M1258.8,405.5V404"/>
		<path class="st2" d="M1326.4,404v0.2"/>
		<path class="st2" d="M1323.9,405.5h-65.2"/>
		<path class="st2" d="M1349.2,909.6V908"/>
		<path class="st2" d="M1258.8,394.4v-1.1h89.4"/>
		<path class="st2" d="M1348.2,394.2v-1"/>
		<path class="st2" d="M994.5,393.2h122.6"/>
		<path class="st2" d="M1117.2,394.2v-1V394.2H994.5"/>
		<path class="st2" d="M1258.8,394.4v-1.1"/>
		<path class="st2" d="M1044.1,973.7h121.3v-3.6h-121.3V973.7"/>
		<path class="st2" d="M1219.2,1004l60.7,105.1l3-1.8l-60.6-105L1219.2,1004"/>
		<path class="st2" d="M1292,1764v2.2"/>
	</g>
	<g id="LAY-EQP-CHA-1">
		<path class="st4" d="M1165.6,1764v0.2"/>
		<path class="st4" d="M1165.6,1764.6v0.2"/>
		<path class="st4" d="M1165.6,1765.2v0.4"/>
		<path class="st4" d="M1165.6,1765.9v0.2"/>
	</g>
	<g id="A_POSIÇÕES_x0020_TRABALHO_11">
		<path class="st2" d="M1165.6,1766.2H1292"/>
		<path class="st2" d="M1165.6,1764H1292"/>
	</g>
	<g id="LAY-EQP-CHA-1_12">
		<path class="st4" d="M1165.6,1764v0.2"/>
		<path class="st4" d="M1165.6,1764.6v0.2"/>
		<path class="st4" d="M1165.6,1765.2v0.4"/>
		<path class="st4" d="M1165.6,1765.9v0.2"/>
	</g>
	<g id="A_POSIÇÕES_x0020_TRABALHO_13">
		<path class="st2" d="M1165.6,1764h-126.4v2.2h126.4"/>
		<path class="st2" d="M1039.3,1764v2.2"/>
		<path class="st2" d="M1039.3,1764H913v2.2h126.2"/>
		<path class="st2" d="M913,1764v2.2"/>
		<path class="st2" d="M913,1764H786.7v2.2H913"/>
		<path class="st2" d="M786.7,1764v2.2"/>
		<path class="st2" d="M786.7,1764H660.3v2.2h126.4"/>
		<path class="st2" d="M660.3,1764v2.2"/>
		<path class="st2" d="M660.3,1764H534v2.2h126.4"/>
		<path class="st2" d="M534,1764v2.2"/>
		<path class="st2" d="M534,1764H407.6v2.2H534"/>
		<path class="st2" d="M407.6,1764v2.2"/>
		<path class="st2" d="M407.6,1764h-122v2.2h122"/>
		<path class="st2" d="M1335.6,1764v2.2"/>
		<path class="st2" d="M1335.6,1764H1292v2.2h43.6"/>
		<path class="st2" d="M213.9,1536.5h-2.3"/>
		<path class="st2" d="M213.9,1536.5v-126.4h-2.3v126.4"/>
		<path class="st2" d="M213.9,1410.1h-2.3"/>
		<path class="st2" d="M213.9,1410.1v-126.4h-2.3v126.4"/>
		<path class="st2" d="M213.9,1157.5h-2.3"/>
		<path class="st2" d="M213.9,1157.5v-125.4h-2.3v125.4"/>
		<path class="st2" d="M213.9,1283.8h-2.3"/>
		<path class="st2" d="M213.9,1283.8v-126.2h-2.3v126.2"/>
		<path class="st2" d="M213.9,1658.3h-2.3"/>
		<path class="st2" d="M213.9,1658.3v-121.8h-2.3v121.8"/>
		<path class="st2" d="M213.9,902h-2.3"/>
		<path class="st2" d="M213.9,902V778.4h-2.3V902"/>
		<path class="st2" d="M213.9,778.4h-2.3"/>
		<path class="st2" d="M213.9,778.4V652.1h-2.3v126.4"/>
		<path class="st2" d="M213.9,652.1h-2.3"/>
		<path class="st2" d="M213.9,652.1V525.8h-2.3v126.2"/>
		<path class="st2" d="M213.9,525.8h-2.3"/>
		<path class="st2" d="M213.9,525.8V404.2h-2.3v121.7"/>
		<path class="st2" d="M213.9,274.1h-2.3"/>
		<path class="st2" d="M213.9,26.8h-2.3"/>
		<path class="st2" d="M1349.2,834.2v18.2V908"/>
		<path class="st2" d="M1349.2,786.7v11.2"/>
		<path class="st2" d="M1349.2,608.2v57.2"/>
		<path class="st2" d="M1349.2,465.4v46.6"/>
		<path class="st2" d="M1349.2,786.7V665.4"/>
		<path class="st2" d="M1349.2,393.4v72"/>
		<path class="st2" d="M209.1,151.6v121.3h45.5V151.6H209.1"/>
		<path class="st2" d="M254.6,180.4v63.7"/>
		<path class="st2" d="M285.6,1659.5v-1.2h-79v1.2"/>
		<path class="st2" d="M284.4,1771.2h1.2v-111.7"/>
		<path class="st2" d="M206.6,1030.9v1.2"/>
		<path class="st2" d="M206.6,902.3v1.2"/>
		<path class="st2" d="M206.6,272.9v1.2"/>
		<path class="st2" d="M206.6,144v1.3"/>
		<path class="st2" d="M223.5,16.9h-16.9v9.6h28.1"/>
		<path class="st2" d="M233.1,0h-9.6v16.9"/>
		<path class="st2" d="M1336.8,1756.1h-1.2v15.1h1.2"/>
		<path class="st2" d="M1136.1,1756.1h199.4"/>
		<path class="st2" d="M221.7,404v236.5"/>
		<path class="st2" d="M221.7,704.3v1.9"/>
		<path class="st2" d="M1349.2,0H233.1"/>
	</g>
	<g id="ARQ-PAN">
		<path d="M189.9,1662.6v123.2l2-123.2H189.9z M189.9,1785.8l2-123.2v123.2H189.9z"/>
		<path class="st5" d="M189.9,1662.6v123.2l2-123.2H189.9 M189.9,1785.8l2-123.2v123.2H189.9"/>
	</g>
	<g id="ARQ-PAN-1">
		<path class="st6" d="M192,1785.8v-123.2h-2v123.2H192"/>
	</g>
	<g id="ARQ-PAN_14">
		<path d="M1292,1787.9h55l-55-2V1787.9z M1347,1787.9l-55-2h55V1787.9z"/>
		<path class="st5" d="M1292,1787.9h55l-55-2V1787.9 M1347,1787.9l-55-2h55V1787.9"/>
	</g>
	<g id="ARQ-PAN-1_15">
		<path class="st6" d="M1347,1785.8h-55v2h55V1785.8"/>
	</g>
	<g id="ARQ-PAN-MNT-1">
		<path class="st7" d="M1347,1771.2h-14.6v14.6h14.6V1771.2"/>
	</g>
	<g id="ARQ-PAN_16">
		<path d="M189.9,1536.2v126.4l2-126.4H189.9z M189.9,1662.6l2-126.4v126.4H189.9z"/>
		<path class="st5" d="M189.9,1536.2v126.4l2-126.4H189.9 M189.9,1662.6l2-126.4v126.4H189.9"/>
	</g>
	<g id="ARQ-PAN-1_17">
		<path class="st6" d="M192,1662.6v-126.4h-2v126.4H192"/>
	</g>
	<g id="ARQ-PAN_18">
		<path d="M189.9,1409.9v126.4l2-126.4H189.9z M189.9,1536.2l2-126.4v126.4H189.9z"/>
		<path class="st5" d="M189.9,1409.9v126.4l2-126.4H189.9 M189.9,1536.2l2-126.4v126.4H189.9"/>
	</g>
	<g id="ARQ-PAN-1_19">
		<path class="st6" d="M192,1536.2v-126.4h-2v126.4H192"/>
	</g>
	<g id="ARQ-PAN_20">
		<path d="M189.9,1283.5v126.4l2-126.4H189.9z M189.9,1409.9l2-126.4v126.4H189.9z"/>
		<path class="st5" d="M189.9,1283.5v126.4l2-126.4H189.9 M189.9,1409.9l2-126.4v126.4H189.9"/>
	</g>
	<g id="ARQ-PAN-1_21">
		<path class="st6" d="M192,1409.9v-126.4h-2v126.4H192"/>
	</g>
	<g id="ARQ-PAN_22">
		<path d="M189.9,1157.3v126.2l2-126.2H189.9z M189.9,1283.5l2-126.2v126.2H189.9z"/>
		<path class="st5" d="M189.9,1157.3v126.2l2-126.2H189.9 M189.9,1283.5l2-126.2v126.2H189.9"/>
	</g>
	<g id="ARQ-PAN-1_23">
		<path class="st6" d="M192,1283.5v-126.2h-2v126.2H192"/>
	</g>
	<g id="ARQ-PAN_24">
		<path d="M189.9,1030.9v126.4l2-126.4H189.9z M189.9,1157.3l2-126.4v126.4H189.9z"/>
		<path class="st5" d="M189.9,1030.9v126.4l2-126.4H189.9 M189.9,1157.3l2-126.4v126.4H189.9"/>
	</g>
	<g id="ARQ-PAN-1_25">
		<path class="st6" d="M192,1157.3v-126.4h-2v126.4H192"/>
	</g>
	<g id="ARQ-PAN_26">
		<path d="M189.9,904.6v126.4l2-126.4H189.9z M189.9,1030.9l2-126.4v126.4H189.9z"/>
		<path class="st5" d="M189.9,904.6v126.4l2-126.4H189.9 M189.9,1030.9l2-126.4v126.4H189.9"/>
	</g>
	<g id="ARQ-PAN-1_27">
		<path class="st6" d="M192,1030.9V904.6h-2v126.4H192"/>
	</g>
	<g id="ARQ-PAN_28">
		<path d="M189.9,778.2v126.4l2-126.4H189.9z M189.9,904.6l2-126.4v126.4H189.9z"/>
		<path class="st5" d="M189.9,778.2v126.4l2-126.4H189.9 M189.9,904.6l2-126.4v126.4H189.9"/>
	</g>
	<g id="ARQ-PAN-1_29">
		<path class="st6" d="M192,904.6V778.2h-2v126.4H192"/>
	</g>
	<g id="ARQ-PAN_30">
		<path d="M189.9,651.8v126.4l2-126.4H189.9z M189.9,778.2l2-126.4v126.4H189.9z"/>
		<path class="st5" d="M189.9,651.8v126.4l2-126.4H189.9 M189.9,778.2l2-126.4v126.4H189.9"/>
	</g>
	<g id="ARQ-PAN-1_31">
		<path class="st6" d="M192,778.2V651.8h-2v126.4H192"/>
	</g>
	<g id="ARQ-PAN_32">
		<path d="M189.9,525.6v126.2l2-126.2H189.9z M189.9,651.8l2-126.2v126.2H189.9z"/>
		<path class="st5" d="M189.9,525.6v126.2l2-126.2H189.9 M189.9,651.8l2-126.2v126.2H189.9"/>
	</g>
	<g id="ARQ-PAN-1_33">
		<path class="st6" d="M192,651.8V525.6h-2v126.2H192"/>
	</g>
	<g id="ARQ-PAN_34">
		<path d="M189.9,399.2v126.4l2-126.4H189.9z M189.9,525.6l2-126.4v126.4H189.9z"/>
		<path class="st5" d="M189.9,399.2v126.4l2-126.4H189.9 M189.9,525.6l2-126.4v126.4H189.9"/>
	</g>
	<g id="ARQ-PAN-1_35">
		<path class="st6" d="M192,525.6V399.2h-2v126.4H192"/>
	</g>
	<g id="ARQ-PAN_36">
		<path d="M189.9,272.9v126.4l2-126.4H189.9z M189.9,399.2l2-126.4v126.4H189.9z"/>
		<path class="st5" d="M189.9,272.9v126.4l2-126.4H189.9 M189.9,399.2l2-126.4v126.4H189.9"/>
	</g>
	<g id="ARQ-PAN-1_37">
		<path class="st6" d="M192,399.2V272.9h-2v126.4H192"/>
	</g>
	<g id="ARQ-PAN_38">
		<path d="M189.9,146.5v126.4l2-126.4L189.9,146.5L189.9,146.5z M189.9,272.9l2-126.4v126.4H189.9z"/>
		<path class="st5" d="M189.9,146.5v126.4l2-126.4L189.9,146.5 M189.9,272.9l2-126.4v126.4H189.9"/>
	</g>
	<g id="ARQ-PAN-1_39">
		<path class="st6" d="M192,272.9V146.5h-2v126.4H192"/>
	</g>
	<g id="ARQ-PAN_40">
		<path d="M189.9,20.2v126.4l2-126.4L189.9,20.2L189.9,20.2z M189.9,146.5l2-126.4v126.4H189.9z"/>
		<path class="st5" d="M189.9,20.2v126.4l2-126.4L189.9,20.2 M189.9,146.5l2-126.4v126.4H189.9"/>
	</g>
	<g id="ARQ-PAN-1_41">
		<path class="st6" d="M192,146.5V20.2h-2v126.4H192"/>
	</g>
	<g id="ARQ-PAN_42">
		<path d="M1165.6,1787.9H1292l-126.4-2V1787.9z M1292,1787.9l-126.4-2H1292V1787.9z"/>
		<path class="st5" d="M1165.6,1787.9H1292l-126.4-2V1787.9 M1292,1787.9l-126.4-2H1292V1787.9"/>
	</g>
	<g id="ARQ-PAN-1_43">
		<path class="st6" d="M1292,1785.8h-126.4v2H1292V1785.8"/>
	</g>
	<g id="ARQ-PAN_44">
		<path d="M1039.3,1787.9h126.4l-126.4-2V1787.9z M1165.6,1787.9l-126.4-2h126.4V1787.9z"/>
		<path class="st5" d="M1039.3,1787.9h126.4l-126.4-2V1787.9 M1165.6,1787.9l-126.4-2h126.4V1787.9"/>
	</g>
	<g id="ARQ-PAN-1_45">
		<path class="st6" d="M1165.6,1785.8h-126.4v2h126.4V1785.8"/>
	</g>
	<g id="ARQ-PAN_46">
		<path d="M913,1787.9h126.2l-126.2-2L913,1787.9L913,1787.9z M1039.3,1787.9l-126.2-2h126.2V1787.9z"/>
		<path class="st5" d="M913,1787.9h126.2l-126.2-2L913,1787.9 M1039.3,1787.9l-126.2-2h126.2V1787.9"/>
	</g>
	<g id="ARQ-PAN-1_47">
		<path class="st6" d="M1039.3,1785.8H913v2h126.2V1785.8"/>
	</g>
	<g id="ARQ-PAN_48">
		<path d="M786.7,1787.9H913l-126.4-2V1787.9z M913,1787.9l-126.4-2H913V1787.9z"/>
		<path class="st5" d="M786.7,1787.9H913l-126.4-2V1787.9 M913,1787.9l-126.4-2H913V1787.9"/>
	</g>
	<g id="ARQ-PAN-1_49">
		<path class="st6" d="M913,1785.8H786.7v2H913V1785.8"/>
	</g>
	<g id="ARQ-PAN_50">
		<path d="M660.3,1787.9h126.4l-126.4-2V1787.9z M786.7,1787.9l-126.4-2h126.4V1787.9z"/>
		<path class="st5" d="M660.3,1787.9h126.4l-126.4-2V1787.9 M786.7,1787.9l-126.4-2h126.4V1787.9"/>
	</g>
	<g id="ARQ-PAN-1_51">
		<path class="st6" d="M786.7,1785.8H660.3v2h126.4V1785.8"/>
	</g>
	<g id="ARQ-PAN_52">
		<path d="M534,1787.9h126.4l-126.4-2V1787.9z M660.3,1787.9l-126.4-2h126.4V1787.9z"/>
		<path class="st5" d="M534,1787.9h126.4l-126.4-2V1787.9 M660.3,1787.9l-126.4-2h126.4V1787.9"/>
	</g>
	<g id="ARQ-PAN-1_53">
		<path class="st6" d="M660.3,1785.8H534v2h126.4V1785.8"/>
	</g>
	<g id="ARQ-PAN_54">
		<path d="M407.6,1787.9H534l-126.4-2V1787.9z M534,1787.9l-126.4-2H534V1787.9z"/>
		<path class="st5" d="M407.6,1787.9H534l-126.4-2V1787.9 M534,1787.9l-126.4-2H534V1787.9"/>
	</g>
	<g id="ARQ-PAN-1_55">
		<path class="st6" d="M534,1785.8H407.6v2H534V1785.8"/>
	</g>
	<g id="ARQ-PAN_56">
		<path d="M281.2,1787.9h126.4l-126.4-2V1787.9z M407.6,1787.9l-126.4-2h126.4V1787.9z"/>
		<path class="st5" d="M281.2,1787.9h126.4l-126.4-2V1787.9 M407.6,1787.9l-126.4-2h126.4V1787.9"/>
	</g>
	<g id="ARQ-PAN-1_57">
		<path class="st6" d="M407.6,1785.8H281.2v2h126.4V1785.8"/>
	</g>
	<g id="ARQ-PAN-MNT-2">
		<path class="st8" d="M206.6,782.5v117.7"/>
		<path class="st8" d="M206.6,656.2v117.7"/>
		<path class="st8" d="M206.6,529.8v117.8"/>
		<path class="st8" d="M206.6,404v117.2"/>
		<path class="st8" d="M206.6,277.2v117.2"/>
		<path class="st8" d="M206.6,150.8v117.7"/>
		<path class="st8" d="M206.6,26.5v115.7"/>
		<path class="st8" d="M206.6,1287.8v117.7"/>
		<path class="st8" d="M206.6,1161.5v117.8"/>
		<path class="st8" d="M206.6,1035.2V1153"/>
		<path class="st8" d="M206.6,908.9v117.7"/>
		<path class="st8" d="M206.6,1414.2v117.7"/>
		<path class="st8" d="M206.6,1540.6v117.7"/>
	</g>
	<g id="ARQ-PAN-MNT-1_58">
		<path class="st7" d="M206.6,1666.9v-8.6H192v8.6H206.6"/>
		<path class="st7" d="M206.6,1540.6v-8.6H192v8.6H206.6"/>
		<path class="st7" d="M206.6,1414.2v-8.6H192v8.6H206.6"/>
		<path class="st7" d="M206.6,1287.8v-8.5H192v8.5H206.6"/>
		<path class="st7" d="M206.6,1161.5v-8.5H192v8.5H206.6"/>
		<path class="st7" d="M206.6,1035.2v-8.6H192v8.6H206.6"/>
		<path class="st7" d="M206.6,908.9v-8.6H192v8.6H206.6"/>
		<path class="st7" d="M206.6,782.5v-8.6H192v8.6H206.6"/>
		<path class="st7" d="M206.6,656.2v-8.5H192v8.5H206.6"/>
		<path class="st7" d="M206.6,529.8v-8.5H192v8.5H206.6"/>
		<path class="st7" d="M206.6,403.6v-8.6H192v8.6H206.6"/>
		<path class="st7" d="M206.6,277.2v-8.6H192v8.6H206.6"/>
		<path class="st7" d="M206.6,150.8v-8.6H192v8.6H206.6"/>
		<path class="st7" d="M206.6,24.5V16H192v8.5H206.6"/>
	</g>
	<g id="ARQ-PAN-MNT-2_59">
		<path class="st8" d="M917.2,1771.2h117.8"/>
		<path class="st8" d="M791,1771.2h117.7"/>
		<path class="st8" d="M664.6,1771.2h117.7"/>
		<path class="st8" d="M538.3,1771.2H656"/>
		<path class="st8" d="M411.9,1771.2h117.7"/>
		<path class="st8" d="M285.6,1771.2h117.7"/>
	</g>
	<g id="ARQ-PAN-MNT-1_60">
		<path class="st7" d="M1296.3,1771.2h-8.6v14.6h8.6V1771.2"/>
		<path class="st7" d="M1170,1771.2h-8.6v14.6h8.6V1771.2"/>
		<path class="st7" d="M1043.6,1771.2h-8.5v14.6h8.5V1771.2"/>
		<path class="st7" d="M917.2,1771.2h-8.5v14.6h8.5V1771.2"/>
		<path class="st7" d="M791,1771.2h-8.6v14.6h8.6V1771.2"/>
		<path class="st7" d="M664.6,1771.2H656v14.6h8.6V1771.2"/>
		<path class="st7" d="M538.3,1771.2h-8.6v14.6h8.6V1771.2"/>
		<path class="st7" d="M411.9,1771.2h-8.6v14.6h8.6V1771.2"/>
	</g>
	<g id="ARQ-PAN-MNT-2_61">
		<path class="st8" d="M192,1771.2H277"/>
		<path class="st8" d="M1296.3,1771.2h36"/>
		<path class="st8" d="M1043.6,1771.2h117.7"/>
	</g>
	<g id="ARQ-PAN_62">
		<path d="M192,1787.9h89.3l-89.3-2V1787.9z M281.2,1787.9l-89.3-2h89.3V1787.9z"/>
		<path class="st5" d="M192,1787.9h89.3l-89.3-2V1787.9 M281.2,1787.9l-89.3-2h89.3V1787.9"/>
	</g>
	<g id="ARQ-PAN-1_63">
		<path class="st6" d="M281.2,1785.8H192v2h89.3V1785.8"/>
	</g>
	<g id="ARQ-PAN-MNT-1_64">
		<path class="st7" d="M285.6,1771.2H277v14.6h8.5V1771.2"/>
	</g>
	<g id="ARQ-PAN-MNT-2_65">
		<path class="st8" d="M1170,1771.2h117.7"/>
		<path class="st8" d="M206.6,1666.9v118.9"/>
	</g>
	<g id="LAY-MAR-2">
		<path class="st8" d="M1349.2,665.4v3.5h-60.7v-3.5H1349.2"/>
		<path class="st8" d="M1349.2,786.7v-3.6h-60.7v3.6H1349.2"/>
		<path class="st8" d="M1349.2,726c-33.5,0-60.7,27.2-60.7,60.7"/>
		<path class="st8" d="M1288.5,665.3c0,33.5,27.2,60.7,60.7,60.7"/>
	</g>
	<g id="A_POSIÇÕES_x0020_TRABALHO_66">
		<path class="st2" d="M221.7,640.6l0.4,260.2"/>
		<path class="st2" d="M828.8,1676.2l-179.4-122.5l-148.8,89v121.2"/>
		<path class="st2" d="M470.4,1642.7h30.2v121.2h-30.2V1642.7"/>
		<path class="st2" d="M440,1642.7h30.4v121.2H440V1642.7"/>
		<path class="st2" d="M409.6,1642.7H440v121.2h-30.4V1642.7"/>
		<path class="st2" d="M379.4,1642.7h30.2v121.2h-30.2V1642.7"/>
		<path class="st2" d="M285.6,1764h93.8v-121.3h-93.8V1764"/>
		<path class="st9" d="M510.4,1646.6h-9.8l9.8,6.1V1646.6z M500.6,1646.6l9.8,6.1h-9.8V1646.6z"/>
		<path class="st10" d="M510.4,1646.6h-9.8l9.8,6.1V1646.6 M500.6,1646.6l9.8,6.1h-9.8V1646.6"/>
		<path class="st9" d="M500.6,1646.6h-30.2l30.2,6.1V1646.6z M470.4,1646.6l30.2,6.1h-30.2V1646.6z"/>
		<path class="st10" d="M500.6,1646.6h-30.2l30.2,6.1V1646.6 M470.4,1646.6l30.2,6.1h-30.2V1646.6"/>
		<path class="st9" d="M470.4,1646.6H440l30.4,6.1V1646.6z M440,1646.6l30.4,6.1H440V1646.6z"/>
		<path class="st10" d="M470.4,1646.6H440l30.4,6.1V1646.6 M440,1646.6l30.4,6.1H440V1646.6"/>
		<path class="st9" d="M440,1646.6h-30.4l30.4,6.1V1646.6z M409.6,1646.6l30.4,6.1h-30.4V1646.6z"/>
		<path class="st10" d="M440,1646.6h-30.4l30.4,6.1V1646.6 M409.6,1646.6l30.4,6.1h-30.4V1646.6"/>
		<path class="st9" d="M409.6,1646.6h-30.2l30.2,6.1V1646.6z M379.4,1646.6l30.2,6.1h-30.2V1646.6z"/>
		<path class="st10" d="M409.6,1646.6h-30.2l30.2,6.1V1646.6 M379.4,1646.6l30.2,6.1h-30.2V1646.6"/>
		<path class="st9" d="M379.4,1646.6h-10.7l10.7,6.1V1646.6z M368.7,1646.6l10.7,6.1h-10.7V1646.6z"/>
		<path class="st10" d="M379.4,1646.6h-10.7l10.7,6.1V1646.6 M368.7,1646.6l10.7,6.1h-10.7V1646.6"/>
		<path class="st2" d="M510.4,1646.6H368.7v6.1h141.7V1646.6"/>
		<path class="st2" d="M234.7,11.2v15.4"/>
		<path class="st2" d="M1349.2,11.2H995.5V404"/>
		<path class="st2" d="M1004.7,394.2v-383"/>
		<path class="st2" d="M1005.7,11.2v383"/>
		<path class="st2" d="M1338,394.4V11.2"/>
		<path class="st2" d="M1338.9,11.2v383.3"/>
		<path class="st2" d="M1348.2,394.4V11.2"/>
		<path class="st2" d="M1349.2,0v394.4"/>
		<path class="st2" d="M1335.6,1771.2v-15.1"/>
		<path class="st2" d="M206.6,1032.1h122.6V900.7H206.6V1032.1"/>
	</g>
	<g id="LAY-MOB_67">
		<path class="st1" d="M821.1,839.9l-83.4-57.1l-80,61.7"/>
		<path class="st1" d="M691.6,939.7l101-2.9L691.6,939.7"/>
		<path class="st1" d="M663.1,1036.7l83.4,57"/>
	</g>
	<g id="_0">
		<path d="M368.4,470.5H364v-27.7c-1,1-2.4,2-4.1,3c-1.7,1-3.2,1.7-4.6,2.2v-4.2c2.4-1.1,4.6-2.5,6.4-4.2c1.8-1.6,3.1-3.2,3.9-4.7    h2.8V470.5L368.4,470.5z"/>
		<path d="M376.8,721v4.2h-23.4c0-1,0.1-2.1,0.5-3c0.6-1.6,1.5-3.2,2.9-4.7c1.3-1.5,3.2-3.3,5.7-5.4c3.8-3.2,6.4-5.7,7.8-7.5    s2-3.6,2-5.2c0-1.7-0.6-3.2-1.8-4.4c-1.2-1.2-2.8-1.8-4.8-1.8c-2.1,0-3.8,0.6-5,1.9c-1.3,1.3-1.9,3-1.9,5.2l-4.5-0.5    c0.3-3.3,1.5-5.9,3.5-7.6c2-1.7,4.7-2.6,8-2.6c3.4,0,6.1,0.9,8.1,2.8c2,1.9,3,4.2,3,7c0,1.4-0.3,2.8-0.9,4.2s-1.5,2.8-2.9,4.3    c-1.3,1.5-3.6,3.6-6.7,6.2c-2.6,2.2-4.3,3.7-5,4.5c-0.7,0.8-1.4,1.6-1.8,2.4L376.8,721L376.8,721z"/>
		<path d="M589.2,497.9v4.2h-23.4c0-1,0.1-2.1,0.5-3c0.6-1.6,1.5-3.2,2.9-4.7c1.3-1.5,3.2-3.3,5.7-5.4c3.8-3.2,6.4-5.7,7.8-7.5    c1.4-1.8,2-3.6,2-5.2c0-1.7-0.6-3.2-1.8-4.4c-1.2-1.2-2.8-1.8-4.8-1.8c-2.1,0-3.8,0.6-5,1.9c-1.3,1.3-1.9,3-1.9,5.2l-4.5-0.5    c0.3-3.3,1.5-5.9,3.5-7.6c2-1.7,4.7-2.6,8-2.6c3.4,0,6.1,0.9,8.1,2.8c2,1.9,3,4.2,3,7c0,1.4-0.3,2.8-0.9,4.2s-1.5,2.8-2.9,4.3    c-1.3,1.5-3.6,3.6-6.7,6.2c-2.6,2.2-4.3,3.7-5,4.5c-0.7,0.8-1.4,1.6-1.8,2.4H589.2z M593.8,492.8l4.6-0.4c0.3,2.2,1.1,3.9,2.4,5    c1.2,1.1,2.7,1.7,4.5,1.7c2.1,0,3.9-0.8,5.3-2.4c1.4-1.6,2.2-3.7,2.2-6.3c0-2.5-0.7-4.4-2.1-5.9c-1.4-1.4-3.2-2.1-5.5-2.1    c-1.4,0-2.7,0.3-3.8,1c-1.1,0.6-2,1.5-2.7,2.5l-4.1-0.5l3.4-18.2h17.6v4.2h-14.1l-1.9,9.5c2.1-1.5,4.4-2.2,6.7-2.2    c3.1,0,5.7,1.1,7.8,3.2c2.1,2.1,3.2,4.9,3.2,8.3c0,3.2-0.9,6-2.8,8.3c-2.3,2.9-5.4,4.3-9.3,4.3c-3.2,0-5.8-0.9-7.9-2.7    C595.3,498.2,594.1,495.8,593.8,492.8L593.8,492.8z"/>
		<path d="M680.4,449.9H676v-27.7c-1,1-2.4,2-4.1,3c-1.7,1-3.2,1.7-4.6,2.2v-4.2c2.4-1.1,4.6-2.5,6.4-4.2c1.8-1.6,3.1-3.2,3.9-4.7    h2.8V449.9L680.4,449.9z M698.2,430.7c-1.8-0.7-3.1-1.6-4-2.8c-0.9-1.2-1.3-2.7-1.3-4.4c0-2.6,0.9-4.7,2.8-6.5    c1.9-1.8,4.3-2.6,7.4-2.6c3.1,0,5.6,0.9,7.5,2.7c1.9,1.8,2.8,4,2.8,6.6c0,1.6-0.4,3.1-1.3,4.3c-0.9,1.2-2.2,2.2-3.9,2.8    c2.2,0.7,3.8,1.8,5,3.4c1.1,1.6,1.7,3.5,1.7,5.6c0,3-1.1,5.6-3.2,7.6s-5,3.1-8.4,3.1c-3.5,0-6.3-1-8.4-3.1    c-2.1-2.1-3.2-4.6-3.2-7.7c0-2.3,0.6-4.2,1.7-5.8C694.4,432.3,696,431.3,698.2,430.7L698.2,430.7z M697.3,423.3    c0,1.7,0.5,3,1.6,4.1c1.1,1.1,2.5,1.6,4.2,1.6c1.7,0,3-0.5,4.1-1.6c1.1-1.1,1.6-2.3,1.6-3.9c0-1.6-0.6-2.9-1.7-4    c-1.1-1.1-2.5-1.6-4.1-1.6c-1.7,0-3,0.5-4.1,1.6C697.9,420.6,697.3,421.9,697.3,423.3L697.3,423.3z M695.9,439.7    c0,1.2,0.3,2.4,0.9,3.6c0.6,1.2,1.5,2.1,2.6,2.7s2.4,1,3.7,1c2.1,0,3.8-0.7,5.1-2c1.4-1.3,2-3,2-5.1c0-2.1-0.7-3.8-2.1-5.2    c-1.4-1.4-3.1-2.1-5.2-2.1c-2,0-3.7,0.7-5.1,2C696.6,436,695.9,437.6,695.9,439.7L695.9,439.7z"/>
		<path d="M777.3,434.2H773v-27.7c-1,1-2.4,2-4.1,3c-1.7,1-3.2,1.7-4.6,2.2v-4.2c2.4-1.1,4.6-2.5,6.4-4.2c1.8-1.6,3.1-3.2,3.9-4.7    h2.8V434.2L777.3,434.2z M789.1,426l4.2-0.4c0.4,2,1,3.4,2,4.3c1,0.9,2.3,1.3,3.8,1.3c1.3,0,2.5-0.3,3.5-0.9    c1-0.6,1.8-1.4,2.5-2.4c0.6-1,1.2-2.4,1.6-4.1c0.4-1.7,0.7-3.5,0.7-5.3c0-0.2,0-0.5,0-0.9c-0.9,1.4-2.1,2.5-3.6,3.4    c-1.5,0.9-3.1,1.3-4.9,1.3c-2.9,0-5.4-1.1-7.4-3.2c-2-2.1-3-4.9-3-8.4c0-3.6,1.1-6.5,3.2-8.7c2.1-2.2,4.8-3.3,8-3.3    c2.3,0,4.4,0.6,6.3,1.9c1.9,1.2,3.4,3,4.3,5.3c1,2.3,1.5,5.6,1.5,10c0,4.5-0.5,8.1-1.5,10.8c-1,2.7-2.4,4.7-4.4,6.1    c-1.9,1.4-4.2,2.1-6.8,2.1c-2.8,0-5-0.8-6.8-2.3C790.5,430.9,789.5,428.8,789.1,426L789.1,426z M806.9,410.4c0-2.5-0.7-4.5-2-5.9    c-1.3-1.5-2.9-2.2-4.8-2.2c-1.9,0-3.6,0.8-5,2.4c-1.4,1.6-2.1,3.6-2.1,6.1c0,2.3,0.7,4.1,2,5.5c1.4,1.4,3,2.1,5,2.1    c2,0,3.7-0.7,5-2.1C806.2,414.8,806.9,412.9,806.9,410.4L806.9,410.4z"/>
		<path d="M912.8,467.2v4.2h-23.4c0-1,0.1-2.1,0.5-3c0.6-1.6,1.5-3.2,2.9-4.7c1.3-1.5,3.2-3.3,5.7-5.4c3.8-3.2,6.4-5.7,7.8-7.5    c1.4-1.8,2-3.6,2-5.2c0-1.7-0.6-3.2-1.8-4.4c-1.2-1.2-2.8-1.8-4.8-1.8c-2.1,0-3.8,0.6-5,1.9c-1.3,1.3-1.9,3-1.9,5.2l-4.5-0.5    c0.3-3.3,1.5-5.9,3.5-7.6c2-1.7,4.7-2.6,8-2.6c3.4,0,6.1,0.9,8.1,2.8c2,1.9,3,4.2,3,7c0,1.4-0.3,2.8-0.9,4.2s-1.5,2.8-2.9,4.3    c-1.3,1.5-3.6,3.6-6.7,6.2c-2.6,2.2-4.3,3.7-5,4.5c-0.7,0.8-1.4,1.6-1.8,2.4H912.8z M917.4,453.9c0-4.2,0.4-7.5,1.3-10.1    s2.1-4.5,3.8-5.9c1.7-1.4,3.8-2.1,6.4-2.1c1.9,0,3.6,0.4,5,1.1c1.4,0.8,2.6,1.9,3.5,3.3c0.9,1.4,1.7,3.2,2.2,5.3    c0.5,2.1,0.8,4.9,0.8,8.4c0,4.2-0.4,7.5-1.3,10.1c-0.9,2.5-2.1,4.5-3.8,5.9s-3.8,2.1-6.4,2.1c-3.4,0-6.1-1.2-8-3.7    C918.6,465.4,917.4,460.6,917.4,453.9L917.4,453.9z M921.9,453.9c0,5.8,0.7,9.7,2,11.6c1.4,1.9,3,2.9,5,2.9c2,0,3.7-1,5-2.9    c1.4-1.9,2-5.8,2-11.6c0-5.8-0.7-9.7-2-11.6c-1.4-1.9-3.1-2.9-5.1-2.9c-2,0-3.6,0.8-4.8,2.5C922.7,444.1,921.9,448.1,921.9,453.9    L921.9,453.9z"/>
		<path d="M929.4,631.1v4.2H906c0-1,0.1-2.1,0.5-3c0.6-1.6,1.5-3.2,2.9-4.7c1.3-1.5,3.2-3.3,5.7-5.4c3.8-3.2,6.4-5.7,7.8-7.5    c1.4-1.8,2-3.6,2-5.2c0-1.7-0.6-3.2-1.8-4.4c-1.2-1.2-2.8-1.8-4.8-1.8c-2.1,0-3.8,0.6-5,1.9c-1.3,1.3-1.9,3-1.9,5.2l-4.5-0.5    c0.3-3.3,1.5-5.9,3.5-7.6c2-1.7,4.7-2.6,8-2.6c3.4,0,6.1,0.9,8.1,2.8c2,1.9,3,4.2,3,7c0,1.4-0.3,2.8-0.9,4.2s-1.5,2.8-2.9,4.3    c-1.3,1.5-3.6,3.6-6.7,6.2c-2.6,2.2-4.3,3.7-5,4.5c-0.7,0.8-1.4,1.6-1.8,2.4L929.4,631.1L929.4,631.1z M950.4,635.3H946v-27.7    c-1,1-2.4,2-4.1,3c-1.7,1-3.2,1.7-4.6,2.2v-4.2c2.4-1.1,4.6-2.5,6.4-4.2c1.8-1.6,3.1-3.2,3.9-4.7h2.8V635.3z"/>
		<path d="M822,666v4.2h-23.4c0-1,0.1-2.1,0.5-3c0.6-1.6,1.5-3.2,2.9-4.7c1.3-1.5,3.2-3.3,5.7-5.4c3.8-3.2,6.4-5.7,7.8-7.5    c1.4-1.8,2-3.6,2-5.2c0-1.7-0.6-3.2-1.8-4.4c-1.2-1.2-2.8-1.8-4.8-1.8c-2.1,0-3.8,0.6-5,1.9c-1.3,1.3-1.9,3-1.9,5.2l-4.5-0.5    c0.3-3.3,1.5-5.9,3.5-7.6c2-1.7,4.7-2.6,8-2.6c3.4,0,6.1,0.9,8.1,2.8c2,1.9,3,4.2,3,7c0,1.4-0.3,2.8-0.9,4.2s-1.5,2.8-2.9,4.3    c-1.3,1.5-3.6,3.6-6.7,6.2c-2.6,2.2-4.3,3.7-5,4.5c-0.7,0.8-1.4,1.6-1.8,2.4L822,666L822,666z M849.4,666v4.2h-23.4    c0-1,0.1-2.1,0.5-3c0.6-1.6,1.5-3.2,2.9-4.7c1.3-1.5,3.2-3.3,5.7-5.4c3.8-3.2,6.4-5.7,7.8-7.5s2-3.6,2-5.2c0-1.7-0.6-3.2-1.8-4.4    c-1.2-1.2-2.8-1.8-4.8-1.8c-2.1,0-3.8,0.6-5,1.9c-1.3,1.3-1.9,3-1.9,5.2l-4.5-0.5c0.3-3.3,1.5-5.9,3.5-7.6c2-1.7,4.7-2.6,8-2.6    c3.4,0,6.1,0.9,8.1,2.8c2,1.9,3,4.2,3,7c0,1.4-0.3,2.8-0.9,4.2s-1.5,2.8-2.9,4.3c-1.3,1.5-3.6,3.6-6.7,6.2c-2.6,2.2-4.3,3.7-5,4.5    c-0.7,0.8-1.4,1.6-1.8,2.4L849.4,666L849.4,666z"/>
		<path d="M699,666.7v4.2h-23.4c0-1,0.1-2.1,0.5-3c0.6-1.6,1.5-3.2,2.9-4.7c1.3-1.5,3.2-3.3,5.7-5.4c3.8-3.2,6.4-5.7,7.8-7.5    c1.4-1.8,2-3.6,2-5.2c0-1.7-0.6-3.2-1.8-4.4c-1.2-1.2-2.8-1.8-4.8-1.8c-2.1,0-3.8,0.6-5,1.9c-1.3,1.3-1.9,3-1.9,5.2l-4.5-0.5    c0.3-3.3,1.5-5.9,3.5-7.6s4.7-2.6,8-2.6c3.4,0,6.1,0.9,8.1,2.8c2,1.9,3,4.2,3,7c0,1.4-0.3,2.8-0.9,4.2s-1.5,2.8-2.9,4.3    c-1.3,1.5-3.6,3.6-6.7,6.2c-2.6,2.2-4.3,3.7-5,4.5c-0.7,0.8-1.4,1.6-1.8,2.4L699,666.7L699,666.7z M703.6,661.6l4.3-0.6    c0.5,2.5,1.3,4.2,2.5,5.3c1.2,1.1,2.7,1.6,4.4,1.6c2,0,3.8-0.7,5.2-2.1c1.4-1.4,2.1-3.2,2.1-5.3c0-2-0.7-3.6-2-4.9    c-1.3-1.3-3-1.9-5-1.9c-0.8,0-1.8,0.2-3.1,0.5l0.5-3.8c0.3,0,0.5,0,0.7,0c1.8,0,3.5-0.5,5-1.4c1.5-1,2.2-2.5,2.2-4.5    c0-1.6-0.5-2.9-1.6-4c-1.1-1-2.5-1.6-4.2-1.6c-1.7,0-3.1,0.5-4.2,1.6c-1.1,1.1-1.8,2.7-2.2,4.8l-4.3-0.8c0.5-2.9,1.7-5.2,3.6-6.8    c1.9-1.6,4.2-2.4,7-2.4c1.9,0,3.7,0.4,5.3,1.2c1.6,0.8,2.9,2,3.7,3.4s1.3,3,1.3,4.6c0,1.5-0.4,2.9-1.2,4.2c-0.8,1.3-2,2.3-3.6,3    c2.1,0.5,3.7,1.5,4.9,3c1.2,1.5,1.7,3.4,1.7,5.7c0,3.1-1.1,5.7-3.4,7.9c-2.3,2.1-5.1,3.2-8.5,3.2c-3.1,0-5.7-0.9-7.7-2.8    C705.1,666.9,703.9,664.5,703.6,661.6L703.6,661.6z"/>
		<path d="M592.4,616.6v4.2H569c0-1,0.1-2.1,0.5-3c0.6-1.6,1.5-3.2,2.9-4.7c1.3-1.5,3.2-3.3,5.7-5.4c3.8-3.2,6.4-5.7,7.8-7.5    c1.4-1.8,2-3.6,2-5.2c0-1.7-0.6-3.2-1.8-4.4c-1.2-1.2-2.8-1.8-4.8-1.8c-2.1,0-3.8,0.6-5,1.9c-1.3,1.3-1.9,3-1.9,5.2l-4.5-0.5    c0.3-3.3,1.5-5.9,3.5-7.6c2-1.7,4.7-2.6,8-2.6c3.4,0,6.1,0.9,8.1,2.8c2,1.9,3,4.2,3,7c0,1.4-0.3,2.8-0.9,4.2s-1.5,2.8-2.9,4.3    c-1.3,1.5-3.6,3.6-6.7,6.2c-2.6,2.2-4.3,3.7-5,4.5c-0.7,0.8-1.4,1.6-1.8,2.4L592.4,616.6L592.4,616.6z M611,620.8v-8.5h-15.3v-4    l16.1-22.9h3.5v22.9h4.8v4h-4.8v8.5H611z M611,608.3v-15.9l-11.1,15.9H611z"/>
		<path d="M633.3,786.9l4.3-0.6c0.5,2.5,1.3,4.2,2.5,5.3c1.2,1.1,2.7,1.6,4.4,1.6c2,0,3.8-0.7,5.2-2.1c1.4-1.4,2.1-3.2,2.1-5.3    c0-2-0.7-3.6-2-4.9c-1.3-1.3-3-1.9-5-1.9c-0.8,0-1.8,0.2-3.1,0.5l0.5-3.8c0.3,0,0.5,0,0.7,0c1.8,0,3.5-0.5,5-1.4s2.2-2.5,2.2-4.5    c0-1.6-0.5-2.9-1.6-4c-1.1-1-2.5-1.6-4.2-1.6c-1.7,0-3.1,0.5-4.2,1.6c-1.1,1.1-1.8,2.7-2.2,4.8l-4.3-0.8c0.5-2.9,1.7-5.2,3.6-6.8    c1.9-1.6,4.2-2.4,7-2.4c1.9,0,3.7,0.4,5.3,1.2c1.6,0.8,2.9,2,3.7,3.4c0.9,1.4,1.3,3,1.3,4.6c0,1.5-0.4,2.9-1.2,4.2    c-0.8,1.3-2,2.3-3.6,3c2.1,0.5,3.7,1.5,4.9,3c1.2,1.5,1.7,3.4,1.7,5.7c0,3.1-1.1,5.7-3.4,7.9c-2.3,2.1-5.1,3.2-8.5,3.2    c-3.1,0-5.7-0.9-7.7-2.8C634.8,792.2,633.6,789.8,633.3,786.9L633.3,786.9z M660.8,786.9l4.3-0.6c0.5,2.5,1.3,4.2,2.5,5.3    c1.2,1.1,2.7,1.6,4.4,1.6c2,0,3.8-0.7,5.2-2.1c1.4-1.4,2.1-3.2,2.1-5.3c0-2-0.7-3.6-2-4.9c-1.3-1.3-3-1.9-5-1.9    c-0.8,0-1.8,0.2-3.1,0.5l0.5-3.8c0.3,0,0.5,0,0.7,0c1.8,0,3.5-0.5,5-1.4c1.5-1,2.2-2.5,2.2-4.5c0-1.6-0.5-2.9-1.6-4    c-1.1-1-2.5-1.6-4.2-1.6c-1.7,0-3.1,0.5-4.2,1.6c-1.1,1.1-1.8,2.7-2.2,4.8l-4.3-0.8c0.5-2.9,1.7-5.2,3.6-6.8    c1.9-1.6,4.2-2.4,7-2.4c1.9,0,3.7,0.4,5.3,1.2c1.6,0.8,2.9,2,3.7,3.4s1.3,3,1.3,4.6c0,1.5-0.4,2.9-1.2,4.2c-0.8,1.3-2,2.3-3.6,3    c2.1,0.5,3.7,1.5,4.9,3c1.2,1.5,1.7,3.4,1.7,5.7c0,3.1-1.1,5.7-3.4,7.9c-2.3,2.1-5.1,3.2-8.5,3.2c-3.1,0-5.7-0.9-7.7-2.8    C662.3,792.2,661.1,789.8,660.8,786.9L660.8,786.9z"/>
		<path d="M813.8,783.7v4.2h-23.4c0-1,0.1-2.1,0.5-3c0.6-1.6,1.5-3.2,2.9-4.7c1.3-1.5,3.2-3.3,5.7-5.4c3.8-3.2,6.4-5.7,7.8-7.5    s2-3.6,2-5.2c0-1.7-0.6-3.2-1.8-4.4c-1.2-1.2-2.8-1.8-4.8-1.8c-2.1,0-3.8,0.6-5,1.9c-1.3,1.3-1.9,3-1.9,5.2l-4.5-0.5    c0.3-3.3,1.5-5.9,3.5-7.6c2-1.7,4.7-2.6,8-2.6c3.4,0,6.1,0.9,8.1,2.8c2,1.9,3,4.2,3,7c0,1.4-0.3,2.8-0.9,4.2s-1.5,2.8-2.9,4.3    c-1.3,1.5-3.6,3.6-6.7,6.2c-2.6,2.2-4.3,3.7-5,4.5c-0.7,0.8-1.4,1.6-1.8,2.4L813.8,783.7L813.8,783.7z M841,761.1l-4.3,0.3    c-0.4-1.7-0.9-2.9-1.6-3.7c-1.2-1.2-2.6-1.9-4.3-1.9c-1.4,0-2.6,0.4-3.6,1.2c-1.4,1-2.4,2.5-3.2,4.4c-0.8,1.9-1.2,4.6-1.2,8.2    c1-1.6,2.3-2.8,3.8-3.5c1.5-0.8,3.1-1.2,4.8-1.2c2.9,0,5.4,1.1,7.4,3.2c2,2.1,3.1,4.9,3.1,8.3c0,2.2-0.5,4.3-1.4,6.2    c-1,1.9-2.3,3.4-3.9,4.4c-1.7,1-3.6,1.5-5.7,1.5c-3.6,0-6.6-1.3-8.9-4c-2.3-2.7-3.4-7.1-3.4-13.2c0-6.8,1.3-11.8,3.8-14.9    c2.2-2.7,5.2-4.1,8.9-4.1c2.8,0,5.1,0.8,6.8,2.3C839.6,756.2,840.6,758.4,841,761.1z M823.3,776.4c0,1.5,0.3,2.9,1,4.3    c0.6,1.4,1.5,2.4,2.7,3.1c1.1,0.7,2.3,1.1,3.6,1.1c1.8,0,3.4-0.7,4.7-2.2c1.3-1.5,2-3.5,2-6c0-2.4-0.7-4.4-2-5.8    c-1.3-1.4-2.9-2.1-4.9-2.1c-2,0-3.6,0.7-5,2.1C823.9,772.2,823.3,774.1,823.3,776.4L823.3,776.4z M614.8,1500l-4.9,0.3    c-0.4-1.7-1.1-2.9-1.9-3.7c-1.3-1.2-3-1.9-4.9-1.9c-1.6,0-3,0.4-4.1,1.2c-1.6,1-2.8,2.5-3.7,4.4c-0.9,1.9-1.4,4.6-1.4,8.2    c1.2-1.6,2.6-2.8,4.4-3.5c1.7-0.8,3.5-1.2,5.4-1.2c3.3,0,6.1,1.1,8.4,3.2c2.3,2.1,3.5,4.9,3.5,8.3c0,2.2-0.5,4.3-1.6,6.2    c-1.1,1.9-2.6,3.4-4.5,4.4c-1.9,1-4.1,1.5-6.5,1.5c-4.1,0-7.5-1.3-10.1-4c-2.6-2.7-3.9-7.1-3.9-13.2c0-6.8,1.4-11.8,4.3-14.9    c2.5-2.7,5.9-4.1,10.1-4.1c3.2,0,5.8,0.8,7.8,2.3C613.2,1495.1,614.4,1497.2,614.8,1500z M594.6,1515.3c0,1.5,0.4,2.9,1.1,4.3    c0.7,1.4,1.7,2.4,3,3.1c1.3,0.7,2.7,1.1,4.1,1.1c2.1,0,3.9-0.7,5.4-2.2c1.5-1.5,2.3-3.5,2.3-6c0-2.4-0.7-4.4-2.2-5.8    c-1.5-1.4-3.4-2.1-5.6-2.1c-2.2,0-4.1,0.7-5.7,2.1C595.4,1511.1,594.6,1513,594.6,1515.3L594.6,1515.3z"/>
		<path d="M834.6,901.7v4.2h-23.4c0-1,0.1-2.1,0.5-3c0.6-1.6,1.5-3.2,2.9-4.7c1.3-1.5,3.2-3.3,5.7-5.4c3.8-3.2,6.4-5.7,7.8-7.5    c1.4-1.8,2-3.6,2-5.2c0-1.7-0.6-3.2-1.8-4.4c-1.2-1.2-2.8-1.8-4.8-1.8c-2.1,0-3.8,0.6-5,1.9c-1.3,1.3-1.9,3-1.9,5.2l-4.5-0.5    c0.3-3.3,1.5-5.9,3.5-7.6s4.7-2.6,8-2.6c3.4,0,6.1,0.9,8.1,2.8c2,1.9,3,4.2,3,7c0,1.4-0.3,2.8-0.9,4.2s-1.5,2.8-2.9,4.3    c-1.3,1.5-3.6,3.6-6.7,6.2c-2.6,2.2-4.3,3.7-5,4.5c-0.7,0.8-1.4,1.6-1.8,2.4L834.6,901.7L834.6,901.7z M839.6,875.1v-4.2h22.9v3.4    c-2.3,2.4-4.5,5.6-6.7,9.6c-2.2,4-3.9,8.1-5.1,12.3c-0.9,3-1.4,6.2-1.7,9.7h-4.5c0-2.8,0.6-6.1,1.6-10.1c1-3.9,2.5-7.7,4.5-11.4    c2-3.7,4-6.7,6.2-9.3H839.6L839.6,875.1z"/>
		<path d="M859.8,997v4.2h-23.4c0-1,0.1-2.1,0.5-3c0.6-1.6,1.5-3.2,2.9-4.7c1.3-1.5,3.2-3.3,5.7-5.4c3.8-3.2,6.4-5.7,7.8-7.5    c1.4-1.8,2-3.6,2-5.2c0-1.7-0.6-3.2-1.8-4.4c-1.2-1.2-2.8-1.8-4.8-1.8c-2.1,0-3.8,0.6-5,1.9c-1.3,1.3-1.9,3-1.9,5.2l-4.5-0.5    c0.3-3.3,1.5-5.9,3.5-7.6c2-1.7,4.7-2.6,8-2.6c3.4,0,6.1,0.9,8.1,2.8c2,1.9,3,4.2,3,7c0,1.4-0.3,2.8-0.9,4.2s-1.5,2.8-2.9,4.3    c-1.3,1.5-3.6,3.6-6.7,6.2c-2.6,2.2-4.3,3.7-5,4.5c-0.7,0.8-1.4,1.6-1.8,2.4L859.8,997L859.8,997z M871.1,982    c-1.8-0.7-3.1-1.6-4-2.8c-0.9-1.2-1.3-2.7-1.3-4.4c0-2.6,0.9-4.7,2.8-6.5c1.9-1.8,4.3-2.6,7.4-2.6c3.1,0,5.6,0.9,7.5,2.7    c1.9,1.8,2.8,4,2.8,6.6c0,1.6-0.4,3.1-1.3,4.3c-0.9,1.2-2.2,2.2-3.9,2.8c2.2,0.7,3.8,1.8,5,3.4c1.1,1.6,1.7,3.5,1.7,5.6    c0,3-1.1,5.6-3.2,7.6c-2.1,2.1-5,3.1-8.4,3.1c-3.5,0-6.3-1-8.4-3.1c-2.1-2.1-3.2-4.6-3.2-7.7c0-2.3,0.6-4.2,1.7-5.8    C867.3,983.6,869,982.5,871.1,982L871.1,982z M870.3,974.6c0,1.7,0.5,3,1.6,4.1c1.1,1.1,2.5,1.6,4.2,1.6c1.7,0,3-0.5,4.1-1.6    c1.1-1.1,1.6-2.3,1.6-3.9c0-1.6-0.6-2.9-1.7-4c-1.1-1.1-2.5-1.6-4.1-1.6c-1.7,0-3,0.5-4.1,1.6    C870.8,971.9,870.3,973.1,870.3,974.6L870.3,974.6z M868.9,991c0,1.2,0.3,2.4,0.9,3.6c0.6,1.2,1.5,2.1,2.6,2.7    c1.2,0.6,2.4,1,3.7,1c2.1,0,3.8-0.7,5.1-2c1.4-1.3,2-3,2-5.1c0-2.1-0.7-3.8-2.1-5.2c-1.4-1.4-3.1-2.1-5.2-2.1c-2,0-3.7,0.7-5.1,2    C869.5,987.2,868.9,988.9,868.9,991L868.9,991z"/>
		<path d="M826,1110.6v4.2h-23.4c0-1,0.1-2.1,0.5-3c0.6-1.6,1.5-3.2,2.9-4.7c1.3-1.5,3.2-3.3,5.7-5.4c3.8-3.2,6.4-5.7,7.8-7.5    c1.4-1.8,2-3.6,2-5.2c0-1.7-0.6-3.2-1.8-4.4c-1.2-1.2-2.8-1.8-4.8-1.8c-2.1,0-3.8,0.6-5,1.9c-1.3,1.3-1.9,3-1.9,5.2l-4.5-0.5    c0.3-3.3,1.5-5.9,3.5-7.6c2-1.7,4.7-2.6,8-2.6c3.4,0,6.1,0.9,8.1,2.8c2,1.9,3,4.2,3,7c0,1.4-0.3,2.8-0.9,4.2    c-0.6,1.4-1.5,2.8-2.9,4.3c-1.3,1.5-3.6,3.6-6.7,6.2c-2.6,2.2-4.3,3.7-5,4.5c-0.7,0.8-1.4,1.6-1.8,2.4L826,1110.6L826,1110.6z     M831.3,1106.6l4.2-0.4c0.4,2,1,3.4,2,4.3c1,0.9,2.3,1.3,3.8,1.3c1.3,0,2.5-0.3,3.5-0.9c1-0.6,1.8-1.4,2.5-2.4    c0.6-1,1.2-2.4,1.6-4.1c0.4-1.7,0.7-3.5,0.7-5.3c0-0.2,0-0.5,0-0.9c-0.9,1.4-2.1,2.5-3.6,3.4c-1.5,0.9-3.1,1.3-4.9,1.3    c-2.9,0-5.4-1.1-7.4-3.2c-2-2.1-3-4.9-3-8.4c0-3.6,1.1-6.5,3.2-8.7c2.1-2.2,4.8-3.3,8-3.3c2.3,0,4.4,0.6,6.3,1.9    c1.9,1.2,3.4,3,4.3,5.3c1,2.3,1.5,5.6,1.5,10c0,4.5-0.5,8.1-1.5,10.8s-2.4,4.7-4.4,6.1c-1.9,1.4-4.2,2.1-6.8,2.1    c-2.8,0-5-0.8-6.8-2.3C832.7,1111.6,831.6,1109.4,831.3,1106.6L831.3,1106.6z M849,1091c0-2.5-0.7-4.5-2-5.9    c-1.3-1.5-2.9-2.2-4.8-2.2c-1.9,0-3.6,0.8-5,2.4c-1.4,1.6-2.1,3.6-2.1,6.1c0,2.3,0.7,4.1,2,5.5c1.4,1.4,3,2.1,5,2.1    c2,0,3.7-0.7,5-2.1C848.4,1095.5,849,1093.5,849,1091L849,1091z"/>
		<path d="M643.3,1110.2l4.3-0.6c0.5,2.5,1.3,4.2,2.5,5.3c1.2,1.1,2.7,1.6,4.4,1.6c2,0,3.8-0.7,5.2-2.1c1.4-1.4,2.1-3.2,2.1-5.3    c0-2-0.7-3.6-2-4.9c-1.3-1.3-3-1.9-5-1.9c-0.8,0-1.8,0.2-3.1,0.5l0.5-3.8c0.3,0,0.5,0,0.7,0c1.8,0,3.5-0.5,5-1.4s2.2-2.5,2.2-4.5    c0-1.6-0.5-2.9-1.6-4c-1.1-1-2.5-1.6-4.2-1.6c-1.7,0-3.1,0.5-4.2,1.6c-1.1,1.1-1.8,2.7-2.2,4.8l-4.3-0.8c0.5-2.9,1.7-5.2,3.6-6.8    c1.9-1.6,4.2-2.4,7-2.4c1.9,0,3.7,0.4,5.3,1.2c1.6,0.8,2.9,2,3.7,3.4c0.9,1.4,1.3,3,1.3,4.6c0,1.5-0.4,2.9-1.2,4.2    c-0.8,1.3-2,2.3-3.6,3c2.1,0.5,3.7,1.5,4.9,3c1.2,1.5,1.7,3.4,1.7,5.7c0,3.1-1.1,5.7-3.4,7.9c-2.3,2.1-5.1,3.2-8.5,3.2    c-3.1,0-5.7-0.9-7.7-2.8C644.8,1115.5,643.6,1113.1,643.3,1110.2L643.3,1110.2z M670.8,1102.1c0-4.2,0.4-7.5,1.3-10.1    c0.9-2.5,2.1-4.5,3.8-5.9c1.7-1.4,3.8-2.1,6.4-2.1c1.9,0,3.6,0.4,5,1.1c1.4,0.8,2.6,1.9,3.5,3.3c0.9,1.4,1.7,3.2,2.2,5.3    c0.5,2.1,0.8,4.9,0.8,8.4c0,4.2-0.4,7.5-1.3,10.1c-0.9,2.5-2.1,4.5-3.8,5.9c-1.7,1.4-3.8,2.1-6.4,2.1c-3.4,0-6.1-1.2-8-3.7    C672,1113.5,670.8,1108.7,670.8,1102.1L670.8,1102.1z M675.3,1102.1c0,5.8,0.7,9.7,2,11.6c1.4,1.9,3,2.9,5,2.9c2,0,3.7-1,5-2.9    c1.4-1.9,2-5.8,2-11.6c0-5.8-0.7-9.7-2-11.6c-1.4-1.9-3.1-2.9-5.1-2.9c-2,0-3.6,0.8-4.8,2.5C676,1092.3,675.3,1096.3,675.3,1102.1    L675.3,1102.1z"/>
		<path d="M607.4,994.1l4.3-0.6c0.5,2.5,1.3,4.2,2.5,5.3c1.2,1.1,2.7,1.6,4.4,1.6c2,0,3.8-0.7,5.2-2.1c1.4-1.4,2.1-3.2,2.1-5.3    c0-2-0.7-3.6-2-4.9c-1.3-1.3-3-1.9-5-1.9c-0.8,0-1.8,0.2-3.1,0.5l0.5-3.8c0.3,0,0.5,0,0.7,0c1.8,0,3.5-0.5,5-1.4    c1.5-1,2.2-2.5,2.2-4.5c0-1.6-0.5-2.9-1.6-4c-1.1-1-2.5-1.6-4.2-1.6c-1.7,0-3.1,0.5-4.2,1.6c-1.1,1.1-1.8,2.7-2.2,4.8l-4.3-0.8    c0.5-2.9,1.7-5.2,3.6-6.8c1.9-1.6,4.2-2.4,7-2.4c1.9,0,3.7,0.4,5.3,1.2c1.6,0.8,2.9,2,3.7,3.4c0.9,1.4,1.3,3,1.3,4.6    c0,1.5-0.4,2.9-1.2,4.2c-0.8,1.3-2,2.3-3.6,3c2.1,0.5,3.7,1.5,4.9,3c1.2,1.5,1.7,3.4,1.7,5.7c0,3.1-1.1,5.7-3.4,7.9    c-2.3,2.1-5.1,3.2-8.5,3.2c-3.1,0-5.7-0.9-7.7-2.8C608.8,999.4,607.7,997,607.4,994.1L607.4,994.1z M651.2,1003.4h-4.3v-27.7    c-1,1-2.4,2-4.1,3c-1.7,1-3.2,1.7-4.6,2.2v-4.2c2.4-1.1,4.6-2.5,6.4-4.2c1.8-1.6,3.1-3.2,3.9-4.7h2.8V1003.4z"/>
		<path d="M600.1,900.3l4.3-0.6c0.5,2.5,1.3,4.2,2.5,5.3c1.2,1.1,2.7,1.6,4.4,1.6c2,0,3.8-0.7,5.2-2.1c1.4-1.4,2.1-3.2,2.1-5.3    c0-2-0.7-3.6-2-4.9c-1.3-1.3-3-1.9-5-1.9c-0.8,0-1.8,0.2-3.1,0.5l0.5-3.8c0.3,0,0.5,0,0.7,0c1.8,0,3.5-0.5,5-1.4s2.2-2.5,2.2-4.5    c0-1.6-0.5-2.9-1.6-4c-1.1-1-2.5-1.6-4.2-1.6c-1.7,0-3.1,0.5-4.2,1.6c-1.1,1.1-1.8,2.7-2.2,4.8l-4.3-0.8c0.5-2.9,1.7-5.2,3.6-6.8    c1.9-1.6,4.2-2.4,7-2.4c1.9,0,3.7,0.4,5.3,1.2c1.6,0.8,2.9,2,3.7,3.4s1.3,3,1.3,4.6c0,1.5-0.4,2.9-1.2,4.2c-0.8,1.3-2,2.3-3.6,3    c2.1,0.5,3.7,1.5,4.9,3c1.2,1.5,1.7,3.4,1.7,5.7c0,3.1-1.1,5.7-3.4,7.9c-2.3,2.1-5.1,3.2-8.5,3.2c-3.1,0-5.7-0.9-7.7-2.8    C601.6,905.6,600.4,903.2,600.1,900.3L600.1,900.3z M650.4,905.4v4.2h-23.4c0-1,0.1-2.1,0.5-3c0.6-1.6,1.5-3.2,2.9-4.7    c1.3-1.5,3.2-3.3,5.7-5.4c3.8-3.2,6.4-5.7,7.8-7.5s2-3.6,2-5.2c0-1.7-0.6-3.2-1.8-4.4c-1.2-1.2-2.8-1.8-4.8-1.8    c-2.1,0-3.8,0.6-5,1.9c-1.3,1.3-1.9,3-1.9,5.2l-4.5-0.5c0.3-3.3,1.5-5.9,3.5-7.6s4.7-2.6,8-2.6c3.4,0,6.1,0.9,8.1,2.8    c2,1.9,3,4.2,3,7c0,1.4-0.3,2.8-0.9,4.2s-1.5,2.8-2.9,4.3c-1.3,1.5-3.6,3.6-6.7,6.2c-2.6,2.2-4.3,3.7-5,4.5    c-0.7,0.8-1.4,1.6-1.8,2.4L650.4,905.4L650.4,905.4z"/>
	</g>
	<g id="A_POSIÇÕES_x0020_TRABALHO_68">
		<path class="st2" d="M1349.2,0H189.9v1785.8h1159.3V0"/>
	</g>
	<g id="_0_70">
		<path d="M486.4,1517.1l4.6-0.4c0.3,2.2,1.1,3.9,2.4,5c1.2,1.1,2.7,1.7,4.5,1.7c2.1,0,3.9-0.8,5.3-2.4c1.4-1.6,2.2-3.7,2.2-6.3    c0-2.5-0.7-4.4-2.1-5.9c-1.4-1.4-3.2-2.1-5.5-2.1c-1.4,0-2.7,0.3-3.8,1c-1.1,0.6-2,1.5-2.7,2.5l-4.1-0.5l3.4-18.2h17.6v4.2h-14.1    l-1.9,9.5c2.1-1.5,4.4-2.2,6.7-2.2c3.1,0,5.7,1.1,7.8,3.2c2.1,2.1,3.2,4.9,3.2,8.3c0,3.2-0.9,6-2.8,8.3c-2.3,2.9-5.4,4.3-9.3,4.3    c-3.2,0-5.8-0.9-7.9-2.7C487.9,1522.5,486.7,1520.1,486.4,1517.1L486.4,1517.1z"/>
		<path d="M398.5,1525.8v-8.5h-15.3v-4l16.1-22.9h3.5v22.9h4.8v4h-4.8v8.5H398.5z M398.5,1513.3v-15.9l-11.1,15.9H398.5z"/>
	</g>
	<g id="_0_72">
		<path d="M282.7,1519l4.3-0.6c0.5,2.5,1.3,4.2,2.5,5.3c1.2,1.1,2.7,1.6,4.4,1.6c2,0,3.8-0.7,5.2-2.1c1.4-1.4,2.1-3.2,2.1-5.3    c0-2-0.7-3.6-2-4.9c-1.3-1.3-3-1.9-5-1.9c-0.8,0-1.8,0.2-3.1,0.5l0.5-3.8c0.3,0,0.5,0,0.7,0c1.8,0,3.5-0.5,5-1.4    c1.5-1,2.2-2.5,2.2-4.5c0-1.6-0.5-2.9-1.6-4c-1.1-1-2.5-1.6-4.2-1.6c-1.7,0-3.1,0.5-4.2,1.6c-1.1,1.1-1.8,2.7-2.2,4.8l-4.3-0.8    c0.5-2.9,1.7-5.2,3.6-6.8c1.9-1.6,4.2-2.4,7-2.4c1.9,0,3.7,0.4,5.3,1.2c1.6,0.8,2.9,2,3.7,3.4c0.9,1.4,1.3,3,1.3,4.6    c0,1.5-0.4,2.9-1.2,4.2c-0.8,1.3-2,2.3-3.6,3c2.1,0.5,3.7,1.5,4.9,3c1.2,1.5,1.7,3.4,1.7,5.7c0,3.1-1.1,5.7-3.4,7.9    s-5.1,3.2-8.5,3.2c-3.1,0-5.7-0.9-7.7-2.8C284.2,1524.3,283,1521.9,282.7,1519L282.7,1519z"/>
	</g>
</g>
</svg>