<svg xmlns="http://www.w3.org/2000/svg" id="Capa_1" data-name="Capa 1" viewBox="0 0 2220.42 1664.52">
    <defs>
        <style>.cls-1,.cls-2,.cls-4,.cls-5,.cls-6,.cls-7,.cls-8{fill:none;stroke-linecap:round;}.cls-1{stroke:#4b4b4b;stroke-width:0.36px;}.cls-1,.cls-2,.cls-6,.cls-7,.cls-8{stroke-linejoin:round;}.cls-2,.cls-4{stroke:#989898;}.cls-2{stroke-width:0.72px;}.cls-3{fill:#989898;}.cls-4,.cls-5{stroke-miterlimit:10;stroke-width:0.03px;}.cls-5,.cls-8{stroke:#000;}.cls-6{stroke:#545454;stroke-width:0.48px;}.cls-7{stroke:red;stroke-width:0.84px;}.cls-8{stroke-width:0.24px;}</style>
    </defs>
    <g id="Capa_1-2" data-name="Capa 1">
        <g id="LAY-MOB">
            <path class="cls-1" d="M2004.17,1201.28l53.76-216-188.69-117.8-170.52,143,83.4,206.28,222.05-15.48" transform="translate(0 0)"/>
            <path class="cls-1" d="M1611.6,1360l170.57-143.16-83.4-206.28-222,15.48-53.88,216,188.76,118" transform="translate(0 0)"/>
            <path class="cls-1" d="M1200.84,1257.48l222-15.48,53.88-216L1288,908l-170.52,143,83.4,206.4" transform="translate(0 0)"/>
        </g>
        <g id="LAY-MOB_0" data-name="LAY-MOB 0">
            <path class="cls-1" d="M1243.44,990.12l1,.36" transform="translate(0 0)"/>
        </g>
        <g id="A_POSIÇÕES_TRABALHO_2" data-name="A POSIÇÕES TRABALHO 2">
            <path class="cls-2" d="M1506.36,11.64V321" transform="translate(0 0)"/>
            <path class="cls-2" d="M1524,338.64V323.16" transform="translate(0 0)"/>
            <path class="cls-2" d="M1524,82.08V11.64" transform="translate(0 0)"/>
            <path class="cls-2" d="M1506.36,321H1343.88l-12,20.76" transform="translate(0 0)"/>
            <path class="cls-2" d="M1354.08,338.64H1524" transform="translate(0 0)"/>
            <path class="cls-2" d="M1331.88,341.76l15.24,8.88,7-12" transform="translate(0 0)"/>
            <path class="cls-2" d="M300.84,160V11.64" transform="translate(0 0)"/>
            <path class="cls-2" d="M283.17.36V160h17.64" transform="translate(0 0)"/>
            <path class="cls-3" d="M292.92,160.28h-1.75L293,357Zm-1.8,0L292.92,357h-1.75Z" transform="translate(0 0)"/>
            <path class="cls-4" d="M292.92,160.28h-1.75L293,357V160.28m-1.8,0L293,357h-1.8V160.28" transform="translate(0 0)"/>
            <path class="cls-2" d="M291.17,160.28V357H293V160.28h-1.8" transform="translate(0 0)"/>
            <path class="cls-3" d="M292.92,357h-1.75l1.75,189.28Zm-1.8,0,1.8,189.28h-1.75V357Z" transform="translate(0 0)"/>
            <path class="cls-4" d="M292.92,357h-1.75l1.75,189.28V357m-1.8,0,1.8,189.28h-1.75V357" transform="translate(0 0)"/>
            <path class="cls-2" d="M291.17,357V546.28H293V357h-1.8" transform="translate(0 0)"/>
            <path class="cls-2" d="M285,167.76V357" transform="translate(0 0)"/>
            <path class="cls-2" d="M291,357V167.76" transform="translate(0 0)"/>
            <path class="cls-2" d="M293,357V167.76" transform="translate(0 0)"/>
            <path class="cls-2" d="M298.92,357V167.76" transform="translate(0 0)"/>
            <path class="cls-2" d="M285,357V553.2" transform="translate(0 0)"/>
            <path class="cls-2" d="M291,547.2V357" transform="translate(0 0)"/>
            <path class="cls-2" d="M293,545.16V357" transform="translate(0 0)"/>
            <path class="cls-2" d="M298.92,539.28V357" transform="translate(0 0)"/>
            <path class="cls-2" d="M285,167.76h6v-7.48h2v7.44h5.88v-7.8H285v7.8" transform="translate(0 0)"/>
            <path class="cls-3" d="M1224,545.28H1037.64l186.36,1.8Zm-186.36,0,186.36,1.8H1037.64Z" transform="translate(0 0)"/>
            <path class="cls-4" d="M1224,545.28H1037.64l186.36,1.8v-1.8m-186.36,0,186.36,1.8H1037.64v-1.8" transform="translate(0 0)"/>
            <path class="cls-2" d="M1224,545.28H1037.64v1.8H1224v-1.8" transform="translate(0 0)"/>
            <path class="cls-3" d="M1037.64,545.28H851.28l186.36,1.8Zm-186.36,0,186.36,1.8H851.28Z" transform="translate(0 0)"/>
            <path class="cls-4" d="M1037.64,545.28H851.28l186.36,1.8v-1.8m-186.36,0,186.36,1.8H851.28v-1.8" transform="translate(0 0)"/>
            <path class="cls-2" d="M1037.64,545.28H851.28v1.8h186.36v-1.8" transform="translate(0 0)"/>
            <path class="cls-3" d="M851.28,545.28H664.8l186.48,1.8Zm-186.48,0,186.48,1.8H664.8Z" transform="translate(0 0)"/>
            <path class="cls-4" d="M851.28,545.28H664.8l186.48,1.8v-1.8m-186.48,0,186.48,1.8H664.8v-1.8" transform="translate(0 0)"/>
            <path class="cls-2" d="M851.28,545.28H664.8v1.8H851.28v-1.8" transform="translate(0 0)"/>
            <path class="cls-2" d="M1037.64,539.28H851.28" transform="translate(0 0)"/>
            <path class="cls-2" d="M851.28,545.16h186.36" transform="translate(0 0)"/>
            <path class="cls-2" d="M851.28,547.2h186.36" transform="translate(0 0)"/>
            <path class="cls-2" d="M851.28,553.08h186.36" transform="translate(0 0)"/>
            <path class="cls-2" d="M851.28,539.28H664.8" transform="translate(0 0)"/>
            <path class="cls-2" d="M664.8,545.16H851.28" transform="translate(0 0)"/>
            <path class="cls-2" d="M664.8,547.2H851.28" transform="translate(0 0)"/>
            <path class="cls-2" d="M664.8,553.08H851.28" transform="translate(0 0)"/>
            <path class="cls-3" d="M664.8,545.28H478.44l186.36,1.8Zm-186.36,0,186.36,1.8H478.44Z" transform="translate(0 0)"/>
            <path class="cls-4" d="M664.8,545.28H478.44l186.36,1.8v-1.8m-186.36,0,186.36,1.8H478.44v-1.8" transform="translate(0 0)"/>
            <path class="cls-2" d="M664.8,545.28H478.44v1.8H664.8v-1.8" transform="translate(0 0)"/>
            <path class="cls-2" d="M664.8,539.28H478.44" transform="translate(0 0)"/>
            <path class="cls-2" d="M478.44,545.16H664.8" transform="translate(0 0)"/>
            <path class="cls-2" d="M478.44,547.2H664.8" transform="translate(0 0)"/>
            <path class="cls-2" d="M478.44,553.08H664.8" transform="translate(0 0)"/>
            <path class="cls-3" d="M1245.72,506.76l1.68.84h-2.16Z" transform="translate(0 0)"/>
            <path class="cls-4" d="M1245.72,506.76l1.68.84h-2.16l.48-.84" transform="translate(0 0)"/>
            <path class="cls-3" d="M1245.24,507.6l-22,38.16h2l19.92-38.16Zm-22,38.16h2l-.48,1Z" transform="translate(0 0)"/>
            <path class="cls-4" d="M1245.24,507.6l-22,38.16h2l19.92-38.16m-22,38.16h2l-.48,1-1.56-1" transform="translate(0 0)"/>
            <path class="cls-3" d="M1245.24,507.6h2.16l-22.08,38.16,19.92-38.16Z" transform="translate(0 0)"/>
            <path class="cls-4" d="M1245.24,507.6h2.16l-22.08,38.16,19.92-38.16" transform="translate(0 0)"/>
            <path class="cls-2" d="M1224.84,546.72l22.56-39.12-1.68-.84-22.44,39,1.56,1" transform="translate(0 0)"/>
            <path class="cls-2" d="M1333.68,351.84l3.36-3.36" transform="translate(0 0)"/>
            <path class="cls-2" d="M1339.08,346.44l.24-.24" transform="translate(0 0)"/>
            <path class="cls-2" d="M1336.44,353.52l5.16,2.88,4-6.72-12.12-7-3.84,6.84,5.16,2.88,3.72-6.36,1.68,1-3.72,6.48" transform="translate(0 0)"/>
            <path class="cls-2" d="M1482.24,445.56l3.24-5.64-147.12-85-3.24,5.64,147.12,85" transform="translate(0 0)"/>
            <path class="cls-2" d="M1253.38,502a169.87,169.87,0,0,0,232-62.18" transform="translate(0 0)"/>
            <path class="cls-2" d="M1482.24,445.56l3.24-5.64-147.12-85-3.24,5.64,147.12,85" transform="translate(0 0)"/>
            <path class="cls-2" d="M1246.68,507.28l5.64-5.76" transform="translate(0 0)"/>
            <path class="cls-2" d="M1333.44,352.08l5.64-5.64" transform="translate(0 0)"/>
            <path class="cls-2" d="M1246.92,498.36l-2.4-1.32-3.84,6.72,12,7,4-6.72-8.88-5.16,1.44-2.4-.84-.48-1.44,2.4" transform="translate(0 0)"/>
            <path class="cls-2" d="M1331.88,351.28l-1.32,2.4.72.48,1.44-2.4,5.64,3.24" transform="translate(0 0)"/>
            <path class="cls-2" d="M1341.48,356.88l4-6.84-12.12-7-3.84,6.84,2.4,1.32" transform="translate(0 0)"/>
            <path class="cls-2" d="M1228.08,553.2l24.48-42.6" transform="translate(0 0)"/>
            <path class="cls-2" d="M1247.52,507.72,1224.6,547.2" transform="translate(0 0)"/>
            <path class="cls-2" d="M1245.72,506.64l-22.32,38.52" transform="translate(0 0)"/>
            <path class="cls-2" d="M1240.56,503.64,1220,539.28h-182.4" transform="translate(0 0)"/>
            <path class="cls-2" d="M1037.64,545.16H1223.4" transform="translate(0 0)"/>
            <path class="cls-2" d="M1037.64,547.2h187" transform="translate(0 0)"/>
            <path class="cls-2" d="M1037.64,553.08h190.44" transform="translate(0 0)"/>
            <path class="cls-3" d="M478.44,545.28H292.08l186.36,1.8Zm-186.36,0,186.36,1.8H292.08Z" transform="translate(0 0)"/>
            <path class="cls-4" d="M478.44,545.28H292.08l186.36,1.8v-1.8m-186.36,0,186.36,1.8H292.08v-1.8" transform="translate(0 0)"/>
            <path class="cls-2" d="M478.44,545.28H292.08v1.8H478.44v-1.8" transform="translate(0 0)"/>
            <path class="cls-2" d="M478.44,539.28H299" transform="translate(0 0)"/>
            <path class="cls-2" d="M293,545.16h185.4" transform="translate(0 0)"/>
            <path class="cls-2" d="M291,547.2H478.44" transform="translate(0 0)"/>
            <path class="cls-2" d="M285.17,553.08H478.44" transform="translate(0 0)"/>
            <path class="cls-2" d="M1243.17,1612.2h.48" transform="translate(0 0)"/>
            <path class="cls-3" d="M1241.28,1609.8v-.36a.36.36,0,1,0,.36.36h0a.36.36,0,0,0-.36-.36Z" transform="translate(0 0)"/>
            <path class="cls-2" d="M1241.28,1609.8v.48" transform="translate(0 0)"/>
            <path class="cls-2" d="M1243.68,1612.2H1360" transform="translate(0 0)"/>
            <path class="cls-3" d="M1361.88,1610.28v-.36a.36.36,0,1,0,.36.36h0a.36.36,0,0,0-.36-.36Z" transform="translate(0 0)"/>
            <path class="cls-2" d="M1361.88,1610.28v-.48" transform="translate(0 0)"/>
            <path class="cls-2" d="M1484.28,1612.2h.6" transform="translate(0 0)"/>
            <path class="cls-3" d="M1482.36,1609.8v-.36a.36.36,0,1,0,.36.36h0a.36.36,0,0,0-.36-.36Z" transform="translate(0 0)"/>
            <path class="cls-2" d="M1482.36,1609.8v.48" transform="translate(0 0)"/>
            <path class="cls-2" d="M1484.88,1612.2h116.29" transform="translate(0 0)"/>
            <path class="cls-3" d="M1603,1610.28v-.36a.36.36,0,1,0,.36.36h0a.36.36,0,0,0-.36-.36Z" transform="translate(0 0)"/>
            <path class="cls-2" d="M1603,1610.28v-.48" transform="translate(0 0)"/>
            <path class="cls-2" d="M1725.36,1612.2h.6" transform="translate(0 0)"/>
            <path class="cls-3" d="M1723.56,1609.8v-.36a.36.36,0,1,0,.36.36h0a.36.36,0,0,0-.36-.36Z" transform="translate(0 0)"/>
            <path class="cls-2" d="M1723.56,1609.8v.48" transform="translate(0 0)"/>
            <path class="cls-2" d="M1726,1612.2h116.28" transform="translate(0 0)"/>
            <path class="cls-3" d="M1844,1610.28v-.36a.36.36,0,1,0,.36.36h0a.36.36,0,0,0-.36-.36Z" transform="translate(0 0)"/>
            <path class="cls-2" d="M1844,1610.28v-.48" transform="translate(0 0)"/>
            <path class="cls-2" d="M1966.44,1612.2h.6" transform="translate(0 0)"/>
            <path class="cls-3" d="M1964.64,1609.8v-.36a.36.36,0,1,0,.36.36.36.36,0,0,0-.36-.36h0Z" transform="translate(0 0)"/>
            <path class="cls-2" d="M1964.64,1609.8v.48" transform="translate(0 0)"/>
            <path class="cls-2" d="M1967,1612.2h116.28" transform="translate(0 0)"/>
            <path class="cls-3" d="M2085.24,1610.28v-.36a.36.36,0,1,0,.36.36.36.36,0,0,0-.36-.36h0Z" transform="translate(0 0)"/>
            <path class="cls-2" d="M2085.24,1610.28v-.48" transform="translate(0 0)"/>
        </g>
        <g id="LAY-MOB_3" data-name="LAY-MOB 3">
            <path class="cls-1" d="M1002,1612.2h.6" transform="translate(0 0)"/>
            <path class="cls-1" d="M1000.17,1609.8v.48" transform="translate(0 0)"/>
            <path class="cls-1" d="M1002.6,1612.2h116.28" transform="translate(0 0)"/>
            <path class="cls-1" d="M1120.8,1610.28v-.48" transform="translate(0 0)"/>
        </g>
        <g id="A_POSIÇÕES_TRABALHO_4" data-name="A POSIÇÕES TRABALHO 4">
            <path class="cls-2" d="M1363.68,1612.2h.6" transform="translate(0 0)"/>
            <path class="cls-3" d="M1361.88,1609.8v-.36a.36.36,0,1,0,.36.36h0a.36.36,0,0,0-.36-.36Z" transform="translate(0 0)"/>
            <path class="cls-2" d="M1361.88,1609.8v.48" transform="translate(0 0)"/>
            <path class="cls-2" d="M1364.28,1612.2h116.28" transform="translate(0 0)"/>
            <path class="cls-3" d="M1482.36,1610.28v-.36a.36.36,0,1,0,.36.36h0a.36.36,0,0,0-.36-.36Z" transform="translate(0 0)"/>
            <path class="cls-2" d="M1482.36,1610.28v-.48" transform="translate(0 0)"/>
            <path class="cls-2" d="M1604.88,1612.2h.48" transform="translate(0 0)"/>
            <path class="cls-3" d="M1603,1609.8v-.36a.36.36,0,1,0,.36.36h0a.36.36,0,0,0-.36-.36Z" transform="translate(0 0)"/>
            <path class="cls-2" d="M1603,1609.8v.48" transform="translate(0 0)"/>
            <path class="cls-2" d="M1605.36,1612.2h116.28" transform="translate(0 0)"/>
            <path class="cls-3" d="M1723.56,1610.28v-.36a.36.36,0,1,0,.36.36h0a.36.36,0,0,0-.36-.36Z" transform="translate(0 0)"/>
            <path class="cls-2" d="M1723.56,1610.28v-.48" transform="translate(0 0)"/>
            <path class="cls-2" d="M1846,1612.2h.48" transform="translate(0 0)"/>
            <path class="cls-3" d="M1844,1609.8v-.36a.36.36,0,1,0,.36.36h0a.36.36,0,0,0-.36-.36Z" transform="translate(0 0)"/>
            <path class="cls-2" d="M1844,1609.8v.48" transform="translate(0 0)"/>
            <path class="cls-2" d="M1846.44,1612.2h116.4" transform="translate(0 0)"/>
            <path class="cls-3" d="M1964.64,1610.28v-.36a.36.36,0,1,0,.36.36.36.36,0,0,0-.36-.36h0Z" transform="translate(0 0)"/>
            <path class="cls-2" d="M1964.64,1610.28v-.48" transform="translate(0 0)"/>
            <path class="cls-2" d="M2087,1612.2h.6" transform="translate(0 0)"/>
            <path class="cls-3" d="M2085.24,1609.8v-.36a.36.36,0,1,0,.36.36.36.36,0,0,0-.36-.36h0Z" transform="translate(0 0)"/>
            <path class="cls-2" d="M2085.24,1609.8v.48" transform="translate(0 0)"/>
            <path class="cls-2" d="M2087.64,1612.2h115.68" transform="translate(0 0)"/>
        </g>
        <g id="LAY-MOB_5" data-name="LAY-MOB 5">
            <path class="cls-1" d="M1122.6,1612.2h.6" transform="translate(0 0)"/>
            <path class="cls-1" d="M1120.8,1609.8v.48" transform="translate(0 0)"/>
        </g>
        <g id="A_POSIÇÕES_TRABALHO_6" data-name="A POSIÇÕES TRABALHO 6">
            <path class="cls-2" d="M1123.17,1612.2h116.28" transform="translate(0 0)"/>
            <path class="cls-3" d="M1241.28,1610.28v-.36a.36.36,0,1,0,.36.36h0a.36.36,0,0,0-.36-.36Z" transform="translate(0 0)"/>
            <path class="cls-2" d="M1241.28,1610.28v-.48" transform="translate(0 0)"/>
        </g>
        <g id="LAY-MOB_7" data-name="LAY-MOB 7">
            <path class="cls-1" d="M745.92,160h-.24" transform="translate(0 0)"/>
        </g>
        <g id="A_POSIÇÕES_TRABALHO_8" data-name="A POSIÇÕES TRABALHO 8">
            <path class="cls-2" d="M1524,323.16V267.6" transform="translate(0 0)"/>
            <path class="cls-2" d="M1524,156.28V82.08" transform="translate(0 0)"/>
            <path class="cls-2" d="M1524,211.92V156.28" transform="translate(0 0)"/>
            <path class="cls-2" d="M1524,267.6V211.92" transform="translate(0 0)"/>
            <path class="cls-2" d="M1354.08,338.64l1.56,2.76L1349.52,352l-2.4-1.32" transform="translate(0 0)"/>
            <path class="cls-2" d="M1524,338.64l2.76,2.76H1355.64" transform="translate(0 0)"/>
            <path class="cls-2" d="M1526.76,338.52v2.88" transform="translate(0 0)"/>
            <path class="cls-2" d="M283.17,160h-2.76V3.12" transform="translate(0 0)"/>
            <path class="cls-2" d="M1343.88,321l-1.56-2.76h43.56" transform="translate(0 0)"/>
            <path class="cls-2" d="M1331.88,341.76l-2.4-1.32,12.84-22.2" transform="translate(0 0)"/>
            <path class="cls-2" d="M1521.72,322.8V81.72h-6.48V322.8h6.48" transform="translate(0 0)"/>
            <path class="cls-2" d="M1508.76,11.4V322.92h6.48V11.4" transform="translate(0 0)"/>
            <path class="cls-2" d="M589.32,1626.6v4.08" transform="translate(0 0)"/>
            <path class="cls-2" d="M589.32,1626.6h-226v4.08h226" transform="translate(0 0)"/>
            <path class="cls-2" d="M821.17,1626.6v4.08" transform="translate(0 0)"/>
            <path class="cls-2" d="M821.17,1626.6H589.32v4.08H821.17" transform="translate(0 0)"/>
            <path class="cls-2" d="M1053,1626.6v4.08" transform="translate(0 0)"/>
            <path class="cls-2" d="M1053,1626.6H821.17v4.08H1053" transform="translate(0 0)"/>
            <path class="cls-2" d="M1284.84,1626.6v4.08" transform="translate(0 0)"/>
            <path class="cls-2" d="M1284.84,1626.6H1053v4.08h231.84" transform="translate(0 0)"/>
            <path class="cls-2" d="M1516.68,1626.6v4.08" transform="translate(0 0)"/>
            <path class="cls-2" d="M1516.68,1626.6H1284.84v4.08h231.84" transform="translate(0 0)"/>
            <path class="cls-2" d="M1748.4,1626.6v4.08" transform="translate(0 0)"/>
            <path class="cls-2" d="M1748.4,1626.6H1516.68v4.08H1748.4" transform="translate(0 0)"/>
            <path class="cls-2" d="M1980.24,1626.6v4.08" transform="translate(0 0)"/>
            <path class="cls-2" d="M2207.64,1630.68h-227.4v-4.08H1748.4v4.08h231.84" transform="translate(0 0)"/>
            <path class="cls-2" d="M1980.24,1626.6h227.4" transform="translate(0 0)"/>
            <path class="cls-2" d="M122.4,1392.6v163.92" transform="translate(0 0)"/>
            <path class="cls-2" d="M360.72,1640H363V1392.6" transform="translate(0 0)"/>
            <path class="cls-2" d="M122.4,1556.52H.4" transform="translate(0 0)"/>
            <path class="cls-2" d="M363,1612.2h639" transform="translate(0 0)"/>
        </g>
        <g id="LAY-MOB_9" data-name="LAY-MOB 9">
            <path class="cls-1" d="M1118.88,1612.2h3.72" transform="translate(0 0)"/>
        </g>
        <g id="A_POSIÇÕES_TRABALHO_10" data-name="A POSIÇÕES TRABALHO 10">
            <path class="cls-2" d="M1239.48,1612.2h3.69" transform="translate(0 0)"/>
            <path class="cls-2" d="M1360,1612.2h3.72" transform="translate(0 0)"/>
            <path class="cls-2" d="M1480.56,1612.2h3.72" transform="translate(0 0)"/>
            <path class="cls-2" d="M1601.17,1612.2h3.72" transform="translate(0 0)"/>
            <path class="cls-2" d="M1721.64,1612.2h3.72" transform="translate(0 0)"/>
            <path class="cls-2" d="M1842.24,1612.2H1846" transform="translate(0 0)"/>
            <path class="cls-2" d="M1962.84,1612.2h3.6" transform="translate(0 0)"/>
            <path class="cls-2" d="M2083.32,1612.2H2087" transform="translate(0 0)"/>
        </g>
        <g id="ARQ-PAN">
            <path d="M1980.24,1664.16h231.84l-231.84-3.72Zm231.84,0-231.84-3.72h231.84Z" transform="translate(0 0)"/>
            <path class="cls-5" d="M1980.24,1664.16h231.84l-231.84-3.72v3.72m231.84,0-231.84-3.72h231.84v3.72" transform="translate(0 0)"/>
        </g>
        <g id="ARQ-PAN-1">
            <path class="cls-6" d="M2212.08,1660.44H1980.24v3.72h231.84v-3.72" transform="translate(0 0)"/>
        </g>
        <g id="ARQ-PAN_11" data-name="ARQ-PAN 11">
            <path d="M1748.4,1664.16h231.84l-231.84-3.72Zm231.84,0-231.84-3.72h231.84Z" transform="translate(0 0)"/>
            <path class="cls-5" d="M1748.4,1664.16h231.84l-231.84-3.72v3.72m231.84,0-231.84-3.72h231.84v3.72" transform="translate(0 0)"/>
        </g>
        <g id="ARQ-PAN-1_12" data-name="ARQ-PAN-1 12">
            <path class="cls-6" d="M1980.24,1660.44H1748.4v3.72h231.84v-3.72" transform="translate(0 0)"/>
        </g>
        <g id="ARQ-PAN_13" data-name="ARQ-PAN 13">
            <path d="M1516.68,1664.16H1748.4l-231.72-3.72Zm231.72,0-231.72-3.72H1748.4Z" transform="translate(0 0)"/>
            <path class="cls-5" d="M1516.68,1664.16H1748.4l-231.72-3.72v3.72m231.72,0-231.72-3.72H1748.4v3.72" transform="translate(0 0)"/>
        </g>
        <g id="ARQ-PAN-1_14" data-name="ARQ-PAN-1 14">
            <path class="cls-6" d="M1748.4,1660.44H1516.68v3.72H1748.4v-3.72" transform="translate(0 0)"/>
        </g>
        <g id="ARQ-PAN_15" data-name="ARQ-PAN 15">
            <path d="M1284.84,1664.16h231.84l-231.84-3.72Zm231.84,0-231.84-3.72h231.84Z" transform="translate(0 0)"/>
            <path class="cls-5" d="M1284.84,1664.16h231.84l-231.84-3.72v3.72m231.84,0-231.84-3.72h231.84v3.72" transform="translate(0 0)"/>
        </g>
        <g id="ARQ-PAN-1_16" data-name="ARQ-PAN-1 16">
            <path class="cls-6" d="M1516.68,1660.44H1284.84v3.72h231.84v-3.72" transform="translate(0 0)"/>
        </g>
        <g id="ARQ-PAN_17" data-name="ARQ-PAN 17">
            <path d="M1053,1664.16h231.84L1053,1660.44Zm231.84,0L1053,1660.44h231.84Z" transform="translate(0 0)"/>
            <path class="cls-5" d="M1053,1664.16h231.84L1053,1660.44v3.72m231.84,0L1053,1660.44h231.84v3.72" transform="translate(0 0)"/>
        </g>
        <g id="ARQ-PAN-1_18" data-name="ARQ-PAN-1 18">
            <path class="cls-6" d="M1284.84,1660.44H1053v3.72h231.84v-3.72" transform="translate(0 0)"/>
        </g>
        <g id="ARQ-PAN_19" data-name="ARQ-PAN 19">
            <path d="M821.17,1664.16H1053l-231.84-3.72Zm231.84,0-231.84-3.72H1053Z" transform="translate(0 0)"/>
            <path class="cls-5" d="M821.17,1664.16H1053l-231.84-3.72v3.72m231.84,0-231.84-3.72H1053v3.72" transform="translate(0 0)"/>
        </g>
        <g id="ARQ-PAN-1_20" data-name="ARQ-PAN-1 20">
            <path class="cls-6" d="M1053,1660.44H821.17v3.72H1053v-3.72" transform="translate(0 0)"/>
        </g>
        <g id="ARQ-PAN_21" data-name="ARQ-PAN 21">
            <path d="M589.32,1664.16H821.17l-231.84-3.72Zm231.84,0-231.84-3.72H821.17Z" transform="translate(0 0)"/>
            <path class="cls-5" d="M589.32,1664.16H821.17l-231.84-3.72v3.72m231.84,0-231.84-3.72H821.17v3.72" transform="translate(0 0)"/>
        </g>
        <g id="ARQ-PAN-1_22" data-name="ARQ-PAN-1 22">
            <path class="cls-6" d="M821.17,1660.44H589.32v3.72H821.17v-3.72" transform="translate(0 0)"/>
        </g>
        <g id="ARQ-PAN_23" data-name="ARQ-PAN 23">
            <path d="M357.48,1664.16H589.32l-231.84-3.72v3.72Zm231.84,0-231.84-3.72H589.32Z" transform="translate(0 0)"/>
            <path class="cls-5" d="M357.48,1664.16H589.32l-231.84-3.72v3.72m231.84,0-231.84-3.72H589.32v3.72" transform="translate(0 0)"/>
        </g>
        <g id="ARQ-PAN-1_24" data-name="ARQ-PAN-1 24">
            <path class="cls-6" d="M589.32,1660.44H357.48v3.72H589.32v-3.72" transform="translate(0 0)"/>
        </g>
        <g id="ARQ-PAN_25" data-name="ARQ-PAN 25">
            <path d="M125.64,1664.16H357.48l-231.84-3.72Zm231.84,0-231.84-3.72H357.48Z" transform="translate(0 0)"/>
            <path class="cls-5" d="M125.64,1664.16H357.48l-231.84-3.72v3.72m231.84,0-231.84-3.72H357.48v3.72" transform="translate(0 0)"/>
        </g>
        <g id="ARQ-PAN-1_26" data-name="ARQ-PAN-1 26">
            <path class="cls-6" d="M357.48,1660.44H125.64v3.72H357.48v-3.72" transform="translate(0 0)"/>
        </g>
        <g id="ARQ-PAN_27" data-name="ARQ-PAN 27">
            <path d="M125.64,1660.44H.36l125.28,3.72Zm-125.28,0,125.28,3.72H.36Z" transform="translate(0 0)"/>
            <path class="cls-5" d="M125.64,1660.44H.36l125.28,3.72v-3.72m-125.28,0,125.28,3.72H.36v-3.72" transform="translate(0 0)"/>
        </g>
        <g id="ARQ-PAN-1_28" data-name="ARQ-PAN-1 28">
            <path class="cls-6" d="M125.64,1660.44H.36" transform="translate(0 0)"/>
            <path class="cls-6" d="M.36,1664.16H125.64v-3.72" transform="translate(0 0)"/>
        </g>
        <g id="ARQ-PAN-MNT-1">
            <path class="cls-7" d="M2204.28,1640v20.4H2220V1640h-15.72" transform="translate(0 0)"/>
            <path class="cls-7" d="M1972.44,1640v20.4h15.73V1640h-15.72" transform="translate(0 0)"/>
            <path class="cls-7" d="M1740.6,1640v20.4h15.72V1640H1740.6" transform="translate(0 0)"/>
            <path class="cls-7" d="M1508.76,1640v20.4h15.72V1640h-15.72" transform="translate(0 0)"/>
            <path class="cls-7" d="M1276.92,1640v20.4h15.72V1640h-15.72" transform="translate(0 0)"/>
            <path class="cls-7" d="M1045.08,1640v20.4h15.72V1640h-15.72" transform="translate(0 0)"/>
            <path class="cls-7" d="M813.24,1640v20.4H829V1640H813.24" transform="translate(0 0)"/>
            <path class="cls-7" d="M581.4,1640v20.4h15.77V1640H581.4" transform="translate(0 0)"/>
            <path class="cls-7" d="M349.56,1640v20.4h15.72V1640H349.56" transform="translate(0 0)"/>
            <path class="cls-7" d="M117.72,1640v20.4h15.72V1640H117.72" transform="translate(0 0)"/>
        </g>
        <g id="ARQ-PAN-MNT-2">
            <path class="cls-8" d="M1508.76,1640H1292.64" transform="translate(0 0)"/>
            <path class="cls-8" d="M1276.92,1640H1060.8" transform="translate(0 0)"/>
            <path class="cls-8" d="M1045.08,1640H829" transform="translate(0 0)"/>
            <path class="cls-8" d="M813.24,1640H597.17" transform="translate(0 0)"/>
            <path class="cls-8" d="M581.4,1640H365.28" transform="translate(0 0)"/>
            <path class="cls-8" d="M349.56,1640H133.44" transform="translate(0 0)"/>
            <path class="cls-8" d="M117.72,1640H.36" transform="translate(0 0)"/>
            <path class="cls-8" d="M2204.28,1640H1988.17" transform="translate(0 0)"/>
            <path class="cls-8" d="M1972.44,1640H1756.32" transform="translate(0 0)"/>
            <path class="cls-8" d="M1740.6,1640H1524.48" transform="translate(0 0)"/>
        </g>
        <g id="LAY-MOB_29" data-name="LAY-MOB 29">
            <path class="cls-1" d="M1002,1612.28h.6" transform="translate(0 0)"/>
            <path class="cls-1" d="M1000.17,1609.92v.6" transform="translate(0 0)"/>
            <path class="cls-1" d="M760.92,1612.28h.6" transform="translate(0 0)"/>
            <path class="cls-1" d="M759.17,1609.92v.6" transform="translate(0 0)"/>
            <path class="cls-1" d="M761.52,1612.28H877.8" transform="translate(0 0)"/>
            <path class="cls-1" d="M879.6,1610.52v-.6" transform="translate(0 0)"/>
            <path class="cls-1" d="M881.52,1612.28H882" transform="translate(0 0)"/>
            <path class="cls-1" d="M879.6,1609.92v.6" transform="translate(0 0)"/>
            <path class="cls-1" d="M882,1612.28H998.28" transform="translate(0 0)"/>
            <path class="cls-1" d="M1000.17,1610.52v-.6" transform="translate(0 0)"/>
            <path class="cls-1" d="M877.8,1612.28h3.72" transform="translate(0 0)"/>
            <path class="cls-1" d="M998.28,1612.28H1002" transform="translate(0 0)"/>
        </g>
        <g id="A_POSIÇÕES_TRABALHO_30" data-name="A POSIÇÕES TRABALHO 30">
            <path class="cls-2" d="M.36,1556.52h122V1392.6H363V1640" transform="translate(0 0)"/>
        </g>
        <g id="A_POSIÇÕES_TRABALHO_33" data-name="A POSIÇÕES TRABALHO 33">
            <path class="cls-2" d="M.36.72H2212.08V1664.16H.36V.72" transform="translate(0 0)"/>
        </g>
    </g>
    <g id="Asientos">
        <path id="seat-17" class="cls-3 seat" d="M926.31,187.78H820.77a25.18,25.18,0,0,1-25.18-25.18h0V57.06a25.18,25.18,0,0,1,25.17-25.19H926.31a25.18,25.18,0,0,1,25.18,25.18h0V162.59A25.26,25.26,0,0,1,926.31,187.78Z" transform="translate(0 0)"/>
        <path id="seat-35" class="cls-3 seat" d="M1429.89,908.06H1324.35a25.18,25.18,0,0,1-25.18-25.18h0V777.34a25.18,25.18,0,0,1,25.17-25.19h105.55a25.18,25.18,0,0,1,25.18,25.18h0V882.87A25.26,25.26,0,0,1,1429.89,908.06Z" transform="translate(0 0)"/>
        <path id="seat-37" class="cls-3 seat" d="M1833.85,865.1H1728.31a25.18,25.18,0,0,1-25.18-25.18h0V734.38a25.18,25.18,0,0,1,25.17-25.19h105.55A25.18,25.18,0,0,1,1859,734.37h0V839.91A25.26,25.26,0,0,1,1833.85,865.1Z" transform="translate(0 0)"/>
        <path id="seat-36" class="cls-3 seat" d="M1657.17,1053.28H1551.59a25.18,25.18,0,0,1-25.18-25.18h0V922.52a25.18,25.18,0,0,1,25.17-25.19h105.59a25.18,25.18,0,0,1,25.18,25.18h0v105.53A25.26,25.26,0,0,1,1657.17,1053.28Z" transform="translate(0 0)"/>
        <path id="seat-38" class="cls-3 seat" d="M2096,932H1990.41a25.18,25.18,0,0,1-25.18-25.18h0V801.28a25.18,25.18,0,0,1,25.17-25.19H2096a25.18,25.18,0,0,1,25.22,25.14V906.81A25.26,25.26,0,0,1,2096,932Z" transform="translate(0 0)"/>
        <path id="seat-39" class="cls-3 seat" d="M2169.67,1218.86h-105.5a25.18,25.18,0,0,1-25.18-25.18h0V1088.14a25.18,25.18,0,0,1,25.17-25.19h105.51a25.18,25.18,0,0,1,25.18,25.18h0v105.53A25.26,25.26,0,0,1,2169.67,1218.86Z" transform="translate(0 0)"/>
        <path id="seat-40" class="cls-3 seat" d="M1949.79,1342H1844.25a25.18,25.18,0,0,1-25.18-25.18h0V1211.28a25.18,25.18,0,0,1,25.17-25.19h105.55a25.18,25.18,0,0,1,25.18,25.18h0v105.53A25.26,25.26,0,0,1,1949.79,1342Z" transform="translate(0 0)"/>
        <path id="seat-41" class="cls-3 seat" d="M1758.54,1490.06H1653a25.18,25.18,0,0,1-25.18-25.18h0V1359.34a25.18,25.18,0,0,1,25.17-25.19h105.55a25.18,25.18,0,0,1,25.18,25.18h0v105.53A25.26,25.26,0,0,1,1758.54,1490.06Z" transform="translate(0 0)"/>
        <path id="seat-42" class="cls-3 seat" d="M1510,1466.06H1404.47a25.18,25.18,0,0,1-25.18-25.18h0V1335.34a25.18,25.18,0,0,1,25.17-25.19H1510a25.18,25.18,0,0,1,25.18,25.18h0v105.53A25.26,25.26,0,0,1,1510,1466.06Z" transform="translate(0 0)"/>
        <path id="seat-43" class="cls-3 seat" d="M1277.55,1406.54H1172a25.18,25.18,0,0,1-25.18-25.18h0V1275.82a25.18,25.18,0,0,1,25.17-25.19h105.55a25.18,25.18,0,0,1,25.18,25.18h0v105.53A25.26,25.26,0,0,1,1277.55,1406.54Z" transform="translate(0 0)"/>
        <path id="seat-44" class="cls-3 seat" d="M1129.11,1233.14H1023.57A25.18,25.18,0,0,1,998.39,1208h0V1102.42a25.18,25.18,0,0,1,25.18-25.14h105.54a25.18,25.18,0,0,1,25.18,25.18h0V1208A25.26,25.26,0,0,1,1129.11,1233.14Z" transform="translate(0 0)"/>
        <path id="seat-34" class="cls-3 seat" d="M1179.63,980.6H1074.09a25.18,25.18,0,0,1-25.18-25.18h0V849.88a25.18,25.18,0,0,1,25.17-25.19h105.55a25.18,25.18,0,0,1,25.18,25.18h0V955.41A25.26,25.26,0,0,1,1179.63,980.6Z" transform="translate(0 0)"/>
    </g>
    <g id="Numeros">
        <path d="M1081.43,916.34l8-1.06q1.38,6.76,4.67,9.76a11.59,11.59,0,0,0,8,3,12.9,12.9,0,0,0,9.5-3.9,13.16,13.16,0,0,0,3.87-9.65,12.17,12.17,0,0,0-3.59-9,12.41,12.41,0,0,0-9.12-3.57,22.8,22.8,0,0,0-5.62.89l.89-7c.42.05.85.08,1.28.09a16.49,16.49,0,0,0,9.17-2.66q4.07-2.65,4.07-8.19a9.7,9.7,0,0,0-3-7.26,10.55,10.55,0,0,0-7.66-2.88,10.85,10.85,0,0,0-7.75,2.92q-3.09,2.92-4,8.77l-8-1.42q1.45-8,6.64-12.42a19.22,19.22,0,0,1,12.88-4.4,21.18,21.18,0,0,1,9.79,2.28,16.5,16.5,0,0,1,6.84,6.22,16,16,0,0,1,2.37,8.37,13.63,13.63,0,0,1-2.26,7.66,15.43,15.43,0,0,1-6.68,5.49,15,15,0,0,1,8.94,5.51,16.71,16.71,0,0,1,3.19,10.47,19.19,19.19,0,0,1-6.2,14.42q-6.2,5.91-15.68,5.91a20.46,20.46,0,0,1-14.19-5.09,19.71,19.71,0,0,1-6.44-13.2Zm75.94,17.14V917.93h-28.2v-7.3l29.62-42.07h6.51v42.07h8.77v7.3h-8.77v15.55Zm0-22.85V881.36l-20.32,29.27Z" transform="translate(0 0)"/>
        <path d="M1332.55,846.1l8-1.06q1.38,6.76,4.67,9.76a11.54,11.54,0,0,0,8,3,12.9,12.9,0,0,0,9.5-3.9,13.16,13.16,0,0,0,3.87-9.65,12.22,12.22,0,0,0-3.59-9,12.41,12.41,0,0,0-9.12-3.57,22.8,22.8,0,0,0-5.62.89l.89-7c.42.05.85.08,1.28.09a16.49,16.49,0,0,0,9.17-2.66q4.07-2.66,4.07-8.19a9.7,9.7,0,0,0-3-7.26,10.55,10.55,0,0,0-7.66-2.88,10.89,10.89,0,0,0-7.75,2.92q-3.09,2.93-4,8.77l-8-1.42q1.46-8,6.64-12.42a19.22,19.22,0,0,1,12.88-4.4,21.31,21.31,0,0,1,9.79,2.28,16.5,16.5,0,0,1,6.84,6.22,16,16,0,0,1,2.37,8.37,13.63,13.63,0,0,1-2.26,7.66,15.42,15.42,0,0,1-6.68,5.49,15,15,0,0,1,8.94,5.51,16.71,16.71,0,0,1,3.19,10.47,19.19,19.19,0,0,1-6.2,14.42q-6.19,5.91-15.68,5.91a20.46,20.46,0,0,1-14.19-5.09,19.71,19.71,0,0,1-6.44-13.2Zm50.39.13,8.37-.7q.93,6.11,4.32,9.18a11.75,11.75,0,0,0,8.17,3.08,12.75,12.75,0,0,0,9.74-4.34q4-4.34,4-11.51,0-6.83-3.83-10.76a13.31,13.31,0,0,0-10-3.94,13.92,13.92,0,0,0-7,1.75,13.43,13.43,0,0,0-4.87,4.54l-7.48-1,6.29-33.34h32.28v7.61H1397l-3.5,17.45a21.09,21.09,0,0,1,12.27-4.07,19.46,19.46,0,0,1,14.35,5.89Q1426,832,1426,841.21a23.63,23.63,0,0,1-5.14,15.23q-6.24,7.89-17,7.88-8.86,0-14.46-5a19.36,19.36,0,0,1-6.4-13.15Z" transform="translate(0 0)"/>
        <path d="M1737.59,799.66l8-1.06q1.38,6.76,4.67,9.76a11.59,11.59,0,0,0,8,3,12.9,12.9,0,0,0,9.5-3.9,13.16,13.16,0,0,0,3.87-9.65,12.17,12.17,0,0,0-3.59-9,12.41,12.41,0,0,0-9.12-3.57,22.8,22.8,0,0,0-5.62.89l.88-7q.64.07,1.29.09a16.43,16.43,0,0,0,9.16-2.66q4.08-2.65,4.08-8.19a9.7,9.7,0,0,0-3-7.26,10.55,10.55,0,0,0-7.66-2.88,10.89,10.89,0,0,0-7.75,2.92q-3.09,2.93-4,8.77l-8-1.42q1.46-8,6.64-12.42a19.22,19.22,0,0,1,12.88-4.4,21.18,21.18,0,0,1,9.79,2.28,16.5,16.5,0,0,1,6.84,6.22,16,16,0,0,1,2.37,8.37,13.63,13.63,0,0,1-2.26,7.66,15.36,15.36,0,0,1-6.68,5.49,15,15,0,0,1,8.94,5.51,16.71,16.71,0,0,1,3.19,10.47,19.19,19.19,0,0,1-6.2,14.42q-6.19,5.91-15.68,5.91a20.46,20.46,0,0,1-14.19-5.09,19.73,19.73,0,0,1-6.44-13.2Zm50.92-39.28v-7.66h42v6.2a88.6,88.6,0,0,0-12.28,17.54,106.6,106.6,0,0,0-9.41,22.49,83.17,83.17,0,0,0-3.06,17.85h-8.19a79.49,79.49,0,0,1,3-18.51,96.62,96.62,0,0,1,8.26-20.92,89.45,89.45,0,0,1,11.44-17ZM879.07,84.89V77.23h42v6.2A88.19,88.19,0,0,0,908.79,101a106.3,106.3,0,0,0-9.41,22.49,82.66,82.66,0,0,0-3.06,17.85h-8.19a79.14,79.14,0,0,1,3-18.51,96.62,96.62,0,0,1,8.26-20.92,90.09,90.09,0,0,1,11.44-17Z" transform="translate(0 0)"/>
        <path d="M1997.75,866.18l8-1.06q1.38,6.76,4.67,9.76a11.59,11.59,0,0,0,8,3,12.9,12.9,0,0,0,9.5-3.9,13.16,13.16,0,0,0,3.87-9.65,12.17,12.17,0,0,0-3.59-9,12.41,12.41,0,0,0-9.12-3.57,22.8,22.8,0,0,0-5.62.89l.88-7q.65.08,1.29.09a16.43,16.43,0,0,0,9.16-2.66q4.08-2.66,4.08-8.19a9.68,9.68,0,0,0-3-7.26,10.55,10.55,0,0,0-7.66-2.88,10.89,10.89,0,0,0-7.75,2.92q-3.09,2.93-4,8.77l-8-1.42q1.45-8,6.64-12.42a19.22,19.22,0,0,1,12.88-4.4,21.18,21.18,0,0,1,9.79,2.28,16.5,16.5,0,0,1,6.84,6.22,16,16,0,0,1,2.37,8.37,13.63,13.63,0,0,1-2.26,7.66,15.49,15.49,0,0,1-6.68,5.49,15,15,0,0,1,8.94,5.51,16.71,16.71,0,0,1,3.19,10.47,19.19,19.19,0,0,1-6.2,14.42q-6.2,5.91-15.68,5.91a20.46,20.46,0,0,1-14.19-5.09,19.71,19.71,0,0,1-6.44-13.2Zm62.66-18.07a15,15,0,0,1-7.35-5.18,13.48,13.48,0,0,1-2.4-8.06,15.73,15.73,0,0,1,5.1-11.91q5.09-4.82,13.55-4.82t13.68,4.93a16,16,0,0,1,5.18,12,13.28,13.28,0,0,1-2.37,7.86,15,15,0,0,1-7.2,5.15,17.39,17.39,0,0,1,9.1,6.29,17.2,17.2,0,0,1,3.13,10.36,18.66,18.66,0,0,1-5.89,14q-5.89,5.67-15.5,5.66t-15.5-5.69a18.93,18.93,0,0,1-5.89-14.19,17.18,17.18,0,0,1,3.21-10.6,16.13,16.13,0,0,1,9.15-5.83Zm-1.6-13.5a10.11,10.11,0,0,0,3,7.53,10.48,10.48,0,0,0,7.7,2.92,10.34,10.34,0,0,0,7.55-2.9,9.53,9.53,0,0,0,3-7.11,9.9,9.9,0,0,0-3-7.37,11.13,11.13,0,0,0-15.12-.08,9.43,9.43,0,0,0-3,7Zm-2.57,30a14.43,14.43,0,0,0,1.62,6.59,11.39,11.39,0,0,0,4.8,4.94,14,14,0,0,0,6.87,1.75,12.85,12.85,0,0,0,9.43-3.67,12.58,12.58,0,0,0,3.72-9.35,12.78,12.78,0,0,0-3.83-9.52,13.09,13.09,0,0,0-9.59-3.76,12.68,12.68,0,0,0-13,12.35c0,.22,0,.43,0,.65Z" transform="translate(0 0)"/>
        <path d="M2072.75,1155.06l8-1.06q1.38,6.76,4.67,9.76a11.59,11.59,0,0,0,8,3,12.9,12.9,0,0,0,9.5-3.9,13.16,13.16,0,0,0,3.87-9.65,12.22,12.22,0,0,0-3.59-9,12.41,12.41,0,0,0-9.12-3.57,22.8,22.8,0,0,0-5.62.89l.88-7q.64.07,1.29.09a16.43,16.43,0,0,0,9.16-2.66q4.08-2.65,4.08-8.19a9.68,9.68,0,0,0-3-7.26,10.55,10.55,0,0,0-7.66-2.88,10.85,10.85,0,0,0-7.75,2.92q-3.09,2.93-4,8.77l-8-1.42q1.45-8,6.64-12.42A19.22,19.22,0,0,1,2093,1107a21.18,21.18,0,0,1,9.79,2.28,16.5,16.5,0,0,1,6.84,6.22,16,16,0,0,1,2.37,8.37,13.63,13.63,0,0,1-2.26,7.66,15.49,15.49,0,0,1-6.68,5.49,15,15,0,0,1,8.94,5.51,16.71,16.71,0,0,1,3.19,10.47,19.19,19.19,0,0,1-6.2,14.42q-6.19,5.91-15.68,5.91a20.44,20.44,0,0,1-14.12-5.08,19.71,19.71,0,0,1-6.44-13.2Zm51.59,2.13,7.66-.71q1,5.4,3.72,7.84a10.17,10.17,0,0,0,7,2.43,12.15,12.15,0,0,0,6.44-1.68,13.66,13.66,0,0,0,4.54-4.5,26.32,26.32,0,0,0,3-7.59,40,40,0,0,0,1.2-9.74v-1.6a18.28,18.28,0,0,1-6.54,6.18,17.66,17.66,0,0,1-9,2.37,18.1,18.1,0,0,1-13.64-5.85q-5.58-5.83-5.58-15.4,0-9.89,5.82-15.9a19.46,19.46,0,0,1,14.59-6,20.81,20.81,0,0,1,11.58,3.41,21.24,21.24,0,0,1,8,9.72q2.73,6.3,2.73,18.26,0,12.45-2.71,19.82a23.22,23.22,0,0,1-8,11.22,20.75,20.75,0,0,1-12.51,3.85q-7.62,0-12.44-4.22t-5.8-11.89Zm32.63-28.65q0-6.87-3.65-10.9a11.49,11.49,0,0,0-8.79-4,12.18,12.18,0,0,0-9.26,4.34,16.14,16.14,0,0,0-3.94,11.25,13.9,13.9,0,0,0,3.74,10.07,12.35,12.35,0,0,0,9.24,3.88,11.81,11.81,0,0,0,9.1-3.88Q2157,1135.4,2157,1128.54Z" transform="translate(0 0)"/>
        <path d="M1703.83,1443.28v-15.55h-28.16v-7.3l29.63-42.07h6.51v42.07h8.76v7.3h-8.76v15.55Zm0-22.85v-29.27l-20.32,29.27Zm54.91,22.85h-8v-50.79a41.5,41.5,0,0,1-7.55,5.49,54.82,54.82,0,0,1-8.39,4.12v-7.71a48.17,48.17,0,0,0,11.69-7.61,30.18,30.18,0,0,0,7.09-8.68h5.13ZM859.36,142.42h-8V91.62a39.92,39.92,0,0,1-7.55,5.49,52.2,52.2,0,0,1-8.39,4.12v-7.7a48.08,48.08,0,0,0,11.69-7.61,29.9,29.9,0,0,0,7.09-8.69h5.13Z" transform="translate(0 0)"/>
        <path d="M1438.54,1419.12v-15.55h-28.17v-7.29l29.63-42.07h6.51v42.07h8.76v7.3h-8.76v15.55Zm0-22.85V1367l-20.37,29.28Zm66.77,15.19v7.66H1462.4a14,14,0,0,1,.93-5.54,29,29,0,0,1,5.25-8.63,81.51,81.51,0,0,1,10.43-9.83q10.58-8.68,14.3-13.75t3.72-9.59a10.62,10.62,0,0,0-3.39-8,12.21,12.21,0,0,0-8.83-3.26,12.45,12.45,0,0,0-9.21,3.46q-3.45,3.45-3.5,9.56l-8.19-.84q.84-9.17,6.33-14t14.75-4.8q9.33,0,14.78,5.18a17,17,0,0,1,5.45,12.84,19.6,19.6,0,0,1-1.59,7.66,30.19,30.19,0,0,1-5.29,7.93,130.12,130.12,0,0,1-12.29,11.42q-7.17,6-9.21,8.17a26.54,26.54,0,0,0-3.37,4.32Z" transform="translate(0 0)"/>
        <path d="M1204,1361.68v-15.55h-28.17v-7.3l29.63-42.07H1212v42.07h8.76v7.3H1212v15.55Zm0-22.85v-29.27l-20.33,29.27Zm24.93,5.71,8-1.06q1.36,6.76,4.67,9.76a11.54,11.54,0,0,0,8,3,12.9,12.9,0,0,0,9.5-3.9,13.11,13.11,0,0,0,3.88-9.65,12.22,12.22,0,0,0-3.59-9,12.41,12.41,0,0,0-9.12-3.57,22.81,22.81,0,0,0-5.63.89l.89-7c.43,0,.85.08,1.28.09a16.49,16.49,0,0,0,9.17-2.66q4.08-2.66,4.07-8.19a9.68,9.68,0,0,0-3-7.26,10.55,10.55,0,0,0-7.66-2.88,10.85,10.85,0,0,0-7.75,2.92q-3.11,2.93-4,8.77l-8-1.42q1.47-8,6.64-12.42a19.26,19.26,0,0,1,12.89-4.4,21.31,21.31,0,0,1,9.79,2.28,16.5,16.5,0,0,1,6.84,6.22,16,16,0,0,1,2.37,8.37,13.79,13.79,0,0,1-2.26,7.66,15.46,15.46,0,0,1-6.69,5.49,15.06,15.06,0,0,1,9,5.51,16.78,16.78,0,0,1,3.18,10.47,19.16,19.16,0,0,1-6.2,14.42q-6.2,5.91-15.67,5.91a20.37,20.37,0,0,1-14.19-5.09,19.65,19.65,0,0,1-6.44-13.2Z" transform="translate(0 0)"/>
        <path d="M1055.82,1185.2v-15.55h-28.17v-7.3l29.63-42.07h6.51v42.07h8.76v7.3h-8.76v15.55Zm0-22.85v-29.27l-20.33,29.27Zm50.43,22.85v-15.55h-28.16v-7.3l29.62-42.07h6.51v42.07H1123v7.3h-8.77v15.55Zm0-22.85v-29.27l-20.32,29.27Z" transform="translate(0 0)"/>
        <path d="M1558.17,988.7l8-1.06q1.38,6.76,4.67,9.76a11.59,11.59,0,0,0,8,3,12.9,12.9,0,0,0,9.5-3.9,13.16,13.16,0,0,0,3.87-9.65,12.17,12.17,0,0,0-3.59-9,12.41,12.41,0,0,0-9.12-3.57,22.8,22.8,0,0,0-5.62.89l.89-7c.42.05.85.08,1.28.09a16.43,16.43,0,0,0,9.16-2.66q4.08-2.65,4.08-8.19a9.7,9.7,0,0,0-3-7.26,10.55,10.55,0,0,0-7.66-2.88,10.85,10.85,0,0,0-7.75,2.92q-3.09,2.92-4,8.77l-8-1.42q1.45-8,6.64-12.42a19.22,19.22,0,0,1,12.88-4.4,21.18,21.18,0,0,1,9.79,2.28,16.5,16.5,0,0,1,6.84,6.22,16,16,0,0,1,2.37,8.37,13.63,13.63,0,0,1-2.26,7.66,15.49,15.49,0,0,1-6.68,5.49,15,15,0,0,1,8.94,5.51,16.71,16.71,0,0,1,3.19,10.47,19.19,19.19,0,0,1-6.2,14.42q-6.2,5.91-15.68,5.91a20.46,20.46,0,0,1-14.19-5.09,19.71,19.71,0,0,1-6.44-13.2Zm91.75-31.88-7.93.62c-.71-3.13-1.71-5.41-3-6.82a10.55,10.55,0,0,0-8-3.41,11,11,0,0,0-6.69,2.13,18.33,18.33,0,0,0-5.93,8q-2.17,5.26-2.26,15a18.56,18.56,0,0,1,7-6.51,19.07,19.07,0,0,1,8.73-2.12,18.07,18.07,0,0,1,13.57,5.86q5.6,5.88,5.6,15.17a25,25,0,0,1-2.63,11.36,19.22,19.22,0,0,1-7.24,8,19.82,19.82,0,0,1-10.45,2.79,20.43,20.43,0,0,1-16.26-7.32q-6.29-7.34-6.28-24.16,0-18.82,7-27.36,6.06-7.44,16.34-7.44,7.66,0,12.55,4.29t5.87,11.87Zm-32.55,28a18.69,18.69,0,0,0,1.75,7.89,13,13,0,0,0,4.89,5.73,12.27,12.27,0,0,0,6.6,2,11.24,11.24,0,0,0,8.68-4.07q3.63-4.08,3.63-11.07,0-6.74-3.58-10.61a11.83,11.83,0,0,0-9-3.87,12.29,12.29,0,0,0-9.16,3.87,14,14,0,0,0-3.77,10.16Z" transform="translate(0 0)"/>
        <path d="M1880.1,1297.36v-15.55h-28.17v-7.3l29.63-42.07h6.51v42.07h8.76v7.3h-8.76v15.55Zm0-22.85v-29.23l-20.33,29.27Zm24.88-9.17q0-11.5,2.37-18.53a23.14,23.14,0,0,1,7-10.83,18,18,0,0,1,11.76-3.8,19.17,19.17,0,0,1,9.16,2.1,17.49,17.49,0,0,1,6.51,6.07,32.27,32.27,0,0,1,4,9.65,64.33,64.33,0,0,1,1.46,15.34q0,11.43-2.35,18.45a23,23,0,0,1-7,10.84,18,18,0,0,1-11.8,3.83q-9.39,0-14.75-6.73-6.42-8.1-6.42-26.39Zm8.19,0q0,16,3.74,21.28t9.24,5.29q5.49,0,9.23-5.31t3.74-21.26q0-16-3.74-21.3t-9.32-5.27a10.22,10.22,0,0,0-8.77,4.65q-4.12,5.94-4.12,21.92Z" transform="translate(0 0)"/>
    </g>
</svg>