<svg width="1280" height="720" xmlns="http://www.w3.org/2000/svg" xmlns:xlink="http://www.w3.org/1999/xlink" overflow="hidden"><defs><clipPath id="clip0"><rect x="0" y="0" width="1280" height="720"/></clipPath><linearGradient x1="754.5" y1="281" x2="754.5" y2="317" gradientUnits="userSpaceOnUse" spreadMethod="reflect" id="fill1"><stop offset="0" stop-color="#004A96"/><stop offset="0.0384615" stop-color="#014B97"/><stop offset="0.0769231" stop-color="#024D98"/><stop offset="0.115385" stop-color="#034F9A"/><stop offset="0.153846" stop-color="#04519B"/><stop offset="0.192308" stop-color="#05529C"/><stop offset="0.230769" stop-color="#06549D"/><stop offset="0.269231" stop-color="#07569E"/><stop offset="0.307692" stop-color="#08579F"/><stop offset="0.346154" stop-color="#0958A0"/><stop offset="0.384615" stop-color="#0A5AA1"/><stop offset="0.423077" stop-color="#0A5BA2"/><stop offset="0.461538" stop-color="#0B5CA3"/><stop offset="0.5" stop-color="#0C5DA4"/><stop offset="0.538462" stop-color="#0D5EA5"/><stop offset="0.576923" stop-color="#0D5FA6"/><stop offset="0.615385" stop-color="#0E60A6"/><stop offset="0.653846" stop-color="#0E61A7"/><stop offset="0.692308" stop-color="#0F62A7"/><stop offset="0.730769" stop-color="#0F62A8"/><stop offset="0.769231" stop-color="#0F63A8"/><stop offset="0.807692" stop-color="#1063A9"/><stop offset="0.846154" stop-color="#1064A9"/><stop offset="0.884615" stop-color="#1064A9"/><stop offset="0.923077" stop-color="#1064A9"/><stop offset="0.961538" stop-color="#1064A9"/><stop offset="1" stop-color="#1165AA"/></linearGradient><linearGradient x1="793.5" y1="325" x2="793.5" y2="361" gradientUnits="userSpaceOnUse" spreadMethod="reflect" id="fill2"><stop offset="0" stop-color="#004A96"/><stop offset="0.0384615" stop-color="#014B97"/><stop offset="0.0769231" stop-color="#024D98"/><stop offset="0.115385" stop-color="#034F9A"/><stop offset="0.153846" stop-color="#04519B"/><stop offset="0.192308" stop-color="#05529C"/><stop offset="0.230769" stop-color="#06549D"/><stop offset="0.269231" stop-color="#07569E"/><stop offset="0.307692" stop-color="#08579F"/><stop offset="0.346154" stop-color="#0958A0"/><stop offset="0.384615" stop-color="#0A5AA1"/><stop offset="0.423077" stop-color="#0A5BA2"/><stop offset="0.461538" stop-color="#0B5CA3"/><stop offset="0.5" stop-color="#0C5DA4"/><stop offset="0.538462" stop-color="#0D5EA5"/><stop offset="0.576923" stop-color="#0D5FA6"/><stop offset="0.615385" stop-color="#0E60A6"/><stop offset="0.653846" stop-color="#0E61A7"/><stop offset="0.692308" stop-color="#0F62A7"/><stop offset="0.730769" stop-color="#0F62A8"/><stop offset="0.769231" stop-color="#0F63A8"/><stop offset="0.807692" stop-color="#1063A9"/><stop offset="0.846154" stop-color="#1064A9"/><stop offset="0.884615" stop-color="#1064A9"/><stop offset="0.923077" stop-color="#1064A9"/><stop offset="0.961538" stop-color="#1064A9"/><stop offset="1" stop-color="#1165AA"/></linearGradient><linearGradient x1="753" y1="176" x2="753" y2="212" gradientUnits="userSpaceOnUse" spreadMethod="reflect" id="fill3"><stop offset="0" stop-color="#004A96"/><stop offset="0.0384615" stop-color="#014B97"/><stop offset="0.0769231" stop-color="#024D98"/><stop offset="0.115385" stop-color="#034F9A"/><stop offset="0.153846" stop-color="#04519B"/><stop offset="0.192308" stop-color="#05529C"/><stop offset="0.230769" stop-color="#06549D"/><stop offset="0.269231" stop-color="#07569E"/><stop offset="0.307692" stop-color="#08579F"/><stop offset="0.346154" stop-color="#0958A0"/><stop offset="0.384615" stop-color="#0A5AA1"/><stop offset="0.423077" stop-color="#0A5BA2"/><stop offset="0.461538" stop-color="#0B5CA3"/><stop offset="0.5" stop-color="#0C5DA4"/><stop offset="0.538462" stop-color="#0D5EA5"/><stop offset="0.576923" stop-color="#0D5FA6"/><stop offset="0.615385" stop-color="#0E60A6"/><stop offset="0.653846" stop-color="#0E61A7"/><stop offset="0.692308" stop-color="#0F62A7"/><stop offset="0.730769" stop-color="#0F62A8"/><stop offset="0.769231" stop-color="#0F63A8"/><stop offset="0.807692" stop-color="#1063A9"/><stop offset="0.846154" stop-color="#1064A9"/><stop offset="0.884615" stop-color="#1064A9"/><stop offset="0.923077" stop-color="#1064A9"/><stop offset="0.961538" stop-color="#1064A9"/><stop offset="1" stop-color="#1165AA"/></linearGradient><linearGradient x1="792" y1="220" x2="792" y2="256" gradientUnits="userSpaceOnUse" spreadMethod="reflect" id="fill4"><stop offset="0" stop-color="#004A96"/><stop offset="0.0384615" stop-color="#014B97"/><stop offset="0.0769231" stop-color="#024D98"/><stop offset="0.115385" stop-color="#034F9A"/><stop offset="0.153846" stop-color="#04519B"/><stop offset="0.192308" stop-color="#05529C"/><stop offset="0.230769" stop-color="#06549D"/><stop offset="0.269231" stop-color="#07569E"/><stop offset="0.307692" stop-color="#08579F"/><stop offset="0.346154" stop-color="#0958A0"/><stop offset="0.384615" stop-color="#0A5AA1"/><stop offset="0.423077" stop-color="#0A5BA2"/><stop offset="0.461538" stop-color="#0B5CA3"/><stop offset="0.5" stop-color="#0C5DA4"/><stop offset="0.538462" stop-color="#0D5EA5"/><stop offset="0.576923" stop-color="#0D5FA6"/><stop offset="0.615385" stop-color="#0E60A6"/><stop offset="0.653846" stop-color="#0E61A7"/><stop offset="0.692308" stop-color="#0F62A7"/><stop offset="0.730769" stop-color="#0F62A8"/><stop offset="0.769231" stop-color="#0F63A8"/><stop offset="0.807692" stop-color="#1063A9"/><stop offset="0.846154" stop-color="#1064A9"/><stop offset="0.884615" stop-color="#1064A9"/><stop offset="0.923077" stop-color="#1064A9"/><stop offset="0.961538" stop-color="#1064A9"/><stop offset="1" stop-color="#1165AA"/></linearGradient><linearGradient x1="589" y1="285" x2="589" y2="321" gradientUnits="userSpaceOnUse" spreadMethod="reflect" id="fill5"><stop offset="0" stop-color="#004A96"/><stop offset="0.0384615" stop-color="#014B97"/><stop offset="0.0769231" stop-color="#024D98"/><stop offset="0.115385" stop-color="#034F9A"/><stop offset="0.153846" stop-color="#04519B"/><stop offset="0.192308" stop-color="#05529C"/><stop offset="0.230769" stop-color="#06549D"/><stop offset="0.269231" stop-color="#07569E"/><stop offset="0.307692" stop-color="#08579F"/><stop offset="0.346154" stop-color="#0958A0"/><stop offset="0.384615" stop-color="#0A5AA1"/><stop offset="0.423077" stop-color="#0A5BA2"/><stop offset="0.461538" stop-color="#0B5CA3"/><stop offset="0.5" stop-color="#0C5DA4"/><stop offset="0.538462" stop-color="#0D5EA5"/><stop offset="0.576923" stop-color="#0D5FA6"/><stop offset="0.615385" stop-color="#0E60A6"/><stop offset="0.653846" stop-color="#0E61A7"/><stop offset="0.692308" stop-color="#0F62A7"/><stop offset="0.730769" stop-color="#0F62A8"/><stop offset="0.769231" stop-color="#0F63A8"/><stop offset="0.807692" stop-color="#1063A9"/><stop offset="0.846154" stop-color="#1064A9"/><stop offset="0.884615" stop-color="#1064A9"/><stop offset="0.923077" stop-color="#1064A9"/><stop offset="0.961538" stop-color="#1064A9"/><stop offset="1" stop-color="#1165AA"/></linearGradient><linearGradient x1="628" y1="329" x2="628" y2="365" gradientUnits="userSpaceOnUse" spreadMethod="reflect" id="fill6"><stop offset="0" stop-color="#004A96"/><stop offset="0.0384615" stop-color="#014B97"/><stop offset="0.0769231" stop-color="#024D98"/><stop offset="0.115385" stop-color="#034F9A"/><stop offset="0.153846" stop-color="#04519B"/><stop offset="0.192308" stop-color="#05529C"/><stop offset="0.230769" stop-color="#06549D"/><stop offset="0.269231" stop-color="#07569E"/><stop offset="0.307692" stop-color="#08579F"/><stop offset="0.346154" stop-color="#0958A0"/><stop offset="0.384615" stop-color="#0A5AA1"/><stop offset="0.423077" stop-color="#0A5BA2"/><stop offset="0.461538" stop-color="#0B5CA3"/><stop offset="0.5" stop-color="#0C5DA4"/><stop offset="0.538462" stop-color="#0D5EA5"/><stop offset="0.576923" stop-color="#0D5FA6"/><stop offset="0.615385" stop-color="#0E60A6"/><stop offset="0.653846" stop-color="#0E61A7"/><stop offset="0.692308" stop-color="#0F62A7"/><stop offset="0.730769" stop-color="#0F62A8"/><stop offset="0.769231" stop-color="#0F63A8"/><stop offset="0.807692" stop-color="#1063A9"/><stop offset="0.846154" stop-color="#1064A9"/><stop offset="0.884615" stop-color="#1064A9"/><stop offset="0.923077" stop-color="#1064A9"/><stop offset="0.961538" stop-color="#1064A9"/><stop offset="1" stop-color="#1165AA"/></linearGradient><linearGradient x1="588.5" y1="189" x2="588.5" y2="225" gradientUnits="userSpaceOnUse" spreadMethod="reflect" id="fill7"><stop offset="0" stop-color="#004A96"/><stop offset="0.0384615" stop-color="#014B97"/><stop offset="0.0769231" stop-color="#024D98"/><stop offset="0.115385" stop-color="#034F9A"/><stop offset="0.153846" stop-color="#04519B"/><stop offset="0.192308" stop-color="#05529C"/><stop offset="0.230769" stop-color="#06549D"/><stop offset="0.269231" stop-color="#07569E"/><stop offset="0.307692" stop-color="#08579F"/><stop offset="0.346154" stop-color="#0958A0"/><stop offset="0.384615" stop-color="#0A5AA1"/><stop offset="0.423077" stop-color="#0A5BA2"/><stop offset="0.461538" stop-color="#0B5CA3"/><stop offset="0.5" stop-color="#0C5DA4"/><stop offset="0.538462" stop-color="#0D5EA5"/><stop offset="0.576923" stop-color="#0D5FA6"/><stop offset="0.615385" stop-color="#0E60A6"/><stop offset="0.653846" stop-color="#0E61A7"/><stop offset="0.692308" stop-color="#0F62A7"/><stop offset="0.730769" stop-color="#0F62A8"/><stop offset="0.769231" stop-color="#0F63A8"/><stop offset="0.807692" stop-color="#1063A9"/><stop offset="0.846154" stop-color="#1064A9"/><stop offset="0.884615" stop-color="#1064A9"/><stop offset="0.923077" stop-color="#1064A9"/><stop offset="0.961538" stop-color="#1064A9"/><stop offset="1" stop-color="#1165AA"/></linearGradient><linearGradient x1="627.5" y1="233" x2="627.5" y2="269" gradientUnits="userSpaceOnUse" spreadMethod="reflect" id="fill8"><stop offset="0" stop-color="#004A96"/><stop offset="0.0384615" stop-color="#014B97"/><stop offset="0.0769231" stop-color="#024D98"/><stop offset="0.115385" stop-color="#034F9A"/><stop offset="0.153846" stop-color="#04519B"/><stop offset="0.192308" stop-color="#05529C"/><stop offset="0.230769" stop-color="#06549D"/><stop offset="0.269231" stop-color="#07569E"/><stop offset="0.307692" stop-color="#08579F"/><stop offset="0.346154" stop-color="#0958A0"/><stop offset="0.384615" stop-color="#0A5AA1"/><stop offset="0.423077" stop-color="#0A5BA2"/><stop offset="0.461538" stop-color="#0B5CA3"/><stop offset="0.5" stop-color="#0C5DA4"/><stop offset="0.538462" stop-color="#0D5EA5"/><stop offset="0.576923" stop-color="#0D5FA6"/><stop offset="0.615385" stop-color="#0E60A6"/><stop offset="0.653846" stop-color="#0E61A7"/><stop offset="0.692308" stop-color="#0F62A7"/><stop offset="0.730769" stop-color="#0F62A8"/><stop offset="0.769231" stop-color="#0F63A8"/><stop offset="0.807692" stop-color="#1063A9"/><stop offset="0.846154" stop-color="#1064A9"/><stop offset="0.884615" stop-color="#1064A9"/><stop offset="0.923077" stop-color="#1064A9"/><stop offset="0.961538" stop-color="#1064A9"/><stop offset="1" stop-color="#1165AA"/></linearGradient><linearGradient x1="587" y1="132" x2="587" y2="168" gradientUnits="userSpaceOnUse" spreadMethod="reflect" id="fill9"><stop offset="0" stop-color="#004A96"/><stop offset="0.0384615" stop-color="#014B97"/><stop offset="0.0769231" stop-color="#024D98"/><stop offset="0.115385" stop-color="#034F9A"/><stop offset="0.153846" stop-color="#04519B"/><stop offset="0.192308" stop-color="#05529C"/><stop offset="0.230769" stop-color="#06549D"/><stop offset="0.269231" stop-color="#07569E"/><stop offset="0.307692" stop-color="#08579F"/><stop offset="0.346154" stop-color="#0958A0"/><stop offset="0.384615" stop-color="#0A5AA1"/><stop offset="0.423077" stop-color="#0A5BA2"/><stop offset="0.461538" stop-color="#0B5CA3"/><stop offset="0.5" stop-color="#0C5DA4"/><stop offset="0.538462" stop-color="#0D5EA5"/><stop offset="0.576923" stop-color="#0D5FA6"/><stop offset="0.615385" stop-color="#0E60A6"/><stop offset="0.653846" stop-color="#0E61A7"/><stop offset="0.692308" stop-color="#0F62A7"/><stop offset="0.730769" stop-color="#0F62A8"/><stop offset="0.769231" stop-color="#0F63A8"/><stop offset="0.807692" stop-color="#1063A9"/><stop offset="0.846154" stop-color="#1064A9"/><stop offset="0.884615" stop-color="#1064A9"/><stop offset="0.923077" stop-color="#1064A9"/><stop offset="0.961538" stop-color="#1064A9"/><stop offset="1" stop-color="#1165AA"/></linearGradient><linearGradient x1="612.181" y1="439.793" x2="611.819" y2="502.207" gradientUnits="userSpaceOnUse" spreadMethod="reflect" id="fill10"><stop offset="0" stop-color="#FAFAFA"/><stop offset="0.0416667" stop-color="#F9F9F9"/><stop offset="0.0833333" stop-color="#F9F9F9"/><stop offset="0.125" stop-color="#F9F9F9"/><stop offset="0.166667" stop-color="#F9F9F9"/><stop offset="0.208333" stop-color="#F8F9F9"/><stop offset="0.25" stop-color="#F8F8F9"/><stop offset="0.291667" stop-color="#F7F8F9"/><stop offset="0.333333" stop-color="#F6F8F9"/><stop offset="0.375" stop-color="#F6F7F9"/><stop offset="0.416667" stop-color="#F5F7F9"/><stop offset="0.458333" stop-color="#F4F6F9"/><stop offset="0.5" stop-color="#F3F5F9"/><stop offset="0.541667" stop-color="#F2F5F9"/><stop offset="0.583333" stop-color="#F0F4F9"/><stop offset="0.625" stop-color="#EFF3F9"/><stop offset="0.666667" stop-color="#EEF2F9"/><stop offset="0.708333" stop-color="#ECF2F8"/><stop offset="0.75" stop-color="#EBF1F8"/><stop offset="0.791667" stop-color="#E9F0F8"/><stop offset="0.833333" stop-color="#E8EFF8"/><stop offset="0.875" stop-color="#E6EEF8"/><stop offset="0.916667" stop-color="#E4EDF8"/><stop offset="0.958333" stop-color="#E2ECF8"/><stop offset="1" stop-color="#E1EBF8"/></linearGradient><clipPath id="clip11"><rect x="595" y="391" width="32" height="32"/></clipPath><clipPath id="clip12"><rect x="595" y="391" width="32" height="32"/></clipPath><clipPath id="clip13"><rect x="595" y="391" width="32" height="32"/></clipPath><linearGradient x1="693" y1="106" x2="693" y2="119" gradientUnits="userSpaceOnUse" spreadMethod="reflect" id="fill14"><stop offset="0" stop-color="#FAFAFA"/><stop offset="0.0416667" stop-color="#F9F9F9"/><stop offset="0.0833333" stop-color="#F9F9F9"/><stop offset="0.125" stop-color="#F9F9F9"/><stop offset="0.166667" stop-color="#F9F9F9"/><stop offset="0.208333" stop-color="#F8F9F9"/><stop offset="0.25" stop-color="#F8F8F9"/><stop offset="0.291667" stop-color="#F7F8F9"/><stop offset="0.333333" stop-color="#F6F8F9"/><stop offset="0.375" stop-color="#F6F7F9"/><stop offset="0.416667" stop-color="#F5F7F9"/><stop offset="0.458333" stop-color="#F4F6F9"/><stop offset="0.5" stop-color="#F3F5F9"/><stop offset="0.541667" stop-color="#F2F5F9"/><stop offset="0.583333" stop-color="#F0F4F9"/><stop offset="0.625" stop-color="#EFF3F9"/><stop offset="0.666667" stop-color="#EEF2F9"/><stop offset="0.708333" stop-color="#ECF2F8"/><stop offset="0.75" stop-color="#EBF1F8"/><stop offset="0.791667" stop-color="#E9F0F8"/><stop offset="0.833333" stop-color="#E8EFF8"/><stop offset="0.875" stop-color="#E6EEF8"/><stop offset="0.916667" stop-color="#E4EDF8"/><stop offset="0.958333" stop-color="#E2ECF8"/><stop offset="1" stop-color="#E1EBF8"/></linearGradient><linearGradient x1="753" y1="401" x2="753" y2="437" gradientUnits="userSpaceOnUse" spreadMethod="reflect" id="fill15"><stop offset="0" stop-color="#004A96"/><stop offset="0.0384615" stop-color="#014B97"/><stop offset="0.0769231" stop-color="#024D98"/><stop offset="0.115385" stop-color="#034F9A"/><stop offset="0.153846" stop-color="#04519B"/><stop offset="0.192308" stop-color="#05529C"/><stop offset="0.230769" stop-color="#06549D"/><stop offset="0.269231" stop-color="#07569E"/><stop offset="0.307692" stop-color="#08579F"/><stop offset="0.346154" stop-color="#0958A0"/><stop offset="0.384615" stop-color="#0A5AA1"/><stop offset="0.423077" stop-color="#0A5BA2"/><stop offset="0.461538" stop-color="#0B5CA3"/><stop offset="0.5" stop-color="#0C5DA4"/><stop offset="0.538462" stop-color="#0D5EA5"/><stop offset="0.576923" stop-color="#0D5FA6"/><stop offset="0.615385" stop-color="#0E60A6"/><stop offset="0.653846" stop-color="#0E61A7"/><stop offset="0.692308" stop-color="#0F62A7"/><stop offset="0.730769" stop-color="#0F62A8"/><stop offset="0.769231" stop-color="#0F63A8"/><stop offset="0.807692" stop-color="#1063A9"/><stop offset="0.846154" stop-color="#1064A9"/><stop offset="0.884615" stop-color="#1064A9"/><stop offset="0.923077" stop-color="#1064A9"/><stop offset="0.961538" stop-color="#1064A9"/><stop offset="1" stop-color="#1165AA"/></linearGradient><linearGradient x1="792" y1="444" x2="792" y2="480" gradientUnits="userSpaceOnUse" spreadMethod="reflect" id="fill16"><stop offset="0" stop-color="#004A96"/><stop offset="0.0384615" stop-color="#014B97"/><stop offset="0.0769231" stop-color="#024D98"/><stop offset="0.115385" stop-color="#034F9A"/><stop offset="0.153846" stop-color="#04519B"/><stop offset="0.192308" stop-color="#05529C"/><stop offset="0.230769" stop-color="#06549D"/><stop offset="0.269231" stop-color="#07569E"/><stop offset="0.307692" stop-color="#08579F"/><stop offset="0.346154" stop-color="#0958A0"/><stop offset="0.384615" stop-color="#0A5AA1"/><stop offset="0.423077" stop-color="#0A5BA2"/><stop offset="0.461538" stop-color="#0B5CA3"/><stop offset="0.5" stop-color="#0C5DA4"/><stop offset="0.538462" stop-color="#0D5EA5"/><stop offset="0.576923" stop-color="#0D5FA6"/><stop offset="0.615385" stop-color="#0E60A6"/><stop offset="0.653846" stop-color="#0E61A7"/><stop offset="0.692308" stop-color="#0F62A7"/><stop offset="0.730769" stop-color="#0F62A8"/><stop offset="0.769231" stop-color="#0F63A8"/><stop offset="0.807692" stop-color="#1063A9"/><stop offset="0.846154" stop-color="#1064A9"/><stop offset="0.884615" stop-color="#1064A9"/><stop offset="0.923077" stop-color="#1064A9"/><stop offset="0.961538" stop-color="#1064A9"/><stop offset="1" stop-color="#1165AA"/></linearGradient><linearGradient x1="610.637" y1="387.795" x2="610.363" y2="435.205" gradientUnits="userSpaceOnUse" spreadMethod="reflect" id="fill17"><stop offset="0" stop-color="#FAFAFA"/><stop offset="0.0416667" stop-color="#F9F9F9"/><stop offset="0.0833333" stop-color="#F9F9F9"/><stop offset="0.125" stop-color="#F9F9F9"/><stop offset="0.166667" stop-color="#F9F9F9"/><stop offset="0.208333" stop-color="#F8F9F9"/><stop offset="0.25" stop-color="#F8F8F9"/><stop offset="0.291667" stop-color="#F7F8F9"/><stop offset="0.333333" stop-color="#F6F8F9"/><stop offset="0.375" stop-color="#F6F7F9"/><stop offset="0.416667" stop-color="#F5F7F9"/><stop offset="0.458333" stop-color="#F4F6F9"/><stop offset="0.5" stop-color="#F3F5F9"/><stop offset="0.541667" stop-color="#F2F5F9"/><stop offset="0.583333" stop-color="#F0F4F9"/><stop offset="0.625" stop-color="#EFF3F9"/><stop offset="0.666667" stop-color="#EEF2F9"/><stop offset="0.708333" stop-color="#ECF2F8"/><stop offset="0.75" stop-color="#EBF1F8"/><stop offset="0.791667" stop-color="#E9F0F8"/><stop offset="0.833333" stop-color="#E8EFF8"/><stop offset="0.875" stop-color="#E6EEF8"/><stop offset="0.916667" stop-color="#E4EDF8"/><stop offset="0.958333" stop-color="#E2ECF8"/><stop offset="1" stop-color="#E1EBF8"/></linearGradient><linearGradient x1="612.134" y1="440.793" x2="611.866" y2="487.207" gradientUnits="userSpaceOnUse" spreadMethod="reflect" id="fill18"><stop offset="0" stop-color="#FAFAFA"/><stop offset="0.0416667" stop-color="#F9F9F9"/><stop offset="0.0833333" stop-color="#F9F9F9"/><stop offset="0.125" stop-color="#F9F9F9"/><stop offset="0.166667" stop-color="#F9F9F9"/><stop offset="0.208333" stop-color="#F8F9F9"/><stop offset="0.25" stop-color="#F8F8F9"/><stop offset="0.291667" stop-color="#F7F8F9"/><stop offset="0.333333" stop-color="#F6F8F9"/><stop offset="0.375" stop-color="#F6F7F9"/><stop offset="0.416667" stop-color="#F5F7F9"/><stop offset="0.458333" stop-color="#F4F6F9"/><stop offset="0.5" stop-color="#F3F5F9"/><stop offset="0.541667" stop-color="#F2F5F9"/><stop offset="0.583333" stop-color="#F0F4F9"/><stop offset="0.625" stop-color="#EFF3F9"/><stop offset="0.666667" stop-color="#EEF2F9"/><stop offset="0.708333" stop-color="#ECF2F8"/><stop offset="0.75" stop-color="#EBF1F8"/><stop offset="0.791667" stop-color="#E9F0F8"/><stop offset="0.833333" stop-color="#E8EFF8"/><stop offset="0.875" stop-color="#E6EEF8"/><stop offset="0.916667" stop-color="#E4EDF8"/><stop offset="0.958333" stop-color="#E2ECF8"/><stop offset="1" stop-color="#E1EBF8"/></linearGradient><clipPath id="clip19"><rect x="596" y="392" width="32" height="33"/></clipPath><clipPath id="clip20"><rect x="596" y="392" width="32" height="33"/></clipPath><clipPath id="clip21"><rect x="596" y="392" width="32" height="33"/></clipPath><linearGradient x1="682" y1="507" x2="682" y2="493" gradientUnits="userSpaceOnUse" spreadMethod="reflect" id="fill22"><stop offset="0" stop-color="#FAFAFA"/><stop offset="0.0416667" stop-color="#F9F9F9"/><stop offset="0.0833333" stop-color="#F9F9F9"/><stop offset="0.125" stop-color="#F9F9F9"/><stop offset="0.166667" stop-color="#F9F9F9"/><stop offset="0.208333" stop-color="#F8F9F9"/><stop offset="0.25" stop-color="#F8F8F9"/><stop offset="0.291667" stop-color="#F7F8F9"/><stop offset="0.333333" stop-color="#F6F8F9"/><stop offset="0.375" stop-color="#F6F7F9"/><stop offset="0.416667" stop-color="#F5F7F9"/><stop offset="0.458333" stop-color="#F4F6F9"/><stop offset="0.5" stop-color="#F3F5F9"/><stop offset="0.541667" stop-color="#F2F5F9"/><stop offset="0.583333" stop-color="#F0F4F9"/><stop offset="0.625" stop-color="#EFF3F9"/><stop offset="0.666667" stop-color="#EEF2F9"/><stop offset="0.708333" stop-color="#ECF2F8"/><stop offset="0.75" stop-color="#EBF1F8"/><stop offset="0.791667" stop-color="#E9F0F8"/><stop offset="0.833333" stop-color="#E8EFF8"/><stop offset="0.875" stop-color="#E6EEF8"/><stop offset="0.916667" stop-color="#E4EDF8"/><stop offset="0.958333" stop-color="#E2ECF8"/><stop offset="1" stop-color="#E1EBF8"/></linearGradient></defs><g clip-path="url(#clip0)"><rect x="0" y="0" width="1280" height="720" fill="#FFFFFF"/><text font-family="Arial,Arial_MSFontService,sans-serif" font-weight="400" font-size="13" transform="translate(617.917 712)">Internal</text><rect x="553" y="87" width="275" height="436" fill="#BFBFBF"/><path d="M738 286.532C738 283.477 740.477 281 743.532 281L765.468 281C768.523 281 771 283.477 771 286.532L771 311.468C771 314.523 768.523 317 765.468 317L743.532 317C740.477 317 738 314.523 738 311.468Z" fill="url(#fill1)" fill-rule="evenodd"/><path d="M777 286.532C777 283.477 779.477 281 782.532 281L804.468 281C807.523 281 810 283.477 810 286.532L810 311.468C810 314.523 807.523 317 804.468 317L782.532 317C779.477 317 777 314.523 777 311.468Z" fill="#D5E6EB" fill-rule="evenodd"/><path d="M777 330.532C777 327.477 779.477 325 782.532 325L804.468 325C807.523 325 810 327.477 810 330.532L810 355.468C810 358.523 807.523 361 804.468 361L782.532 361C779.477 361 777 358.523 777 355.468Z" fill="url(#fill2)" fill-rule="evenodd"/><path d="M738 330.532C738 327.477 740.477 325 743.532 325L765.468 325C768.523 325 771 327.477 771 330.532L771 355.468C771 358.523 768.523 361 765.468 361L743.532 361C740.477 361 738 358.523 738 355.468Z" fill="#D5E6EB" fill-rule="evenodd"/><text fill="#FFFFFF" font-family="Arial,Arial_MSFontService,sans-serif" font-weight="400" font-size="20" transform="translate(743.593 307)">15<tspan x="38.9202" y="0">16</tspan><tspan x="0" y="44">17</tspan><tspan x="38.9202" y="44">18</tspan></text><path d="M737 181.364C737 178.402 739.402 176 742.364 176L763.636 176C766.598 176 769 178.402 769 181.364L769 206.636C769 209.598 766.598 212 763.636 212L742.364 212C739.402 212 737 209.598 737 206.636Z" fill="url(#fill3)" fill-rule="evenodd"/><path d="M776 181.364C776 178.402 778.402 176 781.364 176L802.636 176C805.598 176 808 178.402 808 181.364L808 206.636C808 209.598 805.598 212 802.636 212L781.364 212C778.402 212 776 209.598 776 206.636Z" fill="#D5E6EB" fill-rule="evenodd"/><path d="M776 225.364C776 222.402 778.402 220 781.364 220L802.636 220C805.598 220 808 222.402 808 225.364L808 250.636C808 253.598 805.598 256 802.636 256L781.364 256C778.402 256 776 253.598 776 250.636Z" fill="url(#fill4)" fill-rule="evenodd"/><path d="M737 225.364C737 222.402 739.402 220 742.364 220L763.636 220C766.598 220 769 222.402 769 225.364L769 250.636C769 253.598 766.598 256 763.636 256L742.364 256C739.402 256 737 253.598 737 250.636Z" fill="#D5E6EB" fill-rule="evenodd"/><text fill="#FFFFFF" font-family="Arial,Arial_MSFontService,sans-serif" font-weight="400" font-size="20" transform="translate(743.112 201)">11<tspan x="38.1868" y="0">12</tspan><tspan x="-0.733337" y="44">13</tspan><tspan x="38.1868" y="44">14</tspan></text><path d="M573 290.364C573 287.402 575.402 285 578.364 285L599.636 285C602.598 285 605 287.402 605 290.364L605 315.636C605 318.598 602.598 321 599.636 321L578.364 321C575.402 321 573 318.598 573 315.636Z" fill="url(#fill5)" fill-rule="evenodd"/><path d="M612 290.364C612 287.402 614.402 285 617.364 285L638.636 285C641.598 285 644 287.402 644 290.364L644 315.636C644 318.598 641.598 321 638.636 321L617.364 321C614.402 321 612 318.598 612 315.636Z" fill="#D5E6EB" fill-rule="evenodd"/><path d="M612 334.364C612 331.402 614.402 329 617.364 329L638.636 329C641.598 329 644 331.402 644 334.364L644 359.636C644 362.598 641.598 365 638.636 365L617.364 365C614.402 365 612 362.598 612 359.636Z" fill="url(#fill6)" fill-rule="evenodd"/><path d="M573 334.364C573 331.402 575.402 329 578.364 329L599.636 329C602.598 329 605 331.402 605 334.364L605 359.636C605 362.598 602.598 365 599.636 365L578.364 365C575.402 365 573 362.598 573 359.636Z" fill="#D5E6EB" fill-rule="evenodd"/><text fill="#FFFFFF" font-family="Arial,Arial_MSFontService,sans-serif" font-weight="400" font-size="20" transform="translate(583.819 310)">8<tspan x="38.9202" y="0">7</tspan><tspan x="-5.50006" y="44">10</tspan><tspan x="38.9202" y="44">9</tspan></text><path d="M572 194.532C572 191.477 574.477 189 577.532 189L599.468 189C602.523 189 605 191.477 605 194.532L605 219.468C605 222.523 602.523 225 599.468 225L577.532 225C574.477 225 572 222.523 572 219.468Z" fill="url(#fill7)" fill-rule="evenodd"/><path d="M611 194.532C611 191.477 613.477 189 616.532 189L638.468 189C641.523 189 644 191.477 644 194.532L644 219.468C644 222.523 641.523 225 638.468 225L616.532 225C613.477 225 611 222.523 611 219.468Z" fill="#D5E6EB" fill-rule="evenodd"/><path d="M611 238.532C611 235.477 613.477 233 616.532 233L638.468 233C641.523 233 644 235.477 644 238.532L644 263.468C644 266.523 641.523 269 638.468 269L616.532 269C613.477 269 611 266.523 611 263.468Z" fill="url(#fill8)" fill-rule="evenodd"/><path d="M572 238.532C572 235.477 574.477 233 577.532 233L599.468 233C602.523 233 605 235.477 605 238.532L605 263.468C605 266.523 602.523 269 599.468 269L577.532 269C574.477 269 572 266.523 572 263.468Z" fill="#D5E6EB" fill-rule="evenodd"/><text fill="#FFFFFF" font-family="Arial,Arial_MSFontService,sans-serif" font-weight="400" font-size="20" transform="translate(583.061 214)">4<tspan x="38.9202" y="0">3</tspan><tspan x="0" y="44">6</tspan><tspan x="38.9202" y="44">5</tspan></text><path d="M571 137.364C571 134.402 573.402 132 576.364 132L597.636 132C600.598 132 603 134.402 603 137.364L603 162.636C603 165.598 600.598 168 597.636 168L576.364 168C573.402 168 571 165.598 571 162.636Z" fill="url(#fill9)" fill-rule="evenodd"/><path d="M610 137.364C610 134.402 612.402 132 615.364 132L636.636 132C639.598 132 642 134.402 642 137.364L642 162.636C642 165.598 639.598 168 636.636 168L615.364 168C612.402 168 610 165.598 610 162.636Z" fill="#D5E6EB" fill-rule="evenodd"/><text fill="#FFFFFF" font-family="Arial,Arial_MSFontService,sans-serif" font-weight="400" font-size="20" transform="translate(581.552 157)">2<tspan x="38.9202" y="0">1</tspan></text><path d="M576 447.87C576 443.524 579.524 440 583.87 440L640.13 440C644.476 440 648 443.524 648 447.87L648 494.13C648 498.476 644.476 502 640.13 502L583.87 502C579.524 502 576 498.476 576 494.13Z" fill="url(#fill10)" fill-rule="evenodd"/><text fill="#004A96" font-family="Arial,Arial_MSFontService,sans-serif" font-weight="400" font-size="16" transform="translate(598.598 480)">WC</text><g clip-path="url(#clip11)"><g clip-path="url(#clip12)"><g clip-path="url(#clip13)"><path d="M621.4 410.733C621.4 408 619.267 405.8 616.567 405.667L616.567 403.667 600.567 403.667 600.567 419C600.567 419.733 601.167 420.333 601.9 420.333L615.233 420.333C615.967 420.333 616.567 419.733 616.567 419L616.567 415.833C619.267 415.7 621.4 413.467 621.4 410.733ZM616.6 413.833 616.6 407.667C618.2 407.8 619.433 409.133 619.433 410.733 619.433 412.333 618.167 413.7 616.6 413.833Z" fill="#0070C0"/><path d="M607.967 397.167C608.167 397.367 608.267 397.6 608.267 397.867 608.267 398.133 608.167 398.4 607.967 398.567 607.7 398.833 607.7 399.233 607.967 399.5 608.1 399.633 608.267 399.7 608.433 399.7 608.6 399.7 608.767 399.633 608.9 399.5 609.333 399.067 609.6 398.467 609.6 397.833 609.6 397.2 609.367 396.633 608.9 396.2 608.9 396.2 608.9 396.2 608.9 396.2 608.5 395.8 608.5 395.167 608.9 394.8 609.167 394.533 609.167 394.133 608.9 393.867 608.633 393.6 608.233 393.6 607.967 393.867 607.033 394.767 607.033 396.267 607.967 397.167 607.967 397.167 607.967 397.167 607.967 397.167Z" fill="#0070C0"/><path d="M611.6 399.1C612 399.5 612 400.133 611.6 400.5 611.333 400.767 611.333 401.167 611.6 401.433 611.733 401.567 611.9 401.633 612.067 401.633 612.233 401.633 612.4 401.567 612.533 401.433 613.433 400.533 613.433 399.033 612.533 398.133 612.533 398.133 612.533 398.133 612.533 398.133 612.333 397.933 612.233 397.7 612.233 397.433 612.233 397.167 612.333 396.9 612.533 396.733 612.8 396.467 612.8 396.067 612.533 395.8 612.267 395.533 611.867 395.533 611.6 395.8 611.167 396.233 610.9 396.833 610.9 397.467 610.933 398.1 611.167 398.667 611.6 399.1 611.6 399.1 611.6 399.1 611.6 399.1Z" fill="#0070C0"/><path d="M604.633 399.1C604.833 399.3 604.933 399.533 604.933 399.8 604.933 400.067 604.833 400.333 604.633 400.5 604.367 400.767 604.367 401.167 604.633 401.433 604.767 401.567 604.933 401.633 605.1 401.633 605.267 401.633 605.433 401.567 605.567 401.433 606 401 606.267 400.4 606.267 399.767 606.267 399.133 606.033 398.567 605.567 398.1L605.567 398.1C605.167 397.7 605.167 397.067 605.567 396.7 605.833 396.433 605.833 396.033 605.567 395.767 605.3 395.5 604.9 395.5 604.633 395.767 603.7 396.733 603.7 398.2 604.633 399.1 604.633 399.1 604.633 399.1 604.633 399.1Z" fill="#0070C0"/></g></g></g><text fill="#004A96" font-family="Arial,Arial_MSFontService,sans-serif" font-weight="900" font-size="27" transform="translate(671.09 274)">5L</text><path d="M659 94.9516C659 93.8737 659.874 93 660.952 93L725.048 93C726.126 93 727 93.8737 727 94.9516L727 127.048C727 128.126 726.126 129 725.048 129L660.952 129C659.874 129 659 128.126 659 127.048Z" fill="#A0A0A0" fill-rule="evenodd"/><path d="M673.612 124C670.513 124 668 121.487 668 118.388L668 106.612C668 103.513 670.513 101 673.612 101L713.388 101C716.487 101 719 103.513 719 106.612L719 118.388C719 121.487 716.487 124 713.388 124Z" fill="#D5E6EB" fill-rule="evenodd"/><path d="M693 119 686 106 700 106Z" fill="url(#fill14)" fill-rule="evenodd"/><path d="M737 406.364C737 403.402 739.402 401 742.364 401L763.636 401C766.598 401 769 403.402 769 406.364L769 431.636C769 434.598 766.598 437 763.636 437L742.364 437C739.402 437 737 434.598 737 431.636Z" fill="url(#fill15)" fill-rule="evenodd"/><path d="M776 406.364C776 403.402 778.402 401 781.364 401L802.636 401C805.598 401 808 403.402 808 406.364L808 431.636C808 434.598 805.598 437 802.636 437L781.364 437C778.402 437 776 434.598 776 431.636Z" fill="#D5E6EB" fill-rule="evenodd"/><path d="M776 449.364C776 446.402 778.402 444 781.364 444L802.636 444C805.598 444 808 446.402 808 449.364L808 474.636C808 477.598 805.598 480 802.636 480L781.364 480C778.402 480 776 477.598 776 474.636Z" fill="url(#fill16)" fill-rule="evenodd"/><path d="M737 449.364C737 446.402 739.402 444 742.364 444L763.636 444C766.598 444 769 446.402 769 449.364L769 474.636C769 477.598 766.598 480 763.636 480L742.364 480C739.402 480 737 477.598 737 474.636Z" fill="#D5E6EB" fill-rule="evenodd"/><text fill="#FFFFFF" font-family="Arial,Arial_MSFontService,sans-serif" font-weight="400" font-size="20" transform="translate(742.274 426)">19<tspan x="38.9202" y="0">20</tspan><tspan x="0" y="44">21</tspan><tspan x="38.9202" y="44">22</tspan></text><path d="M561 389.318C561 385.277 564.277 382 568.318 382L705.682 382C709.723 382 713 385.277 713 389.318L713 509.682C713 513.723 709.723 517 705.682 517L568.318 517C564.277 517 561 513.723 561 509.682Z" fill="#A0A0A0" fill-rule="evenodd"/><path d="M575 393.966C575 390.671 577.671 388 580.966 388L640.034 388C643.329 388 646 390.671 646 393.966L646 429.034C646 432.329 643.329 435 640.034 435L580.966 435C577.671 435 575 432.329 575 429.034Z" fill="url(#fill17)" fill-rule="evenodd"/><path d="M576 446.839C576 443.614 578.614 441 581.839 441L642.161 441C645.386 441 648 443.614 648 446.839L648 481.161C648 484.386 645.386 487 642.161 487L581.839 487C578.614 487 576 484.386 576 481.161Z" fill="url(#fill18)" fill-rule="evenodd"/><text fill="#004A96" font-family="Arial,Arial_MSFontService,sans-serif" font-weight="400" font-size="16" transform="translate(598.331 472)">WC</text><g clip-path="url(#clip19)"><g clip-path="url(#clip20)"><g clip-path="url(#clip21)"><path d="M26.4 19.7333C26.4 17 24.2667 14.8 21.5667 14.6667L21.5667 12.6667 5.56667 12.6667 5.56667 28C5.56667 28.7333 6.16667 29.3333 6.9 29.3333L20.2333 29.3333C20.9667 29.3333 21.5667 28.7333 21.5667 28L21.5667 24.8333C24.2667 24.7 26.4 22.4667 26.4 19.7333ZM21.6 22.8333 21.6 16.6667C23.2 16.8 24.4333 18.1333 24.4333 19.7333 24.4333 21.3333 23.1667 22.7 21.6 22.8333Z" fill="#0070C0" transform="matrix(1 0 -0 1.03125 596 392)"/><path d="M12.9667 6.16667C13.1667 6.36667 13.2667 6.6 13.2667 6.86667 13.2667 7.13333 13.1667 7.4 12.9667 7.56667 12.7 7.83333 12.7 8.23333 12.9667 8.5 13.1 8.63333 13.2667 8.7 13.4333 8.7 13.6 8.7 13.7667 8.63333 13.9 8.5 14.3333 8.06667 14.6 7.46667 14.6 6.83333 14.6 6.2 14.3667 5.63333 13.9 5.2 13.9 5.2 13.9 5.2 13.9 5.2 13.5 4.8 13.5 4.16667 13.9 3.8 14.1667 3.53333 14.1667 3.13333 13.9 2.86667 13.6333 2.6 13.2333 2.6 12.9667 2.86667 12.0333 3.76667 12.0333 5.26667 12.9667 6.16667 12.9667 6.16667 12.9667 6.16667 12.9667 6.16667Z" fill="#0070C0" transform="matrix(1 0 -0 1.03125 596 392)"/><path d="M16.6 8.1C17 8.5 17 9.13333 16.6 9.5 16.3333 9.76667 16.3333 10.1667 16.6 10.4333 16.7333 10.5667 16.9 10.6333 17.0667 10.6333 17.2333 10.6333 17.4 10.5667 17.5333 10.4333 18.4333 9.53333 18.4333 8.03333 17.5333 7.13333 17.5333 7.13333 17.5333 7.13333 17.5333 7.13333 17.3333 6.93333 17.2333 6.7 17.2333 6.43333 17.2333 6.16667 17.3333 5.9 17.5333 5.73333 17.8 5.46667 17.8 5.06667 17.5333 4.8 17.2667 4.53333 16.8667 4.53333 16.6 4.8 16.1667 5.23333 15.9 5.83333 15.9 6.46667 15.9333 7.1 16.1667 7.66667 16.6 8.1 16.6 8.1 16.6 8.1 16.6 8.1Z" fill="#0070C0" transform="matrix(1 0 -0 1.03125 596 392)"/><path d="M9.63333 8.1C9.83333 8.3 9.93333 8.53333 9.93333 8.8 9.93333 9.06667 9.83333 9.33333 9.63333 9.5 9.36667 9.76667 9.36667 10.1667 9.63333 10.4333 9.76667 10.5667 9.93333 10.6333 10.1 10.6333 10.2667 10.6333 10.4333 10.5667 10.5667 10.4333 11 10 11.2667 9.4 11.2667 8.76667 11.2667 8.13333 11.0333 7.56667 10.5667 7.1L10.5667 7.1C10.1667 6.7 10.1667 6.06667 10.5667 5.7 10.8333 5.43333 10.8333 5.03333 10.5667 4.76667 10.3 4.5 9.9 4.5 9.63333 4.76667 8.7 5.73333 8.7 7.2 9.63333 8.1 9.63333 8.1 9.63333 8.1 9.63333 8.1Z" fill="#0070C0" transform="matrix(1 0 -0 1.03125 596 392)"/></g></g></g><path d="M701.632 489C704.597 489 707 491.403 707 494.368L707 505.632C707 508.597 704.597 511 701.632 511L662.368 511C659.403 511 657 508.597 657 505.632L657 494.368C657 491.403 659.403 489 662.368 489Z" fill="#D5E6EB" fill-rule="evenodd"/><path d="M682 493 689 507 675 507Z" fill="url(#fill22)" fill-rule="evenodd"/></g></svg>