<svg width="1280" height="720" xmlns="http://www.w3.org/2000/svg" xmlns:xlink="http://www.w3.org/1999/xlink" overflow="hidden"><defs><clipPath id="clip0"><rect x="0" y="0" width="1280" height="720"/></clipPath><linearGradient x1="739" y1="255" x2="739" y2="291" gradientUnits="userSpaceOnUse" spreadMethod="reflect" id="fill1"><stop offset="0" stop-color="#004A96"/><stop offset="0.0384615" stop-color="#014B97"/><stop offset="0.0769231" stop-color="#024D98"/><stop offset="0.115385" stop-color="#034F9A"/><stop offset="0.153846" stop-color="#04519B"/><stop offset="0.192308" stop-color="#05529C"/><stop offset="0.230769" stop-color="#06549D"/><stop offset="0.269231" stop-color="#07569E"/><stop offset="0.307692" stop-color="#08579F"/><stop offset="0.346154" stop-color="#0958A0"/><stop offset="0.384615" stop-color="#0A5AA1"/><stop offset="0.423077" stop-color="#0A5BA2"/><stop offset="0.461538" stop-color="#0B5CA3"/><stop offset="0.5" stop-color="#0C5DA4"/><stop offset="0.538462" stop-color="#0D5EA5"/><stop offset="0.576923" stop-color="#0D5FA6"/><stop offset="0.615385" stop-color="#0E60A6"/><stop offset="0.653846" stop-color="#0E61A7"/><stop offset="0.692308" stop-color="#0F62A7"/><stop offset="0.730769" stop-color="#0F62A8"/><stop offset="0.769231" stop-color="#0F63A8"/><stop offset="0.807692" stop-color="#1063A9"/><stop offset="0.846154" stop-color="#1064A9"/><stop offset="0.884615" stop-color="#1064A9"/><stop offset="0.923077" stop-color="#1064A9"/><stop offset="0.961538" stop-color="#1064A9"/><stop offset="1" stop-color="#1165AA"/></linearGradient><linearGradient x1="778" y1="299" x2="778" y2="335" gradientUnits="userSpaceOnUse" spreadMethod="reflect" id="fill2"><stop offset="0" stop-color="#004A96"/><stop offset="0.0384615" stop-color="#014B97"/><stop offset="0.0769231" stop-color="#024D98"/><stop offset="0.115385" stop-color="#034F9A"/><stop offset="0.153846" stop-color="#04519B"/><stop offset="0.192308" stop-color="#05529C"/><stop offset="0.230769" stop-color="#06549D"/><stop offset="0.269231" stop-color="#07569E"/><stop offset="0.307692" stop-color="#08579F"/><stop offset="0.346154" stop-color="#0958A0"/><stop offset="0.384615" stop-color="#0A5AA1"/><stop offset="0.423077" stop-color="#0A5BA2"/><stop offset="0.461538" stop-color="#0B5CA3"/><stop offset="0.5" stop-color="#0C5DA4"/><stop offset="0.538462" stop-color="#0D5EA5"/><stop offset="0.576923" stop-color="#0D5FA6"/><stop offset="0.615385" stop-color="#0E60A6"/><stop offset="0.653846" stop-color="#0E61A7"/><stop offset="0.692308" stop-color="#0F62A7"/><stop offset="0.730769" stop-color="#0F62A8"/><stop offset="0.769231" stop-color="#0F63A8"/><stop offset="0.807692" stop-color="#1063A9"/><stop offset="0.846154" stop-color="#1064A9"/><stop offset="0.884615" stop-color="#1064A9"/><stop offset="0.923077" stop-color="#1064A9"/><stop offset="0.961538" stop-color="#1064A9"/><stop offset="1" stop-color="#1165AA"/></linearGradient><linearGradient x1="345.857" y1="432.739" x2="345.143" y2="556.261" gradientUnits="userSpaceOnUse" spreadMethod="reflect" id="fill3"><stop offset="0" stop-color="#FAFAFA"/><stop offset="0.0416667" stop-color="#F9F9F9"/><stop offset="0.0833333" stop-color="#F9F9F9"/><stop offset="0.125" stop-color="#F9F9F9"/><stop offset="0.166667" stop-color="#F9F9F9"/><stop offset="0.208333" stop-color="#F8F9F9"/><stop offset="0.25" stop-color="#F8F8F9"/><stop offset="0.291667" stop-color="#F7F8F9"/><stop offset="0.333333" stop-color="#F6F8F9"/><stop offset="0.375" stop-color="#F6F7F9"/><stop offset="0.416667" stop-color="#F5F7F9"/><stop offset="0.458333" stop-color="#F4F6F9"/><stop offset="0.5" stop-color="#F3F5F9"/><stop offset="0.541667" stop-color="#F2F5F9"/><stop offset="0.583333" stop-color="#F0F4F9"/><stop offset="0.625" stop-color="#EFF3F9"/><stop offset="0.666667" stop-color="#EEF2F9"/><stop offset="0.708333" stop-color="#ECF2F8"/><stop offset="0.75" stop-color="#EBF1F8"/><stop offset="0.791667" stop-color="#E9F0F8"/><stop offset="0.833333" stop-color="#E8EFF8"/><stop offset="0.875" stop-color="#E6EEF8"/><stop offset="0.916667" stop-color="#E4EDF8"/><stop offset="0.958333" stop-color="#E2ECF8"/><stop offset="1" stop-color="#E1EBF8"/></linearGradient><linearGradient x1="480.5" y1="508" x2="480.5" y2="544" gradientUnits="userSpaceOnUse" spreadMethod="reflect" id="fill4"><stop offset="0" stop-color="#004A96"/><stop offset="0.0384615" stop-color="#014B97"/><stop offset="0.0769231" stop-color="#024D98"/><stop offset="0.115385" stop-color="#034F9A"/><stop offset="0.153846" stop-color="#04519B"/><stop offset="0.192308" stop-color="#05529C"/><stop offset="0.230769" stop-color="#06549D"/><stop offset="0.269231" stop-color="#07569E"/><stop offset="0.307692" stop-color="#08579F"/><stop offset="0.346154" stop-color="#0958A0"/><stop offset="0.384615" stop-color="#0A5AA1"/><stop offset="0.423077" stop-color="#0A5BA2"/><stop offset="0.461538" stop-color="#0B5CA3"/><stop offset="0.5" stop-color="#0C5DA4"/><stop offset="0.538462" stop-color="#0D5EA5"/><stop offset="0.576923" stop-color="#0D5FA6"/><stop offset="0.615385" stop-color="#0E60A6"/><stop offset="0.653846" stop-color="#0E61A7"/><stop offset="0.692308" stop-color="#0F62A7"/><stop offset="0.730769" stop-color="#0F62A8"/><stop offset="0.769231" stop-color="#0F63A8"/><stop offset="0.807692" stop-color="#1063A9"/><stop offset="0.846154" stop-color="#1064A9"/><stop offset="0.884615" stop-color="#1064A9"/><stop offset="0.923077" stop-color="#1064A9"/><stop offset="0.961538" stop-color="#1064A9"/><stop offset="1" stop-color="#1165AA"/></linearGradient><linearGradient x1="644.5" y1="420" x2="644.5" y2="456" gradientUnits="userSpaceOnUse" spreadMethod="reflect" id="fill5"><stop offset="0" stop-color="#004A96"/><stop offset="0.0384615" stop-color="#014B97"/><stop offset="0.0769231" stop-color="#024D98"/><stop offset="0.115385" stop-color="#034F9A"/><stop offset="0.153846" stop-color="#04519B"/><stop offset="0.192308" stop-color="#05529C"/><stop offset="0.230769" stop-color="#06549D"/><stop offset="0.269231" stop-color="#07569E"/><stop offset="0.307692" stop-color="#08579F"/><stop offset="0.346154" stop-color="#0958A0"/><stop offset="0.384615" stop-color="#0A5AA1"/><stop offset="0.423077" stop-color="#0A5BA2"/><stop offset="0.461538" stop-color="#0B5CA3"/><stop offset="0.5" stop-color="#0C5DA4"/><stop offset="0.538462" stop-color="#0D5EA5"/><stop offset="0.576923" stop-color="#0D5FA6"/><stop offset="0.615385" stop-color="#0E60A6"/><stop offset="0.653846" stop-color="#0E61A7"/><stop offset="0.692308" stop-color="#0F62A7"/><stop offset="0.730769" stop-color="#0F62A8"/><stop offset="0.769231" stop-color="#0F63A8"/><stop offset="0.807692" stop-color="#1063A9"/><stop offset="0.846154" stop-color="#1064A9"/><stop offset="0.884615" stop-color="#1064A9"/><stop offset="0.923077" stop-color="#1064A9"/><stop offset="0.961538" stop-color="#1064A9"/><stop offset="1" stop-color="#1165AA"/></linearGradient><linearGradient x1="683.5" y1="464" x2="683.5" y2="500" gradientUnits="userSpaceOnUse" spreadMethod="reflect" id="fill6"><stop offset="0" stop-color="#004A96"/><stop offset="0.0384615" stop-color="#014B97"/><stop offset="0.0769231" stop-color="#024D98"/><stop offset="0.115385" stop-color="#034F9A"/><stop offset="0.153846" stop-color="#04519B"/><stop offset="0.192308" stop-color="#05529C"/><stop offset="0.230769" stop-color="#06549D"/><stop offset="0.269231" stop-color="#07569E"/><stop offset="0.307692" stop-color="#08579F"/><stop offset="0.346154" stop-color="#0958A0"/><stop offset="0.384615" stop-color="#0A5AA1"/><stop offset="0.423077" stop-color="#0A5BA2"/><stop offset="0.461538" stop-color="#0B5CA3"/><stop offset="0.5" stop-color="#0C5DA4"/><stop offset="0.538462" stop-color="#0D5EA5"/><stop offset="0.576923" stop-color="#0D5FA6"/><stop offset="0.615385" stop-color="#0E60A6"/><stop offset="0.653846" stop-color="#0E61A7"/><stop offset="0.692308" stop-color="#0F62A7"/><stop offset="0.730769" stop-color="#0F62A8"/><stop offset="0.769231" stop-color="#0F63A8"/><stop offset="0.807692" stop-color="#1063A9"/><stop offset="0.846154" stop-color="#1064A9"/><stop offset="0.884615" stop-color="#1064A9"/><stop offset="0.923077" stop-color="#1064A9"/><stop offset="0.961538" stop-color="#1064A9"/><stop offset="1" stop-color="#1165AA"/></linearGradient><linearGradient x1="647" y1="511" x2="647" y2="547" gradientUnits="userSpaceOnUse" spreadMethod="reflect" id="fill7"><stop offset="0" stop-color="#004A96"/><stop offset="0.0384615" stop-color="#014B97"/><stop offset="0.0769231" stop-color="#024D98"/><stop offset="0.115385" stop-color="#034F9A"/><stop offset="0.153846" stop-color="#04519B"/><stop offset="0.192308" stop-color="#05529C"/><stop offset="0.230769" stop-color="#06549D"/><stop offset="0.269231" stop-color="#07569E"/><stop offset="0.307692" stop-color="#08579F"/><stop offset="0.346154" stop-color="#0958A0"/><stop offset="0.384615" stop-color="#0A5AA1"/><stop offset="0.423077" stop-color="#0A5BA2"/><stop offset="0.461538" stop-color="#0B5CA3"/><stop offset="0.5" stop-color="#0C5DA4"/><stop offset="0.538462" stop-color="#0D5EA5"/><stop offset="0.576923" stop-color="#0D5FA6"/><stop offset="0.615385" stop-color="#0E60A6"/><stop offset="0.653846" stop-color="#0E61A7"/><stop offset="0.692308" stop-color="#0F62A7"/><stop offset="0.730769" stop-color="#0F62A8"/><stop offset="0.769231" stop-color="#0F63A8"/><stop offset="0.807692" stop-color="#1063A9"/><stop offset="0.846154" stop-color="#1064A9"/><stop offset="0.884615" stop-color="#1064A9"/><stop offset="0.923077" stop-color="#1064A9"/><stop offset="0.961538" stop-color="#1064A9"/><stop offset="1" stop-color="#1165AA"/></linearGradient><linearGradient x1="737.5" y1="419" x2="737.5" y2="455" gradientUnits="userSpaceOnUse" spreadMethod="reflect" id="fill8"><stop offset="0" stop-color="#004A96"/><stop offset="0.0384615" stop-color="#014B97"/><stop offset="0.0769231" stop-color="#024D98"/><stop offset="0.115385" stop-color="#034F9A"/><stop offset="0.153846" stop-color="#04519B"/><stop offset="0.192308" stop-color="#05529C"/><stop offset="0.230769" stop-color="#06549D"/><stop offset="0.269231" stop-color="#07569E"/><stop offset="0.307692" stop-color="#08579F"/><stop offset="0.346154" stop-color="#0958A0"/><stop offset="0.384615" stop-color="#0A5AA1"/><stop offset="0.423077" stop-color="#0A5BA2"/><stop offset="0.461538" stop-color="#0B5CA3"/><stop offset="0.5" stop-color="#0C5DA4"/><stop offset="0.538462" stop-color="#0D5EA5"/><stop offset="0.576923" stop-color="#0D5FA6"/><stop offset="0.615385" stop-color="#0E60A6"/><stop offset="0.653846" stop-color="#0E61A7"/><stop offset="0.692308" stop-color="#0F62A7"/><stop offset="0.730769" stop-color="#0F62A8"/><stop offset="0.769231" stop-color="#0F63A8"/><stop offset="0.807692" stop-color="#1063A9"/><stop offset="0.846154" stop-color="#1064A9"/><stop offset="0.884615" stop-color="#1064A9"/><stop offset="0.923077" stop-color="#1064A9"/><stop offset="0.961538" stop-color="#1064A9"/><stop offset="1" stop-color="#1165AA"/></linearGradient><linearGradient x1="776.5" y1="463" x2="776.5" y2="499" gradientUnits="userSpaceOnUse" spreadMethod="reflect" id="fill9"><stop offset="0" stop-color="#004A96"/><stop offset="0.0384615" stop-color="#014B97"/><stop offset="0.0769231" stop-color="#024D98"/><stop offset="0.115385" stop-color="#034F9A"/><stop offset="0.153846" stop-color="#04519B"/><stop offset="0.192308" stop-color="#05529C"/><stop offset="0.230769" stop-color="#06549D"/><stop offset="0.269231" stop-color="#07569E"/><stop offset="0.307692" stop-color="#08579F"/><stop offset="0.346154" stop-color="#0958A0"/><stop offset="0.384615" stop-color="#0A5AA1"/><stop offset="0.423077" stop-color="#0A5BA2"/><stop offset="0.461538" stop-color="#0B5CA3"/><stop offset="0.5" stop-color="#0C5DA4"/><stop offset="0.538462" stop-color="#0D5EA5"/><stop offset="0.576923" stop-color="#0D5FA6"/><stop offset="0.615385" stop-color="#0E60A6"/><stop offset="0.653846" stop-color="#0E61A7"/><stop offset="0.692308" stop-color="#0F62A7"/><stop offset="0.730769" stop-color="#0F62A8"/><stop offset="0.769231" stop-color="#0F63A8"/><stop offset="0.807692" stop-color="#1063A9"/><stop offset="0.846154" stop-color="#1064A9"/><stop offset="0.884615" stop-color="#1064A9"/><stop offset="0.923077" stop-color="#1064A9"/><stop offset="0.961538" stop-color="#1064A9"/><stop offset="1" stop-color="#1165AA"/></linearGradient><linearGradient x1="740" y1="510" x2="740" y2="546" gradientUnits="userSpaceOnUse" spreadMethod="reflect" id="fill10"><stop offset="0" stop-color="#004A96"/><stop offset="0.0384615" stop-color="#014B97"/><stop offset="0.0769231" stop-color="#024D98"/><stop offset="0.115385" stop-color="#034F9A"/><stop offset="0.153846" stop-color="#04519B"/><stop offset="0.192308" stop-color="#05529C"/><stop offset="0.230769" stop-color="#06549D"/><stop offset="0.269231" stop-color="#07569E"/><stop offset="0.307692" stop-color="#08579F"/><stop offset="0.346154" stop-color="#0958A0"/><stop offset="0.384615" stop-color="#0A5AA1"/><stop offset="0.423077" stop-color="#0A5BA2"/><stop offset="0.461538" stop-color="#0B5CA3"/><stop offset="0.5" stop-color="#0C5DA4"/><stop offset="0.538462" stop-color="#0D5EA5"/><stop offset="0.576923" stop-color="#0D5FA6"/><stop offset="0.615385" stop-color="#0E60A6"/><stop offset="0.653846" stop-color="#0E61A7"/><stop offset="0.692308" stop-color="#0F62A7"/><stop offset="0.730769" stop-color="#0F62A8"/><stop offset="0.769231" stop-color="#0F63A8"/><stop offset="0.807692" stop-color="#1063A9"/><stop offset="0.846154" stop-color="#1064A9"/><stop offset="0.884615" stop-color="#1064A9"/><stop offset="0.923077" stop-color="#1064A9"/><stop offset="0.961538" stop-color="#1064A9"/><stop offset="1" stop-color="#1165AA"/></linearGradient><linearGradient x1="538.5" y1="462" x2="538.5" y2="498" gradientUnits="userSpaceOnUse" spreadMethod="reflect" id="fill11"><stop offset="0" stop-color="#004A96"/><stop offset="0.0384615" stop-color="#014B97"/><stop offset="0.0769231" stop-color="#024D98"/><stop offset="0.115385" stop-color="#034F9A"/><stop offset="0.153846" stop-color="#04519B"/><stop offset="0.192308" stop-color="#05529C"/><stop offset="0.230769" stop-color="#06549D"/><stop offset="0.269231" stop-color="#07569E"/><stop offset="0.307692" stop-color="#08579F"/><stop offset="0.346154" stop-color="#0958A0"/><stop offset="0.384615" stop-color="#0A5AA1"/><stop offset="0.423077" stop-color="#0A5BA2"/><stop offset="0.461538" stop-color="#0B5CA3"/><stop offset="0.5" stop-color="#0C5DA4"/><stop offset="0.538462" stop-color="#0D5EA5"/><stop offset="0.576923" stop-color="#0D5FA6"/><stop offset="0.615385" stop-color="#0E60A6"/><stop offset="0.653846" stop-color="#0E61A7"/><stop offset="0.692308" stop-color="#0F62A7"/><stop offset="0.730769" stop-color="#0F62A8"/><stop offset="0.769231" stop-color="#0F63A8"/><stop offset="0.807692" stop-color="#1063A9"/><stop offset="0.846154" stop-color="#1064A9"/><stop offset="0.884615" stop-color="#1064A9"/><stop offset="0.923077" stop-color="#1064A9"/><stop offset="0.961538" stop-color="#1064A9"/><stop offset="1" stop-color="#1165AA"/></linearGradient><linearGradient x1="577.5" y1="506" x2="577.5" y2="542" gradientUnits="userSpaceOnUse" spreadMethod="reflect" id="fill12"><stop offset="0" stop-color="#004A96"/><stop offset="0.0384615" stop-color="#014B97"/><stop offset="0.0769231" stop-color="#024D98"/><stop offset="0.115385" stop-color="#034F9A"/><stop offset="0.153846" stop-color="#04519B"/><stop offset="0.192308" stop-color="#05529C"/><stop offset="0.230769" stop-color="#06549D"/><stop offset="0.269231" stop-color="#07569E"/><stop offset="0.307692" stop-color="#08579F"/><stop offset="0.346154" stop-color="#0958A0"/><stop offset="0.384615" stop-color="#0A5AA1"/><stop offset="0.423077" stop-color="#0A5BA2"/><stop offset="0.461538" stop-color="#0B5CA3"/><stop offset="0.5" stop-color="#0C5DA4"/><stop offset="0.538462" stop-color="#0D5EA5"/><stop offset="0.576923" stop-color="#0D5FA6"/><stop offset="0.615385" stop-color="#0E60A6"/><stop offset="0.653846" stop-color="#0E61A7"/><stop offset="0.692308" stop-color="#0F62A7"/><stop offset="0.730769" stop-color="#0F62A8"/><stop offset="0.769231" stop-color="#0F63A8"/><stop offset="0.807692" stop-color="#1063A9"/><stop offset="0.846154" stop-color="#1064A9"/><stop offset="0.884615" stop-color="#1064A9"/><stop offset="0.923077" stop-color="#1064A9"/><stop offset="0.961538" stop-color="#1064A9"/><stop offset="1" stop-color="#1165AA"/></linearGradient><linearGradient x1="645" y1="256" x2="645" y2="292" gradientUnits="userSpaceOnUse" spreadMethod="reflect" id="fill13"><stop offset="0" stop-color="#004A96"/><stop offset="0.0384615" stop-color="#014B97"/><stop offset="0.0769231" stop-color="#024D98"/><stop offset="0.115385" stop-color="#034F9A"/><stop offset="0.153846" stop-color="#04519B"/><stop offset="0.192308" stop-color="#05529C"/><stop offset="0.230769" stop-color="#06549D"/><stop offset="0.269231" stop-color="#07569E"/><stop offset="0.307692" stop-color="#08579F"/><stop offset="0.346154" stop-color="#0958A0"/><stop offset="0.384615" stop-color="#0A5AA1"/><stop offset="0.423077" stop-color="#0A5BA2"/><stop offset="0.461538" stop-color="#0B5CA3"/><stop offset="0.5" stop-color="#0C5DA4"/><stop offset="0.538462" stop-color="#0D5EA5"/><stop offset="0.576923" stop-color="#0D5FA6"/><stop offset="0.615385" stop-color="#0E60A6"/><stop offset="0.653846" stop-color="#0E61A7"/><stop offset="0.692308" stop-color="#0F62A7"/><stop offset="0.730769" stop-color="#0F62A8"/><stop offset="0.769231" stop-color="#0F63A8"/><stop offset="0.807692" stop-color="#1063A9"/><stop offset="0.846154" stop-color="#1064A9"/><stop offset="0.884615" stop-color="#1064A9"/><stop offset="0.923077" stop-color="#1064A9"/><stop offset="0.961538" stop-color="#1064A9"/><stop offset="1" stop-color="#1165AA"/></linearGradient><linearGradient x1="683.5" y1="300" x2="683.5" y2="336" gradientUnits="userSpaceOnUse" spreadMethod="reflect" id="fill14"><stop offset="0" stop-color="#004A96"/><stop offset="0.0384615" stop-color="#014B97"/><stop offset="0.0769231" stop-color="#024D98"/><stop offset="0.115385" stop-color="#034F9A"/><stop offset="0.153846" stop-color="#04519B"/><stop offset="0.192308" stop-color="#05529C"/><stop offset="0.230769" stop-color="#06549D"/><stop offset="0.269231" stop-color="#07569E"/><stop offset="0.307692" stop-color="#08579F"/><stop offset="0.346154" stop-color="#0958A0"/><stop offset="0.384615" stop-color="#0A5AA1"/><stop offset="0.423077" stop-color="#0A5BA2"/><stop offset="0.461538" stop-color="#0B5CA3"/><stop offset="0.5" stop-color="#0C5DA4"/><stop offset="0.538462" stop-color="#0D5EA5"/><stop offset="0.576923" stop-color="#0D5FA6"/><stop offset="0.615385" stop-color="#0E60A6"/><stop offset="0.653846" stop-color="#0E61A7"/><stop offset="0.692308" stop-color="#0F62A7"/><stop offset="0.730769" stop-color="#0F62A8"/><stop offset="0.769231" stop-color="#0F63A8"/><stop offset="0.807692" stop-color="#1063A9"/><stop offset="0.846154" stop-color="#1064A9"/><stop offset="0.884615" stop-color="#1064A9"/><stop offset="0.923077" stop-color="#1064A9"/><stop offset="0.961538" stop-color="#1064A9"/><stop offset="1" stop-color="#1165AA"/></linearGradient><linearGradient x1="586" y1="255" x2="586" y2="291" gradientUnits="userSpaceOnUse" spreadMethod="reflect" id="fill15"><stop offset="0" stop-color="#004A96"/><stop offset="0.0384615" stop-color="#014B97"/><stop offset="0.0769231" stop-color="#024D98"/><stop offset="0.115385" stop-color="#034F9A"/><stop offset="0.153846" stop-color="#04519B"/><stop offset="0.192308" stop-color="#05529C"/><stop offset="0.230769" stop-color="#06549D"/><stop offset="0.269231" stop-color="#07569E"/><stop offset="0.307692" stop-color="#08579F"/><stop offset="0.346154" stop-color="#0958A0"/><stop offset="0.384615" stop-color="#0A5AA1"/><stop offset="0.423077" stop-color="#0A5BA2"/><stop offset="0.461538" stop-color="#0B5CA3"/><stop offset="0.5" stop-color="#0C5DA4"/><stop offset="0.538462" stop-color="#0D5EA5"/><stop offset="0.576923" stop-color="#0D5FA6"/><stop offset="0.615385" stop-color="#0E60A6"/><stop offset="0.653846" stop-color="#0E61A7"/><stop offset="0.692308" stop-color="#0F62A7"/><stop offset="0.730769" stop-color="#0F62A8"/><stop offset="0.769231" stop-color="#0F63A8"/><stop offset="0.807692" stop-color="#1063A9"/><stop offset="0.846154" stop-color="#1064A9"/><stop offset="0.884615" stop-color="#1064A9"/><stop offset="0.923077" stop-color="#1064A9"/><stop offset="0.961538" stop-color="#1064A9"/><stop offset="1" stop-color="#1165AA"/></linearGradient><linearGradient x1="912.359" y1="432.418" x2="911.641" y2="556.582" gradientUnits="userSpaceOnUse" spreadMethod="reflect" id="fill16"><stop offset="0" stop-color="#FAFAFA"/><stop offset="0.0416667" stop-color="#F9F9F9"/><stop offset="0.0833333" stop-color="#F9F9F9"/><stop offset="0.125" stop-color="#F9F9F9"/><stop offset="0.166667" stop-color="#F9F9F9"/><stop offset="0.208333" stop-color="#F8F9F9"/><stop offset="0.25" stop-color="#F8F8F9"/><stop offset="0.291667" stop-color="#F7F8F9"/><stop offset="0.333333" stop-color="#F6F8F9"/><stop offset="0.375" stop-color="#F6F7F9"/><stop offset="0.416667" stop-color="#F5F7F9"/><stop offset="0.458333" stop-color="#F4F6F9"/><stop offset="0.5" stop-color="#F3F5F9"/><stop offset="0.541667" stop-color="#F2F5F9"/><stop offset="0.583333" stop-color="#F0F4F9"/><stop offset="0.625" stop-color="#EFF3F9"/><stop offset="0.666667" stop-color="#EEF2F9"/><stop offset="0.708333" stop-color="#ECF2F8"/><stop offset="0.75" stop-color="#EBF1F8"/><stop offset="0.791667" stop-color="#E9F0F8"/><stop offset="0.833333" stop-color="#E8EFF8"/><stop offset="0.875" stop-color="#E6EEF8"/><stop offset="0.916667" stop-color="#E4EDF8"/><stop offset="0.958333" stop-color="#E2ECF8"/><stop offset="1" stop-color="#E1EBF8"/></linearGradient><linearGradient x1="908.356" y1="233.418" x2="907.644" y2="356.582" gradientUnits="userSpaceOnUse" spreadMethod="reflect" id="fill17"><stop offset="0" stop-color="#FAFAFA"/><stop offset="0.0416667" stop-color="#F9F9F9"/><stop offset="0.0833333" stop-color="#F9F9F9"/><stop offset="0.125" stop-color="#F9F9F9"/><stop offset="0.166667" stop-color="#F9F9F9"/><stop offset="0.208333" stop-color="#F8F9F9"/><stop offset="0.25" stop-color="#F8F8F9"/><stop offset="0.291667" stop-color="#F7F8F9"/><stop offset="0.333333" stop-color="#F6F8F9"/><stop offset="0.375" stop-color="#F6F7F9"/><stop offset="0.416667" stop-color="#F5F7F9"/><stop offset="0.458333" stop-color="#F4F6F9"/><stop offset="0.5" stop-color="#F3F5F9"/><stop offset="0.541667" stop-color="#F2F5F9"/><stop offset="0.583333" stop-color="#F0F4F9"/><stop offset="0.625" stop-color="#EFF3F9"/><stop offset="0.666667" stop-color="#EEF2F9"/><stop offset="0.708333" stop-color="#ECF2F8"/><stop offset="0.75" stop-color="#EBF1F8"/><stop offset="0.791667" stop-color="#E9F0F8"/><stop offset="0.833333" stop-color="#E8EFF8"/><stop offset="0.875" stop-color="#E6EEF8"/><stop offset="0.916667" stop-color="#E4EDF8"/><stop offset="0.958333" stop-color="#E2ECF8"/><stop offset="1" stop-color="#E1EBF8"/></linearGradient><linearGradient x1="830" y1="393" x2="816" y2="393" gradientUnits="userSpaceOnUse" spreadMethod="reflect" id="fill18"><stop offset="0" stop-color="#FAFAFA"/><stop offset="0.0416667" stop-color="#F9F9F9"/><stop offset="0.0833333" stop-color="#F9F9F9"/><stop offset="0.125" stop-color="#F9F9F9"/><stop offset="0.166667" stop-color="#F9F9F9"/><stop offset="0.208333" stop-color="#F8F9F9"/><stop offset="0.25" stop-color="#F8F8F9"/><stop offset="0.291667" stop-color="#F7F8F9"/><stop offset="0.333333" stop-color="#F6F8F9"/><stop offset="0.375" stop-color="#F6F7F9"/><stop offset="0.416667" stop-color="#F5F7F9"/><stop offset="0.458333" stop-color="#F4F6F9"/><stop offset="0.5" stop-color="#F3F5F9"/><stop offset="0.541667" stop-color="#F2F5F9"/><stop offset="0.583333" stop-color="#F0F4F9"/><stop offset="0.625" stop-color="#EFF3F9"/><stop offset="0.666667" stop-color="#EEF2F9"/><stop offset="0.708333" stop-color="#ECF2F8"/><stop offset="0.75" stop-color="#EBF1F8"/><stop offset="0.791667" stop-color="#E9F0F8"/><stop offset="0.833333" stop-color="#E8EFF8"/><stop offset="0.875" stop-color="#E6EEF8"/><stop offset="0.916667" stop-color="#E4EDF8"/><stop offset="0.958333" stop-color="#E2ECF8"/><stop offset="1" stop-color="#E1EBF8"/></linearGradient><linearGradient x1="990" y1="392" x2="1003" y2="392" gradientUnits="userSpaceOnUse" spreadMethod="reflect" id="fill19"><stop offset="0" stop-color="#FAFAFA"/><stop offset="0.0416667" stop-color="#F9F9F9"/><stop offset="0.0833333" stop-color="#F9F9F9"/><stop offset="0.125" stop-color="#F9F9F9"/><stop offset="0.166667" stop-color="#F9F9F9"/><stop offset="0.208333" stop-color="#F8F9F9"/><stop offset="0.25" stop-color="#F8F8F9"/><stop offset="0.291667" stop-color="#F7F8F9"/><stop offset="0.333333" stop-color="#F6F8F9"/><stop offset="0.375" stop-color="#F6F7F9"/><stop offset="0.416667" stop-color="#F5F7F9"/><stop offset="0.458333" stop-color="#F4F6F9"/><stop offset="0.5" stop-color="#F3F5F9"/><stop offset="0.541667" stop-color="#F2F5F9"/><stop offset="0.583333" stop-color="#F0F4F9"/><stop offset="0.625" stop-color="#EFF3F9"/><stop offset="0.666667" stop-color="#EEF2F9"/><stop offset="0.708333" stop-color="#ECF2F8"/><stop offset="0.75" stop-color="#EBF1F8"/><stop offset="0.791667" stop-color="#E9F0F8"/><stop offset="0.833333" stop-color="#E8EFF8"/><stop offset="0.875" stop-color="#E6EEF8"/><stop offset="0.916667" stop-color="#E4EDF8"/><stop offset="0.958333" stop-color="#E2ECF8"/><stop offset="1" stop-color="#E1EBF8"/></linearGradient><linearGradient x1="419.814" y1="240.791" x2="419.186" y2="349.209" gradientUnits="userSpaceOnUse" spreadMethod="reflect" id="fill20"><stop offset="0" stop-color="#FAFAFA"/><stop offset="0.0416667" stop-color="#F9F9F9"/><stop offset="0.0833333" stop-color="#F9F9F9"/><stop offset="0.125" stop-color="#F9F9F9"/><stop offset="0.166667" stop-color="#F9F9F9"/><stop offset="0.208333" stop-color="#F8F9F9"/><stop offset="0.25" stop-color="#F8F8F9"/><stop offset="0.291667" stop-color="#F7F8F9"/><stop offset="0.333333" stop-color="#F6F8F9"/><stop offset="0.375" stop-color="#F6F7F9"/><stop offset="0.416667" stop-color="#F5F7F9"/><stop offset="0.458333" stop-color="#F4F6F9"/><stop offset="0.5" stop-color="#F3F5F9"/><stop offset="0.541667" stop-color="#F2F5F9"/><stop offset="0.583333" stop-color="#F0F4F9"/><stop offset="0.625" stop-color="#EFF3F9"/><stop offset="0.666667" stop-color="#EEF2F9"/><stop offset="0.708333" stop-color="#ECF2F8"/><stop offset="0.75" stop-color="#EBF1F8"/><stop offset="0.791667" stop-color="#E9F0F8"/><stop offset="0.833333" stop-color="#E8EFF8"/><stop offset="0.875" stop-color="#E6EEF8"/><stop offset="0.916667" stop-color="#E4EDF8"/><stop offset="0.958333" stop-color="#E2ECF8"/><stop offset="1" stop-color="#E1EBF8"/></linearGradient><linearGradient x1="498.811" y1="241.785" x2="498.189" y2="349.215" gradientUnits="userSpaceOnUse" spreadMethod="reflect" id="fill21"><stop offset="0" stop-color="#FAFAFA"/><stop offset="0.0416667" stop-color="#F9F9F9"/><stop offset="0.0833333" stop-color="#F9F9F9"/><stop offset="0.125" stop-color="#F9F9F9"/><stop offset="0.166667" stop-color="#F9F9F9"/><stop offset="0.208333" stop-color="#F8F9F9"/><stop offset="0.25" stop-color="#F8F8F9"/><stop offset="0.291667" stop-color="#F7F8F9"/><stop offset="0.333333" stop-color="#F6F8F9"/><stop offset="0.375" stop-color="#F6F7F9"/><stop offset="0.416667" stop-color="#F5F7F9"/><stop offset="0.458333" stop-color="#F4F6F9"/><stop offset="0.5" stop-color="#F3F5F9"/><stop offset="0.541667" stop-color="#F2F5F9"/><stop offset="0.583333" stop-color="#F0F4F9"/><stop offset="0.625" stop-color="#EFF3F9"/><stop offset="0.666667" stop-color="#EEF2F9"/><stop offset="0.708333" stop-color="#ECF2F8"/><stop offset="0.75" stop-color="#EBF1F8"/><stop offset="0.791667" stop-color="#E9F0F8"/><stop offset="0.833333" stop-color="#E8EFF8"/><stop offset="0.875" stop-color="#E6EEF8"/><stop offset="0.916667" stop-color="#E4EDF8"/><stop offset="0.958333" stop-color="#E2ECF8"/><stop offset="1" stop-color="#E1EBF8"/></linearGradient><clipPath id="clip22"><rect x="483" y="276" width="33" height="32"/></clipPath><clipPath id="clip23"><rect x="483" y="276" width="33" height="32"/></clipPath><clipPath id="clip24"><rect x="483" y="276" width="33" height="32"/></clipPath><linearGradient x1="362" y1="392" x2="376" y2="392" gradientUnits="userSpaceOnUse" spreadMethod="reflect" id="fill25"><stop offset="0" stop-color="#FAFAFA"/><stop offset="0.0416667" stop-color="#F9F9F9"/><stop offset="0.0833333" stop-color="#F9F9F9"/><stop offset="0.125" stop-color="#F9F9F9"/><stop offset="0.166667" stop-color="#F9F9F9"/><stop offset="0.208333" stop-color="#F8F9F9"/><stop offset="0.25" stop-color="#F8F8F9"/><stop offset="0.291667" stop-color="#F7F8F9"/><stop offset="0.333333" stop-color="#F6F8F9"/><stop offset="0.375" stop-color="#F6F7F9"/><stop offset="0.416667" stop-color="#F5F7F9"/><stop offset="0.458333" stop-color="#F4F6F9"/><stop offset="0.5" stop-color="#F3F5F9"/><stop offset="0.541667" stop-color="#F2F5F9"/><stop offset="0.583333" stop-color="#F0F4F9"/><stop offset="0.625" stop-color="#EFF3F9"/><stop offset="0.666667" stop-color="#EEF2F9"/><stop offset="0.708333" stop-color="#ECF2F8"/><stop offset="0.75" stop-color="#EBF1F8"/><stop offset="0.791667" stop-color="#E9F0F8"/><stop offset="0.833333" stop-color="#E8EFF8"/><stop offset="0.875" stop-color="#E6EEF8"/><stop offset="0.916667" stop-color="#E4EDF8"/><stop offset="0.958333" stop-color="#E2ECF8"/><stop offset="1" stop-color="#E1EBF8"/></linearGradient></defs><g clip-path="url(#clip0)"><rect x="0" y="0" width="1280" height="720" fill="#FFFFFF"/><text font-family="Arial,Arial_MSFontService,sans-serif" font-weight="400" font-size="13" transform="translate(617.917 712)">Internal</text><rect x="292" y="227" width="728" height="337" fill="#BFBFBF"/><path d="M723 260.364C723 257.402 725.402 255 728.364 255L749.636 255C752.598 255 755 257.402 755 260.364L755 285.636C755 288.598 752.598 291 749.636 291L728.364 291C725.402 291 723 288.598 723 285.636Z" fill="url(#fill1)" fill-rule="evenodd"/><path d="M762 260.364C762 257.402 764.402 255 767.364 255L788.636 255C791.598 255 794 257.402 794 260.364L794 285.636C794 288.598 791.598 291 788.636 291L767.364 291C764.402 291 762 288.598 762 285.636Z" fill="#D5E6EB" fill-rule="evenodd"/><path d="M762 304.364C762 301.402 764.402 299 767.364 299L788.636 299C791.598 299 794 301.402 794 304.364L794 329.636C794 332.598 791.598 335 788.636 335L767.364 335C764.402 335 762 332.598 762 329.636Z" fill="url(#fill2)" fill-rule="evenodd"/><path d="M723 304.364C723 301.402 725.402 299 728.364 299L749.636 299C752.598 299 755 301.402 755 304.364L755 329.636C755 332.598 752.598 335 749.636 335L728.364 335C725.402 335 723 332.598 723 329.636Z" fill="#D5E6EB" fill-rule="evenodd"/><text fill="#FFFFFF" font-family="Arial,Arial_MSFontService,sans-serif" font-weight="400" font-size="20" transform="translate(727.952 280)">26<tspan x="38.9202" y="0">28</tspan><tspan x="0" y="44">25</tspan><tspan x="38.9202" y="44">27</tspan></text><path d="M300 444.552C300 438.172 305.172 433 311.552 433L379.448 433C385.828 433 391 438.172 391 444.552L391 544.448C391 550.828 385.828 556 379.448 556L311.552 556C305.172 556 300 550.828 300 544.448Z" fill="url(#fill3)" fill-rule="evenodd"/><text fill="#004A96" font-family="Arial,Arial_MSFontService,sans-serif" font-weight="400" font-size="16" transform="translate(322.992 480)">Raum<tspan x="9.91333" y="19">der</tspan><tspan x="3.91333" y="39">Stille</tspan></text><path d="M464 469.532C464 466.477 466.477 464 469.532 464L491.468 464C494.523 464 497 466.477 497 469.532L497 494.468C497 497.523 494.523 500 491.468 500L469.532 500C466.477 500 464 497.523 464 494.468Z" fill="#D5E6EB" fill-rule="evenodd"/><path d="M464 513.532C464 510.477 466.477 508 469.532 508L491.468 508C494.523 508 497 510.477 497 513.532L497 538.468C497 541.523 494.523 544 491.468 544L469.532 544C466.477 544 464 541.523 464 538.468Z" fill="url(#fill4)" fill-rule="evenodd"/><path d="M426 513.364C426 510.402 428.402 508 431.364 508L452.636 508C455.598 508 458 510.402 458 513.364L458 538.636C458 541.598 455.598 544 452.636 544L431.364 544C428.402 544 426 541.598 426 538.636Z" fill="#D5E6EB" fill-rule="evenodd"/><text fill="#FFFFFF" font-family="Arial,Arial_MSFontService,sans-serif" font-weight="400" font-size="20" transform="translate(475.088 489)">2<tspan x="-38.9202" y="44">1</tspan><tspan x="0" y="44">3</tspan></text><path d="M628 425.532C628 422.477 630.477 420 633.532 420L655.468 420C658.523 420 661 422.477 661 425.532L661 450.468C661 453.523 658.523 456 655.468 456L633.532 456C630.477 456 628 453.523 628 450.468Z" fill="url(#fill5)" fill-rule="evenodd"/><path d="M667 425.532C667 422.477 669.477 420 672.532 420L694.468 420C697.523 420 700 422.477 700 425.532L700 450.468C700 453.523 697.523 456 694.468 456L672.532 456C669.477 456 667 453.523 667 450.468Z" fill="#D5E6EB" fill-rule="evenodd"/><path d="M667 469.532C667 466.477 669.477 464 672.532 464L694.468 464C697.523 464 700 466.477 700 469.532L700 494.468C700 497.523 697.523 500 694.468 500L672.532 500C669.477 500 667 497.523 667 494.468Z" fill="url(#fill6)" fill-rule="evenodd"/><path d="M628 469.532C628 466.477 630.477 464 633.532 464L655.468 464C658.523 464 661 466.477 661 469.532L661 494.468C661 497.523 658.523 500 655.468 500L633.532 500C630.477 500 628 497.523 628 494.468Z" fill="#D5E6EB" fill-rule="evenodd"/><text fill="#FFFFFF" font-family="Arial,Arial_MSFontService,sans-serif" font-weight="400" font-size="20" transform="translate(639.078 445)">8<tspan x="34.1536" y="0">11</tspan><tspan x="0" y="44">9</tspan><tspan x="33.4203" y="44">12</tspan></text><path d="M631 516.364C631 513.402 633.402 511 636.364 511L657.636 511C660.598 511 663 513.402 663 516.364L663 541.636C663 544.598 660.598 547 657.636 547L636.364 547C633.402 547 631 544.598 631 541.636Z" fill="url(#fill7)" fill-rule="evenodd"/><path d="M670 516.364C670 513.402 672.402 511 675.364 511L696.636 511C699.598 511 702 513.402 702 516.364L702 541.636C702 544.598 699.598 547 696.636 547L675.364 547C672.402 547 670 544.598 670 541.636Z" fill="#D5E6EB" fill-rule="evenodd"/><text fill="#FFFFFF" font-family="Arial,Arial_MSFontService,sans-serif" font-weight="400" font-size="20" transform="translate(636.047 536)">10<tspan x="38.9202" y="0">13</tspan></text><path d="M721 424.532C721 421.477 723.477 419 726.532 419L748.468 419C751.523 419 754 421.477 754 424.532L754 449.468C754 452.523 751.523 455 748.468 455L726.532 455C723.477 455 721 452.523 721 449.468Z" fill="url(#fill8)" fill-rule="evenodd"/><path d="M760 424.532C760 421.477 762.477 419 765.532 419L787.468 419C790.523 419 793 421.477 793 424.532L793 449.468C793 452.523 790.523 455 787.468 455L765.532 455C762.477 455 760 452.523 760 449.468Z" fill="#D5E6EB" fill-rule="evenodd"/><path d="M760 468.532C760 465.477 762.477 463 765.532 463L787.468 463C790.523 463 793 465.477 793 468.532L793 493.468C793 496.523 790.523 499 787.468 499L765.532 499C762.477 499 760 496.523 760 493.468Z" fill="url(#fill9)" fill-rule="evenodd"/><path d="M721 468.532C721 465.477 723.477 463 726.532 463L748.468 463C751.523 463 754 465.477 754 468.532L754 493.468C754 496.523 751.523 499 748.468 499L726.532 499C723.477 499 721 496.523 721 493.468Z" fill="#D5E6EB" fill-rule="evenodd"/><text fill="#FFFFFF" font-family="Arial,Arial_MSFontService,sans-serif" font-weight="400" font-size="20" transform="translate(726.497 444)">14<tspan x="38.9203" y="0">17</tspan><tspan x="0" y="44">15</tspan><tspan x="38.9203" y="44">18</tspan></text><path d="M724 515.364C724 512.402 726.402 510 729.364 510L750.636 510C753.598 510 756 512.402 756 515.364L756 540.636C756 543.598 753.598 546 750.636 546L729.364 546C726.402 546 724 543.598 724 540.636Z" fill="url(#fill10)" fill-rule="evenodd"/><path d="M763 515.364C763 512.402 765.402 510 768.364 510L789.636 510C792.598 510 795 512.402 795 515.364L795 540.636C795 543.598 792.598 546 789.636 546L768.364 546C765.402 546 763 543.598 763 540.636Z" fill="#D5E6EB" fill-rule="evenodd"/><text fill="#FFFFFF" font-family="Arial,Arial_MSFontService,sans-serif" font-weight="400" font-size="20" transform="translate(728.966 535)">16<tspan x="38.9202" y="0">19</tspan></text><path d="M522 467.532C522 464.477 524.477 462 527.532 462L549.468 462C552.523 462 555 464.477 555 467.532L555 492.468C555 495.523 552.523 498 549.468 498L527.532 498C524.477 498 522 495.523 522 492.468Z" fill="url(#fill11)" fill-rule="evenodd"/><path d="M561 467.532C561 464.477 563.477 462 566.532 462L588.468 462C591.523 462 594 464.477 594 467.532L594 492.468C594 495.523 591.523 498 588.468 498L566.532 498C563.477 498 561 495.523 561 492.468Z" fill="#D5E6EB" fill-rule="evenodd"/><path d="M561 511.532C561 508.477 563.477 506 566.532 506L588.468 506C591.523 506 594 508.477 594 511.532L594 536.468C594 539.523 591.523 542 588.468 542L566.532 542C563.477 542 561 539.523 561 536.468Z" fill="url(#fill12)" fill-rule="evenodd"/><path d="M522 511.532C522 508.477 524.477 506 527.532 506L549.468 506C552.523 506 555 508.477 555 511.532L555 536.468C555 539.523 552.523 542 549.468 542L527.532 542C524.477 542 522 539.523 522 536.468Z" fill="#D5E6EB" fill-rule="evenodd"/><text fill="#FFFFFF" font-family="Arial,Arial_MSFontService,sans-serif" font-weight="400" font-size="20" transform="translate(532.983 488)">4<tspan x="38.9202" y="0">6</tspan><tspan x="0" y="43">5</tspan><tspan x="38.9202" y="43">7</tspan></text><path d="M629 261.364C629 258.402 631.402 256 634.364 256L655.636 256C658.598 256 661 258.402 661 261.364L661 286.636C661 289.598 658.598 292 655.636 292L634.364 292C631.402 292 629 289.598 629 286.636Z" fill="url(#fill13)" fill-rule="evenodd"/><path d="M667 261.532C667 258.477 669.477 256 672.532 256L694.468 256C697.523 256 700 258.477 700 261.532L700 286.468C700 289.523 697.523 292 694.468 292L672.532 292C669.477 292 667 289.523 667 286.468Z" fill="#D5E6EB" fill-rule="evenodd"/><path d="M667 305.532C667 302.477 669.477 300 672.532 300L694.468 300C697.523 300 700 302.477 700 305.532L700 330.468C700 333.523 697.523 336 694.468 336L672.532 336C669.477 336 667 333.523 667 330.468Z" fill="url(#fill14)" fill-rule="evenodd"/><path d="M629 305.364C629 302.402 631.402 300 634.364 300L655.636 300C658.598 300 661 302.402 661 305.364L661 330.636C661 333.598 658.598 336 655.636 336L634.364 336C631.402 336 629 333.598 629 330.636Z" fill="#D5E6EB" fill-rule="evenodd"/><text fill="#FFFFFF" font-family="Arial,Arial_MSFontService,sans-serif" font-weight="400" font-size="20" transform="translate(633.611 281)">22<tspan x="38.9202" y="0">24</tspan><tspan x="0" y="44">21</tspan><tspan x="38.9202" y="44">23</tspan></text><path d="M570 260.364C570 257.402 572.402 255 575.364 255L596.636 255C599.598 255 602 257.402 602 260.364L602 285.636C602 288.598 599.598 291 596.636 291L575.364 291C572.402 291 570 288.598 570 285.636Z" fill="url(#fill15)" fill-rule="evenodd"/><text fill="#FFFFFF" font-family="Arial,Arial_MSFontService,sans-serif" font-weight="400" font-size="20" transform="translate(575.124 280)">20<tspan fill="#004A96" font-weight="900" font-size="27" x="106.153" y="105">5N</tspan></text><path d="M811 443.589C811 437.741 815.741 433 821.589 433L1002.41 433C1008.26 433 1013 437.741 1013 443.589L1013 545.411C1013 551.259 1008.26 556 1002.41 556L821.589 556C815.741 556 811 551.259 811 545.411Z" fill="url(#fill16)" fill-rule="evenodd"/><text fill="#004A96" font-family="Arial,Arial_MSFontService,sans-serif" font-weight="400" font-size="16" transform="translate(898.023 501)">5-<tspan x="14.3334" y="0">7</tspan></text><path d="M807 244.503C807 238.702 811.702 234 817.503 234L998.497 234C1004.3 234 1009 238.702 1009 244.503L1009 345.497C1009 351.298 1004.3 356 998.497 356L817.503 356C811.702 356 807 351.298 807 345.497Z" fill="url(#fill17)" fill-rule="evenodd"/><text fill="#004A96" font-family="Arial,Arial_MSFontService,sans-serif" font-weight="400" font-size="16" transform="translate(898.023 306)">5-<tspan x="14.3334" y="0">6</tspan></text><path d="M807 366.307C807 364.48 808.48 363 810.307 363L1009.69 363C1011.52 363 1013 364.48 1013 366.307L1013 420.693C1013 422.52 1011.52 424 1009.69 424L810.307 424C808.48 424 807 422.52 807 420.693Z" fill="#A0A0A0" fill-rule="evenodd"/><path d="M812 372.368C812 369.403 814.403 367 817.368 367L828.632 367C831.597 367 834 369.403 834 372.368L834 412.632C834 415.597 831.597 418 828.632 418L817.368 418C814.403 418 812 415.597 812 412.632Z" fill="#D5E6EB" fill-rule="evenodd"/><path d="M816 393 830 386 830 400Z" fill="url(#fill18)" fill-rule="evenodd"/><path d="M1008 412.388C1008 415.487 1005.49 418 1002.39 418L990.612 418C987.513 418 985 415.487 985 412.388L985 372.612C985 369.513 987.513 367 990.612 367L1002.39 367C1005.49 367 1008 369.513 1008 372.612Z" fill="#D5E6EB" fill-rule="evenodd"/><path d="M1003 392 990 399 990 385Z" fill="url(#fill19)" fill-rule="evenodd"/><path d="M300 242.973C300 239.122 303.122 236 306.973 236L536.027 236C539.878 236 543 239.122 543 242.973L543 347.027C543 350.878 539.878 354 536.027 354L306.973 354C303.122 354 300 350.878 300 347.027Z" fill="#A0A0A0" fill-rule="evenodd"/><path d="M383 250.267C383 245.149 387.149 241 392.267 241L446.733 241C451.851 241 456 245.149 456 250.267L456 339.733C456 344.851 451.851 349 446.733 349L392.267 349C387.149 349 383 344.851 383 339.733Z" fill="url(#fill20)" fill-rule="evenodd"/><text fill="#004A96" font-family="Arial,Arial_MSFontService,sans-serif" font-weight="400" font-size="16" transform="translate(406.839 300)">WC</text><path d="M461 251.52C461 246.262 465.262 242 470.52 242L526.479 242C531.738 242 536 246.262 536 251.52L536 339.48C536 344.738 531.738 349 526.479 349L470.52 349C465.262 349 461 344.738 461 339.48Z" fill="url(#fill21)" fill-rule="evenodd"/><g clip-path="url(#clip22)"><g clip-path="url(#clip23)"><g clip-path="url(#clip24)"><path d="M26.4 19.7333C26.4 17 24.2667 14.8 21.5667 14.6667L21.5667 12.6667 5.56667 12.6667 5.56667 28C5.56667 28.7333 6.16667 29.3333 6.9 29.3333L20.2333 29.3333C20.9667 29.3333 21.5667 28.7333 21.5667 28L21.5667 24.8333C24.2667 24.7 26.4 22.4667 26.4 19.7333ZM21.6 22.8333 21.6 16.6667C23.2 16.8 24.4333 18.1333 24.4333 19.7333 24.4333 21.3333 23.1667 22.7 21.6 22.8333Z" fill="#0070C0" transform="matrix(1.03125 0 -0 1 483 276)"/><path d="M12.9667 6.16667C13.1667 6.36667 13.2667 6.6 13.2667 6.86667 13.2667 7.13333 13.1667 7.4 12.9667 7.56667 12.7 7.83333 12.7 8.23333 12.9667 8.5 13.1 8.63333 13.2667 8.7 13.4333 8.7 13.6 8.7 13.7667 8.63333 13.9 8.5 14.3333 8.06667 14.6 7.46667 14.6 6.83333 14.6 6.2 14.3667 5.63333 13.9 5.2 13.9 5.2 13.9 5.2 13.9 5.2 13.5 4.8 13.5 4.16667 13.9 3.8 14.1667 3.53333 14.1667 3.13333 13.9 2.86667 13.6333 2.6 13.2333 2.6 12.9667 2.86667 12.0333 3.76667 12.0333 5.26667 12.9667 6.16667 12.9667 6.16667 12.9667 6.16667 12.9667 6.16667Z" fill="#0070C0" transform="matrix(1.03125 0 -0 1 483 276)"/><path d="M16.6 8.1C17 8.5 17 9.13333 16.6 9.5 16.3333 9.76667 16.3333 10.1667 16.6 10.4333 16.7333 10.5667 16.9 10.6333 17.0667 10.6333 17.2333 10.6333 17.4 10.5667 17.5333 10.4333 18.4333 9.53333 18.4333 8.03333 17.5333 7.13333 17.5333 7.13333 17.5333 7.13333 17.5333 7.13333 17.3333 6.93333 17.2333 6.7 17.2333 6.43333 17.2333 6.16667 17.3333 5.9 17.5333 5.73333 17.8 5.46667 17.8 5.06667 17.5333 4.8 17.2667 4.53333 16.8667 4.53333 16.6 4.8 16.1667 5.23333 15.9 5.83333 15.9 6.46667 15.9333 7.1 16.1667 7.66667 16.6 8.1 16.6 8.1 16.6 8.1 16.6 8.1Z" fill="#0070C0" transform="matrix(1.03125 0 -0 1 483 276)"/><path d="M9.63333 8.1C9.83333 8.3 9.93333 8.53333 9.93333 8.8 9.93333 9.06667 9.83333 9.33333 9.63333 9.5 9.36667 9.76667 9.36667 10.1667 9.63333 10.4333 9.76667 10.5667 9.93333 10.6333 10.1 10.6333 10.2667 10.6333 10.4333 10.5667 10.5667 10.4333 11 10 11.2667 9.4 11.2667 8.76667 11.2667 8.13333 11.0333 7.56667 10.5667 7.1L10.5667 7.1C10.1667 6.7 10.1667 6.06667 10.5667 5.7 10.8333 5.43333 10.8333 5.03333 10.5667 4.76667 10.3 4.5 9.9 4.5 9.63333 4.76667 8.7 5.73333 8.7 7.2 9.63333 8.1 9.63333 8.1 9.63333 8.1 9.63333 8.1Z" fill="#0070C0" transform="matrix(1.03125 0 -0 1 483 276)"/></g></g></g><path d="M300 365.253C300 363.456 301.456 362 303.253 362L381.747 362C383.544 362 385 363.456 385 365.253L385 418.747C385 420.544 383.544 422 381.747 422L303.253 422C301.456 422 300 420.544 300 418.747Z" fill="#A0A0A0" fill-rule="evenodd"/><path d="M380 411.632C380 414.597 377.597 417 374.632 417L363.368 417C360.403 417 358 414.597 358 411.632L358 371.368C358 368.403 360.403 366 363.368 366L374.632 366C377.597 366 380 368.403 380 371.368Z" fill="#D5E6EB" fill-rule="evenodd"/><path d="M376 392 362 399 362 385Z" fill="url(#fill25)" fill-rule="evenodd"/><text fill="#5E5E5E" font-family="Arial,Arial_MSFontService,sans-serif" font-weight="400" font-size="16" transform="translate(557.349 562)">Rotherstraße</text></g></svg>