<?xml version="1.0" encoding="UTF-8"?><svg id="Layer_1" xmlns="http://www.w3.org/2000/svg" viewBox="0 0 190.87 156.22">
    <defs>
        <style>
            .cls-1 {
                stroke: #adadad;
                stroke-width: .1px;
            }

            .cls-1,
            .cls-2 {
                fill: none;
            }

            .cls-3 {
                fill: #f0f0f0;
            }

            .cls-2 {
                stroke: #64c8fa;
                stroke-width: .2px;
            }

            . seat {
                fill: #505050;
                fill-rule: evenodd;
            }
        </style>
    </defs>
    <path class="cls-3"
        d="M113.05,51h1.04v-5.16h-6.78v.21h-2.79v14.56h9.59v-7.09h-1.06m1.47-2.52h1.05v2.52h-1.03v7.09h9.56v-14.56h-2.79v-.21h-6.5v.21h-.29v.24m19.59,0v-.24h-2.8v-.21h-6.78v14.77h9.58v-7.29m8.94-2.32h2.1v-4.95h-3.37v-.21h-7.24v7.27h8.51m2.1,.41h-2.05s-.05,0-.05,0h-8.51v7.08h10.85v-6.74h-.24m-60.62-2.87h1.04v2.52h-1.03v7.09h19.55v-14.56h-12.74v-.21h-6.5v.21h-.32m-31.48,4.96h2.52v2.51h0v2.56h12.85v-3.29h.21v-6.75h-15.82l-.26,1.24-.25,1.24-.22,1.24-.21,1.25h1.18m2.1,2.52h-2.1v-2.26h-1.22l-.12,.8-.11,.81-.19,1.53-.16,1.54-.13,1.54-.1,1.55-.08,1.54-.06,1.55-.02,1.54v1.55h0s0,1.93,0,1.93v1.93h17.57v-5.78h.21v-6.5h-.21v-.33h-13.27m-2.1,24.54h2.52v1.07h12.85v-5.78h.21v-6.5h-.21v-.33h-17.57l.02,3.15,.04,3.15,.07,3.16,.09,3.15h1.98m2.52,.39v1.06h-2.52v-1.06h-1.97l.13,3.15,.14,3.16,.17,3.15,.2,3.15h16.7v-.34h.21v-6.5h-.21v-5.77m-15.28,28.55h2.46v2.52h-2.02l.22,1.03,.23,1.03,.26,1.02,.27,1.02,.29,1.01h13.57v-16.15h.21v-6.65h-.21v-.38h-16.68l.25,3.43,.27,3.43,.3,3.42,.33,3.42h0s.12,.93,.12,.93m31.53-6.02v4.45h1.03v6.01h-1.03v4.04h.49v.23h6.5v-.23h23.58v-4.04h-2.06v-6.01h2.06v-4.45m.46,6.92v7.61h.3v.22h6.5v-.22h2.81v-14.53h-9.61v6.92m10-6.92v14.75h6.8v-.22h2.84v-14.53h-5m12.84,6.92h2.1v-.32h.21v-6.6h-9.79v6.92h7.48m2.1,2.52h-2.1v-2.09h-7.48v7.18h.34v.22h6.16v-.22h3.08m29.19,17.66h-.17v-17.7h.17m-1.29-7.57h2.52v2.52h-2.52m0,27.48h2.52v2.52h-2.52m-30-2.52h2.52v2.52h-2.52m-30-2.52h2.52v2.52h-2.52m-30-2.52h2.52v2.52h-2.52m90-62.52h2.52v2.52h-2.52m-30-62.52h2.52v2.52h-2.52m-30-2.52h2.52v2.52h-2.52m-30-2.52h2.52v2.52h-2.52m104.2,87.48h2.58l-.31-3.2h0s-.63-4.94-.63-4.94h0s-.77-4.93-.77-4.93h0s-.9-4.9-.9-4.9h0s-1.04-4.88-1.04-4.88h0s-1.18-4.84-1.18-4.84h0s-1.33-4.8-1.33-4.8h0s-1.46-4.77-1.46-4.77h0s-1.59-4.72-1.59-4.72h0s-1.73-4.68-1.73-4.68h0s-1.86-4.62-1.86-4.62h0s-1.99-4.57-1.99-4.57h0s-1.58-3.36-1.58-3.36h0v1.73h-2.63v-2.52h2.25l-.16-.35h0s-2.25-4.45-2.25-4.45h0s-2.38-4.38-2.38-4.38h0s-2.5-4.31-2.5-4.31h0s-2.63-4.24-2.63-4.24h0s-2.72-4.17-2.72-4.17l-2.91-4.03-3.1-3.89-3.28-3.75-3.45-3.58-3.61-3.43-3.82-3.29-3.93-2.87-4.38-2.22-4.76-1.15-4.9-.29-4.78,.58-3.39,.65h1.54v2.63h-2.53V2.02l-.63,.12h-.01l-4.83,1.14h-.02l-4.78,1.34h-.01s-4.69,1.54-4.69,1.54h-.01l-4.75,1.62h-.01l-4.65,1.77h-.01l-4.58,1.92h-.02s-4.5,2.08-4.5,2.08h-.01s-4.45,2.25-4.45,2.25h-.01l-4.42,2.42-4.07,2.68-3.67,3.29-3.15,3.8-2.55,4.21-1.37,3.25h-.33v.38h-1.22v7.69h.22v2.1h28.74s1.05,0,1.05,0h.54v.21h6.5v-.21h15.96v.21h6.5v-.21h1v.21h6.5v-.21h3.5v.21h6.5v-.21h3.5v.21h6.97v-.21h3.79v8.24h-.18v6.5h.2v.45h-.02v5.76h-.21v6.5h.21v18.48h-.21v6.5h.21v.74h-15.15v4.82h15.15v.56h-.21v6.5h.21v8.36h-3.5v-.21h-6.16v.21h-3.54v-.21h-6.5v.21h-3.5v-.21h-6.5v.21h-24.34v-.23h-6.5v.23h-.52v8.3h-25l2.48,4.04,3.18,3.76,3.7,3.26,4.11,2.65,4.47,2.21,4.62,1.81,4.7,1.39h.02l4.88,1.21h.01l4.86,1.1h.01l4.88,1h.01l4.9,.89,4.92,.79h.01s4.94,.69,4.94,.69l4.78,.57,5.14,.57,5.19,.52,4.75,.44h0l4.76,.4,5.19,.38,4.77,.31,5.27,.3,4.88-.06,4.92-.57,4.87-1.06,4.53-1.76,4.08-2.7,3.42-3.51,2.58-4.1,1.8-4.65,1.4-4.76,.99-4.86,.57-4.92,.16-4.96-.25-4.64-.25,.02v.42h-2.52m-104.2-2.52h1.03v-12.3h-7.22v.1h-.86v6.77h-7.15v13.47h-14.29v5.31h0s.18,.06,.18,.06l.17,.08,.16,.1,.14,.13,.12,.14,.09,.16,.07,.18,.04,.18,.02,.19-.02,.19-.04,.18-.08,.18-.1,.17-.12,.14-.15,.13-.16,.1v.26h29.2v-13.4h-1.03m1.03-9.9h45.92v-4.82h-15.82v-.92h9.76v-5.2h-15.54v6.11h-15.52v-.99h-3.57v.9h-5.23m58.97-17.7h2.1v-4.68h-14.73v22.05h14.73v-.31h.21v-6.5h-.21v-8.04h-2.1m2.1-7.63v-2.81h.21v-6.74h-14.94v9.55m-46.31-22.37h-1.06v-2.52h-.01v-5.38h-14.19v.67h-.22v6.5h.22v4.01h-.22v6.5h.22v2.87h7v-.26h8.47v-5.09h-.21m-8.52,15.6v-10.25h-6.74v3.63h-.22v6.5h.22v11.94h-.22v6.5h.22v1.11h-.22v6.65h.22v2.64h6.73v-7.62h.01m21.01-31.61h48.97v-4.88h-61.25v4.88m19.41,32.45h4.21v-5.67h0v-.33h-4.21m-5.17-15.78v21.78h4.75v-6.88h4.63v-14.9m-19.49,21.01v-20.74h-11.91v20.67h.32v.33h11.59m20.02-31.09v25.42h0s3.68,.01,3.68,.01v-.33h5.68v-7.87h-2.99v-9.41h3v-7.82m11.5,9.35v-8.92h-4.6v-.43h-4.77v16.32h5.49v.88h-5.49v7.9h4.46v6.09h4.91m-32.48-21.79h11.08v-9.82h-11.08m-.52,.09h-20.23v9.56h20.23m1.79,22.37v-21.78h-8.82v20.79h4v.99" />
    <path class="cls-1"
        d="M130,99.75c-1.82,0-3.33,1.43-3.42,3.25m3.42,0h-3.42m0,.16v-.16m3.42,.16h-3.42m3.42,0v-.16m-45.92,20.2c-1.82,0-3.32,1.44-3.41,3.26m3.41,0h-3.41m0,.16v-.16m3.41,.16h-3.41m3.41,0v-.16m43.7-29.01c-.09-1.78-1.56-3.18-3.35-3.18m0,3.18h3.35m0,.17v-.17m-3.35,.17h3.35m-3.35,0v-.17m-12.34-5.26c0-1.79-1.4-3.26-3.19-3.35m0,3.35v-3.35m-.17,0h.17m-.17,3.35v-3.35m0,3.35h.17m-.96,2.56c-1.57,0-2.86,1.23-2.95,2.79m2.95,0h-2.95m0,.17v-.17m2.95,.17h-2.95m2.95,0v-.17m-10.37-2.59c-1.82,.09-3.25,1.59-3.25,3.41m3.25,0v-3.41m.17,0h-.17m.17,3.41v-3.41m0,3.41h-.17m5.24-3.41c-1.82,.09-3.25,1.59-3.25,3.41m3.25,0v-3.41m.17,0h-.17m.17,3.41v-3.41m0,3.41h-.17m-5.39-28.61c1.82-.09,3.25-1.59,3.25-3.41m-3.25,0v3.41m-.17,0h.17m-.17-3.41v3.41m0-3.41h.17m-12.41-20.29v2.96c1.66,0,3-1.33,3.01-2.99,0,0,0,0,0-.01m26.96,.04v2.96c1.66,0,3-1.34,3-3m7,.04v2.96c1.66,0,3-1.34,3-3m7,.04v2.6c1.46,0,2.64-1.18,2.64-2.64m-23.97,.04v2.96m-3.01-3c0,1.66,1.34,3,3,3,0,0,0,0,.01,0m31.5,17.73h-2.96c0,1.66,1.34,3,3,3m-.04-15.71h-2.93c0,1.66,1.34,3,3,3,0,0,0,0,.01,0m-.08,40.87h-2.96m3-3.01c-1.66,0-3,1.34-3,3,0,0,0,0,0,.01m2.96,12.61h-2.96m3-3c-1.66,0-3,1.34-3,3m-56.99,8.07v-2.94m3,3c0-1.66-1.34-3-3-3h0m30.83,2.97v-2.95m3.01,3c0-1.66-1.34-3-3-3,0,0,0,0-.01,0m10,2.95v-2.95m3.01,3c0-1.66-1.34-3-3-3,0,0,0,0-.01,0m10.04,2.95v-2.61m2.66,2.66c0-1.47-1.19-2.66-2.66-2.66h0M68.42,46.46h-2.96c0,1.66,1.34,3,3,3,0,0,0,0,.01,0m-.05,7.51h-2.96c0,1.66,1.34,3,3,3,0,0,0,0,.01,0m-.05,10h-2.96c0,1.66,1.34,3,3,3,0,0,0,0,.01,0m-.05,23.04h-3.26c0,1.82,1.47,3.3,3.29,3.31,0,0,.01,0,.02,0m-.05-4.74h-2.96m3.01-3.01c-1.66,0-3,1.33-3.01,2.99,0,0,0,.01,0,.02M13.42,39.56l2.19-.17m-2.2,2.57c1.32-.1,2.3-1.25,2.2-2.57,0,0,0,0,0,0m-1.79,4.93l2.16-.16c-.1-1.32-1.25-2.3-2.57-2.2,0,0,0,0,0,0m41.11,1.4h2.18c0-1.31-1.07-2.38-2.38-2.38h0m.2-2.38h2.18m-2.38,2.38c1.31,0,2.38-1.07,2.38-2.38h0m66.28,36.64c.09,.99,.92,1.74,1.91,1.74m0-1.74h-1.91m0-.16v.16m1.91-.16h-1.91m1.91,0v.16m-1.91,2.75c.09,.99,.92,1.74,1.91,1.74m0-1.74h-1.91m0-.17v.17m1.91-.17h-1.91m1.91,0v.17m-1.91,2.93c.09,.99,.92,1.74,1.91,1.74m0-1.74h-1.91m0-.17v.17m1.91-.17h-1.91m1.91,0v.17m-1.91-8.6c.09,.99,.92,1.74,1.91,1.74m0-1.74h-1.91m0-.17v.17m1.91-.17h-1.91m1.91,0v.17m.09-1.78c1.61,0,2.93-1.25,3.02-2.86m-3.02,0h3.02m0-.16v.16m-3.02-.16h3.02m-3.02,0v.16M13.81,117.93v-2.26c-1.44,0-2.61,1.17-2.61,2.61,0,0,0,0,0,.01m-2.61-.36v-2.26m2.61,2.62c0-1.44-1.16-2.61-2.6-2.62,0,0,0,0-.01,0M3.19,33.33H.05c0,1.75,1.42,3.17,3.17,3.17m3.3,29.86H3.38c0,1.75,1.42,3.17,3.17,3.17m1.45,13.37h-3.14c0,1.75,1.42,3.16,3.17,3.16m-3.16-36.21H1.73c0,1.75,1.42,3.17,3.17,3.17m70.68,48.31c-1.82,0-3.33,1.43-3.42,3.25m3.42,0h-3.42m0,.17v-.17m3.42,.17h-3.42m3.42,0v-.17m36.89-32.85c0-1.6-1.25-2.93-2.85-3.02m0,3.02v-3.02m-.17,0h.17m-.17,3.02v-3.02m0,3.02h.17m-32.57,23.44v2.65m2.65,0c0-1.46-1.19-2.65-2.65-2.65h0m5.35-.05v2.7m0-2.7c-1.49,0-2.7,1.21-2.7,2.7m.04,.14h-2.67m2.67-.09v.09m-.04-.09h.04m-.04-.05v.05m-2.63-.05h2.63m-2.63,.14v-.14m5.32,0v.14m-2.68-.14h2.68m-2.68,.05v-.05m.05,.05h-.05m.05,.09v-.09m2.63,.09h-2.63m2.74-.14h-.1v.14h-.05v.77h.15v-.03h-.01v.03h-.13v-.76h.05v-.15h.08v.03h.01v-.03m-5.45,0h-.1v.03h.01v-.03h.09v.15h.05v.76h-.14v-.03h-.01v.03h.15v-.77h-.05v-.14" />
    <path class="cls-1"
        d="M84.54,104.08h30.57m14.89-.46h-45.92m1.07,7.38h-.61m-.46,0h-1.03v2.52h1.03m.46,0h.61m.42,0v-2.52m0-60h-1.04m-.43,0h-.63m-.42,0v2.52h1.06m.43,0h1.03v-2.52m30,0h-1.05m-.43,0h-1.04v2.52h1.06m.43,0h1.03v-2.52m29.58,0h-2.1v2.11m.05,.41h2.05m.42,0v-2.52m-.42,30h-2.1v2.52h2.1m0,27.48h-2.1m0,.43v2.09h2.1m.42,0v-2.52m-30,0h-2.09m-.43,0v2.52m.43,0h1.63m.46,0v-2.52M55.57,51.01h-2.52m0,.26v2.26h2.1m.42,0v-2.51m0,30h-2.52v1.07m0,.39v1.06h2.52v-1.06m0-.39v-1.07m-2.37,30.01v.39m.38,2.13h2.02v-2.52h-2.4m117.57-60.02v2.52h2.63v-2.52h-2.63M115.58,1.83h-2.53v2.63h2.53V1.83m-31.5,125.09h-24.98v.42h25.41v-.72m-.43-23v7.38m.46,0v-2.05m0-.42v-4.45m-.46,9.44v9.69m.46-4.63v-4.04m0-.43v-.59m-.03,5.52h.52v-.46h-.49m31.03,.03v-5.09m-.46,0v.59m0,.43v4.04m.46-7.58v-6.92m-.46,0v4.45m0,.42v2.05h.46m-31.03-2.05h.61m.42-.42h-1.03m.61,.42v2.05m.42,0v-2.47m-.42,4.99v.59m.42,.43v-1.02m-.42,.59h-.61m0,.43h1.03m29.54-6.01h-2.06m.43,.42h1.63m-2.06-.42v2.47m.43,0v-2.05m-.43,4.57v1.02m.43-.43v-.59m-.43,1.02h2.06m0-.43h-1.63m-29.4,9.1h.43v-4.17m-.43,7.58v.3m.43-.3h-.43m31.79-7.58v-.43h-.3m30,.43v-5.52m-.42,0v5.09m-19.97-14.53v14.53m.39,0v-14.53m10,6.92v-6.92m0,7.35h7.48m0-.43h-7.48m-37.01-12.64v-21.78m-.43,0v21.78m9.81,0h-4.21m-.42,0h-.33v.43h5.42m-8.83-.43h-1.01m-.43,0h-.39v.43h1.83v-.43m-5.24,0h-1.02m-.43,.43h1.45v-.43m-1.02,0v-.99m-.43,.43v.99m.43-1.42h-4m0,.43h3.57m5.68-21.22h9.38m0-.42h-11.08m6.87,22.2v-6h-.06m-.36-.88v6.88m4.63-6.88h-4.63m.36,.36h4.27m-4.27,.16v-.16m0,.52h4.27m0-.36h-4.27m-6.81-25.66h.39v-.43m3.42,.43h7.27m-7.27-.43v.43m-3.42-.43h-21.66m.52,.52h20.23m.26,0v-.09m-20.49,9.65v-9.56m20.75,9.73v-9.82m-.52,.09v9.56m11.6-9.65v9.82m0,.42v14.9m0,.36v.16m.46,.68h.07m0-.49v-20.36m0-.1v-4.97m-39.62-21.14h-16.35m1.77,0v.42m-1.46,0h15.61m.43,.25v-.67m-.43,.42v.25h.43m-.43,72.36h-13.57m-.41,0c.04,.13,.08,.26,.12,.39h14.29m-.43-23.96h-16.7m.02,.39h16.68m0-13.39h-12.85m0,.39h12.85m-15.37-.39h-1.98m0,.39h1.97m15.37-13.39h-17.57m0,.39h17.57m0-13.39h-12.85m-.42,.39h13.27m-12.85-.39v-2.56m-.42,0v2.94m-1.06-10.64h.43m90.63,52.54h-14.73m0,.43h15.15v-.74h-.42v.31m.42-19.66v-5.63h-.42v2.81m0,.43v2.39m.42-12.8h-44.9m29.75,.43h14.73m0,9.55h-14.73m0,.43h14.73m-14.73,27.3v-.46h-.42v.46m.42-3.87v-.95m-.42,0v.95h.42m-45.57-54.12h-1.81m.43,.42h.63m.43,0h.32v-.42m-.74,7.89v7.51m.43-.42v-7.09m-.43,7.51h61.48m-21.49-.42h-9.56m-.43,0h-9.59m-.43,0h-19.55m61.03-9.61v-5.37m-.42,.42v4.95m-10.61,2.11v-7.06m0,7.48h8.56m-.05-.42h-8.51m-10.01,7.5v-14.56m-.43,0v14.56m-9.58-9.61v-4.95m-.43,0v4.95m-9.57,9.61v-14.56m-.43-.42v14.98m25.25,6.58v30.76m1.08,.42v-22.05m0-.43v-9.55m-1.08,31.61h-4.91m-.49-.07h-9.76v.92h15.82m-5.57-.85v-.33h-.49v.26m.49-3.61v-2.41m-.49,.82v1.59h.49m-4.88-1.95h-1.3m6.18-.46h-4.46m-.42,.82h4.39m-6.11-.82h-5.68v.33m-.07,.49h7.47m-7.4-.49h-.07v.49m-3.35-.49h-.26m0,.49h.26v-.49m-.79,.17v2.4h.46v-2.08m-.46,5.03v.65m.46,.43v-1.08h-.46m-19.49-20.86v7.31m0,.43v13.26m.86-.48v-20.79m-.86,21.27h-5.95m-.01,0h-.02v.85h.02m.01,0h6.81v-.9m-12.32,.05h-.03m-.01,0h-.09m0,.85h.09m.01,0h.03v-.85m-1.41,7.29h-6.73m0,.43h7.15v-.82m.54-27.9h11.91m7.89-.86h-20.23m13.2,.59h8.82m10.34-9.82h9.37m.39,0h1.32m.42,0h4.77m-6.9,0v4.97m0,.1v2.75m.39,.43v-8.25m-5.47,8.35h2.08m-2.08-.53v.53m2.08,0v7.99m.42,.46v-8.55h2.97m-.39-.43h-5.08m2.08,8.52h-2.5v.89h5.49m.42-.43h-2.99m2.57,.43v7.87m.42,.46v-8.76m1.72,8.3v-7.9m0-.88v-2.75m0-.1v-2.74m0-.1v-2.73m0-.1v-2.73m0-.1v-4.97m-.42,0v25.56m5.91-9.24h-.48m-.09,0h-4.92m0,.88h5.49v-.88m-.72-15.89h.15m.09,0h4.36m-4.6-.43v.43m-10.63-13.67v7.09m.43,0v-7.09m-31.07-2.52v-4.95m-.43-.42v5.37h.01m1.48,0v-4.95m-.43,0v4.95m61.07,9.37v.24m.42-.24h-.42m-92.12-9.36h-1.18m-.04,.26h1.22m51.47-5.22h2.79v-.42h-3.22m9.72,.42h.28m.43,0h.29v-.42h-1v.42m7.5,0h2.79m.43,0h.28v-.42h-3.5v.42m10,0h2.8m.43,0h.27v-.42h-3.5v.42m10.47,0h3.37m.42-.42h-3.79v.42m3.37,20.29v.24h.42v-.67m-.42-12.39v.35h.42v-.35m0,38.04v-12.85m-.42,0v2.29m0,2.52v8.04h.42m-.42,12.52v.1h.42m0,6.82v-.32h-.42v.32m-3.08,8.04h3.5m-.42-.43h-3.08v.43m-9.7,0h3.54v-.43h-.34m-.36,0h-2.84v.43m-10,0h3.5v-.43h-.3m-.39,0h-2.81v.43m-30.84,0h24.34m-.76-.46h-23.58v.46m-23.11-66.25v3.29m0,.39v.33h.43v-4.01h-.43m0,10.51v5.78m0,.39v.33h.43v-6.5h-.43m0,13v5.78m0,.39v5.77h.43v-11.94h-.43m0,18.44v.34m0,.39v.38h.43v-1.11h-.43m.43,10.4v-2.64h-.43M14.21,35.55h-1.49m.47,.5h1.02v-.22m-.88,2.12l-.14-1.9m-.47-.5l.19,2.44,.42-.04m104.51,33.78h-5.37v.1h5.37m-8.39-.1h-.98m0,.1h.98v-.1m15.44-4.54v.33h.09v-.33m-.09,3.35v1.19m0,.1v.32h.09v-1.61h-.09m0,3.52v.5m0,.1v.42h.09v-1.02h-.09m0,2.92v.41m0,.1v.33h.09v-.84h-.09m0,2.74v.51m0,.1v.42h.09v-1.03h-.09m0,2.93v.43m.09,0v-.43h-.09m0-10.92h-4.92m0,.1h4.92m0,2.73h-4.92m0,.1h4.92m0,2.73h-4.92m0,.1h4.92m0,2.74h-4.92m0,.1h4.92M14.21,35.83h.38v-.5h-.38v.22m41.1,.28h.38l.2-.5h-.58v.5M23.32,118.42v-.37h-.33v.37h.33M3.19,32.69v.64h.39v-.64h-.39m0,16.91h1.68m.39-.39h-1.68m1.29,.39v.25h.39v-.64m-.39,7.14v9.73m.39-.39v-9.34h-.39m0,9.73h1.65m.4-.39h-1.66m1.26,.39v.28h.4v-.67m-.4,7.17v9.72m.4-.39v-9.33h-.4m0,9.72h1.48m.4-.39h-1.48m1.08,.39v.32h.4v-.71m-.4,7.21v9.65h.4v-9.65h-.4m0,19.33v9.65h.4v-9.65h-.4M3.19,39.83v9.77m.39-.39v-9.38h-.39M52.89,109.18l-.33-3.43-.3-3.42-.27-3.43-.25-3.43m-.02-.39l-.2-3.15-.17-3.15-.14-3.16-.13-3.15m0-.39l-.09-3.15-.07-3.16-.04-3.15-.02-3.15m0-.39v-3.86m-.39,0c-.12,14.69,.56,29.38,2.04,44m-.9-56.34c-.53,4.09-.78,8.21-.74,12.34m.35-12.4c-.54,4.11-.79,8.25-.75,12.4m1.14-12.34l.11-.81,.12-.8m.04-.26l.28-1.66,.31-1.66,.35-1.65m-.4,0c-.49,2.24-.89,4.5-1.2,6.78m1.68,56.36c.08,.66,.17,1.33,.27,1.99m-.66-1.95c.08,.67,.17,1.34,.27,2.01m24.09-13.71h-.32m-.95,0h-.01v1.28m.42,0h.86v-.1m0-.85v-.33M59.37,27.7h0m3.17-3.83v-.02m.19,.17l-.18-.17h.02m3.69-3.32l.03-.03m4.09-2.7h.01m-4.11,2.71l.15,.2m3.96-2.91h.01m-13.63,14.17v.02s.22,.1,.22,.1l-.22-.12h0m2.57-4.25v-.02m19.98-14.59h.01m4.51-2.09h.01m4.6-1.93h.01m4.67-1.77h.01m4.76-1.62h0m4.71-1.55h.01m4.81-1.35h.01m4.86-1.14h.01m5.01-.96h.02m4.81-.59h.05m4.94,.29h.05m4.8,1.17h.03l.03,.02m4.42,2.24h.02s0,.02,0,.02m3.96,2.89h0m3.83,3.31h0m3.62,3.44h0m3.46,3.61h0m3.28,3.76h0m3.11,3.91h0m2.93,4.05h0m2.73,4.18h0m11.94,21.95h0m3.87,9.21h0m1.74,4.69h0m4.4,14.34h0m1.18,4.85h0m1.05,4.89h0m.91,4.91h0m.77,4.94h0m.63,4.96h0m.49,5.05h0m.26,4.92h0v.02m-.16,4.97h0v.02m-.58,4.95h0v.02m-.99,4.88h0v.02m-1.4,4.78h0s0,.02,0,.02m-1.81,4.68l-.02,.04m-2.61,4.15v.02s-.03,.02-.03,.02m-3.46,3.54v.02s-.04,0-.04,0m-4.12,2.73l-.02,.02h-.03m-4.57,1.79h-.04m-4.9,1.08h-.02m-4.95,.57h-.02m-4.9,.06h-.02m-5.28-.29h0m-4.77-.32h0m-39.73-4.36h-.01m-4.91-.9h-.01m-4.89-1h-.01m-9.78-2.31h-.01m-4.72-1.41h-.02m-4.54-1.78l-.11-.04-4.51-2.23m-3.87-3.08l4.05,2.61m.05,.03h.01m-.24,.44l-.07-.04m-.03-.02l-.03-.02m-4.01-2.59l-.03-.02m-3.4-3.65l3.7,3.26m-6.88-7.02l3.18,3.76m-.41,.28l-.02-.03m-3.13-3.71h-.02m3.58,3.47h0m-.06-.07h-.01m-3.12-3.69h0m-2.48-4.05l2.48,4.04m-.4,.29h0m-2.91-4.73v-.02m.42,0h-.43m-35.35,0h.12m35.53,.49h-.09m-35.56-.49v.29m52.27-61.3v31.61m.95,0v-20.67m-.96,21.95v2.53h.42v-2.53m-.42,5.95v.39m.42-.39h-.42m-21.06-58.92v-2.31h-.43v2.31m-1.59-.21c-.03,.14-.06,.28-.09,.42m93.18,14.99v-.66m-.42,.24h-10.63m-.43,0h-9.58m9.58-14.56v14.56m.43,0v-7.08m.67,50.55v14.53m.36,0v-7.18m0-7.35h9.58m.42,.1v-.56h-15.15m-14.85,.46h9.61m.39,0h9.64m39.13,32.19v-17.7h-.17v17.7h.17m-105.92-33.77v16.15m.43,.39v-13.47m-14,13.08l-.36-1.27-.33-1.27-.31-1.28-.27-1.29m-.76-2.05c.38,2.42,.92,4.81,1.62,7.16m-1.24-7.24l-.04-.24m-.39,.06c.02,.09,.03,.17,.05,.26" />
    <path class="cls-1"
        d="M17.12,52.5h5.76m.06,0h.17m-4.15,33h.14m.02,0h10.08m.07,0h.36m-5.98-21.35c.01,.12,.03,.23,.04,.35,.05,.39,.1,.78,.15,1.17,.05,.39,.11,.77,.17,1.16,.06,.39,.12,.78,.19,1.17,.04,.25,.09,.49,.13,.74,.03,.14,.05,.29,.08,.43,.07,.39,.15,.77,.23,1.16,.08,.39,.16,.78,.25,1.17,.07,.33,.15,.65,.23,.98,.09,.38,.18,.75,.28,1.13,.12,.46,.25,.93,.38,1.39,.11,.39,.22,.78,.34,1.17,.12,.39,.24,.77,.36,1.16,.13,.39,.26,.78,.39,1.17,.13,.39,.27,.78,.41,1.17,.14,.39,.28,.77,.43,1.16,.15,.39,.3,.78,.45,1.17,.16,.39,.32,.78,.49,1.17,.16,.39,.33,.77,.5,1.16,.18,.39,.36,.78,.54,1.17m-13.43-21.16v-.14m.01,.3v-.16m0,.16c.01,.39,.03,.78,.05,1.17,.02,.39,.04,.77,.06,1.16,.02,.39,.04,.78,.07,1.17m.01,.1v-.1m.62-14h.16m.07,0h5.5m.07,0h.16m-6.06,1.17h.16m.07,0h5.57m.07,0h.16m-6.13,1.16h.16m.07,0h5.66m.07,0h.16m-6.22,1.17h.17m.06,0h5.77m.06,0h.17m-6.28,1.17h.16m.07,0h5.85m.06,0h.17m-6.36,1.16h.16m.07,0h5.95m.06,0h.17m-6.46,1.17h.16m.07,0h6.06m.07,0h.16m-6.58,1.17h.17m.06,0h6.21m.06,0h.17m-6.72,1.16h.17m.06,0h6.37m.07,0h.16m-7.08,1.17h.12m.01,0h.25m.06,0h6.54m.06,0h.38m-7.37,1.17h.15m.02,0h.21m.07,0h6.62m.07,0h.38m-7.46,1.16h.18m.02,0h.18m.07,0h6.73m.07,0h.38m-7.56,1.17h.2m.02,0h.17m.06,0h6.85m.07,0h.38m-7.66,1.17h.2m.01,0h.17m.07,0h6.97m.07,0h.38m-7.77,1.16h.19m.02,0h.17m.06,0h7.11m.06,0h.39m-7.9,1.17h.2m.01,0h.17m.07,0h7.25m.07,0h.38m-8.05,.98h.2m.02,0h.16m.06,0h7.39m.07,0h.38m-8.15,1.13h.19m.02,0h.17m.06,0h7.54m.06,0h.39m-8.27,1.39h.2m.01,0h.17m.06,0h7.75m.07,0h.39m-8.5,1.17h.2m.01,0h.17m.07,0h7.93m.07,0h.39m-8.68,1.16h.2m.02,0h.16m.07,0h8.13m.07,0h.39m-8.86,1.17h.19m.02,0h.17m.06,0h8.34m.07,0h.4m-9.07,1.17h.2m.02,0h.16m.07,0h8.55m.07,0h.41m-9.28,1.16h.2m.01,0h.17m.07,0h8.79m.07,0h.4m-9.5,1.17h.19m.02,0h.17m.07,0h9.03m.07,0h.4m-9.73,1.17h.2m.01,0h.17m.06,0h9.3m.07,0h.41m-9.99,1.16h.19m.02,0h.17m.07,0h9.56m.07,0h.41m-10.19,1.17h.14m.02,0h10.08m.07,0h.36m-12.55-31.5h.16m.07,0h5.5m.07,0h.16m-6.06,1.17h.16m.07,0h5.57m.07,0h.16m-6.13,1.16h.16m.07,0h5.66m.07,0h.16m-6.22,1.17h.17m.06,0h5.77m.06,0h.17m-6.28,1.17h.16m.07,0h5.85m.06,0h.17m-6.36,1.16h.16m.07,0h5.95m.06,0h.17m-6.46,1.17h.16m.07,0h6.06m.07,0h.16m-6.58,1.17h.17m.06,0h6.21m.06,0h.17m-6.72,1.16h.17m.06,0h6.37m.07,0h.16m-7.08,1.17h.12m.01,0h.25m.06,0h6.54m.06,0h.38m-7.37,1.17h.15m.02,0h.21m.07,0h6.62m.07,0h.38m-7.46,1.16h.18m.02,0h.18m.07,0h6.73m.07,0h.38m-7.56,1.17h.2m.02,0h.17m.06,0h6.85m.07,0h.38m-7.66,1.17h.2m.01,0h.17m.07,0h6.97m.07,0h.38m-7.77,1.16h.19m.02,0h.17m.06,0h7.11m.06,0h.39m-7.9,1.17h.2m.01,0h.17m.07,0h7.25m.07,0h.38m-8.05,.98h.2m.02,0h.16m.06,0h7.39m.07,0h.38m-8.15,1.13h.19m.02,0h.17m.06,0h7.54m.06,0h.39m-8.27,1.39h.2m.01,0h.17m.06,0h7.75m.07,0h.39m-8.5,1.17h.2m.01,0h.17m.07,0h7.93m.07,0h.39m-8.68,1.16h.2m.02,0h.16m.07,0h8.13m.07,0h.39m-8.86,1.17h.19m.02,0h.17m.06,0h8.34m.07,0h.4m-9.07,1.17h.2m.02,0h.16m.07,0h8.55m.07,0h.41m-9.28,1.16h.2m.01,0h.17m.07,0h8.79m.07,0h.4m-9.5,1.17h.19m.02,0h.17m.07,0h9.03m.07,0h.4m-9.73,1.17h.2m.01,0h.17m.06,0h9.3m.07,0h.41m-9.99,1.16h.19m.02,0h.17m.07,0h9.56m.07,0h.41m53.51,7.61h.02m.13,0h5.64m0-7.35v-.43m-5.79,3.19v-.49m0,1.4v-.91m0,1.83v-.92m0,1.84v-.92m0,1.84v-.92m0,1.84v-.92m4.87-6.43h.92m-2.73,.92h2.73m-3.06,0h.17m-1.97,.92h4.86m-5.79,.92h.02m.13,0h5.64m-5.79,.91h.02m.13,0h5.64m-5.79,.92h.02m.13,0h5.64m-5.79,.92h.02m.13,0h5.64m-5.79,.92h.02m.13,0h5.64m-5.79,.92h.02m.13,0h5.64m-.92-7.35h.92m-2.73,.92h2.73m-3.06,0h.17m-1.97,.92h4.86m-5.79,.92h.02m.13,0h5.64m-5.79,.91h.02m.13,0h5.64m-5.79,.92h.02m.13,0h5.64m-5.79,.92h.02m.13,0h5.64m-5.79,.92h.02m.13,0h5.64m-11.82-14.17v6.82m6.07-1.9v.98m-.24-.98h.24m-.24,1.9v-1.9m0,10.16h-.02m-.13,0h-5.68m5.83-8.26h-5.83m6.07-.92h5.75m-11.82,8.26v.92m0-1.83v.91m0-1.83v.92m0-1.84v.92m0-1.84v.92m0-1.84v.92m0-1.84v.92m0-1.84v.92m0-1.83v.91m5.83,6.43v.92m0-1.83v.91m0-1.83v.92m0-1.84v.92m0-1.84v.92m0-1.84v.92m0-1.84v.92m0-1.84v.92m0-1.83v.91m.24-.91v-.92m0,1.84v-.92m0,1.84v-.92m0,1.84v-.92m0,1.33v-.41m-.24,4.58h-.02m-.13,0h-5.68m5.83-.91h-.02m-.13,0h-5.68m5.83-.92h-.02m-.13,0h-5.68m5.83-.92h-.02m-.13,0h-5.68m5.83-.92h-.02m-.13,0h-5.68m5.83-.92h-.02m-.13,0h-5.68m5.83-.92h-.02m-.13,0h-5.68m5.83-.92h-5.83m5.83-.91h-5.83m6.07-.92h5.75m-5.75,.92h5.75m-5.75,.92h4.83m-4.83,.92h2.69m.17,0h.16m-3.02,.92h.89m-1.13,4.58h-.02m-.13,0h-5.68m5.83-.91h-.02m-.13,0h-5.68m5.83-.92h-.02m-.13,0h-5.68m5.83-.92h-.02m-.13,0h-5.68m5.83-.92h-.02m-.13,0h-5.68m5.83-.92h-.02m-.13,0h-5.68m5.83-.92h-.02m-.13,0h-5.68m5.83-.92h-5.83m6.07-.91h5.75m-5.75,.92h4.83m-4.83,.92h2.69m.17,0h.16m-3.02,.92h.89M20.17,54v-.68m0,1.85v-1.17m0,2.33v-1.16m0,2.33v-1.17m0,2.34v-1.17m0,2.33v-1.16m0,2.33v-1.17m0,2.34v-1.17m0,2.33v-1.16m0,2.33v-1.17m0,2.34v-1.17m0,2.33v-1.16m0,2.33v-1.17m0,2.34v-1.17m0,2.33v-1.16m0,2.33v-1.17m0,1.17l-.21-.2m.21,.2l.2-.2m65.19,15.13v-.43m0,1.35v-.92m0,1.83v-.91m0,1.83v-.92m0,1.84v-.92m0,1.84v-.92m0,1.84v-.92m0-5.02l.2,.21m-.2-.21l-.21,.21m-5.81-6.9v4.36m6.06-4.36h-6.06m6.06,3.44v-3.44m-6.06,10.79v.91m0-1.83v.92m0-1.84v.92m0-1.84v.92m0-1.84v.92m0-1.84v.92m0-1.84v.92m0-1.83v.91m6.06-.91v-.92m0,.92l-.21-.2m.21,.2l.2-.2m-9.05-6.62v5.9m11.7-5.9h-11.7m11.7,5.9v-5.9m-5.79,5.23v.67m-.12-.67h.12m-.12,.67v-.67m0,8.02h-5.79m5.79-7.35h-5.79m5.91,0h5.79m-11.7,0v7.35m5.79-7.35v7.35m5.91-5.94v-1.41m-5.79,4.11v-4.11m2.71,2.84l-2.56,1.2m-.13,.06h-.02m2.79-1.57l-.08,.31m.3,.15l-.22-.46m.29,.14l-.07,.32m2.78-1.58l-2.71,1.26m-3.2,3.76h-5.79m5.79-.92h-5.79m5.79-.91h-5.79m5.79-.92h-5.79m5.79-.92h-5.79m5.79-.92h-5.79m5.79-.92h-5.79m5.79-.92h-5.79m5.91,0h5.79m-5.79,.92h5.79m-5.79,.92h4.87m-1.97,.92h.16m-3.06,0h2.73m-2.73,.92h.93m-1.05,2.75h-5.79m5.79-.92h-5.79m5.79-.91h-5.79m5.79-.92h-5.79m5.79-.92h-5.79m5.79-.92h-5.79m5.79-.92h-5.79m5.91,0h5.79m-5.79,.92h4.87m-1.97,.92h.16m-3.06,0h2.73m-2.73,.92h.93" />
    <path class="cls-2"
        d="M88.02,45.63v.42m-3.01,0v-.42m3.01,.42h-3.01m0-.42h3.01m15.91,0v.42m-6.09,0v-.42m6.09,.42h-6.09m0-.42h6.09m24.05,0v.42m-3,0v-.42m3,.42h-3m0-.42h3m3.17,0v.42m-3.01,0v-.42m3.01,.42h-3.01m0-.42h3.01m-20.67,0v.42m-3,0v-.42m3,.42h-3m0-.42h3m3.17,0v.42m-3.01,0v-.42m3.01,.42h-3.01m0-.42h3.01m4.33,0v.42m-3,0v-.42m3,.42h-3m0-.42h3m3.17,0v.42m-3.01,0v-.42m3.01,.42h-3.01m0-.42h3.01m17.29,0v.42m-.66,0v-.42m.66,.42h-.66m0-.42h.66m-.82,0v.42m-2.64,0v-.42m2.64,.42h-2.64m0-.42h2.64m3.99,0v.42m-3.01,0v-.42m3.01,.42h-3.01m0-.42h3.01m3.96,24.11h-.42m0-3h.42m-.42,3v-3m.42,0v3m0,3.17h-.42m0-3h.42m-.42,3v-3m.42,0v3m.07-15.88h-.49m0-3h.49m-.49,3v-3m.49,0v3m0,3.17h-.49m0-3h.49m-.49,3v-3m.49,0v3m-.49,34.69h.42m0,3.01h-.42m.42-3.01v3.01m-.42,0v-3.01m0-3.16h.42m0,3h-.42m.42-3v3m-.42,0v-3m0,15.78h.42m0,3h-.42m.42-3v3m-.42,0v-3m0-3.17h.42m0,3.01h-.42m.42-3.01v3.01m-.42,0v-3.01m-6.42,14.27v.43m-2.66,0v-.43m2.66,.43h-2.66m0-.43h2.66m3.18,0v.43m-3.02,0v-.43m3.02,.43h-3.02m0-.43h3.02m-12.87,0v.43m-3.01,0v-.43m3.01,.43h-3.01m0-.43h3.01m3.17,0v.43m-3.01,0v-.43m3.01,.43h-3.01m0-.43h3.01m-13.17,0v.43m-3.01,0v-.43m3.01,.43h-3.01m0-.43h3.01m3.17,0v.43m-3.01,0v-.43m3.01,.43h-3.01m0-.43h3.01m-34.01-.03v.46m-3,0v-.46m3,.46h-3m0-.46h3m3.17,0v.46m-3.01,0v-.46m3.01,.46h-3.01m0-.46h3.01m-22.52-69.12h-.43m0-3h.43m-.43,3v-3m.43,0v3m0,3.17h-.43m0-3h.43m-.43,3v-3m.43,0v3m0,7.34h-.43m0-3h.43m-.43,3v-3m.43,0v3m0,3.17h-.43m0-3h.43m-.43,3v-3m.43,0v3m0,9.83h-.43m0-3h.43m-.43,3v-3m.43,0v3m0,3.17h-.43m0-3h.43m-.43,3v-3m.43,0v3m0,15.27h-.43m0-3h.43m-.43,3v-3m.43,0v3m0,3.17h-.43m0-3.01h.43m-.43,3.01v-3.01m.43,0v3.01m0,4.74h-.43m0-3.31h.43m-.43,3.31v-3.31m.43,0v3.31m0,3.01h-.43m0-2.85h.43m-.43,2.85v-2.85m.43,0v2.85M13.79,44.33l-.42,.03m-.37-4.77l.42-.03m-.05,4.8l-.37-4.77m.42-.03l.37,4.77m-.38-4.93l-.42,.03m-.1-1.28l.42-.03m-.32,1.31l-.1-1.28m.42-.03l.1,1.28m.88,11.48l-.42,.03m-.49-6.39l.42-.03m.07,6.42l-.49-6.39m.42-.03l.49,6.39m39.8-12.28h.43m0,4.76h-.43m.43-4.76v4.76m-.43,0v-4.76m0-2.77h.43m0,2.61h-.43m.43-2.61v2.61m-.43,0v-2.61M22.95,118.62h.49m0,8.59h-.49m.49-8.59v8.59m-.49,0v-8.59m-4.43-.2v-.49m4.28,0v.49m-4.28-.49h4.28m0,.49h-4.28m-9.93,0v-.49m5.22,0v.49m-5.22-.49h5.22m0,.49h-5.22m5.41,0v-.49m4.33,0v.49m-4.33-.49h4.33m0,.49h-4.33M3.17,33.33h.43m0,3.17h-.43m.43-3.17v3.17m-.43,0v-3.17m1.68,16.52h.43m0,3.17h-.43m.43-3.17v3.17m-.43,0v-3.17m1.66,16.51h.42m0,3.17h-.42m.42-3.17v3.17m-.42,0v-3.17m1.47,16.54h.43m0,3.16h-.43m.43-3.16v3.16m-.43,0v-3.16M3.17,36.67h.43m0,3.16h-.43m.43-3.16v3.16m-.43,0v-3.16m3.34,33.03h.42m0,3.16h-.42m.42-3.16v3.16m-.42,0v-3.16m1.47,16.53h.43m0,3.17h-.43m.43-3.17v3.17m-.43,0v-3.17m-3.13-33.04h.43m0,3.16h-.43m.43-3.16v3.16m-.43,0v-3.16m72.63,90.61l.18-.46m4.3,1.68l-.18,.46m-4.12-2.14l4.3,1.68m-.18,.46l-4.3-1.68m4.56,1.77l.14-.47m4.47,1.32l-.14,.48m-4.33-1.8l4.47,1.32m-.14,.48l-4.47-1.33m4.74,1.4l.12-.48m4.65,1.15l-.12,.48m-4.53-1.63l4.65,1.15m-.12,.48l-4.65-1.15m4.91,1.21l.11-.48m4.61,1.04l-.1,.48m-4.51-1.52l4.61,1.04m-.1,.48l-4.62-1.04m4.88,1.1l.1-.48m4.63,.94l-.1,.48m-4.53-1.42l4.63,.94m-.1,.48l-4.63-.94m4.9,.99l.09-.48m4.65,.85l-.09,.48m-4.56-1.33l4.65,.85m-.09,.48l-4.65-.85m4.92,.9l.07-.49m4.68,.75l-.08,.49m-4.6-1.24l4.68,.75m-.08,.49l-4.67-.75m4.93,.79l.07-.49m4.69,.66l-.07,.48m-4.62-1.14l4.69,.66m-.07,.48l-4.69-.65m4.96,.69l.05-.49m4.53,.53l-.06,.49m-4.47-1.02l4.53,.53m-.06,.49l-4.52-.53m4.78,.56l.06-.49m4.88,.54l-.05,.49m-4.83-1.03l4.88,.54m-.05,.49l-4.89-.54m5.15,.57l.05-.49m4.93,.5l-.05,.49m-4.88-.99l4.93,.5m-.05,.49l-4.93-.5m5.19,.52l.05-.49m4.49,.42l-.04,.49m-4.45-.91l4.49,.42m-.04,.49l-4.5-.42m4.76,.44l.04-.49m4.51,.38l-.05,.49m-4.46-.87l4.51,.38m-.05,.49l-4.5-.38m4.77,.4l.04-.49m4.93,.36l-.04,.49m-4.89-.85l4.93,.36m-.04,.49l-4.93-.36m5.2,.38l.03-.49m4.51,.3l-.04,.49m-4.47-.79l4.51,.3m-.04,.49l-4.5-.3m4.77,.31l.03-.49m5.02,.28l-.03,.5m-4.99-.78l5.02,.28m-.03,.5l-5.02-.29m5.3,.29v-.49m4.63-.06v.49m-4.64-.43l4.64-.06m0,.49l-4.64,.06m4.92-.08l-.05-.49m4.68-.53l.06,.49m-4.74,.04l4.68-.53m.06,.49l-4.69,.53m4.97-.58l-.11-.48m4.65-1.01l.11,.48m-4.76,.53l4.65-1.01m.11,.48l-4.65,1.01m4.93-1.1l-.18-.46m4.33-1.68l.18,.45m-4.51,1.23l4.33-1.68m.18,.45l-4.33,1.69m4.61-1.83l-.28-.41m3.91-2.59l.27,.42m-4.18,2.17l3.91-2.59m.27,.42l-3.9,2.58m4.15-2.78l-.36-.35m3.28-3.35l.35,.34m-3.63,3.01l3.28-3.35m.35,.34l-3.27,3.36m3.46-3.6l-.41-.27m2.46-3.92l.42,.26m-2.88,3.66l2.46-3.92m.42,.26l-2.47,3.93m2.61-4.21l-.46-.17m1.72-4.44l.46,.18m-2.18,4.26l1.72-4.44m.46,.18l-1.72,4.43m1.81-4.7l-.48-.14m1.33-4.52l.47,.14m-1.8,4.38l1.33-4.52m.47,.14l-1.32,4.52m1.39-4.8l-.48-.1m.94-4.62l.48,.1m-1.42,4.52l.94-4.62m.48,.1l-.94,4.62m.99-4.9l-.49-.06m.55-4.68l.49,.06m-1.04,4.62l.55-4.68m.49,.06l-.55,4.68m.57-4.97h-.5m.15-4.73l.5,.02m-.65,4.7l.15-4.72m.5,.02l-.15,4.71m.14-4.99l-.49,.02m-.24-4.64l.49-.03m-.25,4.67l-.24-4.64m.49-.03l.24,4.65m-.26-4.92l-.49,.05m-.47-4.78l.49-.05m-.02,4.83l-.47-4.78m.49-.05l.47,4.78m-.5-5.05l-.49,.07m-.59-4.7l.49-.06m.1,4.76l-.59-4.7m.49-.06l.59,4.69m-.63-4.95l-.49,.07m-.73-4.67l.49-.08m.24,4.75l-.73-4.67m.49-.08l.73,4.68m-.78-4.94l-.48,.09m-.86-4.66l.48-.09m.38,4.75l-.86-4.66m.48-.09l.86,4.66m-.91-4.92l-.48,.1m-1-4.62l.48-.1m.52,4.72l-1-4.62m.48-.1l1,4.62m-1.06-4.89l-.47,.12m-1.13-4.59l.48-.12m.65,4.71l-1.13-4.59m.48-.12l1.12,4.59m-1.19-4.85l-.48,.13m-1.25-4.56l.47-.13m.78,4.69l-1.25-4.56m.47-.13l1.26,4.56m-1.34-4.82l-.47,.14m-1.38-4.52l.47-.14m.91,4.66l-1.38-4.52m.47-.14l1.38,4.52m-1.47-4.78l-.46,.16m-1.52-4.48l.47-.16m1.05,4.64l-1.52-4.48m.47-.16l1.51,4.48m-1.6-4.73l-.47,.17m-1.64-4.44l.46-.17m1.18,4.61l-1.64-4.44m.46-.17l1.65,4.44m-1.75-4.69l-.45,.19m-1.78-4.39l.46-.18m1.32,4.57l-1.78-4.39m.46-.18l1.77,4.38m-1.87-4.63l-.45,.19m-1.9-4.33l.45-.2m1.45,4.53l-1.9-4.33m.45-.2l1.9,4.34m-2.01-4.58l-.45,.21m-2.02-4.28l.45-.21m1.57,4.49l-2.02-4.28m.45-.21l2.02,4.28m-2.14-4.52l-.44,.22m-2.14-4.22l.44-.22m1.7,4.44l-2.14-4.22m.44-.22l2.14,4.22m-2.27-4.46l-.43,.24m-2.26-4.16l.43-.23m1.83,4.39l-2.26-4.16m.43-.23l2.26,4.15m-2.39-4.39l-.43,.25m-2.38-4.09l.43-.25m1.95,4.34l-2.38-4.09m.43-.25l2.38,4.09m-2.52-4.32l-.42,.26m-2.5-4.02l.42-.26m2.08,4.28l-2.5-4.02m.42-.26l2.5,4.02m-2.64-4.25l-.42,.27m-2.58-3.95l.41-.27m2.17,4.22l-2.58-3.95m.41-.27l2.59,3.95m-2.74-4.18l-.4,.29m-2.77-3.83l.4-.29m2.37,4.12l-2.77-3.83m.4-.29l2.77,3.83m-2.94-4.04l-.38,.3m-2.94-3.69l.38-.31m2.56,4l-2.94-3.69m.38-.31l2.94,3.7m-3.11-3.91l-.37,.32m-3.12-3.55l.37-.33m2.75,3.88l-3.12-3.55m.37-.33l3.12,3.56m-3.3-3.76l-.36,.34m-3.27-3.4l.35-.34m2.92,3.74l-3.27-3.4m.35-.34l3.28,3.4m-3.47-3.6l-.34,.36m-3.43-3.25l.34-.36m3.09,3.61l-3.43-3.25m.34-.36l3.43,3.25m-7.49-6.74l-.29,.4m-3.74-2.73l.29-.4m3.45,3.13l-3.74-2.73m.29-.4l3.74,2.73m3.85,3.31l-.32,.37m-3.63-3.13l.32-.37m3.31,3.5l-3.63-3.13m.32-.37l3.63,3.13m-7.85-6.2l-.22,.44m-4.19-2.13l.22-.43m3.97,2.56l-4.19-2.13m.22-.43l4.19,2.12m-4.48-2.23l-.12,.47m-4.55-1.09l.11-.48m4.44,1.57l-4.55-1.09m.11-.48l4.56,1.1m-4.86-1.15l-.03,.49m-4.68-.27l.03-.49m4.65,.76l-4.68-.27m.03-.49l4.68,.27m-4.99-.26l.06,.48m-4.55,.56l-.06-.49m4.61-.07l-4.55,.56m-.06-.49l4.55-.55m-4.83,.59l.1,.49m-4.76,.9l-.09-.48m4.85-.42l-4.76,.9m-.09-.48l4.75-.91m-5.02,.97l.11,.48m-4.6,1.08l-.11-.48m4.71-.6l-4.6,1.08m-.11-.48l4.6-1.08m-4.87,1.15l.13,.47m-4.55,1.28l-.13-.47m4.68-.81l-4.55,1.28m-.13-.47l4.55-1.28m-4.81,1.36l.15,.46m-4.46,1.46l-.15-.47m4.61-.99l-4.46,1.46m-.15-.47l4.46-1.45m-4.72,1.54l.16,.46m-4.51,1.54l-.16-.47m4.67-1.07l-4.51,1.54m-.16-.47l4.51-1.53m-4.76,1.62l.17,.46m-4.42,1.68l-.17-.46m4.59-1.22l-4.42,1.68m-.17-.46l4.42-1.68m-4.68,1.78l.19,.46m-4.36,1.82l-.19-.45m4.55-1.37l-4.36,1.82m-.19-.45l4.36-1.83m-4.6,1.94l.2,.45m-4.28,1.97l-.21-.45m4.49-1.52l-4.28,1.97m-.21-.45l4.29-1.97m-4.53,2.09l.22,.44m-4.24,2.13l-.22-.44m4.46-1.69l-4.24,2.13m-.22-.44l4.24-2.13m-4.48,2.26l.24,.43m-4.22,2.3l-.23-.43m4.45-1.87l-4.22,2.3m-.23-.43l4.21-2.3m-4.46,2.45l.27,.41m-3.87,2.55l-.27-.41m4.14-2.14l-3.87,2.55m-.27-.41l3.87-2.55m-4.1,2.73l.33,.37m-3.51,3.14l-.32-.37m3.83-2.77l-3.51,3.14m-.32-.37l3.5-3.14m-3.71,3.36l.38,.31m-3,3.62l-.38-.32m3.38-3.3l-3,3.62m-.38-.32l3-3.61m-3.18,3.86l.42,.25m-2.44,4.02l-.42-.25m2.86-3.77l-2.44,4.02m-.42-.25l2.44-4.02m-2.57,4.28l.45,.19m-1.31,3.12l-.45-.2m1.76-2.92l-1.31,3.12m-.45-.2l1.31-3.11m16.03,109.37l.22-.44m4.47,2.2l-.22,.44m-4.25-2.64l4.47,2.2m-.22,.44l-4.47-2.2m-4.04-2.59l.26-.42m3.8,2.45l-.27,.42m-3.53-2.87l3.8,2.45m-.27,.42l-3.79-2.45m-3.86-3.37l.32-.37m3.62,3.19l-.32,.37m-3.3-3.56l3.62,3.19m-.32,.37l-3.62-3.19m-3.17-3.72l.37-.32m2.96,3.51l-.37,.32m-2.59-3.83l2.96,3.51m-.37,.32l-2.96-3.51m-2.74-4.4l.42-.26m2.56,4.16l-.42,.25m-2.14-4.41l2.56,4.16m-.42,.25l-2.56-4.15M24.21,35.33v.49m-4.8,0v-.49m4.8,.49h-4.8m0-.49h4.8m5,0v.49m-4.8,0v-.49m4.8,.49h-4.8m0-.49h4.8m5,0v.49m-4.8,0v-.49m4.8,.49h-4.8m0-.49h4.8m5,0v.49m-4.8,0v-.49m4.8,.49h-4.8m0-.49h4.8m5.01,0v.49m-4.81,0v-.49m4.81,.49h-4.81m0-.49h4.81m5,0v.49m-4.81,0v-.49m4.81,.49h-4.81m0-.49h4.81m-30,0v.49m-4.43,0v-.49m4.43,.49h-4.43m0-.49h4.43m35.9,0v.49m-5.7,0v-.49m5.7,.49h-5.7m0-.49h5.7M24.22,126.92v.49m-.58,0v-.49m.58,.49h-.58m0-.49h.58m5,0v.49m-4.81,0v-.49m4.81,.49h-4.81m0-.49h4.81m4.99,0v.49m-4.79,0v-.49m4.79,.49h-4.79m0-.49h4.79m5,0v.49m-4.8,0v-.49m4.8,.49h-4.8m0-.49h4.8m5,0v.49m-4.8,0v-.49m4.8,.49h-4.8m0-.49h4.8m5.01,0v.49m-4.81,0v-.49m4.81,.49h-4.81m0-.49h4.81m5,0v.49m-4.81,0v-.49m4.81,.49h-4.81m0-.49h4.81m4.46,0v.49m-4.26,0v-.49m4.26,.49h-4.26m0-.49h4.26M91.26,45.63v.42m-3.08,0v-.42m3.08,.42h-3.08m0-.42h3.08m6.42,0v.42m-6.25,0v-.42m6.25,.42h-6.25m0-.42h6.25m6.25,.42h.16v-.42h-.16v.42m-15.91,.02h.16v-.46h-.16v.46m3.24-.02h-3.08m3.08-.42h-3.08m-.16,.42h-3.01m3.01-.42h-3.01m-.16,.42h.16v-.42h-.16v.42m25.63,0h.16v-.42h-.16v.42m-3.17,0h.17v-.42h-.17v.42m6.34,0h-3.01m3.01-.42h-3.01m-.16,.42h-3m3-.42h-3m6.17,.42h.16v-.42h-.16v.42m1.16,0h.17v-.42h-.17v.42m3.17,0h.16v-.42h-.16v.42m3.17,0h.16v-.42h-.16v.42h-3.01m3.01-.42h-3.01m-.16,.42h-3m3-.42h-3m9.83,.42h.17v-.42h-.17v.42m3.17,0h.16v-.42h-.16v.42m3.17,0h.16v-.42h-.16v.42h-3.01m3.01-.42h-3.01m-.16,.42h-3m3-.42h-3m12.64,.42h.16v-.42h-.16v.42m.82,0h.16v-.42h-.16v.42m3.17,0h.17v-.42h-.17v.42m-6.8,0h.17v-.42h-.17v.42m6.8,0h-3.01m3.01-.42h-3.01m-.16,.42h-.66m.66-.42h-.66m-.16,.42h-2.64m2.64-.42h-2.64m10.17,20.95v.16h.42v-.16h-.42m0,3.16v.17h.42v-.17h-.42m0,3.17v.17h.42v-.17h-.42v-3m.42,3v-3m-.42-.17v-3m.42,3v-3m-.42-9.71v.17h.49v-.17h-.49m0-3.16v.16h.49v-.16h-.49m0,6.33v-3m.49,3v-3m-.49-.17v-3m.49,3v-3m-.49,6.17v.17h.49v-.17h-.49m.42,34.69v-.16h-.42v.16h.42m0-3.16v3m-.42-3v3m.42,.16v3.01m-.42-3.01v3.01m.42-6.17v-.17h-.42v.17h.42m0,6.33v-.16h-.42v.16h.42m0,9.45v-.16h-.42v.16h.42m0-3.17v3.01m-.42-3.01v3.01m.42,.16v3m-.42-3v3m.42-6.17v-.16h-.42v.16h.42m0,6.34v-.17h-.42v.17h.42m-6.84,8.36h.16v-.43h-.16v.43m3.18,0h.16v-.43h-.16v.43h-3.02m3.02-.43h-3.02m-.16,.43h-2.66m2.66-.43h-2.66m-.16,.43h.16v-.43h-.16v.43m-3.7,0h.16v-.43h-.16v.43m-3.17,0h.16v-.43h-.16v.43m3.17,0h-3.01m3.01-.43h-3.01m-.16,.43h-3.01m3.01-.43h-3.01m-.16,.43h.16v-.43h-.16v.43m-6.83,0h.16v-.43h-.16v.43m3.17,0h-3.01m3.01-.43h-3.01m-.16,.43h-3.01m3.01-.43h-3.01m6.18,.43h.16v-.43h-.16v.43m-6.34,0h.16v-.43h-.16v.43m-24.5,0h.16v-.46h-.16v.46m-3.17,0h.16v-.46h-.16v.46m-3.17,0h.17v-.46h-.17v.46m6.34,0h-3.01m3.01-.46h-3.01m-.16,.46h-3m3-.46h-3m-16.78-69.12v.17h.43v-.17h-.43m0-3.17v.17h.43v-.17h-.43m0,6.34v-3m.43,3v-3m-.43-.17v-3m.43,3v-3m-.43,6.17v.16h.43v-.16h-.43m0,7.34v.17h.43v-.17h-.43m0-3.17v.17h.43v-.17h-.43m0,6.34v-3m.43,3v-3m-.43-.17v-3m.43,3v-3m-.46,6.17v.16h.49v-.16h-.49m.03,9.83v.17h.43v-.17h-.43m0-3.17v.17h.43v-.17h-.43m0,6.34v-3m.43,3v-3m-.43-.17v-3m.43,3v-3m-.43,6.17v.16h.43v-.16h-.43m0,15.27v.16h.43v-.16h-.43m0-3.17v.17h.43v-.17h-.43m0,6.34v-3.01m.43,3.01v-3.01m-.43-.16v-3m.43,3v-3m-.43,6.17v.16h.43v-.16h-.43m0,4.74v.16h.43v-.16h-.43m0-3.47v.16h.43v-.16h-.43m0,6.48v-2.85m.43,2.85v-2.85m-.43-.16v-3.31m.43,3.31v-3.31m-.43,6.32v.17h.43v-.17h-.43M12.99,39.43v.16s.43-.03,.43-.03v-.16s-.43,.03-.43,.03m-.11-1.44v.16s.43-.03,.43-.03v-.16s-.43,.03-.43,.03m.99,12.92l-.49-6.39m.91,6.36l-.49-6.39m-.43-.13l-.37-4.77m.79,4.74l-.37-4.77m-.43-.13l-.1-1.28m.52,1.25l-.1-1.28m.02,6.24l.02,.17,.49-.04-.02-.17-.49,.04m.54,6.55v.16s.44-.03,.44-.03l-.02-.16-.42,.03m40.65-7.39v-.16h-.43v.16h.43m0-4.92v-.16h-.43v.16h.43m-.43-2.77h.17m.08,0h.18v2.61m-.43-2.61v2.61m.43,.16v4.76m-.43-4.76v4.76M18.52,117.93h4.28m-4.28,.49h4.28m-8.79-.49h4.32m-4.32,.49h4.32m.19-.49h-.19v.49h.19v-.49m-9.93,0h5.22m-5.22,.49h5.22m-5.22-.49h-.19v.49h.19v-.49m5.42,0h-.2v.49h.2v-.49M3.6,39.83h-.02m-.39,0h-.02m.43-3.16v3.16m-.43-3.16v3.16m2.11,16.52h-.02m-.39,0h-.02m.43-3.16v3.16m-.43-3.16v3.16m2.08,16.51h-.01m-.4,0h-.01m.42-3.16v3.16m-.42-3.16v3.16m1.9,16.54h-.01m-.4,0h-.02m.43-3.17v3.17m-.43-3.17v3.17M3.17,33.33h.02m.39,0h.02v3.17m-.43-3.17v3.17m3.34,29.86h.01m.4,0h.01v3.17m-.42-3.17v3.17m1.47,13.37h.02m.4,0h.01v3.16m-.43-3.16v3.16m-1.05-16.36v-.17h-.42v.17h.42M3.6,36.67v-.17h-.43v.17h.43m4.81,49.56v-.17h-.43v.17h.43m-3.56-36.38h.02m.39,0h.02v3.17m-.43-3.17v3.17m.43,.17v-.17h-.43v.17h.43m91.26,95.58l-.13-.03-.1,.48,.12,.03,.11-.48m-14.46-3.7l-.12-.05-.18,.46,.12,.05,.18-.46m-4.42-1.73l-.12-.05-.18,.46,.12,.05,.18-.46,4.3,1.68m-4.48-1.22l4.3,1.68m5,.98l-.13-.04-.14,.48,.13,.03,.14-.47m-4.6-1.36l-.12-.04-.14,.47,.12,.04,.14-.47,4.47,1.32m-4.61-.85l4.47,1.33m5.16,.77l-.12-.03-.12,.48,.13,.03,.11-.48m-4.77-1.18l-.13-.03-.12,.48,.13,.03,.12-.48,4.65,1.15m-4.77-.67l4.65,1.15m.37-.42l-.13-.03-.11,.48,.13,.03,.11-.48,4.61,1.04m-4.72-.56l4.62,1.04m5.12,.55l-.13-.03-.1,.48,.13,.03,.1-.48m-4.76-.97l-.13-.03-.1,.48,.13,.03,.1-.48,4.63,.94m-4.73-.46l4.63,.94m5.14,.44l-.13-.02-.09,.48,.13,.03,.09-.49m-4.78-.87l-.13-.02-.09,.48,.13,.02,.09-.48,4.65,.85m-4.74-.37l4.65,.85m5.15,.33l-.13-.02-.08,.49,.13,.02,.08-.49m-4.81-.77l-.13-.02-.07,.49,.13,.02,.07-.49,4.68,.75m-4.75-.26l4.67,.75m5.15,.22h-.13s-.07,.47-.07,.47l.13,.02,.07-.49m-4.82-.67l-.13-.02-.07,.49,.13,.02,.07-.49,4.69,.66m-4.76-.17l4.69,.65m4.98,.1l-.13-.02-.06,.49,.13,.02,.06-.49m-4.66-.55l-.13-.02-.06,.49,.14,.02,.05-.49,4.53,.53m-4.58-.04l4.52,.53m5.33,.1l-.13-.02-.05,.49,.13,.02,.05-.49m-5.01-.56h-.13s-.06,.48-.06,.48h.13s.06-.48,.06-.48l4.88,.54m-4.94-.05l4.89,.54m5.37,.05h-.13s-.05,.48-.05,.48h.13s.05-.48,.05-.48m-5.06-.51h-.13s-.05,.48-.05,.48h.13s.05-.48,.05-.48l4.93,.5m-4.98,0l4.93,.5m4.93-.04h-.13s-.04,.48-.04,.48h.13s.04-.48,.04-.48m-4.62-.43h-.14s-.04,.48-.04,.48h.13s.05-.48,.05-.48l4.49,.42m-4.54,.07l4.5,.42m4.94-.08h-.13s-.05,.48-.05,.48h.14s.04-.48,.04-.48m-4.64-.39h-.13s-.04,.48-.04,.48h.13s.04-.48,.04-.48l4.51,.38m-4.55,.11l4.5,.38m5.37-.1h-.13s-.04,.48-.04,.48h.13s.04-.48,.04-.48m-5.06-.37h-.14s-.03,.48-.03,.48h.13s.04-.48,.04-.48l4.93,.36m-4.97,.13l4.93,.36m4.94-.17h-.13l-.04,.49h.14l.03-.49m-4.64-.3h-.13s-.03,.48-.03,.48h.13s.03-.48,.03-.48l4.51,.3m-4.54,.19l4.5,.3m5.45-.19h-.13s-.03,.49-.03,.49h.13l.03-.49m-5.15-.29h-.13s-.03,.49-.03,.49h.13l.03-.49,5.02,.28m-5.05,.21l5.02,.29m5.04-.55h-.13v.49h.14v-.49m-4.78,.06h-.13v.49h.14v-.49s4.63-.06,4.63-.06m-4.63,.55l4.64-.06m5.04-1.06l-.13,.02,.05,.49,.14-.02-.06-.49m-4.81,.55l-.13,.02,.05,.49,.13-.02-.05-.49,4.68-.53m-4.63,1.02l4.68-.53m4.96-1.57l-.13,.03,.11,.48,.12-.03-.1-.48m-4.78,1.04l-.13,.03,.11,.48,.13-.03-.11-.48,4.65-1.01m-4.54,1.49l4.65-1.01m4.55-2.28l-.12,.05,.18,.45,.12-.04-.18-.46m-4.45,1.73l-.12,.05,.18,.46,.12-.05-.18-.46,4.33-1.68m-4.15,2.14l4.33-1.69m4.02-3.21l-.11,.07,.27,.42,.11-.08-.27-.41m-4.02,2.66l-.1,.07,.27,.41,.11-.07-.28-.41m.28,.41l-.04-.06m-.05-.06l-.18-.29,3.9-2.59m-3.63,3l3.9-2.58m3.26-4l-.09,.1,.35,.34,.09-.09-.35-.35m-3.37,3.45l-.09,.1,.35,.34,.1-.09-.36-.35,3.28-3.35m-2.92,3.7l3.27-3.36m2.31-4.54l-.07,.11,.42,.26,.07-.11-.42-.26m-2.53,4.03l-.07,.12,.41,.26,.07-.11-.41-.27,2.46-3.92m-2.05,4.19l2.47-3.93m1.44-5.01l-.04,.12,.46,.18,.04-.12-.46-.18m-1.76,4.56l-.05,.12,.46,.18,.05-.13-.46-.17,1.72-4.44m-1.26,4.61l1.72-4.43m.98-5.06l-.04,.13,.47,.14,.04-.13-.47-.14m-1.37,4.65l-.03,.13,.47,.14,.04-.13-.48-.14,1.33-4.52m-.85,4.66l1.32-4.52m.56-5.13l-.03,.13,.48,.1,.03-.13-.48-.1m-.97,4.75l-.03,.13,.49,.1,.02-.13-.48-.1,.94-4.62m-.46,4.72l.94-4.62m.12-5.15v.13s.48,.06,.48,.06v-.14s-.48-.05-.48-.05m-.56,4.81l-.02,.13,.49,.06,.02-.13-.49-.06,.55-4.68m-.06,4.74l.55-4.68m-.32-5.15v.13s.49,.02,.49,.02v-.13l-.49-.02m-.16,4.85v.13h.49s0-.12,0-.12h-.5s.15-4.73,.15-4.73m.35,4.73l.15-4.71m-.75-5.03v.13s.5-.03,.5-.03v-.13s-.5,.03-.5,.03m.25,4.77v.13s.5-.02,.5-.02v-.13s-.5,.02-.5,.02l-.24-4.64m.73,4.62l-.24-4.65m-.99-5.13v.13s.5-.05,.5-.05v-.13s-.5,.05-.5,.05m.48,4.91v.13s.5-.05,.5-.05v-.13s-.5,.05-.5,.05l-.47-4.78m.96,4.73l-.47-4.78m-1.13-5.03l.02,.13,.49-.06-.02-.13-.49,.06m.61,4.83l.02,.13,.49-.07-.02-.13-.49,.07-.59-4.7m1.08,4.63l-.59-4.69m-1.28-4.99l.02,.13,.49-.08-.02-.13-.49,.08m.75,4.8l.02,.13,.49-.08-.02-.12-.49,.07-.73-4.67m1.22,4.6l-.73-4.68m-1.42-4.95l.03,.12,.48-.09-.02-.12-.49,.09m.89,4.78l.02,.12,.49-.09-.03-.12-.48,.09-.86-4.66m1.34,4.57l-.86-4.66m-1.55-4.91l.02,.13,.48-.1-.02-.13-.48,.1m1.02,4.75l.03,.13,.48-.1-.03-.13-.48,.1-1-4.62m1.48,4.52l-1-4.62m-1.69-4.87l.03,.13,.48-.12-.03-.13-.48,.12m1.16,4.72l.03,.13,.47-.12-.03-.13-.47,.12-1.13-4.59m1.6,4.47l-1.12-4.59m-1.84-4.82l.04,.13,.47-.13-.04-.13-.47,.13m1.29,4.69l.04,.13,.47-.13-.03-.13-.48,.13-1.25-4.56m1.73,4.43l-1.26-4.56m-1.97-4.76l.04,.12,.47-.14-.04-.13-.47,.15m1.42,4.64l.04,.13,.47-.14-.04-.13-.47,.14-1.38-4.52m1.85,4.38l-1.38-4.52m-2.11-4.71l.04,.13,.47-.16-.05-.12-.46,.15m1.56,4.61l.04,.12,.47-.15-.05-.13-.46,.16-1.52-4.48m1.98,4.32l-1.51-4.48m-2.25-4.64l.05,.12,.46-.17-.05-.12-.46,.17m1.69,4.56l.05,.12,.46-.17-.04-.12-.47,.17-1.64-4.44m2.11,4.27l-1.65-4.44m-2.37-4.57l.04,.12,.46-.18-.05-.13-.45,.19m1.82,4.51l.05,.12,.45-.19-.05-.12-.45,.19-1.78-4.39m2.23,4.2l-1.77-4.38m-2.5-4.51l.05,.12,.45-.2-.05-.12-.45,.2m1.95,4.45l.05,.12,.45-.19-.05-.12-.45,.19-1.9-4.33m2.35,4.14l-1.9-4.34m-2.63-4.43l.05,.12,.45-.21-.06-.12-.44,.21m2.07,4.4l.06,.12,.44-.21-.05-.12-.45,.21-1.53-3.26m-.38-.78l-.11-.24m2.47,4.07l-2.02-4.28m-2.76-4.35l.06,.11,.44-.22-.06-.12-.44,.23m2.2,4.33l.06,.12,.44-.22-.06-.12-.44,.22-2.14-4.22m2.58,4l-2.14-4.22m-2.88-4.27l.06,.11,.43-.23-.06-.12-.43,.24m2.32,4.27l.06,.11,.44-.23-.07-.12-.43,.24-2.26-4.16m2.69,3.92l-2.26-4.15m-3-4.19l.06,.11,.43-.25-.07-.11-.42,.25m2.44,4.2l.07,.11,.43-.24-.07-.12-.43,.25-2.38-4.09m2.81,3.84l-2.38-4.09m-3.13-4.1l.07,.11,.42-.26-.07-.11-.42,.26m2.57,4.13l.07,.11,.42-.25-.07-.12-.42,.26-2.5-4.02m2.92,3.76l-2.5-4.02m-3.21-4.02l.07,.11,.41-.27-.07-.11-.41,.27m2.65,4.06l.08,.11,.41-.27-.07-.11-.42,.27-2.58-3.95m3,3.68l-2.59-3.95m-3.4-3.87l.08,.1,.4-.29-.08-.1-.4,.29m2.85,3.93l.08,.11,.4-.29-.08-.11-.4,.29m.4-.29l-.06,.04m-.06,.05l-.28,.2-2.77-3.83m3.17,3.54l-2.77-3.83m-3.58-3.71l.09,.11,.38-.31-.08-.1-.39,.3m3.03,3.8l.08,.11,.39-.31-.09-.1-.38,.3-2.94-3.69m3.32,3.39l-2.94-3.7m-3.74-3.54l.08,.1,.37-.33-.08-.1-.37,.33m3.2,3.65l.08,.1,.37-.32-.08-.1-.37,.32-3.12-3.55m3.49,3.23l-3.12-3.56m-3.9-3.36l.09,.1,.35-.34-.09-.1-.35,.34m3.36,3.5l.09,.1,.36-.34-.09-.1-.36,.34-3.27-3.4m3.63,3.06l-3.28-3.4m-4.06-3.18l.1,.09,.34-.36-.1-.09-.34,.36m3.53,3.34l.09,.09,.34-.36-.09-.09-.34,.36-3.43-3.25m3.77,2.89l-3.43-3.25m-8.2-5.9l.11,.08,.29-.4-.11-.08-.29,.4m3.85,2.81l.11,.08,.29-.4-.11-.08-.29,.4-3.74-2.73m4.03,2.33l-3.74-2.73m3.54,3.2l.1,.08,.32-.37-.1-.09-.32,.38m3.73,3.21l.1,.09,.32-.38-.1-.08-.32,.37-3.63-3.13m3.95,2.76l-3.63-3.13m-8.75-4.81l.12,.05,.22-.43-.11-.06-.23,.44m4.31,2.18l.12,.06,.22-.44-.12-.06-.22,.44-4.19-2.13m4.41,1.69l-4.19-2.12m-5.09-.77l.13,.04,.11-.48-.12-.03-.12,.47m4.68,1.13l.13,.04,.11-.48-.12-.03-.12,.47-4.55-1.09m4.67,.62l-4.56-1.1m-5.14,.16h.13s.03-.48,.03-.48h-.13s-.03,.48-.03,.48m4.81,.28h.13s.03-.48,.03-.48h-.13s-.03,.48-.03,.48l-4.68-.27m4.71-.22l-4.68-.27m-4.93,1.06h.13s-.06-.5-.06-.5l-.13,.02,.06,.48m4.68-.57h.13s-.06-.5-.06-.5l-.13,.02,.06,.48-4.55,.56m4.49-1.04l-4.55,.55m-5.07,1.46l.13-.03-.09-.48-.13,.03,.09,.48m4.89-.93l.13-.03-.1-.48-.13,.02,.1,.49-3.3,.62m-.96,.19l-.5,.09m4.66-1.39l-4.75,.91m-4.89,1.65l.13-.03-.11-.48-.13,.03,.11,.48m4.73-1.11l.13-.03-.11-.48-.13,.03,.11,.48-4.6,1.08m4.49-1.56l-4.6,1.08m-4.81,1.86l.12-.04-.13-.47-.13,.03,.14,.48m4.67-1.32l.13-.03-.13-.48-.13,.04,.13,.47-4.55,1.28m4.42-1.75l-4.55,1.28m-4.7,2.04l.13-.04-.15-.47-.13,.04,.15,.47m4.59-1.5l.13-.04-.16-.47-.12,.05,.15,.46-4.46,1.46m4.31-1.92l-4.46,1.45m-4.73,2.13l.12-.04-.16-.47-.12,.04,.16,.47m4.63-1.58l.13-.04-.16-.46-.13,.04,.16,.46-4.51,1.54m4.35-2l-4.51,1.53m-4.62,2.28l.12-.05-.17-.46-.13,.05,.18,.46m4.54-1.73l.13-.04-.18-.46-.12,.04,.17,.46-4.42,1.68m4.25-2.14l-4.42,1.68m-4.55,2.44l.12-.06-.19-.45-.12,.05,.19,.46m4.48-1.88l.13-.05-.2-.46-.12,.05,.19,.46-4.36,1.82m4.17-2.28l-4.36,1.83m-4.44,2.58l.12-.05-.21-.45-.11,.06,.2,.44m4.4-2.02l.12-.06-.21-.45-.11,.06,.2,.45-4.28,1.97m4.08-2.42l-4.29,1.97m-4.38,2.75l.12-.06-.22-.44-.12,.06,.22,.44m4.36-2.19l.12-.06-.22-.44-.12,.06,.22,.44-4.24,2.13m4.02-2.57l-4.24,2.13m-4.33,2.92l.11-.06-.23-.43-.12,.06,.24,.43m4.33-2.36l.11-.07-.23-.43-.12,.07,.24,.43-4.22,2.3m3.98-2.73l-4.21,2.3m-3.96,3.18l.11-.07-.27-.41-.11,.07,.27,.41m3.98-2.62l.11-.08-.27-.41-.11,.08,.27,.41-3.87,2.55m3.6-2.96l-3.87,2.55m-3.5,3.78l.09-.09-.32-.37-.1,.09,.33,.37m3.6-3.23l.09-.09-.33-.36-.09,.08,.33,.37m-.33-.37l.04,.05m.06,.07l.22,.25-3.5,3.14m3.18-3.51l-3.5,3.14m-2.92,4.25l.09-.1-.38-.32-.09,.11,.38,.31m3.09-3.72l.08-.1-.38-.31-.08,.1,.38,.31-3,3.62m2.62-3.93l-3,3.61m-2.26,4.63l.06-.11-.42-.25-.06,.11,.42,.25m2.5-4.13l.07-.11-.42-.25-.07,.11,.42,.25-2.44,4.02m2.02-4.27l-2.44,4.02m-1.04,3.69l.05-.12-.45-.2-.06,.13,.46,.19m1.36-3.24l.05-.12-.45-.19-.05,.12,.45,.19-1.28,3.03m.83-3.22l-1.31,3.11m22.15,108.08l-.12-.06-.22,.44,.12,.06,.22-.44m-4.59-2.26l-.12-.06-.22,.44,.12,.06,.22-.44,4.47,2.2m-4.69-1.76l4.47,2.2m-4.34-2.69l-.11-.07-.27,.42,.11,.07,.27-.42m-3.91-2.52l-.11-.07-.26,.41,.11,.08,.26-.42,3.8,2.45m-4.06-2.03l3.79,2.45m-7.33-6.19l-.1-.09-.32,.37,.1,.09,.32-.37,3.62,3.19m-3.94-2.82l3.62,3.19m-6.42-7.23l-.08-.1-.38,.32,.09,.1,.37-.32,2.96,3.51m-3.33-3.19l2.96,3.51m-5.28-8.17l-.07-.11-.42,.26,.07,.11,.42-.26m.12,.2l2.44,3.96m-2.97-3.89l2.55,4.14M14.59,35.82h.2v-.49h-.2v.49m4.63,0h.19v-.49h-.19v.49m4.99,0h.2v-.49h-.2v.49m5,0h.2v-.49h-.2v.49h-4.8m4.8-.49h-4.8m9.8,.49h-4.8m4.8-.49h-4.8m9.8,.49h-4.8m4.8-.49h-4.8m9.81,.49h-4.81m4.81-.49h-4.81m9.81,.49h-4.81m4.81-.49h-4.81m10.71,.49h-5.7m5.7-.49h-5.7m-25.21,.49h-4.8m4.8-.49h-4.8m-.19,.49h-4.43m4.43-.49h-4.43m19.42,.49h.2v-.49h-.2v.49m5,0h.2v-.49h-.2v.49m5.01,0h.19v-.49h-.19v.49m5,0h.2v-.49h-.2v.49m5.9,0h.19v-.49h-.19v.49m3.56,91.59h.2v-.49h-.2v.49m-29.46,0h-4.81m4.81-.49h-4.81m9.8,.49h-4.79m4.79-.49h-4.79m9.79,.49h-4.8m4.8-.49h-4.8m9.8,.49h-4.8m4.8-.49h-4.8m9.81,.49h-4.81m4.81-.49h-4.81m9.81,.49h-4.81m4.81-.49h-4.81m9.27,.49h-4.26m4.25-.49h-4.25m-30.2,.49h-.58m.58-.49h-.58m30.58,.49h.2v-.49h-.2v.49m-5,0h.19v-.49h-.19v.49m-5.01,0h.2v-.49h-.2v.49m-5,0h.2v-.49h-.2v.49m-5,0h.2v-.49h-.2v.49m-4.99,0h.2v-.49h-.2v.49m-5,0h.19v-.49h-.19v.49m-.78,0h.2v-.49h-.2v.49m38.55,4l-.07-.11-.42,.25,.07,.12,.42-.26m3.11,3.68l-.09-.1-.37,.32,.08,.1,.38-.32m3.79,3.33l-.1-.08-.32,.37,.1,.08,.32-.37m-45.9-20.49h-.19v.49h.19v-.49m.45,.69v-.2h-.49v.2h.49v8.3m-.49-8.3v8.59m.49,.2v-.2h-.49v.2h.49M97.68,46.05h-6.25m6.25-.42h-6.25m12.5,.42h-6.09m6.09-.42h-6.09m-6.58,.44h.17v-.46h-.17v.46m6.42,0h.16v-.46h-.16v.46m9.8-.19h3v-.08h-3v.08m-19.3,0h3.08v-.08h-3.08v.08m29.96,0h3.01v-.08h-3.01v.08m10,0h3.01v-.08h-3.01v.08m9.64,0h.66v-.08h-.66v.08m.82,0h3.01v-.08h-3.01v.08m6.72,24.03v3h.08v-3h-.08m.03-12.71v3h.08v-3h-.08m.05,37.53v-3h-.08v3h.08m0,12.62v-3.01h-.08v3.01h.08m-6.51,11.52h3.02v-.08h-3.02v.08m-9.69,0h3.01v-.08h-3.01v.08m-10,0h3.01v-.08h-3.01v.08m-30.84-.02h3.01v-.08h-3.01v.08m-19.77-30.44v3h.08v-3h-.08m0,11.07v2.85h.08v-2.85h-.08m0-26.34v3h.08v-3h-.08m0-13v3h.08v-3h-.08m0-10.51v3h.08v-3h-.08M13.06,38.14l.1,1.27h.08l-.1-1.28h-.08m.49,6.38l.49,6.39h.08s-.49-6.4-.49-6.4h-.08m9.25,73.76h-4.28v.08h4.28v-.08M54.34,38.44v-2.61h-.08v2.61h.08M18.33,118.26h-4.33v.08h4.33v-.08m-10.1-28.86v-3.17h-.08v3.17h.08m-1.47-16.54v-3.16h-.08v3.16h.08m-1.66-16.51v-3.16h-.08v3.16h.08m-1.67-16.52v-3.16h-.09v3.16h.09m52.11-4.55l1.32-3.11-.08-.03-1.31,3.11,.07,.03m1.44-3.36l2.44-4.02-.07-.04-2.44,4.02,.07,.04m2.6-4.24l3-3.62-.06-.05-3,3.62,.06,.05m3.2-3.82l3.5-3.14-.06-.06-3.5,3.14,.06,.06m3.71-3.3l3.88-2.56-.05-.07-3.87,2.56,.04,.07m4.11-2.7l4.21-2.3-.04-.08-4.21,2.31,.04,.07m4.45-2.43l4.24-2.13-.04-.07-4.24,2.13,.04,.07m4.48-2.24l4.28-1.97-.04-.08-4.28,1.97,.04,.08m4.52-2.08l4.36-1.83-.03-.08-4.36,1.83,.03,.08m4.61-1.93l4.42-1.68-.03-.07-4.42,1.67,.03,.08m4.67-1.77l4.51-1.53-.02-.08-4.52,1.54,.03,.07m4.76-1.61l4.47-1.46-.03-.08-4.46,1.46,.02,.08m4.72-1.54l4.55-1.28-.02-.08-4.55,1.28,.02,.08m4.81-1.34l4.6-1.09-.02-.08-4.6,1.09,.02,.08m4.86-1.14l4.76-.91v-.08s-4.77,.91-4.77,.91v.08m5.04-.95l4.55-.56v-.08s-4.56,.56-4.56,.56v.08m4.84-.56l4.68,.27v-.08s-4.68-.28-4.68-.28v.09m4.96,.31l4.55,1.1,.02-.08-4.55-1.1-.02,.08m4.82,1.2l4.18,2.13,.04-.08-4.19-2.12-.03,.07m4.42,2.27l3.74,2.73,.05-.06-3.74-2.73-.05,.06m3.96,2.9l3.63,3.13,.05-.06-3.63-3.13-.05,.06m3.82,3.31l3.43,3.25,.06-.06-3.43-3.25-.06,.06m3.62,3.44l3.28,3.41,.06-.06-3.28-3.41-.06,.06m3.46,3.6l3.11,3.56,.07-.06-3.12-3.55-.06,.05m3.28,3.76l2.95,3.7,.06-.05-2.94-3.7-.07,.05m3.11,3.91l2.77,3.83,.06-.05-2.76-3.83-.07,.05m2.92,4.05l2.58,3.95,.07-.04-2.58-3.95-.07,.04m2.72,4.18l2.5,4.02,.07-.04-2.5-4.03-.07,.05m2.64,4.25l2.38,4.09,.07-.04-2.38-4.09-.07,.04m2.51,4.32l2.26,4.15,.07-.04-2.26-4.15-.07,.04m2.39,4.39l2.14,4.22,.07-.04-2.14-4.22-.07,.04m2.25,4.45l2.02,4.28,.08-.03-2.02-4.28-.08,.03m2.13,4.52l1.9,4.34,.08-.04-1.9-4.33-.08,.03m2,4.58l1.77,4.39,.08-.03-1.77-4.39-.08,.03m1.87,4.63l1.65,4.44,.07-.03-1.64-4.43-.08,.02m1.73,4.69l1.52,4.48,.08-.03-1.52-4.48-.08,.03m1.6,4.73l1.39,4.52,.08-.02-1.39-4.52-.08,.02m1.47,4.78l1.25,4.56,.08-.02-1.25-4.56-.08,.02m1.32,4.81l1.13,4.6,.08-.02-1.13-4.59h-.08m1.19,4.87l.99,4.62,.08-.02-.99-4.62-.08,.02m1.05,4.88l.86,4.65h.08s-.86-4.66-.86-4.66h-.08m.9,4.92l.73,4.68h.08s-.73-4.69-.73-4.69h-.08m.77,4.95l.59,4.69h.08s-.59-4.7-.59-4.7h-.08m.62,4.97l.47,4.78h.08s-.47-4.79-.47-4.79h-.08m.49,5.05l.24,4.64h.09l-.25-4.64h-.08m.25,4.91l-.15,4.72h.08l.15-4.71h-.08m-.17,4.98l-.55,4.68h.08s.55-4.67,.55-4.67h-.08m-.59,4.94l-.94,4.62,.08,.02,.94-4.62-.08-.02m-1.01,4.88l-1.33,4.53,.08,.02,1.33-4.52-.08-.03m-1.41,4.78l-1.72,4.44,.08,.03,1.71-4.44-.07-.03m-1.85,4.69l-2.46,3.93,.07,.04,2.46-3.93-.07-.04m-2.64,4.15l-3.27,3.35,.06,.06,3.27-3.35-.06-.06m-3.49,3.53l-3.91,2.59,.05,.06,3.91-2.58-.05-.07m-4.16,2.72l-4.32,1.68,.03,.08,4.32-1.69-.03-.07m-4.59,1.76l-4.64,1.01v.08s4.66-1.01,4.66-1.01l-.02-.08m-4.91,1.06l-4.68,.53v.08s4.69-.53,4.69-.53v-.08m-4.97,.55l-4.63,.06v.08l4.64-.06v-.08m-4.91,.06l-5.02-.29v.09s5.01,.28,5.01,.28v-.08m-5.28-.3l-4.5-.3v.08s4.5,.3,4.5,.3v-.08m-4.77-.32l-4.93-.36v.08s4.93,.37,4.93,.37v-.09m-5.19-.38l-4.51-.38v.08l4.5,.38v-.08m-4.76-.4l-4.5-.41v.08l4.5,.41v-.08m-4.76-.44l-4.93-.5v.08l4.92,.5v-.08m-5.18-.53l-4.88-.54v.09s4.87,.54,4.87,.54v-.09m-5.13-.57l-4.53-.53v.08s4.52,.54,4.52,.54v-.09m-4.78-.56l-4.69-.66v.08s4.68,.66,4.68,.66v-.08m-4.94-.7l-4.67-.75v.08s4.66,.75,4.66,.75v-.08m-4.92-.79l-4.66-.85v.08s4.64,.85,4.64,.85l.02-.08m-4.92-.9l-4.63-.95-.02,.08,4.64,.95v-.08m-4.88-1l-4.62-1.04-.02,.08,4.62,1.04,.02-.08m-4.88-1.11l-4.65-1.15-.02,.08,4.66,1.15v-.08m-4.89-1.22l-4.47-1.32-.03,.08,4.47,1.32,.03-.08m-4.73-1.41l-4.29-1.68-.03,.08,4.29,1.68,.03-.08m-4.54-1.79l-4.47-2.21-.04,.08,4.47,2.2,.04-.07m-4.71-2.34l-3.79-2.45-.05,.07,3.8,2.45,.04-.07m-4.01-2.62l-3.62-3.18-.06,.06,3.62,3.19,.06-.07m-3.82-3.38l-2.96-3.51-.06,.05,2.96,3.51,.06-.05m-3.12-3.73l-2.56-4.16-.07,.05,2.56,4.15,.07-.04M14.79,35.49h4.43v-.08h-4.43v.08m4.62,0h4.8v-.08h-4.8v.08m30.01,0h5.7v-.08h-5.7v.08m-5.01,0h4.81v-.08h-4.81v.08m-5,0h4.81v-.08h-4.81v.08m-5,0h4.8v-.08h-4.8v.08m-5,0h4.8v-.08h-4.8v.08m-5,0h4.8v-.08h-4.8v.08m-.77,91.84h.58v-.08h-.58v.08m30.78,0h4.26v-.08h-4.26v.08m-5.01,0h4.81v-.08h-4.81v.08m-5,0h4.81v-.08h-4.81v.08m-5,0h4.8v-.08h-4.8v.08m-5,0h4.8v-.08h-4.8v.08m-4.99,0h4.79v-.08h-4.79v.08m-5.01,0h4.81v-.08h-4.81v.08m-1.3-.12v-8.59h-.08v8.59h.08M91.43,45.88h6.25v-.08h-6.25v.08m6.41,0h6.09v-.08h-6.09v.08" />
    <path class="cls-2"
        d="M107.48,45.88h3v-.08h-3v.08m-19.3,0h3.08v-.08h-3.08v.08m29.96,0h3.01v-.08h-3.01v.08m10,0h3.01v-.08h-3.01v.08m9.64,0h.66v-.08h-.66v.08m.82,0h3.01v-.08h-3.01v.08m6.72,24.03v3h.08v-3h-.08m.03-12.71v3h.08v-3h-.08m.05,37.53v-3h-.08v3h.08m0,12.62v-3.01h-.08v3.01h.08m-6.51,11.52h3.02v-.08h-3.02v.08m-9.69,0h3.01v-.08h-3.01v.08m-10,0h3.01v-.08h-3.01v.08m-30.84-.02h3.01v-.08h-3.01v.08m-19.77-30.44v3h.08v-3h-.08m0,11.07v2.85h.08v-2.85h-.08m0-26.34v3h.08v-3h-.08m0-13v3h.08v-3h-.08m0-10.51v3h.08v-3h-.08M13.06,38.14l.1,1.27h.08l-.1-1.28h-.08m.49,6.38l.49,6.39h.08s-.49-6.4-.49-6.4h-.08m9.25,73.76h-4.28v.08h4.28v-.08M54.34,38.44v-2.61h-.08v2.61h.08M18.33,118.26h-4.33v.08h4.33v-.08m-10.1-28.86v-3.17h-.08v3.17h.08m-1.47-16.54v-3.16h-.08v3.16h.08m-1.66-16.51v-3.16h-.08v3.16h.08m-1.67-16.52v-3.16h-.09v3.16h.09m52.11-4.55l1.32-3.11-.08-.03-1.31,3.11,.07,.03m1.44-3.36l2.44-4.02-.07-.04-2.44,4.02,.07,.04m2.6-4.24l3-3.62-.06-.05-3,3.62,.06,.05m3.2-3.82l3.5-3.14-.06-.06-3.5,3.14,.06,.06m3.71-3.3l3.88-2.56-.05-.07-3.87,2.56,.04,.07m4.11-2.7l4.21-2.3-.04-.08-4.21,2.31,.04,.07m4.45-2.43l4.24-2.13-.04-.07-4.24,2.13,.04,.07m4.48-2.24l4.28-1.97-.04-.08-4.28,1.97,.04,.08m4.52-2.08l4.36-1.83-.03-.08-4.36,1.83,.03,.08m4.61-1.93l4.42-1.68-.03-.07-4.42,1.67,.03,.08m4.67-1.77l4.51-1.53-.02-.08-4.52,1.54,.03,.07m4.76-1.61l4.47-1.46-.03-.08-4.46,1.46,.02,.08m4.72-1.54l4.55-1.28-.02-.08-4.55,1.28,.02,.08m4.81-1.34l4.6-1.09-.02-.08-4.6,1.09,.02,.08m4.86-1.14l4.76-.91v-.08s-4.77,.91-4.77,.91v.08m5.04-.95l4.55-.56v-.08s-4.56,.56-4.56,.56v.08m4.84-.56l4.68,.27v-.08s-4.68-.28-4.68-.28v.09m4.96,.31l4.55,1.1,.02-.08-4.55-1.1-.02,.08m4.82,1.2l4.18,2.13,.04-.08-4.19-2.12-.03,.07m4.42,2.27l3.74,2.73,.05-.06-3.74-2.73-.05,.06m3.96,2.9l3.63,3.13,.05-.06-3.63-3.13-.05,.06m3.82,3.31l3.43,3.25,.06-.06-3.43-3.25-.06,.06m3.62,3.44l3.28,3.41,.06-.06-3.28-3.41-.06,.06m3.46,3.6l3.11,3.56,.07-.06-3.12-3.55-.06,.05m3.28,3.76l2.95,3.7,.06-.05-2.94-3.7-.07,.05m3.11,3.91l2.77,3.83,.06-.05-2.76-3.83-.07,.05m2.92,4.05l2.58,3.95,.07-.04-2.58-3.95-.07,.04m2.72,4.18l2.5,4.02,.07-.04-2.5-4.03-.07,.05m2.64,4.25l2.38,4.09,.07-.04-2.38-4.09-.07,.04m2.51,4.32l2.26,4.15,.07-.04-2.26-4.15-.07,.04m2.39,4.39l2.14,4.22,.07-.04-2.14-4.22-.07,.04m2.25,4.45l2.02,4.28,.08-.03-2.02-4.28-.08,.03m2.13,4.52l1.9,4.34,.08-.04-1.9-4.33-.08,.03m2,4.58l1.77,4.39,.08-.03-1.77-4.39-.08,.03m1.87,4.63l1.65,4.44,.07-.03-1.64-4.43-.08,.02m1.73,4.69l1.52,4.48,.08-.03-1.52-4.48-.08,.03m1.6,4.73l1.39,4.52,.08-.02-1.39-4.52-.08,.02m1.47,4.78l1.25,4.56,.08-.02-1.25-4.56-.08,.02m1.32,4.81l1.13,4.6,.08-.02-1.13-4.59h-.08m1.19,4.87l.99,4.62,.08-.02-.99-4.62-.08,.02m1.05,4.88l.86,4.65h.08s-.86-4.66-.86-4.66h-.08m.9,4.92l.73,4.68h.08s-.73-4.69-.73-4.69h-.08m.77,4.95l.59,4.69h.08s-.59-4.7-.59-4.7h-.08m.62,4.97l.47,4.78h.08s-.47-4.79-.47-4.79h-.08m.49,5.05l.24,4.64h.09l-.25-4.64h-.08m.25,4.91l-.15,4.72h.08l.15-4.71h-.08m-.17,4.98l-.55,4.68h.08s.55-4.67,.55-4.67h-.08m-.59,4.94l-.94,4.62,.08,.02,.94-4.62-.08-.02m-1.01,4.88l-1.33,4.53,.08,.02,1.33-4.52-.08-.03m-1.41,4.78l-1.72,4.44,.08,.03,1.71-4.44-.07-.03m-1.85,4.69l-2.46,3.93,.07,.04,2.46-3.93-.07-.04m-2.64,4.15l-3.27,3.35,.06,.06,3.27-3.35-.06-.06m-3.49,3.53l-3.91,2.59,.05,.06,3.91-2.58-.05-.07m-4.16,2.72l-4.32,1.68,.03,.08,4.32-1.69-.03-.07m-4.59,1.76l-4.64,1.01v.08s4.66-1.01,4.66-1.01l-.02-.08m-4.91,1.06l-4.68,.53v.08s4.69-.53,4.69-.53v-.08m-4.97,.55l-4.63,.06v.08l4.64-.06v-.08m-4.91,.06l-5.02-.29v.09s5.01,.28,5.01,.28v-.08m-5.28-.3l-4.5-.3v.08s4.5,.3,4.5,.3v-.08m-4.77-.32l-4.93-.36v.08s4.93,.37,4.93,.37v-.09m-5.19-.38l-4.51-.38v.08l4.5,.38v-.08m-4.76-.4l-4.5-.41v.08l4.5,.41v-.08m-4.76-.44l-4.93-.5v.08l4.92,.5v-.08m-5.18-.53l-4.88-.54v.09s4.87,.54,4.87,.54v-.09m-5.13-.57l-4.53-.53v.08s4.52,.54,4.52,.54v-.09m-4.78-.56l-4.69-.66v.08s4.68,.66,4.68,.66v-.08m-4.94-.7l-4.67-.75v.08s4.66,.75,4.66,.75v-.08m-4.92-.79l-4.66-.85v.08s4.64,.85,4.64,.85l.02-.08m-4.92-.9l-4.63-.95-.02,.08,4.64,.95v-.08m-4.88-1l-4.62-1.04-.02,.08,4.62,1.04,.02-.08m-4.88-1.11l-4.65-1.15-.02,.08,4.66,1.15v-.08m-4.89-1.22l-4.47-1.32-.03,.08,4.47,1.32,.03-.08m-4.73-1.41l-4.29-1.68-.03,.08,4.29,1.68,.03-.08m-4.54-1.79l-4.47-2.21-.04,.08,4.47,2.2,.04-.07m-4.71-2.34l-3.79-2.45-.05,.07,3.8,2.45,.04-.07m-4.01-2.62l-3.62-3.18-.06,.06,3.62,3.19,.06-.07m-3.82-3.38l-2.96-3.51-.06,.05,2.96,3.51,.06-.05m-3.12-3.73l-2.56-4.16-.07,.05,2.56,4.15,.07-.04M14.79,35.49h4.43v-.08h-4.43v.08m4.62,0h4.8v-.08h-4.8v.08m30.01,0h5.7v-.08h-5.7v.08m-5.01,0h4.81v-.08h-4.81v.08m-5,0h4.81v-.08h-4.81v.08m-5,0h4.8v-.08h-4.8v.08m-5,0h4.8v-.08h-4.8v.08m-5,0h4.8v-.08h-4.8v.08m-.77,91.84h.58v-.08h-.58v.08m30.78,0h4.26v-.08h-4.26v.08m-5.01,0h4.81v-.08h-4.81v.08m-5,0h4.81v-.08h-4.81v.08m-5,0h4.8v-.08h-4.8v.08m-5,0h4.8v-.08h-4.8v.08m-4.99,0h4.79v-.08h-4.79v.08m-5.01,0h4.81v-.08h-4.81v.08m-1.3-.12v-8.59h-.08v8.59h.08M91.43,45.88h6.25v-.08h-6.25v.08m6.41,0h6.09v-.08h-6.09v.08" />
    <path class=" seat" id="seat-e0aabff5-7096-4dbf-9a42-46bf675ec568"
        d="M74.42,35.59c0-.09-.07-.16-.16-.16h-1.15c-.09,0-.16,.07-.16,.16v.36c-.74-.3-1.23-1.02-1.23-1.83v-2.29h-1.97v4.48l3.94,2.28,3.94-2.27-1.04-1.79c-.09-.16-.29-.21-.45-.12-.03,.02-.05,.04-.07,.06l-.95,1c-.19,.21-.43,.37-.69,.47v-.36Z" />
    <path class=" seat" id="seat-85ae1ba1-b098-4d81-a8d3-4951a1cc88af"
        d="M78.49,24.12c0-.09-.07-.16-.16-.16h-1.15c-.09,0-.16,.07-.16,.16v.36c-.74-.3-1.23-1.02-1.23-1.83v-2.29h-1.97v4.48l3.94,2.28,3.94-2.27-1.04-1.79c-.09-.16-.29-.21-.45-.12-.03,.02-.05,.04-.07,.06l-.95,1c-.19,.21-.43,.37-.69,.47v-.36Z" />
    <path class=" seat" id="seat-2d81c8bd-2214-4827-91ac-85e23d952784"
        d="M98.09,12.54c0-.09-.07-.16-.16-.16h-1.15c-.09,0-.16,.07-.16,.16v.36c-.74-.3-1.23-1.02-1.23-1.83v-2.29h-1.97v4.48l3.94,2.28,3.94-2.27-1.04-1.79c-.09-.16-.29-.21-.45-.12-.03,.02-.05,.04-.07,.06l-.95,1c-.19,.21-.43,.37-.69,.47v-.36Z" />
    <path class=" seat" id="seat-829c57ef-2219-48c2-9c20-319860ad1bca"
        d="M64.78,35.96c-.26-.11-.5-.27-.69-.47l-.95-1s-.05-.04-.07-.06c-.16-.09-.36-.04-.45,.12l-1.04,1.79,3.94,2.27,3.94-2.28v-4.48s-1.97,0-1.97,0v2.29c0,.8-.49,1.52-1.23,1.83v-.36c0-.09-.07-.16-.16-.16h-1.15c-.09,0-.16,.07-.16,.16v.36Z" />
    <path class=" seat" id="seat-7ba65db0-187b-48b2-a46a-e6384a6a47ff"
        d="M68.89,24.48c-.26-.11-.5-.27-.69-.47l-.95-1s-.05-.04-.07-.06c-.16-.09-.36-.04-.45,.12l-1.04,1.79,3.94,2.27,3.94-2.28v-4.48s-1.97,0-1.97,0v2.29c0,.8-.49,1.52-1.23,1.83v-.36c0-.09-.07-.16-.16-.16h-1.15c-.09,0-.16,.07-.16,.16v.36Z" />
    <path class=" seat" id="seat-4bc67d70-2dd1-4f4f-95d6-5ea0efd32b5d"
        d="M64.79,28.07c0,.09,.07,.16,.16,.16h1.15c.09,0,.16-.07,.16-.16v-.36c.74,.3,1.23,1.02,1.23,1.83v2.29h1.97v-4.48l-3.94-2.28-3.94,2.27,1.04,1.79c.09,.16,.29,.21,.45,.12,.03-.02,.05-.04,.07-.06l.95-1c.19-.21,.43-.37,.69-.47v.36Z" />
    <path class=" seat" id="seat-e2f9c22e-a585-4b58-843a-bedd8350ed25"
        d="M74.42,27.71c.26,.11,.5,.27,.69,.47l.95,1s.05,.04,.07,.06c.16,.09,.36,.04,.45-.12l1.04-1.79-3.94-2.27-3.94,2.28v4.48s1.97,0,1.97,0v-2.29c0-.8,.49-1.52,1.23-1.83v.36c0,.09,.07,.16,.16,.16h1.15c.09,0,.16-.07,.16-.16v-.36Z" />
    <path class=" seat" id="seat-2ac514b5-1d35-4ae6-b6b7-90b50f25e4f6"
        d="M98.12,35.62c0-.09-.07-.16-.16-.16h-1.15c-.09,0-.16,.07-.16,.16v.36c-.74-.3-1.23-1.02-1.23-1.83v-2.29h-1.97v4.48l3.94,2.28,3.94-2.27-1.04-1.79c-.09-.16-.29-.21-.45-.12-.03,.02-.05,.04-.07,.06l-.95,1c-.19,.21-.43,.37-.69,.47v-.36Z" />
    <path class=" seat" id="seat-38430b4e-a488-4df0-bc77-98bb4271e00d"
        d="M88.48,35.99c-.26-.11-.5-.27-.69-.47l-.95-1s-.05-.04-.07-.06c-.16-.09-.36-.04-.45,.12l-1.04,1.79,3.94,2.27,3.94-2.28v-4.48s-1.97,0-1.97,0v2.29c0,.8-.49,1.52-1.23,1.83v-.36c0-.09-.07-.16-.16-.16h-1.15c-.09,0-.16,.07-.16,.16v.36Z" />
    <path class=" seat" id="seat-71470218-7688-40c2-a41c-c1e65a503c28"
        d="M88.49,28.11c0,.09,.07,.16,.16,.16h1.15c.09,0,.16-.07,.16-.16v-.36c.74,.3,1.23,1.02,1.23,1.83v2.29h1.97v-4.48l-3.94-2.28-3.94,2.27,1.04,1.79c.09,.16,.29,.21,.45,.12,.03-.02,.05-.04,.07-.06l.95-1c.19-.21,.43-.37,.69-.47v.36Z" />
    <path class=" seat" id="seat-70e63ea3-cfa0-4db4-8790-8ad092e27857"
        d="M98.12,27.75c.26,.11,.5,.27,.69,.47l.95,1s.05,.04,.07,.06c.16,.09,.36,.04,.45-.12l1.04-1.79-3.94-2.27-3.94,2.28v4.48s1.97,0,1.97,0v-2.29c0-.8,.49-1.52,1.23-1.83v.36c0,.09,.07,.16,.16,.16h1.15c.09,0,.16-.07,.16-.16v-.36Z" />
    <path class=" seat" id="seat-268b4507-93c9-47ef-b0a4-55cb69e1c41e"
        d="M121.06,34.44c0-.09-.07-.16-.16-.16h-1.15c-.09,0-.16,.07-.16,.16v.36c-.74-.3-1.23-1.02-1.23-1.83v-2.29h-1.97v4.48l3.94,2.28,3.94-2.27-1.04-1.79c-.09-.16-.29-.21-.45-.12-.03,.02-.05,.04-.07,.06l-.95,1c-.19,.21-.43,.37-.69,.47v-.36Z" />
    <path class=" seat" id="seat-6c9b54c8-321f-424c-bf5e-ffdd022971b4"
        d="M111.43,34.81c-.26-.11-.5-.27-.69-.47l-.95-1s-.05-.04-.07-.06c-.16-.09-.36-.04-.45,.12l-1.04,1.79,3.94,2.27,3.94-2.28v-4.48s-1.97,0-1.97,0v2.29c0,.8-.49,1.52-1.23,1.83v-.36c0-.09-.07-.16-.16-.16h-1.15c-.09,0-.16,.07-.16,.16v.36Z" />
    <path class=" seat" id="seat-74a7f3ed-49a2-403b-9556-05fa4042a77d"
        d="M111.44,26.92c0,.09,.07,.16,.16,.16h1.15c.09,0,.16-.07,.16-.16v-.36c.74,.3,1.23,1.02,1.23,1.83v2.29h1.97v-4.48l-3.94-2.28-3.94,2.27,1.04,1.79c.09,.16,.29,.21,.45,.12,.03-.02,.05-.04,.07-.06l.95-1c.19-.21,.43-.37,.69-.47v.36Z" />
    <path class=" seat" id="seat-eb358d9a-0293-45aa-b2e1-a9d140ad43f4"
        d="M121.06,26.57c.26,.11,.5,.27,.69,.47l.95,1s.05,.04,.07,.06c.16,.09,.36,.04,.45-.12l1.04-1.79-3.94-2.27-3.94,2.28v4.48s1.97,0,1.97,0v-2.29c0-.8,.49-1.52,1.23-1.83v.36c0,.09,.07,.16,.16,.16h1.15c.09,0,.16-.07,.16-.16v-.36Z" />
    <path class=" seat" id="seat-6190e4e6-b494-48f4-8bb7-482b5c2230ad"
        d="M125.07,23.05c0-.09-.07-.16-.16-.16h-1.15c-.09,0-.16,.07-.16,.16v.36c-.74-.3-1.23-1.02-1.23-1.83v-2.29h-1.97v4.48l3.94,2.28,3.94-2.27-1.04-1.79c-.09-.16-.29-.21-.45-.12-.03,.02-.05,.04-.07,.06l-.95,1c-.19,.21-.43,.37-.69,.47v-.36Z" />
    <path class=" seat" id="seat-3d4883d7-f24f-4bcf-8c29-48fc4d76faf5"
        d="M138.28,23.22c-.26-.11-.5-.27-.69-.47l-.95-1s-.05-.04-.07-.06c-.16-.09-.36-.04-.45,.12l-1.04,1.79,3.94,2.27,3.94-2.28v-4.48s-1.97,0-1.97,0v2.29c0,.8-.49,1.52-1.23,1.83v-.36c0-.09-.07-.16-.16-.16h-1.15c-.09,0-.16,.07-.16,.16v.36Z" />
    <path class=" seat" id="seat-b2df1e45-7b90-4a5e-8e84-fb6e164927f0"
        d="M134.34,11.64c-.26-.11-.5-.27-.69-.47l-.95-1s-.05-.04-.07-.06c-.16-.09-.36-.04-.45,.12l-1.04,1.79,3.94,2.27,3.94-2.28V7.53s-1.97,0-1.97,0v2.29c0,.8-.49,1.52-1.23,1.83v-.36c0-.09-.07-.16-.16-.16h-1.15c-.09,0-.16,.07-.16,.16v.36Z" />
    <path class=" seat" id="seat-8afb8ab3-4239-41d7-aae7-0366b7647ae9"
        d="M115.44,15.53c0,.09,.07,.16,.16,.16h1.15c.09,0,.16-.07,.16-.16v-.36c.74,.3,1.23,1.02,1.23,1.83v2.29h1.97v-4.48l-3.94-2.28-3.94,2.27,1.04,1.79c.09,.16,.29,.21,.45,.12,.03-.02,.05-.04,.07-.06l.95-1c.19-.21,.43-.37,.69-.47v.36Z" />
    <path class=" seat" id="seat-039c511b-7fbd-4735-8feb-8d299ad2c2ec"
        d="M125.06,15.18c.26,.11,.5,.27,.69,.47l.95,1s.05,.04,.07,.06c.16,.09,.36,.04,.45-.12l1.04-1.79-3.94-2.27-3.94,2.28v4.48s1.97,0,1.97,0v-2.29c0-.8,.49-1.52,1.23-1.83v.36c0,.09,.07,.16,.16,.16h1.15c.09,0,.16-.07,.16-.16v-.36Z" />
    <path class=" seat" id="seat-950d34ad-07e4-410c-ad91-f57e21710ad0"
        d="M121.06,11.6c0-.09-.07-.16-.16-.16h-1.15c-.09,0-.16,.07-.16,.16v.36c-.74-.3-1.23-1.02-1.23-1.83v-2.29h-1.97v4.48l3.94,2.28,3.94-2.27-1.04-1.79c-.09-.16-.29-.21-.45-.12-.03,.02-.05,.04-.07,.06l-.95,1c-.19,.21-.43,.37-.69,.47v-.36Z" />
    <path class=" seat" id="seat-55097ace-6fe2-4a7f-9e6f-2f7b65fa4074"
        d="M111.43,11.97c-.26-.11-.5-.27-.69-.47l-.95-1s-.05-.04-.07-.06c-.16-.09-.36-.04-.45,.12l-1.04,1.79,3.94,2.27,3.94-2.28V7.85s-1.97,0-1.97,0v2.29c0,.8-.49,1.52-1.23,1.83v-.36c0-.09-.07-.16-.16-.16h-1.15c-.09,0-.16,.07-.16,.16v.36Z" />
    <path class=" seat" id="seat-c0f93bea-d764-4acf-b123-fd8406b14c9d"
        d="M121.06,3.72c.26,.11,.5,.27,.69,.47l.95,1s.05,.04,.07,.06c.16,.09,.36,.04,.45-.12l1.04-1.79-3.94-2.27-3.94,2.28V7.83s1.97,0,1.97,0v-2.29c0-.8,.49-1.52,1.23-1.83v.36c0,.09,.07,.16,.16,.16h1.15c.09,0,.16-.07,.16-.16v-.36Z" />
    <path class=" seat" id="seat-be3a9cd4-fe2f-4105-ba2f-a18f728f6dec"
        d="M143.81,34.34c0-.09-.07-.16-.16-.16h-1.15c-.09,0-.16,.07-.16,.16v.36c-.74-.3-1.23-1.02-1.23-1.83v-2.29h-1.97v4.48l3.94,2.28,3.94-2.27-1.04-1.79c-.09-.16-.29-.21-.45-.12-.03,.02-.05,.04-.07,.06l-.95,1c-.19,.21-.43,.37-.69,.47v-.36Z" />
    <path class=" seat" id="seat-b1e3c63e-61ae-4d12-8dce-4ab0729f759f"
        d="M134.17,34.71c-.26-.11-.5-.27-.69-.47l-.95-1s-.05-.04-.07-.06c-.16-.09-.36-.04-.45,.12l-1.04,1.79,3.94,2.27,3.94-2.28v-4.48s-1.97,0-1.97,0v2.29c0,.8-.49,1.52-1.23,1.83v-.36c0-.09-.07-.16-.16-.16h-1.15c-.09,0-.16,.07-.16,.16v.36Z" />
    <path class=" seat" id="seat-d99a83a2-4866-4dbb-b263-25210bf86757"
        d="M134.18,26.83c0,.09,.07,.16,.16,.16h1.15c.09,0,.16-.07,.16-.16v-.36c.74,.3,1.23,1.02,1.23,1.83v2.29h1.97v-4.48l-3.94-2.28-3.94,2.27,1.04,1.79c.09,.16,.29,.21,.45,.12,.03-.02,.05-.04,.07-.06l.95-1c.19-.21,.43-.37,.69-.47v.36Z" />
    <path class=" seat" id="seat-9245162a-49ac-4c5a-9afe-fcab12d1c4b6"
        d="M143.81,26.47c.26,.11,.5,.27,.69,.47l.95,1s.05,.04,.07,.06c.16,.09,.36,.04,.45-.12l1.04-1.79-3.94-2.27-3.94,2.28v4.48s1.97,0,1.97,0v-2.29c0-.8,.49-1.52,1.23-1.83v.36c0,.09,.07,.16,.16,.16h1.15c.09,0,.16-.07,.16-.16v-.36Z" />
    <path class=" seat" id="seat-99a1ec17-12dc-4d22-8f46-e278e5ba4550"
        d="M167.34,129.87c0-.09-.07-.16-.16-.16h-1.15c-.09,0-.16,.07-.16,.16v.36c-.74-.3-1.23-1.02-1.23-1.83v-2.29h-1.97v4.48l3.94,2.28,3.94-2.27-1.04-1.79c-.09-.16-.29-.21-.45-.12-.03,.02-.05,.04-.07,.06l-.95,1c-.19,.21-.43,.37-.69,.47v-.36Z" />
    <path class=" seat" id="seat-32dde28e-528a-495b-a1c2-16725d842208"
        d="M157.7,130.24c-.26-.11-.5-.27-.69-.47l-.95-1s-.05-.04-.07-.06c-.16-.09-.36-.04-.45,.12l-1.04,1.79,3.94,2.27,3.94-2.28v-4.48s-1.97,0-1.97,0v2.29c0,.8-.49,1.52-1.23,1.83v-.36c0-.09-.07-.16-.16-.16h-1.15c-.09,0-.16,.07-.16,.16v.36Z" />
    <path class=" seat" id="seat-4c536acf-39b0-4ca3-8a64-c7460e86498b"
        d="M157.71,122.35c0,.09,.07,.16,.16,.16h1.15c.09,0,.16-.07,.16-.16v-.36c.74,.3,1.23,1.02,1.23,1.83v2.29h1.97v-4.48l-3.94-2.28-3.94,2.27,1.04,1.79c.09,.16,.29,.21,.45,.12,.03-.02,.05-.04,.07-.06l.95-1c.19-.21,.43-.37,.69-.47v.36Z" />
    <path class=" seat" id="seat-f723efa7-42b8-4a70-b73a-2ef46746d051"
        d="M167.34,121.99c.26,.11,.5,.27,.69,.47l.95,1s.05,.04,.07,.06c.16,.09,.36,.04,.45-.12l1.04-1.79-3.94-2.27-3.94,2.28v4.48s1.97,0,1.97,0v-2.29c0-.8,.49-1.52,1.23-1.83v.36c0,.09,.07,.16,.16,.16h1.15c.09,0,.16-.07,.16-.16v-.36Z" />
    <path class=" seat" id="seat-6637333e-ec6b-45ef-bebf-542b585fc604"
        d="M163.14,141.42c0-.09-.07-.16-.16-.16h-1.15c-.09,0-.16,.07-.16,.16v.36c-.74-.3-1.23-1.02-1.23-1.83v-2.29h-1.97v4.48l3.94,2.28,3.94-2.27-1.04-1.79c-.09-.16-.29-.21-.45-.12-.03,.02-.05,.04-.07,.06l-.95,1c-.19,.21-.43,.37-.69,.47v-.36Z" />
    <path class=" seat" id="seat-3affd5e9-a7bb-4cf2-8975-1fa9b260dbb2"
        d="M153.5,141.79c-.26-.11-.5-.27-.69-.47l-.95-1s-.05-.04-.07-.06c-.16-.09-.36-.04-.45,.12l-1.04,1.79,3.94,2.27,3.94-2.28v-4.48s-1.97,0-1.97,0v2.29c0,.8-.49,1.52-1.23,1.83v-.36c0-.09-.07-.16-.16-.16h-1.15c-.09,0-.16,.07-.16,.16v.36Z" />
    <path class=" seat" id="seat-67d117e8-7753-4981-948e-200ddb7cd3ee"
        d="M153.51,133.9c0,.09,.07,.16,.16,.16h1.15c.09,0,.16-.07,.16-.16v-.36c.74,.3,1.23,1.02,1.23,1.83v2.29h1.97v-4.48l-3.94-2.28-3.94,2.27,1.04,1.79c.09,.16,.29,.21,.45,.12,.03-.02,.05-.04,.07-.06l.95-1c.19-.21,.43-.37,.69-.47v.36Z" />
    <path class=" seat" id="seat-23536f69-3748-4d29-afe7-cb60f04a873c"
        d="M163.13,133.54c.26,.11,.5,.27,.69,.47l.95,1s.05,.04,.07,.06c.16,.09,.36,.04,.45-.12l1.04-1.79-3.94-2.27-3.94,2.28v4.48s1.97,0,1.97,0v-2.29c0-.8,.49-1.52,1.23-1.83v.36c0,.09,.07,.16,.16,.16h1.15c.09,0,.16-.07,.16-.16v-.36Z" />
    <path class=" seat" id="seat-87b10a97-47a5-4913-836b-0e334c09250c"
        d="M157.71,145.72c0,.09,.07,.16,.16,.16h1.15c.09,0,.16-.07,.16-.16v-.36c.74,.3,1.23,1.02,1.23,1.83v2.29h1.97v-4.48l-3.94-2.28-3.94,2.27,1.04,1.79c.09,.16,.29,.21,.45,.12,.03-.02,.05-.04,.07-.06l.95-1c.19-.21,.43-.37,.69-.47v.36Z" />
    <path class=" seat" id="seat-b5714ae1-39d5-476d-b1d1-89e6c869fc8b"
        d="M167.34,145.36c.26,.11,.5,.27,.69,.47l.95,1s.05,.04,.07,.06c.16,.09,.36,.04,.45-.12l1.04-1.79-3.94-2.27-3.94,2.28v4.48s1.97,0,1.97,0v-2.29c0-.8,.49-1.52,1.23-1.83v.36c0,.09,.07,.16,.16,.16h1.15c.09,0,.16-.07,.16-.16v-.36Z" />
    <path class=" seat" id="seat-7b2ecda9-888e-4eb8-b0b0-a60be22a64f1"
        d="M144.19,136.56c0-.09-.07-.16-.16-.16h-1.15c-.09,0-.16,.07-.16,.16v.36c-.74-.3-1.23-1.02-1.23-1.83v-2.29h-1.97v4.48l3.94,2.28,3.94-2.27-1.04-1.79c-.09-.16-.29-.21-.45-.12-.03,.02-.05,.04-.07,.06l-.95,1c-.19,.21-.43,.37-.69,.47v-.36Z" />
    <path class=" seat" id="seat-da2939ae-4753-4e52-8067-7f4b5551d203"
        d="M134.55,136.93c-.26-.11-.5-.27-.69-.47l-.95-1s-.05-.04-.07-.06c-.16-.09-.36-.04-.45,.12l-1.04,1.79,3.94,2.27,3.94-2.28v-4.48s-1.97,0-1.97,0v2.29c0,.8-.49,1.52-1.23,1.83v-.36c0-.09-.07-.16-.16-.16h-1.15c-.09,0-.16,.07-.16,.16v.36Z" />
    <path class=" seat" id="seat-f3f89f7e-1c88-4d2b-bdee-8ae01c0ac193"
        d="M134.56,129.04c0,.09,.07,.16,.16,.16h1.15c.09,0,.16-.07,.16-.16v-.36c.74,.3,1.23,1.02,1.23,1.83v2.29h1.97v-4.48l-3.94-2.28-3.94,2.27,1.04,1.79c.09,.16,.29,.21,.45,.12,.03-.02,.05-.04,.07-.06l.95-1c.19-.21,.43-.37,.69-.47v.36Z" />
    <path class=" seat" id="seat-7a5e8fdb-1ae4-4dac-9234-37f6a822c985"
        d="M144.18,128.69c.26,.11,.5,.27,.69,.47l.95,1s.05,.04,.07,.06c.16,.09,.36,.04,.45-.12l1.04-1.79-3.94-2.27-3.94,2.28v4.48s1.97,0,1.97,0v-2.29c0-.8,.49-1.52,1.23-1.83v.36c0,.09,.07,.16,.16,.16h1.15c.09,0,.16-.07,.16-.16v-.36Z" />
    <path class=" seat" id="seat-9e76dc9d-b1a2-4051-81aa-88afc4e6ab04"
        d="M140.25,148.11c0-.09-.07-.16-.16-.16h-1.15c-.09,0-.16,.07-.16,.16v.36c-.74-.3-1.23-1.02-1.23-1.83v-2.29h-1.97v4.48l3.94,2.28,3.94-2.27-1.04-1.79c-.09-.16-.29-.21-.45-.12-.03,.02-.05,.04-.07,.06l-.95,1c-.19,.21-.43,.37-.69,.47v-.36Z" />
    <path class=" seat" id="seat-ac620cb4-3d20-4e90-9459-b474dbbe2fe6"
        d="M130.61,148.48c-.26-.11-.5-.27-.69-.47l-.95-1s-.05-.04-.07-.06c-.16-.09-.36-.04-.45,.12l-1.04,1.79,3.94,2.27,3.94-2.28v-4.48s-1.97,0-1.97,0v2.29c0,.8-.49,1.52-1.23,1.83v-.36c0-.09-.07-.16-.16-.16h-1.15c-.09,0-.16,.07-.16,.16v.36Z" />
    <path class=" seat" id="seat-5a4f3017-8c9c-4ad2-93ef-25af3effff0f"
        d="M130.62,140.6c0,.09,.07,.16,.16,.16h1.15c.09,0,.16-.07,.16-.16v-.36c.74,.3,1.23,1.02,1.23,1.83v2.29h1.97v-4.48l-3.94-2.28-3.94,2.27,1.04,1.79c.09,.16,.29,.21,.45,.12,.03-.02,.05-.04,.07-.06l.95-1c.19-.21,.43-.37,.69-.47v.36Z" />
    <path class=" seat" id="seat-9055fda6-7ae1-4e5d-af49-557964a9602e"
        d="M140.25,140.24c.26,.11,.5,.27,.69,.47l.95,1s.05,.04,.07,.06c.16,.09,.36,.04,.45-.12l1.04-1.79-3.94-2.27-3.94,2.28v4.48s1.97,0,1.97,0v-2.29c0-.8,.49-1.52,1.23-1.83v.36c0,.09,.07,.16,.16,.16h1.15c.09,0,.16-.07,.16-.16v-.36Z" />
    <path class=" seat" id="seat-93646de3-4685-490e-abc1-8fc877801498"
        d="M121.78,135.77c0-.09-.07-.16-.16-.16h-1.15c-.09,0-.16,.07-.16,.16v.36c-.74-.3-1.23-1.02-1.23-1.83v-2.29h-1.97v4.48l3.94,2.28,3.94-2.27-1.04-1.79c-.09-.16-.29-.21-.45-.12-.03,.02-.05,.04-.07,.06l-.95,1c-.19,.21-.43,.37-.69,.47v-.36Z" />
    <path class=" seat" id="seat-6b5b559c-2c8c-4c75-96d4-a517b81c6f13"
        d="M112.14,136.14c-.26-.11-.5-.27-.69-.47l-.95-1s-.05-.04-.07-.06c-.16-.09-.36-.04-.45,.12l-1.04,1.79,3.94,2.27,3.94-2.28v-4.48s-1.97,0-1.97,0v2.29c0,.8-.49,1.52-1.23,1.83v-.36c0-.09-.07-.16-.16-.16h-1.15c-.09,0-.16,.07-.16,.16v.36Z" />
    <path class=" seat" id="seat-6b48a911-3cb5-4958-8bc7-697c2e186de0"
        d="M112.15,128.26c0,.09,.07,.16,.16,.16h1.15c.09,0,.16-.07,.16-.16v-.36c.74,.3,1.23,1.02,1.23,1.83v2.29h1.97v-4.48l-3.94-2.28-3.94,2.27,1.04,1.79c.09,.16,.29,.21,.45,.12,.03-.02,.05-.04,.07-.06l.95-1c.19-.21,.43-.37,.69-.47v.36Z" />
    <path class=" seat" id="seat-8d634cc2-11ed-4375-82d4-9545fe5ff2e9"
        d="M121.78,127.9c.26,.11,.5,.27,.69,.47l.95,1s.05,.04,.07,.06c.16,.09,.36,.04,.45-.12l1.04-1.79-3.94-2.27-3.94,2.28v4.48s1.97,0,1.97,0v-2.29c0-.8,.49-1.52,1.23-1.83v.36c0,.09,.07,.16,.16,.16h1.15c.09,0,.16-.07,.16-.16v-.36Z" />
    <path class=" seat" id="seat-3bdbe112-b43d-4cc5-a34e-d78f1f3c8278"
        d="M117.58,147.33c0-.09-.07-.16-.16-.16h-1.15c-.09,0-.16,.07-.16,.16v.36c-.74-.3-1.23-1.02-1.23-1.83v-2.29h-1.97v4.48l3.94,2.28,3.94-2.27-1.04-1.79c-.09-.16-.29-.21-.45-.12-.03,.02-.05,.04-.07,.06l-.95,1c-.19,.21-.43,.37-.69,.47v-.36Z" />
    <path class=" seat" id="seat-b87548c9-bb05-454d-a6bf-d1b27dbe5c4b"
        d="M107.94,147.7c-.26-.11-.5-.27-.69-.47l-.95-1s-.05-.04-.07-.06c-.16-.09-.36-.04-.45,.12l-1.04,1.79,3.94,2.27,3.94-2.28v-4.48s-1.97,0-1.97,0v2.29c0,.8-.49,1.52-1.23,1.83v-.36c0-.09-.07-.16-.16-.16h-1.15c-.09,0-.16,.07-.16,.16v.36Z" />
    <path class=" seat" id="seat-1de5e7f8-7e84-4b39-a23e-50033f36a5ab"
        d="M107.95,139.81c0,.09,.07,.16,.16,.16h1.15c.09,0,.16-.07,.16-.16v-.36c.74,.3,1.23,1.02,1.23,1.83v2.29h1.97v-4.48l-3.94-2.28-3.94,2.27,1.04,1.79c.09,.16,.29,.21,.45,.12,.03-.02,.05-.04,.07-.06l.95-1c.19-.21,.43-.37,.69-.47v.36Z" />
    <path class=" seat" id="seat-22047f34-8e29-47a9-952e-76b3895f7467"
        d="M96.89,136.66c0-.09-.07-.16-.16-.16h-1.15c-.09,0-.16,.07-.16,.16v.36c-.74-.3-1.23-1.02-1.23-1.83v-2.29h-1.97v4.48l3.94,2.28,3.94-2.27-1.04-1.79c-.09-.16-.29-.21-.45-.12-.03,.02-.05,.04-.07,.06l-.95,1c-.19,.21-.43,.37-.69,.47v-.36Z" />
    <path class=" seat" id="seat-703b0c2d-ec87-4a21-9dd3-9bd2faaeef44"
        d="M87.26,137.03c-.26-.11-.5-.27-.69-.47l-.95-1s-.05-.04-.07-.06c-.16-.09-.36-.04-.45,.12l-1.04,1.79,3.94,2.27,3.94-2.28v-4.48s-1.97,0-1.97,0v2.29c0,.8-.49,1.52-1.23,1.83v-.36c0-.09-.07-.16-.16-.16h-1.15c-.09,0-.16,.07-.16,.16v.36Z" />
    <path class=" seat" id="seat-e6d056c4-efa2-4312-b088-18e8b8b5d15f"
        d="M96.89,128.79c.26,.11,.5,.27,.69,.47l.95,1s.05,.04,.07,.06c.16,.09,.36,.04,.45-.12l1.04-1.79-3.94-2.27-3.94,2.28v4.48s1.97,0,1.97,0v-2.29c0-.8,.49-1.52,1.23-1.83v.36c0,.09,.07,.16,.16,.16h1.15c.09,0,.16-.07,.16-.16v-.36Z" />
    <path class=" seat" id="seat-a926dee8-c35e-49c2-86a5-271f0073b5f4"
        d="M92.56,140.34c.26,.11,.5,.27,.69,.47l.95,1s.05,.04,.07,.06c.16,.09,.36,.04,.45-.12l1.04-1.79-3.94-2.27-3.94,2.28v4.48s1.97,0,1.97,0v-2.29c0-.8,.49-1.52,1.23-1.83v.36c0,.09,.07,.16,.16,.16h1.15c.09,0,.16-.07,.16-.16v-.36Z" />
    <path class=" seat" id="seat-05238ab1-b744-413c-90e7-febcb591309a"
        d="M66.3,130.15c0,.09,.07,.16,.16,.16h1.15c.09,0,.16-.07,.16-.16v-.36c.74,.3,1.23,1.02,1.23,1.83v2.29h1.97v-4.48l-3.94-2.28-3.94,2.27,1.04,1.79c.09,.16,.29,.21,.45,.12,.03-.02,.05-.04,.07-.06l.95-1c.19-.21,.43-.37,.69-.47v.36Z" />
    <path class=" seat" id="seat-065a6152-36e9-48ff-9d26-1ecd80812d7b"
        d="M76.28,129.91c.26,.11,.5,.27,.69,.47l.95,1s.05,.04,.07,.06c.16,.09,.36,.04,.45-.12l1.04-1.79-3.94-2.27-3.94,2.28v4.48s1.97,0,1.97,0v-2.29c0-.8,.49-1.52,1.23-1.83v.36c0,.09,.07,.16,.16,.16h1.15c.09,0,.16-.07,.16-.16v-.36Z" />
    <path class=" seat" id="seat-c536eb35-add3-411e-82ed-fef65e35cf4a"
        d="M102.16,24.07c0-.09-.07-.16-.16-.16h-1.15c-.09,0-.16,.07-.16,.16v.36c-.74-.3-1.23-1.02-1.23-1.83v-2.29h-1.97v4.48l3.94,2.28,3.94-2.27-1.04-1.79c-.09-.16-.29-.21-.45-.12-.03,.02-.05,.04-.07,.06l-.95,1c-.19,.21-.43,.37-.69,.47v-.36Z" />
    <path class=" seat" id="seat-115ca991-595b-4d40-b2d8-ecca0cde855b"
        d="M92.52,24.44c-.26-.11-.5-.27-.69-.47l-.95-1s-.05-.04-.07-.06c-.16-.09-.36-.04-.45,.12l-1.04,1.79,3.94,2.27,3.94-2.28v-4.48s-1.97,0-1.97,0v2.29c0,.8-.49,1.52-1.23,1.83v-.36c0-.09-.07-.16-.16-.16h-1.15c-.09,0-.16,.07-.16,.16v.36Z" />
    <path class=" seat" id="seat-bc871869-dc18-43f7-a646-bc7367763427"
        d="M92.53,16.55c0,.09,.07,.16,.16,.16h1.15c.09,0,.16-.07,.16-.16v-.36c.74,.3,1.23,1.02,1.23,1.83v2.29h1.97v-4.48l-3.94-2.28-3.94,2.27,1.04,1.79c.09,.16,.29,.21,.45,.12,.03-.02,.05-.04,.07-.06l.95-1c.19-.21,.43-.37,.69-.47v.36Z" />
    <path class=" seat" id="seat-d5cad098-d41f-4652-b361-cb499f4cb2e7"
        d="M102.15,16.19c.26,.11,.5,.27,.69,.47l.95,1s.05,.04,.07,.06c.16,.09,.36,.04,.45-.12l1.04-1.79-3.94-2.27-3.94,2.28v4.48s1.97,0,1.97,0v-2.29c0-.8,.49-1.52,1.23-1.83v.36c0,.09,.07,.16,.16,.16h1.15c.09,0,.16-.07,.16-.16v-.36Z" />
    <path class=" seat" id="seat-7b150a2a-e35d-4d25-955d-85eef391f3a1"
        d="M154.2,39.3c.09,0,.16-.07,.16-.16v-1.15c0-.09-.07-.16-.16-.16h-.36c.3-.74,1.02-1.23,1.83-1.23h2.29v-1.97h-4.48l-2.28,3.94,2.27,3.94,1.79-1.04c.16-.09,.21-.29,.12-.45-.02-.03-.04-.05-.06-.07l-1-.95c-.21-.19-.37-.43-.47-.69h.36Z" />
    <path class=" seat" id="seat-ae42c833-1fa7-4e52-88f3-d22adab41131"
        d="M153.83,29.66c.11-.26,.27-.5,.47-.69l1-.95s.04-.05,.06-.07c.09-.16,.04-.36-.12-.45l-1.79-1.04-2.27,3.94,2.28,3.94h4.48s0-1.97,0-1.97h-2.29c-.8,0-1.52-.49-1.83-1.23h.36c.09,0,.16-.07,.16-.16v-1.15c0-.09-.07-.16-.16-.16h-.36Z" />
    <path class=" seat" id="seat-ff136002-2ba2-468a-b3f9-60cad331d29d"
        d="M162.08,39.3c-.11,.26-.27,.5-.47,.69l-1,.95s-.04,.05-.06,.07c-.09,.16-.04,.36,.12,.45l1.79,1.04,2.27-3.94-2.28-3.94h-4.48s0,1.97,0,1.97h2.29c.8,0,1.52,.49,1.83,1.23h-.36c-.09,0-.16,.07-.16,.16v1.15c0,.09,.07,.16,.16,.16h.36Z" />
    <path class=" seat" id="seat-cbfbdece-5bf8-4bea-91f7-994c31886405"
        d="M153.24,62.89c.09,0,.16-.07,.16-.16v-1.15c0-.09-.07-.16-.16-.16h-.36c.3-.74,1.02-1.23,1.83-1.23h2.29v-1.97h-4.48l-2.28,3.94,2.27,3.94,1.79-1.04c.16-.09,.21-.29,.12-.45-.02-.03-.04-.05-.06-.07l-1-.95c-.21-.19-.37-.43-.47-.69h.36Z" />
    <path class=" seat" id="seat-ee71abd1-4158-4f3c-b6a8-54df4b78e012"
        d="M152.87,53.25c.11-.26,.27-.5,.47-.69l1-.95s.04-.05,.06-.07c.09-.16,.04-.36-.12-.45l-1.79-1.04-2.27,3.94,2.28,3.94h4.48s0-1.97,0-1.97h-2.29c-.8,0-1.52-.49-1.83-1.23h.36c.09,0,.16-.07,.16-.16v-1.15c0-.09-.07-.16-.16-.16h-.36Z" />
    <path class=" seat" id="seat-0e2d6cbe-2cd2-4402-8cc9-f5b004edd1c4"
        d="M160.76,53.26c-.09,0-.16,.07-.16,.16v1.15c0,.09,.07,.16,.16,.16h.36c-.3,.74-1.02,1.23-1.83,1.23h-2.29v1.97h4.48l2.28-3.94-2.27-3.94-1.79,1.04c-.16,.09-.21,.29-.12,.45,.02,.03,.04,.05,.06,.07l1,.95c.21,.19,.37,.43,.47,.69h-.36Z" />
    <path class=" seat" id="seat-33da0efb-7576-4f81-962e-83bbcd33ca16"
        d="M161.12,62.88c-.11,.26-.27,.5-.47,.69l-1,.95s-.04,.05-.06,.07c-.09,.16-.04,.36,.12,.45l1.79,1.04,2.27-3.94-2.28-3.94h-4.48s0,1.97,0,1.97h2.29c.8,0,1.52,.49,1.83,1.23h-.36c-.09,0-.16,.07-.16,.16v1.15c0,.09,.07,.16,.16,.16h.36Z" />
    <path class=" seat" id="seat-96205ba6-b1f2-4a1e-98f3-e6a6daff4851"
        d="M164.66,58.73c.09,0,.16-.07,.16-.16v-1.15c0-.09-.07-.16-.16-.16h-.36c.3-.74,1.02-1.23,1.83-1.23h2.29v-1.97h-4.48l-2.28,3.94,2.27,3.94,1.79-1.04c.16-.09,.21-.29,.12-.45-.02-.03-.04-.05-.06-.07l-1-.95c-.21-.19-.37-.43-.47-.69h.36Z" />
    <path class=" seat" id="seat-c3535e55-50ad-4683-9836-9c4a5afbff5f"
        d="M164.29,49.1c.11-.26,.27-.5,.47-.69l1-.95s.04-.05,.06-.07c.09-.16,.04-.36-.12-.45l-1.79-1.04-2.27,3.94,2.28,3.94h4.48s0-1.97,0-1.97h-2.29c-.8,0-1.52-.49-1.83-1.23h.36c.09,0,.16-.07,.16-.16v-1.15c0-.09-.07-.16-.16-.16h-.36Z" />
    <path class=" seat" id="seat-ea2312ad-d6ff-4013-9fd7-6d038b3f90f9"
        d="M172.54,58.73c-.11,.26-.27,.5-.47,.69l-1,.95s-.04,.05-.06,.07c-.09,.16-.04,.36,.12,.45l1.79,1.04,2.27-3.94-2.28-3.94h-4.48s0,1.97,0,1.97h2.29c.8,0,1.52,.49,1.83,1.23h-.36c-.09,0-.16,.07-.16,.16v1.15c0,.09,.07,.16,.16,.16h.36Z" />
    <path class=" seat" id="seat-9c13d059-b90e-4128-93b3-ffc86d30b93e"
        d="M155.25,85.65c.09,0,.16-.07,.16-.16v-1.15c0-.09-.07-.16-.16-.16h-.36c.3-.74,1.02-1.23,1.83-1.23h2.29v-1.97h-4.48l-2.28,3.94,2.27,3.94,1.79-1.04c.16-.09,.21-.29,.12-.45-.02-.03-.04-.05-.06-.07l-1-.95c-.21-.19-.37-.43-.47-.69h.36Z" />
    <path class=" seat" id="seat-c8d521bf-f713-41e1-ac12-b53cc2ae0ca1"
        d="M154.88,76.01c.11-.26,.27-.5,.47-.69l1-.95s.04-.05,.06-.07c.09-.16,.04-.36-.12-.45l-1.79-1.04-2.27,3.94,2.28,3.94h4.48s0-1.97,0-1.97h-2.29c-.8,0-1.52-.49-1.83-1.23h.36c.09,0,.16-.07,.16-.16v-1.15c0-.09-.07-.16-.16-.16h-.36Z" />
    <path class=" seat" id="seat-5941245d-22a2-42c7-8353-5a22a0dbe84b"
        d="M162.77,76.02c-.09,0-.16,.07-.16,.16v1.15c0,.09,.07,.16,.16,.16h.36c-.3,.74-1.02,1.23-1.83,1.23h-2.29v1.97h4.48l2.28-3.94-2.27-3.94-1.79,1.04c-.16,.09-.21,.29-.12,.45,.02,.03,.04,.05,.06,.07l1,.95c.21,.19,.37,.43,.47,.69h-.36Z" />
    <path class=" seat" id="seat-4d8b8726-6002-4642-80e5-8b7b228e12a7"
        d="M163.13,85.64c-.11,.26-.27,.5-.47,.69l-1,.95s-.04,.05-.06,.07c-.09,.16-.04,.36,.12,.45l1.79,1.04,2.27-3.94-2.28-3.94h-4.48s0,1.97,0,1.97h2.29c.8,0,1.52,.49,1.83,1.23h-.36c-.09,0-.16,.07-.16,.16v1.15c0,.09,.07,.16,.16,.16h.36Z" />
    <path class=" seat" id="seat-cea07482-1bce-4541-980d-8fcb85833b04"
        d="M166.63,81.53c.09,0,.16-.07,.16-.16v-1.15c0-.09-.07-.16-.16-.16h-.36c.3-.74,1.02-1.23,1.83-1.23h2.29v-1.97h-4.48l-2.28,3.94,2.27,3.94,1.79-1.04c.16-.09,.21-.29,.12-.45-.02-.03-.04-.05-.06-.07l-1-.95c-.21-.19-.37-.43-.47-.69h.36Z" />
    <path class=" seat" id="seat-b514f5c7-fd28-4710-986f-28deb0b37645"
        d="M166.26,71.9c.11-.26,.27-.5,.47-.69l1-.95s.04-.05,.06-.07c.09-.16,.04-.36-.12-.45l-1.79-1.04-2.27,3.94,2.28,3.94h4.48s0-1.97,0-1.97h-2.29c-.8,0-1.52-.49-1.83-1.23h.36c.09,0,.16-.07,.16-.16v-1.15c0-.09-.07-.16-.16-.16h-.36Z" />
    <path class=" seat" id="seat-9b12e656-09fe-4d09-8c00-cb6c896597f4"
        d="M174.15,71.91c-.09,0-.16,.07-.16,.16v1.15c0,.09,.07,.16,.16,.16h.36c-.3,.74-1.02,1.23-1.83,1.23h-2.29v1.97h4.48l2.28-3.94-2.27-3.94-1.79,1.04c-.16,.09-.21,.29-.12,.45,.02,.03,.04,.05,.06,.07l1,.95c.21,.19,.37,.43,.47,.69h-.36Z" />
    <path class=" seat" id="seat-c46974fa-e087-4ec0-bad8-b9e3d24207f8"
        d="M178.14,85.65c.09,0,.16-.07,.16-.16v-1.15c0-.09-.07-.16-.16-.16h-.36c.3-.74,1.02-1.23,1.83-1.23h2.29v-1.97h-4.48l-2.28,3.94,2.27,3.94,1.79-1.04c.16-.09,.21-.29,.12-.45-.02-.03-.04-.05-.06-.07l-1-.95c-.21-.19-.37-.43-.47-.69h.36Z" />
    <path class=" seat" id="seat-1fe5d049-ad82-4808-87e4-939363412444"
        d="M177.77,76.01c.11-.26,.27-.5,.47-.69l1-.95s.04-.05,.06-.07c.09-.16,.04-.36-.12-.45l-1.79-1.04-2.27,3.94,2.28,3.94h4.48s0-1.97,0-1.97h-2.29c-.8,0-1.52-.49-1.83-1.23h.36c.09,0,.16-.07,.16-.16v-1.15c0-.09-.07-.16-.16-.16h-.36Z" />
    <path class=" seat" id="seat-6b594f62-54d0-4711-9be1-cc99d0a21133"
        d="M154.73,109.72c.09,0,.16-.07,.16-.16v-1.15c0-.09-.07-.16-.16-.16h-.36c.3-.74,1.02-1.23,1.83-1.23h2.29v-1.97h-4.48l-2.28,3.94,2.27,3.94,1.79-1.04c.16-.09,.21-.29,.12-.45-.02-.03-.04-.05-.06-.07l-1-.95c-.21-.19-.37-.43-.47-.69h.36Z" />
    <path class=" seat" id="seat-985c9456-e049-4296-9e33-78dbded470f7"
        d="M154.36,100.08c.11-.26,.27-.5,.47-.69l1-.95s.04-.05,.06-.07c.09-.16,.04-.36-.12-.45l-1.79-1.04-2.27,3.94,2.28,3.94h4.48s0-1.97,0-1.97h-2.29c-.8,0-1.52-.49-1.83-1.23h.36c.09,0,.16-.07,.16-.16v-1.15c0-.09-.07-.16-.16-.16h-.36Z" />
    <path class=" seat" id="seat-0e17b108-ef8f-4177-b33a-7f113dc52d85"
        d="M162.25,100.09c-.09,0-.16,.07-.16,.16v1.15c0,.09,.07,.16,.16,.16h.36c-.3,.74-1.02,1.23-1.83,1.23h-2.29v1.97h4.48l2.28-3.94-2.27-3.94-1.79,1.04c-.16,.09-.21,.29-.12,.45,.02,.03,.04,.05,.06,.07l1,.95c.21,.19,.37,.43,.47,.69h-.36Z" />
    <path class=" seat" id="seat-24d44ae1-26f0-4c13-a982-07d564ef3eaf"
        d="M162.61,109.71c-.11,.26-.27,.5-.47,.69l-1,.95s-.04,.05-.06,.07c-.09,.16-.04,.36,.12,.45l1.79,1.04,2.27-3.94-2.28-3.94h-4.48s0,1.97,0,1.97h2.29c.8,0,1.52,.49,1.83,1.23h-.36c-.09,0-.16,.07-.16,.16v1.15c0,.09,.07,.16,.16,.16h.36Z" />
    <path class=" seat" id="seat-c1a50b8c-cdca-43c7-90fd-17c13be8ac2a"
        d="M166.11,105.65c.09,0,.16-.07,.16-.16v-1.15c0-.09-.07-.16-.16-.16h-.36c.3-.74,1.02-1.23,1.83-1.23h2.29v-1.97h-4.48l-2.28,3.94,2.27,3.94,1.79-1.04c.16-.09,.21-.29,.12-.45-.02-.03-.04-.05-.06-.07l-1-.95c-.21-.19-.37-.43-.47-.69h.36Z" />
    <path class=" seat" id="seat-11a3319d-3984-4452-9914-5259906376cd"
        d="M165.74,96.01c.11-.26,.27-.5,.47-.69l1-.95s.04-.05,.06-.07c.09-.16,.04-.36-.12-.45l-1.79-1.04-2.27,3.94,2.28,3.94h4.48s0-1.97,0-1.97h-2.29c-.8,0-1.52-.49-1.83-1.23h.36c.09,0,.16-.07,.16-.16v-1.15c0-.09-.07-.16-.16-.16h-.36Z" />
    <path class=" seat" id="seat-d057d89d-e322-4728-8c38-e6e188e4198f"
        d="M173.62,96.02c-.09,0-.16,.07-.16,.16v1.15c0,.09,.07,.16,.16,.16h.36c-.3,.74-1.02,1.23-1.83,1.23h-2.29v1.97h4.48l2.28-3.94-2.27-3.94-1.79,1.04c-.16,.09-.21,.29-.12,.45,.02,.03,.04,.05,.06,.07l1,.95c.21,.19,.37,.43,.47,.69h-.36Z" />
    <path class=" seat" id="seat-2f1d2aff-0f49-4f48-a0d4-2b73911fd439"
        d="M173.98,105.64c-.11,.26-.27,.5-.47,.69l-1,.95s-.04,.05-.06,.07c-.09,.16-.04,.36,.12,.45l1.79,1.04,2.27-3.94-2.28-3.94h-4.48s0,1.97,0,1.97h2.29c.8,0,1.52,.49,1.83,1.23h-.36c-.09,0-.16,.07-.16,.16v1.15c0,.09,.07,.16,.16,.16h.36Z" />
    <path class=" seat" id="seat-5b3b9394-49c2-48c0-837d-8aab2b80b352"
        d="M177.2,100.08c.11-.26,.27-.5,.47-.69l1-.95s.04-.05,.06-.07c.09-.16,.04-.36-.12-.45l-1.79-1.04-2.27,3.94,2.28,3.94h4.48s0-1.97,0-1.97h-2.29c-.8,0-1.52-.49-1.83-1.23h.36c.09,0,.16-.07,.16-.16v-1.15c0-.09-.07-.16-.16-.16h-.36Z" />
    <path class=" seat" id="seat-6cdf41a7-2e0a-4da2-9426-38e2964ffa97"
        d="M185.09,100.09c-.09,0-.16,.07-.16,.16v1.15c0,.09,.07,.16,.16,.16h.36c-.3,.74-1.02,1.23-1.83,1.23h-2.29v1.97h4.48l2.28-3.94-2.27-3.94-1.79,1.04c-.16,.09-.21,.29-.12,.45,.02,.03,.04,.05,.06,.07l1,.95c.21,.19,.37,.43,.47,.69h-.36Z" />
    <path class=" seat" id="seat-222540a5-0594-4822-87f7-fb79d93c7079"
        d="M185.45,109.71c-.11,.26-.27,.5-.47,.69l-1,.95s-.04,.05-.06,.07c-.09,.16-.04,.36,.12,.45l1.79,1.04,2.27-3.94-2.28-3.94h-4.48s0,1.97,0,1.97h2.29c.8,0,1.52,.49,1.83,1.23h-.36c-.09,0-.16,.07-.16,.16v1.15c0,.09,.07,.16,.16,.16h.36Z" />
</svg>