<svg xmlns="http://www.w3.org/2000/svg" id="Capa_1" data-name="Capa 1" viewBox="0 0 2795 2597"><defs><style>.cls-1{fill:#fff;stroke:#000;}.cls-2,.cls-4,.cls-5,.cls-8{isolation:isolate;font-family:ArialMT, Arial;}.cls-2{font-size:35px;}.cls-3{letter-spacing:-0.07em;}.cls-4{font-size:30px;}.cls-5,.cls-8{font-size:45px;}.cls-6{fill:#a6a6a6;}.cls-6,.cls-7{stroke:#666;}.cls-7{fill:#f5f5f5;}.cls-8{fill:#333;}</style></defs><title>Creekbank_Floor_Plan_-_modified (1)</title><rect class="cls-1 seat" x="253.5" y="594.5" width="100" height="100" rx="15" id="seat-280"/><text pointer-events="none" class="cls-2" transform="translate(273.8 655)">280</text><rect class="cls-1 seat" x="253.5" y="476.5" width="100" height="100" rx="15" id="seat-279"/><text pointer-events="none" class="cls-2" transform="translate(273.8 536)">279</text><rect class="cls-1 seat" x="382.5" y="594.5" width="100" height="100" rx="15" id="seat-284"/><text pointer-events="none" class="cls-2" transform="translate(402.8 655)">284</text><rect class="cls-1 seat" x="382.5" y="476.5" width="100" height="100" rx="15" id="seat-283"/><text pointer-events="none" class="cls-2" transform="translate(402.8 536)">283</text><rect class="cls-1 seat" x="318" y="354.5" width="100" height="100" rx="15" id="seat-281"/><text pointer-events="none" class="cls-2" transform="translate(338.8 415)">281</text><rect class="cls-1 seat" x="447" y="354.5" width="100" height="100" rx="15" id="seat-282"/><text pointer-events="none" class="cls-2" transform="translate(467.8 415)">282</text><rect class="cls-1 seat" x="743.5" y="594.5" width="100" height="100" rx="15" id="seat-285"/><text pointer-events="none" class="cls-2" transform="translate(763.8 655)">285</text><rect class="cls-1 seat" x="743.5" y="476.5" width="100" height="100" rx="15" id="seat-286"/><text pointer-events="none" class="cls-2" transform="translate(763.8 536)">286</text><rect class="cls-1 seat" x="872.5" y="594.5" width="100" height="100" rx="15" id="seat-293"/><text pointer-events="none" class="cls-2" transform="translate(892.8 655)">293</text><rect class="cls-1 seat" x="872.5" y="476.5" width="100" height="100" rx="15" id="seat-292"/><text pointer-events="none" class="cls-2" transform="translate(892.8 536)">292</text><rect class="cls-1 seat" x="1227.5" y="594.5" width="100" height="100" rx="15" id="seat-294"/><text pointer-events="none" class="cls-2" transform="translate(1247.8 655)">294</text><rect class="cls-1 seat" x="1227.5" y="476.5" width="100" height="100" rx="15" id="seat-295"/><text pointer-events="none" class="cls-2" transform="translate(1247.8 536)">295</text><rect class="cls-1 seat" x="1356.5" y="594.5" width="100" height="100" rx="15" id="seat-303"/><text pointer-events="none" class="cls-2" transform="translate(1376.8 655)">303</text><rect class="cls-1 seat" x="1356.5" y="476.5" width="100" height="100" rx="15" id="seat-302"/><text pointer-events="none" class="cls-2" transform="translate(1376.8 536)">302</text><rect class="cls-1 seat" x="816" y="354.5" width="100" height="100" rx="15" id="seat-287"/><text pointer-events="none" class="cls-2" transform="translate(836.8 415)">287</text><rect class="cls-1 seat" x="816" y="236.5" width="100" height="100" rx="15" id="seat-288"/><text pointer-events="none" class="cls-2" transform="translate(836.8 297)">288</text><rect class="cls-1 seat" x="945" y="354.5" width="100" height="100" rx="15" id="seat-291"/><text pointer-events="none" class="cls-2" transform="translate(965.8 415)">291</text><rect class="cls-1 seat" x="945" y="236.5" width="100" height="100" rx="15" id="seat-290"/><text pointer-events="none" class="cls-2" transform="translate(965.8 297)">290</text><rect class="cls-1 seat" x="880.5" y="118.5" width="100" height="100" rx="15" id="seat-289"/><text pointer-events="none" class="cls-2" transform="translate(900.8 179)">289</text><rect class="cls-1 seat" x="1292" y="236.5" width="100" height="100" rx="15" id="seat-296"/><text pointer-events="none" class="cls-2" transform="translate(1312.8 297)">296</text><rect class="cls-1 seat" x="1421" y="354.5" width="100" height="100" rx="15" id="seat-301"/><text pointer-events="none" class="cls-2" transform="translate(1440.8 415)">301</text><rect class="cls-1 seat" x="1421" y="236.5" width="100" height="100" rx="15" id="seat-300"/><text pointer-events="none" class="cls-2" transform="translate(1440.8 297)">300</text><rect class="cls-1 seat" x="1227.5" y="118.5" width="100" height="100" rx="15" id="seat-297"/><text pointer-events="none" class="cls-2" transform="translate(1247.8 179)">297</text><rect class="cls-1 seat" x="1356.5" y="118.5" width="100" height="100" rx="15" id="seat-299"/><text pointer-events="none" class="cls-2" transform="translate(1376.8 179)">299</text><rect class="cls-1 seat" x="1356.5" y="0.5" width="100" height="100" rx="15" id="seat-298"/><text pointer-events="none" class="cls-2" transform="translate(1376.8 61)">298</text><rect class="cls-1 seat" x="1636.5" y="118.5" width="100" height="100" rx="15" id="seat-308"/><text pointer-events="none" class="cls-2" transform="translate(1656.8 179)">308</text><rect class="cls-1 seat" x="1636.5" y="594.5" width="100" height="100" rx="15" id="seat-304"/><text pointer-events="none" class="cls-2" transform="translate(1656.8 655)">304</text><rect class="cls-1 seat" x="1636.5" y="476.5" width="100" height="100" rx="15" id="seat-305"/><text pointer-events="none" class="cls-2" transform="translate(1656.8 536)">305</text><rect class="cls-1 seat" x="1765.5" y="594.5" width="100" height="100" rx="15" id="seat-310"/><text pointer-events="none" class="cls-2" transform="translate(1785.8 655)">310</text><rect class="cls-1 seat" x="1765.5" y="476.5" width="100" height="100" rx="15" id="seat-309"/><text pointer-events="none" class="cls-2" transform="translate(1785.8 536)">309</text><rect class="cls-1 seat" x="1706.5" y="354.5" width="100" height="100" rx="15" id="seat-306"/><text pointer-events="none" class="cls-2" transform="translate(1726.8 415)">306</text><rect class="cls-1 seat" x="2041.5" y="653.5" width="100" height="100" rx="15" id="seat-313"/><text pointer-events="none" class="cls-2" transform="translate(2061.8 714)">313</text><rect class="cls-1 seat" x="2170.5" y="653.5" width="100" height="100" rx="15" id="seat-312"/><text pointer-events="none" class="cls-2" transform="translate(2190.8 714)">312</text><rect class="cls-1 seat" x="2042.5" y="533.5" width="100" height="100" rx="15" id="seat-311"/><text pointer-events="none" class="cls-2" transform="translate(2064.1 594)">3<tspan class="cls-3" x="19.47" y="0">1</tspan><tspan x="36.33" y="0">1</tspan></text><rect class="cls-1 seat" x="2043.5" y="972.5" width="100" height="100" rx="15" id="seat-320"/><text pointer-events="none" class="cls-2" transform="translate(2063.8 1033)">320</text><rect class="cls-1 seat" x="2043.5" y="854.5" width="100" height="100" rx="15" id="seat-314"/><text pointer-events="none" class="cls-2" transform="translate(2063.8 915)">314</text><rect class="cls-1 seat" x="2172.5" y="972.5" width="100" height="100" rx="15" id="seat-319"/><text pointer-events="none" class="cls-2" transform="translate(2192.8 1033)">319</text><rect class="cls-1 seat" x="2172.5" y="854.5" width="100" height="100" rx="15" id="seat-315"/><text pointer-events="none" class="cls-2" transform="translate(2192.8 915)">315</text><rect class="cls-1 seat" x="2308" y="914.5" width="100" height="100" rx="15" id="seat-318"/><text pointer-events="none" class="cls-2" transform="translate(2328.8 975)">318</text><rect class="cls-1 seat" x="2437" y="914.5" width="100" height="100" rx="15" id="seat-317"/><text pointer-events="none" class="cls-2" transform="translate(2456.8 975)">317</text><rect class="cls-1 seat" x="2309" y="794.5" width="100" height="100" rx="15" id="seat-316"/><text pointer-events="none" class="cls-2" transform="translate(2329.8 855)">316</text><rect class="cls-1 seat" x="2041.5" y="1330.5" width="100" height="100" rx="15" id="seat-329"/><text pointer-events="none" class="cls-2" transform="translate(2061.8 1391)">329</text><rect class="cls-1 seat" x="2041.5" y="1212.5" width="100" height="100" rx="15" id="seat-321"/><text pointer-events="none" class="cls-2" transform="translate(2061.8 1273)">321</text><rect class="cls-1 seat" x="2170.5" y="1330.5" width="100" height="100" rx="15" id="seat-328"/><text pointer-events="none" class="cls-2" transform="translate(2190.8 1391)">328</text><rect class="cls-1 seat" x="2170.5" y="1212.5" width="100" height="100" rx="15" id="seat-322"/><text pointer-events="none" class="cls-2" transform="translate(2190.8 1273)">322</text><rect class="cls-1 seat" x="2308" y="1271.5" width="100" height="100" rx="15" id="seat-327"/><text pointer-events="none" class="cls-2" transform="translate(2328.8 1332)">327</text><rect class="cls-1 seat" x="2308" y="1153.5" width="100" height="100" rx="15" id="seat-323"/><text pointer-events="none" class="cls-2" transform="translate(2328.8 1214)">323</text><rect class="cls-1 seat" x="2437" y="1153.5" width="100" height="100" rx="15" id="seat-324"/><text pointer-events="none" class="cls-2" transform="translate(2456.8 1214)">324</text><rect class="cls-1 seat" x="2565.5" y="1330.5" width="100" height="100" rx="15" id="seat-326"/><text pointer-events="none" class="cls-2" transform="translate(2585.8 1391)">326</text><rect class="cls-1 seat" x="2565.5" y="1212.5" width="100" height="100" rx="15" id="seat-325"/><text pointer-events="none" class="cls-2" transform="translate(2585.8 1273)">325</text><rect class="cls-1 seat" x="2043.5" y="1743.5" width="100" height="100" rx="15" id="seat-340"/><text pointer-events="none" class="cls-2" transform="translate(2063.8 1804)">340</text><rect class="cls-1 seat" x="2043.5" y="1625.5" width="100" height="100" rx="15" id="seat-330"/><text pointer-events="none" class="cls-2" transform="translate(2063.8 1686)">330</text><rect class="cls-1 seat" x="2172.5" y="1743.5" width="100" height="100" rx="15" id="seat-339"/><text pointer-events="none" class="cls-2" transform="translate(2192.8 1804)">339</text><rect class="cls-1 seat" x="2172.5" y="1625.5" width="100" height="100" rx="15" id="seat-331"/><text pointer-events="none" class="cls-2" transform="translate(2192.8 1686)">331</text><rect class="cls-1 seat" x="2308" y="1684.5" width="100" height="100" rx="15" id="seat-338"/><text pointer-events="none" class="cls-2" transform="translate(2328.8 1745)">338</text><rect class="cls-1 seat" x="2308" y="1566.5" width="100" height="100" rx="15" id="seat-332"/><text pointer-events="none" class="cls-2" transform="translate(2328.8 1627)">332</text><rect class="cls-1 seat" x="2437" y="1684.5" width="100" height="100" rx="15" id="seat-337"/><text pointer-events="none" class="cls-2" transform="translate(2456.8 1745)">337</text><rect class="cls-1 seat" x="2437" y="1566.5" width="100" height="100" rx="15" id="seat-333"/><text pointer-events="none" class="cls-2" transform="translate(2456.8 1627)">333</text><rect class="cls-1 seat" x="2565.5" y="1625.5" width="100" height="100" rx="15" id="seat-334"/><text pointer-events="none" class="cls-2" transform="translate(2585.8 1686)">334</text><rect class="cls-1 seat" x="2694.5" y="1743.5" width="100" height="100" rx="15" id="seat-336"/><text pointer-events="none" class="cls-2" transform="translate(2714.8 1804)">336</text><rect class="cls-1 seat" x="2694.5" y="1625.5" width="100" height="100" rx="15" id="seat-335"/><text pointer-events="none" class="cls-2" transform="translate(2714.8 1686)">335</text><rect class="cls-1 seat" x="2141.5" y="2115.5" width="100" height="100" rx="15" id="seat-351"/><text pointer-events="none" class="cls-2" transform="translate(2161.8 2176)">351</text><rect class="cls-1 seat" x="2141.5" y="1997.5" width="100" height="100" rx="15" id="seat-350"/><text pointer-events="none" class="cls-2" transform="translate(2161.8 2058)">350</text><rect class="cls-1 seat" x="2270.5" y="2115.5" width="100" height="100" rx="15" id="seat-348"/><text pointer-events="none" class="cls-2" transform="translate(2290.8 2176)">348</text><rect class="cls-1 seat" x="2270.5" y="1997.5" width="100" height="100" rx="15" id="seat-349"/><text pointer-events="none" class="cls-2" transform="translate(2290.8 2058)">349</text><rect class="cls-1 seat" x="2077" y="2364.5" width="100" height="100" rx="15" id="seat-353"/><text pointer-events="none" class="cls-2" transform="translate(2096.8 2425)">353</text><rect class="cls-1 seat" x="2077" y="2246.5" width="100" height="100" rx="15" id="seat-352"/><text pointer-events="none" class="cls-2" transform="translate(2096.8 2307)">352</text><rect class="cls-1 seat" x="2206" y="2364.5" width="100" height="100" rx="15" id="seat-346"/><text pointer-events="none" class="cls-2" transform="translate(2226.8 2425)">346</text><rect class="cls-1 seat" x="2206" y="2246.5" width="100" height="100" rx="15" id="seat-347"/><text pointer-events="none" class="cls-2" transform="translate(2226.8 2307)">347</text><rect class="cls-1 seat" x="2143.5" y="2496.5" width="100" height="100" rx="15" id="seat-354"/><text pointer-events="none" class="cls-2" transform="translate(2163.8 2557)">354</text><rect class="cls-1 seat" x="2272.5" y="2496.5" width="100" height="100" rx="15" id="seat-345"/><text pointer-events="none" class="cls-2" transform="translate(2292.8 2557)">345</text><rect class="cls-1 seat" x="1590" y="2233.5" width="100" height="100" rx="15" id="seat-360"/><text pointer-events="none" class="cls-2" transform="translate(1610.8 2294)">360</text><rect class="cls-1 seat" x="1590" y="2115.5" width="100" height="100" rx="15" id="seat-359"/><text pointer-events="none" class="cls-2" transform="translate(1610.8 2176)">359</text><rect class="cls-1 seat" x="1719" y="2233.5" width="100" height="100" rx="15" id="seat-357"/><text pointer-events="none" class="cls-2" transform="translate(1739.8 2294)">357</text><rect class="cls-1 seat" x="1719" y="2115.5" width="100" height="100" rx="15" id="seat-358"/><text pointer-events="none" class="cls-2" transform="translate(1739.8 2176)">358</text><rect class="cls-1 seat" x="1525.5" y="2482.5" width="100" height="100" rx="15" id="seat-362"/><text pointer-events="none" class="cls-2" transform="translate(1545.8 2543)">362</text><rect class="cls-1 seat" x="1525.5" y="2364.5" width="100" height="100" rx="15" id="seat-361"/><text pointer-events="none" class="cls-2" transform="translate(1545.8 2425)">361</text><rect class="cls-1 seat" x="1654.5" y="2482.5" width="100" height="100" rx="15" id="seat-355"/><text pointer-events="none" class="cls-2" transform="translate(1674.8 2543)">355</text><rect class="cls-1 seat" x="1654.5" y="2364.5" width="100" height="100" rx="15" id="seat-356"/><text pointer-events="none" class="cls-2" transform="translate(1674.8 2425)">356</text><rect class="cls-1 seat" x="1073" y="2233.5" width="100" height="100" rx="15" id="seat-367"/><text pointer-events="none" class="cls-2" transform="translate(1093.8 2294)">367</text><rect class="cls-1 seat" x="1073" y="2115.5" width="100" height="100" rx="15" id="seat-366"/><text pointer-events="none" class="cls-2" transform="translate(1093.8 2176)">366</text><rect class="cls-1 seat" x="1202" y="2233.5" width="100" height="100" rx="15" id="seat-364"/><text pointer-events="none" class="cls-2" transform="translate(1222.8 2294)">364</text><rect class="cls-1 seat" x="1202" y="2115.5" width="100" height="100" rx="15" id="seat-365"/><text pointer-events="none" class="cls-2" transform="translate(1222.8 2176)">365</text><rect class="cls-1 seat" x="1008.5" y="2482.5" width="100" height="100" rx="15" id="seat-369"/><text pointer-events="none" class="cls-2" transform="translate(1028.8 2543)">369</text><rect class="cls-1 seat" x="1008.5" y="2364.5" width="100" height="100" rx="15" id="seat-368"/><text pointer-events="none" class="cls-2" transform="translate(1028.8 2425)">368</text><rect class="cls-1 seat" x="1137.5" y="2482.5" width="100" height="100" rx="15" id="seat-363"/><text pointer-events="none" class="cls-2" transform="translate(1157.8 2543)">363</text><rect class="cls-1 seat" x="603.5" y="2233.5" width="100" height="100" rx="15" id="seat-373"/><text pointer-events="none" class="cls-2" transform="translate(623.8 2294)">373</text><rect class="cls-1 seat" x="663.5" y="2364.5" width="100" height="100" rx="15" id="seat-370"/><text pointer-events="none" class="cls-2" transform="translate(683.8 2425)">370</text><rect class="cls-1 seat" x="732.5" y="2233.5" width="100" height="100" rx="15" id="seat-371"/><text pointer-events="none" class="cls-2" transform="translate(752.8 2294)">371</text><rect class="cls-1 seat" x="732.5" y="2115.5" width="100" height="100" rx="15" id="seat-372"/><text pointer-events="none" class="cls-2" transform="translate(752.8 2176)">372</text><rect class="cls-1 seat" x="253.5" y="2233.5" width="100" height="100" rx="15" id="seat-374"/><text class="cls-4" transform="translate(277.97 2292)">374</text><rect class="cls-1 seat" x="382.5" y="2233.5" width="100" height="100" rx="15" id="seat-375"/><text pointer-events="none" class="cls-2" transform="translate(402.8 2294)">375</text><rect class="cls-1" x="1565.5" y="1262.5" width="300" height="428" rx="45"/><text class="cls-5" transform="translate(1639.95 1489)">Kitchen</text><rect class="cls-1" x="1565.5" y="1046.5" width="300" height="204" rx="30.6"/><text class="cls-5" transform="translate(1648.73 1162)">Printer</text><rect class="cls-6" x="1253.5" y="1045.5" width="300" height="645" rx="45"/><rect class="cls-6" x="417.5" y="1043.5" width="822" height="647" rx="97.05"/><rect class="cls-7" x="623.5" y="803.5" width="1242" height="162" rx="24.3"/><text class="cls-8" transform="translate(1086.43 898)">Meeting Rooms</text><rect class="cls-7" x="623.5" y="1764.5" width="1242" height="236" rx="35.4"/><text class="cls-8" transform="translate(1086.43 1896)">Meeting Rooms</text><rect class="cls-7" x="0.5" y="814.5" width="336" height="1188" rx="50.4"/><text class="cls-8" transform="translate(10.43 1421)">Meeting Rooms</text></svg>